M48
; DRILL file {KiCad 8.0.2-1} date 2025-01-23T13:43:48+0900
; FORMAT={-:-/ absolute / metric / decimal}
; #@! TF.CreationDate,2025-01-23T13:43:48+09:00
; #@! TF.GenerationSoftware,Kicad,Pcbnew,8.0.2-1
; #@! TF.FileFunction,Plated,1,4,PTH
FMAT,2
METRIC
; #@! TA.AperFunction,Plated,PTH,ViaDrill
T1C0.300
; #@! TA.AperFunction,Plated,PTH,ViaDrill
T2C0.400
; #@! TA.AperFunction,Plated,PTH,ComponentDrill
T3C0.400
; #@! TA.AperFunction,Plated,PTH,ComponentDrill
T4C0.650
; #@! TA.AperFunction,Plated,PTH,ComponentDrill
T5C0.900
; #@! TA.AperFunction,Plated,PTH,ComponentDrill
T6C1.000
; #@! TA.AperFunction,Plated,PTH,ComponentDrill
T7C1.300
; #@! TA.AperFunction,Plated,PTH,ComponentDrill
T8C2.800
%
G90
G05
T1
X102.5Y-107.5
X102.5Y-112.5
X102.5Y-130.0
X102.5Y-135.0
X106.45Y-106.36
X107.5Y-130.0
X107.5Y-135.0
X107.605Y-110.945
X107.73Y-104.845
X107.96Y-122.31
X107.97Y-119.62
X108.0Y-141.0
X108.405Y-113.465
X108.78Y-106.095
X108.78Y-107.595
X109.09Y-103.65
X109.33Y-102.745
X110.245Y-110.23
X110.38Y-106.095
X110.38Y-107.595
X110.405Y-112.82
X110.93Y-103.695
X111.655Y-108.845
X112.5Y-120.0
X112.5Y-130.0
X112.5Y-135.0
X112.53Y-107.095
X112.605Y-110.92
X112.605Y-112.12
X113.0Y-141.0
X113.47Y-107.84
X113.58Y-102.61
X117.86Y-132.49
X118.0Y-141.0
X120.66Y-128.94
X120.87Y-126.86
X123.0Y-141.0
X124.33Y-132.51
X124.59Y-129.9
X126.83Y-134.65
X127.5Y-115.0
X128.0Y-141.0
X130.0Y-105.0
X130.36Y-128.86
X132.2Y-127.52
X132.5Y-115.0
X132.5Y-122.5
X133.0Y-141.0
X133.49Y-130.51
X135.0Y-105.0
X138.0Y-141.0
X139.2Y-118.74
X140.0Y-105.0
X141.05Y-108.83
X141.1Y-124.91
X141.76Y-123.21
X142.5Y-115.0
X142.5Y-135.0
X143.0Y-141.0
X145.0Y-102.5
X145.91Y-113.83
X146.3Y-117.052
X146.3Y-118.552
X147.19Y-122.35
X147.5Y-135.0
X148.0Y-141.0
X150.0Y-102.5
X150.27Y-112.45
X150.4Y-116.052
X151.84Y-120.05
X152.7Y-123.552
X152.87Y-134.83
X152.94Y-132.04
X152.95Y-114.1
X152.97Y-130.44
X153.0Y-141.0
X153.11Y-118.1
X153.55Y-109.49
X154.8Y-118.91
X155.0Y-102.5
X155.14Y-129.22
X155.2Y-121.052
X155.38Y-109.07
X155.665Y-110.725
X155.77Y-128.5
X156.661Y-112.498
X156.94Y-133.96
X157.05Y-132.85
X157.7Y-118.552
X158.0Y-141.0
X160.0Y-102.5
X161.72Y-127.3
T2
X109.39Y-111.76
X114.57Y-111.36
X115.1Y-118.06
X117.92Y-133.46
X124.83Y-111.74
X129.54Y-119.88
X134.44Y-136.77
X139.25Y-124.07
X149.31Y-114.55
X150.4Y-125.953
X155.16Y-134.99
X161.8Y-117.652
T4
X104.86Y-108.99
X104.86Y-110.26
T5
X128.1Y-110.25
X130.64Y-110.25
X134.5Y-110.25
X137.04Y-110.25
T6
X119.25Y-105.5
X123.75Y-105.5
X160.33Y-107.03
X160.33Y-109.57
X160.33Y-112.11
X160.71Y-129.53
X160.71Y-132.07
X160.71Y-134.61
T7
X118.0Y-108.0
X125.0Y-108.0
T8
X115.227Y-125.773
X124.773Y-116.227
X124.773Y-125.773
X136.227Y-116.227
X136.227Y-125.773
X145.773Y-125.773
T3
G00X101.45Y-115.3
M15
G01X100.65Y-115.3
M16
G05
G00X101.45Y-126.7
M15
G01X100.65Y-126.7
M16
G05
G00X104.85Y-115.65
M15
G01X104.45Y-115.65
M16
G05
G00X104.85Y-118.55
M15
G01X104.45Y-118.55
M16
G05
G00X104.85Y-123.45
M15
G01X104.45Y-123.45
M16
G05
G00X104.85Y-126.35
M15
G01X104.45Y-126.35
M16
G05
M30
