%TF.GenerationSoftware,KiCad,Pcbnew,8.0.2-1*%
%TF.CreationDate,2025-01-23T13:43:47+09:00*%
%TF.ProjectId,gas_nrf52832,6761735f-6e72-4663-9532-3833322e6b69,rev?*%
%TF.SameCoordinates,Original*%
%TF.FileFunction,Copper,L3,Inr*%
%TF.FilePolarity,Positive*%
%FSLAX46Y46*%
G04 Gerber Fmt 4.6, Leading zero omitted, Abs format (unit mm)*
G04 Created by KiCad (PCBNEW 8.0.2-1) date 2025-01-23 13:43:47*
%MOMM*%
%LPD*%
G01*
G04 APERTURE LIST*
%TA.AperFunction,ComponentPad*%
%ADD10C,1.400000*%
%TD*%
%TA.AperFunction,ComponentPad*%
%ADD11R,1.000000X1.000000*%
%TD*%
%TA.AperFunction,ComponentPad*%
%ADD12O,1.000000X1.000000*%
%TD*%
%TA.AperFunction,ComponentPad*%
%ADD13R,1.700000X1.700000*%
%TD*%
%TA.AperFunction,ComponentPad*%
%ADD14O,1.700000X1.700000*%
%TD*%
%TA.AperFunction,ComponentPad*%
%ADD15R,1.508000X1.508000*%
%TD*%
%TA.AperFunction,ComponentPad*%
%ADD16C,1.508000*%
%TD*%
%TA.AperFunction,ComponentPad*%
%ADD17C,1.950000*%
%TD*%
%TA.AperFunction,ComponentPad*%
%ADD18O,1.100000X0.700000*%
%TD*%
%TA.AperFunction,ComponentPad*%
%ADD19O,1.700000X0.950000*%
%TD*%
%TA.AperFunction,ComponentPad*%
%ADD20C,3.800000*%
%TD*%
%TA.AperFunction,ViaPad*%
%ADD21C,0.600000*%
%TD*%
%TA.AperFunction,ViaPad*%
%ADD22C,0.700000*%
%TD*%
G04 APERTURE END LIST*
D10*
X128100000Y-110250000D03*
X130640000Y-110250000D03*
D11*
X104860000Y-110260000D03*
D12*
X104860000Y-108990000D03*
D13*
X160710000Y-134610000D03*
D14*
X160710000Y-132070000D03*
X160710000Y-129530000D03*
D13*
X160330000Y-107030000D03*
D14*
X160330000Y-109570000D03*
X160330000Y-112110000D03*
D15*
X119250000Y-105500000D03*
D16*
X123750000Y-105500000D03*
D17*
X118000000Y-108000000D03*
X125000000Y-108000000D03*
D10*
X134500000Y-110250000D03*
X137040000Y-110250000D03*
D18*
X104650000Y-118550000D03*
X104650000Y-126350000D03*
X104650000Y-123450000D03*
X104650000Y-115650000D03*
D19*
X101050000Y-115300000D03*
X101050000Y-126700000D03*
D20*
X115227029Y-125772971D03*
X124772971Y-116227029D03*
X124772971Y-125772971D03*
X136227029Y-125772971D03*
X136227029Y-116227029D03*
X145772971Y-125772971D03*
D21*
X145000000Y-102500000D03*
X102500000Y-135000000D03*
X112500000Y-135000000D03*
X153000000Y-141000000D03*
X108780000Y-107595000D03*
X161720000Y-127300000D03*
X152700000Y-123552500D03*
X130000000Y-105000000D03*
X102500000Y-112500000D03*
X139200000Y-118740000D03*
X138000000Y-141000000D03*
X124590000Y-129900000D03*
X113000000Y-141000000D03*
X146300000Y-118552500D03*
X130360000Y-128860000D03*
X155000000Y-102500000D03*
X132500000Y-122500000D03*
X107730000Y-104845000D03*
X147190000Y-122350000D03*
X148000000Y-141000000D03*
X117860000Y-132490000D03*
X109330000Y-102745000D03*
X111655000Y-108845000D03*
X108000000Y-141000000D03*
X141100000Y-124910000D03*
X133000000Y-141000000D03*
X107500000Y-130000000D03*
X107970000Y-119620000D03*
X158000000Y-141000000D03*
X112500000Y-120000000D03*
X113470000Y-107840000D03*
X150270000Y-112450000D03*
X123000000Y-141000000D03*
X152950000Y-114100000D03*
X156940000Y-133960000D03*
X152870000Y-134830000D03*
X155665000Y-110725000D03*
X107500000Y-135000000D03*
X110405000Y-112820000D03*
X133490000Y-130510000D03*
X142500000Y-135000000D03*
X141760000Y-123210000D03*
X108780000Y-106095000D03*
X150000000Y-102500000D03*
X102500000Y-107500000D03*
X143000000Y-141000000D03*
X102500000Y-130000000D03*
X112605000Y-112120000D03*
X157050000Y-132850000D03*
X140000000Y-105000000D03*
X152970000Y-130440000D03*
X107605000Y-110945000D03*
X110380000Y-106095000D03*
X118000000Y-141000000D03*
X157700000Y-118552500D03*
X155200000Y-121052500D03*
X128000000Y-141000000D03*
X127500000Y-115000000D03*
X160000000Y-102500000D03*
X150400000Y-116052500D03*
X120660000Y-128940000D03*
X146300000Y-117052500D03*
D22*
X150400000Y-125952500D03*
D21*
X113580000Y-102610000D03*
X110380000Y-107595000D03*
X156660915Y-112498324D03*
X108405000Y-113465000D03*
D22*
X161800000Y-117652500D03*
D21*
X147500000Y-135000000D03*
X107960000Y-122310000D03*
X112605000Y-110920000D03*
X132500000Y-115000000D03*
X124330000Y-132510000D03*
X135000000Y-105000000D03*
X142500000Y-115000000D03*
X152940000Y-132040000D03*
X112500000Y-130000000D03*
D22*
X109390000Y-111760000D03*
X124830000Y-111740000D03*
X139250000Y-124070000D03*
X129540000Y-119880000D03*
X134440000Y-136770000D03*
X155160000Y-134990000D03*
X117920000Y-133460000D03*
X149310000Y-114550000D03*
X114570000Y-111360000D03*
D21*
X110930000Y-103695000D03*
X112530000Y-107095000D03*
X109090000Y-103650000D03*
X141050000Y-108830000D03*
X110245380Y-110229620D03*
X155380000Y-109070000D03*
X106450000Y-106360000D03*
X154800000Y-118910000D03*
X126830000Y-134650000D03*
X155140000Y-129220000D03*
X153550000Y-109490000D03*
X155770000Y-128500000D03*
X145910000Y-113830000D03*
X153110000Y-118100000D03*
X120870000Y-126860000D03*
X151840000Y-120050000D03*
X132200000Y-127520000D03*
D22*
X115100000Y-118060000D03*
%TA.AperFunction,Conductor*%
G36*
X108658896Y-102999707D02*
G01*
X108728137Y-103054926D01*
X108766564Y-103134718D01*
X108766564Y-103223282D01*
X108728137Y-103303074D01*
X108722967Y-103309293D01*
X108695673Y-103340793D01*
X108664622Y-103376627D01*
X108664620Y-103376630D01*
X108604836Y-103507537D01*
X108604835Y-103507541D01*
X108584353Y-103650000D01*
X108604835Y-103792458D01*
X108604836Y-103792462D01*
X108664620Y-103923369D01*
X108664624Y-103923376D01*
X108758871Y-104032142D01*
X108758872Y-104032143D01*
X108879947Y-104109953D01*
X108931423Y-104125067D01*
X109018038Y-104150500D01*
X109018039Y-104150500D01*
X109161962Y-104150500D01*
X109215189Y-104134870D01*
X109300053Y-104109953D01*
X109421128Y-104032143D01*
X109476834Y-103967854D01*
X109515375Y-103923376D01*
X109515379Y-103923369D01*
X109575163Y-103792462D01*
X109575163Y-103792460D01*
X109575165Y-103792457D01*
X109595647Y-103650000D01*
X109575165Y-103507543D01*
X109575163Y-103507540D01*
X109575163Y-103507537D01*
X109531997Y-103413018D01*
X109514054Y-103326292D01*
X109535518Y-103240369D01*
X109592137Y-103172268D01*
X109605427Y-103162940D01*
X109626340Y-103149500D01*
X109661128Y-103127143D01*
X109723704Y-103054926D01*
X109729114Y-103048683D01*
X109800550Y-102996335D01*
X109879508Y-102980000D01*
X110451545Y-102980000D01*
X110537888Y-102999707D01*
X110607129Y-103054926D01*
X110645556Y-103134718D01*
X110645556Y-103223282D01*
X110607129Y-103303074D01*
X110601939Y-103309317D01*
X110504625Y-103421623D01*
X110504620Y-103421630D01*
X110444836Y-103552537D01*
X110444835Y-103552541D01*
X110424353Y-103695000D01*
X110444835Y-103837458D01*
X110444836Y-103837462D01*
X110504620Y-103968369D01*
X110504624Y-103968376D01*
X110598871Y-104077142D01*
X110598872Y-104077143D01*
X110719947Y-104154953D01*
X110771423Y-104170067D01*
X110858038Y-104195500D01*
X110858039Y-104195500D01*
X111001962Y-104195500D01*
X111055189Y-104179870D01*
X111140053Y-104154953D01*
X111261128Y-104077143D01*
X111316834Y-104012854D01*
X111355375Y-103968376D01*
X111355379Y-103968369D01*
X111415163Y-103837462D01*
X111415163Y-103837460D01*
X111415165Y-103837457D01*
X111435647Y-103695000D01*
X111415165Y-103552543D01*
X111415163Y-103552540D01*
X111415163Y-103552537D01*
X111355379Y-103421630D01*
X111355374Y-103421623D01*
X111258061Y-103309317D01*
X111216412Y-103231158D01*
X111212800Y-103142668D01*
X111247939Y-103061375D01*
X111314871Y-103003378D01*
X111400338Y-102980166D01*
X111408455Y-102980000D01*
X113171545Y-102980000D01*
X113257888Y-102999707D01*
X113279133Y-103011590D01*
X113369947Y-103069953D01*
X113421423Y-103085067D01*
X113508038Y-103110500D01*
X113508039Y-103110500D01*
X113651962Y-103110500D01*
X113712900Y-103092607D01*
X113790053Y-103069953D01*
X113880868Y-103011590D01*
X113964159Y-102981489D01*
X113988455Y-102980000D01*
X116897572Y-102980000D01*
X116983915Y-102999707D01*
X116984328Y-103000000D01*
X140000000Y-103000000D01*
X140022645Y-103000000D01*
X140036702Y-102991167D01*
X140102428Y-102980000D01*
X144829611Y-102980000D01*
X144885674Y-102988060D01*
X144928039Y-103000500D01*
X145071961Y-103000500D01*
X145114325Y-102988060D01*
X145170389Y-102980000D01*
X149829611Y-102980000D01*
X149885674Y-102988060D01*
X149928039Y-103000500D01*
X150071961Y-103000500D01*
X150114325Y-102988060D01*
X150170389Y-102980000D01*
X154829611Y-102980000D01*
X154885674Y-102988060D01*
X154928039Y-103000500D01*
X155071961Y-103000500D01*
X155114325Y-102988060D01*
X155170389Y-102980000D01*
X159829611Y-102980000D01*
X159885674Y-102988060D01*
X159928039Y-103000500D01*
X160071961Y-103000500D01*
X160114325Y-102988060D01*
X160170389Y-102980000D01*
X161606924Y-102980000D01*
X161693267Y-102999707D01*
X161762508Y-103054926D01*
X161784230Y-103088648D01*
X161844949Y-103207816D01*
X161844950Y-103207817D01*
X161969893Y-103379789D01*
X162081530Y-103491426D01*
X162128649Y-103566414D01*
X162139816Y-103632196D01*
X162136090Y-116914637D01*
X162116359Y-117000974D01*
X162061121Y-117070200D01*
X161981317Y-117108604D01*
X161911115Y-117111878D01*
X161800000Y-117097250D01*
X161799998Y-117097250D01*
X161799996Y-117097250D01*
X161656290Y-117116169D01*
X161656288Y-117116170D01*
X161522377Y-117171637D01*
X161522373Y-117171639D01*
X161407379Y-117259877D01*
X161407377Y-117259879D01*
X161319139Y-117374873D01*
X161319137Y-117374877D01*
X161263670Y-117508788D01*
X161263669Y-117508790D01*
X161244750Y-117652496D01*
X161244750Y-117652503D01*
X161263669Y-117796209D01*
X161263670Y-117796211D01*
X161319137Y-117930122D01*
X161319139Y-117930126D01*
X161407377Y-118045120D01*
X161407379Y-118045122D01*
X161522373Y-118133360D01*
X161522377Y-118133362D01*
X161656288Y-118188829D01*
X161656290Y-118188830D01*
X161799997Y-118207750D01*
X161800000Y-118207750D01*
X161800003Y-118207750D01*
X161910701Y-118193176D01*
X161998877Y-118201444D01*
X162074734Y-118247152D01*
X162123247Y-118321246D01*
X162135676Y-118390529D01*
X162133364Y-126633968D01*
X162113633Y-126720305D01*
X162058395Y-126789531D01*
X161978591Y-126827935D01*
X161890028Y-126827910D01*
X161878300Y-126824851D01*
X161791962Y-126799500D01*
X161791961Y-126799500D01*
X161648039Y-126799500D01*
X161648038Y-126799500D01*
X161509951Y-126840045D01*
X161509945Y-126840048D01*
X161388872Y-126917856D01*
X161388871Y-126917857D01*
X161294624Y-127026623D01*
X161294620Y-127026630D01*
X161234836Y-127157537D01*
X161234835Y-127157541D01*
X161214353Y-127300000D01*
X161234835Y-127442458D01*
X161234836Y-127442462D01*
X161294620Y-127573369D01*
X161294624Y-127573376D01*
X161371814Y-127662457D01*
X161388872Y-127682143D01*
X161509947Y-127759953D01*
X161543623Y-127769841D01*
X161648038Y-127800500D01*
X161648039Y-127800500D01*
X161791960Y-127800500D01*
X161791961Y-127800500D01*
X161877929Y-127775257D01*
X161966322Y-127769841D01*
X162048315Y-127803315D01*
X162107666Y-127869049D01*
X162132617Y-127954025D01*
X162132990Y-127966253D01*
X162132627Y-129259422D01*
X162112896Y-129345759D01*
X162057658Y-129414985D01*
X161977854Y-129453389D01*
X161889291Y-129453364D01*
X161809509Y-129414916D01*
X161754310Y-129345659D01*
X161743200Y-129317146D01*
X161685232Y-129126046D01*
X161619209Y-129002526D01*
X161587686Y-128943551D01*
X161537289Y-128882142D01*
X161456410Y-128783590D01*
X161313893Y-128666630D01*
X161296448Y-128652313D01*
X161113955Y-128554768D01*
X160915933Y-128494699D01*
X160710000Y-128474417D01*
X160504066Y-128494699D01*
X160306044Y-128554768D01*
X160123551Y-128652313D01*
X159963590Y-128783590D01*
X159832313Y-128943551D01*
X159734768Y-129126044D01*
X159674699Y-129324066D01*
X159654417Y-129530000D01*
X159674699Y-129735933D01*
X159734768Y-129933955D01*
X159832313Y-130116448D01*
X159841676Y-130127857D01*
X159963590Y-130276410D01*
X160074629Y-130367537D01*
X160123551Y-130407686D01*
X160297193Y-130500500D01*
X160306046Y-130505232D01*
X160504066Y-130565300D01*
X160710000Y-130585583D01*
X160915934Y-130565300D01*
X161113954Y-130505232D01*
X161296450Y-130407685D01*
X161456410Y-130276410D01*
X161587685Y-130116450D01*
X161685232Y-129933954D01*
X161743046Y-129743362D01*
X161786965Y-129666464D01*
X161859905Y-129616233D01*
X161947417Y-129602623D01*
X162032167Y-129628331D01*
X162097370Y-129688265D01*
X162130111Y-129770553D01*
X162132475Y-129801190D01*
X162131916Y-131797075D01*
X162112185Y-131883412D01*
X162056947Y-131952638D01*
X161977143Y-131991042D01*
X161888580Y-131991017D01*
X161808798Y-131952569D01*
X161753599Y-131883312D01*
X161742485Y-131854785D01*
X161685231Y-131666044D01*
X161587686Y-131483551D01*
X161567724Y-131459227D01*
X161456410Y-131323590D01*
X161296450Y-131192315D01*
X161296451Y-131192315D01*
X161296448Y-131192313D01*
X161113955Y-131094768D01*
X160915933Y-131034699D01*
X160710000Y-131014417D01*
X160504066Y-131034699D01*
X160306044Y-131094768D01*
X160123551Y-131192313D01*
X159963590Y-131323590D01*
X159832313Y-131483551D01*
X159734768Y-131666044D01*
X159674699Y-131864066D01*
X159654417Y-132070000D01*
X159674699Y-132275933D01*
X159734768Y-132473955D01*
X159832313Y-132656448D01*
X159832315Y-132656450D01*
X159963590Y-132816410D01*
X160099227Y-132927724D01*
X160123551Y-132947686D01*
X160306044Y-133045231D01*
X160306046Y-133045232D01*
X160504066Y-133105300D01*
X160710000Y-133125583D01*
X160915934Y-133105300D01*
X161113954Y-133045232D01*
X161296450Y-132947685D01*
X161456410Y-132816410D01*
X161587685Y-132656450D01*
X161685232Y-132473954D01*
X161742333Y-132285714D01*
X161786253Y-132208815D01*
X161859193Y-132158584D01*
X161946704Y-132144974D01*
X162031454Y-132170682D01*
X162096657Y-132230616D01*
X162129398Y-132312905D01*
X162131762Y-132343541D01*
X162131408Y-133604922D01*
X162111677Y-133691259D01*
X162056439Y-133760485D01*
X161976635Y-133798889D01*
X161888072Y-133798864D01*
X161808290Y-133760416D01*
X161753091Y-133691159D01*
X161748939Y-133681877D01*
X161704552Y-133615447D01*
X161638232Y-133571133D01*
X161579750Y-133559500D01*
X161579748Y-133559500D01*
X159840252Y-133559500D01*
X159840250Y-133559500D01*
X159781767Y-133571133D01*
X159715447Y-133615447D01*
X159671133Y-133681767D01*
X159659500Y-133740250D01*
X159659500Y-135479749D01*
X159671133Y-135538232D01*
X159715447Y-135604552D01*
X159781767Y-135648866D01*
X159781769Y-135648867D01*
X159816984Y-135655871D01*
X159840250Y-135660500D01*
X159840252Y-135660500D01*
X161579750Y-135660500D01*
X161599155Y-135656639D01*
X161638231Y-135648867D01*
X161704552Y-135604552D01*
X161748867Y-135538231D01*
X161748866Y-135538231D01*
X161759756Y-135521935D01*
X161760636Y-135522523D01*
X161799236Y-135468117D01*
X161876748Y-135425275D01*
X161965172Y-135420307D01*
X162046994Y-135454196D01*
X162106010Y-135520230D01*
X162130531Y-135605332D01*
X162130844Y-135616552D01*
X162130069Y-138377661D01*
X162110338Y-138463998D01*
X162071785Y-138518318D01*
X162018391Y-138571713D01*
X161943402Y-138618832D01*
X161877675Y-138630000D01*
X104529056Y-138630000D01*
X104442713Y-138610293D01*
X104373472Y-138555074D01*
X104335045Y-138475282D01*
X104330056Y-138430944D01*
X104331019Y-135000000D01*
X106994353Y-135000000D01*
X107014835Y-135142458D01*
X107014836Y-135142462D01*
X107074620Y-135273369D01*
X107074624Y-135273376D01*
X107124123Y-135330500D01*
X107168872Y-135382143D01*
X107289947Y-135459953D01*
X107341423Y-135475067D01*
X107428038Y-135500500D01*
X107428039Y-135500500D01*
X107571962Y-135500500D01*
X107642633Y-135479749D01*
X107710053Y-135459953D01*
X107831128Y-135382143D01*
X107911010Y-135289954D01*
X107925375Y-135273376D01*
X107925379Y-135273369D01*
X107985163Y-135142462D01*
X107985163Y-135142460D01*
X107985165Y-135142457D01*
X108005647Y-135000000D01*
X111994353Y-135000000D01*
X112014835Y-135142458D01*
X112014836Y-135142462D01*
X112074620Y-135273369D01*
X112074624Y-135273376D01*
X112124123Y-135330500D01*
X112168872Y-135382143D01*
X112289947Y-135459953D01*
X112341423Y-135475067D01*
X112428038Y-135500500D01*
X112428039Y-135500500D01*
X112571962Y-135500500D01*
X112642633Y-135479749D01*
X112710053Y-135459953D01*
X112831128Y-135382143D01*
X112911010Y-135289954D01*
X112925375Y-135273376D01*
X112925379Y-135273369D01*
X112985163Y-135142462D01*
X112985163Y-135142460D01*
X112985165Y-135142457D01*
X113005647Y-135000000D01*
X112985165Y-134857543D01*
X112985163Y-134857540D01*
X112985163Y-134857537D01*
X112925379Y-134726630D01*
X112925375Y-134726623D01*
X112858980Y-134650000D01*
X126324353Y-134650000D01*
X126344835Y-134792458D01*
X126344836Y-134792462D01*
X126404620Y-134923369D01*
X126404624Y-134923376D01*
X126471020Y-135000000D01*
X126498872Y-135032143D01*
X126619947Y-135109953D01*
X126671423Y-135125067D01*
X126758038Y-135150500D01*
X126758039Y-135150500D01*
X126901962Y-135150500D01*
X126955189Y-135134870D01*
X127040053Y-135109953D01*
X127161128Y-135032143D01*
X127188980Y-135000000D01*
X141994353Y-135000000D01*
X142014835Y-135142458D01*
X142014836Y-135142462D01*
X142074620Y-135273369D01*
X142074624Y-135273376D01*
X142124123Y-135330500D01*
X142168872Y-135382143D01*
X142289947Y-135459953D01*
X142341423Y-135475067D01*
X142428038Y-135500500D01*
X142428039Y-135500500D01*
X142571962Y-135500500D01*
X142642633Y-135479749D01*
X142710053Y-135459953D01*
X142831128Y-135382143D01*
X142911010Y-135289954D01*
X142925375Y-135273376D01*
X142925379Y-135273369D01*
X142985163Y-135142462D01*
X142985163Y-135142460D01*
X142985165Y-135142457D01*
X143005647Y-135000000D01*
X146994353Y-135000000D01*
X147014835Y-135142458D01*
X147014836Y-135142462D01*
X147074620Y-135273369D01*
X147074624Y-135273376D01*
X147124123Y-135330500D01*
X147168872Y-135382143D01*
X147289947Y-135459953D01*
X147341423Y-135475067D01*
X147428038Y-135500500D01*
X147428039Y-135500500D01*
X147571962Y-135500500D01*
X147642633Y-135479749D01*
X147710053Y-135459953D01*
X147831128Y-135382143D01*
X147911010Y-135289954D01*
X147925375Y-135273376D01*
X147925379Y-135273369D01*
X147985163Y-135142462D01*
X147985163Y-135142460D01*
X147985165Y-135142457D01*
X148005647Y-135000000D01*
X147985165Y-134857543D01*
X147985163Y-134857540D01*
X147985163Y-134857537D01*
X147972587Y-134830000D01*
X152364353Y-134830000D01*
X152384835Y-134972458D01*
X152384836Y-134972462D01*
X152444620Y-135103369D01*
X152444624Y-135103376D01*
X152538871Y-135212142D01*
X152538872Y-135212143D01*
X152659947Y-135289953D01*
X152711423Y-135305067D01*
X152798038Y-135330500D01*
X152798039Y-135330500D01*
X152941962Y-135330500D01*
X152995189Y-135314870D01*
X153080053Y-135289953D01*
X153201128Y-135212143D01*
X153256834Y-135147854D01*
X153295375Y-135103376D01*
X153295379Y-135103369D01*
X153355163Y-134972462D01*
X153355163Y-134972460D01*
X153355165Y-134972457D01*
X153375647Y-134830000D01*
X153355165Y-134687543D01*
X153355163Y-134687540D01*
X153355163Y-134687537D01*
X153295379Y-134556630D01*
X153295375Y-134556623D01*
X153201128Y-134447857D01*
X153201127Y-134447856D01*
X153090296Y-134376630D01*
X153080053Y-134370047D01*
X153080050Y-134370046D01*
X153080048Y-134370045D01*
X152941962Y-134329500D01*
X152941961Y-134329500D01*
X152798039Y-134329500D01*
X152798038Y-134329500D01*
X152659951Y-134370045D01*
X152659945Y-134370048D01*
X152538872Y-134447856D01*
X152538871Y-134447857D01*
X152444624Y-134556623D01*
X152444620Y-134556630D01*
X152384836Y-134687537D01*
X152384835Y-134687541D01*
X152364353Y-134830000D01*
X147972587Y-134830000D01*
X147925379Y-134726630D01*
X147925375Y-134726623D01*
X147831128Y-134617857D01*
X147831127Y-134617856D01*
X147770590Y-134578952D01*
X147710053Y-134540047D01*
X147710050Y-134540046D01*
X147710048Y-134540045D01*
X147571962Y-134499500D01*
X147571961Y-134499500D01*
X147428039Y-134499500D01*
X147428038Y-134499500D01*
X147289951Y-134540045D01*
X147289945Y-134540048D01*
X147168872Y-134617856D01*
X147168871Y-134617857D01*
X147074624Y-134726623D01*
X147074620Y-134726630D01*
X147014836Y-134857537D01*
X147014835Y-134857541D01*
X146994353Y-135000000D01*
X143005647Y-135000000D01*
X142985165Y-134857543D01*
X142985163Y-134857540D01*
X142985163Y-134857537D01*
X142925379Y-134726630D01*
X142925375Y-134726623D01*
X142831128Y-134617857D01*
X142831127Y-134617856D01*
X142770590Y-134578952D01*
X142710053Y-134540047D01*
X142710050Y-134540046D01*
X142710048Y-134540045D01*
X142571962Y-134499500D01*
X142571961Y-134499500D01*
X142428039Y-134499500D01*
X142428038Y-134499500D01*
X142289951Y-134540045D01*
X142289945Y-134540048D01*
X142168872Y-134617856D01*
X142168871Y-134617857D01*
X142074624Y-134726623D01*
X142074620Y-134726630D01*
X142014836Y-134857537D01*
X142014835Y-134857541D01*
X141994353Y-135000000D01*
X127188980Y-135000000D01*
X127216834Y-134967854D01*
X127255375Y-134923376D01*
X127255379Y-134923369D01*
X127315163Y-134792462D01*
X127315163Y-134792460D01*
X127315165Y-134792457D01*
X127335647Y-134650000D01*
X127315165Y-134507543D01*
X127315163Y-134507540D01*
X127315163Y-134507537D01*
X127255379Y-134376630D01*
X127255375Y-134376623D01*
X127161128Y-134267857D01*
X127161127Y-134267856D01*
X127100590Y-134228952D01*
X127040053Y-134190047D01*
X127040050Y-134190046D01*
X127040048Y-134190045D01*
X126901962Y-134149500D01*
X126901961Y-134149500D01*
X126758039Y-134149500D01*
X126758038Y-134149500D01*
X126619951Y-134190045D01*
X126619945Y-134190048D01*
X126498872Y-134267856D01*
X126498871Y-134267857D01*
X126404624Y-134376623D01*
X126404620Y-134376630D01*
X126344836Y-134507537D01*
X126344835Y-134507541D01*
X126324353Y-134650000D01*
X112858980Y-134650000D01*
X112831128Y-134617857D01*
X112831127Y-134617856D01*
X112770590Y-134578952D01*
X112710053Y-134540047D01*
X112710050Y-134540046D01*
X112710048Y-134540045D01*
X112571962Y-134499500D01*
X112571961Y-134499500D01*
X112428039Y-134499500D01*
X112428038Y-134499500D01*
X112289951Y-134540045D01*
X112289945Y-134540048D01*
X112168872Y-134617856D01*
X112168871Y-134617857D01*
X112074624Y-134726623D01*
X112074620Y-134726630D01*
X112014836Y-134857537D01*
X112014835Y-134857541D01*
X111994353Y-135000000D01*
X108005647Y-135000000D01*
X107985165Y-134857543D01*
X107985163Y-134857540D01*
X107985163Y-134857537D01*
X107925379Y-134726630D01*
X107925375Y-134726623D01*
X107831128Y-134617857D01*
X107831127Y-134617856D01*
X107770590Y-134578952D01*
X107710053Y-134540047D01*
X107710050Y-134540046D01*
X107710048Y-134540045D01*
X107571962Y-134499500D01*
X107571961Y-134499500D01*
X107428039Y-134499500D01*
X107428038Y-134499500D01*
X107289951Y-134540045D01*
X107289945Y-134540048D01*
X107168872Y-134617856D01*
X107168871Y-134617857D01*
X107074624Y-134726623D01*
X107074620Y-134726630D01*
X107014836Y-134857537D01*
X107014835Y-134857541D01*
X106994353Y-135000000D01*
X104331019Y-135000000D01*
X104331310Y-133960000D01*
X156434353Y-133960000D01*
X156454835Y-134102458D01*
X156454836Y-134102462D01*
X156514620Y-134233369D01*
X156514624Y-134233376D01*
X156597917Y-134329500D01*
X156608872Y-134342143D01*
X156729947Y-134419953D01*
X156781423Y-134435067D01*
X156868038Y-134460500D01*
X156868039Y-134460500D01*
X157011962Y-134460500D01*
X157065189Y-134444870D01*
X157150053Y-134419953D01*
X157271128Y-134342143D01*
X157335498Y-134267856D01*
X157365375Y-134233376D01*
X157365379Y-134233369D01*
X157425163Y-134102462D01*
X157425163Y-134102460D01*
X157425165Y-134102457D01*
X157445647Y-133960000D01*
X157425165Y-133817543D01*
X157425163Y-133817540D01*
X157425163Y-133817537D01*
X157365379Y-133686630D01*
X157365375Y-133686623D01*
X157268453Y-133574770D01*
X157226804Y-133496611D01*
X157223192Y-133408122D01*
X157258331Y-133326828D01*
X157311258Y-133277045D01*
X157381128Y-133232143D01*
X157436834Y-133167854D01*
X157475375Y-133123376D01*
X157475379Y-133123369D01*
X157535163Y-132992462D01*
X157535163Y-132992460D01*
X157535165Y-132992457D01*
X157555647Y-132850000D01*
X157535165Y-132707543D01*
X157535163Y-132707540D01*
X157535163Y-132707537D01*
X157475379Y-132576630D01*
X157475375Y-132576623D01*
X157381128Y-132467857D01*
X157381127Y-132467856D01*
X157309994Y-132422142D01*
X157260053Y-132390047D01*
X157260050Y-132390046D01*
X157260048Y-132390045D01*
X157121962Y-132349500D01*
X157121961Y-132349500D01*
X156978039Y-132349500D01*
X156978038Y-132349500D01*
X156839951Y-132390045D01*
X156839945Y-132390048D01*
X156718872Y-132467856D01*
X156718871Y-132467857D01*
X156624624Y-132576623D01*
X156624620Y-132576630D01*
X156564836Y-132707537D01*
X156564835Y-132707541D01*
X156544353Y-132850000D01*
X156564835Y-132992458D01*
X156564836Y-132992462D01*
X156624620Y-133123369D01*
X156624624Y-133123376D01*
X156721546Y-133235229D01*
X156763195Y-133313388D01*
X156766807Y-133401877D01*
X156731668Y-133483171D01*
X156678739Y-133532955D01*
X156608877Y-133577852D01*
X156608871Y-133577857D01*
X156514624Y-133686623D01*
X156514620Y-133686630D01*
X156454836Y-133817537D01*
X156454835Y-133817541D01*
X156434353Y-133960000D01*
X104331310Y-133960000D01*
X104331407Y-133615447D01*
X104331723Y-132490000D01*
X117354353Y-132490000D01*
X117374835Y-132632458D01*
X117374836Y-132632462D01*
X117434620Y-132763369D01*
X117434624Y-132763376D01*
X117480579Y-132816410D01*
X117528872Y-132872143D01*
X117649947Y-132949953D01*
X117701423Y-132965067D01*
X117788038Y-132990500D01*
X117788039Y-132990500D01*
X117931962Y-132990500D01*
X118001945Y-132969951D01*
X118070053Y-132949953D01*
X118191128Y-132872143D01*
X118246834Y-132807854D01*
X118285375Y-132763376D01*
X118285379Y-132763369D01*
X118345163Y-132632462D01*
X118345163Y-132632460D01*
X118345165Y-132632457D01*
X118362771Y-132510000D01*
X123824353Y-132510000D01*
X123844835Y-132652458D01*
X123844836Y-132652462D01*
X123904620Y-132783369D01*
X123904624Y-132783376D01*
X123981541Y-132872142D01*
X123998872Y-132892143D01*
X124119947Y-132969953D01*
X124171423Y-132985067D01*
X124258038Y-133010500D01*
X124258039Y-133010500D01*
X124401962Y-133010500D01*
X124463407Y-132992458D01*
X124540053Y-132969953D01*
X124661128Y-132892143D01*
X124726751Y-132816410D01*
X124755375Y-132783376D01*
X124755379Y-132783369D01*
X124815163Y-132652462D01*
X124815163Y-132652460D01*
X124815165Y-132652457D01*
X124835647Y-132510000D01*
X124815165Y-132367543D01*
X124815163Y-132367540D01*
X124815163Y-132367537D01*
X124755379Y-132236630D01*
X124755375Y-132236623D01*
X124661128Y-132127857D01*
X124661127Y-132127856D01*
X124600590Y-132088952D01*
X124540053Y-132050047D01*
X124540050Y-132050046D01*
X124540048Y-132050045D01*
X124505837Y-132040000D01*
X152434353Y-132040000D01*
X152454835Y-132182458D01*
X152454836Y-132182462D01*
X152514620Y-132313369D01*
X152514624Y-132313376D01*
X152608871Y-132422142D01*
X152608872Y-132422143D01*
X152729947Y-132499953D01*
X152781423Y-132515067D01*
X152868038Y-132540500D01*
X152868039Y-132540500D01*
X153011962Y-132540500D01*
X153065189Y-132524870D01*
X153150053Y-132499953D01*
X153271128Y-132422143D01*
X153335769Y-132347543D01*
X153365375Y-132313376D01*
X153365379Y-132313369D01*
X153425163Y-132182462D01*
X153425163Y-132182460D01*
X153425165Y-132182457D01*
X153445647Y-132040000D01*
X153425165Y-131897543D01*
X153425163Y-131897540D01*
X153425163Y-131897537D01*
X153365379Y-131766630D01*
X153365375Y-131766623D01*
X153271128Y-131657857D01*
X153271127Y-131657856D01*
X153210590Y-131618952D01*
X153150053Y-131580047D01*
X153150050Y-131580046D01*
X153150048Y-131580045D01*
X153011962Y-131539500D01*
X153011961Y-131539500D01*
X152868039Y-131539500D01*
X152868038Y-131539500D01*
X152729951Y-131580045D01*
X152729945Y-131580048D01*
X152608872Y-131657856D01*
X152608871Y-131657857D01*
X152514624Y-131766623D01*
X152514620Y-131766630D01*
X152454836Y-131897537D01*
X152454835Y-131897541D01*
X152434353Y-132040000D01*
X124505837Y-132040000D01*
X124401962Y-132009500D01*
X124401961Y-132009500D01*
X124258039Y-132009500D01*
X124258038Y-132009500D01*
X124119951Y-132050045D01*
X124119945Y-132050048D01*
X123998872Y-132127856D01*
X123998871Y-132127857D01*
X123904624Y-132236623D01*
X123904620Y-132236630D01*
X123844836Y-132367537D01*
X123844835Y-132367541D01*
X123824353Y-132510000D01*
X118362771Y-132510000D01*
X118365647Y-132490000D01*
X118345165Y-132347543D01*
X118345163Y-132347540D01*
X118345163Y-132347537D01*
X118285379Y-132216630D01*
X118285375Y-132216623D01*
X118191128Y-132107857D01*
X118191127Y-132107856D01*
X118101175Y-132050048D01*
X118070053Y-132030047D01*
X118070050Y-132030046D01*
X118070048Y-132030045D01*
X117931962Y-131989500D01*
X117931961Y-131989500D01*
X117788039Y-131989500D01*
X117788038Y-131989500D01*
X117649951Y-132030045D01*
X117649945Y-132030048D01*
X117528872Y-132107856D01*
X117528871Y-132107857D01*
X117434624Y-132216623D01*
X117434620Y-132216630D01*
X117374836Y-132347537D01*
X117374835Y-132347541D01*
X117354353Y-132490000D01*
X104331723Y-132490000D01*
X104332278Y-130510000D01*
X132984353Y-130510000D01*
X133004835Y-130652458D01*
X133004836Y-130652462D01*
X133064620Y-130783369D01*
X133064624Y-130783376D01*
X133158871Y-130892142D01*
X133158872Y-130892143D01*
X133279947Y-130969953D01*
X133331423Y-130985067D01*
X133418038Y-131010500D01*
X133418039Y-131010500D01*
X133561962Y-131010500D01*
X133615189Y-130994870D01*
X133700053Y-130969953D01*
X133821128Y-130892143D01*
X133881784Y-130822142D01*
X133915375Y-130783376D01*
X133915379Y-130783369D01*
X133975163Y-130652462D01*
X133975163Y-130652460D01*
X133975165Y-130652457D01*
X133995647Y-130510000D01*
X133985583Y-130440000D01*
X152464353Y-130440000D01*
X152484835Y-130582458D01*
X152484836Y-130582462D01*
X152544620Y-130713369D01*
X152544624Y-130713376D01*
X152605280Y-130783376D01*
X152638872Y-130822143D01*
X152759947Y-130899953D01*
X152811423Y-130915067D01*
X152898038Y-130940500D01*
X152898039Y-130940500D01*
X153041962Y-130940500D01*
X153095189Y-130924870D01*
X153180053Y-130899953D01*
X153301128Y-130822143D01*
X153356834Y-130757854D01*
X153395375Y-130713376D01*
X153395379Y-130713369D01*
X153455163Y-130582462D01*
X153455163Y-130582460D01*
X153455165Y-130582457D01*
X153475647Y-130440000D01*
X153455165Y-130297543D01*
X153455163Y-130297540D01*
X153455163Y-130297537D01*
X153395379Y-130166630D01*
X153395375Y-130166623D01*
X153301128Y-130057857D01*
X153301127Y-130057856D01*
X153225883Y-130009500D01*
X153180053Y-129980047D01*
X153180050Y-129980046D01*
X153180048Y-129980045D01*
X153041962Y-129939500D01*
X153041961Y-129939500D01*
X152898039Y-129939500D01*
X152898038Y-129939500D01*
X152759951Y-129980045D01*
X152759945Y-129980048D01*
X152638872Y-130057856D01*
X152638871Y-130057857D01*
X152544624Y-130166623D01*
X152544620Y-130166630D01*
X152484836Y-130297537D01*
X152484835Y-130297541D01*
X152464353Y-130440000D01*
X133985583Y-130440000D01*
X133975165Y-130367543D01*
X133975163Y-130367540D01*
X133975163Y-130367537D01*
X133915379Y-130236630D01*
X133915375Y-130236623D01*
X133821128Y-130127857D01*
X133821127Y-130127856D01*
X133760590Y-130088952D01*
X133700053Y-130050047D01*
X133700050Y-130050046D01*
X133700048Y-130050045D01*
X133561962Y-130009500D01*
X133561961Y-130009500D01*
X133418039Y-130009500D01*
X133418038Y-130009500D01*
X133279951Y-130050045D01*
X133279945Y-130050048D01*
X133158872Y-130127856D01*
X133158871Y-130127857D01*
X133064624Y-130236623D01*
X133064620Y-130236630D01*
X133004836Y-130367537D01*
X133004835Y-130367541D01*
X132984353Y-130510000D01*
X104332278Y-130510000D01*
X104332421Y-130000000D01*
X106994353Y-130000000D01*
X107014835Y-130142458D01*
X107014836Y-130142462D01*
X107074620Y-130273369D01*
X107074624Y-130273376D01*
X107149644Y-130359953D01*
X107168872Y-130382143D01*
X107289947Y-130459953D01*
X107341423Y-130475067D01*
X107428038Y-130500500D01*
X107428039Y-130500500D01*
X107571962Y-130500500D01*
X107625189Y-130484870D01*
X107710053Y-130459953D01*
X107831128Y-130382143D01*
X107904434Y-130297543D01*
X107925375Y-130273376D01*
X107925379Y-130273369D01*
X107985163Y-130142462D01*
X107985163Y-130142460D01*
X107985165Y-130142457D01*
X108005647Y-130000000D01*
X111994353Y-130000000D01*
X112014835Y-130142458D01*
X112014836Y-130142462D01*
X112074620Y-130273369D01*
X112074624Y-130273376D01*
X112149644Y-130359953D01*
X112168872Y-130382143D01*
X112289947Y-130459953D01*
X112341423Y-130475067D01*
X112428038Y-130500500D01*
X112428039Y-130500500D01*
X112571962Y-130500500D01*
X112625189Y-130484870D01*
X112710053Y-130459953D01*
X112831128Y-130382143D01*
X112904434Y-130297543D01*
X112925375Y-130273376D01*
X112925379Y-130273369D01*
X112985163Y-130142462D01*
X112985163Y-130142460D01*
X112985165Y-130142457D01*
X113005647Y-130000000D01*
X112991269Y-129900000D01*
X124084353Y-129900000D01*
X124104835Y-130042458D01*
X124104836Y-130042462D01*
X124164620Y-130173369D01*
X124164624Y-130173376D01*
X124251269Y-130273369D01*
X124258872Y-130282143D01*
X124379947Y-130359953D01*
X124431423Y-130375067D01*
X124518038Y-130400500D01*
X124518039Y-130400500D01*
X124661962Y-130400500D01*
X124724483Y-130382142D01*
X124800053Y-130359953D01*
X124921128Y-130282143D01*
X124976834Y-130217854D01*
X125015375Y-130173376D01*
X125015379Y-130173369D01*
X125075163Y-130042462D01*
X125075163Y-130042460D01*
X125075165Y-130042457D01*
X125095647Y-129900000D01*
X125075165Y-129757543D01*
X125075163Y-129757540D01*
X125075163Y-129757537D01*
X125015379Y-129626630D01*
X125015375Y-129626623D01*
X124921128Y-129517857D01*
X124921127Y-129517856D01*
X124860590Y-129478952D01*
X124800053Y-129440047D01*
X124800050Y-129440046D01*
X124800048Y-129440045D01*
X124661962Y-129399500D01*
X124661961Y-129399500D01*
X124518039Y-129399500D01*
X124518038Y-129399500D01*
X124379951Y-129440045D01*
X124379945Y-129440048D01*
X124258872Y-129517856D01*
X124258871Y-129517857D01*
X124164624Y-129626623D01*
X124164620Y-129626630D01*
X124104836Y-129757537D01*
X124104835Y-129757541D01*
X124084353Y-129900000D01*
X112991269Y-129900000D01*
X112985165Y-129857543D01*
X112985163Y-129857540D01*
X112985163Y-129857537D01*
X112925379Y-129726630D01*
X112925375Y-129726623D01*
X112831128Y-129617857D01*
X112831127Y-129617856D01*
X112770590Y-129578952D01*
X112710053Y-129540047D01*
X112710050Y-129540046D01*
X112710048Y-129540045D01*
X112571962Y-129499500D01*
X112571961Y-129499500D01*
X112428039Y-129499500D01*
X112428038Y-129499500D01*
X112289951Y-129540045D01*
X112289945Y-129540048D01*
X112168872Y-129617856D01*
X112168871Y-129617857D01*
X112074624Y-129726623D01*
X112074620Y-129726630D01*
X112014836Y-129857537D01*
X112014835Y-129857541D01*
X111994353Y-130000000D01*
X108005647Y-130000000D01*
X107985165Y-129857543D01*
X107985163Y-129857540D01*
X107985163Y-129857537D01*
X107925379Y-129726630D01*
X107925375Y-129726623D01*
X107831128Y-129617857D01*
X107831127Y-129617856D01*
X107770590Y-129578952D01*
X107710053Y-129540047D01*
X107710050Y-129540046D01*
X107710048Y-129540045D01*
X107571962Y-129499500D01*
X107571961Y-129499500D01*
X107428039Y-129499500D01*
X107428038Y-129499500D01*
X107289951Y-129540045D01*
X107289945Y-129540048D01*
X107168872Y-129617856D01*
X107168871Y-129617857D01*
X107074624Y-129726623D01*
X107074620Y-129726630D01*
X107014836Y-129857537D01*
X107014835Y-129857541D01*
X106994353Y-130000000D01*
X104332421Y-130000000D01*
X104332718Y-128940000D01*
X120154353Y-128940000D01*
X120174835Y-129082458D01*
X120174836Y-129082462D01*
X120234620Y-129213369D01*
X120234624Y-129213376D01*
X120326974Y-129319953D01*
X120328872Y-129322143D01*
X120449947Y-129399953D01*
X120500907Y-129414916D01*
X120588038Y-129440500D01*
X120588039Y-129440500D01*
X120731962Y-129440500D01*
X120785189Y-129424870D01*
X120870053Y-129399953D01*
X120991128Y-129322143D01*
X121079635Y-129220000D01*
X121085375Y-129213376D01*
X121085379Y-129213369D01*
X121145163Y-129082462D01*
X121145163Y-129082460D01*
X121145165Y-129082457D01*
X121165647Y-128940000D01*
X121154145Y-128860000D01*
X129854353Y-128860000D01*
X129874835Y-129002458D01*
X129874836Y-129002462D01*
X129934620Y-129133369D01*
X129934624Y-129133376D01*
X130009685Y-129220000D01*
X130028872Y-129242143D01*
X130149947Y-129319953D01*
X130157406Y-129322143D01*
X130288038Y-129360500D01*
X130288039Y-129360500D01*
X130431962Y-129360500D01*
X130485189Y-129344870D01*
X130570053Y-129319953D01*
X130691128Y-129242143D01*
X130710315Y-129220000D01*
X154634353Y-129220000D01*
X154654835Y-129362458D01*
X154654836Y-129362462D01*
X154714620Y-129493369D01*
X154714624Y-129493376D01*
X154808871Y-129602142D01*
X154808872Y-129602143D01*
X154929947Y-129679953D01*
X154981423Y-129695067D01*
X155068038Y-129720500D01*
X155068039Y-129720500D01*
X155211962Y-129720500D01*
X155265189Y-129704870D01*
X155350053Y-129679953D01*
X155471128Y-129602143D01*
X155560068Y-129499500D01*
X155565375Y-129493376D01*
X155565379Y-129493369D01*
X155625163Y-129362462D01*
X155625163Y-129362460D01*
X155625165Y-129362457D01*
X155645647Y-129220000D01*
X155645647Y-129219997D01*
X155645647Y-129205767D01*
X155648575Y-129205767D01*
X155653991Y-129139550D01*
X155698794Y-129063155D01*
X155772306Y-129013765D01*
X155828002Y-129003423D01*
X155827873Y-129002526D01*
X155841959Y-129000500D01*
X155841961Y-129000500D01*
X155980053Y-128959953D01*
X156101128Y-128882143D01*
X156174434Y-128797543D01*
X156195375Y-128773376D01*
X156195379Y-128773369D01*
X156255163Y-128642462D01*
X156255163Y-128642460D01*
X156255165Y-128642457D01*
X156275647Y-128500000D01*
X156255165Y-128357543D01*
X156255163Y-128357540D01*
X156255163Y-128357537D01*
X156195379Y-128226630D01*
X156195375Y-128226623D01*
X156101128Y-128117857D01*
X156101127Y-128117856D01*
X156040590Y-128078952D01*
X155980053Y-128040047D01*
X155980050Y-128040046D01*
X155980048Y-128040045D01*
X155841962Y-127999500D01*
X155841961Y-127999500D01*
X155698039Y-127999500D01*
X155698038Y-127999500D01*
X155559951Y-128040045D01*
X155559945Y-128040048D01*
X155438872Y-128117856D01*
X155438871Y-128117857D01*
X155344624Y-128226623D01*
X155344620Y-128226630D01*
X155284836Y-128357537D01*
X155284835Y-128357541D01*
X155278724Y-128400045D01*
X155273052Y-128439500D01*
X155264353Y-128500002D01*
X155264353Y-128514233D01*
X155261425Y-128514233D01*
X155256009Y-128580450D01*
X155211206Y-128656845D01*
X155137694Y-128706235D01*
X155081997Y-128716576D01*
X155082127Y-128717474D01*
X155068040Y-128719499D01*
X154929951Y-128760045D01*
X154929945Y-128760048D01*
X154808872Y-128837856D01*
X154808871Y-128837857D01*
X154714624Y-128946623D01*
X154714620Y-128946630D01*
X154654836Y-129077537D01*
X154654835Y-129077541D01*
X154634353Y-129220000D01*
X130710315Y-129220000D01*
X130780025Y-129139550D01*
X130785375Y-129133376D01*
X130785379Y-129133369D01*
X130845163Y-129002462D01*
X130845163Y-129002460D01*
X130845165Y-129002457D01*
X130865647Y-128860000D01*
X130845165Y-128717543D01*
X130845163Y-128717540D01*
X130845163Y-128717537D01*
X130785379Y-128586630D01*
X130785375Y-128586623D01*
X130691128Y-128477857D01*
X130691127Y-128477856D01*
X130630590Y-128438952D01*
X130570053Y-128400047D01*
X130570050Y-128400046D01*
X130570048Y-128400045D01*
X130431962Y-128359500D01*
X130431961Y-128359500D01*
X130288039Y-128359500D01*
X130288038Y-128359500D01*
X130149951Y-128400045D01*
X130149945Y-128400048D01*
X130028872Y-128477856D01*
X130028871Y-128477857D01*
X129934624Y-128586623D01*
X129934620Y-128586630D01*
X129874836Y-128717537D01*
X129874835Y-128717541D01*
X129854353Y-128860000D01*
X121154145Y-128860000D01*
X121145165Y-128797543D01*
X121145163Y-128797540D01*
X121145163Y-128797537D01*
X121085379Y-128666630D01*
X121085375Y-128666623D01*
X120991128Y-128557857D01*
X120991127Y-128557856D01*
X120923248Y-128514233D01*
X120870053Y-128480047D01*
X120870050Y-128480046D01*
X120870048Y-128480045D01*
X120731962Y-128439500D01*
X120731961Y-128439500D01*
X120588039Y-128439500D01*
X120588038Y-128439500D01*
X120449951Y-128480045D01*
X120449945Y-128480048D01*
X120328872Y-128557856D01*
X120328871Y-128557857D01*
X120234624Y-128666623D01*
X120234620Y-128666630D01*
X120174836Y-128797537D01*
X120174835Y-128797541D01*
X120154353Y-128940000D01*
X104332718Y-128940000D01*
X104333234Y-127099442D01*
X104352965Y-127013107D01*
X104408203Y-126943881D01*
X104488007Y-126905477D01*
X104532234Y-126900500D01*
X104922472Y-126900500D01*
X104922475Y-126900500D01*
X105062485Y-126862984D01*
X105188015Y-126790509D01*
X105290509Y-126688015D01*
X105362984Y-126562485D01*
X105400500Y-126422475D01*
X105400500Y-126277525D01*
X105362984Y-126137515D01*
X105290509Y-126011985D01*
X105188015Y-125909491D01*
X105188014Y-125909490D01*
X105062485Y-125837016D01*
X104922477Y-125799500D01*
X104922475Y-125799500D01*
X104532654Y-125799500D01*
X104446311Y-125779793D01*
X104437754Y-125772969D01*
X113121621Y-125772969D01*
X113121621Y-125772972D01*
X113141231Y-126059658D01*
X113199692Y-126340993D01*
X113199694Y-126340998D01*
X113199695Y-126341003D01*
X113252233Y-126488830D01*
X113295924Y-126611766D01*
X113295929Y-126611777D01*
X113428127Y-126866906D01*
X113564458Y-127060045D01*
X113593840Y-127101669D01*
X113779069Y-127300000D01*
X113789979Y-127311682D01*
X114012881Y-127493025D01*
X114012886Y-127493029D01*
X114258406Y-127642333D01*
X114258407Y-127642334D01*
X114350058Y-127682143D01*
X114521971Y-127756815D01*
X114798671Y-127834342D01*
X114941011Y-127853906D01*
X115083343Y-127873470D01*
X115083345Y-127873470D01*
X115083351Y-127873471D01*
X115083353Y-127873471D01*
X115370705Y-127873471D01*
X115370707Y-127873471D01*
X115655387Y-127834342D01*
X115932087Y-127756815D01*
X116149319Y-127662458D01*
X116195650Y-127642334D01*
X116195650Y-127642333D01*
X116195654Y-127642332D01*
X116441176Y-127493026D01*
X116664082Y-127311679D01*
X116860218Y-127101669D01*
X117025930Y-126866907D01*
X117029509Y-126860000D01*
X120364353Y-126860000D01*
X120384835Y-127002458D01*
X120384836Y-127002462D01*
X120444620Y-127133369D01*
X120444624Y-127133376D01*
X120538871Y-127242142D01*
X120538872Y-127242143D01*
X120659947Y-127319953D01*
X120711423Y-127335067D01*
X120798038Y-127360500D01*
X120798039Y-127360500D01*
X120941962Y-127360500D01*
X120995189Y-127344870D01*
X121080053Y-127319953D01*
X121201128Y-127242143D01*
X121274434Y-127157543D01*
X121295375Y-127133376D01*
X121295379Y-127133369D01*
X121355163Y-127002462D01*
X121355163Y-127002460D01*
X121355165Y-127002457D01*
X121375647Y-126860000D01*
X121355165Y-126717543D01*
X121355163Y-126717540D01*
X121355163Y-126717537D01*
X121295379Y-126586630D01*
X121295375Y-126586623D01*
X121201128Y-126477857D01*
X121201127Y-126477856D01*
X121114955Y-126422477D01*
X121080053Y-126400047D01*
X121080050Y-126400046D01*
X121080048Y-126400045D01*
X120941962Y-126359500D01*
X120941961Y-126359500D01*
X120798039Y-126359500D01*
X120798038Y-126359500D01*
X120659951Y-126400045D01*
X120659945Y-126400048D01*
X120538872Y-126477856D01*
X120538871Y-126477857D01*
X120444624Y-126586623D01*
X120444620Y-126586630D01*
X120384836Y-126717537D01*
X120384835Y-126717541D01*
X120364353Y-126860000D01*
X117029509Y-126860000D01*
X117158133Y-126611768D01*
X117254363Y-126341003D01*
X117312827Y-126059657D01*
X117332437Y-125772971D01*
X117332437Y-125772969D01*
X122667563Y-125772969D01*
X122667563Y-125772972D01*
X122687173Y-126059658D01*
X122745634Y-126340993D01*
X122745636Y-126340998D01*
X122745637Y-126341003D01*
X122798175Y-126488830D01*
X122841866Y-126611766D01*
X122841871Y-126611777D01*
X122974069Y-126866906D01*
X123110400Y-127060045D01*
X123139782Y-127101669D01*
X123325011Y-127300000D01*
X123335921Y-127311682D01*
X123558823Y-127493025D01*
X123558828Y-127493029D01*
X123804348Y-127642333D01*
X123804349Y-127642334D01*
X123896000Y-127682143D01*
X124067913Y-127756815D01*
X124344613Y-127834342D01*
X124486953Y-127853906D01*
X124629285Y-127873470D01*
X124629287Y-127873470D01*
X124629293Y-127873471D01*
X124629295Y-127873471D01*
X124916647Y-127873471D01*
X124916649Y-127873471D01*
X125201329Y-127834342D01*
X125478029Y-127756815D01*
X125695261Y-127662458D01*
X125741592Y-127642334D01*
X125741592Y-127642333D01*
X125741596Y-127642332D01*
X125942761Y-127520000D01*
X131694353Y-127520000D01*
X131714835Y-127662458D01*
X131714836Y-127662462D01*
X131774620Y-127793369D01*
X131774624Y-127793376D01*
X131868871Y-127902142D01*
X131868872Y-127902143D01*
X131989947Y-127979953D01*
X132041423Y-127995067D01*
X132128038Y-128020500D01*
X132128039Y-128020500D01*
X132271962Y-128020500D01*
X132343481Y-127999500D01*
X132410053Y-127979953D01*
X132531128Y-127902143D01*
X132589877Y-127834342D01*
X132625375Y-127793376D01*
X132625379Y-127793369D01*
X132685163Y-127662462D01*
X132685163Y-127662460D01*
X132685165Y-127662457D01*
X132705647Y-127520000D01*
X132685165Y-127377543D01*
X132685163Y-127377540D01*
X132685163Y-127377537D01*
X132625379Y-127246630D01*
X132625375Y-127246623D01*
X132531128Y-127137857D01*
X132531127Y-127137856D01*
X132470590Y-127098952D01*
X132410053Y-127060047D01*
X132410050Y-127060046D01*
X132410048Y-127060045D01*
X132271962Y-127019500D01*
X132271961Y-127019500D01*
X132128039Y-127019500D01*
X132128038Y-127019500D01*
X131989951Y-127060045D01*
X131989945Y-127060048D01*
X131868872Y-127137856D01*
X131868871Y-127137857D01*
X131774624Y-127246623D01*
X131774620Y-127246630D01*
X131714836Y-127377537D01*
X131714835Y-127377541D01*
X131694353Y-127520000D01*
X125942761Y-127520000D01*
X125987118Y-127493026D01*
X126210024Y-127311679D01*
X126406160Y-127101669D01*
X126571872Y-126866907D01*
X126704075Y-126611768D01*
X126800305Y-126341003D01*
X126858769Y-126059657D01*
X126878379Y-125772971D01*
X126878379Y-125772969D01*
X134121621Y-125772969D01*
X134121621Y-125772972D01*
X134141231Y-126059658D01*
X134199692Y-126340993D01*
X134199694Y-126340998D01*
X134199695Y-126341003D01*
X134252233Y-126488830D01*
X134295924Y-126611766D01*
X134295929Y-126611777D01*
X134428127Y-126866906D01*
X134564458Y-127060045D01*
X134593840Y-127101669D01*
X134779069Y-127300000D01*
X134789979Y-127311682D01*
X135012881Y-127493025D01*
X135012886Y-127493029D01*
X135258406Y-127642333D01*
X135258407Y-127642334D01*
X135350058Y-127682143D01*
X135521971Y-127756815D01*
X135798671Y-127834342D01*
X135941011Y-127853906D01*
X136083343Y-127873470D01*
X136083345Y-127873470D01*
X136083351Y-127873471D01*
X136083353Y-127873471D01*
X136370705Y-127873471D01*
X136370707Y-127873471D01*
X136655387Y-127834342D01*
X136932087Y-127756815D01*
X137149319Y-127662458D01*
X137195650Y-127642334D01*
X137195650Y-127642333D01*
X137195654Y-127642332D01*
X137441176Y-127493026D01*
X137664082Y-127311679D01*
X137860218Y-127101669D01*
X138025930Y-126866907D01*
X138158133Y-126611768D01*
X138254363Y-126341003D01*
X138312827Y-126059657D01*
X138332437Y-125772971D01*
X138332437Y-125772969D01*
X143667563Y-125772969D01*
X143667563Y-125772972D01*
X143687173Y-126059658D01*
X143745634Y-126340993D01*
X143745636Y-126340998D01*
X143745637Y-126341003D01*
X143798175Y-126488830D01*
X143841866Y-126611766D01*
X143841871Y-126611777D01*
X143974069Y-126866906D01*
X144110400Y-127060045D01*
X144139782Y-127101669D01*
X144325011Y-127300000D01*
X144335921Y-127311682D01*
X144558823Y-127493025D01*
X144558828Y-127493029D01*
X144804348Y-127642333D01*
X144804349Y-127642334D01*
X144896000Y-127682143D01*
X145067913Y-127756815D01*
X145344613Y-127834342D01*
X145486953Y-127853906D01*
X145629285Y-127873470D01*
X145629287Y-127873470D01*
X145629293Y-127873471D01*
X145629295Y-127873471D01*
X145916647Y-127873471D01*
X145916649Y-127873471D01*
X146201329Y-127834342D01*
X146478029Y-127756815D01*
X146695261Y-127662458D01*
X146741592Y-127642334D01*
X146741592Y-127642333D01*
X146741596Y-127642332D01*
X146987118Y-127493026D01*
X147210024Y-127311679D01*
X147406160Y-127101669D01*
X147571872Y-126866907D01*
X147704075Y-126611768D01*
X147800305Y-126341003D01*
X147858769Y-126059657D01*
X147866099Y-125952496D01*
X149844750Y-125952496D01*
X149844750Y-125952503D01*
X149863669Y-126096209D01*
X149863670Y-126096211D01*
X149919137Y-126230122D01*
X149919139Y-126230126D01*
X150007377Y-126345120D01*
X150007379Y-126345122D01*
X150122373Y-126433360D01*
X150122377Y-126433362D01*
X150256288Y-126488829D01*
X150256290Y-126488830D01*
X150399997Y-126507750D01*
X150400000Y-126507750D01*
X150400003Y-126507750D01*
X150543709Y-126488830D01*
X150543711Y-126488829D01*
X150677625Y-126433361D01*
X150792621Y-126345121D01*
X150795783Y-126341001D01*
X150844488Y-126277527D01*
X150880861Y-126230125D01*
X150936330Y-126096209D01*
X150955250Y-125952500D01*
X150955250Y-125952496D01*
X150936330Y-125808790D01*
X150936329Y-125808788D01*
X150880862Y-125674877D01*
X150880860Y-125674873D01*
X150792622Y-125559879D01*
X150792620Y-125559877D01*
X150677626Y-125471639D01*
X150677622Y-125471637D01*
X150543711Y-125416170D01*
X150543709Y-125416169D01*
X150400003Y-125397250D01*
X150399997Y-125397250D01*
X150256290Y-125416169D01*
X150256288Y-125416170D01*
X150122377Y-125471637D01*
X150122373Y-125471639D01*
X150007379Y-125559877D01*
X150007377Y-125559879D01*
X149919139Y-125674873D01*
X149919137Y-125674877D01*
X149863670Y-125808788D01*
X149863669Y-125808790D01*
X149844750Y-125952496D01*
X147866099Y-125952496D01*
X147878379Y-125772971D01*
X147858769Y-125486285D01*
X147800305Y-125204939D01*
X147704075Y-124934174D01*
X147571872Y-124679035D01*
X147406160Y-124444273D01*
X147210024Y-124234263D01*
X147210022Y-124234262D01*
X147210020Y-124234259D01*
X146987118Y-124052916D01*
X146987113Y-124052912D01*
X146741593Y-123903608D01*
X146741592Y-123903607D01*
X146478027Y-123789126D01*
X146201326Y-123711599D01*
X146201320Y-123711598D01*
X145916656Y-123672471D01*
X145916649Y-123672471D01*
X145629293Y-123672471D01*
X145629285Y-123672471D01*
X145344621Y-123711598D01*
X145344615Y-123711599D01*
X145067914Y-123789126D01*
X144804349Y-123903607D01*
X144804348Y-123903608D01*
X144558828Y-124052912D01*
X144558823Y-124052916D01*
X144335921Y-124234259D01*
X144139786Y-124444268D01*
X144139776Y-124444280D01*
X143974069Y-124679035D01*
X143841871Y-124934164D01*
X143841866Y-124934175D01*
X143799829Y-125052457D01*
X143753301Y-125183376D01*
X143745637Y-125204940D01*
X143745634Y-125204948D01*
X143687173Y-125486283D01*
X143667563Y-125772969D01*
X138332437Y-125772969D01*
X138312827Y-125486285D01*
X138254363Y-125204939D01*
X138158133Y-124934174D01*
X138145607Y-124910000D01*
X140594353Y-124910000D01*
X140614835Y-125052458D01*
X140614836Y-125052462D01*
X140674620Y-125183369D01*
X140674624Y-125183376D01*
X140768871Y-125292142D01*
X140768872Y-125292143D01*
X140889947Y-125369953D01*
X140941423Y-125385067D01*
X141028038Y-125410500D01*
X141028039Y-125410500D01*
X141171962Y-125410500D01*
X141225189Y-125394870D01*
X141310053Y-125369953D01*
X141431128Y-125292143D01*
X141486834Y-125227854D01*
X141525375Y-125183376D01*
X141525379Y-125183369D01*
X141585163Y-125052462D01*
X141585163Y-125052460D01*
X141585165Y-125052457D01*
X141605647Y-124910000D01*
X141585165Y-124767543D01*
X141585163Y-124767540D01*
X141585163Y-124767537D01*
X141525379Y-124636630D01*
X141525375Y-124636623D01*
X141431128Y-124527857D01*
X141431127Y-124527856D01*
X141370590Y-124488952D01*
X141310053Y-124450047D01*
X141310050Y-124450046D01*
X141310048Y-124450045D01*
X141171962Y-124409500D01*
X141171961Y-124409500D01*
X141028039Y-124409500D01*
X141028038Y-124409500D01*
X140889951Y-124450045D01*
X140889945Y-124450048D01*
X140768872Y-124527856D01*
X140768871Y-124527857D01*
X140674624Y-124636623D01*
X140674620Y-124636630D01*
X140614836Y-124767537D01*
X140614835Y-124767541D01*
X140594353Y-124910000D01*
X138145607Y-124910000D01*
X138025930Y-124679035D01*
X137860218Y-124444273D01*
X137664082Y-124234263D01*
X137664080Y-124234262D01*
X137664078Y-124234259D01*
X137441176Y-124052916D01*
X137441171Y-124052912D01*
X137195651Y-123903608D01*
X137195650Y-123903607D01*
X136932085Y-123789126D01*
X136655384Y-123711599D01*
X136655378Y-123711598D01*
X136370714Y-123672471D01*
X136370707Y-123672471D01*
X136083351Y-123672471D01*
X136083343Y-123672471D01*
X135798679Y-123711598D01*
X135798673Y-123711599D01*
X135521972Y-123789126D01*
X135258407Y-123903607D01*
X135258406Y-123903608D01*
X135012886Y-124052912D01*
X135012881Y-124052916D01*
X134789979Y-124234259D01*
X134593844Y-124444268D01*
X134593834Y-124444280D01*
X134428127Y-124679035D01*
X134295929Y-124934164D01*
X134295924Y-124934175D01*
X134253887Y-125052457D01*
X134207359Y-125183376D01*
X134199695Y-125204940D01*
X134199692Y-125204948D01*
X134141231Y-125486283D01*
X134121621Y-125772969D01*
X126878379Y-125772969D01*
X126858769Y-125486285D01*
X126800305Y-125204939D01*
X126704075Y-124934174D01*
X126571872Y-124679035D01*
X126406160Y-124444273D01*
X126210024Y-124234263D01*
X126210022Y-124234262D01*
X126210020Y-124234259D01*
X125987118Y-124052916D01*
X125987113Y-124052912D01*
X125741593Y-123903608D01*
X125741592Y-123903607D01*
X125478027Y-123789126D01*
X125201326Y-123711599D01*
X125201320Y-123711598D01*
X124916656Y-123672471D01*
X124916649Y-123672471D01*
X124629293Y-123672471D01*
X124629285Y-123672471D01*
X124344621Y-123711598D01*
X124344615Y-123711599D01*
X124067914Y-123789126D01*
X123804349Y-123903607D01*
X123804348Y-123903608D01*
X123558828Y-124052912D01*
X123558823Y-124052916D01*
X123335921Y-124234259D01*
X123139786Y-124444268D01*
X123139776Y-124444280D01*
X122974069Y-124679035D01*
X122841871Y-124934164D01*
X122841866Y-124934175D01*
X122799829Y-125052457D01*
X122753301Y-125183376D01*
X122745637Y-125204940D01*
X122745634Y-125204948D01*
X122687173Y-125486283D01*
X122667563Y-125772969D01*
X117332437Y-125772969D01*
X117312827Y-125486285D01*
X117254363Y-125204939D01*
X117158133Y-124934174D01*
X117025930Y-124679035D01*
X116860218Y-124444273D01*
X116664082Y-124234263D01*
X116664080Y-124234262D01*
X116664078Y-124234259D01*
X116441176Y-124052916D01*
X116441171Y-124052912D01*
X116195651Y-123903608D01*
X116195650Y-123903607D01*
X115932085Y-123789126D01*
X115655384Y-123711599D01*
X115655378Y-123711598D01*
X115370714Y-123672471D01*
X115370707Y-123672471D01*
X115083351Y-123672471D01*
X115083343Y-123672471D01*
X114798679Y-123711598D01*
X114798673Y-123711599D01*
X114521972Y-123789126D01*
X114258407Y-123903607D01*
X114258406Y-123903608D01*
X114012886Y-124052912D01*
X114012881Y-124052916D01*
X113789979Y-124234259D01*
X113593844Y-124444268D01*
X113593834Y-124444280D01*
X113428127Y-124679035D01*
X113295929Y-124934164D01*
X113295924Y-124934175D01*
X113253887Y-125052457D01*
X113207359Y-125183376D01*
X113199695Y-125204940D01*
X113199692Y-125204948D01*
X113141231Y-125486283D01*
X113121621Y-125772969D01*
X104437754Y-125772969D01*
X104377070Y-125724574D01*
X104338643Y-125644782D01*
X104333654Y-125600451D01*
X104334047Y-124199440D01*
X104353778Y-124113107D01*
X104409016Y-124043881D01*
X104488820Y-124005477D01*
X104533047Y-124000500D01*
X104922472Y-124000500D01*
X104922475Y-124000500D01*
X105062485Y-123962984D01*
X105188015Y-123890509D01*
X105290509Y-123788015D01*
X105362984Y-123662485D01*
X105400500Y-123522475D01*
X105400500Y-123377525D01*
X105362984Y-123237515D01*
X105347098Y-123210000D01*
X141254353Y-123210000D01*
X141274835Y-123352458D01*
X141274836Y-123352462D01*
X141334620Y-123483369D01*
X141334624Y-123483376D01*
X141394521Y-123552500D01*
X141428872Y-123592143D01*
X141549947Y-123669953D01*
X141558523Y-123672471D01*
X141688038Y-123710500D01*
X141688039Y-123710500D01*
X141831962Y-123710500D01*
X141885189Y-123694870D01*
X141970053Y-123669953D01*
X142091128Y-123592143D01*
X142125478Y-123552500D01*
X152194353Y-123552500D01*
X152214835Y-123694958D01*
X152214836Y-123694962D01*
X152274620Y-123825869D01*
X152274624Y-123825876D01*
X152368871Y-123934642D01*
X152368872Y-123934643D01*
X152489947Y-124012453D01*
X152541423Y-124027567D01*
X152628038Y-124053000D01*
X152628039Y-124053000D01*
X152771962Y-124053000D01*
X152825189Y-124037370D01*
X152910053Y-124012453D01*
X153031128Y-123934643D01*
X153086834Y-123870354D01*
X153125375Y-123825876D01*
X153125379Y-123825869D01*
X153185163Y-123694962D01*
X153185163Y-123694960D01*
X153185165Y-123694957D01*
X153205647Y-123552500D01*
X153185165Y-123410043D01*
X153185163Y-123410040D01*
X153185163Y-123410037D01*
X153125379Y-123279130D01*
X153125375Y-123279123D01*
X153031128Y-123170357D01*
X153031127Y-123170356D01*
X152940299Y-123111985D01*
X152910053Y-123092547D01*
X152910050Y-123092546D01*
X152910048Y-123092545D01*
X152771962Y-123052000D01*
X152771961Y-123052000D01*
X152628039Y-123052000D01*
X152628038Y-123052000D01*
X152489951Y-123092545D01*
X152489945Y-123092548D01*
X152368872Y-123170356D01*
X152368871Y-123170357D01*
X152274624Y-123279123D01*
X152274620Y-123279130D01*
X152214836Y-123410037D01*
X152214835Y-123410041D01*
X152194353Y-123552500D01*
X142125478Y-123552500D01*
X142146834Y-123527854D01*
X142185375Y-123483376D01*
X142185379Y-123483369D01*
X142245163Y-123352462D01*
X142245163Y-123352460D01*
X142245165Y-123352457D01*
X142265647Y-123210000D01*
X142245165Y-123067543D01*
X142245163Y-123067540D01*
X142245163Y-123067537D01*
X142185379Y-122936630D01*
X142185375Y-122936623D01*
X142091128Y-122827857D01*
X142091127Y-122827856D01*
X142030590Y-122788952D01*
X141970053Y-122750047D01*
X141970050Y-122750046D01*
X141970048Y-122750045D01*
X141831962Y-122709500D01*
X141831961Y-122709500D01*
X141688039Y-122709500D01*
X141688038Y-122709500D01*
X141549951Y-122750045D01*
X141549945Y-122750048D01*
X141428872Y-122827856D01*
X141428871Y-122827857D01*
X141334624Y-122936623D01*
X141334620Y-122936630D01*
X141274836Y-123067537D01*
X141274835Y-123067541D01*
X141254353Y-123210000D01*
X105347098Y-123210000D01*
X105290509Y-123111985D01*
X105188015Y-123009491D01*
X105188014Y-123009490D01*
X105062485Y-122937016D01*
X104922477Y-122899500D01*
X104922475Y-122899500D01*
X104533468Y-122899500D01*
X104447125Y-122879793D01*
X104377884Y-122824574D01*
X104339457Y-122744782D01*
X104334468Y-122700444D01*
X104334471Y-122692143D01*
X104334578Y-122310000D01*
X107454353Y-122310000D01*
X107474835Y-122452458D01*
X107474836Y-122452462D01*
X107534620Y-122583369D01*
X107534624Y-122583376D01*
X107628871Y-122692142D01*
X107628872Y-122692143D01*
X107749947Y-122769953D01*
X107761581Y-122773369D01*
X107888038Y-122810500D01*
X107888039Y-122810500D01*
X108031962Y-122810500D01*
X108085189Y-122794870D01*
X108170053Y-122769953D01*
X108291128Y-122692143D01*
X108346834Y-122627854D01*
X108385375Y-122583376D01*
X108385379Y-122583369D01*
X108423453Y-122500000D01*
X131994353Y-122500000D01*
X132014835Y-122642458D01*
X132014836Y-122642462D01*
X132074620Y-122773369D01*
X132074624Y-122773376D01*
X132141453Y-122850500D01*
X132168872Y-122882143D01*
X132289947Y-122959953D01*
X132341423Y-122975067D01*
X132428038Y-123000500D01*
X132428039Y-123000500D01*
X132571962Y-123000500D01*
X132625189Y-122984870D01*
X132710053Y-122959953D01*
X132831128Y-122882143D01*
X132893680Y-122809954D01*
X132925375Y-122773376D01*
X132925379Y-122773369D01*
X132985163Y-122642462D01*
X132985163Y-122642460D01*
X132985165Y-122642457D01*
X133005647Y-122500000D01*
X132985165Y-122357543D01*
X132985163Y-122357540D01*
X132985163Y-122357537D01*
X132981721Y-122350000D01*
X146684353Y-122350000D01*
X146704835Y-122492458D01*
X146704836Y-122492462D01*
X146764620Y-122623369D01*
X146764624Y-122623376D01*
X146858871Y-122732142D01*
X146858872Y-122732143D01*
X146979947Y-122809953D01*
X147029742Y-122824574D01*
X147118038Y-122850500D01*
X147118039Y-122850500D01*
X147261962Y-122850500D01*
X147315189Y-122834870D01*
X147400053Y-122809953D01*
X147521128Y-122732143D01*
X147576834Y-122667854D01*
X147615375Y-122623376D01*
X147615379Y-122623369D01*
X147675163Y-122492462D01*
X147675163Y-122492460D01*
X147675165Y-122492457D01*
X147695647Y-122350000D01*
X147675165Y-122207543D01*
X147675163Y-122207540D01*
X147675163Y-122207537D01*
X147615379Y-122076630D01*
X147615375Y-122076623D01*
X147521128Y-121967857D01*
X147521127Y-121967856D01*
X147458885Y-121927856D01*
X147400053Y-121890047D01*
X147400050Y-121890046D01*
X147400048Y-121890045D01*
X147261962Y-121849500D01*
X147261961Y-121849500D01*
X147118039Y-121849500D01*
X147118038Y-121849500D01*
X146979951Y-121890045D01*
X146979945Y-121890048D01*
X146858872Y-121967856D01*
X146858871Y-121967857D01*
X146764624Y-122076623D01*
X146764620Y-122076630D01*
X146704836Y-122207537D01*
X146704835Y-122207541D01*
X146684353Y-122350000D01*
X132981721Y-122350000D01*
X132925379Y-122226630D01*
X132925375Y-122226623D01*
X132831128Y-122117857D01*
X132831127Y-122117856D01*
X132766966Y-122076623D01*
X132710053Y-122040047D01*
X132710050Y-122040046D01*
X132710048Y-122040045D01*
X132571962Y-121999500D01*
X132571961Y-121999500D01*
X132428039Y-121999500D01*
X132428038Y-121999500D01*
X132289951Y-122040045D01*
X132289945Y-122040048D01*
X132168872Y-122117856D01*
X132168871Y-122117857D01*
X132074624Y-122226623D01*
X132074620Y-122226630D01*
X132014836Y-122357537D01*
X132014835Y-122357541D01*
X131994353Y-122500000D01*
X108423453Y-122500000D01*
X108445163Y-122452462D01*
X108445163Y-122452460D01*
X108445165Y-122452457D01*
X108465647Y-122310000D01*
X108445165Y-122167543D01*
X108445163Y-122167540D01*
X108445163Y-122167537D01*
X108385379Y-122036630D01*
X108385375Y-122036623D01*
X108291128Y-121927857D01*
X108291127Y-121927856D01*
X108230590Y-121888952D01*
X108170053Y-121850047D01*
X108170050Y-121850046D01*
X108170048Y-121850045D01*
X108031962Y-121809500D01*
X108031961Y-121809500D01*
X107888039Y-121809500D01*
X107888038Y-121809500D01*
X107749951Y-121850045D01*
X107749945Y-121850048D01*
X107628872Y-121927856D01*
X107628871Y-121927857D01*
X107534624Y-122036623D01*
X107534620Y-122036630D01*
X107474836Y-122167537D01*
X107474835Y-122167541D01*
X107454353Y-122310000D01*
X104334578Y-122310000D01*
X104334930Y-121052500D01*
X154694353Y-121052500D01*
X154714835Y-121194958D01*
X154714836Y-121194962D01*
X154774620Y-121325869D01*
X154774624Y-121325876D01*
X154868871Y-121434642D01*
X154868872Y-121434643D01*
X154989947Y-121512453D01*
X155041423Y-121527567D01*
X155128038Y-121553000D01*
X155128039Y-121553000D01*
X155271962Y-121553000D01*
X155325189Y-121537370D01*
X155410053Y-121512453D01*
X155531128Y-121434643D01*
X155586834Y-121370354D01*
X155625375Y-121325876D01*
X155625379Y-121325869D01*
X155685163Y-121194962D01*
X155685163Y-121194960D01*
X155685165Y-121194957D01*
X155705647Y-121052500D01*
X155685165Y-120910043D01*
X155685163Y-120910040D01*
X155685163Y-120910037D01*
X155625379Y-120779130D01*
X155625375Y-120779123D01*
X155531128Y-120670357D01*
X155531127Y-120670356D01*
X155470590Y-120631452D01*
X155410053Y-120592547D01*
X155410050Y-120592546D01*
X155410048Y-120592545D01*
X155271962Y-120552000D01*
X155271961Y-120552000D01*
X155128039Y-120552000D01*
X155128038Y-120552000D01*
X154989951Y-120592545D01*
X154989945Y-120592548D01*
X154868872Y-120670356D01*
X154868871Y-120670357D01*
X154774624Y-120779123D01*
X154774620Y-120779130D01*
X154714836Y-120910037D01*
X154714835Y-120910041D01*
X154694353Y-121052500D01*
X104334930Y-121052500D01*
X104335332Y-119620000D01*
X107464353Y-119620000D01*
X107484835Y-119762458D01*
X107484836Y-119762462D01*
X107544620Y-119893369D01*
X107544624Y-119893376D01*
X107637015Y-120000000D01*
X107638872Y-120002143D01*
X107759947Y-120079953D01*
X107811423Y-120095067D01*
X107898038Y-120120500D01*
X107898039Y-120120500D01*
X108041962Y-120120500D01*
X108095189Y-120104870D01*
X108180053Y-120079953D01*
X108301128Y-120002143D01*
X108302985Y-120000000D01*
X111994353Y-120000000D01*
X112014835Y-120142458D01*
X112014836Y-120142462D01*
X112074620Y-120273369D01*
X112074624Y-120273376D01*
X112168871Y-120382142D01*
X112168872Y-120382143D01*
X112289947Y-120459953D01*
X112341423Y-120475067D01*
X112428038Y-120500500D01*
X112428039Y-120500500D01*
X112571962Y-120500500D01*
X112625189Y-120484870D01*
X112710053Y-120459953D01*
X112831128Y-120382143D01*
X112886834Y-120317854D01*
X112925375Y-120273376D01*
X112925379Y-120273369D01*
X112985163Y-120142462D01*
X112985163Y-120142460D01*
X112985165Y-120142457D01*
X112998458Y-120050000D01*
X151334353Y-120050000D01*
X151354835Y-120192458D01*
X151354836Y-120192462D01*
X151414620Y-120323369D01*
X151414624Y-120323376D01*
X151508871Y-120432142D01*
X151508872Y-120432143D01*
X151629947Y-120509953D01*
X151681423Y-120525067D01*
X151768038Y-120550500D01*
X151768039Y-120550500D01*
X151911962Y-120550500D01*
X151965189Y-120534870D01*
X152050053Y-120509953D01*
X152171128Y-120432143D01*
X152226834Y-120367854D01*
X152265375Y-120323376D01*
X152265379Y-120323369D01*
X152325163Y-120192462D01*
X152325163Y-120192460D01*
X152325165Y-120192457D01*
X152345647Y-120050000D01*
X152325165Y-119907543D01*
X152325163Y-119907540D01*
X152325163Y-119907537D01*
X152265379Y-119776630D01*
X152265375Y-119776623D01*
X152171128Y-119667857D01*
X152171127Y-119667856D01*
X152093325Y-119617856D01*
X152050053Y-119590047D01*
X152050050Y-119590046D01*
X152050048Y-119590045D01*
X151911962Y-119549500D01*
X151911961Y-119549500D01*
X151768039Y-119549500D01*
X151768038Y-119549500D01*
X151629951Y-119590045D01*
X151629945Y-119590048D01*
X151508872Y-119667856D01*
X151508871Y-119667857D01*
X151414624Y-119776623D01*
X151414620Y-119776630D01*
X151354836Y-119907537D01*
X151354835Y-119907541D01*
X151334353Y-120050000D01*
X112998458Y-120050000D01*
X113005647Y-120000000D01*
X112985165Y-119857543D01*
X112985163Y-119857540D01*
X112985163Y-119857537D01*
X112925379Y-119726630D01*
X112925375Y-119726623D01*
X112831128Y-119617857D01*
X112831127Y-119617856D01*
X112724762Y-119549500D01*
X112710053Y-119540047D01*
X112710050Y-119540046D01*
X112710048Y-119540045D01*
X112571962Y-119499500D01*
X112571961Y-119499500D01*
X112428039Y-119499500D01*
X112428038Y-119499500D01*
X112289951Y-119540045D01*
X112289945Y-119540048D01*
X112168872Y-119617856D01*
X112168871Y-119617857D01*
X112074624Y-119726623D01*
X112074620Y-119726630D01*
X112014836Y-119857537D01*
X112014835Y-119857541D01*
X111994353Y-120000000D01*
X108302985Y-120000000D01*
X108383099Y-119907543D01*
X108395375Y-119893376D01*
X108395379Y-119893369D01*
X108455163Y-119762462D01*
X108455163Y-119762460D01*
X108455165Y-119762457D01*
X108475647Y-119620000D01*
X108455165Y-119477543D01*
X108455163Y-119477540D01*
X108455163Y-119477537D01*
X108395379Y-119346630D01*
X108395375Y-119346623D01*
X108301128Y-119237857D01*
X108301127Y-119237856D01*
X108240590Y-119198952D01*
X108180053Y-119160047D01*
X108180050Y-119160046D01*
X108180048Y-119160045D01*
X108041962Y-119119500D01*
X108041961Y-119119500D01*
X107898039Y-119119500D01*
X107898038Y-119119500D01*
X107759951Y-119160045D01*
X107759945Y-119160048D01*
X107638872Y-119237856D01*
X107638871Y-119237857D01*
X107544624Y-119346623D01*
X107544620Y-119346630D01*
X107484836Y-119477537D01*
X107484835Y-119477541D01*
X107464353Y-119620000D01*
X104335332Y-119620000D01*
X104335422Y-119299442D01*
X104355153Y-119213107D01*
X104410391Y-119143881D01*
X104490195Y-119105477D01*
X104534422Y-119100500D01*
X104922472Y-119100500D01*
X104922475Y-119100500D01*
X105062485Y-119062984D01*
X105188015Y-118990509D01*
X105290509Y-118888015D01*
X105362984Y-118762485D01*
X105369009Y-118740000D01*
X138694353Y-118740000D01*
X138714835Y-118882458D01*
X138714836Y-118882462D01*
X138774620Y-119013369D01*
X138774624Y-119013376D01*
X138850118Y-119100500D01*
X138868872Y-119122143D01*
X138989947Y-119199953D01*
X139034746Y-119213107D01*
X139128038Y-119240500D01*
X139128039Y-119240500D01*
X139271962Y-119240500D01*
X139325189Y-119224870D01*
X139410053Y-119199953D01*
X139531128Y-119122143D01*
X139591040Y-119053000D01*
X139625375Y-119013376D01*
X139625379Y-119013369D01*
X139685163Y-118882462D01*
X139685163Y-118882460D01*
X139685165Y-118882457D01*
X139705647Y-118740000D01*
X139685165Y-118597543D01*
X139685163Y-118597540D01*
X139685163Y-118597537D01*
X139664595Y-118552500D01*
X145794353Y-118552500D01*
X145814835Y-118694958D01*
X145814836Y-118694962D01*
X145874620Y-118825869D01*
X145874624Y-118825876D01*
X145968871Y-118934642D01*
X145968872Y-118934643D01*
X146089947Y-119012453D01*
X146141423Y-119027567D01*
X146228038Y-119053000D01*
X146228039Y-119053000D01*
X146371962Y-119053000D01*
X146425189Y-119037370D01*
X146510053Y-119012453D01*
X146631128Y-118934643D01*
X146652481Y-118910000D01*
X154294353Y-118910000D01*
X154314835Y-119052458D01*
X154314836Y-119052462D01*
X154374620Y-119183369D01*
X154374624Y-119183376D01*
X154424123Y-119240500D01*
X154468872Y-119292143D01*
X154589947Y-119369953D01*
X154641423Y-119385067D01*
X154728038Y-119410500D01*
X154728039Y-119410500D01*
X154871962Y-119410500D01*
X154925189Y-119394870D01*
X155010053Y-119369953D01*
X155131128Y-119292143D01*
X155211010Y-119199954D01*
X155225375Y-119183376D01*
X155225379Y-119183369D01*
X155285163Y-119052462D01*
X155285163Y-119052460D01*
X155285165Y-119052457D01*
X155305647Y-118910000D01*
X155285165Y-118767543D01*
X155285163Y-118767540D01*
X155285163Y-118767537D01*
X155225379Y-118636630D01*
X155225375Y-118636623D01*
X155152481Y-118552500D01*
X157194353Y-118552500D01*
X157214835Y-118694958D01*
X157214836Y-118694962D01*
X157274620Y-118825869D01*
X157274624Y-118825876D01*
X157368871Y-118934642D01*
X157368872Y-118934643D01*
X157489947Y-119012453D01*
X157541423Y-119027567D01*
X157628038Y-119053000D01*
X157628039Y-119053000D01*
X157771962Y-119053000D01*
X157825189Y-119037370D01*
X157910053Y-119012453D01*
X158031128Y-118934643D01*
X158086834Y-118870354D01*
X158125375Y-118825876D01*
X158125379Y-118825869D01*
X158185163Y-118694962D01*
X158185163Y-118694960D01*
X158185165Y-118694957D01*
X158205647Y-118552500D01*
X158185165Y-118410043D01*
X158185163Y-118410040D01*
X158185163Y-118410037D01*
X158125379Y-118279130D01*
X158125375Y-118279123D01*
X158031128Y-118170357D01*
X158031127Y-118170356D01*
X157921650Y-118100000D01*
X157910053Y-118092547D01*
X157910050Y-118092546D01*
X157910048Y-118092545D01*
X157771962Y-118052000D01*
X157771961Y-118052000D01*
X157628039Y-118052000D01*
X157628038Y-118052000D01*
X157489951Y-118092545D01*
X157489945Y-118092548D01*
X157368872Y-118170356D01*
X157368871Y-118170357D01*
X157274624Y-118279123D01*
X157274620Y-118279130D01*
X157214836Y-118410037D01*
X157214835Y-118410041D01*
X157194353Y-118552500D01*
X155152481Y-118552500D01*
X155131128Y-118527857D01*
X155131127Y-118527856D01*
X155052805Y-118477522D01*
X155010053Y-118450047D01*
X155010050Y-118450046D01*
X155010048Y-118450045D01*
X154871962Y-118409500D01*
X154871961Y-118409500D01*
X154728039Y-118409500D01*
X154728038Y-118409500D01*
X154589951Y-118450045D01*
X154589945Y-118450048D01*
X154468872Y-118527856D01*
X154468871Y-118527857D01*
X154374624Y-118636623D01*
X154374620Y-118636630D01*
X154314836Y-118767537D01*
X154314835Y-118767541D01*
X154294353Y-118910000D01*
X146652481Y-118910000D01*
X146686834Y-118870354D01*
X146725375Y-118825876D01*
X146725379Y-118825869D01*
X146785163Y-118694962D01*
X146785163Y-118694960D01*
X146785165Y-118694957D01*
X146805647Y-118552500D01*
X146785165Y-118410043D01*
X146785163Y-118410040D01*
X146785163Y-118410037D01*
X146725379Y-118279130D01*
X146725375Y-118279123D01*
X146631128Y-118170357D01*
X146631127Y-118170356D01*
X146521650Y-118100000D01*
X152604353Y-118100000D01*
X152624835Y-118242458D01*
X152624836Y-118242462D01*
X152684620Y-118373369D01*
X152684624Y-118373376D01*
X152774872Y-118477527D01*
X152778872Y-118482143D01*
X152899947Y-118559953D01*
X152951423Y-118575067D01*
X153038038Y-118600500D01*
X153038039Y-118600500D01*
X153181962Y-118600500D01*
X153235189Y-118584870D01*
X153320053Y-118559953D01*
X153441128Y-118482143D01*
X153504073Y-118409500D01*
X153535375Y-118373376D01*
X153535379Y-118373369D01*
X153595163Y-118242462D01*
X153595163Y-118242460D01*
X153595165Y-118242457D01*
X153615647Y-118100000D01*
X153595165Y-117957543D01*
X153595163Y-117957540D01*
X153595163Y-117957537D01*
X153535379Y-117826630D01*
X153535375Y-117826623D01*
X153441128Y-117717857D01*
X153441127Y-117717856D01*
X153380590Y-117678952D01*
X153320053Y-117640047D01*
X153320050Y-117640046D01*
X153320048Y-117640045D01*
X153181962Y-117599500D01*
X153181961Y-117599500D01*
X153038039Y-117599500D01*
X153038038Y-117599500D01*
X152899951Y-117640045D01*
X152899945Y-117640048D01*
X152778872Y-117717856D01*
X152778871Y-117717857D01*
X152684624Y-117826623D01*
X152684620Y-117826630D01*
X152624836Y-117957537D01*
X152624835Y-117957541D01*
X152604353Y-118100000D01*
X146521650Y-118100000D01*
X146510053Y-118092547D01*
X146510050Y-118092546D01*
X146510048Y-118092545D01*
X146371962Y-118052000D01*
X146371961Y-118052000D01*
X146228039Y-118052000D01*
X146228038Y-118052000D01*
X146089951Y-118092545D01*
X146089945Y-118092548D01*
X145968872Y-118170356D01*
X145968871Y-118170357D01*
X145874624Y-118279123D01*
X145874620Y-118279130D01*
X145814836Y-118410037D01*
X145814835Y-118410041D01*
X145794353Y-118552500D01*
X139664595Y-118552500D01*
X139625379Y-118466630D01*
X139625375Y-118466623D01*
X139531128Y-118357857D01*
X139531127Y-118357856D01*
X139423052Y-118288401D01*
X139410053Y-118280047D01*
X139410050Y-118280046D01*
X139410048Y-118280045D01*
X139271962Y-118239500D01*
X139271961Y-118239500D01*
X139128039Y-118239500D01*
X139128038Y-118239500D01*
X138989951Y-118280045D01*
X138989945Y-118280048D01*
X138868872Y-118357856D01*
X138868871Y-118357857D01*
X138774624Y-118466623D01*
X138774620Y-118466630D01*
X138714836Y-118597537D01*
X138714835Y-118597541D01*
X138694353Y-118740000D01*
X105369009Y-118740000D01*
X105400500Y-118622475D01*
X105400500Y-118477525D01*
X105362984Y-118337515D01*
X105290509Y-118211985D01*
X105188015Y-118109491D01*
X105188014Y-118109490D01*
X105102288Y-118059996D01*
X114544750Y-118059996D01*
X114544750Y-118060003D01*
X114563669Y-118203709D01*
X114563670Y-118203711D01*
X114619137Y-118337622D01*
X114619139Y-118337626D01*
X114707377Y-118452620D01*
X114707379Y-118452622D01*
X114822373Y-118540860D01*
X114822377Y-118540862D01*
X114956288Y-118596329D01*
X114956290Y-118596330D01*
X115099997Y-118615250D01*
X115100000Y-118615250D01*
X115100003Y-118615250D01*
X115243709Y-118596330D01*
X115243711Y-118596329D01*
X115377625Y-118540861D01*
X115474368Y-118466627D01*
X115492620Y-118452622D01*
X115492622Y-118452620D01*
X115553430Y-118373373D01*
X115580861Y-118337625D01*
X115636330Y-118203709D01*
X115645592Y-118133360D01*
X115655250Y-118060003D01*
X115655250Y-118059996D01*
X115636330Y-117916290D01*
X115636329Y-117916288D01*
X115580862Y-117782377D01*
X115580860Y-117782373D01*
X115492622Y-117667379D01*
X115492620Y-117667377D01*
X115377626Y-117579139D01*
X115377622Y-117579137D01*
X115243711Y-117523670D01*
X115243709Y-117523669D01*
X115100003Y-117504750D01*
X115099997Y-117504750D01*
X114956290Y-117523669D01*
X114956288Y-117523670D01*
X114822377Y-117579137D01*
X114822373Y-117579139D01*
X114707379Y-117667377D01*
X114707377Y-117667379D01*
X114619139Y-117782373D01*
X114619137Y-117782377D01*
X114563670Y-117916288D01*
X114563669Y-117916290D01*
X114544750Y-118059996D01*
X105102288Y-118059996D01*
X105062485Y-118037016D01*
X104922477Y-117999500D01*
X104922475Y-117999500D01*
X104534842Y-117999500D01*
X104448499Y-117979793D01*
X104379258Y-117924574D01*
X104340831Y-117844782D01*
X104335842Y-117800451D01*
X104336235Y-116399440D01*
X104355966Y-116313107D01*
X104411204Y-116243881D01*
X104446227Y-116227027D01*
X122667563Y-116227027D01*
X122667563Y-116227030D01*
X122687173Y-116513716D01*
X122745634Y-116795051D01*
X122745636Y-116795056D01*
X122745637Y-116795061D01*
X122814036Y-116987519D01*
X122841866Y-117065824D01*
X122841871Y-117065835D01*
X122974069Y-117320964D01*
X123109236Y-117512454D01*
X123139782Y-117555727D01*
X123230158Y-117652496D01*
X123335921Y-117765740D01*
X123503097Y-117901747D01*
X123531155Y-117924574D01*
X123558823Y-117947083D01*
X123558828Y-117947087D01*
X123720038Y-118045121D01*
X123798026Y-118092547D01*
X123804348Y-118096391D01*
X123804349Y-118096392D01*
X123889464Y-118133362D01*
X124067913Y-118210873D01*
X124344613Y-118288400D01*
X124486953Y-118307964D01*
X124629285Y-118327528D01*
X124629287Y-118327528D01*
X124629293Y-118327529D01*
X124629295Y-118327529D01*
X124916647Y-118327529D01*
X124916649Y-118327529D01*
X125201329Y-118288400D01*
X125478029Y-118210873D01*
X125680421Y-118122961D01*
X125741592Y-118096392D01*
X125741592Y-118096391D01*
X125741596Y-118096390D01*
X125987118Y-117947084D01*
X126210024Y-117765737D01*
X126406160Y-117555727D01*
X126571872Y-117320965D01*
X126704075Y-117065826D01*
X126800305Y-116795061D01*
X126858769Y-116513715D01*
X126878379Y-116227029D01*
X126878379Y-116227027D01*
X134121621Y-116227027D01*
X134121621Y-116227030D01*
X134141231Y-116513716D01*
X134199692Y-116795051D01*
X134199694Y-116795056D01*
X134199695Y-116795061D01*
X134268094Y-116987519D01*
X134295924Y-117065824D01*
X134295929Y-117065835D01*
X134428127Y-117320964D01*
X134563294Y-117512454D01*
X134593840Y-117555727D01*
X134684216Y-117652496D01*
X134789979Y-117765740D01*
X134957155Y-117901747D01*
X134985213Y-117924574D01*
X135012881Y-117947083D01*
X135012886Y-117947087D01*
X135174096Y-118045121D01*
X135252084Y-118092547D01*
X135258406Y-118096391D01*
X135258407Y-118096392D01*
X135343522Y-118133362D01*
X135521971Y-118210873D01*
X135798671Y-118288400D01*
X135941011Y-118307964D01*
X136083343Y-118327528D01*
X136083345Y-118327528D01*
X136083351Y-118327529D01*
X136083353Y-118327529D01*
X136370705Y-118327529D01*
X136370707Y-118327529D01*
X136655387Y-118288400D01*
X136932087Y-118210873D01*
X137134479Y-118122961D01*
X137195650Y-118096392D01*
X137195650Y-118096391D01*
X137195654Y-118096390D01*
X137441176Y-117947084D01*
X137664082Y-117765737D01*
X137860218Y-117555727D01*
X138025930Y-117320965D01*
X138158133Y-117065826D01*
X138162869Y-117052500D01*
X145794353Y-117052500D01*
X145814835Y-117194958D01*
X145814836Y-117194962D01*
X145874620Y-117325869D01*
X145874624Y-117325876D01*
X145968871Y-117434642D01*
X145968872Y-117434643D01*
X146089947Y-117512453D01*
X146128146Y-117523669D01*
X146228038Y-117553000D01*
X146228039Y-117553000D01*
X146371962Y-117553000D01*
X146425189Y-117537370D01*
X146510053Y-117512453D01*
X146631128Y-117434643D01*
X146686834Y-117370354D01*
X146725375Y-117325876D01*
X146725379Y-117325869D01*
X146785163Y-117194962D01*
X146785163Y-117194960D01*
X146785165Y-117194957D01*
X146805647Y-117052500D01*
X146785165Y-116910043D01*
X146785163Y-116910040D01*
X146785163Y-116910037D01*
X146725379Y-116779130D01*
X146725375Y-116779123D01*
X146631128Y-116670357D01*
X146631127Y-116670356D01*
X146570590Y-116631452D01*
X146510053Y-116592547D01*
X146510050Y-116592546D01*
X146510048Y-116592545D01*
X146371962Y-116552000D01*
X146371961Y-116552000D01*
X146228039Y-116552000D01*
X146228038Y-116552000D01*
X146089951Y-116592545D01*
X146089945Y-116592548D01*
X145968872Y-116670356D01*
X145968871Y-116670357D01*
X145874624Y-116779123D01*
X145874620Y-116779130D01*
X145814836Y-116910037D01*
X145814835Y-116910041D01*
X145794353Y-117052500D01*
X138162869Y-117052500D01*
X138254363Y-116795061D01*
X138312827Y-116513715D01*
X138332437Y-116227029D01*
X138320499Y-116052500D01*
X149894353Y-116052500D01*
X149914835Y-116194958D01*
X149914836Y-116194962D01*
X149974620Y-116325869D01*
X149974624Y-116325876D01*
X150068871Y-116434642D01*
X150068872Y-116434643D01*
X150189947Y-116512453D01*
X150241423Y-116527567D01*
X150328038Y-116553000D01*
X150328039Y-116553000D01*
X150471962Y-116553000D01*
X150525189Y-116537370D01*
X150610053Y-116512453D01*
X150731128Y-116434643D01*
X150786834Y-116370354D01*
X150825375Y-116325876D01*
X150825379Y-116325869D01*
X150885163Y-116194962D01*
X150885163Y-116194960D01*
X150885165Y-116194957D01*
X150905647Y-116052500D01*
X150885165Y-115910043D01*
X150885163Y-115910040D01*
X150885163Y-115910037D01*
X150825379Y-115779130D01*
X150825375Y-115779123D01*
X150731128Y-115670357D01*
X150731127Y-115670356D01*
X150670590Y-115631452D01*
X150610053Y-115592547D01*
X150610050Y-115592546D01*
X150610048Y-115592545D01*
X150471962Y-115552000D01*
X150471961Y-115552000D01*
X150328039Y-115552000D01*
X150328038Y-115552000D01*
X150189951Y-115592545D01*
X150189945Y-115592548D01*
X150068872Y-115670356D01*
X150068871Y-115670357D01*
X149974624Y-115779123D01*
X149974620Y-115779130D01*
X149914836Y-115910037D01*
X149914835Y-115910041D01*
X149894353Y-116052500D01*
X138320499Y-116052500D01*
X138312827Y-115940343D01*
X138264989Y-115710133D01*
X138254365Y-115659006D01*
X138254364Y-115659005D01*
X138254363Y-115658997D01*
X138158133Y-115388232D01*
X138154978Y-115382144D01*
X138025930Y-115133093D01*
X137931983Y-115000000D01*
X141994353Y-115000000D01*
X142014835Y-115142458D01*
X142014836Y-115142462D01*
X142074620Y-115273369D01*
X142074624Y-115273376D01*
X142163196Y-115375593D01*
X142168872Y-115382143D01*
X142289947Y-115459953D01*
X142341423Y-115475067D01*
X142428038Y-115500500D01*
X142428039Y-115500500D01*
X142571962Y-115500500D01*
X142625189Y-115484870D01*
X142710053Y-115459953D01*
X142831128Y-115382143D01*
X142891920Y-115311985D01*
X142925375Y-115273376D01*
X142925379Y-115273369D01*
X142985163Y-115142462D01*
X142985163Y-115142460D01*
X142985165Y-115142457D01*
X143005647Y-115000000D01*
X142985165Y-114857543D01*
X142985163Y-114857540D01*
X142985163Y-114857537D01*
X142925379Y-114726630D01*
X142925375Y-114726623D01*
X142831128Y-114617857D01*
X142831127Y-114617856D01*
X142741024Y-114559951D01*
X142710053Y-114540047D01*
X142710050Y-114540046D01*
X142710048Y-114540045D01*
X142571962Y-114499500D01*
X142571961Y-114499500D01*
X142428039Y-114499500D01*
X142428038Y-114499500D01*
X142289951Y-114540045D01*
X142289945Y-114540048D01*
X142168872Y-114617856D01*
X142168871Y-114617857D01*
X142074624Y-114726623D01*
X142074620Y-114726630D01*
X142014836Y-114857537D01*
X142014835Y-114857541D01*
X141994353Y-115000000D01*
X137931983Y-115000000D01*
X137860223Y-114898338D01*
X137860222Y-114898337D01*
X137860218Y-114898331D01*
X137664082Y-114688321D01*
X137664080Y-114688320D01*
X137664078Y-114688317D01*
X137441176Y-114506974D01*
X137441171Y-114506970D01*
X137195651Y-114357666D01*
X137195650Y-114357665D01*
X136932085Y-114243184D01*
X136655384Y-114165657D01*
X136655378Y-114165656D01*
X136370714Y-114126529D01*
X136370707Y-114126529D01*
X136083351Y-114126529D01*
X136083343Y-114126529D01*
X135798679Y-114165656D01*
X135798673Y-114165657D01*
X135521972Y-114243184D01*
X135258407Y-114357665D01*
X135258406Y-114357666D01*
X135012886Y-114506970D01*
X135012881Y-114506974D01*
X134789979Y-114688317D01*
X134593844Y-114898326D01*
X134593834Y-114898338D01*
X134428127Y-115133093D01*
X134295929Y-115388222D01*
X134295924Y-115388233D01*
X134270436Y-115459951D01*
X134228650Y-115577527D01*
X134199695Y-115658998D01*
X134199692Y-115659006D01*
X134141231Y-115940341D01*
X134121621Y-116227027D01*
X126878379Y-116227027D01*
X126858769Y-115940343D01*
X126810931Y-115710133D01*
X126800307Y-115659006D01*
X126800306Y-115659005D01*
X126800305Y-115658997D01*
X126730841Y-115463545D01*
X126720497Y-115375593D01*
X126728624Y-115351996D01*
X126718086Y-115348667D01*
X126653576Y-115287988D01*
X126642067Y-115268562D01*
X126571872Y-115133093D01*
X126477925Y-115000000D01*
X126994353Y-115000000D01*
X127015731Y-115148689D01*
X127009479Y-115225116D01*
X127058378Y-115255510D01*
X127068746Y-115266591D01*
X127087287Y-115287988D01*
X127163196Y-115375593D01*
X127168873Y-115382144D01*
X127178348Y-115388233D01*
X127289947Y-115459953D01*
X127341423Y-115475067D01*
X127428038Y-115500500D01*
X127428039Y-115500500D01*
X127571962Y-115500500D01*
X127625189Y-115484870D01*
X127710053Y-115459953D01*
X127831128Y-115382143D01*
X127891920Y-115311985D01*
X127925375Y-115273376D01*
X127925379Y-115273369D01*
X127985163Y-115142462D01*
X127985163Y-115142460D01*
X127985165Y-115142457D01*
X128005647Y-115000000D01*
X131994353Y-115000000D01*
X132014835Y-115142458D01*
X132014836Y-115142462D01*
X132074620Y-115273369D01*
X132074624Y-115273376D01*
X132163196Y-115375593D01*
X132168872Y-115382143D01*
X132289947Y-115459953D01*
X132341423Y-115475067D01*
X132428038Y-115500500D01*
X132428039Y-115500500D01*
X132571962Y-115500500D01*
X132625189Y-115484870D01*
X132710053Y-115459953D01*
X132831128Y-115382143D01*
X132891920Y-115311985D01*
X132925375Y-115273376D01*
X132925379Y-115273369D01*
X132985163Y-115142462D01*
X132985163Y-115142460D01*
X132985165Y-115142457D01*
X133005647Y-115000000D01*
X132985165Y-114857543D01*
X132985163Y-114857540D01*
X132985163Y-114857537D01*
X132925379Y-114726630D01*
X132925375Y-114726623D01*
X132831128Y-114617857D01*
X132831127Y-114617856D01*
X132741024Y-114559951D01*
X132710053Y-114540047D01*
X132710050Y-114540046D01*
X132710048Y-114540045D01*
X132571962Y-114499500D01*
X132571961Y-114499500D01*
X132428039Y-114499500D01*
X132428038Y-114499500D01*
X132289951Y-114540045D01*
X132289945Y-114540048D01*
X132168872Y-114617856D01*
X132168871Y-114617857D01*
X132074624Y-114726623D01*
X132074620Y-114726630D01*
X132014836Y-114857537D01*
X132014835Y-114857541D01*
X131994353Y-115000000D01*
X128005647Y-115000000D01*
X127985165Y-114857543D01*
X127985163Y-114857540D01*
X127985163Y-114857537D01*
X127925379Y-114726630D01*
X127925375Y-114726623D01*
X127831128Y-114617857D01*
X127831127Y-114617856D01*
X127741024Y-114559951D01*
X127710053Y-114540047D01*
X127710050Y-114540046D01*
X127710048Y-114540045D01*
X127571962Y-114499500D01*
X127571961Y-114499500D01*
X127428039Y-114499500D01*
X127428038Y-114499500D01*
X127289951Y-114540045D01*
X127289945Y-114540048D01*
X127168872Y-114617856D01*
X127168871Y-114617857D01*
X127074624Y-114726623D01*
X127074620Y-114726630D01*
X127014836Y-114857537D01*
X127014835Y-114857541D01*
X126994353Y-115000000D01*
X126477925Y-115000000D01*
X126406165Y-114898338D01*
X126406164Y-114898337D01*
X126406160Y-114898331D01*
X126210024Y-114688321D01*
X126210022Y-114688320D01*
X126210020Y-114688317D01*
X125987118Y-114506974D01*
X125987113Y-114506970D01*
X125741593Y-114357666D01*
X125741592Y-114357665D01*
X125478027Y-114243184D01*
X125201326Y-114165657D01*
X125201320Y-114165656D01*
X124916656Y-114126529D01*
X124916649Y-114126529D01*
X124629293Y-114126529D01*
X124629285Y-114126529D01*
X124344621Y-114165656D01*
X124344615Y-114165657D01*
X124067914Y-114243184D01*
X123804349Y-114357665D01*
X123804348Y-114357666D01*
X123558828Y-114506970D01*
X123558823Y-114506974D01*
X123335921Y-114688317D01*
X123139786Y-114898326D01*
X123139776Y-114898338D01*
X122974069Y-115133093D01*
X122841871Y-115388222D01*
X122841866Y-115388233D01*
X122816378Y-115459951D01*
X122774592Y-115577527D01*
X122745637Y-115658998D01*
X122745634Y-115659006D01*
X122687173Y-115940341D01*
X122667563Y-116227027D01*
X104446227Y-116227027D01*
X104491008Y-116205477D01*
X104535235Y-116200500D01*
X104922472Y-116200500D01*
X104922475Y-116200500D01*
X105062485Y-116162984D01*
X105188015Y-116090509D01*
X105290509Y-115988015D01*
X105362984Y-115862485D01*
X105400500Y-115722475D01*
X105400500Y-115577525D01*
X105362984Y-115437515D01*
X105290509Y-115311985D01*
X105188015Y-115209491D01*
X105188014Y-115209490D01*
X105062485Y-115137016D01*
X104922477Y-115099500D01*
X104922475Y-115099500D01*
X104535656Y-115099500D01*
X104449313Y-115079793D01*
X104380072Y-115024574D01*
X104341645Y-114944782D01*
X104336656Y-114900444D01*
X104336705Y-114726623D01*
X104337059Y-113465000D01*
X107899353Y-113465000D01*
X107919835Y-113607458D01*
X107919836Y-113607462D01*
X107979620Y-113738369D01*
X107979624Y-113738376D01*
X108073871Y-113847142D01*
X108073872Y-113847143D01*
X108194947Y-113924953D01*
X108246423Y-113940067D01*
X108333038Y-113965500D01*
X108333039Y-113965500D01*
X108476962Y-113965500D01*
X108530189Y-113949870D01*
X108615053Y-113924953D01*
X108736128Y-113847143D01*
X108750982Y-113830000D01*
X145404353Y-113830000D01*
X145424835Y-113972458D01*
X145424836Y-113972462D01*
X145484620Y-114103369D01*
X145484624Y-114103376D01*
X145578871Y-114212142D01*
X145578872Y-114212143D01*
X145699947Y-114289953D01*
X145751423Y-114305067D01*
X145838038Y-114330500D01*
X145838039Y-114330500D01*
X145981962Y-114330500D01*
X146035189Y-114314870D01*
X146120053Y-114289953D01*
X146241128Y-114212143D01*
X146296834Y-114147854D01*
X146335375Y-114103376D01*
X146335379Y-114103369D01*
X146336918Y-114100000D01*
X152444353Y-114100000D01*
X152464835Y-114242458D01*
X152464836Y-114242462D01*
X152524620Y-114373369D01*
X152524624Y-114373376D01*
X152618871Y-114482142D01*
X152618872Y-114482143D01*
X152739947Y-114559953D01*
X152791423Y-114575067D01*
X152878038Y-114600500D01*
X152878039Y-114600500D01*
X153021962Y-114600500D01*
X153075189Y-114584870D01*
X153160053Y-114559953D01*
X153281128Y-114482143D01*
X153336834Y-114417854D01*
X153375375Y-114373376D01*
X153375379Y-114373369D01*
X153435163Y-114242462D01*
X153435163Y-114242460D01*
X153435165Y-114242457D01*
X153455647Y-114100000D01*
X153435165Y-113957543D01*
X153435163Y-113957540D01*
X153435163Y-113957537D01*
X153375379Y-113826630D01*
X153375375Y-113826623D01*
X153281128Y-113717857D01*
X153281127Y-113717856D01*
X153220590Y-113678952D01*
X153160053Y-113640047D01*
X153160050Y-113640046D01*
X153160048Y-113640045D01*
X153021962Y-113599500D01*
X153021961Y-113599500D01*
X152878039Y-113599500D01*
X152878038Y-113599500D01*
X152739951Y-113640045D01*
X152739945Y-113640048D01*
X152618872Y-113717856D01*
X152618871Y-113717857D01*
X152524624Y-113826623D01*
X152524620Y-113826630D01*
X152464836Y-113957537D01*
X152464835Y-113957541D01*
X152444353Y-114100000D01*
X146336918Y-114100000D01*
X146395163Y-113972462D01*
X146395163Y-113972460D01*
X146395165Y-113972457D01*
X146415647Y-113830000D01*
X146395165Y-113687543D01*
X146395163Y-113687540D01*
X146395163Y-113687537D01*
X146335379Y-113556630D01*
X146335375Y-113556623D01*
X146241128Y-113447857D01*
X146241127Y-113447856D01*
X146180590Y-113408952D01*
X146120053Y-113370047D01*
X146120050Y-113370046D01*
X146120048Y-113370045D01*
X145981962Y-113329500D01*
X145981961Y-113329500D01*
X145838039Y-113329500D01*
X145838038Y-113329500D01*
X145699951Y-113370045D01*
X145699945Y-113370048D01*
X145578872Y-113447856D01*
X145578871Y-113447857D01*
X145484624Y-113556623D01*
X145484620Y-113556630D01*
X145424836Y-113687537D01*
X145424835Y-113687541D01*
X145404353Y-113830000D01*
X108750982Y-113830000D01*
X108791834Y-113782854D01*
X108830375Y-113738376D01*
X108830379Y-113738369D01*
X108890163Y-113607462D01*
X108890163Y-113607460D01*
X108890165Y-113607457D01*
X108910647Y-113465000D01*
X108890165Y-113322543D01*
X108890163Y-113322540D01*
X108890163Y-113322537D01*
X108830379Y-113191630D01*
X108830375Y-113191623D01*
X108736128Y-113082857D01*
X108736127Y-113082856D01*
X108675590Y-113043952D01*
X108615053Y-113005047D01*
X108615050Y-113005046D01*
X108615048Y-113005045D01*
X108476962Y-112964500D01*
X108476961Y-112964500D01*
X108333039Y-112964500D01*
X108333038Y-112964500D01*
X108194951Y-113005045D01*
X108194945Y-113005048D01*
X108073872Y-113082856D01*
X108073871Y-113082857D01*
X107979624Y-113191623D01*
X107979620Y-113191630D01*
X107919836Y-113322537D01*
X107919835Y-113322541D01*
X107899353Y-113465000D01*
X104337059Y-113465000D01*
X104337240Y-112820000D01*
X109899353Y-112820000D01*
X109919835Y-112962458D01*
X109919836Y-112962462D01*
X109979620Y-113093369D01*
X109979624Y-113093376D01*
X110073871Y-113202142D01*
X110073872Y-113202143D01*
X110194947Y-113279953D01*
X110246423Y-113295067D01*
X110333038Y-113320500D01*
X110333039Y-113320500D01*
X110476962Y-113320500D01*
X110530189Y-113304870D01*
X110615053Y-113279953D01*
X110736128Y-113202143D01*
X110791834Y-113137854D01*
X110830375Y-113093376D01*
X110830379Y-113093369D01*
X110890163Y-112962462D01*
X110890163Y-112962460D01*
X110890165Y-112962457D01*
X110910647Y-112820000D01*
X110890165Y-112677543D01*
X110890163Y-112677540D01*
X110890163Y-112677537D01*
X110830379Y-112546630D01*
X110830375Y-112546623D01*
X110736128Y-112437857D01*
X110736127Y-112437856D01*
X110666903Y-112393369D01*
X110615053Y-112360047D01*
X110615050Y-112360046D01*
X110615048Y-112360045D01*
X110476962Y-112319500D01*
X110476961Y-112319500D01*
X110333039Y-112319500D01*
X110333038Y-112319500D01*
X110194951Y-112360045D01*
X110194945Y-112360048D01*
X110073872Y-112437856D01*
X110073871Y-112437857D01*
X109979624Y-112546623D01*
X109979620Y-112546630D01*
X109919836Y-112677537D01*
X109919835Y-112677541D01*
X109899353Y-112820000D01*
X104337240Y-112820000D01*
X104337537Y-111759996D01*
X108834750Y-111759996D01*
X108834750Y-111760003D01*
X108853669Y-111903709D01*
X108853670Y-111903711D01*
X108909137Y-112037622D01*
X108909139Y-112037626D01*
X108997377Y-112152620D01*
X108997379Y-112152622D01*
X109112373Y-112240860D01*
X109112377Y-112240862D01*
X109246288Y-112296329D01*
X109246290Y-112296330D01*
X109389997Y-112315250D01*
X109390000Y-112315250D01*
X109390003Y-112315250D01*
X109533709Y-112296330D01*
X109533711Y-112296329D01*
X109667625Y-112240861D01*
X109782621Y-112152621D01*
X109870861Y-112037625D01*
X109926330Y-111903709D01*
X109945250Y-111760000D01*
X109945250Y-111759996D01*
X109926330Y-111616290D01*
X109926329Y-111616288D01*
X109870862Y-111482377D01*
X109870860Y-111482373D01*
X109782622Y-111367379D01*
X109782620Y-111367377D01*
X109667626Y-111279139D01*
X109667622Y-111279137D01*
X109533711Y-111223670D01*
X109533709Y-111223669D01*
X109390003Y-111204750D01*
X109389997Y-111204750D01*
X109246290Y-111223669D01*
X109246288Y-111223670D01*
X109112377Y-111279137D01*
X109112373Y-111279139D01*
X108997379Y-111367377D01*
X108997377Y-111367379D01*
X108909139Y-111482373D01*
X108909137Y-111482377D01*
X108853670Y-111616288D01*
X108853669Y-111616290D01*
X108834750Y-111759996D01*
X104337537Y-111759996D01*
X104337705Y-111159441D01*
X104357436Y-111073107D01*
X104412674Y-111003881D01*
X104492478Y-110965477D01*
X104536705Y-110960500D01*
X105379750Y-110960500D01*
X105399155Y-110956639D01*
X105438231Y-110948867D01*
X105444018Y-110945000D01*
X107099353Y-110945000D01*
X107119835Y-111087458D01*
X107119836Y-111087462D01*
X107179620Y-111218369D01*
X107179624Y-111218376D01*
X107252212Y-111302146D01*
X107273872Y-111327143D01*
X107394947Y-111404953D01*
X107432059Y-111415850D01*
X107533038Y-111445500D01*
X107533039Y-111445500D01*
X107676962Y-111445500D01*
X107762104Y-111420500D01*
X107815053Y-111404953D01*
X107936128Y-111327143D01*
X107991834Y-111262854D01*
X108030375Y-111218376D01*
X108030379Y-111218369D01*
X108090163Y-111087462D01*
X108090163Y-111087460D01*
X108090165Y-111087457D01*
X108110647Y-110945000D01*
X108107053Y-110920000D01*
X112099353Y-110920000D01*
X112119835Y-111062458D01*
X112119836Y-111062462D01*
X112179620Y-111193369D01*
X112179624Y-111193376D01*
X112253937Y-111279137D01*
X112273872Y-111302143D01*
X112312773Y-111327143D01*
X112352369Y-111352590D01*
X112414351Y-111415850D01*
X112442748Y-111499737D01*
X112431935Y-111587638D01*
X112384054Y-111662142D01*
X112352369Y-111687410D01*
X112273873Y-111737856D01*
X112273871Y-111737857D01*
X112179624Y-111846623D01*
X112179620Y-111846630D01*
X112119836Y-111977537D01*
X112119835Y-111977541D01*
X112099353Y-112120000D01*
X112119835Y-112262458D01*
X112119836Y-112262462D01*
X112179620Y-112393369D01*
X112179624Y-112393376D01*
X112270563Y-112498324D01*
X112273872Y-112502143D01*
X112394947Y-112579953D01*
X112437532Y-112592457D01*
X112533038Y-112620500D01*
X112533039Y-112620500D01*
X112676962Y-112620500D01*
X112730189Y-112604870D01*
X112815053Y-112579953D01*
X112936128Y-112502143D01*
X112981310Y-112450000D01*
X149764353Y-112450000D01*
X149784835Y-112592458D01*
X149784836Y-112592462D01*
X149844620Y-112723369D01*
X149844624Y-112723376D01*
X149928350Y-112820000D01*
X149938872Y-112832143D01*
X150059947Y-112909953D01*
X150111423Y-112925067D01*
X150198038Y-112950500D01*
X150198039Y-112950500D01*
X150341962Y-112950500D01*
X150395189Y-112934870D01*
X150480053Y-112909953D01*
X150601128Y-112832143D01*
X150656834Y-112767854D01*
X150695375Y-112723376D01*
X150695379Y-112723369D01*
X150755163Y-112592462D01*
X150755163Y-112592460D01*
X150755165Y-112592457D01*
X150768699Y-112498324D01*
X156155268Y-112498324D01*
X156175750Y-112640782D01*
X156175751Y-112640786D01*
X156235535Y-112771693D01*
X156235539Y-112771700D01*
X156329786Y-112880466D01*
X156329787Y-112880467D01*
X156450862Y-112958277D01*
X156465115Y-112962462D01*
X156588953Y-112998824D01*
X156588954Y-112998824D01*
X156732877Y-112998824D01*
X156786104Y-112983194D01*
X156870968Y-112958277D01*
X156992043Y-112880467D01*
X157047749Y-112816178D01*
X157086290Y-112771700D01*
X157086294Y-112771693D01*
X157146078Y-112640786D01*
X157146078Y-112640784D01*
X157146080Y-112640781D01*
X157166562Y-112498324D01*
X157146080Y-112355867D01*
X157146078Y-112355864D01*
X157146078Y-112355861D01*
X157086294Y-112224954D01*
X157086290Y-112224947D01*
X156992043Y-112116181D01*
X156992042Y-112116180D01*
X156982426Y-112110000D01*
X159274417Y-112110000D01*
X159294699Y-112315933D01*
X159354768Y-112513955D01*
X159452313Y-112696448D01*
X159452315Y-112696450D01*
X159583590Y-112856410D01*
X159698240Y-112950500D01*
X159743551Y-112987686D01*
X159921601Y-113082856D01*
X159926046Y-113085232D01*
X160124066Y-113145300D01*
X160330000Y-113165583D01*
X160535934Y-113145300D01*
X160733954Y-113085232D01*
X160916450Y-112987685D01*
X161076410Y-112856410D01*
X161207685Y-112696450D01*
X161305232Y-112513954D01*
X161365300Y-112315934D01*
X161385583Y-112110000D01*
X161365300Y-111904066D01*
X161305232Y-111706046D01*
X161207685Y-111523550D01*
X161076410Y-111363590D01*
X160916450Y-111232315D01*
X160916451Y-111232315D01*
X160916448Y-111232313D01*
X160733955Y-111134768D01*
X160535933Y-111074699D01*
X160330000Y-111054417D01*
X160124066Y-111074699D01*
X159926044Y-111134768D01*
X159743551Y-111232313D01*
X159583590Y-111363590D01*
X159452313Y-111523551D01*
X159354768Y-111706044D01*
X159294699Y-111904066D01*
X159274417Y-112110000D01*
X156982426Y-112110000D01*
X156916848Y-112067856D01*
X156870968Y-112038371D01*
X156870965Y-112038370D01*
X156870963Y-112038369D01*
X156732877Y-111997824D01*
X156732876Y-111997824D01*
X156588954Y-111997824D01*
X156588953Y-111997824D01*
X156450866Y-112038369D01*
X156450860Y-112038372D01*
X156329787Y-112116180D01*
X156329786Y-112116181D01*
X156235539Y-112224947D01*
X156235535Y-112224954D01*
X156175751Y-112355861D01*
X156175750Y-112355865D01*
X156155268Y-112498324D01*
X150768699Y-112498324D01*
X150775647Y-112450000D01*
X150755165Y-112307543D01*
X150755163Y-112307540D01*
X150755163Y-112307537D01*
X150695379Y-112176630D01*
X150695375Y-112176623D01*
X150601128Y-112067857D01*
X150601127Y-112067856D01*
X150492154Y-111997824D01*
X150480053Y-111990047D01*
X150480050Y-111990046D01*
X150480048Y-111990045D01*
X150341962Y-111949500D01*
X150341961Y-111949500D01*
X150198039Y-111949500D01*
X150198038Y-111949500D01*
X150059951Y-111990045D01*
X150059945Y-111990048D01*
X149938872Y-112067856D01*
X149938871Y-112067857D01*
X149844624Y-112176623D01*
X149844620Y-112176630D01*
X149784836Y-112307537D01*
X149784835Y-112307541D01*
X149764353Y-112450000D01*
X112981310Y-112450000D01*
X112991834Y-112437854D01*
X113030375Y-112393376D01*
X113030379Y-112393369D01*
X113090163Y-112262462D01*
X113090163Y-112262460D01*
X113090165Y-112262457D01*
X113110647Y-112120000D01*
X113090165Y-111977543D01*
X113090163Y-111977540D01*
X113090163Y-111977537D01*
X113030379Y-111846630D01*
X113030375Y-111846623D01*
X112936128Y-111737857D01*
X112936124Y-111737853D01*
X112857631Y-111687410D01*
X112795648Y-111624151D01*
X112767251Y-111540264D01*
X112778064Y-111452363D01*
X112825944Y-111377859D01*
X112857631Y-111352590D01*
X112936124Y-111302146D01*
X112936125Y-111302144D01*
X112936128Y-111302143D01*
X113020519Y-111204750D01*
X113030375Y-111193376D01*
X113030379Y-111193369D01*
X113090163Y-111062462D01*
X113090163Y-111062460D01*
X113090165Y-111062457D01*
X113110647Y-110920000D01*
X113090165Y-110777543D01*
X113090163Y-110777540D01*
X113090163Y-110777537D01*
X113030379Y-110646630D01*
X113030375Y-110646623D01*
X112936128Y-110537857D01*
X112936127Y-110537856D01*
X112853951Y-110485045D01*
X112815053Y-110460047D01*
X112815050Y-110460046D01*
X112815048Y-110460045D01*
X112676962Y-110419500D01*
X112676961Y-110419500D01*
X112533039Y-110419500D01*
X112533038Y-110419500D01*
X112394951Y-110460045D01*
X112394945Y-110460048D01*
X112273872Y-110537856D01*
X112273871Y-110537857D01*
X112179624Y-110646623D01*
X112179620Y-110646630D01*
X112119836Y-110777537D01*
X112119835Y-110777541D01*
X112099353Y-110920000D01*
X108107053Y-110920000D01*
X108090165Y-110802543D01*
X108090163Y-110802540D01*
X108090163Y-110802537D01*
X108030379Y-110671630D01*
X108030375Y-110671623D01*
X107936128Y-110562857D01*
X107936127Y-110562856D01*
X107842982Y-110502996D01*
X107815053Y-110485047D01*
X107815050Y-110485046D01*
X107815048Y-110485045D01*
X107676962Y-110444500D01*
X107676961Y-110444500D01*
X107533039Y-110444500D01*
X107533038Y-110444500D01*
X107394951Y-110485045D01*
X107394945Y-110485048D01*
X107273872Y-110562856D01*
X107273871Y-110562857D01*
X107179624Y-110671623D01*
X107179620Y-110671630D01*
X107119836Y-110802537D01*
X107119835Y-110802541D01*
X107099353Y-110945000D01*
X105444018Y-110945000D01*
X105504552Y-110904552D01*
X105548867Y-110838231D01*
X105560500Y-110779748D01*
X105560500Y-110229620D01*
X109739733Y-110229620D01*
X109760215Y-110372078D01*
X109760216Y-110372082D01*
X109820000Y-110502989D01*
X109820004Y-110502996D01*
X109908652Y-110605300D01*
X109914252Y-110611763D01*
X110035327Y-110689573D01*
X110086803Y-110704687D01*
X110173418Y-110730120D01*
X110173419Y-110730120D01*
X110317342Y-110730120D01*
X110370569Y-110714490D01*
X110455433Y-110689573D01*
X110576508Y-110611763D01*
X110634158Y-110545231D01*
X110670755Y-110502996D01*
X110670759Y-110502989D01*
X110730543Y-110372082D01*
X110730543Y-110372080D01*
X110730545Y-110372077D01*
X110748097Y-110249999D01*
X127194540Y-110249999D01*
X127194540Y-110250000D01*
X127214325Y-110438255D01*
X127272822Y-110618287D01*
X127367463Y-110782211D01*
X127367466Y-110782215D01*
X127494128Y-110922887D01*
X127494134Y-110922892D01*
X127647263Y-111034147D01*
X127647270Y-111034151D01*
X127820192Y-111111142D01*
X127820194Y-111111142D01*
X127820197Y-111111144D01*
X127820199Y-111111144D01*
X127820204Y-111111146D01*
X128005349Y-111150499D01*
X128005352Y-111150500D01*
X128005354Y-111150500D01*
X128194648Y-111150500D01*
X128194649Y-111150499D01*
X128268660Y-111134768D01*
X128379795Y-111111146D01*
X128379797Y-111111145D01*
X128379803Y-111111144D01*
X128552730Y-111034151D01*
X128601975Y-110998373D01*
X128705865Y-110922892D01*
X128705871Y-110922888D01*
X128832533Y-110782216D01*
X128835235Y-110777537D01*
X128886020Y-110689573D01*
X128927179Y-110618284D01*
X128985674Y-110438256D01*
X129005460Y-110250000D01*
X129005460Y-110249999D01*
X129734540Y-110249999D01*
X129734540Y-110250000D01*
X129754325Y-110438255D01*
X129812822Y-110618287D01*
X129907463Y-110782211D01*
X129907466Y-110782215D01*
X130034128Y-110922887D01*
X130034134Y-110922892D01*
X130187263Y-111034147D01*
X130187270Y-111034151D01*
X130360192Y-111111142D01*
X130360194Y-111111142D01*
X130360197Y-111111144D01*
X130360199Y-111111144D01*
X130360204Y-111111146D01*
X130545349Y-111150499D01*
X130545352Y-111150500D01*
X130545354Y-111150500D01*
X130734648Y-111150500D01*
X130734649Y-111150499D01*
X130808660Y-111134768D01*
X130919795Y-111111146D01*
X130919797Y-111111145D01*
X130919803Y-111111144D01*
X131092730Y-111034151D01*
X131141975Y-110998373D01*
X131245865Y-110922892D01*
X131245871Y-110922888D01*
X131372533Y-110782216D01*
X131375235Y-110777537D01*
X131426020Y-110689573D01*
X131467179Y-110618284D01*
X131525674Y-110438256D01*
X131545460Y-110250000D01*
X131545460Y-110249999D01*
X133594540Y-110249999D01*
X133594540Y-110250000D01*
X133614325Y-110438255D01*
X133672822Y-110618287D01*
X133767463Y-110782211D01*
X133767466Y-110782215D01*
X133894128Y-110922887D01*
X133894134Y-110922892D01*
X134047263Y-111034147D01*
X134047270Y-111034151D01*
X134220192Y-111111142D01*
X134220194Y-111111142D01*
X134220197Y-111111144D01*
X134220199Y-111111144D01*
X134220204Y-111111146D01*
X134405349Y-111150499D01*
X134405352Y-111150500D01*
X134405354Y-111150500D01*
X134594648Y-111150500D01*
X134594649Y-111150499D01*
X134668660Y-111134768D01*
X134779795Y-111111146D01*
X134779797Y-111111145D01*
X134779803Y-111111144D01*
X134952730Y-111034151D01*
X135001975Y-110998373D01*
X135105865Y-110922892D01*
X135105871Y-110922888D01*
X135232533Y-110782216D01*
X135235235Y-110777537D01*
X135286020Y-110689573D01*
X135327179Y-110618284D01*
X135385674Y-110438256D01*
X135405460Y-110250000D01*
X135405460Y-110249999D01*
X136134540Y-110249999D01*
X136134540Y-110250000D01*
X136154325Y-110438255D01*
X136212822Y-110618287D01*
X136307463Y-110782211D01*
X136307466Y-110782215D01*
X136434128Y-110922887D01*
X136434134Y-110922892D01*
X136587263Y-111034147D01*
X136587270Y-111034151D01*
X136760192Y-111111142D01*
X136760194Y-111111142D01*
X136760197Y-111111144D01*
X136760199Y-111111144D01*
X136760204Y-111111146D01*
X136945349Y-111150499D01*
X136945352Y-111150500D01*
X136945354Y-111150500D01*
X137134648Y-111150500D01*
X137134649Y-111150499D01*
X137208660Y-111134768D01*
X137319795Y-111111146D01*
X137319797Y-111111145D01*
X137319803Y-111111144D01*
X137492730Y-111034151D01*
X137541975Y-110998373D01*
X137645865Y-110922892D01*
X137645871Y-110922888D01*
X137772533Y-110782216D01*
X137775235Y-110777537D01*
X137805567Y-110725000D01*
X155159353Y-110725000D01*
X155179835Y-110867458D01*
X155179836Y-110867462D01*
X155239620Y-110998369D01*
X155239624Y-110998376D01*
X155305759Y-111074699D01*
X155333872Y-111107143D01*
X155454947Y-111184953D01*
X155506423Y-111200067D01*
X155593038Y-111225500D01*
X155593039Y-111225500D01*
X155736962Y-111225500D01*
X155807630Y-111204750D01*
X155875053Y-111184953D01*
X155996128Y-111107143D01*
X156051834Y-111042854D01*
X156090375Y-110998376D01*
X156090379Y-110998369D01*
X156150163Y-110867462D01*
X156150163Y-110867460D01*
X156150165Y-110867457D01*
X156170647Y-110725000D01*
X156150165Y-110582543D01*
X156150163Y-110582540D01*
X156150163Y-110582537D01*
X156090379Y-110451630D01*
X156090375Y-110451623D01*
X155996128Y-110342857D01*
X155996127Y-110342856D01*
X155935590Y-110303952D01*
X155875053Y-110265047D01*
X155875050Y-110265046D01*
X155875048Y-110265045D01*
X155736962Y-110224500D01*
X155736961Y-110224500D01*
X155593039Y-110224500D01*
X155593038Y-110224500D01*
X155454951Y-110265045D01*
X155454945Y-110265048D01*
X155333872Y-110342856D01*
X155333871Y-110342857D01*
X155239624Y-110451623D01*
X155239620Y-110451630D01*
X155179836Y-110582537D01*
X155179835Y-110582541D01*
X155159353Y-110725000D01*
X137805567Y-110725000D01*
X137826020Y-110689573D01*
X137867179Y-110618284D01*
X137925674Y-110438256D01*
X137945460Y-110250000D01*
X137925674Y-110061744D01*
X137867179Y-109881716D01*
X137861652Y-109872143D01*
X137772536Y-109717788D01*
X137772533Y-109717784D01*
X137645871Y-109577112D01*
X137645865Y-109577107D01*
X137525973Y-109490000D01*
X153044353Y-109490000D01*
X153064835Y-109632458D01*
X153064836Y-109632462D01*
X153124620Y-109763369D01*
X153124624Y-109763376D01*
X153218871Y-109872142D01*
X153218872Y-109872143D01*
X153339947Y-109949953D01*
X153361369Y-109956243D01*
X153478038Y-109990500D01*
X153478039Y-109990500D01*
X153621962Y-109990500D01*
X153678312Y-109973954D01*
X153760053Y-109949953D01*
X153881128Y-109872143D01*
X153964494Y-109775933D01*
X153975375Y-109763376D01*
X153975379Y-109763369D01*
X154035163Y-109632462D01*
X154035163Y-109632460D01*
X154035165Y-109632457D01*
X154055647Y-109490000D01*
X154035165Y-109347543D01*
X154035163Y-109347540D01*
X154035163Y-109347537D01*
X153975379Y-109216630D01*
X153975375Y-109216623D01*
X153881128Y-109107857D01*
X153881127Y-109107856D01*
X153822222Y-109070000D01*
X154874353Y-109070000D01*
X154894835Y-109212458D01*
X154894836Y-109212462D01*
X154954620Y-109343369D01*
X154954624Y-109343376D01*
X155048871Y-109452142D01*
X155048872Y-109452143D01*
X155169947Y-109529953D01*
X155221423Y-109545067D01*
X155308038Y-109570500D01*
X155308039Y-109570500D01*
X155451962Y-109570500D01*
X155453665Y-109570000D01*
X159274417Y-109570000D01*
X159294699Y-109775933D01*
X159354768Y-109973955D01*
X159452313Y-110156448D01*
X159452315Y-110156450D01*
X159583590Y-110316410D01*
X159709206Y-110419500D01*
X159743551Y-110447686D01*
X159912248Y-110537857D01*
X159926046Y-110545232D01*
X160124066Y-110605300D01*
X160330000Y-110625583D01*
X160535934Y-110605300D01*
X160733954Y-110545232D01*
X160916450Y-110447685D01*
X161076410Y-110316410D01*
X161207685Y-110156450D01*
X161305232Y-109973954D01*
X161365300Y-109775934D01*
X161385583Y-109570000D01*
X161365300Y-109364066D01*
X161305232Y-109166046D01*
X161253894Y-109070000D01*
X161207686Y-108983551D01*
X161173658Y-108942088D01*
X161076410Y-108823590D01*
X160928913Y-108702543D01*
X160916448Y-108692313D01*
X160733955Y-108594768D01*
X160535933Y-108534699D01*
X160330000Y-108514417D01*
X160124066Y-108534699D01*
X159926044Y-108594768D01*
X159743551Y-108692313D01*
X159583590Y-108823590D01*
X159452313Y-108983551D01*
X159354768Y-109166044D01*
X159294699Y-109364066D01*
X159274417Y-109570000D01*
X155453665Y-109570000D01*
X155505189Y-109554870D01*
X155590053Y-109529953D01*
X155711128Y-109452143D01*
X155801764Y-109347543D01*
X155805375Y-109343376D01*
X155805379Y-109343369D01*
X155865163Y-109212462D01*
X155865163Y-109212460D01*
X155865165Y-109212457D01*
X155885647Y-109070000D01*
X155865165Y-108927543D01*
X155865163Y-108927540D01*
X155865163Y-108927537D01*
X155805379Y-108796630D01*
X155805375Y-108796623D01*
X155711128Y-108687857D01*
X155711127Y-108687856D01*
X155650590Y-108648952D01*
X155590053Y-108610047D01*
X155590050Y-108610046D01*
X155590048Y-108610045D01*
X155451962Y-108569500D01*
X155451961Y-108569500D01*
X155308039Y-108569500D01*
X155308038Y-108569500D01*
X155169951Y-108610045D01*
X155169945Y-108610048D01*
X155048872Y-108687856D01*
X155048871Y-108687857D01*
X154954624Y-108796623D01*
X154954620Y-108796630D01*
X154894836Y-108927537D01*
X154894835Y-108927541D01*
X154874353Y-109070000D01*
X153822222Y-109070000D01*
X153801632Y-109056768D01*
X153760053Y-109030047D01*
X153760050Y-109030046D01*
X153760048Y-109030045D01*
X153621962Y-108989500D01*
X153621961Y-108989500D01*
X153478039Y-108989500D01*
X153478038Y-108989500D01*
X153339951Y-109030045D01*
X153339945Y-109030048D01*
X153218872Y-109107856D01*
X153218871Y-109107857D01*
X153124624Y-109216623D01*
X153124620Y-109216630D01*
X153064836Y-109347537D01*
X153064835Y-109347541D01*
X153044353Y-109490000D01*
X137525973Y-109490000D01*
X137492736Y-109465852D01*
X137492729Y-109465848D01*
X137319807Y-109388857D01*
X137319795Y-109388853D01*
X137134650Y-109349500D01*
X137134646Y-109349500D01*
X136945354Y-109349500D01*
X136945349Y-109349500D01*
X136760204Y-109388853D01*
X136760192Y-109388857D01*
X136587270Y-109465848D01*
X136587263Y-109465852D01*
X136434134Y-109577107D01*
X136434128Y-109577112D01*
X136307466Y-109717784D01*
X136307463Y-109717788D01*
X136212822Y-109881712D01*
X136154325Y-110061744D01*
X136134540Y-110249999D01*
X135405460Y-110249999D01*
X135385674Y-110061744D01*
X135327179Y-109881716D01*
X135321652Y-109872143D01*
X135232536Y-109717788D01*
X135232533Y-109717784D01*
X135105871Y-109577112D01*
X135105865Y-109577107D01*
X134952736Y-109465852D01*
X134952729Y-109465848D01*
X134779807Y-109388857D01*
X134779795Y-109388853D01*
X134594650Y-109349500D01*
X134594646Y-109349500D01*
X134405354Y-109349500D01*
X134405349Y-109349500D01*
X134220204Y-109388853D01*
X134220192Y-109388857D01*
X134047270Y-109465848D01*
X134047263Y-109465852D01*
X133894134Y-109577107D01*
X133894128Y-109577112D01*
X133767466Y-109717784D01*
X133767463Y-109717788D01*
X133672822Y-109881712D01*
X133614325Y-110061744D01*
X133594540Y-110249999D01*
X131545460Y-110249999D01*
X131525674Y-110061744D01*
X131467179Y-109881716D01*
X131461652Y-109872143D01*
X131372536Y-109717788D01*
X131372533Y-109717784D01*
X131245871Y-109577112D01*
X131245865Y-109577107D01*
X131092736Y-109465852D01*
X131092729Y-109465848D01*
X130919807Y-109388857D01*
X130919795Y-109388853D01*
X130734650Y-109349500D01*
X130734646Y-109349500D01*
X130545354Y-109349500D01*
X130545349Y-109349500D01*
X130360204Y-109388853D01*
X130360192Y-109388857D01*
X130187270Y-109465848D01*
X130187263Y-109465852D01*
X130034134Y-109577107D01*
X130034128Y-109577112D01*
X129907466Y-109717784D01*
X129907463Y-109717788D01*
X129812822Y-109881712D01*
X129754325Y-110061744D01*
X129734540Y-110249999D01*
X129005460Y-110249999D01*
X128985674Y-110061744D01*
X128927179Y-109881716D01*
X128921652Y-109872143D01*
X128832536Y-109717788D01*
X128832533Y-109717784D01*
X128705871Y-109577112D01*
X128705865Y-109577107D01*
X128552736Y-109465852D01*
X128552729Y-109465848D01*
X128379807Y-109388857D01*
X128379795Y-109388853D01*
X128194650Y-109349500D01*
X128194646Y-109349500D01*
X128005354Y-109349500D01*
X128005349Y-109349500D01*
X127820204Y-109388853D01*
X127820192Y-109388857D01*
X127647270Y-109465848D01*
X127647263Y-109465852D01*
X127494134Y-109577107D01*
X127494128Y-109577112D01*
X127367466Y-109717784D01*
X127367463Y-109717788D01*
X127272822Y-109881712D01*
X127214325Y-110061744D01*
X127194540Y-110249999D01*
X110748097Y-110249999D01*
X110751027Y-110229620D01*
X110730545Y-110087163D01*
X110730543Y-110087160D01*
X110730543Y-110087157D01*
X110670759Y-109956250D01*
X110670755Y-109956243D01*
X110576508Y-109847477D01*
X110576507Y-109847476D01*
X110515970Y-109808572D01*
X110455433Y-109769667D01*
X110455430Y-109769666D01*
X110455428Y-109769665D01*
X110317342Y-109729120D01*
X110317341Y-109729120D01*
X110173419Y-109729120D01*
X110173418Y-109729120D01*
X110035331Y-109769665D01*
X110035325Y-109769668D01*
X109914252Y-109847476D01*
X109914251Y-109847477D01*
X109820004Y-109956243D01*
X109820000Y-109956250D01*
X109760216Y-110087157D01*
X109760215Y-110087161D01*
X109739733Y-110229620D01*
X105560500Y-110229620D01*
X105560500Y-109740252D01*
X105548867Y-109681769D01*
X105515918Y-109632457D01*
X105504551Y-109615446D01*
X105490694Y-109601589D01*
X105493719Y-109598563D01*
X105457630Y-109560381D01*
X105430746Y-109475996D01*
X105443137Y-109388304D01*
X105465271Y-109346249D01*
X105476141Y-109330500D01*
X105484818Y-109317930D01*
X105545140Y-109158872D01*
X105565645Y-108990000D01*
X105548039Y-108845000D01*
X111149353Y-108845000D01*
X111169835Y-108987458D01*
X111169836Y-108987462D01*
X111229620Y-109118369D01*
X111229624Y-109118376D01*
X111323871Y-109227142D01*
X111323872Y-109227143D01*
X111444947Y-109304953D01*
X111489133Y-109317927D01*
X111583038Y-109345500D01*
X111583039Y-109345500D01*
X111726962Y-109345500D01*
X111780189Y-109329870D01*
X111865053Y-109304953D01*
X111986128Y-109227143D01*
X112045285Y-109158872D01*
X112080375Y-109118376D01*
X112080379Y-109118369D01*
X112140163Y-108987462D01*
X112140163Y-108987460D01*
X112140165Y-108987457D01*
X112160647Y-108845000D01*
X112140165Y-108702543D01*
X112140163Y-108702540D01*
X112140163Y-108702537D01*
X112080379Y-108571630D01*
X112080375Y-108571623D01*
X111986128Y-108462857D01*
X111986127Y-108462856D01*
X111902743Y-108409269D01*
X111865053Y-108385047D01*
X111865050Y-108385046D01*
X111865048Y-108385045D01*
X111726962Y-108344500D01*
X111726961Y-108344500D01*
X111583039Y-108344500D01*
X111583038Y-108344500D01*
X111444951Y-108385045D01*
X111444945Y-108385048D01*
X111323872Y-108462856D01*
X111323871Y-108462857D01*
X111229624Y-108571623D01*
X111229620Y-108571630D01*
X111169836Y-108702537D01*
X111169835Y-108702541D01*
X111149353Y-108845000D01*
X105548039Y-108845000D01*
X105545140Y-108821128D01*
X105545139Y-108821125D01*
X105545139Y-108821124D01*
X105484819Y-108662072D01*
X105484816Y-108662067D01*
X105456792Y-108621468D01*
X105388183Y-108522071D01*
X105379543Y-108514417D01*
X105260855Y-108409269D01*
X105260856Y-108409269D01*
X105260852Y-108409266D01*
X105214703Y-108385045D01*
X105110228Y-108330210D01*
X105011123Y-108305784D01*
X104945056Y-108289500D01*
X104774944Y-108289500D01*
X104667627Y-108315951D01*
X104609766Y-108330212D01*
X104608114Y-108330839D01*
X104606073Y-108331122D01*
X104598087Y-108333091D01*
X104597882Y-108332260D01*
X104520394Y-108343029D01*
X104436071Y-108315951D01*
X104371848Y-108254968D01*
X104340445Y-108172160D01*
X104338551Y-108144714D01*
X104338573Y-108068866D01*
X104338706Y-107595000D01*
X108274353Y-107595000D01*
X108294835Y-107737458D01*
X108294836Y-107737462D01*
X108354620Y-107868369D01*
X108354624Y-107868376D01*
X108448871Y-107977142D01*
X108448872Y-107977143D01*
X108569947Y-108054953D01*
X108617331Y-108068866D01*
X108708038Y-108095500D01*
X108708039Y-108095500D01*
X108851962Y-108095500D01*
X108905189Y-108079870D01*
X108990053Y-108054953D01*
X109111128Y-107977143D01*
X109178191Y-107899748D01*
X109205375Y-107868376D01*
X109205379Y-107868369D01*
X109265163Y-107737462D01*
X109265163Y-107737460D01*
X109265165Y-107737457D01*
X109285647Y-107595000D01*
X109874353Y-107595000D01*
X109894835Y-107737458D01*
X109894836Y-107737462D01*
X109954620Y-107868369D01*
X109954624Y-107868376D01*
X110048871Y-107977142D01*
X110048872Y-107977143D01*
X110169947Y-108054953D01*
X110217331Y-108068866D01*
X110308038Y-108095500D01*
X110308039Y-108095500D01*
X110451962Y-108095500D01*
X110505189Y-108079870D01*
X110590053Y-108054953D01*
X110711128Y-107977143D01*
X110778191Y-107899748D01*
X110805375Y-107868376D01*
X110805379Y-107868369D01*
X110865163Y-107737462D01*
X110865163Y-107737460D01*
X110865165Y-107737457D01*
X110885647Y-107595000D01*
X110865165Y-107452543D01*
X110865163Y-107452540D01*
X110865163Y-107452537D01*
X110805379Y-107321630D01*
X110805375Y-107321623D01*
X110711128Y-107212857D01*
X110711127Y-107212856D01*
X110620906Y-107154875D01*
X110590053Y-107135047D01*
X110590050Y-107135046D01*
X110590048Y-107135045D01*
X110453665Y-107095000D01*
X112024353Y-107095000D01*
X112044835Y-107237458D01*
X112044836Y-107237462D01*
X112104620Y-107368369D01*
X112104624Y-107368376D01*
X112198871Y-107477142D01*
X112198872Y-107477143D01*
X112319947Y-107554953D01*
X112359716Y-107566630D01*
X112458038Y-107595500D01*
X112458039Y-107595500D01*
X112601961Y-107595500D01*
X112719925Y-107560862D01*
X112808319Y-107555446D01*
X112890313Y-107588920D01*
X112949663Y-107654654D01*
X112974614Y-107739630D01*
X112972962Y-107780121D01*
X112964353Y-107839999D01*
X112984835Y-107982458D01*
X112984836Y-107982462D01*
X113044620Y-108113369D01*
X113044624Y-108113376D01*
X113138871Y-108222142D01*
X113138872Y-108222143D01*
X113259947Y-108299953D01*
X113311423Y-108315067D01*
X113398038Y-108340500D01*
X113398039Y-108340500D01*
X113541962Y-108340500D01*
X113625568Y-108315951D01*
X113680053Y-108299953D01*
X113801128Y-108222143D01*
X113868220Y-108144714D01*
X113895375Y-108113376D01*
X113895379Y-108113369D01*
X113947154Y-107999999D01*
X116819464Y-107999999D01*
X116819464Y-108000000D01*
X116839564Y-108216919D01*
X116839567Y-108216932D01*
X116899179Y-108426451D01*
X116996285Y-108621468D01*
X116996287Y-108621471D01*
X116996288Y-108621472D01*
X117057508Y-108702541D01*
X117127575Y-108795324D01*
X117165613Y-108830000D01*
X117288568Y-108942088D01*
X117288570Y-108942089D01*
X117288571Y-108942090D01*
X117473783Y-109056768D01*
X117473782Y-109056768D01*
X117473786Y-109056769D01*
X117473790Y-109056772D01*
X117676931Y-109135470D01*
X117891074Y-109175500D01*
X117891077Y-109175500D01*
X118108922Y-109175500D01*
X118108926Y-109175500D01*
X118323069Y-109135470D01*
X118526210Y-109056772D01*
X118526215Y-109056768D01*
X118526217Y-109056768D01*
X118634051Y-108990000D01*
X118711432Y-108942088D01*
X118872427Y-108795322D01*
X119003712Y-108621472D01*
X119100817Y-108426459D01*
X119100818Y-108426454D01*
X119100820Y-108426451D01*
X119149610Y-108254968D01*
X119160435Y-108216923D01*
X119180536Y-108000000D01*
X119180536Y-107999999D01*
X123819464Y-107999999D01*
X123819464Y-108000000D01*
X123839564Y-108216919D01*
X123839567Y-108216932D01*
X123899179Y-108426451D01*
X123996285Y-108621468D01*
X123996287Y-108621471D01*
X123996288Y-108621472D01*
X124057508Y-108702541D01*
X124127575Y-108795324D01*
X124165613Y-108830000D01*
X124288568Y-108942088D01*
X124288570Y-108942089D01*
X124288571Y-108942090D01*
X124473783Y-109056768D01*
X124473782Y-109056768D01*
X124473786Y-109056769D01*
X124473790Y-109056772D01*
X124676931Y-109135470D01*
X124891074Y-109175500D01*
X124891077Y-109175500D01*
X125108922Y-109175500D01*
X125108926Y-109175500D01*
X125323069Y-109135470D01*
X125526210Y-109056772D01*
X125526215Y-109056768D01*
X125526217Y-109056768D01*
X125634051Y-108990000D01*
X125711432Y-108942088D01*
X125834387Y-108830000D01*
X140544353Y-108830000D01*
X140564835Y-108972458D01*
X140564836Y-108972462D01*
X140624620Y-109103369D01*
X140624624Y-109103376D01*
X140718871Y-109212142D01*
X140718872Y-109212143D01*
X140839947Y-109289953D01*
X140891026Y-109304951D01*
X140978038Y-109330500D01*
X140978039Y-109330500D01*
X141121962Y-109330500D01*
X141175189Y-109314870D01*
X141260053Y-109289953D01*
X141381128Y-109212143D01*
X141471492Y-109107857D01*
X141475375Y-109103376D01*
X141475379Y-109103369D01*
X141535163Y-108972462D01*
X141535163Y-108972460D01*
X141535165Y-108972457D01*
X141555647Y-108830000D01*
X141535165Y-108687543D01*
X141535163Y-108687540D01*
X141535163Y-108687537D01*
X141475379Y-108556630D01*
X141475375Y-108556623D01*
X141381128Y-108447857D01*
X141381127Y-108447856D01*
X141283395Y-108385048D01*
X141260053Y-108370047D01*
X141260050Y-108370046D01*
X141260048Y-108370045D01*
X141121962Y-108329500D01*
X141121961Y-108329500D01*
X140978039Y-108329500D01*
X140978038Y-108329500D01*
X140839951Y-108370045D01*
X140839945Y-108370048D01*
X140718872Y-108447856D01*
X140718871Y-108447857D01*
X140624624Y-108556623D01*
X140624620Y-108556630D01*
X140564836Y-108687537D01*
X140564835Y-108687541D01*
X140544353Y-108830000D01*
X125834387Y-108830000D01*
X125872427Y-108795322D01*
X126003712Y-108621472D01*
X126100817Y-108426459D01*
X126100818Y-108426454D01*
X126100820Y-108426451D01*
X126149610Y-108254968D01*
X126160435Y-108216923D01*
X126180536Y-108000000D01*
X126178910Y-107982458D01*
X126168339Y-107868373D01*
X126160435Y-107783077D01*
X126148073Y-107739630D01*
X126100820Y-107573548D01*
X126097375Y-107566630D01*
X126004469Y-107380048D01*
X126003714Y-107378531D01*
X126000395Y-107374136D01*
X125872427Y-107204678D01*
X125862213Y-107195367D01*
X125711433Y-107057913D01*
X125711428Y-107057909D01*
X125526216Y-106943231D01*
X125526217Y-106943231D01*
X125526211Y-106943228D01*
X125526210Y-106943228D01*
X125323069Y-106864530D01*
X125323068Y-106864529D01*
X125323066Y-106864529D01*
X125229013Y-106846948D01*
X125108926Y-106824500D01*
X124891074Y-106824500D01*
X124789899Y-106843412D01*
X124676933Y-106864529D01*
X124473782Y-106943231D01*
X124288571Y-107057909D01*
X124288566Y-107057913D01*
X124127575Y-107204675D01*
X123996285Y-107378531D01*
X123899179Y-107573548D01*
X123839567Y-107783067D01*
X123839564Y-107783080D01*
X123819464Y-107999999D01*
X119180536Y-107999999D01*
X119178910Y-107982458D01*
X119168339Y-107868373D01*
X119160435Y-107783077D01*
X119148073Y-107739630D01*
X119100820Y-107573548D01*
X119097375Y-107566630D01*
X119004469Y-107380048D01*
X119003714Y-107378531D01*
X119000395Y-107374136D01*
X118872427Y-107204678D01*
X118862213Y-107195367D01*
X118711433Y-107057913D01*
X118711428Y-107057909D01*
X118526216Y-106943231D01*
X118526217Y-106943231D01*
X118526211Y-106943228D01*
X118526210Y-106943228D01*
X118323069Y-106864530D01*
X118323068Y-106864529D01*
X118323066Y-106864529D01*
X118229013Y-106846948D01*
X118108926Y-106824500D01*
X117891074Y-106824500D01*
X117789899Y-106843412D01*
X117676933Y-106864529D01*
X117473782Y-106943231D01*
X117288571Y-107057909D01*
X117288566Y-107057913D01*
X117127575Y-107204675D01*
X116996285Y-107378531D01*
X116899179Y-107573548D01*
X116839567Y-107783067D01*
X116839564Y-107783080D01*
X116819464Y-107999999D01*
X113947154Y-107999999D01*
X113955163Y-107982462D01*
X113955163Y-107982460D01*
X113955165Y-107982457D01*
X113975647Y-107840000D01*
X113955165Y-107697543D01*
X113955163Y-107697540D01*
X113955163Y-107697537D01*
X113895379Y-107566630D01*
X113895375Y-107566623D01*
X113801128Y-107457857D01*
X113801127Y-107457856D01*
X113740590Y-107418952D01*
X113680053Y-107380047D01*
X113680050Y-107380046D01*
X113680048Y-107380045D01*
X113541962Y-107339500D01*
X113541961Y-107339500D01*
X113398039Y-107339500D01*
X113398038Y-107339500D01*
X113280076Y-107374136D01*
X113191678Y-107379553D01*
X113109685Y-107346078D01*
X113050335Y-107280343D01*
X113025384Y-107195367D01*
X113027038Y-107154875D01*
X113035647Y-107095000D01*
X113015165Y-106952543D01*
X113015163Y-106952540D01*
X113015163Y-106952537D01*
X112955379Y-106821630D01*
X112955375Y-106821623D01*
X112861128Y-106712857D01*
X112861127Y-106712856D01*
X112800590Y-106673952D01*
X112740053Y-106635047D01*
X112740050Y-106635046D01*
X112740048Y-106635045D01*
X112601962Y-106594500D01*
X112601961Y-106594500D01*
X112458039Y-106594500D01*
X112458038Y-106594500D01*
X112319951Y-106635045D01*
X112319945Y-106635048D01*
X112198872Y-106712856D01*
X112198871Y-106712857D01*
X112104624Y-106821623D01*
X112104620Y-106821630D01*
X112044836Y-106952537D01*
X112044835Y-106952541D01*
X112024353Y-107095000D01*
X110453665Y-107095000D01*
X110451962Y-107094500D01*
X110451961Y-107094500D01*
X110308039Y-107094500D01*
X110308038Y-107094500D01*
X110169951Y-107135045D01*
X110169945Y-107135048D01*
X110048872Y-107212856D01*
X110048871Y-107212857D01*
X109954624Y-107321623D01*
X109954620Y-107321630D01*
X109894836Y-107452537D01*
X109894835Y-107452541D01*
X109874353Y-107595000D01*
X109285647Y-107595000D01*
X109265165Y-107452543D01*
X109265163Y-107452540D01*
X109265163Y-107452537D01*
X109205379Y-107321630D01*
X109205375Y-107321623D01*
X109111128Y-107212857D01*
X109111127Y-107212856D01*
X109020906Y-107154875D01*
X108990053Y-107135047D01*
X108990050Y-107135046D01*
X108990048Y-107135045D01*
X108851962Y-107094500D01*
X108851961Y-107094500D01*
X108708039Y-107094500D01*
X108708038Y-107094500D01*
X108569951Y-107135045D01*
X108569945Y-107135048D01*
X108448872Y-107212856D01*
X108448871Y-107212857D01*
X108354624Y-107321623D01*
X108354620Y-107321630D01*
X108294836Y-107452537D01*
X108294835Y-107452541D01*
X108274353Y-107595000D01*
X104338706Y-107595000D01*
X104339052Y-106360000D01*
X105944353Y-106360000D01*
X105964835Y-106502458D01*
X105964836Y-106502462D01*
X106024620Y-106633369D01*
X106024624Y-106633376D01*
X106118871Y-106742142D01*
X106118872Y-106742143D01*
X106239947Y-106819953D01*
X106255433Y-106824500D01*
X106378038Y-106860500D01*
X106378039Y-106860500D01*
X106521962Y-106860500D01*
X106575189Y-106844870D01*
X106660053Y-106819953D01*
X106781128Y-106742143D01*
X106873926Y-106635048D01*
X106875375Y-106633376D01*
X106875379Y-106633369D01*
X106935163Y-106502462D01*
X106935163Y-106502460D01*
X106935165Y-106502457D01*
X106955647Y-106360000D01*
X106935165Y-106217543D01*
X106935163Y-106217540D01*
X106935163Y-106217537D01*
X106879202Y-106095000D01*
X108274353Y-106095000D01*
X108294835Y-106237458D01*
X108294836Y-106237462D01*
X108354620Y-106368369D01*
X108354624Y-106368376D01*
X108433253Y-106459118D01*
X108448872Y-106477143D01*
X108569947Y-106554953D01*
X108621423Y-106570067D01*
X108708038Y-106595500D01*
X108708039Y-106595500D01*
X108851962Y-106595500D01*
X108905189Y-106579870D01*
X108990053Y-106554953D01*
X109111128Y-106477143D01*
X109190011Y-106386107D01*
X109205375Y-106368376D01*
X109205379Y-106368369D01*
X109265163Y-106237462D01*
X109265163Y-106237460D01*
X109265165Y-106237457D01*
X109285647Y-106095000D01*
X109874353Y-106095000D01*
X109894835Y-106237458D01*
X109894836Y-106237462D01*
X109954620Y-106368369D01*
X109954624Y-106368376D01*
X110033253Y-106459118D01*
X110048872Y-106477143D01*
X110169947Y-106554953D01*
X110221423Y-106570067D01*
X110308038Y-106595500D01*
X110308039Y-106595500D01*
X110451962Y-106595500D01*
X110505189Y-106579870D01*
X110590053Y-106554953D01*
X110711128Y-106477143D01*
X110790011Y-106386107D01*
X110805375Y-106368376D01*
X110805379Y-106368369D01*
X110865163Y-106237462D01*
X110865163Y-106237460D01*
X110865165Y-106237457D01*
X110885647Y-106095000D01*
X110865165Y-105952543D01*
X110865163Y-105952540D01*
X110865163Y-105952537D01*
X110805379Y-105821630D01*
X110805375Y-105821623D01*
X110711128Y-105712857D01*
X110711127Y-105712856D01*
X110650590Y-105673952D01*
X110590053Y-105635047D01*
X110590050Y-105635046D01*
X110590048Y-105635045D01*
X110451962Y-105594500D01*
X110451961Y-105594500D01*
X110308039Y-105594500D01*
X110308038Y-105594500D01*
X110169951Y-105635045D01*
X110169945Y-105635048D01*
X110048872Y-105712856D01*
X110048871Y-105712857D01*
X109954624Y-105821623D01*
X109954620Y-105821630D01*
X109894836Y-105952537D01*
X109894835Y-105952541D01*
X109874353Y-106095000D01*
X109285647Y-106095000D01*
X109265165Y-105952543D01*
X109265163Y-105952540D01*
X109265163Y-105952537D01*
X109205379Y-105821630D01*
X109205375Y-105821623D01*
X109111128Y-105712857D01*
X109111127Y-105712856D01*
X109050590Y-105673952D01*
X108990053Y-105635047D01*
X108990050Y-105635046D01*
X108990048Y-105635045D01*
X108851962Y-105594500D01*
X108851961Y-105594500D01*
X108708039Y-105594500D01*
X108708038Y-105594500D01*
X108569951Y-105635045D01*
X108569945Y-105635048D01*
X108448872Y-105712856D01*
X108448871Y-105712857D01*
X108354624Y-105821623D01*
X108354620Y-105821630D01*
X108294836Y-105952537D01*
X108294835Y-105952541D01*
X108274353Y-106095000D01*
X106879202Y-106095000D01*
X106875379Y-106086630D01*
X106875375Y-106086623D01*
X106781128Y-105977857D01*
X106781127Y-105977856D01*
X106720590Y-105938952D01*
X106660053Y-105900047D01*
X106660050Y-105900046D01*
X106660048Y-105900045D01*
X106521962Y-105859500D01*
X106521961Y-105859500D01*
X106378039Y-105859500D01*
X106378038Y-105859500D01*
X106239951Y-105900045D01*
X106239945Y-105900048D01*
X106118872Y-105977856D01*
X106118871Y-105977857D01*
X106024624Y-106086623D01*
X106024620Y-106086630D01*
X105964836Y-106217537D01*
X105964835Y-106217541D01*
X105944353Y-106360000D01*
X104339052Y-106360000D01*
X104339477Y-104845000D01*
X107224353Y-104845000D01*
X107244835Y-104987458D01*
X107244836Y-104987462D01*
X107304620Y-105118369D01*
X107304624Y-105118376D01*
X107398871Y-105227142D01*
X107398872Y-105227143D01*
X107519947Y-105304953D01*
X107546968Y-105312887D01*
X107658038Y-105345500D01*
X107658039Y-105345500D01*
X107801962Y-105345500D01*
X107855189Y-105329870D01*
X107940053Y-105304953D01*
X108061128Y-105227143D01*
X108134504Y-105142462D01*
X108155375Y-105118376D01*
X108155379Y-105118369D01*
X108215163Y-104987462D01*
X108215163Y-104987460D01*
X108215165Y-104987457D01*
X108235647Y-104845000D01*
X108218580Y-104726298D01*
X118296000Y-104726298D01*
X118296000Y-105250000D01*
X118816988Y-105250000D01*
X118784075Y-105307007D01*
X118750000Y-105434174D01*
X118750000Y-105565826D01*
X118784075Y-105692993D01*
X118816988Y-105750000D01*
X118296000Y-105750000D01*
X118296000Y-106273701D01*
X118307603Y-106332034D01*
X118351808Y-106398191D01*
X118417965Y-106442396D01*
X118476299Y-106454000D01*
X119000000Y-106454000D01*
X119000000Y-105933012D01*
X119057007Y-105965925D01*
X119184174Y-106000000D01*
X119315826Y-106000000D01*
X119442993Y-105965925D01*
X119500000Y-105933012D01*
X119500000Y-106454000D01*
X120023701Y-106454000D01*
X120082034Y-106442396D01*
X120148191Y-106398191D01*
X120192396Y-106332034D01*
X120204000Y-106273701D01*
X120204000Y-105750000D01*
X119683012Y-105750000D01*
X119715925Y-105692993D01*
X119750000Y-105565826D01*
X119750000Y-105500000D01*
X122790882Y-105500000D01*
X122809310Y-105687112D01*
X122863892Y-105867042D01*
X122952521Y-106032855D01*
X122954649Y-106035448D01*
X123071801Y-106178199D01*
X123144008Y-106237457D01*
X123217144Y-106297478D01*
X123349772Y-106368369D01*
X123382961Y-106386109D01*
X123562885Y-106440689D01*
X123750000Y-106459118D01*
X123937115Y-106440689D01*
X124117039Y-106386109D01*
X124282857Y-106297477D01*
X124428199Y-106178199D01*
X124442929Y-106160250D01*
X159279500Y-106160250D01*
X159279500Y-107899749D01*
X159291133Y-107958232D01*
X159335447Y-108024552D01*
X159401767Y-108068866D01*
X159401769Y-108068867D01*
X159436984Y-108075871D01*
X159460250Y-108080500D01*
X159460252Y-108080500D01*
X161199750Y-108080500D01*
X161219155Y-108076639D01*
X161258231Y-108068867D01*
X161324552Y-108024552D01*
X161368867Y-107958231D01*
X161380500Y-107899748D01*
X161380500Y-106160252D01*
X161368867Y-106101769D01*
X161364344Y-106095000D01*
X161324552Y-106035447D01*
X161258232Y-105991133D01*
X161199750Y-105979500D01*
X161199748Y-105979500D01*
X159460252Y-105979500D01*
X159460250Y-105979500D01*
X159401767Y-105991133D01*
X159335447Y-106035447D01*
X159291133Y-106101767D01*
X159279500Y-106160250D01*
X124442929Y-106160250D01*
X124547477Y-106032857D01*
X124636109Y-105867039D01*
X124690689Y-105687115D01*
X124709118Y-105500000D01*
X124690689Y-105312885D01*
X124636109Y-105132961D01*
X124628312Y-105118373D01*
X124565040Y-105000000D01*
X129494353Y-105000000D01*
X129514835Y-105142458D01*
X129514836Y-105142462D01*
X129574620Y-105273369D01*
X129574624Y-105273376D01*
X129668871Y-105382142D01*
X129668872Y-105382143D01*
X129789947Y-105459953D01*
X129841423Y-105475067D01*
X129928038Y-105500500D01*
X129928039Y-105500500D01*
X130071962Y-105500500D01*
X130125189Y-105484870D01*
X130210053Y-105459953D01*
X130331128Y-105382143D01*
X130398015Y-105304951D01*
X130425375Y-105273376D01*
X130425379Y-105273369D01*
X130485163Y-105142462D01*
X130485163Y-105142460D01*
X130485165Y-105142457D01*
X130505647Y-105000000D01*
X134494353Y-105000000D01*
X134514835Y-105142458D01*
X134514836Y-105142462D01*
X134574620Y-105273369D01*
X134574624Y-105273376D01*
X134668871Y-105382142D01*
X134668872Y-105382143D01*
X134789947Y-105459953D01*
X134841423Y-105475067D01*
X134928038Y-105500500D01*
X134928039Y-105500500D01*
X135071962Y-105500500D01*
X135125189Y-105484870D01*
X135210053Y-105459953D01*
X135331128Y-105382143D01*
X135398015Y-105304951D01*
X135425375Y-105273376D01*
X135425379Y-105273369D01*
X135485163Y-105142462D01*
X135485163Y-105142460D01*
X135485165Y-105142457D01*
X135505647Y-105000000D01*
X139494353Y-105000000D01*
X139514835Y-105142458D01*
X139514836Y-105142462D01*
X139574620Y-105273369D01*
X139574624Y-105273376D01*
X139668871Y-105382142D01*
X139668872Y-105382143D01*
X139789947Y-105459953D01*
X139841423Y-105475067D01*
X139928038Y-105500500D01*
X139928039Y-105500500D01*
X140071962Y-105500500D01*
X140125189Y-105484870D01*
X140210053Y-105459953D01*
X140331128Y-105382143D01*
X140398015Y-105304951D01*
X140425375Y-105273376D01*
X140425379Y-105273369D01*
X140485163Y-105142462D01*
X140485163Y-105142460D01*
X140485165Y-105142457D01*
X140505647Y-105000000D01*
X140485165Y-104857543D01*
X140485163Y-104857540D01*
X140485163Y-104857537D01*
X140425379Y-104726630D01*
X140425375Y-104726623D01*
X140331128Y-104617857D01*
X140331127Y-104617856D01*
X140259197Y-104571630D01*
X140210053Y-104540047D01*
X140210050Y-104540046D01*
X140210048Y-104540045D01*
X140071962Y-104499500D01*
X140071961Y-104499500D01*
X139928039Y-104499500D01*
X139928038Y-104499500D01*
X139789951Y-104540045D01*
X139789945Y-104540048D01*
X139668872Y-104617856D01*
X139668871Y-104617857D01*
X139574624Y-104726623D01*
X139574620Y-104726630D01*
X139514836Y-104857537D01*
X139514835Y-104857541D01*
X139494353Y-105000000D01*
X135505647Y-105000000D01*
X135485165Y-104857543D01*
X135485163Y-104857540D01*
X135485163Y-104857537D01*
X135425379Y-104726630D01*
X135425375Y-104726623D01*
X135331128Y-104617857D01*
X135331127Y-104617856D01*
X135259197Y-104571630D01*
X135210053Y-104540047D01*
X135210050Y-104540046D01*
X135210048Y-104540045D01*
X135071962Y-104499500D01*
X135071961Y-104499500D01*
X134928039Y-104499500D01*
X134928038Y-104499500D01*
X134789951Y-104540045D01*
X134789945Y-104540048D01*
X134668872Y-104617856D01*
X134668871Y-104617857D01*
X134574624Y-104726623D01*
X134574620Y-104726630D01*
X134514836Y-104857537D01*
X134514835Y-104857541D01*
X134494353Y-105000000D01*
X130505647Y-105000000D01*
X130485165Y-104857543D01*
X130485163Y-104857540D01*
X130485163Y-104857537D01*
X130425379Y-104726630D01*
X130425375Y-104726623D01*
X130331128Y-104617857D01*
X130331127Y-104617856D01*
X130259197Y-104571630D01*
X130210053Y-104540047D01*
X130210050Y-104540046D01*
X130210048Y-104540045D01*
X130071962Y-104499500D01*
X130071961Y-104499500D01*
X129928039Y-104499500D01*
X129928038Y-104499500D01*
X129789951Y-104540045D01*
X129789945Y-104540048D01*
X129668872Y-104617856D01*
X129668871Y-104617857D01*
X129574624Y-104726623D01*
X129574620Y-104726630D01*
X129514836Y-104857537D01*
X129514835Y-104857541D01*
X129494353Y-105000000D01*
X124565040Y-105000000D01*
X124547478Y-104967144D01*
X124457531Y-104857543D01*
X124428199Y-104821801D01*
X124311827Y-104726298D01*
X124282855Y-104702521D01*
X124117042Y-104613892D01*
X123937112Y-104559310D01*
X123750000Y-104540882D01*
X123562887Y-104559310D01*
X123382957Y-104613892D01*
X123217144Y-104702521D01*
X123071801Y-104821801D01*
X122952521Y-104967144D01*
X122863892Y-105132957D01*
X122809310Y-105312887D01*
X122790882Y-105500000D01*
X119750000Y-105500000D01*
X119750000Y-105434174D01*
X119715925Y-105307007D01*
X119683012Y-105250000D01*
X120204000Y-105250000D01*
X120204000Y-104726298D01*
X120192396Y-104667965D01*
X120148191Y-104601808D01*
X120082034Y-104557603D01*
X120023701Y-104546000D01*
X119500000Y-104546000D01*
X119500000Y-105066988D01*
X119442993Y-105034075D01*
X119315826Y-105000000D01*
X119184174Y-105000000D01*
X119057007Y-105034075D01*
X119000000Y-105066988D01*
X119000000Y-104546000D01*
X118476299Y-104546000D01*
X118417965Y-104557603D01*
X118351808Y-104601808D01*
X118307603Y-104667965D01*
X118296000Y-104726298D01*
X108218580Y-104726298D01*
X108215165Y-104702543D01*
X108215163Y-104702540D01*
X108215163Y-104702537D01*
X108155379Y-104571630D01*
X108155375Y-104571623D01*
X108061128Y-104462857D01*
X108061127Y-104462856D01*
X108000590Y-104423952D01*
X107940053Y-104385047D01*
X107940050Y-104385046D01*
X107940048Y-104385045D01*
X107801962Y-104344500D01*
X107801961Y-104344500D01*
X107658039Y-104344500D01*
X107658038Y-104344500D01*
X107519951Y-104385045D01*
X107519945Y-104385048D01*
X107398872Y-104462856D01*
X107398871Y-104462857D01*
X107304624Y-104571623D01*
X107304620Y-104571630D01*
X107244836Y-104702537D01*
X107244835Y-104702541D01*
X107224353Y-104845000D01*
X104339477Y-104845000D01*
X104339944Y-103178943D01*
X104359675Y-103092607D01*
X104414913Y-103023381D01*
X104494717Y-102984977D01*
X104538944Y-102980000D01*
X108572553Y-102980000D01*
X108658896Y-102999707D01*
G37*
%TD.AperFunction*%
M02*
