%TF.GenerationSoftware,KiCad,Pcbnew,7.0.9*%
%TF.CreationDate,2023-12-22T14:05:00+09:00*%
%TF.ProjectId,gas_nrf52832,6761735f-6e72-4663-9532-3833322e6b69,rev?*%
%TF.SameCoordinates,Original*%
%TF.FileFunction,Copper,L2,Bot*%
%TF.FilePolarity,Positive*%
%FSLAX46Y46*%
G04 Gerber Fmt 4.6, Leading zero omitted, Abs format (unit mm)*
G04 Created by KiCad (PCBNEW 7.0.9) date 2023-12-22 14:05:00*
%MOMM*%
%LPD*%
G01*
G04 APERTURE LIST*
%TA.AperFunction,ComponentPad*%
%ADD10R,1.700000X1.700000*%
%TD*%
%TA.AperFunction,ComponentPad*%
%ADD11O,1.700000X1.700000*%
%TD*%
%TA.AperFunction,ComponentPad*%
%ADD12R,1.000000X1.000000*%
%TD*%
%TA.AperFunction,ComponentPad*%
%ADD13O,1.000000X1.000000*%
%TD*%
%TA.AperFunction,ComponentPad*%
%ADD14O,2.100000X1.100000*%
%TD*%
%TA.AperFunction,ComponentPad*%
%ADD15O,1.700000X1.100000*%
%TD*%
%TA.AperFunction,ComponentPad*%
%ADD16O,1.350000X1.350000*%
%TD*%
%TA.AperFunction,ComponentPad*%
%ADD17R,1.350000X1.350000*%
%TD*%
%TA.AperFunction,ComponentPad*%
%ADD18C,3.800000*%
%TD*%
%TA.AperFunction,ViaPad*%
%ADD19C,0.600000*%
%TD*%
%TA.AperFunction,ViaPad*%
%ADD20C,0.800000*%
%TD*%
%TA.AperFunction,Conductor*%
%ADD21C,0.250000*%
%TD*%
%TA.AperFunction,Conductor*%
%ADD22C,0.150000*%
%TD*%
G04 APERTURE END LIST*
D10*
X146600000Y-79520000D03*
D11*
X146600000Y-82060000D03*
X146600000Y-84600000D03*
D12*
X102200000Y-82100000D03*
D13*
X100930000Y-82100000D03*
D14*
X90950000Y-88500000D03*
X90950000Y-99740000D03*
D15*
X94950000Y-88500000D03*
X94950000Y-99740000D03*
D10*
X139250000Y-106850000D03*
D11*
X141790000Y-106850000D03*
X144330000Y-106850000D03*
X146870000Y-106850000D03*
D16*
X123000000Y-79600000D03*
X125500000Y-79600000D03*
X128000000Y-79600000D03*
X123000000Y-82900000D03*
X125500000Y-82900000D03*
D17*
X128000000Y-82900000D03*
D18*
X104550000Y-101650000D03*
X104550000Y-88150000D03*
X111300000Y-94900000D03*
X119300000Y-94900000D03*
X126050000Y-88150000D03*
X126050000Y-101650000D03*
D19*
X132000000Y-80700000D03*
X118420000Y-83910000D03*
X108020000Y-85985000D03*
X132900000Y-81324500D03*
X138768809Y-77848014D03*
X135424500Y-94852000D03*
X140950000Y-92800000D03*
X96845000Y-86860000D03*
X139580000Y-101705000D03*
X139570000Y-102745000D03*
X149100000Y-102427500D03*
X146300000Y-92827500D03*
X141650000Y-104957500D03*
X112652500Y-87550000D03*
X109220000Y-88810000D03*
X135775000Y-85800000D03*
X130660000Y-98650000D03*
X148200000Y-101327500D03*
X134100000Y-84550000D03*
X136200000Y-90727500D03*
X148900000Y-93427500D03*
X99350000Y-94650000D03*
X110920000Y-89560000D03*
X133880000Y-102380000D03*
X116930000Y-83250000D03*
X148900000Y-92127500D03*
X120420000Y-84700000D03*
X147800000Y-87127500D03*
X135580000Y-99110000D03*
X135850000Y-83200000D03*
X139400000Y-97327500D03*
X144300000Y-102845000D03*
X139400000Y-92827500D03*
X149125000Y-101327500D03*
X115170000Y-81910000D03*
X147800000Y-93427500D03*
X134100000Y-86100000D03*
X97317500Y-96850000D03*
X96250000Y-90000000D03*
X134400000Y-87750000D03*
X97517500Y-91220000D03*
X145400000Y-95027500D03*
X116152500Y-88750000D03*
X148900000Y-88427500D03*
X109300000Y-83050000D03*
X148200000Y-102427500D03*
D20*
X114220000Y-85960000D03*
D19*
X95917500Y-85820000D03*
X141600000Y-95027500D03*
X131650000Y-91250000D03*
X147800000Y-92127500D03*
X148900000Y-87127500D03*
X96217500Y-98200000D03*
X99350000Y-93650000D03*
X111850000Y-80800000D03*
X112252500Y-88250000D03*
D20*
X115670000Y-85960000D03*
X114220000Y-84610000D03*
D19*
X96017500Y-102520000D03*
X147800000Y-88427500D03*
D20*
X115300000Y-106090000D03*
D19*
X111600000Y-83400000D03*
X134420000Y-101680000D03*
X118361615Y-84880855D03*
X143250000Y-104957500D03*
D20*
X115670000Y-84610000D03*
D19*
X114670000Y-88410000D03*
X118870000Y-87200000D03*
D20*
X128800000Y-86700000D03*
D19*
X106800000Y-82100000D03*
X127348750Y-95431250D03*
X134000000Y-93400000D03*
X134132843Y-94201880D03*
X118140000Y-98200000D03*
X135002667Y-81316004D03*
X141800000Y-77800000D03*
X138250000Y-100820000D03*
X134230000Y-100830000D03*
X144099503Y-95050000D03*
X143300000Y-95050000D03*
X106100000Y-98900000D03*
X127200000Y-93800000D03*
X125000000Y-91000000D03*
X126200000Y-91000000D03*
X123200000Y-89600000D03*
D20*
X115300000Y-102190000D03*
D19*
X123200000Y-88600000D03*
X101225000Y-95911657D03*
X103025000Y-97811657D03*
D20*
X136600000Y-88413750D03*
X134850000Y-99900000D03*
D19*
X121700000Y-94400000D03*
X109500000Y-92500000D03*
D20*
X128800000Y-85200000D03*
D19*
X122770000Y-86310000D03*
D21*
X134130963Y-94200000D02*
X134132843Y-94201880D01*
X118140000Y-98200000D02*
X125800000Y-98200000D01*
X125800000Y-98200000D02*
X129800000Y-94200000D01*
X129800000Y-94200000D02*
X134130963Y-94200000D01*
X129380000Y-93400000D02*
X134000000Y-93400000D01*
X127348750Y-95431250D02*
X129380000Y-93400000D01*
X117095000Y-81285000D02*
X112345000Y-81285000D01*
X131100000Y-80700000D02*
X128600000Y-78200000D01*
X124400000Y-78200000D02*
X123000000Y-79600000D01*
X108020000Y-85610000D02*
X108020000Y-85985000D01*
X128600000Y-78200000D02*
X124400000Y-78200000D01*
X132000000Y-80700000D02*
X131100000Y-80700000D01*
X112345000Y-81285000D02*
X108020000Y-85610000D01*
X118420000Y-83910000D02*
X118420000Y-82610000D01*
X118420000Y-82610000D02*
X117095000Y-81285000D01*
X138768809Y-77848014D02*
X137251986Y-77848014D01*
X133775500Y-81324500D02*
X132900000Y-81324500D01*
X137251986Y-77848014D02*
X133775500Y-81324500D01*
X138898000Y-94852000D02*
X135424500Y-94852000D01*
X140950000Y-92800000D02*
X138898000Y-94852000D01*
X117530000Y-87950000D02*
X118280000Y-87200000D01*
X114670000Y-88410000D02*
X115130000Y-87950000D01*
X115130000Y-87950000D02*
X117530000Y-87950000D01*
X118280000Y-87200000D02*
X118870000Y-87200000D01*
X119570000Y-79470000D02*
X111770000Y-79470000D01*
X128790380Y-86700000D02*
X126800000Y-84709620D01*
X121400000Y-81300000D02*
X119570000Y-79470000D01*
X126800000Y-84709620D02*
X122109620Y-84709620D01*
X109140000Y-82100000D02*
X106800000Y-82100000D01*
X111770000Y-79470000D02*
X109140000Y-82100000D01*
X121400000Y-84000000D02*
X121400000Y-81300000D01*
X122109620Y-84709620D02*
X121400000Y-84000000D01*
X128800000Y-86700000D02*
X128790380Y-86700000D01*
X136600000Y-79700000D02*
X135002667Y-81297333D01*
X139700000Y-77800000D02*
X137800000Y-79700000D01*
X135002667Y-81297333D02*
X135002667Y-81316004D01*
X137800000Y-79700000D02*
X136600000Y-79700000D01*
X141800000Y-77800000D02*
X139700000Y-77800000D01*
D22*
X134230000Y-100830000D02*
X138240000Y-100830000D01*
X138240000Y-100830000D02*
X138250000Y-100820000D01*
D21*
X144099503Y-95050000D02*
X144099503Y-87100497D01*
X144099503Y-87100497D02*
X146600000Y-84600000D01*
X143300000Y-95050000D02*
X143300000Y-85360000D01*
X143300000Y-85360000D02*
X146600000Y-82060000D01*
X119315000Y-91385000D02*
X110615000Y-91385000D01*
X134850000Y-99900000D02*
X134800000Y-99850000D01*
X134800000Y-91200000D02*
X131800000Y-88200000D01*
X121700000Y-89000000D02*
X121700000Y-94400000D01*
X134850000Y-99900000D02*
X139920000Y-99900000D01*
X121700000Y-89000000D02*
X119315000Y-91385000D01*
X132013750Y-88413750D02*
X136600000Y-88413750D01*
X134800000Y-99850000D02*
X134800000Y-91200000D01*
X122770000Y-86310000D02*
X122770000Y-87930000D01*
X110615000Y-91385000D02*
X109500000Y-92500000D01*
X122770000Y-87930000D02*
X121700000Y-89000000D01*
X139920000Y-99900000D02*
X146870000Y-106850000D01*
X131800000Y-88200000D02*
X132013750Y-88413750D01*
X128800000Y-85200000D02*
X131800000Y-88200000D01*
X94950000Y-88500000D02*
X95534736Y-89084736D01*
X95534736Y-89084736D02*
X95534736Y-99155264D01*
X95534736Y-99155264D02*
X94950000Y-99740000D01*
X90950000Y-88500000D02*
X94950000Y-88500000D01*
X90950000Y-99740000D02*
X94950000Y-99740000D01*
%TA.AperFunction,Conductor*%
G36*
X103529047Y-89987540D02*
G01*
X103540878Y-89994734D01*
X103581375Y-90019361D01*
X103844942Y-90133844D01*
X104121642Y-90211371D01*
X104352357Y-90243082D01*
X104406321Y-90250500D01*
X104406322Y-90250500D01*
X104693679Y-90250500D01*
X104739043Y-90244264D01*
X104978358Y-90211371D01*
X105255058Y-90133844D01*
X105518625Y-90019361D01*
X105559122Y-89994734D01*
X105570953Y-89987540D01*
X105596412Y-89980407D01*
X110634025Y-89980407D01*
X110660516Y-89988186D01*
X110709947Y-90019953D01*
X110792996Y-90044338D01*
X110848034Y-90060499D01*
X110848037Y-90060499D01*
X110848039Y-90060500D01*
X110848040Y-90060500D01*
X110991960Y-90060500D01*
X110991961Y-90060500D01*
X110991963Y-90060499D01*
X110991965Y-90060499D01*
X111012480Y-90054475D01*
X111130053Y-90019953D01*
X111179484Y-89988186D01*
X111205975Y-89980407D01*
X113285965Y-89980407D01*
X113320613Y-89994759D01*
X113334965Y-90029407D01*
X113334965Y-90029442D01*
X113334269Y-91010535D01*
X113319893Y-91045173D01*
X113285269Y-91059500D01*
X110630282Y-91059500D01*
X110628146Y-91059407D01*
X110599893Y-91056935D01*
X110586193Y-91055737D01*
X110586192Y-91055737D01*
X110586191Y-91055737D01*
X110545505Y-91066638D01*
X110543430Y-91067098D01*
X110501955Y-91074412D01*
X110501950Y-91074414D01*
X110494945Y-91078458D01*
X110483132Y-91083351D01*
X110475317Y-91085444D01*
X110475317Y-91085445D01*
X110440826Y-91109595D01*
X110439024Y-91110743D01*
X110402544Y-91131806D01*
X110375467Y-91164074D01*
X110374023Y-91165650D01*
X109554526Y-91985148D01*
X109519878Y-91999500D01*
X109428034Y-91999500D01*
X109289949Y-92040046D01*
X109168871Y-92117857D01*
X109074625Y-92226623D01*
X109074624Y-92226625D01*
X109014833Y-92357545D01*
X108994353Y-92499997D01*
X108994353Y-92500002D01*
X109014833Y-92642454D01*
X109046935Y-92712746D01*
X109074623Y-92773373D01*
X109074624Y-92773374D01*
X109074625Y-92773376D01*
X109097262Y-92799500D01*
X109168872Y-92882143D01*
X109289947Y-92959953D01*
X109366785Y-92982514D01*
X109428034Y-93000499D01*
X109428037Y-93000499D01*
X109428039Y-93000500D01*
X109428040Y-93000500D01*
X109571960Y-93000500D01*
X109571961Y-93000500D01*
X109571963Y-93000499D01*
X109571965Y-93000499D01*
X109594795Y-92993795D01*
X109710053Y-92959953D01*
X109831128Y-92882143D01*
X109925377Y-92773373D01*
X109985165Y-92642457D01*
X109985165Y-92642455D01*
X109985166Y-92642454D01*
X110005647Y-92500001D01*
X110005647Y-92500000D01*
X110003440Y-92484654D01*
X110012713Y-92448316D01*
X110017286Y-92443038D01*
X110735474Y-91724852D01*
X110770122Y-91710500D01*
X110920000Y-91710500D01*
X110920000Y-92831981D01*
X110871639Y-92838629D01*
X110594940Y-92916156D01*
X110331380Y-93030636D01*
X110085851Y-93179946D01*
X109862954Y-93361284D01*
X109862952Y-93361287D01*
X109666815Y-93571297D01*
X109666809Y-93571305D01*
X109501101Y-93806059D01*
X109501097Y-93806067D01*
X109368900Y-94061195D01*
X109368896Y-94061204D01*
X109272663Y-94331975D01*
X109214201Y-94613312D01*
X109194592Y-94900000D01*
X109214201Y-95186687D01*
X109272663Y-95468024D01*
X109272666Y-95468032D01*
X109368896Y-95738797D01*
X109368900Y-95738804D01*
X109501097Y-95993932D01*
X109501101Y-95993940D01*
X109583955Y-96111317D01*
X109666811Y-96228698D01*
X109862947Y-96438708D01*
X109862952Y-96438712D01*
X109862954Y-96438715D01*
X110036318Y-96579755D01*
X110085853Y-96620055D01*
X110331375Y-96769361D01*
X110594942Y-96883844D01*
X110871642Y-96961371D01*
X110920000Y-96968017D01*
X110920000Y-104060000D01*
X113325013Y-104060000D01*
X113318879Y-104066130D01*
X113284319Y-104080470D01*
X100774110Y-104099923D01*
X100739440Y-104085625D01*
X100725034Y-104051000D01*
X100726735Y-101650000D01*
X102444592Y-101650000D01*
X102464201Y-101936687D01*
X102522663Y-102218024D01*
X102522666Y-102218032D01*
X102618896Y-102488797D01*
X102618900Y-102488804D01*
X102751097Y-102743932D01*
X102751101Y-102743940D01*
X102833955Y-102861317D01*
X102916811Y-102978698D01*
X103112947Y-103188708D01*
X103112952Y-103188712D01*
X103112954Y-103188715D01*
X103286318Y-103329755D01*
X103335853Y-103370055D01*
X103581375Y-103519361D01*
X103844942Y-103633844D01*
X104121642Y-103711371D01*
X104352357Y-103743082D01*
X104406321Y-103750500D01*
X104406322Y-103750500D01*
X104693679Y-103750500D01*
X104739043Y-103744264D01*
X104978358Y-103711371D01*
X105255058Y-103633844D01*
X105518625Y-103519361D01*
X105764147Y-103370055D01*
X105921751Y-103241834D01*
X105987045Y-103188715D01*
X105987045Y-103188713D01*
X105987053Y-103188708D01*
X106183189Y-102978698D01*
X106348901Y-102743936D01*
X106481104Y-102488797D01*
X106577334Y-102218032D01*
X106635798Y-101936686D01*
X106655408Y-101650000D01*
X106635798Y-101363314D01*
X106635798Y-101363312D01*
X106577336Y-101081975D01*
X106577334Y-101081968D01*
X106481104Y-100811203D01*
X106348901Y-100556064D01*
X106348899Y-100556061D01*
X106348898Y-100556059D01*
X106295637Y-100480605D01*
X106183189Y-100321302D01*
X105987053Y-100111292D01*
X105987047Y-100111287D01*
X105987045Y-100111284D01*
X105764148Y-99929946D01*
X105764147Y-99929945D01*
X105518625Y-99780639D01*
X105518621Y-99780637D01*
X105518619Y-99780636D01*
X105255059Y-99666156D01*
X104978360Y-99588629D01*
X104693679Y-99549500D01*
X104693678Y-99549500D01*
X104406322Y-99549500D01*
X104406321Y-99549500D01*
X104121639Y-99588629D01*
X103844940Y-99666156D01*
X103581380Y-99780636D01*
X103335851Y-99929946D01*
X103112954Y-100111284D01*
X103112952Y-100111287D01*
X102916815Y-100321297D01*
X102916809Y-100321305D01*
X102751101Y-100556059D01*
X102751097Y-100556067D01*
X102618900Y-100811195D01*
X102618896Y-100811204D01*
X102522663Y-101081975D01*
X102464201Y-101363312D01*
X102444592Y-101650000D01*
X100726735Y-101650000D01*
X100734965Y-90029371D01*
X100749341Y-89994734D01*
X100783965Y-89980407D01*
X103503588Y-89980407D01*
X103529047Y-89987540D01*
G37*
%TD.AperFunction*%
%TA.AperFunction,Conductor*%
G36*
X128940713Y-85801631D02*
G01*
X128945532Y-85805858D01*
X131772775Y-88633101D01*
X131774220Y-88634678D01*
X131801293Y-88666942D01*
X131801295Y-88666944D01*
X131808304Y-88670990D01*
X131818451Y-88678777D01*
X134460148Y-91320474D01*
X134474500Y-91355122D01*
X134474500Y-93051942D01*
X134460148Y-93086590D01*
X134425500Y-93100942D01*
X134390852Y-93086590D01*
X134388468Y-93084030D01*
X134331128Y-93017857D01*
X134210053Y-92940047D01*
X134210050Y-92940046D01*
X134071965Y-92899500D01*
X134071961Y-92899500D01*
X133928039Y-92899500D01*
X133928034Y-92899500D01*
X133789949Y-92940046D01*
X133668871Y-93017857D01*
X133634445Y-93057588D01*
X133600909Y-93074375D01*
X133597413Y-93074500D01*
X129395282Y-93074500D01*
X129393146Y-93074407D01*
X129364893Y-93071935D01*
X129351193Y-93070737D01*
X129351192Y-93070737D01*
X129351191Y-93070737D01*
X129310505Y-93081638D01*
X129308430Y-93082098D01*
X129266955Y-93089412D01*
X129266950Y-93089414D01*
X129259945Y-93093458D01*
X129248132Y-93098351D01*
X129240317Y-93100444D01*
X129240317Y-93100445D01*
X129205823Y-93124597D01*
X129204020Y-93125745D01*
X129167545Y-93146805D01*
X129140472Y-93179068D01*
X129139028Y-93180644D01*
X128821913Y-93497758D01*
X128787265Y-93512110D01*
X128752617Y-93497758D01*
X128738265Y-93463192D01*
X128730193Y-88503260D01*
X128721059Y-88443009D01*
X128712586Y-88415547D01*
X128692393Y-88370335D01*
X128692392Y-88370334D01*
X128692392Y-88370333D01*
X128692391Y-88370332D01*
X128629040Y-88304371D01*
X128629038Y-88304370D01*
X128597696Y-88283783D01*
X128597692Y-88283781D01*
X128534638Y-88256160D01*
X128534634Y-88256159D01*
X128443202Y-88254312D01*
X128406484Y-88261916D01*
X128406479Y-88261917D01*
X128406478Y-88261918D01*
X128392083Y-88267543D01*
X128342351Y-88286975D01*
X128342351Y-88286976D01*
X128276389Y-88350327D01*
X128276388Y-88350329D01*
X128255799Y-88381674D01*
X128231194Y-88442422D01*
X128204884Y-88469148D01*
X128167383Y-88469443D01*
X128140657Y-88443133D01*
X128136892Y-88420685D01*
X128155408Y-88150000D01*
X128136844Y-87878612D01*
X128148798Y-87843067D01*
X128182386Y-87826384D01*
X128217933Y-87838338D01*
X128231955Y-87859015D01*
X128244862Y-87895720D01*
X128244867Y-87895731D01*
X128258396Y-87921234D01*
X128258405Y-87921250D01*
X128283910Y-87957792D01*
X128286935Y-87962126D01*
X128286938Y-87962128D01*
X128286940Y-87962130D01*
X128361606Y-88014925D01*
X128361608Y-88014926D01*
X128361610Y-88014927D01*
X128396282Y-88029222D01*
X128463422Y-88044431D01*
X128553561Y-88028965D01*
X128588186Y-88014557D01*
X128646422Y-87977833D01*
X128699223Y-87903158D01*
X128713518Y-87868486D01*
X128729032Y-87789821D01*
X128728319Y-87352197D01*
X128742614Y-87317526D01*
X128777239Y-87303118D01*
X128783697Y-87303535D01*
X128800000Y-87305682D01*
X128956762Y-87285044D01*
X129102841Y-87224536D01*
X129228282Y-87128282D01*
X129324536Y-87002841D01*
X129385044Y-86856762D01*
X129405682Y-86700000D01*
X129394647Y-86616184D01*
X129385044Y-86543238D01*
X129324538Y-86397163D01*
X129324535Y-86397158D01*
X129309571Y-86377657D01*
X129228282Y-86271718D01*
X129210894Y-86258376D01*
X129102841Y-86175464D01*
X129102836Y-86175461D01*
X128956761Y-86114955D01*
X128820637Y-86097034D01*
X128800000Y-86094318D01*
X128799999Y-86094318D01*
X128695122Y-86108125D01*
X128658896Y-86098418D01*
X128640145Y-86065940D01*
X128648717Y-86031254D01*
X128696062Y-85964301D01*
X128710358Y-85929630D01*
X128725875Y-85850961D01*
X128725875Y-85850960D01*
X128726107Y-85848566D01*
X128727203Y-85848672D01*
X128740158Y-85817219D01*
X128774777Y-85802797D01*
X128781267Y-85803215D01*
X128800000Y-85805682D01*
X128904488Y-85791925D01*
X128940713Y-85801631D01*
G37*
%TD.AperFunction*%
%TA.AperFunction,Conductor*%
G36*
X149485648Y-76014352D02*
G01*
X149500000Y-76049000D01*
X149500000Y-109951000D01*
X149485648Y-109985648D01*
X149451000Y-110000000D01*
X90049000Y-110000000D01*
X90014352Y-109985648D01*
X90000000Y-109951000D01*
X90000000Y-108000000D01*
X90544341Y-108000000D01*
X90564937Y-108235410D01*
X90564938Y-108235416D01*
X90626094Y-108463655D01*
X90626095Y-108463660D01*
X90725963Y-108677827D01*
X90725971Y-108677839D01*
X90861500Y-108871395D01*
X90861506Y-108871402D01*
X91028597Y-109038493D01*
X91028604Y-109038499D01*
X91222160Y-109174028D01*
X91222172Y-109174036D01*
X91436339Y-109273904D01*
X91436344Y-109273905D01*
X91664583Y-109335061D01*
X91664587Y-109335061D01*
X91664592Y-109335063D01*
X91784250Y-109345531D01*
X91841030Y-109350500D01*
X91841034Y-109350500D01*
X91958970Y-109350500D01*
X92011521Y-109345901D01*
X92135408Y-109335063D01*
X92135414Y-109335061D01*
X92135416Y-109335061D01*
X92249535Y-109304483D01*
X92363657Y-109273904D01*
X92363660Y-109273904D01*
X92363660Y-109273903D01*
X92363663Y-109273903D01*
X92577829Y-109174035D01*
X92771401Y-109038495D01*
X92938495Y-108871401D01*
X92961165Y-108839024D01*
X93074029Y-108677840D01*
X93074036Y-108677828D01*
X93173904Y-108463660D01*
X93173905Y-108463655D01*
X93235061Y-108235416D01*
X93235062Y-108235410D01*
X93235063Y-108235408D01*
X93255659Y-108000000D01*
X93235063Y-107764592D01*
X93230573Y-107747834D01*
X137900000Y-107747834D01*
X137906401Y-107807372D01*
X137906401Y-107807373D01*
X137956648Y-107942091D01*
X138042811Y-108057188D01*
X138157908Y-108143351D01*
X138292626Y-108193598D01*
X138352166Y-108200000D01*
X139000000Y-108200000D01*
X139000000Y-107285501D01*
X139107685Y-107334680D01*
X139214237Y-107350000D01*
X139285763Y-107350000D01*
X139392315Y-107334680D01*
X139500000Y-107285501D01*
X139500000Y-108200000D01*
X140147834Y-108200000D01*
X140207372Y-108193598D01*
X140207373Y-108193598D01*
X140342091Y-108143351D01*
X140457188Y-108057188D01*
X140543351Y-107942091D01*
X140593598Y-107807373D01*
X140593598Y-107807372D01*
X140600000Y-107747834D01*
X140600000Y-107100000D01*
X139683686Y-107100000D01*
X139709493Y-107059844D01*
X139750000Y-106921889D01*
X139750000Y-106850000D01*
X140734417Y-106850000D01*
X140754700Y-107055934D01*
X140814768Y-107253954D01*
X140912315Y-107436450D01*
X141043590Y-107596410D01*
X141203550Y-107727685D01*
X141386046Y-107825232D01*
X141584066Y-107885300D01*
X141790000Y-107905583D01*
X141995934Y-107885300D01*
X142193954Y-107825232D01*
X142376450Y-107727685D01*
X142536410Y-107596410D01*
X142667685Y-107436450D01*
X142765232Y-107253954D01*
X142825300Y-107055934D01*
X142845583Y-106850000D01*
X143274417Y-106850000D01*
X143294700Y-107055934D01*
X143354768Y-107253954D01*
X143452315Y-107436450D01*
X143583590Y-107596410D01*
X143743550Y-107727685D01*
X143926046Y-107825232D01*
X144124066Y-107885300D01*
X144330000Y-107905583D01*
X144535934Y-107885300D01*
X144733954Y-107825232D01*
X144916450Y-107727685D01*
X145076410Y-107596410D01*
X145207685Y-107436450D01*
X145305232Y-107253954D01*
X145365300Y-107055934D01*
X145385583Y-106850000D01*
X145365300Y-106644066D01*
X145305232Y-106446046D01*
X145207685Y-106263550D01*
X145076410Y-106103590D01*
X144916450Y-105972315D01*
X144757524Y-105887367D01*
X144733956Y-105874769D01*
X144733955Y-105874768D01*
X144733954Y-105874768D01*
X144535934Y-105814700D01*
X144330000Y-105794417D01*
X144124065Y-105814700D01*
X144124064Y-105814700D01*
X143951616Y-105867011D01*
X143926050Y-105874767D01*
X143926043Y-105874769D01*
X143743548Y-105972316D01*
X143583590Y-106103590D01*
X143452316Y-106263548D01*
X143354769Y-106446043D01*
X143294700Y-106644064D01*
X143294700Y-106644065D01*
X143281498Y-106778111D01*
X143274417Y-106850000D01*
X142845583Y-106850000D01*
X142825300Y-106644066D01*
X142765232Y-106446046D01*
X142667685Y-106263550D01*
X142536410Y-106103590D01*
X142376450Y-105972315D01*
X142217524Y-105887367D01*
X142193956Y-105874769D01*
X142193955Y-105874768D01*
X142193954Y-105874768D01*
X141995934Y-105814700D01*
X141790000Y-105794417D01*
X141584065Y-105814700D01*
X141584064Y-105814700D01*
X141411616Y-105867011D01*
X141386050Y-105874767D01*
X141386043Y-105874769D01*
X141203548Y-105972316D01*
X141043590Y-106103590D01*
X140912316Y-106263548D01*
X140814769Y-106446043D01*
X140754700Y-106644064D01*
X140754700Y-106644065D01*
X140741498Y-106778111D01*
X140734417Y-106850000D01*
X139750000Y-106850000D01*
X139750000Y-106778111D01*
X139709493Y-106640156D01*
X139683686Y-106600000D01*
X140600000Y-106600000D01*
X140600000Y-105952165D01*
X140593598Y-105892627D01*
X140593598Y-105892626D01*
X140543351Y-105757908D01*
X140457188Y-105642811D01*
X140342091Y-105556648D01*
X140207373Y-105506401D01*
X140147834Y-105500000D01*
X139500000Y-105500000D01*
X139500000Y-106414498D01*
X139392315Y-106365320D01*
X139285763Y-106350000D01*
X139214237Y-106350000D01*
X139107685Y-106365320D01*
X139000000Y-106414498D01*
X139000000Y-105500000D01*
X138352166Y-105500000D01*
X138292627Y-105506401D01*
X138292626Y-105506401D01*
X138157908Y-105556648D01*
X138042811Y-105642811D01*
X137956648Y-105757908D01*
X137906401Y-105892626D01*
X137906401Y-105892627D01*
X137900000Y-105952165D01*
X137900000Y-106600000D01*
X138816314Y-106600000D01*
X138790507Y-106640156D01*
X138750000Y-106778111D01*
X138750000Y-106921889D01*
X138790507Y-107059844D01*
X138816314Y-107100000D01*
X137900000Y-107100000D01*
X137900000Y-107747834D01*
X93230573Y-107747834D01*
X93225173Y-107727683D01*
X93173905Y-107536344D01*
X93173904Y-107536339D01*
X93074036Y-107322172D01*
X93074028Y-107322160D01*
X92938499Y-107128604D01*
X92938493Y-107128597D01*
X92771402Y-106961506D01*
X92771395Y-106961500D01*
X92577839Y-106825971D01*
X92577827Y-106825963D01*
X92363660Y-106726095D01*
X92363655Y-106726094D01*
X92135416Y-106664938D01*
X92135410Y-106664937D01*
X91958970Y-106649500D01*
X91958966Y-106649500D01*
X91841034Y-106649500D01*
X91841030Y-106649500D01*
X91664589Y-106664937D01*
X91664583Y-106664938D01*
X91436344Y-106726094D01*
X91436339Y-106726095D01*
X91222172Y-106825963D01*
X91222160Y-106825971D01*
X91028604Y-106961500D01*
X91028597Y-106961506D01*
X90861506Y-107128597D01*
X90861500Y-107128604D01*
X90725970Y-107322159D01*
X90725963Y-107322171D01*
X90626095Y-107536339D01*
X90626094Y-107536344D01*
X90564938Y-107764583D01*
X90564937Y-107764589D01*
X90544341Y-108000000D01*
X90000000Y-108000000D01*
X90000000Y-104050850D01*
X100519533Y-104050850D01*
X100519534Y-104050861D01*
X100535300Y-104129940D01*
X100549705Y-104164562D01*
X100586423Y-104222796D01*
X100586424Y-104222797D01*
X100661085Y-104275600D01*
X100661089Y-104275602D01*
X100661092Y-104275604D01*
X100695762Y-104289902D01*
X100774430Y-104305423D01*
X100774432Y-104305422D01*
X100774433Y-104305423D01*
X100832341Y-104305332D01*
X113284639Y-104285970D01*
X113363077Y-104270279D01*
X113365579Y-104269240D01*
X113384357Y-104265500D01*
X122007471Y-104265500D01*
X122035516Y-104274320D01*
X122037907Y-104275989D01*
X122037911Y-104275991D01*
X122072670Y-104290074D01*
X122151430Y-104305107D01*
X128502893Y-104255871D01*
X128502898Y-104255870D01*
X128502899Y-104255870D01*
X128541862Y-104247867D01*
X128580832Y-104239863D01*
X128615157Y-104225456D01*
X128672810Y-104188975D01*
X128725611Y-104114300D01*
X128739906Y-104079628D01*
X128755420Y-104000963D01*
X128742463Y-96041242D01*
X128726755Y-95962779D01*
X128712403Y-95928211D01*
X128675842Y-95870076D01*
X128675339Y-95869719D01*
X128673096Y-95868127D01*
X128653146Y-95836371D01*
X128661494Y-95799809D01*
X128666800Y-95793525D01*
X129920475Y-94539852D01*
X129955123Y-94525500D01*
X133728627Y-94525500D01*
X133763275Y-94539852D01*
X133765659Y-94542412D01*
X133801715Y-94584023D01*
X133922790Y-94661833D01*
X133999628Y-94684394D01*
X134060877Y-94702379D01*
X134060880Y-94702379D01*
X134060882Y-94702380D01*
X134060883Y-94702380D01*
X134204803Y-94702380D01*
X134204804Y-94702380D01*
X134204806Y-94702379D01*
X134204808Y-94702379D01*
X134225323Y-94696355D01*
X134342896Y-94661833D01*
X134379027Y-94638612D01*
X134399009Y-94625772D01*
X134435916Y-94619113D01*
X134466721Y-94640502D01*
X134474500Y-94666993D01*
X134474500Y-99407053D01*
X134460148Y-99441701D01*
X134455329Y-99445927D01*
X134421718Y-99471717D01*
X134421717Y-99471718D01*
X134325464Y-99597158D01*
X134325461Y-99597163D01*
X134264955Y-99743238D01*
X134244318Y-99900000D01*
X134264955Y-100056761D01*
X134325461Y-100202836D01*
X134325464Y-100202841D01*
X134353863Y-100239852D01*
X134366319Y-100256084D01*
X134376026Y-100292309D01*
X134357274Y-100324787D01*
X134321049Y-100334494D01*
X134313642Y-100332929D01*
X134301963Y-100329500D01*
X134301961Y-100329500D01*
X134158039Y-100329500D01*
X134158034Y-100329500D01*
X134019949Y-100370046D01*
X134019947Y-100370046D01*
X134019947Y-100370047D01*
X133989702Y-100389484D01*
X133898871Y-100447857D01*
X133804625Y-100556623D01*
X133804624Y-100556625D01*
X133744833Y-100687545D01*
X133724353Y-100829997D01*
X133724353Y-100830002D01*
X133744833Y-100972454D01*
X133776935Y-101042746D01*
X133804623Y-101103373D01*
X133804624Y-101103374D01*
X133804625Y-101103376D01*
X133821120Y-101122412D01*
X133898872Y-101212143D01*
X134019947Y-101289953D01*
X134096785Y-101312514D01*
X134158034Y-101330499D01*
X134158037Y-101330499D01*
X134158039Y-101330500D01*
X134158040Y-101330500D01*
X134301960Y-101330500D01*
X134301961Y-101330500D01*
X134301963Y-101330499D01*
X134301965Y-101330499D01*
X134336018Y-101320500D01*
X134440053Y-101289953D01*
X134561128Y-101212143D01*
X134638880Y-101122412D01*
X134672416Y-101105625D01*
X134675912Y-101105500D01*
X137812753Y-101105500D01*
X137847401Y-101119852D01*
X137849785Y-101122412D01*
X137918872Y-101202143D01*
X138039947Y-101279953D01*
X138116785Y-101302514D01*
X138178034Y-101320499D01*
X138178037Y-101320499D01*
X138178039Y-101320500D01*
X138178040Y-101320500D01*
X138321960Y-101320500D01*
X138321961Y-101320500D01*
X138321963Y-101320499D01*
X138321965Y-101320499D01*
X138344795Y-101313795D01*
X138460053Y-101279953D01*
X138581128Y-101202143D01*
X138675377Y-101093373D01*
X138735165Y-100962457D01*
X138735165Y-100962455D01*
X138735166Y-100962454D01*
X138755647Y-100820002D01*
X138755647Y-100819997D01*
X138735166Y-100677545D01*
X138730751Y-100667879D01*
X138675377Y-100546627D01*
X138639898Y-100505682D01*
X138581128Y-100437857D01*
X138460053Y-100360047D01*
X138460050Y-100360046D01*
X138328825Y-100321515D01*
X138299624Y-100297983D01*
X138295615Y-100260695D01*
X138319147Y-100231494D01*
X138342630Y-100225500D01*
X139764878Y-100225500D01*
X139799526Y-100239852D01*
X145907718Y-106348045D01*
X145922070Y-106382693D01*
X145916284Y-106405791D01*
X145894772Y-106446037D01*
X145894767Y-106446049D01*
X145834700Y-106644064D01*
X145834700Y-106644065D01*
X145821498Y-106778111D01*
X145814417Y-106850000D01*
X145834700Y-107055934D01*
X145894768Y-107253954D01*
X145992315Y-107436450D01*
X146123590Y-107596410D01*
X146283550Y-107727685D01*
X146466046Y-107825232D01*
X146664066Y-107885300D01*
X146870000Y-107905583D01*
X147075934Y-107885300D01*
X147273954Y-107825232D01*
X147456450Y-107727685D01*
X147616410Y-107596410D01*
X147747685Y-107436450D01*
X147845232Y-107253954D01*
X147905300Y-107055934D01*
X147925583Y-106850000D01*
X147905300Y-106644066D01*
X147845232Y-106446046D01*
X147747685Y-106263550D01*
X147616410Y-106103590D01*
X147456450Y-105972315D01*
X147297524Y-105887367D01*
X147273956Y-105874769D01*
X147273955Y-105874768D01*
X147273954Y-105874768D01*
X147075934Y-105814700D01*
X146870000Y-105794417D01*
X146664065Y-105814700D01*
X146664064Y-105814700D01*
X146466049Y-105874767D01*
X146466046Y-105874768D01*
X146466043Y-105874769D01*
X146466037Y-105874772D01*
X146425791Y-105896284D01*
X146388469Y-105899960D01*
X146368045Y-105887718D01*
X140160968Y-99680642D01*
X140159523Y-99679065D01*
X140132453Y-99646804D01*
X140109085Y-99633313D01*
X140095977Y-99625744D01*
X140094182Y-99624601D01*
X140076368Y-99612128D01*
X140059684Y-99600446D01*
X140059683Y-99600445D01*
X140059682Y-99600445D01*
X140051867Y-99598351D01*
X140040048Y-99593455D01*
X140033046Y-99589412D01*
X140033044Y-99589411D01*
X139991580Y-99582100D01*
X139989493Y-99581637D01*
X139962508Y-99574407D01*
X139948807Y-99570736D01*
X139948806Y-99570736D01*
X139906846Y-99574407D01*
X139904710Y-99574500D01*
X135381313Y-99574500D01*
X135346665Y-99560148D01*
X135342439Y-99555329D01*
X135278282Y-99471718D01*
X135278281Y-99471717D01*
X135152842Y-99375464D01*
X135150057Y-99373856D01*
X135151045Y-99372144D01*
X135129041Y-99349685D01*
X135125500Y-99331397D01*
X135125500Y-95344526D01*
X135139852Y-95309878D01*
X135174500Y-95295526D01*
X135200988Y-95303303D01*
X135214447Y-95311953D01*
X135214449Y-95311953D01*
X135214450Y-95311954D01*
X135352534Y-95352499D01*
X135352537Y-95352499D01*
X135352539Y-95352500D01*
X135352540Y-95352500D01*
X135496460Y-95352500D01*
X135496461Y-95352500D01*
X135496463Y-95352499D01*
X135496465Y-95352499D01*
X135523618Y-95344526D01*
X135634553Y-95311953D01*
X135755628Y-95234143D01*
X135790055Y-95194412D01*
X135823591Y-95177625D01*
X135827087Y-95177500D01*
X138882710Y-95177500D01*
X138884846Y-95177593D01*
X138892900Y-95178297D01*
X138926807Y-95181264D01*
X138967495Y-95170361D01*
X138969574Y-95169900D01*
X139011045Y-95162588D01*
X139018054Y-95158540D01*
X139029871Y-95153646D01*
X139037684Y-95151554D01*
X139072190Y-95127391D01*
X139073965Y-95126260D01*
X139110455Y-95105194D01*
X139137532Y-95072923D01*
X139138965Y-95071359D01*
X139160322Y-95050002D01*
X142794353Y-95050002D01*
X142814833Y-95192454D01*
X142843302Y-95254790D01*
X142874623Y-95323373D01*
X142874624Y-95323374D01*
X142874625Y-95323376D01*
X142937279Y-95395683D01*
X142968872Y-95432143D01*
X143089947Y-95509953D01*
X143166785Y-95532514D01*
X143228034Y-95550499D01*
X143228037Y-95550499D01*
X143228039Y-95550500D01*
X143228040Y-95550500D01*
X143371960Y-95550500D01*
X143371961Y-95550500D01*
X143371963Y-95550499D01*
X143371965Y-95550499D01*
X143394795Y-95543795D01*
X143510053Y-95509953D01*
X143631128Y-95432143D01*
X143662719Y-95395683D01*
X143696254Y-95378896D01*
X143731838Y-95390739D01*
X143736779Y-95395679D01*
X143768375Y-95432143D01*
X143889450Y-95509953D01*
X143966288Y-95532514D01*
X144027537Y-95550499D01*
X144027540Y-95550499D01*
X144027542Y-95550500D01*
X144027543Y-95550500D01*
X144171463Y-95550500D01*
X144171464Y-95550500D01*
X144171466Y-95550499D01*
X144171468Y-95550499D01*
X144194298Y-95543795D01*
X144309556Y-95509953D01*
X144430631Y-95432143D01*
X144524880Y-95323373D01*
X144584668Y-95192457D01*
X144584668Y-95192455D01*
X144584669Y-95192454D01*
X144605150Y-95050002D01*
X144605150Y-95049997D01*
X144584669Y-94907545D01*
X144580254Y-94897879D01*
X144524880Y-94776627D01*
X144524877Y-94776623D01*
X144436971Y-94675173D01*
X144425003Y-94643085D01*
X144425003Y-87255618D01*
X144439354Y-87220971D01*
X146098044Y-85562280D01*
X146132691Y-85547929D01*
X146155789Y-85553715D01*
X146171816Y-85562281D01*
X146196046Y-85575232D01*
X146394066Y-85635300D01*
X146600000Y-85655583D01*
X146805934Y-85635300D01*
X147003954Y-85575232D01*
X147186450Y-85477685D01*
X147346410Y-85346410D01*
X147477685Y-85186450D01*
X147575232Y-85003954D01*
X147635300Y-84805934D01*
X147655583Y-84600000D01*
X147635300Y-84394066D01*
X147575232Y-84196046D01*
X147477685Y-84013550D01*
X147346410Y-83853590D01*
X147186450Y-83722315D01*
X147003954Y-83624768D01*
X146805934Y-83564700D01*
X146600000Y-83544417D01*
X146394065Y-83564700D01*
X146394064Y-83564700D01*
X146196043Y-83624769D01*
X146013548Y-83722316D01*
X145853590Y-83853590D01*
X145722316Y-84013548D01*
X145624769Y-84196043D01*
X145564700Y-84394064D01*
X145564700Y-84394065D01*
X145564700Y-84394066D01*
X145544417Y-84600000D01*
X145564700Y-84805934D01*
X145624768Y-85003954D01*
X145624771Y-85003959D01*
X145624772Y-85003962D01*
X145646284Y-85044208D01*
X145649960Y-85081530D01*
X145637718Y-85101954D01*
X143880151Y-86859522D01*
X143878575Y-86860966D01*
X143846309Y-86888041D01*
X143825246Y-86924521D01*
X143824098Y-86926323D01*
X143799948Y-86960814D01*
X143799947Y-86960814D01*
X143797854Y-86968629D01*
X143792961Y-86980442D01*
X143788917Y-86987447D01*
X143788913Y-86987457D01*
X143781605Y-87028907D01*
X143781142Y-87030994D01*
X143770239Y-87071688D01*
X143770239Y-87071689D01*
X143773910Y-87113649D01*
X143774003Y-87115785D01*
X143774003Y-94643085D01*
X143762035Y-94675173D01*
X143736783Y-94704315D01*
X143703246Y-94721102D01*
X143667663Y-94709259D01*
X143662719Y-94704315D01*
X143637468Y-94675174D01*
X143625500Y-94643086D01*
X143625500Y-85515121D01*
X143639851Y-85480474D01*
X146098044Y-83022280D01*
X146132691Y-83007929D01*
X146155789Y-83013715D01*
X146189108Y-83031523D01*
X146196046Y-83035232D01*
X146394066Y-83095300D01*
X146600000Y-83115583D01*
X146805934Y-83095300D01*
X147003954Y-83035232D01*
X147186450Y-82937685D01*
X147346410Y-82806410D01*
X147477685Y-82646450D01*
X147575232Y-82463954D01*
X147635300Y-82265934D01*
X147655583Y-82060000D01*
X147635300Y-81854066D01*
X147575232Y-81656046D01*
X147477685Y-81473550D01*
X147346410Y-81313590D01*
X147186450Y-81182315D01*
X147003954Y-81084768D01*
X146805934Y-81024700D01*
X146600000Y-81004417D01*
X146394065Y-81024700D01*
X146394064Y-81024700D01*
X146196043Y-81084769D01*
X146013548Y-81182316D01*
X145853590Y-81313590D01*
X145722316Y-81473548D01*
X145624769Y-81656043D01*
X145564700Y-81854064D01*
X145564700Y-81854065D01*
X145546122Y-82042694D01*
X145544417Y-82060000D01*
X145564700Y-82265934D01*
X145624768Y-82463954D01*
X145624771Y-82463959D01*
X145624772Y-82463962D01*
X145646284Y-82504208D01*
X145649960Y-82541530D01*
X145637718Y-82561954D01*
X143080648Y-85119025D01*
X143079072Y-85120469D01*
X143046806Y-85147544D01*
X143025743Y-85184024D01*
X143024595Y-85185826D01*
X143000445Y-85220317D01*
X143000444Y-85220317D01*
X142998351Y-85228132D01*
X142993458Y-85239945D01*
X142989414Y-85246950D01*
X142989410Y-85246960D01*
X142982102Y-85288410D01*
X142981639Y-85290497D01*
X142970736Y-85331191D01*
X142970736Y-85331192D01*
X142974407Y-85373152D01*
X142974500Y-85375288D01*
X142974500Y-94643085D01*
X142962532Y-94675173D01*
X142874625Y-94776623D01*
X142874624Y-94776625D01*
X142814833Y-94907545D01*
X142794353Y-95049997D01*
X142794353Y-95050002D01*
X139160322Y-95050002D01*
X140895475Y-93314852D01*
X140930123Y-93300500D01*
X141021960Y-93300500D01*
X141021961Y-93300500D01*
X141021963Y-93300499D01*
X141021965Y-93300499D01*
X141044795Y-93293795D01*
X141160053Y-93259953D01*
X141281128Y-93182143D01*
X141375377Y-93073373D01*
X141435165Y-92942457D01*
X141435165Y-92942455D01*
X141435166Y-92942454D01*
X141455647Y-92800002D01*
X141455647Y-92799997D01*
X141435166Y-92657545D01*
X141430751Y-92647879D01*
X141375377Y-92526627D01*
X141281128Y-92417857D01*
X141160053Y-92340047D01*
X141160050Y-92340046D01*
X141021965Y-92299500D01*
X141021961Y-92299500D01*
X140878039Y-92299500D01*
X140878034Y-92299500D01*
X140739949Y-92340046D01*
X140618871Y-92417857D01*
X140524625Y-92526623D01*
X140524624Y-92526625D01*
X140464833Y-92657545D01*
X140444353Y-92799997D01*
X140444353Y-92800000D01*
X140445637Y-92808934D01*
X140446559Y-92815347D01*
X140437282Y-92851685D01*
X140432705Y-92856966D01*
X138777526Y-94512148D01*
X138742878Y-94526500D01*
X135827087Y-94526500D01*
X135792439Y-94512148D01*
X135790055Y-94509588D01*
X135755628Y-94469857D01*
X135723499Y-94449209D01*
X135634553Y-94392047D01*
X135634550Y-94392046D01*
X135496465Y-94351500D01*
X135496461Y-94351500D01*
X135352539Y-94351500D01*
X135352534Y-94351500D01*
X135214447Y-94392046D01*
X135200989Y-94400695D01*
X135164082Y-94407352D01*
X135133277Y-94385961D01*
X135125500Y-94359472D01*
X135125500Y-91215288D01*
X135125593Y-91213152D01*
X135126053Y-91207884D01*
X135129264Y-91171193D01*
X135118362Y-91130508D01*
X135117900Y-91128424D01*
X135115621Y-91115500D01*
X135110588Y-91086955D01*
X135106539Y-91079943D01*
X135101646Y-91068126D01*
X135099554Y-91060317D01*
X135099554Y-91060316D01*
X135075390Y-91025806D01*
X135074258Y-91024029D01*
X135053194Y-90987545D01*
X135020923Y-90960466D01*
X135019349Y-90959023D01*
X132883224Y-88822898D01*
X132868872Y-88788250D01*
X132883224Y-88753602D01*
X132917872Y-88739250D01*
X136068687Y-88739250D01*
X136103335Y-88753602D01*
X136107561Y-88758421D01*
X136160314Y-88827170D01*
X136171718Y-88842032D01*
X136297159Y-88938286D01*
X136297161Y-88938286D01*
X136297163Y-88938288D01*
X136416329Y-88987648D01*
X136443238Y-88998794D01*
X136600000Y-89019432D01*
X136756762Y-88998794D01*
X136902841Y-88938286D01*
X137028282Y-88842032D01*
X137124536Y-88716591D01*
X137185044Y-88570512D01*
X137205682Y-88413750D01*
X137185044Y-88256988D01*
X137150185Y-88172830D01*
X137124538Y-88110913D01*
X137124535Y-88110908D01*
X137106827Y-88087831D01*
X137028282Y-87985468D01*
X137027638Y-87984974D01*
X136902841Y-87889214D01*
X136902836Y-87889211D01*
X136756761Y-87828705D01*
X136600000Y-87808068D01*
X136443238Y-87828705D01*
X136297163Y-87889211D01*
X136297158Y-87889214D01*
X136171718Y-87985467D01*
X136171717Y-87985468D01*
X136107561Y-88069079D01*
X136075083Y-88087831D01*
X136068687Y-88088250D01*
X132168872Y-88088250D01*
X132134224Y-88073898D01*
X129405858Y-85345532D01*
X129391506Y-85310884D01*
X129391925Y-85304488D01*
X129399499Y-85246960D01*
X129405682Y-85200000D01*
X129385044Y-85043238D01*
X129338031Y-84929738D01*
X129324538Y-84897163D01*
X129324535Y-84897158D01*
X129254537Y-84805935D01*
X129228282Y-84771718D01*
X129102841Y-84675464D01*
X129102836Y-84675461D01*
X128956761Y-84614955D01*
X128800000Y-84594318D01*
X128643238Y-84614955D01*
X128497163Y-84675461D01*
X128497158Y-84675464D01*
X128371718Y-84771717D01*
X128371717Y-84771718D01*
X128275464Y-84897158D01*
X128275461Y-84897163D01*
X128214955Y-85043238D01*
X128194318Y-85200000D01*
X128214955Y-85356759D01*
X128214955Y-85356761D01*
X128214956Y-85356762D01*
X128222361Y-85374639D01*
X128222361Y-85412141D01*
X128196026Y-85438584D01*
X128176783Y-85446646D01*
X128119254Y-85482954D01*
X128119254Y-85482955D01*
X128117304Y-85485703D01*
X128085547Y-85505652D01*
X128048985Y-85497302D01*
X128042703Y-85491996D01*
X127040967Y-84490261D01*
X127039523Y-84488685D01*
X127012453Y-84456424D01*
X126989085Y-84442933D01*
X126975977Y-84435364D01*
X126974182Y-84434221D01*
X126956368Y-84421748D01*
X126939684Y-84410066D01*
X126939683Y-84410065D01*
X126939682Y-84410065D01*
X126931867Y-84407971D01*
X126920048Y-84403075D01*
X126913046Y-84399032D01*
X126913044Y-84399031D01*
X126871580Y-84391720D01*
X126869493Y-84391257D01*
X126842508Y-84384027D01*
X126828807Y-84380356D01*
X126828806Y-84380356D01*
X126786846Y-84384027D01*
X126784710Y-84384120D01*
X122264743Y-84384120D01*
X122230095Y-84369768D01*
X121739852Y-83879525D01*
X121725500Y-83844877D01*
X121725500Y-82900000D01*
X122119678Y-82900000D01*
X122138915Y-83083029D01*
X122195786Y-83258059D01*
X122287805Y-83417440D01*
X122287808Y-83417443D01*
X122410945Y-83554203D01*
X122410948Y-83554205D01*
X122410950Y-83554207D01*
X122559839Y-83662381D01*
X122727966Y-83737236D01*
X122907981Y-83775500D01*
X123092019Y-83775500D01*
X123272034Y-83737236D01*
X123440161Y-83662381D01*
X123589050Y-83554207D01*
X123712195Y-83417440D01*
X123804214Y-83258059D01*
X123861085Y-83083029D01*
X123880322Y-82900000D01*
X124619678Y-82900000D01*
X124638915Y-83083029D01*
X124695786Y-83258059D01*
X124787805Y-83417440D01*
X124787808Y-83417443D01*
X124910945Y-83554203D01*
X124910948Y-83554205D01*
X124910950Y-83554207D01*
X125059839Y-83662381D01*
X125227966Y-83737236D01*
X125407981Y-83775500D01*
X125592019Y-83775500D01*
X125772034Y-83737236D01*
X125940161Y-83662381D01*
X126033250Y-83594748D01*
X127124500Y-83594748D01*
X127136133Y-83653231D01*
X127142246Y-83662379D01*
X127180447Y-83719552D01*
X127206911Y-83737234D01*
X127246769Y-83763867D01*
X127305252Y-83775500D01*
X127305255Y-83775500D01*
X128694745Y-83775500D01*
X128694748Y-83775500D01*
X128753231Y-83763867D01*
X128819552Y-83719552D01*
X128863867Y-83653231D01*
X128875500Y-83594748D01*
X128875500Y-82205252D01*
X128863867Y-82146769D01*
X128832618Y-82100002D01*
X128819552Y-82080447D01*
X128779795Y-82053882D01*
X128753231Y-82036133D01*
X128694748Y-82024500D01*
X127305252Y-82024500D01*
X127246769Y-82036133D01*
X127180447Y-82080447D01*
X127142247Y-82137619D01*
X127136133Y-82146769D01*
X127124500Y-82205252D01*
X127124500Y-83594748D01*
X126033250Y-83594748D01*
X126089050Y-83554207D01*
X126212195Y-83417440D01*
X126304214Y-83258059D01*
X126361085Y-83083029D01*
X126380322Y-82900000D01*
X126361085Y-82716971D01*
X126304214Y-82541941D01*
X126212195Y-82382560D01*
X126155279Y-82319348D01*
X126089054Y-82245796D01*
X126089051Y-82245794D01*
X125940162Y-82137620D01*
X125940161Y-82137619D01*
X125772034Y-82062764D01*
X125772031Y-82062763D01*
X125772027Y-82062762D01*
X125592019Y-82024500D01*
X125407981Y-82024500D01*
X125227972Y-82062762D01*
X125227963Y-82062765D01*
X125059837Y-82137620D01*
X124910948Y-82245794D01*
X124910945Y-82245796D01*
X124787808Y-82382556D01*
X124787802Y-82382564D01*
X124695788Y-82541937D01*
X124695786Y-82541940D01*
X124651503Y-82678230D01*
X124638915Y-82716971D01*
X124619678Y-82900000D01*
X123880322Y-82900000D01*
X123861085Y-82716971D01*
X123804214Y-82541941D01*
X123712195Y-82382560D01*
X123655279Y-82319348D01*
X123589054Y-82245796D01*
X123589051Y-82245794D01*
X123440162Y-82137620D01*
X123440161Y-82137619D01*
X123272034Y-82062764D01*
X123272031Y-82062763D01*
X123272027Y-82062762D01*
X123092019Y-82024500D01*
X122907981Y-82024500D01*
X122727972Y-82062762D01*
X122727963Y-82062765D01*
X122559837Y-82137620D01*
X122410948Y-82245794D01*
X122410945Y-82245796D01*
X122287808Y-82382556D01*
X122287802Y-82382564D01*
X122195788Y-82541937D01*
X122195786Y-82541940D01*
X122151503Y-82678230D01*
X122138915Y-82716971D01*
X122119678Y-82900000D01*
X121725500Y-82900000D01*
X121725500Y-81315288D01*
X121725593Y-81313152D01*
X121728114Y-81284333D01*
X121729264Y-81271193D01*
X121727473Y-81264511D01*
X121718363Y-81230512D01*
X121717900Y-81228424D01*
X121712976Y-81200500D01*
X121710588Y-81186955D01*
X121706539Y-81179943D01*
X121701646Y-81168126D01*
X121699554Y-81160317D01*
X121699554Y-81160316D01*
X121675390Y-81125806D01*
X121674258Y-81124029D01*
X121653194Y-81087545D01*
X121620923Y-81060466D01*
X121619349Y-81059023D01*
X120160326Y-79600000D01*
X122119678Y-79600000D01*
X122138915Y-79783029D01*
X122195786Y-79958059D01*
X122287805Y-80117440D01*
X122287808Y-80117443D01*
X122410945Y-80254203D01*
X122410948Y-80254205D01*
X122410950Y-80254207D01*
X122559839Y-80362381D01*
X122727966Y-80437236D01*
X122907981Y-80475500D01*
X123092019Y-80475500D01*
X123272034Y-80437236D01*
X123440161Y-80362381D01*
X123589050Y-80254207D01*
X123712195Y-80117440D01*
X123804214Y-79958059D01*
X123861085Y-79783029D01*
X123880322Y-79600000D01*
X124619678Y-79600000D01*
X124638915Y-79783029D01*
X124695786Y-79958059D01*
X124787805Y-80117440D01*
X124787808Y-80117443D01*
X124910945Y-80254203D01*
X124910948Y-80254205D01*
X124910950Y-80254207D01*
X125059839Y-80362381D01*
X125227966Y-80437236D01*
X125407981Y-80475500D01*
X125592019Y-80475500D01*
X125772034Y-80437236D01*
X125940161Y-80362381D01*
X126089050Y-80254207D01*
X126212195Y-80117440D01*
X126304214Y-79958059D01*
X126361085Y-79783029D01*
X126380322Y-79600000D01*
X127119678Y-79600000D01*
X127138915Y-79783029D01*
X127195786Y-79958059D01*
X127287805Y-80117440D01*
X127287808Y-80117443D01*
X127410945Y-80254203D01*
X127410948Y-80254205D01*
X127410950Y-80254207D01*
X127559839Y-80362381D01*
X127727966Y-80437236D01*
X127907981Y-80475500D01*
X128092019Y-80475500D01*
X128272034Y-80437236D01*
X128440161Y-80362381D01*
X128589050Y-80254207D01*
X128712195Y-80117440D01*
X128804214Y-79958059D01*
X128861085Y-79783029D01*
X128880322Y-79600000D01*
X128861085Y-79416971D01*
X128804214Y-79241941D01*
X128712195Y-79082560D01*
X128683285Y-79050453D01*
X128589054Y-78945796D01*
X128589051Y-78945794D01*
X128486650Y-78871395D01*
X128440161Y-78837619D01*
X128272034Y-78762764D01*
X128272031Y-78762763D01*
X128272027Y-78762762D01*
X128092019Y-78724500D01*
X127907981Y-78724500D01*
X127727972Y-78762762D01*
X127727963Y-78762765D01*
X127559837Y-78837620D01*
X127410948Y-78945794D01*
X127410945Y-78945796D01*
X127287808Y-79082556D01*
X127287802Y-79082564D01*
X127195788Y-79241937D01*
X127195786Y-79241940D01*
X127144285Y-79400445D01*
X127138915Y-79416971D01*
X127119678Y-79600000D01*
X126380322Y-79600000D01*
X126361085Y-79416971D01*
X126304214Y-79241941D01*
X126212195Y-79082560D01*
X126183285Y-79050453D01*
X126089054Y-78945796D01*
X126089051Y-78945794D01*
X125986650Y-78871395D01*
X125940161Y-78837619D01*
X125772034Y-78762764D01*
X125772031Y-78762763D01*
X125772027Y-78762762D01*
X125592019Y-78724500D01*
X125407981Y-78724500D01*
X125227972Y-78762762D01*
X125227963Y-78762765D01*
X125059837Y-78837620D01*
X124910948Y-78945794D01*
X124910945Y-78945796D01*
X124787808Y-79082556D01*
X124787802Y-79082564D01*
X124695788Y-79241937D01*
X124695786Y-79241940D01*
X124644285Y-79400445D01*
X124638915Y-79416971D01*
X124619678Y-79600000D01*
X123880322Y-79600000D01*
X123861085Y-79416971D01*
X123816967Y-79281191D01*
X123819910Y-79243806D01*
X123828918Y-79231406D01*
X124520474Y-78539852D01*
X124555122Y-78525500D01*
X128444878Y-78525500D01*
X128479526Y-78539852D01*
X130859025Y-80919351D01*
X130860470Y-80920928D01*
X130887544Y-80953193D01*
X130887545Y-80953195D01*
X130910829Y-80966637D01*
X130924029Y-80974258D01*
X130925806Y-80975390D01*
X130960316Y-80999554D01*
X130968128Y-81001646D01*
X130979943Y-81006539D01*
X130986955Y-81010588D01*
X131023419Y-81017017D01*
X131028424Y-81017900D01*
X131030508Y-81018362D01*
X131071193Y-81029264D01*
X131106026Y-81026216D01*
X131113154Y-81025593D01*
X131115290Y-81025500D01*
X131597413Y-81025500D01*
X131632061Y-81039852D01*
X131634445Y-81042412D01*
X131649498Y-81059784D01*
X131668872Y-81082143D01*
X131789947Y-81159953D01*
X131858048Y-81179949D01*
X131928034Y-81200499D01*
X131928037Y-81200499D01*
X131928039Y-81200500D01*
X131928040Y-81200500D01*
X132071960Y-81200500D01*
X132071961Y-81200500D01*
X132071963Y-81200499D01*
X132071965Y-81200499D01*
X132094795Y-81193795D01*
X132210053Y-81159953D01*
X132331128Y-81082143D01*
X132381400Y-81024125D01*
X132414935Y-81007339D01*
X132450519Y-81019182D01*
X132467306Y-81052718D01*
X132463003Y-81076569D01*
X132414834Y-81182042D01*
X132414834Y-81182044D01*
X132394353Y-81324497D01*
X132394353Y-81324502D01*
X132414833Y-81466954D01*
X132439867Y-81521769D01*
X132474623Y-81597873D01*
X132474624Y-81597874D01*
X132474625Y-81597876D01*
X132534445Y-81666912D01*
X132568872Y-81706643D01*
X132689947Y-81784453D01*
X132766785Y-81807014D01*
X132828034Y-81824999D01*
X132828037Y-81824999D01*
X132828039Y-81825000D01*
X132828040Y-81825000D01*
X132971960Y-81825000D01*
X132971961Y-81825000D01*
X132971963Y-81824999D01*
X132971965Y-81824999D01*
X133000899Y-81816503D01*
X133110053Y-81784453D01*
X133231128Y-81706643D01*
X133265555Y-81666912D01*
X133299091Y-81650125D01*
X133302587Y-81650000D01*
X133760210Y-81650000D01*
X133762346Y-81650093D01*
X133770400Y-81650797D01*
X133804307Y-81653764D01*
X133844995Y-81642861D01*
X133847074Y-81642400D01*
X133888545Y-81635088D01*
X133895554Y-81631040D01*
X133907371Y-81626146D01*
X133915184Y-81624054D01*
X133949690Y-81599891D01*
X133951465Y-81598760D01*
X133987955Y-81577694D01*
X134015032Y-81545423D01*
X134016465Y-81543859D01*
X134436091Y-81124233D01*
X134470738Y-81109882D01*
X134505386Y-81124234D01*
X134519738Y-81158882D01*
X134517756Y-81172677D01*
X134517501Y-81173543D01*
X134497020Y-81316001D01*
X134497020Y-81316006D01*
X134517500Y-81458458D01*
X134546414Y-81521769D01*
X134577290Y-81589377D01*
X134577291Y-81589378D01*
X134577292Y-81589380D01*
X134644474Y-81666912D01*
X134671539Y-81698147D01*
X134792614Y-81775957D01*
X134869452Y-81798518D01*
X134930701Y-81816503D01*
X134930704Y-81816503D01*
X134930706Y-81816504D01*
X134930707Y-81816504D01*
X135074627Y-81816504D01*
X135074628Y-81816504D01*
X135074630Y-81816503D01*
X135074632Y-81816503D01*
X135097462Y-81809799D01*
X135212720Y-81775957D01*
X135333795Y-81698147D01*
X135428044Y-81589377D01*
X135487832Y-81458461D01*
X135487832Y-81458459D01*
X135487833Y-81458458D01*
X135508314Y-81316005D01*
X135508314Y-81316002D01*
X135503760Y-81284333D01*
X135513034Y-81247995D01*
X135517606Y-81242718D01*
X136342491Y-80417834D01*
X145250000Y-80417834D01*
X145256401Y-80477372D01*
X145256401Y-80477373D01*
X145306648Y-80612091D01*
X145392811Y-80727188D01*
X145507908Y-80813351D01*
X145642626Y-80863598D01*
X145702166Y-80870000D01*
X146350000Y-80870000D01*
X146350000Y-79955501D01*
X146457685Y-80004680D01*
X146564237Y-80020000D01*
X146635763Y-80020000D01*
X146742315Y-80004680D01*
X146850000Y-79955501D01*
X146850000Y-80870000D01*
X147497834Y-80870000D01*
X147557372Y-80863598D01*
X147557373Y-80863598D01*
X147692091Y-80813351D01*
X147807188Y-80727188D01*
X147893351Y-80612091D01*
X147943598Y-80477373D01*
X147943598Y-80477372D01*
X147950000Y-80417834D01*
X147950000Y-79770000D01*
X147033686Y-79770000D01*
X147059493Y-79729844D01*
X147100000Y-79591889D01*
X147100000Y-79448111D01*
X147059493Y-79310156D01*
X147033686Y-79270000D01*
X147950000Y-79270000D01*
X147950000Y-78622165D01*
X147943598Y-78562627D01*
X147943598Y-78562626D01*
X147893351Y-78427908D01*
X147807188Y-78312811D01*
X147692091Y-78226648D01*
X147557373Y-78176401D01*
X147497834Y-78170000D01*
X146850000Y-78170000D01*
X146850000Y-79084498D01*
X146742315Y-79035320D01*
X146635763Y-79020000D01*
X146564237Y-79020000D01*
X146457685Y-79035320D01*
X146350000Y-79084498D01*
X146350000Y-78170000D01*
X145702166Y-78170000D01*
X145642627Y-78176401D01*
X145642626Y-78176401D01*
X145507908Y-78226648D01*
X145392811Y-78312811D01*
X145306648Y-78427908D01*
X145256401Y-78562626D01*
X145256401Y-78562627D01*
X145250000Y-78622165D01*
X145250000Y-79270000D01*
X146166314Y-79270000D01*
X146140507Y-79310156D01*
X146100000Y-79448111D01*
X146100000Y-79591889D01*
X146140507Y-79729844D01*
X146166314Y-79770000D01*
X145250000Y-79770000D01*
X145250000Y-80417834D01*
X136342491Y-80417834D01*
X136720474Y-80039852D01*
X136755122Y-80025500D01*
X137784710Y-80025500D01*
X137786846Y-80025593D01*
X137794900Y-80026297D01*
X137828807Y-80029264D01*
X137869495Y-80018361D01*
X137871574Y-80017900D01*
X137913045Y-80010588D01*
X137920054Y-80006540D01*
X137931871Y-80001646D01*
X137939684Y-79999554D01*
X137974190Y-79975391D01*
X137975965Y-79974260D01*
X138012455Y-79953194D01*
X138039532Y-79920923D01*
X138040965Y-79919359D01*
X139820474Y-78139852D01*
X139855122Y-78125500D01*
X141397413Y-78125500D01*
X141432061Y-78139852D01*
X141434445Y-78142412D01*
X141468871Y-78182142D01*
X141468872Y-78182143D01*
X141589947Y-78259953D01*
X141666785Y-78282514D01*
X141728034Y-78300499D01*
X141728037Y-78300499D01*
X141728039Y-78300500D01*
X141728040Y-78300500D01*
X141871960Y-78300500D01*
X141871961Y-78300500D01*
X141871963Y-78300499D01*
X141871965Y-78300499D01*
X141894795Y-78293795D01*
X142010053Y-78259953D01*
X142131128Y-78182143D01*
X142225377Y-78073373D01*
X142285165Y-77942457D01*
X142285165Y-77942455D01*
X142285166Y-77942454D01*
X142305647Y-77800002D01*
X142305647Y-77799997D01*
X142285166Y-77657545D01*
X142271629Y-77627903D01*
X142225377Y-77526627D01*
X142223616Y-77524595D01*
X142131128Y-77417857D01*
X142084764Y-77388061D01*
X142010053Y-77340047D01*
X142010050Y-77340046D01*
X141871965Y-77299500D01*
X141871961Y-77299500D01*
X141728039Y-77299500D01*
X141728034Y-77299500D01*
X141589949Y-77340046D01*
X141468871Y-77417857D01*
X141434445Y-77457588D01*
X141400909Y-77474375D01*
X141397413Y-77474500D01*
X139715290Y-77474500D01*
X139713154Y-77474407D01*
X139681808Y-77471664D01*
X139671193Y-77470736D01*
X139671192Y-77470736D01*
X139671191Y-77470736D01*
X139630497Y-77481639D01*
X139628418Y-77482100D01*
X139618120Y-77483916D01*
X139586960Y-77489410D01*
X139586950Y-77489414D01*
X139579945Y-77493458D01*
X139568132Y-77498351D01*
X139560317Y-77500444D01*
X139560317Y-77500445D01*
X139525826Y-77524595D01*
X139524024Y-77525743D01*
X139487544Y-77546806D01*
X139460467Y-77579074D01*
X139459023Y-77580650D01*
X139329002Y-77710670D01*
X139294354Y-77725022D01*
X139259706Y-77710670D01*
X139249782Y-77696378D01*
X139232046Y-77657543D01*
X139194186Y-77574641D01*
X139192425Y-77572609D01*
X139099937Y-77465871D01*
X139087048Y-77457588D01*
X138978862Y-77388061D01*
X138978859Y-77388060D01*
X138840774Y-77347514D01*
X138840770Y-77347514D01*
X138696848Y-77347514D01*
X138696843Y-77347514D01*
X138558758Y-77388060D01*
X138437680Y-77465871D01*
X138403254Y-77505602D01*
X138369718Y-77522389D01*
X138366222Y-77522514D01*
X137267276Y-77522514D01*
X137265140Y-77522421D01*
X137233794Y-77519678D01*
X137223179Y-77518750D01*
X137223178Y-77518750D01*
X137223177Y-77518750D01*
X137182483Y-77529653D01*
X137180404Y-77530114D01*
X137170106Y-77531930D01*
X137138946Y-77537424D01*
X137138936Y-77537428D01*
X137131931Y-77541472D01*
X137120118Y-77546365D01*
X137112303Y-77548458D01*
X137112303Y-77548459D01*
X137077812Y-77572609D01*
X137076010Y-77573757D01*
X137039530Y-77594820D01*
X137012453Y-77627088D01*
X137011008Y-77628664D01*
X135329518Y-79310156D01*
X133655026Y-80984648D01*
X133620378Y-80999000D01*
X133302587Y-80999000D01*
X133267939Y-80984648D01*
X133265555Y-80982088D01*
X133231128Y-80942357D01*
X133217908Y-80933861D01*
X133110053Y-80864547D01*
X133106821Y-80863598D01*
X132971965Y-80824000D01*
X132971961Y-80824000D01*
X132828039Y-80824000D01*
X132828034Y-80824000D01*
X132689949Y-80864546D01*
X132568871Y-80942357D01*
X132518600Y-81000373D01*
X132485063Y-81017160D01*
X132449480Y-81005317D01*
X132432693Y-80971780D01*
X132436995Y-80947932D01*
X132485165Y-80842457D01*
X132485165Y-80842455D01*
X132485166Y-80842454D01*
X132505647Y-80700002D01*
X132505647Y-80699997D01*
X132485166Y-80557545D01*
X132448552Y-80477373D01*
X132425377Y-80426627D01*
X132331128Y-80317857D01*
X132210053Y-80240047D01*
X132210050Y-80240046D01*
X132071965Y-80199500D01*
X132071961Y-80199500D01*
X131928039Y-80199500D01*
X131928034Y-80199500D01*
X131789949Y-80240046D01*
X131668871Y-80317857D01*
X131634445Y-80357588D01*
X131600909Y-80374375D01*
X131597413Y-80374500D01*
X131255122Y-80374500D01*
X131220474Y-80360148D01*
X128840968Y-77980642D01*
X128839523Y-77979065D01*
X128812453Y-77946804D01*
X128789085Y-77933313D01*
X128775974Y-77925743D01*
X128774182Y-77924601D01*
X128756368Y-77912128D01*
X128739684Y-77900446D01*
X128739683Y-77900445D01*
X128739682Y-77900445D01*
X128731867Y-77898351D01*
X128720048Y-77893455D01*
X128713046Y-77889412D01*
X128713044Y-77889411D01*
X128671580Y-77882100D01*
X128669493Y-77881637D01*
X128642508Y-77874407D01*
X128628807Y-77870736D01*
X128628806Y-77870736D01*
X128586846Y-77874407D01*
X128584710Y-77874500D01*
X124415290Y-77874500D01*
X124413154Y-77874407D01*
X124381808Y-77871664D01*
X124371193Y-77870736D01*
X124371192Y-77870736D01*
X124371191Y-77870736D01*
X124330497Y-77881639D01*
X124328418Y-77882100D01*
X124318120Y-77883916D01*
X124286960Y-77889410D01*
X124286950Y-77889414D01*
X124279945Y-77893458D01*
X124268132Y-77898351D01*
X124260317Y-77900444D01*
X124260317Y-77900445D01*
X124225826Y-77924595D01*
X124224024Y-77925743D01*
X124187544Y-77946806D01*
X124160467Y-77979074D01*
X124159023Y-77980650D01*
X123368413Y-78771259D01*
X123333765Y-78785611D01*
X123313837Y-78781375D01*
X123272034Y-78762764D01*
X123272031Y-78762763D01*
X123272027Y-78762762D01*
X123092019Y-78724500D01*
X122907981Y-78724500D01*
X122727972Y-78762762D01*
X122727963Y-78762765D01*
X122559837Y-78837620D01*
X122410948Y-78945794D01*
X122410945Y-78945796D01*
X122287808Y-79082556D01*
X122287802Y-79082564D01*
X122195788Y-79241937D01*
X122195786Y-79241940D01*
X122144285Y-79400445D01*
X122138915Y-79416971D01*
X122119678Y-79600000D01*
X120160326Y-79600000D01*
X119810968Y-79250642D01*
X119809523Y-79249065D01*
X119805110Y-79243806D01*
X119782455Y-79216806D01*
X119782454Y-79216805D01*
X119782453Y-79216804D01*
X119759085Y-79203313D01*
X119745974Y-79195743D01*
X119744182Y-79194601D01*
X119714811Y-79174036D01*
X119709684Y-79170446D01*
X119709683Y-79170445D01*
X119709682Y-79170445D01*
X119701867Y-79168351D01*
X119690048Y-79163455D01*
X119683046Y-79159412D01*
X119683044Y-79159411D01*
X119641580Y-79152100D01*
X119639493Y-79151637D01*
X119612508Y-79144407D01*
X119598807Y-79140736D01*
X119598806Y-79140736D01*
X119556846Y-79144407D01*
X119554710Y-79144500D01*
X111785290Y-79144500D01*
X111783154Y-79144407D01*
X111751808Y-79141664D01*
X111741193Y-79140736D01*
X111741192Y-79140736D01*
X111741191Y-79140736D01*
X111700497Y-79151639D01*
X111698418Y-79152100D01*
X111688120Y-79153916D01*
X111656960Y-79159410D01*
X111656950Y-79159414D01*
X111649945Y-79163458D01*
X111638132Y-79168351D01*
X111630317Y-79170444D01*
X111630317Y-79170445D01*
X111595826Y-79194595D01*
X111594024Y-79195743D01*
X111557544Y-79216806D01*
X111530467Y-79249074D01*
X111529023Y-79250650D01*
X109019526Y-81760148D01*
X108984878Y-81774500D01*
X107202587Y-81774500D01*
X107167939Y-81760148D01*
X107165555Y-81757588D01*
X107131128Y-81717857D01*
X107127403Y-81715463D01*
X107010053Y-81640047D01*
X107010050Y-81640046D01*
X106871965Y-81599500D01*
X106871961Y-81599500D01*
X106728039Y-81599500D01*
X106728034Y-81599500D01*
X106589949Y-81640046D01*
X106589947Y-81640046D01*
X106589947Y-81640047D01*
X106568603Y-81653764D01*
X106468871Y-81717857D01*
X106374625Y-81826623D01*
X106374624Y-81826625D01*
X106314833Y-81957545D01*
X106294353Y-82099997D01*
X106294353Y-82100002D01*
X106314833Y-82242454D01*
X106325557Y-82265935D01*
X106374623Y-82373373D01*
X106374624Y-82373374D01*
X106374625Y-82373376D01*
X106434445Y-82442412D01*
X106468872Y-82482143D01*
X106589947Y-82559953D01*
X106662271Y-82581189D01*
X106728034Y-82600499D01*
X106728037Y-82600499D01*
X106728039Y-82600500D01*
X106728040Y-82600500D01*
X106871960Y-82600500D01*
X106871961Y-82600500D01*
X106871963Y-82600499D01*
X106871965Y-82600499D01*
X106894795Y-82593795D01*
X107010053Y-82559953D01*
X107131128Y-82482143D01*
X107165555Y-82442412D01*
X107199091Y-82425625D01*
X107202587Y-82425500D01*
X109124710Y-82425500D01*
X109126846Y-82425593D01*
X109134900Y-82426297D01*
X109168807Y-82429264D01*
X109209495Y-82418361D01*
X109211574Y-82417900D01*
X109253045Y-82410588D01*
X109260054Y-82406540D01*
X109271871Y-82401646D01*
X109279684Y-82399554D01*
X109314190Y-82375391D01*
X109315965Y-82374260D01*
X109352455Y-82353194D01*
X109379532Y-82320923D01*
X109380965Y-82319359D01*
X111890474Y-79809852D01*
X111925122Y-79795500D01*
X119414878Y-79795500D01*
X119449526Y-79809852D01*
X121060148Y-81420474D01*
X121074500Y-81455122D01*
X121074500Y-83984710D01*
X121074407Y-83986846D01*
X121070736Y-84028807D01*
X121081637Y-84069493D01*
X121082100Y-84071580D01*
X121089411Y-84113044D01*
X121089412Y-84113046D01*
X121093455Y-84120048D01*
X121098351Y-84131867D01*
X121100445Y-84139682D01*
X121100444Y-84139682D01*
X121124601Y-84174182D01*
X121125750Y-84175985D01*
X121146804Y-84212453D01*
X121146806Y-84212455D01*
X121179072Y-84239530D01*
X121180649Y-84240975D01*
X121868650Y-84928977D01*
X121870095Y-84930554D01*
X121897161Y-84962811D01*
X121897164Y-84962813D01*
X121897165Y-84962814D01*
X121933634Y-84983869D01*
X121935433Y-84985015D01*
X121969931Y-85009171D01*
X121969933Y-85009172D01*
X121969936Y-85009174D01*
X121977748Y-85011266D01*
X121989563Y-85016159D01*
X121996575Y-85020208D01*
X122038062Y-85027522D01*
X122040121Y-85027979D01*
X122080813Y-85038883D01*
X122116857Y-85035729D01*
X122122765Y-85035213D01*
X122124901Y-85035120D01*
X126644878Y-85035120D01*
X126679526Y-85049472D01*
X126973546Y-85343492D01*
X126987898Y-85378140D01*
X126973546Y-85412788D01*
X126939290Y-85427138D01*
X122316518Y-85464120D01*
X122316517Y-85464120D01*
X122239632Y-85479709D01*
X122239625Y-85479711D01*
X122205696Y-85493742D01*
X122205695Y-85493742D01*
X122148717Y-85529154D01*
X122148716Y-85529155D01*
X122095104Y-85603252D01*
X122083060Y-85631583D01*
X122081482Y-85635299D01*
X122080432Y-85637768D01*
X122064064Y-85716259D01*
X122064063Y-85716263D01*
X122061477Y-85996671D01*
X122061730Y-86004757D01*
X122061731Y-86004766D01*
X122083366Y-86090308D01*
X122100150Y-86123838D01*
X122100157Y-86123850D01*
X122140847Y-86179375D01*
X122140850Y-86179378D01*
X122171557Y-86198022D01*
X122219023Y-86226844D01*
X122229990Y-86230494D01*
X122234836Y-86232107D01*
X122263180Y-86256666D01*
X122267864Y-86285572D01*
X122264353Y-86309996D01*
X122264353Y-86309998D01*
X122264353Y-86310000D01*
X122266582Y-86325504D01*
X122257305Y-86361842D01*
X122235897Y-86376767D01*
X122236367Y-86377931D01*
X122199034Y-86392993D01*
X122140416Y-86429075D01*
X122140415Y-86429075D01*
X122086803Y-86503173D01*
X122072131Y-86537689D01*
X122055763Y-86616180D01*
X122055762Y-86616184D01*
X122044197Y-87870093D01*
X122044194Y-87871029D01*
X122044194Y-87871037D01*
X122059836Y-87950328D01*
X122074185Y-87984968D01*
X122074186Y-87984970D01*
X122074188Y-87984974D01*
X122101991Y-88029222D01*
X122110815Y-88043265D01*
X122113555Y-88045209D01*
X122133510Y-88076962D01*
X122125167Y-88113525D01*
X122119851Y-88119821D01*
X121489974Y-88749699D01*
X121489969Y-88749704D01*
X121480632Y-88759038D01*
X121479059Y-88760479D01*
X121446805Y-88787545D01*
X121442760Y-88794551D01*
X121434975Y-88804696D01*
X119194526Y-91045148D01*
X119159878Y-91059500D01*
X113588769Y-91059500D01*
X113554121Y-91045148D01*
X113539769Y-91010500D01*
X113539769Y-91010465D01*
X113539805Y-90960468D01*
X113540465Y-90029553D01*
X113538441Y-90019361D01*
X113533041Y-89992160D01*
X113524822Y-89950764D01*
X113510473Y-89916123D01*
X113510474Y-89916123D01*
X113510367Y-89915953D01*
X113473844Y-89857826D01*
X113473843Y-89857825D01*
X113473842Y-89857823D01*
X113399258Y-89804903D01*
X113399125Y-89804848D01*
X113384908Y-89798959D01*
X113364611Y-89790551D01*
X113364605Y-89790549D01*
X113332891Y-89784241D01*
X113285965Y-89774907D01*
X111205975Y-89774907D01*
X111205970Y-89774907D01*
X111148077Y-89783231D01*
X111148075Y-89783231D01*
X111121591Y-89791008D01*
X111121581Y-89791012D01*
X111068382Y-89815308D01*
X111068381Y-89815308D01*
X111049733Y-89827292D01*
X111037050Y-89833084D01*
X111008706Y-89841407D01*
X110969176Y-89853014D01*
X110955372Y-89854999D01*
X110884627Y-89854999D01*
X110870823Y-89853014D01*
X110802952Y-89833086D01*
X110790264Y-89827292D01*
X110771616Y-89815307D01*
X110718418Y-89791012D01*
X110718408Y-89791008D01*
X110691923Y-89783231D01*
X110634029Y-89774907D01*
X110634025Y-89774907D01*
X106018974Y-89774907D01*
X105984326Y-89760555D01*
X105969974Y-89725907D01*
X105984326Y-89691259D01*
X105985842Y-89689890D01*
X105985817Y-89689863D01*
X105987039Y-89688718D01*
X105987053Y-89688708D01*
X106183189Y-89478698D01*
X106348901Y-89243936D01*
X106481104Y-88988797D01*
X106577334Y-88718032D01*
X106577634Y-88716591D01*
X106635798Y-88436687D01*
X106637623Y-88410002D01*
X114164353Y-88410002D01*
X114184833Y-88552454D01*
X114216935Y-88622746D01*
X114244623Y-88683373D01*
X114244624Y-88683374D01*
X114244625Y-88683376D01*
X114310839Y-88759791D01*
X114338872Y-88792143D01*
X114459947Y-88869953D01*
X114536785Y-88892514D01*
X114598034Y-88910499D01*
X114598037Y-88910499D01*
X114598039Y-88910500D01*
X114598040Y-88910500D01*
X114741960Y-88910500D01*
X114741961Y-88910500D01*
X114741963Y-88910499D01*
X114741965Y-88910499D01*
X114764795Y-88903795D01*
X114880053Y-88869953D01*
X115001128Y-88792143D01*
X115095377Y-88683373D01*
X115155165Y-88552457D01*
X115155165Y-88552455D01*
X115155166Y-88552454D01*
X115175647Y-88410002D01*
X115175647Y-88410000D01*
X115175647Y-88409997D01*
X115173440Y-88394653D01*
X115182713Y-88358317D01*
X115187278Y-88353047D01*
X115250476Y-88289850D01*
X115285123Y-88275500D01*
X117514710Y-88275500D01*
X117516846Y-88275593D01*
X117524900Y-88276297D01*
X117558807Y-88279264D01*
X117599495Y-88268361D01*
X117601574Y-88267900D01*
X117643045Y-88260588D01*
X117650054Y-88256540D01*
X117661871Y-88251646D01*
X117669684Y-88249554D01*
X117704190Y-88225391D01*
X117705965Y-88224260D01*
X117742455Y-88203194D01*
X117769532Y-88170923D01*
X117770965Y-88169359D01*
X118400475Y-87539852D01*
X118435123Y-87525500D01*
X118467413Y-87525500D01*
X118502061Y-87539852D01*
X118504445Y-87542412D01*
X118538872Y-87582143D01*
X118659947Y-87659953D01*
X118736785Y-87682514D01*
X118798034Y-87700499D01*
X118798037Y-87700499D01*
X118798039Y-87700500D01*
X118798040Y-87700500D01*
X118941960Y-87700500D01*
X118941961Y-87700500D01*
X118941963Y-87700499D01*
X118941965Y-87700499D01*
X118964795Y-87693795D01*
X119080053Y-87659953D01*
X119201128Y-87582143D01*
X119295377Y-87473373D01*
X119355165Y-87342457D01*
X119355165Y-87342455D01*
X119355166Y-87342454D01*
X119375647Y-87200002D01*
X119375647Y-87199997D01*
X119355166Y-87057545D01*
X119342087Y-87028907D01*
X119295377Y-86926627D01*
X119294350Y-86925442D01*
X119201128Y-86817857D01*
X119080053Y-86740047D01*
X119080050Y-86740046D01*
X118941965Y-86699500D01*
X118941961Y-86699500D01*
X118798039Y-86699500D01*
X118798034Y-86699500D01*
X118659949Y-86740046D01*
X118538871Y-86817857D01*
X118504445Y-86857588D01*
X118470909Y-86874375D01*
X118467413Y-86874500D01*
X118295282Y-86874500D01*
X118293146Y-86874407D01*
X118264893Y-86871935D01*
X118251193Y-86870737D01*
X118251192Y-86870737D01*
X118251191Y-86870737D01*
X118210505Y-86881638D01*
X118208430Y-86882098D01*
X118166955Y-86889412D01*
X118166950Y-86889414D01*
X118159945Y-86893458D01*
X118148132Y-86898351D01*
X118140317Y-86900444D01*
X118140317Y-86900445D01*
X118105823Y-86924597D01*
X118104020Y-86925745D01*
X118067545Y-86946805D01*
X118040472Y-86979068D01*
X118039028Y-86980643D01*
X117409526Y-87610148D01*
X117374878Y-87624500D01*
X115145282Y-87624500D01*
X115143146Y-87624407D01*
X115114893Y-87621935D01*
X115101193Y-87620737D01*
X115101192Y-87620737D01*
X115101191Y-87620737D01*
X115060505Y-87631638D01*
X115058430Y-87632098D01*
X115016955Y-87639412D01*
X115016950Y-87639414D01*
X115009945Y-87643458D01*
X114998132Y-87648351D01*
X114990317Y-87650444D01*
X114990317Y-87650445D01*
X114955823Y-87674597D01*
X114954020Y-87675745D01*
X114917545Y-87696805D01*
X114890472Y-87729068D01*
X114889028Y-87730643D01*
X114724525Y-87895148D01*
X114689877Y-87909500D01*
X114598034Y-87909500D01*
X114459949Y-87950046D01*
X114459947Y-87950046D01*
X114459947Y-87950047D01*
X114422722Y-87973969D01*
X114338871Y-88027857D01*
X114244625Y-88136623D01*
X114244624Y-88136625D01*
X114184833Y-88267545D01*
X114164353Y-88409997D01*
X114164353Y-88410002D01*
X106637623Y-88410002D01*
X106640334Y-88370376D01*
X106655408Y-88150000D01*
X106635798Y-87863314D01*
X106629653Y-87833742D01*
X106577336Y-87581975D01*
X106577334Y-87581968D01*
X106481104Y-87311203D01*
X106348901Y-87056064D01*
X106348899Y-87056061D01*
X106348898Y-87056059D01*
X106257535Y-86926627D01*
X106183189Y-86821302D01*
X105987053Y-86611292D01*
X105987047Y-86611287D01*
X105987045Y-86611284D01*
X105764148Y-86429946D01*
X105764147Y-86429945D01*
X105518625Y-86280639D01*
X105518621Y-86280637D01*
X105518619Y-86280636D01*
X105255059Y-86166156D01*
X104978360Y-86088629D01*
X104693679Y-86049500D01*
X104693678Y-86049500D01*
X104406322Y-86049500D01*
X104406321Y-86049500D01*
X104121639Y-86088629D01*
X103844940Y-86166156D01*
X103581380Y-86280636D01*
X103335851Y-86429946D01*
X103112954Y-86611284D01*
X103112952Y-86611287D01*
X102916815Y-86821297D01*
X102916809Y-86821305D01*
X102751101Y-87056059D01*
X102751097Y-87056067D01*
X102626653Y-87296233D01*
X102618896Y-87311203D01*
X102579475Y-87422121D01*
X102522663Y-87581975D01*
X102464201Y-87863312D01*
X102444592Y-88150000D01*
X102464201Y-88436687D01*
X102522663Y-88718024D01*
X102533922Y-88749704D01*
X102618896Y-88988797D01*
X102746593Y-89235239D01*
X102751097Y-89243932D01*
X102751101Y-89243940D01*
X102776253Y-89279572D01*
X102916811Y-89478698D01*
X103112947Y-89688708D01*
X103112952Y-89688712D01*
X103114183Y-89689863D01*
X103113442Y-89690655D01*
X103129770Y-89720908D01*
X103119029Y-89756839D01*
X103086025Y-89774651D01*
X103081026Y-89774907D01*
X100783965Y-89774907D01*
X100783961Y-89774907D01*
X100783958Y-89774908D01*
X100705397Y-89790520D01*
X100705394Y-89790520D01*
X100705393Y-89790521D01*
X100705391Y-89790521D01*
X100705390Y-89790522D01*
X100670764Y-89804849D01*
X100670764Y-89804850D01*
X100612515Y-89841407D01*
X100559542Y-89915953D01*
X100559540Y-89915957D01*
X100545165Y-89950590D01*
X100545164Y-89950593D01*
X100545164Y-89950594D01*
X100545130Y-89950764D01*
X100529465Y-90029225D01*
X100521235Y-101649854D01*
X100521235Y-101649999D01*
X100519533Y-104050850D01*
X90000000Y-104050850D01*
X90000000Y-100433272D01*
X90014352Y-100398624D01*
X90049000Y-100384272D01*
X90070988Y-100389483D01*
X90191567Y-100450040D01*
X90362279Y-100490500D01*
X90362280Y-100490500D01*
X91493705Y-100490500D01*
X91493709Y-100490500D01*
X91624255Y-100475241D01*
X91789117Y-100415237D01*
X91935696Y-100318830D01*
X92056092Y-100191218D01*
X92114530Y-100090000D01*
X92144283Y-100067170D01*
X92156965Y-100065500D01*
X93940833Y-100065500D01*
X93975481Y-100079852D01*
X93985825Y-100095091D01*
X93995621Y-100117800D01*
X93995623Y-100117805D01*
X94058927Y-100202836D01*
X94100390Y-100258530D01*
X94234786Y-100371302D01*
X94391567Y-100450040D01*
X94562279Y-100490500D01*
X94562280Y-100490500D01*
X95293705Y-100490500D01*
X95293709Y-100490500D01*
X95424255Y-100475241D01*
X95589117Y-100415237D01*
X95735696Y-100318830D01*
X95856092Y-100191218D01*
X95943812Y-100039281D01*
X95994130Y-99871210D01*
X96004331Y-99696065D01*
X95973865Y-99523289D01*
X95904377Y-99362196D01*
X95855869Y-99297039D01*
X95846690Y-99260676D01*
X95846907Y-99259329D01*
X95852636Y-99226837D01*
X95853099Y-99224750D01*
X95853979Y-99221469D01*
X95864000Y-99184071D01*
X95861997Y-99161170D01*
X95860329Y-99142107D01*
X95860236Y-99139971D01*
X95860236Y-89100024D01*
X95860329Y-89097888D01*
X95861996Y-89078830D01*
X95864000Y-89055929D01*
X95853098Y-89015244D01*
X95852636Y-89013160D01*
X95848340Y-88988797D01*
X95848137Y-88987646D01*
X95855551Y-88954201D01*
X95854665Y-88953690D01*
X95879601Y-88910499D01*
X95943812Y-88799281D01*
X95994130Y-88631210D01*
X96004331Y-88456065D01*
X95973865Y-88283289D01*
X95904377Y-88122196D01*
X95895973Y-88110908D01*
X95802586Y-87985468D01*
X95799610Y-87981470D01*
X95795274Y-87977832D01*
X95665214Y-87868698D01*
X95508434Y-87789960D01*
X95508432Y-87789959D01*
X95378180Y-87759089D01*
X95337721Y-87749500D01*
X94606291Y-87749500D01*
X94519260Y-87759672D01*
X94475743Y-87764759D01*
X94475742Y-87764760D01*
X94310883Y-87824762D01*
X94164305Y-87921169D01*
X94164299Y-87921173D01*
X94043910Y-88048778D01*
X94043906Y-88048784D01*
X93985470Y-88150000D01*
X93955717Y-88172830D01*
X93943035Y-88174500D01*
X92159167Y-88174500D01*
X92124519Y-88160148D01*
X92114175Y-88144909D01*
X92104378Y-88122199D01*
X92104376Y-88122194D01*
X92002586Y-87985468D01*
X91999610Y-87981470D01*
X91995274Y-87977832D01*
X91865214Y-87868698D01*
X91708434Y-87789960D01*
X91708432Y-87789959D01*
X91578180Y-87759089D01*
X91537721Y-87749500D01*
X90406291Y-87749500D01*
X90319260Y-87759672D01*
X90275743Y-87764759D01*
X90275742Y-87764760D01*
X90110887Y-87824761D01*
X90110883Y-87824763D01*
X90083054Y-87843067D01*
X90075926Y-87847755D01*
X90039091Y-87854804D01*
X90008061Y-87833742D01*
X90000000Y-87806816D01*
X90000000Y-85985002D01*
X107514353Y-85985002D01*
X107534833Y-86127454D01*
X107552508Y-86166156D01*
X107594623Y-86258373D01*
X107594624Y-86258374D01*
X107594625Y-86258376D01*
X107652792Y-86325504D01*
X107688872Y-86367143D01*
X107809947Y-86444953D01*
X107886785Y-86467514D01*
X107948034Y-86485499D01*
X107948037Y-86485499D01*
X107948039Y-86485500D01*
X107948040Y-86485500D01*
X108091960Y-86485500D01*
X108091961Y-86485500D01*
X108091963Y-86485499D01*
X108091965Y-86485499D01*
X108114795Y-86478795D01*
X108230053Y-86444953D01*
X108351128Y-86367143D01*
X108445377Y-86258373D01*
X108505165Y-86127457D01*
X108505165Y-86127455D01*
X108505166Y-86127454D01*
X108525647Y-85985002D01*
X108525647Y-85984997D01*
X108505166Y-85842545D01*
X108488331Y-85805682D01*
X108445377Y-85711627D01*
X108444301Y-85710385D01*
X108444002Y-85709487D01*
X108443480Y-85708675D01*
X108443687Y-85708541D01*
X108432452Y-85674803D01*
X108446679Y-85643645D01*
X112465474Y-81624852D01*
X112500122Y-81610500D01*
X116939878Y-81610500D01*
X116974526Y-81624852D01*
X118080148Y-82730474D01*
X118094500Y-82765122D01*
X118094500Y-83503085D01*
X118082532Y-83535173D01*
X117994625Y-83636623D01*
X117994624Y-83636625D01*
X117934833Y-83767545D01*
X117914353Y-83909997D01*
X117914353Y-83910002D01*
X117934833Y-84052454D01*
X117942615Y-84069493D01*
X117994623Y-84183373D01*
X117994624Y-84183374D01*
X117994625Y-84183376D01*
X118019822Y-84212455D01*
X118088872Y-84292143D01*
X118209947Y-84369953D01*
X118286785Y-84392514D01*
X118348034Y-84410499D01*
X118348037Y-84410499D01*
X118348039Y-84410500D01*
X118348040Y-84410500D01*
X118491960Y-84410500D01*
X118491961Y-84410500D01*
X118491963Y-84410499D01*
X118491965Y-84410499D01*
X118514795Y-84403795D01*
X118630053Y-84369953D01*
X118751128Y-84292143D01*
X118845377Y-84183373D01*
X118905165Y-84052457D01*
X118905165Y-84052455D01*
X118905166Y-84052454D01*
X118925647Y-83910002D01*
X118925647Y-83909997D01*
X118905166Y-83767545D01*
X118900751Y-83757879D01*
X118845377Y-83636627D01*
X118845374Y-83636623D01*
X118757468Y-83535173D01*
X118745500Y-83503085D01*
X118745500Y-82625288D01*
X118745593Y-82623152D01*
X118746053Y-82617884D01*
X118749264Y-82581193D01*
X118738362Y-82540508D01*
X118737900Y-82538424D01*
X118737017Y-82533419D01*
X118730588Y-82496955D01*
X118726539Y-82489943D01*
X118721646Y-82478126D01*
X118719554Y-82470317D01*
X118719554Y-82470316D01*
X118695390Y-82435806D01*
X118694258Y-82434029D01*
X118678390Y-82406544D01*
X118673195Y-82397546D01*
X118646801Y-82375399D01*
X118640923Y-82370466D01*
X118639349Y-82369023D01*
X117335968Y-81065642D01*
X117334523Y-81064065D01*
X117330931Y-81059784D01*
X117307455Y-81031806D01*
X117307454Y-81031805D01*
X117307453Y-81031804D01*
X117282088Y-81017160D01*
X117270974Y-81010743D01*
X117269182Y-81009601D01*
X117251368Y-80997128D01*
X117234684Y-80985446D01*
X117234683Y-80985445D01*
X117234682Y-80985445D01*
X117226867Y-80983351D01*
X117215048Y-80978455D01*
X117208046Y-80974412D01*
X117208044Y-80974411D01*
X117166580Y-80967100D01*
X117164493Y-80966637D01*
X117137508Y-80959407D01*
X117123807Y-80955736D01*
X117123806Y-80955736D01*
X117081846Y-80959407D01*
X117079710Y-80959500D01*
X112360290Y-80959500D01*
X112358154Y-80959407D01*
X112326808Y-80956664D01*
X112316193Y-80955736D01*
X112316192Y-80955736D01*
X112316191Y-80955736D01*
X112275497Y-80966639D01*
X112273418Y-80967100D01*
X112263120Y-80968916D01*
X112231960Y-80974410D01*
X112231950Y-80974414D01*
X112224945Y-80978458D01*
X112213132Y-80983351D01*
X112205317Y-80985444D01*
X112205317Y-80985445D01*
X112170826Y-81009595D01*
X112169024Y-81010743D01*
X112132544Y-81031806D01*
X112105467Y-81064074D01*
X112104023Y-81065650D01*
X107800648Y-85369025D01*
X107799072Y-85370469D01*
X107766806Y-85397544D01*
X107745743Y-85434024D01*
X107744595Y-85435826D01*
X107720445Y-85470317D01*
X107720444Y-85470317D01*
X107718351Y-85478132D01*
X107713458Y-85489945D01*
X107709414Y-85496950D01*
X107709410Y-85496960D01*
X107702102Y-85538410D01*
X107701639Y-85540497D01*
X107690736Y-85581191D01*
X107690363Y-85585462D01*
X107688262Y-85585278D01*
X107679191Y-85614020D01*
X107678696Y-85614600D01*
X107594625Y-85711623D01*
X107594624Y-85711625D01*
X107534833Y-85842545D01*
X107514353Y-85984997D01*
X107514353Y-85985002D01*
X90000000Y-85985002D01*
X90000000Y-82350000D01*
X99960839Y-82350000D01*
X100001650Y-82484536D01*
X100094506Y-82658258D01*
X100094511Y-82658265D01*
X100219472Y-82810527D01*
X100371734Y-82935488D01*
X100371741Y-82935493D01*
X100545456Y-83028345D01*
X100545468Y-83028350D01*
X100679999Y-83069159D01*
X100680000Y-83069159D01*
X100680000Y-82350000D01*
X99960839Y-82350000D01*
X90000000Y-82350000D01*
X90000000Y-82157306D01*
X100605000Y-82157306D01*
X100644199Y-82265007D01*
X100717871Y-82352805D01*
X100817129Y-82410112D01*
X100901564Y-82425000D01*
X100958436Y-82425000D01*
X101042871Y-82410112D01*
X101142129Y-82352805D01*
X101180000Y-82307672D01*
X101180000Y-83069159D01*
X101314531Y-83028350D01*
X101314543Y-83028345D01*
X101488258Y-82935493D01*
X101488265Y-82935488D01*
X101640198Y-82810799D01*
X101676087Y-82799912D01*
X101679654Y-82800441D01*
X101680252Y-82800500D01*
X102719745Y-82800500D01*
X102719748Y-82800500D01*
X102778231Y-82788867D01*
X102844552Y-82744552D01*
X102888867Y-82678231D01*
X102900500Y-82619748D01*
X102900500Y-81580252D01*
X102888867Y-81521769D01*
X102856646Y-81473548D01*
X102844552Y-81455447D01*
X102804795Y-81428882D01*
X102778231Y-81411133D01*
X102719748Y-81399500D01*
X101680252Y-81399500D01*
X101680250Y-81399500D01*
X101677858Y-81399736D01*
X101677763Y-81398772D01*
X101644054Y-81392062D01*
X101640197Y-81389201D01*
X101488265Y-81264511D01*
X101488258Y-81264506D01*
X101314536Y-81171650D01*
X101180000Y-81130838D01*
X101180000Y-81892327D01*
X101142129Y-81847195D01*
X101042871Y-81789888D01*
X100958436Y-81775000D01*
X100901564Y-81775000D01*
X100817129Y-81789888D01*
X100717871Y-81847195D01*
X100644199Y-81934993D01*
X100605000Y-82042694D01*
X100605000Y-82157306D01*
X90000000Y-82157306D01*
X90000000Y-81850000D01*
X99960838Y-81850000D01*
X100680000Y-81850000D01*
X100680000Y-81130838D01*
X100545463Y-81171650D01*
X100371741Y-81264506D01*
X100371734Y-81264511D01*
X100219472Y-81389472D01*
X100094511Y-81541734D01*
X100094506Y-81541741D01*
X100001650Y-81715463D01*
X99960838Y-81850000D01*
X90000000Y-81850000D01*
X90000000Y-78000000D01*
X90544341Y-78000000D01*
X90564937Y-78235410D01*
X90564938Y-78235416D01*
X90626094Y-78463655D01*
X90626095Y-78463660D01*
X90725963Y-78677827D01*
X90725971Y-78677839D01*
X90861500Y-78871395D01*
X90861506Y-78871402D01*
X91028597Y-79038493D01*
X91028604Y-79038499D01*
X91222160Y-79174028D01*
X91222172Y-79174036D01*
X91436339Y-79273904D01*
X91436344Y-79273905D01*
X91664583Y-79335061D01*
X91664587Y-79335061D01*
X91664592Y-79335063D01*
X91784250Y-79345531D01*
X91841030Y-79350500D01*
X91841034Y-79350500D01*
X91958970Y-79350500D01*
X92011521Y-79345901D01*
X92135408Y-79335063D01*
X92135414Y-79335061D01*
X92135416Y-79335061D01*
X92336456Y-79281193D01*
X92363657Y-79273904D01*
X92363660Y-79273904D01*
X92363660Y-79273903D01*
X92363663Y-79273903D01*
X92577829Y-79174035D01*
X92771401Y-79038495D01*
X92938495Y-78871401D01*
X93001532Y-78781375D01*
X93074029Y-78677840D01*
X93074036Y-78677828D01*
X93127755Y-78562627D01*
X93173903Y-78463663D01*
X93235063Y-78235408D01*
X93255659Y-78000000D01*
X93235063Y-77764592D01*
X93224460Y-77725022D01*
X93173905Y-77536344D01*
X93173904Y-77536339D01*
X93074036Y-77322172D01*
X93074028Y-77322160D01*
X92938499Y-77128604D01*
X92938493Y-77128597D01*
X92771402Y-76961506D01*
X92771395Y-76961500D01*
X92577839Y-76825971D01*
X92577827Y-76825963D01*
X92363660Y-76726095D01*
X92363655Y-76726094D01*
X92135416Y-76664938D01*
X92135410Y-76664937D01*
X91958970Y-76649500D01*
X91958966Y-76649500D01*
X91841034Y-76649500D01*
X91841030Y-76649500D01*
X91664589Y-76664937D01*
X91664583Y-76664938D01*
X91436344Y-76726094D01*
X91436339Y-76726095D01*
X91222172Y-76825963D01*
X91222160Y-76825971D01*
X91028604Y-76961500D01*
X91028597Y-76961506D01*
X90861506Y-77128597D01*
X90861500Y-77128604D01*
X90725970Y-77322159D01*
X90725963Y-77322171D01*
X90626095Y-77536339D01*
X90626094Y-77536344D01*
X90564938Y-77764583D01*
X90564937Y-77764589D01*
X90544341Y-78000000D01*
X90000000Y-78000000D01*
X90000000Y-76049000D01*
X90014352Y-76014352D01*
X90049000Y-76000000D01*
X149451000Y-76000000D01*
X149485648Y-76014352D01*
G37*
%TD.AperFunction*%
%TA.AperFunction,Conductor*%
G36*
X128522611Y-96007009D02*
G01*
X128536963Y-96041577D01*
X128549920Y-104001298D01*
X128535625Y-104035970D01*
X128501300Y-104050377D01*
X122149837Y-104099613D01*
X122115078Y-104085530D01*
X122107181Y-104066876D01*
X122100369Y-104060000D01*
X122320000Y-104060000D01*
X122320000Y-101650000D01*
X123944592Y-101650000D01*
X123964201Y-101936687D01*
X124022663Y-102218024D01*
X124022666Y-102218032D01*
X124118896Y-102488797D01*
X124118900Y-102488804D01*
X124251097Y-102743932D01*
X124251101Y-102743940D01*
X124333955Y-102861317D01*
X124416811Y-102978698D01*
X124612947Y-103188708D01*
X124612952Y-103188712D01*
X124612954Y-103188715D01*
X124786318Y-103329755D01*
X124835853Y-103370055D01*
X125081375Y-103519361D01*
X125344942Y-103633844D01*
X125621642Y-103711371D01*
X125852357Y-103743082D01*
X125906321Y-103750500D01*
X125906322Y-103750500D01*
X126193679Y-103750500D01*
X126239043Y-103744264D01*
X126478358Y-103711371D01*
X126755058Y-103633844D01*
X127018625Y-103519361D01*
X127264147Y-103370055D01*
X127421751Y-103241834D01*
X127487045Y-103188715D01*
X127487045Y-103188713D01*
X127487053Y-103188708D01*
X127683189Y-102978698D01*
X127848901Y-102743936D01*
X127981104Y-102488797D01*
X128077334Y-102218032D01*
X128135798Y-101936686D01*
X128155408Y-101650000D01*
X128135798Y-101363314D01*
X128135798Y-101363312D01*
X128077336Y-101081975D01*
X128077334Y-101081968D01*
X127981104Y-100811203D01*
X127848901Y-100556064D01*
X127848899Y-100556061D01*
X127848898Y-100556059D01*
X127795637Y-100480605D01*
X127683189Y-100321302D01*
X127487053Y-100111292D01*
X127487047Y-100111287D01*
X127487045Y-100111284D01*
X127264148Y-99929946D01*
X127264147Y-99929945D01*
X127018625Y-99780639D01*
X127018621Y-99780637D01*
X127018619Y-99780636D01*
X126755059Y-99666156D01*
X126478360Y-99588629D01*
X126193679Y-99549500D01*
X126193678Y-99549500D01*
X125906322Y-99549500D01*
X125906321Y-99549500D01*
X125621639Y-99588629D01*
X125344940Y-99666156D01*
X125081380Y-99780636D01*
X124835851Y-99929946D01*
X124612954Y-100111284D01*
X124612952Y-100111287D01*
X124416815Y-100321297D01*
X124416809Y-100321305D01*
X124251101Y-100556059D01*
X124251097Y-100556067D01*
X124118900Y-100811195D01*
X124118896Y-100811204D01*
X124022663Y-101081975D01*
X123964201Y-101363312D01*
X123944592Y-101650000D01*
X122320000Y-101650000D01*
X122320000Y-98525500D01*
X125784710Y-98525500D01*
X125786846Y-98525593D01*
X125794900Y-98526297D01*
X125828807Y-98529264D01*
X125869495Y-98518361D01*
X125871574Y-98517900D01*
X125913045Y-98510588D01*
X125920054Y-98506540D01*
X125931871Y-98501646D01*
X125939684Y-98499554D01*
X125974190Y-98475391D01*
X125975965Y-98474260D01*
X126012455Y-98453194D01*
X126039532Y-98420923D01*
X126040965Y-98419359D01*
X128453318Y-96007007D01*
X128487963Y-95992657D01*
X128522611Y-96007009D01*
G37*
%TD.AperFunction*%
%TA.AperFunction,Conductor*%
G36*
X127274368Y-85644316D02*
G01*
X127274585Y-85644531D01*
X127742400Y-86112347D01*
X128193021Y-86562968D01*
X128207373Y-86597616D01*
X128206954Y-86604011D01*
X128194318Y-86699999D01*
X128214955Y-86856761D01*
X128275461Y-87002836D01*
X128275464Y-87002841D01*
X128371718Y-87128282D01*
X128497159Y-87224536D01*
X128497169Y-87224540D01*
X128498184Y-87225127D01*
X128498548Y-87225601D01*
X128499707Y-87226491D01*
X128499468Y-87226801D01*
X128521012Y-87254882D01*
X128522681Y-87267481D01*
X128523532Y-87790156D01*
X128509237Y-87824828D01*
X128474612Y-87839236D01*
X128439940Y-87824941D01*
X128426400Y-87799418D01*
X128379197Y-87551967D01*
X128285875Y-87264755D01*
X128157295Y-86991510D01*
X128157287Y-86991494D01*
X127995482Y-86736529D01*
X127914687Y-86638865D01*
X127914686Y-86638865D01*
X127202295Y-87351256D01*
X127179666Y-87314504D01*
X127022217Y-87135607D01*
X126849940Y-86996504D01*
X127563433Y-86283012D01*
X127338527Y-86119607D01*
X127073893Y-85974123D01*
X126793108Y-85862952D01*
X126500603Y-85787849D01*
X126200997Y-85750000D01*
X125899002Y-85750000D01*
X125599396Y-85787849D01*
X125306891Y-85862952D01*
X125026106Y-85974123D01*
X124761471Y-86119608D01*
X124761465Y-86119612D01*
X124536564Y-86283011D01*
X125252671Y-86999118D01*
X125167312Y-87056812D01*
X124995259Y-87221711D01*
X124898706Y-87352259D01*
X124185312Y-86638865D01*
X124185311Y-86638865D01*
X124104517Y-86736529D01*
X123942712Y-86991494D01*
X123942704Y-86991510D01*
X123814124Y-87264755D01*
X123720802Y-87551967D01*
X123664216Y-87848608D01*
X123645255Y-88149995D01*
X123645255Y-88150004D01*
X123664216Y-88451391D01*
X123720802Y-88748032D01*
X123814124Y-89035244D01*
X123942704Y-89308489D01*
X123942712Y-89308505D01*
X124104517Y-89563470D01*
X124185311Y-89661133D01*
X124185312Y-89661133D01*
X124897703Y-88948742D01*
X124920334Y-88985496D01*
X125077783Y-89164393D01*
X125250057Y-89303494D01*
X124536565Y-90016986D01*
X124761472Y-90180392D01*
X125026106Y-90325876D01*
X125306891Y-90437047D01*
X125599396Y-90512150D01*
X125899002Y-90549999D01*
X125899006Y-90550000D01*
X126200994Y-90550000D01*
X126200997Y-90549999D01*
X126500603Y-90512150D01*
X126793108Y-90437047D01*
X127073893Y-90325876D01*
X127338527Y-90180392D01*
X127563433Y-90016986D01*
X126847328Y-89300881D01*
X126932688Y-89243188D01*
X127104741Y-89078289D01*
X127201293Y-88947741D01*
X127914685Y-89661133D01*
X127914686Y-89661133D01*
X127995477Y-89563478D01*
X127995482Y-89563470D01*
X128157287Y-89308505D01*
X128157295Y-89308489D01*
X128285875Y-89035244D01*
X128379197Y-88748031D01*
X128427561Y-88494494D01*
X128448151Y-88463148D01*
X128484874Y-88455543D01*
X128516220Y-88476133D01*
X128524693Y-88503595D01*
X128533259Y-93766037D01*
X128518964Y-93800709D01*
X128518907Y-93800765D01*
X127403276Y-94916398D01*
X127368628Y-94930750D01*
X127276784Y-94930750D01*
X127138699Y-94971296D01*
X127017621Y-95049107D01*
X126923375Y-95157873D01*
X126923374Y-95157875D01*
X126863583Y-95288795D01*
X126843103Y-95431247D01*
X126843103Y-95431252D01*
X126863583Y-95573704D01*
X126886963Y-95624897D01*
X126923373Y-95704623D01*
X126923374Y-95704624D01*
X126923375Y-95704626D01*
X127017621Y-95813392D01*
X127017622Y-95813393D01*
X127138697Y-95891203D01*
X127215535Y-95913764D01*
X127276784Y-95931749D01*
X127276787Y-95931749D01*
X127276789Y-95931750D01*
X127276790Y-95931750D01*
X127420710Y-95931750D01*
X127420711Y-95931750D01*
X127420713Y-95931749D01*
X127420715Y-95931749D01*
X127501539Y-95908017D01*
X127538827Y-95912026D01*
X127562359Y-95941227D01*
X127558350Y-95978515D01*
X127549992Y-95989680D01*
X125679526Y-97860148D01*
X125644878Y-97874500D01*
X122320000Y-97874500D01*
X122320000Y-91370000D01*
X122217422Y-91370000D01*
X122239834Y-88940335D01*
X122254182Y-88906142D01*
X122989362Y-88170962D01*
X122990912Y-88169541D01*
X123023194Y-88142455D01*
X123044260Y-88105965D01*
X123045391Y-88104190D01*
X123069554Y-88069684D01*
X123071646Y-88061871D01*
X123076540Y-88050054D01*
X123080588Y-88043045D01*
X123087900Y-88001570D01*
X123088363Y-87999484D01*
X123099264Y-87958806D01*
X123095593Y-87916842D01*
X123095500Y-87914706D01*
X123095500Y-86716914D01*
X123107468Y-86684826D01*
X123194655Y-86584206D01*
X123195377Y-86583373D01*
X123255165Y-86452457D01*
X123255165Y-86452455D01*
X123255166Y-86452454D01*
X123275647Y-86310002D01*
X123275647Y-86309997D01*
X123255166Y-86167545D01*
X123233275Y-86119612D01*
X123195377Y-86036627D01*
X123141217Y-85974123D01*
X123101128Y-85927857D01*
X122980053Y-85850047D01*
X122980050Y-85850046D01*
X122841965Y-85809500D01*
X122841961Y-85809500D01*
X122698039Y-85809500D01*
X122698034Y-85809500D01*
X122559949Y-85850046D01*
X122559947Y-85850046D01*
X122559947Y-85850047D01*
X122522722Y-85873969D01*
X122438871Y-85927857D01*
X122353037Y-86026915D01*
X122319501Y-86043702D01*
X122283917Y-86031859D01*
X122267130Y-85998323D01*
X122267007Y-85994398D01*
X122269555Y-85718158D01*
X122284226Y-85683646D01*
X122318159Y-85669614D01*
X127239608Y-85630243D01*
X127274368Y-85644316D01*
G37*
%TD.AperFunction*%
%TA.AperFunction,Conductor*%
G36*
X121360148Y-91384352D02*
G01*
X121374500Y-91419000D01*
X121374500Y-93993085D01*
X121362532Y-94025173D01*
X121315301Y-94079680D01*
X121281764Y-94096467D01*
X121246181Y-94084624D01*
X121232099Y-94064002D01*
X121231801Y-94063166D01*
X121231104Y-94061203D01*
X121098901Y-93806064D01*
X121098899Y-93806061D01*
X121098898Y-93806059D01*
X121045637Y-93730605D01*
X120933189Y-93571302D01*
X120737053Y-93361292D01*
X120737047Y-93361287D01*
X120737045Y-93361284D01*
X120514148Y-93179946D01*
X120514147Y-93179945D01*
X120268625Y-93030639D01*
X120268621Y-93030637D01*
X120268619Y-93030636D01*
X120005059Y-92916156D01*
X119728360Y-92838629D01*
X119443679Y-92799500D01*
X119443678Y-92799500D01*
X119156322Y-92799500D01*
X119156321Y-92799500D01*
X118871639Y-92838629D01*
X118594940Y-92916156D01*
X118331380Y-93030636D01*
X118085851Y-93179946D01*
X117862954Y-93361284D01*
X117862952Y-93361287D01*
X117666815Y-93571297D01*
X117666809Y-93571305D01*
X117501101Y-93806059D01*
X117501099Y-93806064D01*
X117368896Y-94061203D01*
X117360572Y-94084624D01*
X117272663Y-94331975D01*
X117214201Y-94613312D01*
X117194592Y-94900000D01*
X117214201Y-95186687D01*
X117272663Y-95468024D01*
X117272666Y-95468032D01*
X117368896Y-95738797D01*
X117368900Y-95738804D01*
X117501097Y-95993932D01*
X117501101Y-95993940D01*
X117583955Y-96111317D01*
X117666811Y-96228698D01*
X117862947Y-96438708D01*
X117862952Y-96438712D01*
X117862954Y-96438715D01*
X118036318Y-96579755D01*
X118085853Y-96620055D01*
X118331375Y-96769361D01*
X118594942Y-96883844D01*
X118871642Y-96961371D01*
X119102357Y-96993082D01*
X119156321Y-97000500D01*
X119156322Y-97000500D01*
X119443679Y-97000500D01*
X119489043Y-96994264D01*
X119728358Y-96961371D01*
X120005058Y-96883844D01*
X120268625Y-96769361D01*
X120514147Y-96620055D01*
X120671751Y-96491834D01*
X120737045Y-96438715D01*
X120737045Y-96438713D01*
X120737053Y-96438708D01*
X120933189Y-96228698D01*
X121098901Y-95993936D01*
X121231104Y-95738797D01*
X121327334Y-95468032D01*
X121385798Y-95186686D01*
X121405408Y-94900000D01*
X121405310Y-94898577D01*
X121417255Y-94863029D01*
X121450839Y-94846338D01*
X121480685Y-94854000D01*
X121489947Y-94859953D01*
X121543175Y-94875582D01*
X121628034Y-94900499D01*
X121628037Y-94900499D01*
X121628039Y-94900500D01*
X121628040Y-94900500D01*
X121771960Y-94900500D01*
X121771961Y-94900500D01*
X121771963Y-94900499D01*
X121771965Y-94900499D01*
X121794795Y-94893795D01*
X121910053Y-94859953D01*
X122031128Y-94782143D01*
X122125377Y-94673373D01*
X122185165Y-94542457D01*
X122185165Y-94542455D01*
X122185166Y-94542454D01*
X122205647Y-94400002D01*
X122205647Y-94399997D01*
X122185166Y-94257545D01*
X122180751Y-94247879D01*
X122125377Y-94126627D01*
X122125374Y-94126623D01*
X122037468Y-94025173D01*
X122025500Y-93993085D01*
X122025500Y-91419000D01*
X122039852Y-91384352D01*
X122074500Y-91370000D01*
X122217422Y-91370000D01*
X122320000Y-91370000D01*
X122320000Y-97874500D01*
X118542587Y-97874500D01*
X118507939Y-97860148D01*
X118505555Y-97857588D01*
X118471128Y-97817857D01*
X118350053Y-97740047D01*
X118350050Y-97740046D01*
X118211965Y-97699500D01*
X118211961Y-97699500D01*
X118068039Y-97699500D01*
X118068034Y-97699500D01*
X117929949Y-97740046D01*
X117808871Y-97817857D01*
X117714625Y-97926623D01*
X117714624Y-97926625D01*
X117654833Y-98057545D01*
X117634353Y-98199997D01*
X117634353Y-98200002D01*
X117654833Y-98342454D01*
X117665249Y-98365261D01*
X117714623Y-98473373D01*
X117714624Y-98473374D01*
X117714625Y-98473376D01*
X117759791Y-98525500D01*
X117808872Y-98582143D01*
X117929947Y-98659953D01*
X118006785Y-98682514D01*
X118068034Y-98700499D01*
X118068037Y-98700499D01*
X118068039Y-98700500D01*
X118068040Y-98700500D01*
X118211960Y-98700500D01*
X118211961Y-98700500D01*
X118211963Y-98700499D01*
X118211965Y-98700499D01*
X118234795Y-98693795D01*
X118350053Y-98659953D01*
X118471128Y-98582143D01*
X118505555Y-98542412D01*
X118539091Y-98525625D01*
X118542587Y-98525500D01*
X122320000Y-98525500D01*
X122320000Y-104060000D01*
X110920000Y-104060000D01*
X110920000Y-96968017D01*
X111120204Y-96995535D01*
X111156321Y-97000500D01*
X111156322Y-97000500D01*
X111443679Y-97000500D01*
X111489043Y-96994264D01*
X111728358Y-96961371D01*
X112005058Y-96883844D01*
X112268625Y-96769361D01*
X112514147Y-96620055D01*
X112671751Y-96491834D01*
X112737045Y-96438715D01*
X112737045Y-96438713D01*
X112737053Y-96438708D01*
X112933189Y-96228698D01*
X113098901Y-95993936D01*
X113231104Y-95738797D01*
X113327334Y-95468032D01*
X113385798Y-95186686D01*
X113405408Y-94900000D01*
X113385798Y-94613314D01*
X113371074Y-94542457D01*
X113327336Y-94331975D01*
X113327334Y-94331968D01*
X113231104Y-94061203D01*
X113098901Y-93806064D01*
X113098899Y-93806061D01*
X113098898Y-93806059D01*
X113045637Y-93730605D01*
X112933189Y-93571302D01*
X112737053Y-93361292D01*
X112737047Y-93361287D01*
X112737045Y-93361284D01*
X112514148Y-93179946D01*
X112514147Y-93179945D01*
X112268625Y-93030639D01*
X112268621Y-93030637D01*
X112268619Y-93030636D01*
X112005059Y-92916156D01*
X111728360Y-92838629D01*
X111443679Y-92799500D01*
X111443678Y-92799500D01*
X111156322Y-92799500D01*
X111156321Y-92799500D01*
X110920000Y-92831982D01*
X110920000Y-91710500D01*
X119299710Y-91710500D01*
X119301846Y-91710593D01*
X119309900Y-91711297D01*
X119343807Y-91714264D01*
X119384495Y-91703361D01*
X119386574Y-91702900D01*
X119428045Y-91695588D01*
X119435054Y-91691540D01*
X119446871Y-91686646D01*
X119454684Y-91684554D01*
X119489190Y-91660391D01*
X119490965Y-91659260D01*
X119527455Y-91638194D01*
X119554532Y-91605923D01*
X119555965Y-91604359D01*
X119775973Y-91384351D01*
X119810621Y-91370000D01*
X121325500Y-91370000D01*
X121360148Y-91384352D01*
G37*
%TD.AperFunction*%
M02*
