%TF.GenerationSoftware,KiCad,Pcbnew,8.0.2-1*%
%TF.CreationDate,2025-01-23T13:43:47+09:00*%
%TF.ProjectId,gas_nrf52832,6761735f-6e72-4663-9532-3833322e6b69,rev?*%
%TF.SameCoordinates,Original*%
%TF.FileFunction,Copper,L4,Bot*%
%TF.FilePolarity,Positive*%
%FSLAX46Y46*%
G04 Gerber Fmt 4.6, Leading zero omitted, Abs format (unit mm)*
G04 Created by KiCad (PCBNEW 8.0.2-1) date 2025-01-23 13:43:47*
%MOMM*%
%LPD*%
G01*
G04 APERTURE LIST*
G04 Aperture macros list*
%AMRoundRect*
0 Rectangle with rounded corners*
0 $1 Rounding radius*
0 $2 $3 $4 $5 $6 $7 $8 $9 X,Y pos of 4 corners*
0 Add a 4 corners polygon primitive as box body*
4,1,4,$2,$3,$4,$5,$6,$7,$8,$9,$2,$3,0*
0 Add four circle primitives for the rounded corners*
1,1,$1+$1,$2,$3*
1,1,$1+$1,$4,$5*
1,1,$1+$1,$6,$7*
1,1,$1+$1,$8,$9*
0 Add four rect primitives between the rounded corners*
20,1,$1+$1,$2,$3,$4,$5,0*
20,1,$1+$1,$4,$5,$6,$7,0*
20,1,$1+$1,$6,$7,$8,$9,0*
20,1,$1+$1,$8,$9,$2,$3,0*%
G04 Aperture macros list end*
%TA.AperFunction,ComponentPad*%
%ADD10C,1.400000*%
%TD*%
%TA.AperFunction,ComponentPad*%
%ADD11R,1.000000X1.000000*%
%TD*%
%TA.AperFunction,ComponentPad*%
%ADD12O,1.000000X1.000000*%
%TD*%
%TA.AperFunction,ComponentPad*%
%ADD13R,1.700000X1.700000*%
%TD*%
%TA.AperFunction,ComponentPad*%
%ADD14O,1.700000X1.700000*%
%TD*%
%TA.AperFunction,ComponentPad*%
%ADD15R,1.508000X1.508000*%
%TD*%
%TA.AperFunction,ComponentPad*%
%ADD16C,1.508000*%
%TD*%
%TA.AperFunction,ComponentPad*%
%ADD17C,1.950000*%
%TD*%
%TA.AperFunction,ComponentPad*%
%ADD18O,1.100000X0.700000*%
%TD*%
%TA.AperFunction,ComponentPad*%
%ADD19O,1.700000X0.950000*%
%TD*%
%TA.AperFunction,SMDPad,CuDef*%
%ADD20RoundRect,0.135000X-0.135000X-0.185000X0.135000X-0.185000X0.135000X0.185000X-0.135000X0.185000X0*%
%TD*%
%TA.AperFunction,SMDPad,CuDef*%
%ADD21R,0.492000X0.300000*%
%TD*%
%TA.AperFunction,SMDPad,CuDef*%
%ADD22RoundRect,0.125000X0.137500X-0.125000X0.137500X0.125000X-0.137500X0.125000X-0.137500X-0.125000X0*%
%TD*%
%TA.AperFunction,SMDPad,CuDef*%
%ADD23RoundRect,0.135000X0.135000X0.185000X-0.135000X0.185000X-0.135000X-0.185000X0.135000X-0.185000X0*%
%TD*%
%TA.AperFunction,ComponentPad*%
%ADD24C,3.800000*%
%TD*%
%TA.AperFunction,SMDPad,CuDef*%
%ADD25RoundRect,0.140000X0.140000X0.170000X-0.140000X0.170000X-0.140000X-0.170000X0.140000X-0.170000X0*%
%TD*%
%TA.AperFunction,SMDPad,CuDef*%
%ADD26RoundRect,0.135000X0.185000X-0.135000X0.185000X0.135000X-0.185000X0.135000X-0.185000X-0.135000X0*%
%TD*%
%TA.AperFunction,SMDPad,CuDef*%
%ADD27RoundRect,0.140000X-0.140000X-0.170000X0.140000X-0.170000X0.140000X0.170000X-0.140000X0.170000X0*%
%TD*%
%TA.AperFunction,ViaPad*%
%ADD28C,0.600000*%
%TD*%
%TA.AperFunction,ViaPad*%
%ADD29C,0.700000*%
%TD*%
%TA.AperFunction,Conductor*%
%ADD30C,0.300000*%
%TD*%
%TA.AperFunction,Conductor*%
%ADD31C,0.500000*%
%TD*%
%TA.AperFunction,Conductor*%
%ADD32C,0.400000*%
%TD*%
%TA.AperFunction,Conductor*%
%ADD33C,0.200000*%
%TD*%
G04 APERTURE END LIST*
D10*
X128100000Y-110250000D03*
X130640000Y-110250000D03*
D11*
X104860000Y-110260000D03*
D12*
X104860000Y-108990000D03*
D13*
X160710000Y-134610000D03*
D14*
X160710000Y-132070000D03*
X160710000Y-129530000D03*
D13*
X160330000Y-107030000D03*
D14*
X160330000Y-109570000D03*
X160330000Y-112110000D03*
D15*
X119250000Y-105500000D03*
D16*
X123750000Y-105500000D03*
D17*
X118000000Y-108000000D03*
X125000000Y-108000000D03*
D10*
X134500000Y-110250000D03*
X137040000Y-110250000D03*
D18*
X104650000Y-118550000D03*
X104650000Y-126350000D03*
X104650000Y-123450000D03*
X104650000Y-115650000D03*
D19*
X101050000Y-115300000D03*
X101050000Y-126700000D03*
D20*
X151434000Y-105155000D03*
X152454000Y-105155000D03*
D21*
X154134000Y-106230000D03*
X154134000Y-106730000D03*
X154134000Y-107230000D03*
X152466000Y-107230000D03*
X152466000Y-106730000D03*
X152466000Y-106230000D03*
D22*
X156195000Y-132840000D03*
X156195000Y-132040000D03*
X156195000Y-131240000D03*
X156195000Y-130440000D03*
X153820000Y-130440000D03*
X153820000Y-131240000D03*
X153820000Y-132040000D03*
X153820000Y-132840000D03*
D23*
X153170000Y-108520000D03*
X152150000Y-108520000D03*
D24*
X115227029Y-125772971D03*
X124772971Y-116227029D03*
X124772971Y-125772971D03*
D25*
X156120000Y-133965000D03*
X155160000Y-133965000D03*
D26*
X155380000Y-108250000D03*
X155380000Y-107230000D03*
D27*
X152865000Y-133965000D03*
X153825000Y-133965000D03*
D24*
X136227029Y-125772971D03*
X136227029Y-116227029D03*
X145772971Y-125772971D03*
D28*
X145000000Y-102500000D03*
X102500000Y-135000000D03*
X112500000Y-135000000D03*
X153000000Y-141000000D03*
X108780000Y-107595000D03*
X161720000Y-127300000D03*
X152700000Y-123552500D03*
X130000000Y-105000000D03*
X102500000Y-112500000D03*
X139200000Y-118740000D03*
X138000000Y-141000000D03*
X124590000Y-129900000D03*
X113000000Y-141000000D03*
X146300000Y-118552500D03*
X130360000Y-128860000D03*
X155000000Y-102500000D03*
X132500000Y-122500000D03*
X107730000Y-104845000D03*
X147190000Y-122350000D03*
X148000000Y-141000000D03*
X117860000Y-132490000D03*
X109330000Y-102745000D03*
X111655000Y-108845000D03*
X108000000Y-141000000D03*
X141100000Y-124910000D03*
X133000000Y-141000000D03*
X107500000Y-130000000D03*
X107970000Y-119620000D03*
X158000000Y-141000000D03*
X112500000Y-120000000D03*
X113470000Y-107840000D03*
X150270000Y-112450000D03*
X123000000Y-141000000D03*
X152950000Y-114100000D03*
X156940000Y-133960000D03*
X152870000Y-134830000D03*
X155665000Y-110725000D03*
X107500000Y-135000000D03*
X110405000Y-112820000D03*
X133490000Y-130510000D03*
X142500000Y-135000000D03*
X141760000Y-123210000D03*
X108780000Y-106095000D03*
X150000000Y-102500000D03*
X102500000Y-107500000D03*
X143000000Y-141000000D03*
X102500000Y-130000000D03*
X112605000Y-112120000D03*
X157050000Y-132850000D03*
X140000000Y-105000000D03*
X152970000Y-130440000D03*
X107605000Y-110945000D03*
X110380000Y-106095000D03*
X118000000Y-141000000D03*
X157700000Y-118552500D03*
X155200000Y-121052500D03*
X128000000Y-141000000D03*
X127500000Y-115000000D03*
X160000000Y-102500000D03*
X150400000Y-116052500D03*
X120660000Y-128940000D03*
X146300000Y-117052500D03*
D29*
X150400000Y-125952500D03*
D28*
X113580000Y-102610000D03*
X110380000Y-107595000D03*
X156660915Y-112498324D03*
X108405000Y-113465000D03*
D29*
X161800000Y-117652500D03*
D28*
X147500000Y-135000000D03*
X107960000Y-122310000D03*
X112605000Y-110920000D03*
X132500000Y-115000000D03*
X124330000Y-132510000D03*
X135000000Y-105000000D03*
X142500000Y-115000000D03*
X152940000Y-132040000D03*
X112500000Y-130000000D03*
D29*
X109390000Y-111760000D03*
X124830000Y-111740000D03*
X139250000Y-124070000D03*
X129540000Y-119880000D03*
X134440000Y-136770000D03*
X155160000Y-134990000D03*
X117920000Y-133460000D03*
X149310000Y-114550000D03*
X114570000Y-111360000D03*
D28*
X110930000Y-103695000D03*
X112530000Y-107095000D03*
X109090000Y-103650000D03*
X141050000Y-108830000D03*
X110245380Y-110229620D03*
X155380000Y-109070000D03*
X106450000Y-106360000D03*
X154800000Y-118910000D03*
X126830000Y-134650000D03*
X155140000Y-129220000D03*
X153550000Y-109490000D03*
X155770000Y-128500000D03*
X145910000Y-113830000D03*
X153110000Y-118100000D03*
X120870000Y-126860000D03*
X151840000Y-120050000D03*
X132200000Y-127520000D03*
D29*
X115100000Y-118060000D03*
D30*
X156935000Y-133965000D02*
X156940000Y-133960000D01*
X152865000Y-133965000D02*
X152865000Y-134825000D01*
X153820000Y-130440000D02*
X152970000Y-130440000D01*
X156195000Y-132840000D02*
X157040000Y-132840000D01*
X153820000Y-132040000D02*
X152940000Y-132040000D01*
X156120000Y-133965000D02*
X156935000Y-133965000D01*
X157040000Y-132840000D02*
X157050000Y-132850000D01*
X152865000Y-134825000D02*
X152870000Y-134830000D01*
D31*
X109390000Y-111760000D02*
X111184339Y-111760000D01*
D30*
X151434000Y-106794000D02*
X151870000Y-107230000D01*
D31*
X111184339Y-111760000D02*
X112294339Y-112870000D01*
X143719000Y-112870000D02*
X151434000Y-105155000D01*
D30*
X151870000Y-107230000D02*
X152466000Y-107230000D01*
D31*
X112294339Y-112870000D02*
X143719000Y-112870000D01*
D30*
X151434000Y-105155000D02*
X151434000Y-106794000D01*
D32*
X153825000Y-132845000D02*
X153820000Y-132840000D01*
X155715000Y-132040000D02*
X155160000Y-132595000D01*
X155160000Y-132595000D02*
X155160000Y-132060000D01*
X155160000Y-132060000D02*
X154340000Y-131240000D01*
X156195000Y-132040000D02*
X155715000Y-132040000D01*
X155160000Y-132595000D02*
X155160000Y-133965000D01*
X153825000Y-133965000D02*
X153825000Y-132845000D01*
D31*
X153804000Y-133986000D02*
X153825000Y-133965000D01*
X155160000Y-133965000D02*
X153825000Y-133965000D01*
D32*
X154340000Y-131240000D02*
X153820000Y-131240000D01*
D31*
X155160000Y-133965000D02*
X155160000Y-134990000D01*
D33*
X112530000Y-105295000D02*
X112530000Y-107095000D01*
X110930000Y-103695000D02*
X112530000Y-105295000D01*
D30*
X109400381Y-110229620D02*
X105800000Y-106629239D01*
X141050000Y-108830000D02*
X132060000Y-108830000D01*
X114275761Y-109760000D02*
X126830000Y-109760000D01*
X110245380Y-110229620D02*
X109400381Y-110229620D01*
X105800000Y-105855761D02*
X108005761Y-103650000D01*
X127480000Y-109110000D02*
X129500000Y-109110000D01*
X108005761Y-103650000D02*
X109090000Y-103650000D01*
X129500000Y-109110000D02*
X130640000Y-110250000D01*
X105800000Y-106629239D02*
X105800000Y-105855761D01*
X126830000Y-109760000D02*
X127480000Y-109110000D01*
X111880000Y-106440000D02*
X111880000Y-107364239D01*
X111880000Y-107364239D02*
X114275761Y-109760000D01*
X132060000Y-108830000D02*
X130640000Y-110250000D01*
X109090000Y-103650000D02*
X111880000Y-106440000D01*
X155380000Y-108250000D02*
X155380000Y-109070000D01*
X128090000Y-110260000D02*
X128100000Y-110250000D01*
X106450000Y-106360000D02*
X109310000Y-109220000D01*
X111194999Y-110260000D02*
X128090000Y-110260000D01*
X109310000Y-109220000D02*
X110154999Y-109220000D01*
X110154999Y-109220000D02*
X111194999Y-110260000D01*
X153010000Y-120700000D02*
X154800000Y-118910000D01*
X126830000Y-134650000D02*
X133180000Y-134650000D01*
X133180000Y-134650000D02*
X147130000Y-120700000D01*
X147130000Y-120700000D02*
X153010000Y-120700000D01*
D33*
X155932501Y-131240000D02*
X155140000Y-130447499D01*
X156195000Y-131240000D02*
X155932501Y-131240000D01*
X155140000Y-130447499D02*
X155140000Y-129220000D01*
D30*
X153170000Y-108520000D02*
X153170000Y-109110000D01*
X153170000Y-108520000D02*
X153170000Y-107098000D01*
X153170000Y-109110000D02*
X153550000Y-109490000D01*
X153170000Y-107098000D02*
X153538000Y-106730000D01*
X153538000Y-106730000D02*
X154134000Y-106730000D01*
D33*
X156195000Y-130440000D02*
X156195000Y-128925000D01*
X156195000Y-128925000D02*
X155770000Y-128500000D01*
D30*
X145910000Y-113830000D02*
X150180000Y-118100000D01*
X150180000Y-118100000D02*
X153110000Y-118100000D01*
X152466000Y-106230000D02*
X152466000Y-106730000D01*
X152466000Y-106230000D02*
X152466000Y-105167000D01*
X152466000Y-105167000D02*
X152454000Y-105155000D01*
X154134000Y-107230000D02*
X155380000Y-107230000D01*
X120850000Y-126840000D02*
X120850000Y-123810000D01*
X151840000Y-120050000D02*
X131840000Y-120050000D01*
X130815000Y-119025000D02*
X123705000Y-119025000D01*
X120870000Y-126860000D02*
X120850000Y-126840000D01*
X123705000Y-119025000D02*
X132200000Y-127520000D01*
X115160000Y-118000000D02*
X115100000Y-118060000D01*
X122680000Y-118000000D02*
X115160000Y-118000000D01*
X123705000Y-119025000D02*
X122680000Y-118000000D01*
X131840000Y-120050000D02*
X130815000Y-119025000D01*
X120850000Y-123810000D02*
X115100000Y-118060000D01*
D31*
X104650000Y-118550000D02*
X104650000Y-123450000D01*
%TA.AperFunction,Conductor*%
G36*
X108744432Y-104019407D02*
G01*
X108753403Y-104027640D01*
X108753520Y-104027506D01*
X108758871Y-104032143D01*
X108879942Y-104109950D01*
X108879947Y-104109953D01*
X108986403Y-104141211D01*
X109018035Y-104150499D01*
X109018036Y-104150499D01*
X109018039Y-104150500D01*
X109053810Y-104150500D01*
X109112001Y-104169407D01*
X109123814Y-104179496D01*
X111500504Y-106556186D01*
X111528281Y-106610703D01*
X111529500Y-106626190D01*
X111529500Y-107410385D01*
X111540965Y-107453170D01*
X111540966Y-107453174D01*
X111553383Y-107499521D01*
X111553384Y-107499523D01*
X111553385Y-107499526D01*
X111553386Y-107499527D01*
X111599530Y-107579451D01*
X112684144Y-108664065D01*
X113760575Y-109740496D01*
X113788352Y-109795013D01*
X113778781Y-109855445D01*
X113735516Y-109898710D01*
X113690571Y-109909500D01*
X111381189Y-109909500D01*
X111322998Y-109890593D01*
X111311185Y-109880504D01*
X110845926Y-109415245D01*
X110370211Y-108939530D01*
X110290287Y-108893386D01*
X110201143Y-108869500D01*
X110201141Y-108869500D01*
X109496190Y-108869500D01*
X109437999Y-108850593D01*
X109426186Y-108840504D01*
X106980619Y-106394937D01*
X106952842Y-106340420D01*
X106952631Y-106339022D01*
X106935165Y-106217543D01*
X106903846Y-106148965D01*
X106875377Y-106086627D01*
X106781128Y-105977857D01*
X106781127Y-105977856D01*
X106781126Y-105977855D01*
X106660057Y-105900049D01*
X106660054Y-105900047D01*
X106660053Y-105900047D01*
X106643842Y-105895287D01*
X106521960Y-105859499D01*
X106516616Y-105858731D01*
X106461710Y-105831732D01*
X106433159Y-105777616D01*
X106441870Y-105717054D01*
X106460703Y-105690738D01*
X108121947Y-104029496D01*
X108176464Y-104001719D01*
X108191951Y-104000500D01*
X108686241Y-104000500D01*
X108744432Y-104019407D01*
G37*
%TD.AperFunction*%
%TA.AperFunction,Conductor*%
G36*
X116901030Y-100015119D02*
G01*
X116959215Y-100034044D01*
X116995164Y-100083555D01*
X117000000Y-100114119D01*
X117000000Y-103000000D01*
X139999999Y-103000000D01*
X140000000Y-103000000D01*
X140000000Y-100121150D01*
X140018907Y-100062959D01*
X140068407Y-100026995D01*
X140099029Y-100022150D01*
X162111045Y-100028820D01*
X162169228Y-100047745D01*
X162205177Y-100097256D01*
X162210013Y-100127796D01*
X162210305Y-101353968D01*
X162191412Y-101412164D01*
X162169497Y-101434083D01*
X162120214Y-101469890D01*
X161969891Y-101620213D01*
X161844950Y-101792180D01*
X161844948Y-101792184D01*
X161748443Y-101981587D01*
X161682752Y-102183761D01*
X161649500Y-102393709D01*
X161649500Y-102606290D01*
X161682752Y-102816238D01*
X161748443Y-103018412D01*
X161844948Y-103207815D01*
X161844950Y-103207819D01*
X161969891Y-103379786D01*
X161969893Y-103379788D01*
X161969896Y-103379792D01*
X162120208Y-103530104D01*
X162120211Y-103530106D01*
X162120213Y-103530108D01*
X162170042Y-103566310D01*
X162206006Y-103615809D01*
X162210852Y-103646379D01*
X162213707Y-115625261D01*
X162200000Y-115667482D01*
X162200000Y-126292258D01*
X162215042Y-126321781D01*
X162216261Y-126337244D01*
X162217979Y-133544602D01*
X162199086Y-133602798D01*
X162149594Y-133638773D01*
X162088409Y-133638788D01*
X162038900Y-133602836D01*
X162026221Y-133579222D01*
X162003353Y-133517911D01*
X162003352Y-133517909D01*
X161917192Y-133402815D01*
X161917184Y-133402807D01*
X161802090Y-133316647D01*
X161802088Y-133316646D01*
X161667381Y-133266403D01*
X161667370Y-133266401D01*
X161607824Y-133260000D01*
X161073361Y-133260000D01*
X161015170Y-133241093D01*
X160979206Y-133191593D01*
X160979206Y-133130407D01*
X161015170Y-133080907D01*
X161044623Y-133066263D01*
X161113954Y-133045232D01*
X161296450Y-132947685D01*
X161456410Y-132816410D01*
X161587685Y-132656450D01*
X161685232Y-132473954D01*
X161745300Y-132275934D01*
X161745301Y-132275929D01*
X161765583Y-132070003D01*
X161765583Y-132069996D01*
X161745301Y-131864070D01*
X161745300Y-131864065D01*
X161714068Y-131761107D01*
X161685232Y-131666046D01*
X161587685Y-131483550D01*
X161585149Y-131480460D01*
X161480413Y-131352838D01*
X161456410Y-131323590D01*
X161456404Y-131323585D01*
X161296452Y-131192316D01*
X161113954Y-131094768D01*
X160915934Y-131034699D01*
X160915929Y-131034698D01*
X160710003Y-131014417D01*
X160709997Y-131014417D01*
X160504070Y-131034698D01*
X160504065Y-131034699D01*
X160306045Y-131094768D01*
X160123547Y-131192316D01*
X159963595Y-131323585D01*
X159963585Y-131323595D01*
X159832316Y-131483547D01*
X159734768Y-131666045D01*
X159674699Y-131864065D01*
X159674698Y-131864070D01*
X159654417Y-132069996D01*
X159654417Y-132070003D01*
X159674698Y-132275929D01*
X159674699Y-132275934D01*
X159734768Y-132473954D01*
X159832316Y-132656452D01*
X159880992Y-132715764D01*
X159963590Y-132816410D01*
X159963595Y-132816414D01*
X160123547Y-132947683D01*
X160123548Y-132947683D01*
X160123550Y-132947685D01*
X160306046Y-133045232D01*
X160375377Y-133066263D01*
X160425574Y-133101248D01*
X160445620Y-133159056D01*
X160427859Y-133217607D01*
X160379075Y-133254536D01*
X160346639Y-133260000D01*
X159812176Y-133260000D01*
X159752629Y-133266401D01*
X159752618Y-133266403D01*
X159617911Y-133316646D01*
X159617909Y-133316647D01*
X159502815Y-133402807D01*
X159502807Y-133402815D01*
X159416647Y-133517909D01*
X159416646Y-133517911D01*
X159366403Y-133652618D01*
X159366401Y-133652629D01*
X159360000Y-133712175D01*
X159360000Y-134359999D01*
X159360001Y-134360000D01*
X160276988Y-134360000D01*
X160244075Y-134417007D01*
X160210000Y-134544174D01*
X160210000Y-134675826D01*
X160244075Y-134802993D01*
X160276988Y-134860000D01*
X159360001Y-134860000D01*
X159360000Y-134860001D01*
X159360000Y-135507824D01*
X159359999Y-135507824D01*
X159366401Y-135567370D01*
X159366403Y-135567381D01*
X159416646Y-135702088D01*
X159416647Y-135702090D01*
X159502807Y-135817184D01*
X159502815Y-135817192D01*
X159617909Y-135903352D01*
X159617911Y-135903353D01*
X159752618Y-135953596D01*
X159752629Y-135953598D01*
X159812176Y-135960000D01*
X160459999Y-135960000D01*
X160460000Y-135959999D01*
X160460000Y-135043012D01*
X160517007Y-135075925D01*
X160644174Y-135110000D01*
X160775826Y-135110000D01*
X160902993Y-135075925D01*
X160960000Y-135043012D01*
X160960000Y-135959999D01*
X160960001Y-135960000D01*
X161607824Y-135960000D01*
X161667370Y-135953598D01*
X161667381Y-135953596D01*
X161802088Y-135903353D01*
X161802090Y-135903352D01*
X161917184Y-135817192D01*
X161917192Y-135817184D01*
X162003352Y-135702091D01*
X162026727Y-135639417D01*
X162064777Y-135591502D01*
X162123724Y-135575103D01*
X162181052Y-135596484D01*
X162214864Y-135647478D01*
X162218486Y-135673988D01*
X162219123Y-138347562D01*
X162200230Y-138405758D01*
X162178315Y-138427678D01*
X162120210Y-138469894D01*
X161969891Y-138620213D01*
X161844950Y-138792180D01*
X161844948Y-138792184D01*
X161748443Y-138981587D01*
X161682752Y-139183761D01*
X161649500Y-139393709D01*
X161649500Y-139606290D01*
X161682752Y-139816238D01*
X161748443Y-140018412D01*
X161844948Y-140207815D01*
X161844950Y-140207819D01*
X161969891Y-140379786D01*
X161969893Y-140379788D01*
X161969896Y-140379792D01*
X162120208Y-140530104D01*
X162178864Y-140572720D01*
X162214828Y-140622218D01*
X162219674Y-140652788D01*
X162219968Y-141889795D01*
X162201075Y-141947991D01*
X162151583Y-141983966D01*
X162120938Y-141988819D01*
X103068036Y-141970923D01*
X103057718Y-141970381D01*
X102957264Y-141959823D01*
X102947029Y-141958202D01*
X102598588Y-141884139D01*
X102588578Y-141881456D01*
X102249782Y-141771373D01*
X102240108Y-141767660D01*
X101914678Y-141622771D01*
X101905445Y-141618066D01*
X101596955Y-141439959D01*
X101588264Y-141434316D01*
X101300059Y-141224923D01*
X101292011Y-141218405D01*
X101027283Y-140980043D01*
X101019956Y-140972716D01*
X100879971Y-140817247D01*
X100781593Y-140707986D01*
X100775081Y-140699947D01*
X100565681Y-140411732D01*
X100560040Y-140403044D01*
X100447327Y-140207819D01*
X100381930Y-140094548D01*
X100377228Y-140085321D01*
X100232339Y-139759891D01*
X100228626Y-139750217D01*
X100118543Y-139411421D01*
X100115864Y-139401426D01*
X100114224Y-139393709D01*
X101649500Y-139393709D01*
X101649500Y-139606290D01*
X101682752Y-139816238D01*
X101748443Y-140018412D01*
X101844948Y-140207815D01*
X101844950Y-140207819D01*
X101969891Y-140379786D01*
X101969893Y-140379788D01*
X101969896Y-140379792D01*
X102120208Y-140530104D01*
X102120211Y-140530106D01*
X102120213Y-140530108D01*
X102292180Y-140655049D01*
X102292184Y-140655051D01*
X102481588Y-140751557D01*
X102683757Y-140817246D01*
X102683758Y-140817246D01*
X102683761Y-140817247D01*
X102893710Y-140850500D01*
X102893713Y-140850500D01*
X103106290Y-140850500D01*
X103316238Y-140817247D01*
X103316239Y-140817246D01*
X103316243Y-140817246D01*
X103518412Y-140751557D01*
X103707816Y-140655051D01*
X103879792Y-140530104D01*
X104030104Y-140379792D01*
X104155051Y-140207816D01*
X104251557Y-140018412D01*
X104317246Y-139816243D01*
X104317247Y-139816238D01*
X104350500Y-139606290D01*
X104350500Y-139393709D01*
X104317247Y-139183761D01*
X104274746Y-139052957D01*
X104251557Y-138981588D01*
X104155051Y-138792184D01*
X104155049Y-138792180D01*
X104030108Y-138620213D01*
X104030106Y-138620211D01*
X104030104Y-138620208D01*
X103879792Y-138469896D01*
X103879788Y-138469893D01*
X103879786Y-138469891D01*
X103707819Y-138344950D01*
X103707815Y-138344948D01*
X103518412Y-138248443D01*
X103316238Y-138182752D01*
X103106290Y-138149500D01*
X103106287Y-138149500D01*
X102893713Y-138149500D01*
X102893710Y-138149500D01*
X102683761Y-138182752D01*
X102481587Y-138248443D01*
X102292184Y-138344948D01*
X102292180Y-138344950D01*
X102120213Y-138469891D01*
X101969891Y-138620213D01*
X101844950Y-138792180D01*
X101844948Y-138792184D01*
X101748443Y-138981587D01*
X101682752Y-139183761D01*
X101649500Y-139393709D01*
X100114224Y-139393709D01*
X100041794Y-139052957D01*
X100040178Y-139042750D01*
X100019794Y-138848826D01*
X100019252Y-138838515D01*
X100018759Y-136769999D01*
X133884750Y-136769999D01*
X133884750Y-136770000D01*
X133903669Y-136913708D01*
X133903670Y-136913709D01*
X133959139Y-137047625D01*
X134047379Y-137162621D01*
X134162375Y-137250861D01*
X134296291Y-137306330D01*
X134440000Y-137325250D01*
X134583709Y-137306330D01*
X134717625Y-137250861D01*
X134832621Y-137162621D01*
X134920861Y-137047625D01*
X134976330Y-136913709D01*
X134995250Y-136770000D01*
X134976330Y-136626291D01*
X134920861Y-136492375D01*
X134832621Y-136377379D01*
X134717625Y-136289139D01*
X134717621Y-136289137D01*
X134583709Y-136233670D01*
X134583708Y-136233669D01*
X134440000Y-136214750D01*
X134296291Y-136233669D01*
X134296290Y-136233670D01*
X134162378Y-136289137D01*
X134162374Y-136289139D01*
X134047381Y-136377377D01*
X134047377Y-136377381D01*
X133959139Y-136492374D01*
X133959137Y-136492378D01*
X133903670Y-136626290D01*
X133903669Y-136626291D01*
X133884750Y-136769999D01*
X100018759Y-136769999D01*
X100017971Y-133459999D01*
X117364750Y-133459999D01*
X117364750Y-133460000D01*
X117383669Y-133603708D01*
X117383670Y-133603709D01*
X117429767Y-133715000D01*
X117439139Y-133737625D01*
X117527379Y-133852621D01*
X117642375Y-133940861D01*
X117776291Y-133996330D01*
X117920000Y-134015250D01*
X118063709Y-133996330D01*
X118197625Y-133940861D01*
X118312621Y-133852621D01*
X118400861Y-133737625D01*
X118456330Y-133603709D01*
X118475250Y-133460000D01*
X118456330Y-133316291D01*
X118400861Y-133182375D01*
X118312621Y-133067379D01*
X118197625Y-132979139D01*
X118197621Y-132979137D01*
X118063709Y-132923670D01*
X118063708Y-132923669D01*
X117920000Y-132904750D01*
X117776291Y-132923669D01*
X117776290Y-132923670D01*
X117642378Y-132979137D01*
X117642374Y-132979139D01*
X117527381Y-133067377D01*
X117527377Y-133067381D01*
X117439139Y-133182374D01*
X117439137Y-133182378D01*
X117383670Y-133316290D01*
X117383669Y-133316291D01*
X117364750Y-133459999D01*
X100017971Y-133459999D01*
X100016579Y-127617919D01*
X100035472Y-127559724D01*
X100084964Y-127523749D01*
X100146149Y-127523734D01*
X100170581Y-127535581D01*
X100213157Y-127564030D01*
X100213165Y-127564034D01*
X100390604Y-127637532D01*
X100578968Y-127674999D01*
X100578972Y-127675000D01*
X100799999Y-127675000D01*
X100800000Y-127674999D01*
X100800000Y-126950001D01*
X101300000Y-126950001D01*
X101300000Y-127674999D01*
X101300001Y-127675000D01*
X101521028Y-127675000D01*
X101521031Y-127674999D01*
X101709395Y-127637532D01*
X101886834Y-127564034D01*
X101886843Y-127564030D01*
X102046526Y-127457331D01*
X102046530Y-127457328D01*
X102182328Y-127321530D01*
X102182331Y-127321526D01*
X102289030Y-127161843D01*
X102289034Y-127161834D01*
X102362532Y-126984395D01*
X102369374Y-126950000D01*
X101300001Y-126950000D01*
X101300000Y-126950001D01*
X100800000Y-126950001D01*
X100800000Y-126900000D01*
X101489782Y-126900000D01*
X101563291Y-126869552D01*
X101619552Y-126813291D01*
X101650000Y-126739782D01*
X101650000Y-126660218D01*
X101625057Y-126600000D01*
X103633520Y-126600000D01*
X103696739Y-126752625D01*
X103789759Y-126891840D01*
X103908159Y-127010240D01*
X104047374Y-127103260D01*
X104202065Y-127167335D01*
X104366279Y-127199999D01*
X104366283Y-127200000D01*
X104399999Y-127200000D01*
X104400000Y-127199999D01*
X104400000Y-126600001D01*
X104900000Y-126600001D01*
X104900000Y-127199999D01*
X104900001Y-127200000D01*
X104933717Y-127200000D01*
X104933720Y-127199999D01*
X105097934Y-127167335D01*
X105252625Y-127103260D01*
X105391840Y-127010240D01*
X105510240Y-126891840D01*
X105603260Y-126752625D01*
X105666480Y-126600000D01*
X104900001Y-126600000D01*
X104900000Y-126600001D01*
X104400000Y-126600001D01*
X104399999Y-126600000D01*
X103633520Y-126600000D01*
X101625057Y-126600000D01*
X101619552Y-126586709D01*
X101563291Y-126530448D01*
X101489782Y-126500000D01*
X100815921Y-126500000D01*
X100818907Y-126490809D01*
X100868407Y-126454845D01*
X100899000Y-126450000D01*
X102369374Y-126450000D01*
X102362531Y-126415603D01*
X102362531Y-126415601D01*
X102318880Y-126310218D01*
X104250000Y-126310218D01*
X104250000Y-126389782D01*
X104280448Y-126463291D01*
X104336709Y-126519552D01*
X104410218Y-126550000D01*
X104889782Y-126550000D01*
X104963291Y-126519552D01*
X105019552Y-126463291D01*
X105050000Y-126389782D01*
X105050000Y-126310218D01*
X105019552Y-126236709D01*
X104963291Y-126180448D01*
X104889782Y-126150000D01*
X104410218Y-126150000D01*
X104336709Y-126180448D01*
X104280448Y-126236709D01*
X104250000Y-126310218D01*
X102318880Y-126310218D01*
X102288505Y-126236885D01*
X102283704Y-126175889D01*
X102315674Y-126123720D01*
X102372202Y-126100305D01*
X102379969Y-126100000D01*
X103400010Y-126100000D01*
X103443696Y-126098574D01*
X103465545Y-126097861D01*
X103538278Y-126078372D01*
X103599376Y-126081574D01*
X103622437Y-126100000D01*
X104399999Y-126100000D01*
X104400000Y-126099999D01*
X104400000Y-125500001D01*
X104900000Y-125500001D01*
X104900000Y-126099999D01*
X104900001Y-126100000D01*
X105666479Y-126100000D01*
X105603260Y-125947374D01*
X105510240Y-125808159D01*
X105475048Y-125772967D01*
X113121621Y-125772967D01*
X113121621Y-125772974D01*
X113141230Y-126059653D01*
X113141231Y-126059657D01*
X113199695Y-126341003D01*
X113252936Y-126490809D01*
X113291742Y-126600000D01*
X113295925Y-126611768D01*
X113428128Y-126866907D01*
X113486781Y-126950000D01*
X113564461Y-127060049D01*
X113593840Y-127101669D01*
X113789976Y-127311679D01*
X114012882Y-127493026D01*
X114012888Y-127493030D01*
X114012890Y-127493031D01*
X114258399Y-127642329D01*
X114258411Y-127642336D01*
X114445266Y-127723497D01*
X114521971Y-127756815D01*
X114798671Y-127834342D01*
X115083351Y-127873471D01*
X115083357Y-127873471D01*
X115370701Y-127873471D01*
X115370707Y-127873471D01*
X115655387Y-127834342D01*
X115932087Y-127756815D01*
X116120447Y-127674999D01*
X116195646Y-127642336D01*
X116195649Y-127642333D01*
X116195654Y-127642332D01*
X116441176Y-127493026D01*
X116664082Y-127311679D01*
X116860218Y-127101669D01*
X117025930Y-126866907D01*
X117158133Y-126611768D01*
X117254363Y-126341003D01*
X117312827Y-126059657D01*
X117332437Y-125772971D01*
X117312827Y-125486285D01*
X117254363Y-125204939D01*
X117158133Y-124934174D01*
X117025930Y-124679035D01*
X116860218Y-124444273D01*
X116664082Y-124234263D01*
X116638816Y-124213708D01*
X116441181Y-124052920D01*
X116441180Y-124052919D01*
X116441176Y-124052916D01*
X116441171Y-124052913D01*
X116441167Y-124052910D01*
X116195658Y-123903612D01*
X116195646Y-123903605D01*
X115932092Y-123789129D01*
X115932090Y-123789128D01*
X115932087Y-123789127D01*
X115655387Y-123711600D01*
X115370707Y-123672471D01*
X115083351Y-123672471D01*
X114798671Y-123711600D01*
X114521971Y-123789127D01*
X114521968Y-123789127D01*
X114521965Y-123789129D01*
X114258411Y-123903605D01*
X114258399Y-123903612D01*
X114012890Y-124052910D01*
X114012876Y-124052920D01*
X113789981Y-124234258D01*
X113789980Y-124234259D01*
X113593839Y-124444274D01*
X113593834Y-124444280D01*
X113428127Y-124679036D01*
X113295924Y-124934175D01*
X113199694Y-125204943D01*
X113141232Y-125486279D01*
X113141230Y-125486288D01*
X113121621Y-125772967D01*
X105475048Y-125772967D01*
X105391840Y-125689759D01*
X105252625Y-125596739D01*
X105097934Y-125532664D01*
X104933720Y-125500000D01*
X104900001Y-125500000D01*
X104900000Y-125500001D01*
X104400000Y-125500001D01*
X104399999Y-125500000D01*
X104366279Y-125500000D01*
X104202065Y-125532664D01*
X104047375Y-125596739D01*
X104045664Y-125597654D01*
X104044791Y-125597809D01*
X104042881Y-125598601D01*
X104042707Y-125598181D01*
X103985431Y-125608407D01*
X103930381Y-125581702D01*
X103901541Y-125527740D01*
X103900000Y-125510341D01*
X103900000Y-123917531D01*
X103918907Y-123859340D01*
X103968407Y-123823376D01*
X104029593Y-123823376D01*
X104069001Y-123847525D01*
X104111985Y-123890509D01*
X104111987Y-123890510D01*
X104111989Y-123890512D01*
X104237511Y-123962982D01*
X104237512Y-123962982D01*
X104237515Y-123962984D01*
X104377525Y-124000500D01*
X104377526Y-124000500D01*
X104922474Y-124000500D01*
X104922475Y-124000500D01*
X105062485Y-123962984D01*
X105062487Y-123962982D01*
X105062489Y-123962982D01*
X105188010Y-123890512D01*
X105188010Y-123890511D01*
X105188015Y-123890509D01*
X105290509Y-123788015D01*
X105334627Y-123711601D01*
X105362982Y-123662489D01*
X105362982Y-123662487D01*
X105362984Y-123662485D01*
X105400500Y-123522475D01*
X105400500Y-123377525D01*
X105362984Y-123237515D01*
X105362982Y-123237512D01*
X105362982Y-123237510D01*
X105290512Y-123111989D01*
X105290510Y-123111987D01*
X105290509Y-123111985D01*
X105188015Y-123009491D01*
X105188012Y-123009489D01*
X105188010Y-123009487D01*
X105150000Y-122987542D01*
X105109059Y-122942072D01*
X105100500Y-122901806D01*
X105100500Y-119098192D01*
X105119407Y-119040001D01*
X105150000Y-119012456D01*
X105188015Y-118990509D01*
X105290509Y-118888015D01*
X105362984Y-118762485D01*
X105400500Y-118622475D01*
X105400500Y-118477525D01*
X105362984Y-118337515D01*
X105362982Y-118337512D01*
X105362982Y-118337510D01*
X105290512Y-118211989D01*
X105290510Y-118211987D01*
X105290509Y-118211985D01*
X105188015Y-118109491D01*
X105188012Y-118109489D01*
X105188010Y-118109487D01*
X105102294Y-118059999D01*
X114544750Y-118059999D01*
X114544750Y-118060000D01*
X114563669Y-118203708D01*
X114563670Y-118203709D01*
X114614956Y-118327528D01*
X114619139Y-118337625D01*
X114707379Y-118452621D01*
X114822375Y-118540861D01*
X114956291Y-118596330D01*
X115100000Y-118615250D01*
X115104227Y-118614693D01*
X115164386Y-118625838D01*
X115187159Y-118642841D01*
X120470504Y-123926186D01*
X120498281Y-123980703D01*
X120499500Y-123996190D01*
X120499500Y-126486370D01*
X120480593Y-126544561D01*
X120475320Y-126551201D01*
X120444622Y-126586628D01*
X120384834Y-126717543D01*
X120364353Y-126859997D01*
X120364353Y-126860002D01*
X120384834Y-127002456D01*
X120430140Y-127101661D01*
X120444623Y-127133373D01*
X120538872Y-127242143D01*
X120538873Y-127242144D01*
X120659942Y-127319950D01*
X120659947Y-127319953D01*
X120766403Y-127351211D01*
X120798035Y-127360499D01*
X120798036Y-127360499D01*
X120798039Y-127360500D01*
X120798041Y-127360500D01*
X120941959Y-127360500D01*
X120941961Y-127360500D01*
X121080053Y-127319953D01*
X121201128Y-127242143D01*
X121295377Y-127133373D01*
X121355165Y-127002457D01*
X121375647Y-126860000D01*
X121368931Y-126813291D01*
X121355165Y-126717543D01*
X121328985Y-126660218D01*
X121295377Y-126586627D01*
X121224679Y-126505037D01*
X121200863Y-126448678D01*
X121200500Y-126440207D01*
X121200500Y-125772967D01*
X122667563Y-125772967D01*
X122667563Y-125772974D01*
X122687172Y-126059653D01*
X122687173Y-126059657D01*
X122745637Y-126341003D01*
X122798878Y-126490809D01*
X122837684Y-126600000D01*
X122841867Y-126611768D01*
X122974070Y-126866907D01*
X123032723Y-126950000D01*
X123110403Y-127060049D01*
X123139782Y-127101669D01*
X123335918Y-127311679D01*
X123558824Y-127493026D01*
X123558830Y-127493030D01*
X123558832Y-127493031D01*
X123804341Y-127642329D01*
X123804353Y-127642336D01*
X123991208Y-127723497D01*
X124067913Y-127756815D01*
X124344613Y-127834342D01*
X124629293Y-127873471D01*
X124629299Y-127873471D01*
X124916643Y-127873471D01*
X124916649Y-127873471D01*
X125201329Y-127834342D01*
X125478029Y-127756815D01*
X125666389Y-127674999D01*
X125741588Y-127642336D01*
X125741591Y-127642333D01*
X125741596Y-127642332D01*
X125987118Y-127493026D01*
X126210024Y-127311679D01*
X126406160Y-127101669D01*
X126571872Y-126866907D01*
X126704075Y-126611768D01*
X126800305Y-126341003D01*
X126858769Y-126059657D01*
X126878379Y-125772971D01*
X126858769Y-125486285D01*
X126800305Y-125204939D01*
X126704075Y-124934174D01*
X126571872Y-124679035D01*
X126406160Y-124444273D01*
X126210024Y-124234263D01*
X126184758Y-124213708D01*
X125987123Y-124052920D01*
X125987122Y-124052919D01*
X125987118Y-124052916D01*
X125987113Y-124052913D01*
X125987109Y-124052910D01*
X125741600Y-123903612D01*
X125741588Y-123903605D01*
X125478034Y-123789129D01*
X125478032Y-123789128D01*
X125478029Y-123789127D01*
X125201329Y-123711600D01*
X124916649Y-123672471D01*
X124629293Y-123672471D01*
X124344613Y-123711600D01*
X124067913Y-123789127D01*
X124067910Y-123789127D01*
X124067907Y-123789129D01*
X123804353Y-123903605D01*
X123804341Y-123903612D01*
X123558832Y-124052910D01*
X123558818Y-124052920D01*
X123335923Y-124234258D01*
X123335922Y-124234259D01*
X123139781Y-124444274D01*
X123139776Y-124444280D01*
X122974069Y-124679036D01*
X122841866Y-124934175D01*
X122745636Y-125204943D01*
X122687174Y-125486279D01*
X122687172Y-125486288D01*
X122667563Y-125772967D01*
X121200500Y-125772967D01*
X121200500Y-123763857D01*
X121186498Y-123711600D01*
X121176614Y-123674712D01*
X121165808Y-123655996D01*
X121130470Y-123594788D01*
X116055186Y-118519504D01*
X116027409Y-118464987D01*
X116036980Y-118404555D01*
X116080245Y-118361290D01*
X116125190Y-118350500D01*
X122493810Y-118350500D01*
X122552001Y-118369407D01*
X122563814Y-118379496D01*
X131669380Y-127485062D01*
X131697157Y-127539579D01*
X131697368Y-127540977D01*
X131714834Y-127662456D01*
X131720563Y-127675000D01*
X131774623Y-127793373D01*
X131810121Y-127834340D01*
X131868873Y-127902144D01*
X131989942Y-127979950D01*
X131989947Y-127979953D01*
X132056519Y-127999500D01*
X132128035Y-128020499D01*
X132128036Y-128020499D01*
X132128039Y-128020500D01*
X132128041Y-128020500D01*
X132271959Y-128020500D01*
X132271961Y-128020500D01*
X132410053Y-127979953D01*
X132531128Y-127902143D01*
X132625377Y-127793373D01*
X132685165Y-127662457D01*
X132705647Y-127520000D01*
X132704394Y-127511287D01*
X132685165Y-127377543D01*
X132659584Y-127321530D01*
X132625377Y-127246627D01*
X132531128Y-127137857D01*
X132531127Y-127137856D01*
X132531126Y-127137855D01*
X132410057Y-127060049D01*
X132410054Y-127060047D01*
X132410053Y-127060047D01*
X132410050Y-127060046D01*
X132271964Y-127019500D01*
X132271961Y-127019500D01*
X132236190Y-127019500D01*
X132177999Y-127000593D01*
X132166186Y-126990504D01*
X130948649Y-125772967D01*
X134121621Y-125772967D01*
X134121621Y-125772974D01*
X134141230Y-126059653D01*
X134141231Y-126059657D01*
X134199695Y-126341003D01*
X134252936Y-126490809D01*
X134291742Y-126600000D01*
X134295925Y-126611768D01*
X134428128Y-126866907D01*
X134486781Y-126950000D01*
X134564461Y-127060049D01*
X134593840Y-127101669D01*
X134789976Y-127311679D01*
X135012882Y-127493026D01*
X135012888Y-127493030D01*
X135012890Y-127493031D01*
X135258399Y-127642329D01*
X135258411Y-127642336D01*
X135445266Y-127723497D01*
X135521971Y-127756815D01*
X135798671Y-127834342D01*
X136083351Y-127873471D01*
X136083357Y-127873471D01*
X136370701Y-127873471D01*
X136370707Y-127873471D01*
X136655387Y-127834342D01*
X136932087Y-127756815D01*
X137120447Y-127674999D01*
X137195646Y-127642336D01*
X137195649Y-127642333D01*
X137195654Y-127642332D01*
X137441176Y-127493026D01*
X137664082Y-127311679D01*
X137860218Y-127101669D01*
X138025930Y-126866907D01*
X138158133Y-126611768D01*
X138254363Y-126341003D01*
X138312827Y-126059657D01*
X138332437Y-125772971D01*
X138312827Y-125486285D01*
X138254363Y-125204939D01*
X138158133Y-124934174D01*
X138025930Y-124679035D01*
X137860218Y-124444273D01*
X137664082Y-124234263D01*
X137638816Y-124213708D01*
X137462174Y-124069999D01*
X138694750Y-124069999D01*
X138694750Y-124070000D01*
X138713669Y-124213708D01*
X138713670Y-124213709D01*
X138722181Y-124234258D01*
X138769139Y-124347625D01*
X138857379Y-124462621D01*
X138972375Y-124550861D01*
X139106291Y-124606330D01*
X139250000Y-124625250D01*
X139393709Y-124606330D01*
X139527625Y-124550861D01*
X139642621Y-124462621D01*
X139730861Y-124347625D01*
X139786330Y-124213709D01*
X139805250Y-124070000D01*
X139786330Y-123926291D01*
X139730861Y-123792375D01*
X139642621Y-123677379D01*
X139527625Y-123589139D01*
X139527621Y-123589137D01*
X139393709Y-123533670D01*
X139393708Y-123533669D01*
X139250000Y-123514750D01*
X139106291Y-123533669D01*
X139106290Y-123533670D01*
X138972378Y-123589137D01*
X138972374Y-123589139D01*
X138857381Y-123677377D01*
X138857377Y-123677381D01*
X138769139Y-123792374D01*
X138769137Y-123792378D01*
X138713670Y-123926290D01*
X138713669Y-123926291D01*
X138694750Y-124069999D01*
X137462174Y-124069999D01*
X137441181Y-124052920D01*
X137441180Y-124052919D01*
X137441176Y-124052916D01*
X137441171Y-124052913D01*
X137441167Y-124052910D01*
X137195658Y-123903612D01*
X137195646Y-123903605D01*
X136932092Y-123789129D01*
X136932090Y-123789128D01*
X136932087Y-123789127D01*
X136655387Y-123711600D01*
X136370707Y-123672471D01*
X136083351Y-123672471D01*
X135798671Y-123711600D01*
X135521971Y-123789127D01*
X135521968Y-123789127D01*
X135521965Y-123789129D01*
X135258411Y-123903605D01*
X135258399Y-123903612D01*
X135012890Y-124052910D01*
X135012876Y-124052920D01*
X134789981Y-124234258D01*
X134789980Y-124234259D01*
X134593839Y-124444274D01*
X134593834Y-124444280D01*
X134428127Y-124679036D01*
X134295924Y-124934175D01*
X134199694Y-125204943D01*
X134141232Y-125486279D01*
X134141230Y-125486288D01*
X134121621Y-125772967D01*
X130948649Y-125772967D01*
X124720186Y-119544504D01*
X124692409Y-119489987D01*
X124701980Y-119429555D01*
X124745245Y-119386290D01*
X124790190Y-119375500D01*
X129032474Y-119375500D01*
X129090665Y-119394407D01*
X129126629Y-119443907D01*
X129126629Y-119505093D01*
X129111016Y-119534767D01*
X129059142Y-119602370D01*
X129059137Y-119602378D01*
X129003670Y-119736290D01*
X129003669Y-119736291D01*
X128984750Y-119879999D01*
X128984750Y-119880000D01*
X129003669Y-120023708D01*
X129003670Y-120023709D01*
X129059139Y-120157625D01*
X129147379Y-120272621D01*
X129262375Y-120360861D01*
X129396291Y-120416330D01*
X129540000Y-120435250D01*
X129683709Y-120416330D01*
X129817625Y-120360861D01*
X129932621Y-120272621D01*
X130020861Y-120157625D01*
X130076330Y-120023709D01*
X130095250Y-119880000D01*
X130076330Y-119736291D01*
X130020861Y-119602375D01*
X130011229Y-119589823D01*
X129968984Y-119534767D01*
X129948560Y-119477092D01*
X129965937Y-119418426D01*
X130014479Y-119381179D01*
X130047526Y-119375500D01*
X130628810Y-119375500D01*
X130687001Y-119394407D01*
X130698814Y-119404496D01*
X131624788Y-120330470D01*
X131699121Y-120373386D01*
X131704712Y-120376614D01*
X131793856Y-120400500D01*
X146694811Y-120400500D01*
X146753002Y-120419407D01*
X146788966Y-120468907D01*
X146788966Y-120530093D01*
X146764816Y-120569501D01*
X139876990Y-127457328D01*
X133063814Y-134270504D01*
X133009297Y-134298281D01*
X132993810Y-134299500D01*
X127233759Y-134299500D01*
X127175568Y-134280593D01*
X127166596Y-134272359D01*
X127166480Y-134272494D01*
X127161128Y-134267856D01*
X127040057Y-134190049D01*
X127040054Y-134190047D01*
X127040053Y-134190047D01*
X127040050Y-134190046D01*
X126901964Y-134149500D01*
X126901961Y-134149500D01*
X126758039Y-134149500D01*
X126758035Y-134149500D01*
X126619949Y-134190046D01*
X126619942Y-134190049D01*
X126498873Y-134267855D01*
X126404622Y-134376628D01*
X126344834Y-134507543D01*
X126324353Y-134649997D01*
X126324353Y-134650002D01*
X126344834Y-134792456D01*
X126377631Y-134864269D01*
X126404623Y-134923373D01*
X126473682Y-135003072D01*
X126498873Y-135032144D01*
X126566998Y-135075925D01*
X126619947Y-135109953D01*
X126726403Y-135141211D01*
X126758035Y-135150499D01*
X126758036Y-135150499D01*
X126758039Y-135150500D01*
X126758041Y-135150500D01*
X126901959Y-135150500D01*
X126901961Y-135150500D01*
X127040053Y-135109953D01*
X127161128Y-135032143D01*
X127166480Y-135027506D01*
X127167968Y-135029223D01*
X127211341Y-135003072D01*
X127233759Y-135000500D01*
X133226142Y-135000500D01*
X133226144Y-135000500D01*
X133315288Y-134976614D01*
X133395212Y-134930470D01*
X134110682Y-134215000D01*
X152086210Y-134215000D01*
X152087855Y-134235912D01*
X152087856Y-134235920D01*
X152132969Y-134391197D01*
X152132969Y-134391198D01*
X152215278Y-134530374D01*
X152329625Y-134644721D01*
X152468802Y-134727030D01*
X152614999Y-134769504D01*
X152615000Y-134769504D01*
X152615000Y-134215001D01*
X152614999Y-134215000D01*
X152086210Y-134215000D01*
X134110682Y-134215000D01*
X134610682Y-133715000D01*
X152086209Y-133715000D01*
X152614999Y-133715000D01*
X152615000Y-133714999D01*
X152615000Y-133160494D01*
X152468805Y-133202968D01*
X152468801Y-133202969D01*
X152329625Y-133285278D01*
X152215278Y-133399625D01*
X152132969Y-133538801D01*
X152132969Y-133538802D01*
X152087855Y-133694087D01*
X152086209Y-133715000D01*
X134610682Y-133715000D01*
X137635682Y-130690000D01*
X153067974Y-130690000D01*
X153104345Y-130815189D01*
X153184727Y-130951109D01*
X153296391Y-131062773D01*
X153308392Y-131069870D01*
X153348856Y-131115764D01*
X153357000Y-131155085D01*
X153357000Y-131324914D01*
X153338093Y-131383105D01*
X153308397Y-131410126D01*
X153296391Y-131417226D01*
X153184727Y-131528890D01*
X153104345Y-131664810D01*
X153067974Y-131789999D01*
X153067975Y-131790000D01*
X153971000Y-131790000D01*
X154029191Y-131808907D01*
X154065155Y-131858407D01*
X154070000Y-131889000D01*
X154070000Y-132191000D01*
X154051093Y-132249191D01*
X154001593Y-132285155D01*
X153971000Y-132290000D01*
X153067974Y-132290000D01*
X153104345Y-132415189D01*
X153184727Y-132551109D01*
X153296391Y-132662773D01*
X153308392Y-132669870D01*
X153348856Y-132715764D01*
X153357000Y-132755085D01*
X153357000Y-133003133D01*
X153357001Y-133003145D01*
X153363240Y-133050544D01*
X153369212Y-133063351D01*
X153376668Y-133124080D01*
X153347004Y-133177594D01*
X153291551Y-133203451D01*
X153251867Y-133200258D01*
X153115000Y-133160494D01*
X153115000Y-134769504D01*
X153261197Y-134727030D01*
X153261198Y-134727030D01*
X153400374Y-134644721D01*
X153514720Y-134530375D01*
X153520953Y-134519836D01*
X153566847Y-134479372D01*
X153619088Y-134472075D01*
X153645099Y-134475500D01*
X154004900Y-134475499D01*
X154054487Y-134468972D01*
X154149265Y-134424775D01*
X154191105Y-134415500D01*
X154610500Y-134415500D01*
X154668691Y-134434407D01*
X154704655Y-134483907D01*
X154709500Y-134514500D01*
X154709500Y-134639200D01*
X154690593Y-134697391D01*
X154689044Y-134699465D01*
X154679139Y-134712373D01*
X154623670Y-134846290D01*
X154623669Y-134846291D01*
X154604750Y-134989999D01*
X154604750Y-134990000D01*
X154623669Y-135133708D01*
X154623670Y-135133709D01*
X154630624Y-135150499D01*
X154679139Y-135267625D01*
X154767379Y-135382621D01*
X154882375Y-135470861D01*
X155016291Y-135526330D01*
X155160000Y-135545250D01*
X155303709Y-135526330D01*
X155437625Y-135470861D01*
X155552621Y-135382621D01*
X155640861Y-135267625D01*
X155696330Y-135133709D01*
X155715250Y-134990000D01*
X155698696Y-134864266D01*
X155709846Y-134804108D01*
X155754228Y-134761990D01*
X155814889Y-134754004D01*
X155824469Y-134756277D01*
X155869999Y-134769504D01*
X155870000Y-134769504D01*
X155870000Y-134215001D01*
X156370000Y-134215001D01*
X156370000Y-134769504D01*
X156516197Y-134727030D01*
X156516198Y-134727030D01*
X156655374Y-134644721D01*
X156769721Y-134530374D01*
X156852030Y-134391198D01*
X156852030Y-134391197D01*
X156897144Y-134235912D01*
X156898791Y-134215000D01*
X156370001Y-134215000D01*
X156370000Y-134215001D01*
X155870000Y-134215001D01*
X155870000Y-133633001D01*
X156370000Y-133633001D01*
X156370000Y-133714999D01*
X156370001Y-133715000D01*
X156898789Y-133715000D01*
X156897144Y-133694087D01*
X156897143Y-133694079D01*
X156852031Y-133538804D01*
X156813284Y-133473287D01*
X156799936Y-133413575D01*
X156824236Y-133357422D01*
X156828505Y-133352876D01*
X156830272Y-133351108D01*
X156910654Y-133215189D01*
X156947025Y-133090000D01*
X156445001Y-133090000D01*
X156445000Y-133090001D01*
X156445000Y-133534000D01*
X156426093Y-133592191D01*
X156376593Y-133628155D01*
X156374517Y-133628483D01*
X156370000Y-133633001D01*
X155870000Y-133633001D01*
X155870000Y-133211000D01*
X155888907Y-133152809D01*
X155938407Y-133116845D01*
X155940482Y-133116516D01*
X155945000Y-133111999D01*
X155945000Y-132689000D01*
X155963907Y-132630809D01*
X156013407Y-132594845D01*
X156044000Y-132590000D01*
X156947025Y-132590000D01*
X156947025Y-132589999D01*
X156910654Y-132464810D01*
X156830272Y-132328890D01*
X156718607Y-132217225D01*
X156706602Y-132210125D01*
X156666140Y-132164228D01*
X156657999Y-132124916D01*
X156657999Y-131876862D01*
X156651759Y-131829455D01*
X156651759Y-131829453D01*
X156603248Y-131725423D01*
X156603247Y-131725422D01*
X156603247Y-131725421D01*
X156587827Y-131710001D01*
X156560052Y-131655487D01*
X156569623Y-131595055D01*
X156587826Y-131569999D01*
X156603247Y-131554579D01*
X156651759Y-131450545D01*
X156658000Y-131403139D01*
X156657999Y-131076862D01*
X156651759Y-131029455D01*
X156651759Y-131029453D01*
X156603248Y-130925423D01*
X156603247Y-130925422D01*
X156603247Y-130925421D01*
X156587827Y-130910001D01*
X156560052Y-130855487D01*
X156569623Y-130795055D01*
X156587826Y-130769999D01*
X156603247Y-130754579D01*
X156651759Y-130650545D01*
X156658000Y-130603139D01*
X156657999Y-130276862D01*
X156651759Y-130229455D01*
X156651759Y-130229453D01*
X156603248Y-130125423D01*
X156603246Y-130125420D01*
X156524496Y-130046669D01*
X156496719Y-129992152D01*
X156495500Y-129976666D01*
X156495500Y-129529996D01*
X159654417Y-129529996D01*
X159654417Y-129530003D01*
X159674698Y-129735929D01*
X159674699Y-129735934D01*
X159734768Y-129933954D01*
X159832316Y-130116452D01*
X159925055Y-130229455D01*
X159963590Y-130276410D01*
X159963595Y-130276414D01*
X160123547Y-130407683D01*
X160123548Y-130407683D01*
X160123550Y-130407685D01*
X160306046Y-130505232D01*
X160443997Y-130547078D01*
X160504065Y-130565300D01*
X160504070Y-130565301D01*
X160709997Y-130585583D01*
X160710000Y-130585583D01*
X160710003Y-130585583D01*
X160915929Y-130565301D01*
X160915934Y-130565300D01*
X161113954Y-130505232D01*
X161296450Y-130407685D01*
X161456410Y-130276410D01*
X161587685Y-130116450D01*
X161685232Y-129933954D01*
X161745300Y-129735934D01*
X161745301Y-129735929D01*
X161765583Y-129530003D01*
X161765583Y-129529996D01*
X161745301Y-129324070D01*
X161745300Y-129324065D01*
X161713731Y-129219997D01*
X161685232Y-129126046D01*
X161587685Y-128943550D01*
X161456410Y-128783590D01*
X161427723Y-128760047D01*
X161296452Y-128652316D01*
X161113954Y-128554768D01*
X160915934Y-128494699D01*
X160915929Y-128494698D01*
X160710003Y-128474417D01*
X160709997Y-128474417D01*
X160504070Y-128494698D01*
X160504065Y-128494699D01*
X160306045Y-128554768D01*
X160123547Y-128652316D01*
X159963595Y-128783585D01*
X159963585Y-128783595D01*
X159832316Y-128943547D01*
X159734768Y-129126045D01*
X159674699Y-129324065D01*
X159674698Y-129324070D01*
X159654417Y-129529996D01*
X156495500Y-129529996D01*
X156495500Y-128885437D01*
X156490001Y-128864917D01*
X156490001Y-128864916D01*
X156475022Y-128809012D01*
X156475019Y-128809006D01*
X156435463Y-128740493D01*
X156435459Y-128740488D01*
X156300546Y-128605574D01*
X156272769Y-128551058D01*
X156272558Y-128521482D01*
X156275647Y-128500000D01*
X156255165Y-128357543D01*
X156195377Y-128226627D01*
X156101128Y-128117857D01*
X156101127Y-128117856D01*
X156101126Y-128117855D01*
X155980057Y-128040049D01*
X155980054Y-128040047D01*
X155980053Y-128040047D01*
X155980050Y-128040046D01*
X155841964Y-127999500D01*
X155841961Y-127999500D01*
X155698039Y-127999500D01*
X155698035Y-127999500D01*
X155559949Y-128040046D01*
X155559942Y-128040049D01*
X155438873Y-128117855D01*
X155344622Y-128226628D01*
X155284834Y-128357543D01*
X155264353Y-128499997D01*
X155264353Y-128500002D01*
X155279652Y-128606411D01*
X155269219Y-128666700D01*
X155225341Y-128709343D01*
X155181660Y-128719500D01*
X155068035Y-128719500D01*
X154929949Y-128760046D01*
X154929942Y-128760049D01*
X154808873Y-128837855D01*
X154714622Y-128946628D01*
X154654834Y-129077543D01*
X154634353Y-129219997D01*
X154634353Y-129220002D01*
X154654834Y-129362456D01*
X154714623Y-129493373D01*
X154813509Y-129607494D01*
X154811471Y-129609259D01*
X154836925Y-129651458D01*
X154839500Y-129673893D01*
X154839500Y-130487063D01*
X154859978Y-130563487D01*
X154859980Y-130563491D01*
X154882871Y-130603139D01*
X154899540Y-130632010D01*
X155738027Y-131470497D01*
X155765803Y-131525012D01*
X155756232Y-131585444D01*
X155712967Y-131628709D01*
X155668022Y-131639499D01*
X155662274Y-131639499D01*
X155612737Y-131652772D01*
X155563200Y-131666046D01*
X155560415Y-131666792D01*
X155560412Y-131666793D01*
X155482144Y-131711981D01*
X155422296Y-131724702D01*
X155366401Y-131699815D01*
X155362641Y-131696248D01*
X154989978Y-131323585D01*
X154585913Y-130919520D01*
X154585910Y-130919518D01*
X154584140Y-130918496D01*
X154583160Y-130917407D01*
X154580764Y-130915569D01*
X154581104Y-130915124D01*
X154543200Y-130873024D01*
X154536807Y-130812174D01*
X154538574Y-130805141D01*
X154572025Y-130690000D01*
X153067974Y-130690000D01*
X137635682Y-130690000D01*
X138135683Y-130189999D01*
X153067974Y-130189999D01*
X153067975Y-130190000D01*
X153569999Y-130190000D01*
X153570000Y-130189999D01*
X154070000Y-130189999D01*
X154070001Y-130190000D01*
X154572025Y-130190000D01*
X154572025Y-130189999D01*
X154535654Y-130064810D01*
X154455272Y-129928890D01*
X154343609Y-129817227D01*
X154207689Y-129736845D01*
X154070000Y-129696842D01*
X154070000Y-130189999D01*
X153570000Y-130189999D01*
X153570000Y-129696842D01*
X153432310Y-129736845D01*
X153296390Y-129817227D01*
X153184727Y-129928890D01*
X153104345Y-130064810D01*
X153067974Y-130189999D01*
X138135683Y-130189999D01*
X143941849Y-124383832D01*
X143996362Y-124356058D01*
X144056794Y-124365629D01*
X144100059Y-124408894D01*
X144109630Y-124469326D01*
X144092730Y-124510929D01*
X143974068Y-124679038D01*
X143841866Y-124934175D01*
X143745636Y-125204943D01*
X143687174Y-125486279D01*
X143687172Y-125486288D01*
X143667563Y-125772967D01*
X143667563Y-125772974D01*
X143687172Y-126059653D01*
X143687173Y-126059657D01*
X143745637Y-126341003D01*
X143798878Y-126490809D01*
X143837684Y-126600000D01*
X143841867Y-126611768D01*
X143974070Y-126866907D01*
X144032723Y-126950000D01*
X144110403Y-127060049D01*
X144139782Y-127101669D01*
X144335918Y-127311679D01*
X144558824Y-127493026D01*
X144558830Y-127493030D01*
X144558832Y-127493031D01*
X144804341Y-127642329D01*
X144804353Y-127642336D01*
X144991208Y-127723497D01*
X145067913Y-127756815D01*
X145344613Y-127834342D01*
X145629293Y-127873471D01*
X145629299Y-127873471D01*
X145916643Y-127873471D01*
X145916649Y-127873471D01*
X146201329Y-127834342D01*
X146478029Y-127756815D01*
X146666389Y-127674999D01*
X146741588Y-127642336D01*
X146741591Y-127642333D01*
X146741596Y-127642332D01*
X146987118Y-127493026D01*
X147210024Y-127311679D01*
X147406160Y-127101669D01*
X147571872Y-126866907D01*
X147704075Y-126611768D01*
X147800305Y-126341003D01*
X147858769Y-126059657D01*
X147878379Y-125772971D01*
X147858769Y-125486285D01*
X147800305Y-125204939D01*
X147704075Y-124934174D01*
X147571872Y-124679035D01*
X147406160Y-124444273D01*
X147210024Y-124234263D01*
X147184758Y-124213708D01*
X146987123Y-124052920D01*
X146987122Y-124052919D01*
X146987118Y-124052916D01*
X146987113Y-124052913D01*
X146987109Y-124052910D01*
X146741600Y-123903612D01*
X146741588Y-123903605D01*
X146478034Y-123789129D01*
X146478032Y-123789128D01*
X146478029Y-123789127D01*
X146201329Y-123711600D01*
X145916649Y-123672471D01*
X145629293Y-123672471D01*
X145344613Y-123711600D01*
X145067913Y-123789127D01*
X145067910Y-123789127D01*
X145067907Y-123789129D01*
X144804353Y-123903605D01*
X144804341Y-123903612D01*
X144558832Y-124052910D01*
X144558819Y-124052919D01*
X144522473Y-124082489D01*
X144465401Y-124104545D01*
X144406265Y-124088843D01*
X144367652Y-124041381D01*
X144364312Y-123980287D01*
X144389990Y-123935691D01*
X147246186Y-121079496D01*
X147300703Y-121051719D01*
X147316190Y-121050500D01*
X153056142Y-121050500D01*
X153056144Y-121050500D01*
X153145288Y-121026614D01*
X153225212Y-120980470D01*
X154766185Y-119439495D01*
X154820702Y-119411719D01*
X154836189Y-119410500D01*
X154871959Y-119410500D01*
X154871961Y-119410500D01*
X155010053Y-119369953D01*
X155131128Y-119292143D01*
X155225377Y-119183373D01*
X155285165Y-119052457D01*
X155298553Y-118959340D01*
X155305647Y-118910002D01*
X155305647Y-118909997D01*
X155285165Y-118767543D01*
X155274655Y-118744530D01*
X155225377Y-118636627D01*
X155131128Y-118527857D01*
X155131127Y-118527856D01*
X155131126Y-118527855D01*
X155010057Y-118450049D01*
X155010054Y-118450047D01*
X155010053Y-118450047D01*
X155010050Y-118450046D01*
X154871964Y-118409500D01*
X154871961Y-118409500D01*
X154728039Y-118409500D01*
X154728035Y-118409500D01*
X154589949Y-118450046D01*
X154589942Y-118450049D01*
X154468873Y-118527855D01*
X154374622Y-118636628D01*
X154314834Y-118767543D01*
X154297368Y-118889022D01*
X154270372Y-118943930D01*
X154269380Y-118944937D01*
X152893814Y-120320504D01*
X152839297Y-120348281D01*
X152823810Y-120349500D01*
X152407493Y-120349500D01*
X152349302Y-120330593D01*
X152313338Y-120281093D01*
X152313338Y-120219907D01*
X152317440Y-120209373D01*
X152325165Y-120192456D01*
X152345647Y-120050002D01*
X152345647Y-120049997D01*
X152325165Y-119907543D01*
X152265377Y-119776628D01*
X152265377Y-119776627D01*
X152171128Y-119667857D01*
X152171127Y-119667856D01*
X152171126Y-119667855D01*
X152050057Y-119590049D01*
X152050054Y-119590047D01*
X152050053Y-119590047D01*
X152050050Y-119590046D01*
X151911964Y-119549500D01*
X151911961Y-119549500D01*
X151768039Y-119549500D01*
X151768035Y-119549500D01*
X151629949Y-119590046D01*
X151629942Y-119590049D01*
X151508871Y-119667856D01*
X151503520Y-119672494D01*
X151502031Y-119670776D01*
X151458659Y-119696928D01*
X151436241Y-119699500D01*
X132026190Y-119699500D01*
X131967999Y-119680593D01*
X131956186Y-119670504D01*
X131525894Y-119240212D01*
X131030212Y-118744530D01*
X130950288Y-118698386D01*
X130861144Y-118674500D01*
X130861142Y-118674500D01*
X123891190Y-118674500D01*
X123832999Y-118655593D01*
X123821186Y-118645504D01*
X123379390Y-118203708D01*
X122895212Y-117719530D01*
X122815288Y-117673386D01*
X122726144Y-117649500D01*
X122726142Y-117649500D01*
X115502927Y-117649500D01*
X115444736Y-117630593D01*
X115442660Y-117629042D01*
X115377625Y-117579139D01*
X115377621Y-117579137D01*
X115243709Y-117523670D01*
X115243708Y-117523669D01*
X115100000Y-117504750D01*
X114956291Y-117523669D01*
X114956290Y-117523670D01*
X114822378Y-117579137D01*
X114822374Y-117579139D01*
X114707381Y-117667377D01*
X114707377Y-117667381D01*
X114619139Y-117782374D01*
X114619137Y-117782378D01*
X114563670Y-117916290D01*
X114563669Y-117916291D01*
X114544750Y-118059999D01*
X105102294Y-118059999D01*
X105062488Y-118037017D01*
X105062489Y-118037017D01*
X105032896Y-118029087D01*
X104922475Y-117999500D01*
X104377525Y-117999500D01*
X104315790Y-118016041D01*
X104237510Y-118037017D01*
X104111989Y-118109487D01*
X104111988Y-118109488D01*
X104111985Y-118109490D01*
X104111985Y-118109491D01*
X104069001Y-118152474D01*
X104014487Y-118180250D01*
X103954055Y-118170679D01*
X103910790Y-118127414D01*
X103900000Y-118082469D01*
X103900000Y-116489658D01*
X103918907Y-116431467D01*
X103968407Y-116395503D01*
X104029593Y-116395503D01*
X104045675Y-116402351D01*
X104047380Y-116403262D01*
X104202065Y-116467335D01*
X104366279Y-116499999D01*
X104366283Y-116500000D01*
X104399999Y-116500000D01*
X104400000Y-116499999D01*
X104400000Y-115900001D01*
X104900000Y-115900001D01*
X104900000Y-116499999D01*
X104900001Y-116500000D01*
X104933717Y-116500000D01*
X104933720Y-116499999D01*
X105097934Y-116467335D01*
X105252625Y-116403260D01*
X105391840Y-116310240D01*
X105475055Y-116227025D01*
X122667563Y-116227025D01*
X122667563Y-116227032D01*
X122687172Y-116513711D01*
X122687173Y-116513715D01*
X122745637Y-116795061D01*
X122841867Y-117065826D01*
X122974070Y-117320965D01*
X123139782Y-117555727D01*
X123335918Y-117765737D01*
X123558824Y-117947084D01*
X123558830Y-117947088D01*
X123558832Y-117947089D01*
X123804341Y-118096387D01*
X123804353Y-118096394D01*
X123933462Y-118152473D01*
X124067913Y-118210873D01*
X124344613Y-118288400D01*
X124629293Y-118327529D01*
X124629299Y-118327529D01*
X124916643Y-118327529D01*
X124916649Y-118327529D01*
X125201329Y-118288400D01*
X125478029Y-118210873D01*
X125639322Y-118140813D01*
X125741588Y-118096394D01*
X125741591Y-118096391D01*
X125741596Y-118096390D01*
X125987118Y-117947084D01*
X126210024Y-117765737D01*
X126406160Y-117555727D01*
X126571872Y-117320965D01*
X126704075Y-117065826D01*
X126800305Y-116795061D01*
X126858769Y-116513715D01*
X126878379Y-116227029D01*
X126861278Y-115977029D01*
X133838014Y-115977029D01*
X134849174Y-115977029D01*
X134827029Y-116116847D01*
X134827029Y-116337211D01*
X134849174Y-116477029D01*
X133838014Y-116477029D01*
X133841246Y-116528425D01*
X133841247Y-116528427D01*
X133897831Y-116825056D01*
X133897834Y-116825066D01*
X133991156Y-117112281D01*
X134119735Y-117385524D01*
X134119742Y-117385537D01*
X134281548Y-117640502D01*
X134474039Y-117873183D01*
X134474049Y-117873194D01*
X134694184Y-118079914D01*
X134938512Y-118257429D01*
X135203136Y-118402906D01*
X135203139Y-118402908D01*
X135483921Y-118514076D01*
X135776431Y-118589179D01*
X135776427Y-118589179D01*
X135977028Y-118614521D01*
X135977029Y-118614521D01*
X135977029Y-117604883D01*
X136116847Y-117627029D01*
X136337211Y-117627029D01*
X136477029Y-117604883D01*
X136477029Y-118614521D01*
X136677628Y-118589179D01*
X136970136Y-118514076D01*
X137250918Y-118402908D01*
X137250921Y-118402906D01*
X137515545Y-118257429D01*
X137759873Y-118079914D01*
X137980008Y-117873194D01*
X137980018Y-117873183D01*
X138172509Y-117640502D01*
X138334315Y-117385537D01*
X138334322Y-117385524D01*
X138462901Y-117112281D01*
X138556223Y-116825066D01*
X138556226Y-116825056D01*
X138612810Y-116528427D01*
X138612811Y-116528425D01*
X138616044Y-116477029D01*
X137604884Y-116477029D01*
X137627029Y-116337211D01*
X137627029Y-116116847D01*
X137604884Y-115977029D01*
X138616044Y-115977029D01*
X138612811Y-115925632D01*
X138612810Y-115925630D01*
X138556226Y-115629001D01*
X138556223Y-115628991D01*
X138462901Y-115341776D01*
X138334322Y-115068533D01*
X138334315Y-115068520D01*
X138172509Y-114813555D01*
X137980018Y-114580874D01*
X137980008Y-114580863D01*
X137759873Y-114374143D01*
X137515545Y-114196628D01*
X137250921Y-114051151D01*
X137250918Y-114051149D01*
X136970136Y-113939981D01*
X136677629Y-113864878D01*
X136477029Y-113839535D01*
X136477029Y-114849174D01*
X136337211Y-114827029D01*
X136116847Y-114827029D01*
X135977029Y-114849174D01*
X135977029Y-113839536D01*
X135977028Y-113839535D01*
X135776428Y-113864878D01*
X135483921Y-113939981D01*
X135203139Y-114051149D01*
X135203136Y-114051151D01*
X134938512Y-114196628D01*
X134694184Y-114374143D01*
X134474049Y-114580863D01*
X134474039Y-114580874D01*
X134281548Y-114813555D01*
X134119742Y-115068520D01*
X134119735Y-115068533D01*
X133991156Y-115341776D01*
X133897834Y-115628991D01*
X133897831Y-115629001D01*
X133841247Y-115925630D01*
X133841246Y-115925632D01*
X133838014Y-115977029D01*
X126861278Y-115977029D01*
X126858769Y-115940343D01*
X126800305Y-115658997D01*
X126704075Y-115388232D01*
X126571872Y-115133093D01*
X126406160Y-114898331D01*
X126210024Y-114688321D01*
X125987118Y-114506974D01*
X125987113Y-114506971D01*
X125987109Y-114506968D01*
X125741600Y-114357670D01*
X125741588Y-114357663D01*
X125478034Y-114243187D01*
X125478032Y-114243186D01*
X125478029Y-114243185D01*
X125201329Y-114165658D01*
X124916649Y-114126529D01*
X124629293Y-114126529D01*
X124344613Y-114165658D01*
X124067913Y-114243185D01*
X124067910Y-114243185D01*
X124067907Y-114243187D01*
X123804353Y-114357663D01*
X123804341Y-114357670D01*
X123558832Y-114506968D01*
X123558818Y-114506978D01*
X123335923Y-114688316D01*
X123335922Y-114688317D01*
X123139781Y-114898332D01*
X123139776Y-114898338D01*
X122974069Y-115133094D01*
X122841866Y-115388233D01*
X122745636Y-115659001D01*
X122687174Y-115940337D01*
X122687172Y-115940346D01*
X122667563Y-116227025D01*
X105475055Y-116227025D01*
X105510240Y-116191840D01*
X105603260Y-116052625D01*
X105666480Y-115900000D01*
X104900001Y-115900000D01*
X104900000Y-115900001D01*
X104400000Y-115900001D01*
X104399999Y-115900000D01*
X103622114Y-115900000D01*
X103598162Y-115918881D01*
X103538276Y-115921627D01*
X103528027Y-115918881D01*
X103524635Y-115917972D01*
X103465545Y-115902139D01*
X103465543Y-115902138D01*
X103465540Y-115902138D01*
X103400010Y-115900000D01*
X103400000Y-115900000D01*
X102379969Y-115900000D01*
X102321778Y-115881093D01*
X102285814Y-115831593D01*
X102285814Y-115770407D01*
X102288505Y-115763115D01*
X102351836Y-115610218D01*
X104250000Y-115610218D01*
X104250000Y-115689782D01*
X104280448Y-115763291D01*
X104336709Y-115819552D01*
X104410218Y-115850000D01*
X104889782Y-115850000D01*
X104963291Y-115819552D01*
X105019552Y-115763291D01*
X105050000Y-115689782D01*
X105050000Y-115610218D01*
X105019552Y-115536709D01*
X104963291Y-115480448D01*
X104889782Y-115450000D01*
X104410218Y-115450000D01*
X104336709Y-115480448D01*
X104280448Y-115536709D01*
X104250000Y-115610218D01*
X102351836Y-115610218D01*
X102362531Y-115584398D01*
X102362531Y-115584396D01*
X102369374Y-115550000D01*
X100899000Y-115550000D01*
X100840809Y-115531093D01*
X100818219Y-115500000D01*
X101489782Y-115500000D01*
X101563291Y-115469552D01*
X101619552Y-115413291D01*
X101625057Y-115400000D01*
X103633520Y-115400000D01*
X104399999Y-115400000D01*
X104400000Y-115399999D01*
X104400000Y-114800001D01*
X104900000Y-114800001D01*
X104900000Y-115399999D01*
X104900001Y-115400000D01*
X105666479Y-115400000D01*
X105603260Y-115247374D01*
X105510240Y-115108159D01*
X105391840Y-114989759D01*
X105252625Y-114896739D01*
X105097934Y-114832664D01*
X104933720Y-114800000D01*
X104900001Y-114800000D01*
X104900000Y-114800001D01*
X104400000Y-114800001D01*
X104399999Y-114800000D01*
X104366279Y-114800000D01*
X104202065Y-114832664D01*
X104047374Y-114896739D01*
X103908159Y-114989759D01*
X103789759Y-115108159D01*
X103696739Y-115247374D01*
X103633520Y-115400000D01*
X101625057Y-115400000D01*
X101650000Y-115339782D01*
X101650000Y-115260218D01*
X101619552Y-115186709D01*
X101563291Y-115130448D01*
X101489782Y-115100000D01*
X100800000Y-115100000D01*
X100800000Y-114325001D01*
X101300000Y-114325001D01*
X101300000Y-115049999D01*
X101300001Y-115050000D01*
X102369374Y-115050000D01*
X102362532Y-115015604D01*
X102289034Y-114838165D01*
X102289030Y-114838156D01*
X102182331Y-114678473D01*
X102182328Y-114678469D01*
X102046530Y-114542671D01*
X102046526Y-114542668D01*
X101886843Y-114435969D01*
X101886834Y-114435965D01*
X101709395Y-114362467D01*
X101521031Y-114325000D01*
X101300001Y-114325000D01*
X101300000Y-114325001D01*
X100800000Y-114325001D01*
X100799999Y-114325000D01*
X100578968Y-114325000D01*
X100390604Y-114362467D01*
X100213165Y-114435965D01*
X100213153Y-114435971D01*
X100167424Y-114466526D01*
X100108536Y-114483134D01*
X100051132Y-114461955D01*
X100017140Y-114411081D01*
X100013424Y-114384240D01*
X100013292Y-113829997D01*
X145404353Y-113829997D01*
X145404353Y-113830002D01*
X145424834Y-113972456D01*
X145484622Y-114103371D01*
X145484623Y-114103373D01*
X145578872Y-114212143D01*
X145578873Y-114212144D01*
X145699942Y-114289950D01*
X145699947Y-114289953D01*
X145806403Y-114321211D01*
X145838035Y-114330499D01*
X145838036Y-114330499D01*
X145838039Y-114330500D01*
X145873810Y-114330500D01*
X145932001Y-114349407D01*
X145943814Y-114359496D01*
X149964788Y-118380470D01*
X150044712Y-118426614D01*
X150133856Y-118450500D01*
X152706241Y-118450500D01*
X152764432Y-118469407D01*
X152773403Y-118477640D01*
X152773520Y-118477506D01*
X152778871Y-118482143D01*
X152899942Y-118559950D01*
X152899947Y-118559953D01*
X152999483Y-118589179D01*
X153038035Y-118600499D01*
X153038036Y-118600499D01*
X153038039Y-118600500D01*
X153038041Y-118600500D01*
X153181959Y-118600500D01*
X153181961Y-118600500D01*
X153320053Y-118559953D01*
X153441128Y-118482143D01*
X153535377Y-118373373D01*
X153595165Y-118242457D01*
X153611706Y-118127414D01*
X153615647Y-118100002D01*
X153615647Y-118099997D01*
X153595165Y-117957543D01*
X153590386Y-117947079D01*
X153535377Y-117826627D01*
X153441128Y-117717857D01*
X153441127Y-117717856D01*
X153441126Y-117717855D01*
X153320057Y-117640049D01*
X153320054Y-117640047D01*
X153320053Y-117640047D01*
X153320050Y-117640046D01*
X153181964Y-117599500D01*
X153181961Y-117599500D01*
X153038039Y-117599500D01*
X153038035Y-117599500D01*
X152899949Y-117640046D01*
X152899942Y-117640049D01*
X152778871Y-117717856D01*
X152773520Y-117722494D01*
X152772031Y-117720776D01*
X152728659Y-117746928D01*
X152706241Y-117749500D01*
X150366190Y-117749500D01*
X150307999Y-117730593D01*
X150296186Y-117720504D01*
X147125681Y-114549999D01*
X148754750Y-114549999D01*
X148754750Y-114550000D01*
X148773669Y-114693708D01*
X148773670Y-114693709D01*
X148817696Y-114800000D01*
X148829139Y-114827625D01*
X148917379Y-114942621D01*
X149032375Y-115030861D01*
X149166291Y-115086330D01*
X149310000Y-115105250D01*
X149453709Y-115086330D01*
X149587625Y-115030861D01*
X149702621Y-114942621D01*
X149790861Y-114827625D01*
X149846330Y-114693709D01*
X149865250Y-114550000D01*
X149859585Y-114506974D01*
X149846330Y-114406291D01*
X149790861Y-114272375D01*
X149702621Y-114157379D01*
X149587625Y-114069139D01*
X149587621Y-114069137D01*
X149453709Y-114013670D01*
X149453708Y-114013669D01*
X149310000Y-113994750D01*
X149166291Y-114013669D01*
X149166290Y-114013670D01*
X149032378Y-114069137D01*
X149032374Y-114069139D01*
X148917381Y-114157377D01*
X148917377Y-114157381D01*
X148829139Y-114272374D01*
X148829137Y-114272378D01*
X148773670Y-114406290D01*
X148773669Y-114406291D01*
X148754750Y-114549999D01*
X147125681Y-114549999D01*
X146440619Y-113864937D01*
X146412842Y-113810420D01*
X146412631Y-113809022D01*
X146395165Y-113687543D01*
X146335377Y-113556628D01*
X146335377Y-113556627D01*
X146241128Y-113447857D01*
X146241127Y-113447856D01*
X146241126Y-113447855D01*
X146120057Y-113370049D01*
X146120054Y-113370047D01*
X146120053Y-113370047D01*
X146120050Y-113370046D01*
X145981964Y-113329500D01*
X145981961Y-113329500D01*
X145838039Y-113329500D01*
X145838035Y-113329500D01*
X145699949Y-113370046D01*
X145699942Y-113370049D01*
X145578873Y-113447855D01*
X145484622Y-113556628D01*
X145424834Y-113687543D01*
X145404353Y-113829997D01*
X100013292Y-113829997D01*
X100012799Y-111759999D01*
X108834750Y-111759999D01*
X108834750Y-111760000D01*
X108853669Y-111903708D01*
X108853670Y-111903709D01*
X108909139Y-112037625D01*
X108997379Y-112152621D01*
X109112375Y-112240861D01*
X109246291Y-112296330D01*
X109390000Y-112315250D01*
X109533709Y-112296330D01*
X109667625Y-112240861D01*
X109680532Y-112230956D01*
X109738209Y-112210534D01*
X109740799Y-112210500D01*
X110956728Y-112210500D01*
X111014919Y-112229407D01*
X111026732Y-112239496D01*
X112017725Y-113230489D01*
X112017727Y-113230490D01*
X112017728Y-113230491D01*
X112017729Y-113230492D01*
X112120446Y-113289796D01*
X112120448Y-113289797D01*
X112120452Y-113289799D01*
X112144661Y-113296284D01*
X112144664Y-113296287D01*
X112144665Y-113296286D01*
X112235027Y-113320499D01*
X112235029Y-113320500D01*
X112235030Y-113320500D01*
X143778309Y-113320500D01*
X143868669Y-113296287D01*
X143868672Y-113296287D01*
X143881903Y-113292741D01*
X143892887Y-113289799D01*
X143995614Y-113230489D01*
X145116107Y-112109996D01*
X159274417Y-112109996D01*
X159274417Y-112110003D01*
X159294698Y-112315929D01*
X159294699Y-112315934D01*
X159354768Y-112513954D01*
X159452316Y-112696452D01*
X159583585Y-112856404D01*
X159583590Y-112856410D01*
X159583595Y-112856414D01*
X159743547Y-112987683D01*
X159743548Y-112987683D01*
X159743550Y-112987685D01*
X159926046Y-113085232D01*
X160063997Y-113127078D01*
X160124065Y-113145300D01*
X160124070Y-113145301D01*
X160329997Y-113165583D01*
X160330000Y-113165583D01*
X160330003Y-113165583D01*
X160535929Y-113145301D01*
X160535934Y-113145300D01*
X160733954Y-113085232D01*
X160916450Y-112987685D01*
X161076410Y-112856410D01*
X161207685Y-112696450D01*
X161305232Y-112513954D01*
X161365300Y-112315934D01*
X161365301Y-112315929D01*
X161385583Y-112110003D01*
X161385583Y-112109996D01*
X161365301Y-111904070D01*
X161365300Y-111904065D01*
X161347078Y-111843997D01*
X161305232Y-111706046D01*
X161207685Y-111523550D01*
X161191401Y-111503708D01*
X161079521Y-111367381D01*
X161076410Y-111363590D01*
X161056654Y-111347377D01*
X160916452Y-111232316D01*
X160733954Y-111134768D01*
X160535934Y-111074699D01*
X160535929Y-111074698D01*
X160330003Y-111054417D01*
X160329997Y-111054417D01*
X160124070Y-111074698D01*
X160124065Y-111074699D01*
X159926045Y-111134768D01*
X159743547Y-111232316D01*
X159583595Y-111363585D01*
X159583585Y-111363595D01*
X159452316Y-111523547D01*
X159354768Y-111706045D01*
X159294699Y-111904065D01*
X159294698Y-111904070D01*
X159274417Y-112109996D01*
X145116107Y-112109996D01*
X148456102Y-108770000D01*
X151380069Y-108770000D01*
X151382832Y-108805121D01*
X151382834Y-108805127D01*
X151427595Y-108959195D01*
X151427595Y-108959196D01*
X151509261Y-109097285D01*
X151622714Y-109210738D01*
X151760804Y-109292404D01*
X151899999Y-109332844D01*
X151900000Y-109332844D01*
X151900000Y-108770001D01*
X151899999Y-108770000D01*
X151380069Y-108770000D01*
X148456102Y-108770000D01*
X150914498Y-106311604D01*
X150969013Y-106283829D01*
X151029445Y-106293400D01*
X151072710Y-106336665D01*
X151083500Y-106381610D01*
X151083500Y-106840143D01*
X151099429Y-106899595D01*
X151107384Y-106929284D01*
X151107385Y-106929286D01*
X151107386Y-106929288D01*
X151153530Y-107009212D01*
X151654788Y-107510470D01*
X151688615Y-107530000D01*
X151731829Y-107554950D01*
X151734709Y-107556612D01*
X151734708Y-107556612D01*
X151734712Y-107556614D01*
X151748786Y-107560385D01*
X151800099Y-107593705D01*
X151822028Y-107650826D01*
X151806195Y-107709927D01*
X151765904Y-107743978D01*
X151766168Y-107744423D01*
X151763538Y-107745977D01*
X151762488Y-107746866D01*
X151760806Y-107747593D01*
X151622714Y-107829261D01*
X151509261Y-107942714D01*
X151427595Y-108080803D01*
X151427595Y-108080804D01*
X151382834Y-108234872D01*
X151382832Y-108234878D01*
X151380069Y-108269999D01*
X151380070Y-108270000D01*
X152301000Y-108270000D01*
X152359191Y-108288907D01*
X152395155Y-108338407D01*
X152400000Y-108369000D01*
X152400000Y-109332844D01*
X152539195Y-109292404D01*
X152539196Y-109292404D01*
X152677283Y-109210739D01*
X152679843Y-109208180D01*
X152682004Y-109207078D01*
X152682210Y-109206919D01*
X152682240Y-109206958D01*
X152734358Y-109180399D01*
X152794791Y-109189966D01*
X152838058Y-109233228D01*
X152841314Y-109240288D01*
X152843386Y-109245289D01*
X152889529Y-109325211D01*
X153019380Y-109455063D01*
X153047157Y-109509579D01*
X153047368Y-109510977D01*
X153064834Y-109632456D01*
X153103803Y-109717784D01*
X153124623Y-109763373D01*
X153218872Y-109872143D01*
X153218873Y-109872144D01*
X153295049Y-109921099D01*
X153339947Y-109949953D01*
X153421688Y-109973954D01*
X153478035Y-109990499D01*
X153478036Y-109990499D01*
X153478039Y-109990500D01*
X153478041Y-109990500D01*
X153621959Y-109990500D01*
X153621961Y-109990500D01*
X153760053Y-109949953D01*
X153881128Y-109872143D01*
X153975377Y-109763373D01*
X154035165Y-109632457D01*
X154052631Y-109510977D01*
X154055647Y-109490002D01*
X154055647Y-109489997D01*
X154035165Y-109347543D01*
X154010188Y-109292851D01*
X153975377Y-109216627D01*
X153881128Y-109107857D01*
X153881127Y-109107856D01*
X153881126Y-109107855D01*
X153760057Y-109030049D01*
X153760054Y-109030048D01*
X153760053Y-109030047D01*
X153702061Y-109013019D01*
X153662592Y-109001430D01*
X153612086Y-108966894D01*
X153591524Y-108909267D01*
X153600759Y-108864603D01*
X153634068Y-108793173D01*
X153640500Y-108744316D01*
X153640500Y-108295684D01*
X153634068Y-108246827D01*
X153632566Y-108243607D01*
X153584066Y-108139598D01*
X153584064Y-108139595D01*
X153549496Y-108105026D01*
X153521719Y-108050509D01*
X153520500Y-108035023D01*
X153520500Y-107517246D01*
X153539407Y-107459055D01*
X153588907Y-107423091D01*
X153650093Y-107423091D01*
X153699593Y-107459055D01*
X153701801Y-107462224D01*
X153743448Y-107524552D01*
X153809769Y-107568867D01*
X153854231Y-107577711D01*
X153868241Y-107580498D01*
X153868246Y-107580498D01*
X153868252Y-107580500D01*
X154087856Y-107580500D01*
X154895023Y-107580500D01*
X154953214Y-107599407D01*
X154965026Y-107609496D01*
X154999595Y-107644064D01*
X154999596Y-107644065D01*
X155012915Y-107650276D01*
X155057663Y-107692005D01*
X155069337Y-107752066D01*
X155043478Y-107807518D01*
X155012915Y-107829724D01*
X154999598Y-107835933D01*
X154915933Y-107919598D01*
X154865932Y-108026824D01*
X154865932Y-108026825D01*
X154865932Y-108026827D01*
X154859500Y-108075684D01*
X154859500Y-108424316D01*
X154860478Y-108431747D01*
X154865932Y-108473174D01*
X154865932Y-108473175D01*
X154915933Y-108580401D01*
X154915934Y-108580402D01*
X154915935Y-108580404D01*
X154971867Y-108636336D01*
X154999643Y-108690851D01*
X154990072Y-108751283D01*
X154976683Y-108771168D01*
X154954622Y-108796628D01*
X154894834Y-108927543D01*
X154874353Y-109069997D01*
X154874353Y-109070002D01*
X154894834Y-109212456D01*
X154953582Y-109341093D01*
X154954623Y-109343373D01*
X154998461Y-109393965D01*
X155048873Y-109452144D01*
X155169942Y-109529950D01*
X155169947Y-109529953D01*
X155270576Y-109559500D01*
X155308035Y-109570499D01*
X155308036Y-109570499D01*
X155308039Y-109570500D01*
X155308041Y-109570500D01*
X155451959Y-109570500D01*
X155451961Y-109570500D01*
X155590053Y-109529953D01*
X155711128Y-109452143D01*
X155805377Y-109343373D01*
X155865165Y-109212457D01*
X155871992Y-109164971D01*
X155885647Y-109070002D01*
X155885647Y-109069997D01*
X155865165Y-108927543D01*
X155805377Y-108796627D01*
X155783318Y-108771169D01*
X155759500Y-108714810D01*
X155773359Y-108655214D01*
X155788130Y-108636338D01*
X155844065Y-108580404D01*
X155894068Y-108473173D01*
X155900500Y-108424316D01*
X155900500Y-108075684D01*
X155894068Y-108026827D01*
X155891275Y-108020838D01*
X155847902Y-107927824D01*
X158979999Y-107927824D01*
X158986401Y-107987370D01*
X158986403Y-107987381D01*
X159036646Y-108122088D01*
X159036647Y-108122090D01*
X159122807Y-108237184D01*
X159122815Y-108237192D01*
X159237909Y-108323352D01*
X159237911Y-108323353D01*
X159372618Y-108373596D01*
X159372629Y-108373598D01*
X159432176Y-108380000D01*
X159966639Y-108380000D01*
X160024830Y-108398907D01*
X160060794Y-108448407D01*
X160060794Y-108509593D01*
X160024830Y-108559093D01*
X159995377Y-108573737D01*
X159926045Y-108594768D01*
X159743547Y-108692316D01*
X159583595Y-108823585D01*
X159583585Y-108823595D01*
X159452316Y-108983547D01*
X159354768Y-109166045D01*
X159294699Y-109364065D01*
X159294698Y-109364070D01*
X159274417Y-109569996D01*
X159274417Y-109570003D01*
X159294698Y-109775929D01*
X159294699Y-109775934D01*
X159354768Y-109973954D01*
X159452316Y-110156452D01*
X159529089Y-110250000D01*
X159583590Y-110316410D01*
X159583595Y-110316414D01*
X159743547Y-110447683D01*
X159743548Y-110447683D01*
X159743550Y-110447685D01*
X159926046Y-110545232D01*
X160041058Y-110580120D01*
X160124065Y-110605300D01*
X160124070Y-110605301D01*
X160329997Y-110625583D01*
X160330000Y-110625583D01*
X160330003Y-110625583D01*
X160535929Y-110605301D01*
X160535934Y-110605300D01*
X160733954Y-110545232D01*
X160916450Y-110447685D01*
X161076410Y-110316410D01*
X161207685Y-110156450D01*
X161305232Y-109973954D01*
X161365300Y-109775934D01*
X161365301Y-109775929D01*
X161385583Y-109570003D01*
X161385583Y-109569996D01*
X161365301Y-109364070D01*
X161365300Y-109364065D01*
X161329270Y-109245289D01*
X161305232Y-109166046D01*
X161207685Y-108983550D01*
X161198581Y-108972457D01*
X161081672Y-108830002D01*
X161076410Y-108823590D01*
X161053913Y-108805127D01*
X160916452Y-108692316D01*
X160733954Y-108594768D01*
X160664622Y-108573736D01*
X160614426Y-108538752D01*
X160594380Y-108480944D01*
X160612141Y-108422393D01*
X160660925Y-108385464D01*
X160693361Y-108380000D01*
X161227824Y-108380000D01*
X161287370Y-108373598D01*
X161287381Y-108373596D01*
X161422088Y-108323353D01*
X161422090Y-108323352D01*
X161537184Y-108237192D01*
X161537192Y-108237184D01*
X161623352Y-108122090D01*
X161623353Y-108122088D01*
X161673596Y-107987381D01*
X161673598Y-107987370D01*
X161680000Y-107927824D01*
X161680000Y-107280001D01*
X161679999Y-107280000D01*
X160763012Y-107280000D01*
X160795925Y-107222993D01*
X160830000Y-107095826D01*
X160830000Y-106964174D01*
X160795925Y-106837007D01*
X160763012Y-106780000D01*
X161679999Y-106780000D01*
X161680000Y-106779999D01*
X161680000Y-106132175D01*
X161673598Y-106072629D01*
X161673596Y-106072618D01*
X161623353Y-105937911D01*
X161623352Y-105937909D01*
X161537192Y-105822815D01*
X161537184Y-105822807D01*
X161422090Y-105736647D01*
X161422088Y-105736646D01*
X161287381Y-105686403D01*
X161287370Y-105686401D01*
X161227824Y-105680000D01*
X160580001Y-105680000D01*
X160580000Y-105680001D01*
X160580000Y-106596988D01*
X160522993Y-106564075D01*
X160395826Y-106530000D01*
X160264174Y-106530000D01*
X160137007Y-106564075D01*
X160080000Y-106596988D01*
X160080000Y-105680001D01*
X160079999Y-105680000D01*
X159432176Y-105680000D01*
X159372629Y-105686401D01*
X159372618Y-105686403D01*
X159237911Y-105736646D01*
X159237909Y-105736647D01*
X159122815Y-105822807D01*
X159122807Y-105822815D01*
X159036647Y-105937909D01*
X159036646Y-105937911D01*
X158986403Y-106072618D01*
X158986401Y-106072629D01*
X158980000Y-106132175D01*
X158980000Y-106779999D01*
X158980001Y-106780000D01*
X159896988Y-106780000D01*
X159864075Y-106837007D01*
X159830000Y-106964174D01*
X159830000Y-107095826D01*
X159864075Y-107222993D01*
X159896988Y-107280000D01*
X158980001Y-107280000D01*
X158980000Y-107280001D01*
X158980000Y-107927824D01*
X158979999Y-107927824D01*
X155847902Y-107927824D01*
X155844066Y-107919598D01*
X155844065Y-107919597D01*
X155844065Y-107919596D01*
X155760404Y-107835935D01*
X155747085Y-107829724D01*
X155702337Y-107787997D01*
X155690662Y-107727936D01*
X155716519Y-107672483D01*
X155747084Y-107650275D01*
X155760404Y-107644065D01*
X155844065Y-107560404D01*
X155894068Y-107453173D01*
X155900500Y-107404316D01*
X155900500Y-107055684D01*
X155894068Y-107006827D01*
X155874178Y-106964174D01*
X155844066Y-106899598D01*
X155844065Y-106899597D01*
X155844065Y-106899596D01*
X155760404Y-106815935D01*
X155760402Y-106815934D01*
X155760401Y-106815933D01*
X155653175Y-106765932D01*
X155615307Y-106760947D01*
X155604316Y-106759500D01*
X155155684Y-106759500D01*
X155144693Y-106760947D01*
X155106825Y-106765932D01*
X155106824Y-106765932D01*
X154999598Y-106815933D01*
X154999595Y-106815935D01*
X154965026Y-106850504D01*
X154910509Y-106878281D01*
X154895023Y-106879500D01*
X154828433Y-106879500D01*
X154770242Y-106860593D01*
X154734278Y-106811093D01*
X154734278Y-106749907D01*
X154749180Y-106721170D01*
X154823354Y-106622087D01*
X154873596Y-106487381D01*
X154873598Y-106487370D01*
X154880000Y-106427824D01*
X154880000Y-106380001D01*
X154879999Y-106380000D01*
X154409689Y-106380000D01*
X154399988Y-106379524D01*
X154399751Y-106379500D01*
X154399748Y-106379500D01*
X154180144Y-106379500D01*
X153491856Y-106379500D01*
X153489197Y-106379500D01*
X153481569Y-106380000D01*
X153388001Y-106380000D01*
X153375832Y-106392168D01*
X153369093Y-106412912D01*
X153338503Y-106440456D01*
X153322790Y-106449528D01*
X153322787Y-106449530D01*
X153081503Y-106690814D01*
X153026987Y-106718591D01*
X152966555Y-106709020D01*
X152923290Y-106665755D01*
X152912500Y-106620810D01*
X152912500Y-106560253D01*
X152912498Y-106560241D01*
X152900379Y-106499315D01*
X152900379Y-106460685D01*
X152912498Y-106399758D01*
X152912500Y-106399746D01*
X152912500Y-106060253D01*
X152912498Y-106060241D01*
X152906915Y-106032175D01*
X153388000Y-106032175D01*
X153388000Y-106079999D01*
X153388001Y-106080000D01*
X153983999Y-106080000D01*
X153984000Y-106079999D01*
X153984000Y-105580001D01*
X154284000Y-105580001D01*
X154284000Y-106079999D01*
X154284001Y-106080000D01*
X154879999Y-106080000D01*
X154880000Y-106079999D01*
X154880000Y-106032175D01*
X154873598Y-105972629D01*
X154873596Y-105972618D01*
X154823353Y-105837911D01*
X154823352Y-105837909D01*
X154737192Y-105722815D01*
X154737184Y-105722807D01*
X154622090Y-105636647D01*
X154622088Y-105636646D01*
X154487381Y-105586403D01*
X154487370Y-105586401D01*
X154427824Y-105580000D01*
X154284001Y-105580000D01*
X154284000Y-105580001D01*
X153984000Y-105580001D01*
X153983999Y-105580000D01*
X153840176Y-105580000D01*
X153780629Y-105586401D01*
X153780618Y-105586403D01*
X153645911Y-105636646D01*
X153645909Y-105636647D01*
X153530815Y-105722807D01*
X153530807Y-105722815D01*
X153444647Y-105837909D01*
X153444646Y-105837911D01*
X153394403Y-105972618D01*
X153394401Y-105972629D01*
X153388000Y-106032175D01*
X152906915Y-106032175D01*
X152900867Y-106001769D01*
X152856552Y-105935448D01*
X152856548Y-105935445D01*
X152849658Y-105928555D01*
X152851516Y-105926696D01*
X152822613Y-105890019D01*
X152816500Y-105855769D01*
X152816500Y-105627976D01*
X152835407Y-105569785D01*
X152845490Y-105557978D01*
X152868065Y-105535404D01*
X152918068Y-105428173D01*
X152924500Y-105379316D01*
X152924500Y-104930684D01*
X152918068Y-104881827D01*
X152895142Y-104832663D01*
X152868066Y-104774598D01*
X152868065Y-104774597D01*
X152868065Y-104774596D01*
X152784404Y-104690935D01*
X152784402Y-104690934D01*
X152784401Y-104690933D01*
X152677175Y-104640932D01*
X152644601Y-104636644D01*
X152628316Y-104634500D01*
X152279684Y-104634500D01*
X152263398Y-104636644D01*
X152230825Y-104640932D01*
X152230824Y-104640932D01*
X152123598Y-104690933D01*
X152039933Y-104774598D01*
X152033724Y-104787915D01*
X151991995Y-104832663D01*
X151931934Y-104844337D01*
X151876482Y-104818478D01*
X151854276Y-104787915D01*
X151848066Y-104774598D01*
X151848065Y-104774597D01*
X151848065Y-104774596D01*
X151764404Y-104690935D01*
X151764402Y-104690934D01*
X151764401Y-104690933D01*
X151657175Y-104640932D01*
X151624601Y-104636644D01*
X151608316Y-104634500D01*
X151259684Y-104634500D01*
X151243398Y-104636644D01*
X151210825Y-104640932D01*
X151210824Y-104640932D01*
X151103598Y-104690933D01*
X151019933Y-104774598D01*
X150969932Y-104881824D01*
X150969932Y-104881825D01*
X150963500Y-104930685D01*
X150963500Y-104947388D01*
X150944593Y-105005579D01*
X150934504Y-105017392D01*
X143561393Y-112390504D01*
X143506876Y-112418281D01*
X143491389Y-112419500D01*
X125125774Y-112419500D01*
X125067583Y-112400593D01*
X125031619Y-112351093D01*
X125031619Y-112289907D01*
X125067583Y-112240407D01*
X125087889Y-112229036D01*
X125092538Y-112227109D01*
X125107625Y-112220861D01*
X125222621Y-112132621D01*
X125310861Y-112017625D01*
X125366330Y-111883709D01*
X125385250Y-111740000D01*
X125366330Y-111596291D01*
X125310861Y-111462375D01*
X125222621Y-111347379D01*
X125107625Y-111259139D01*
X125107621Y-111259137D01*
X124973709Y-111203670D01*
X124973708Y-111203669D01*
X124830000Y-111184750D01*
X124686291Y-111203669D01*
X124686290Y-111203670D01*
X124552378Y-111259137D01*
X124552374Y-111259139D01*
X124437381Y-111347377D01*
X124437377Y-111347381D01*
X124349139Y-111462374D01*
X124349137Y-111462378D01*
X124293670Y-111596290D01*
X124293669Y-111596291D01*
X124274750Y-111739999D01*
X124274750Y-111740000D01*
X124293669Y-111883708D01*
X124293670Y-111883709D01*
X124306734Y-111915250D01*
X124349139Y-112017625D01*
X124437379Y-112132621D01*
X124552375Y-112220861D01*
X124563134Y-112225317D01*
X124572111Y-112229036D01*
X124618637Y-112268772D01*
X124632921Y-112328267D01*
X124609506Y-112384795D01*
X124557338Y-112416765D01*
X124534226Y-112419500D01*
X112521950Y-112419500D01*
X112463759Y-112400593D01*
X112451946Y-112390504D01*
X111957771Y-111896329D01*
X111460953Y-111399511D01*
X111460950Y-111399509D01*
X111460949Y-111399508D01*
X111460948Y-111399507D01*
X111392518Y-111359999D01*
X114014750Y-111359999D01*
X114014750Y-111360000D01*
X114033669Y-111503708D01*
X114033670Y-111503709D01*
X114072017Y-111596290D01*
X114089139Y-111637625D01*
X114177379Y-111752621D01*
X114292375Y-111840861D01*
X114426291Y-111896330D01*
X114570000Y-111915250D01*
X114713709Y-111896330D01*
X114847625Y-111840861D01*
X114962621Y-111752621D01*
X115050861Y-111637625D01*
X115106330Y-111503709D01*
X115125250Y-111360000D01*
X115123588Y-111347379D01*
X115106330Y-111216291D01*
X115050861Y-111082375D01*
X114962621Y-110967379D01*
X114847625Y-110879139D01*
X114847621Y-110879137D01*
X114713709Y-110823670D01*
X114713708Y-110823669D01*
X114592050Y-110807653D01*
X114571964Y-110798072D01*
X114547950Y-110807653D01*
X114426291Y-110823669D01*
X114426290Y-110823670D01*
X114292378Y-110879137D01*
X114292374Y-110879139D01*
X114177381Y-110967377D01*
X114177377Y-110967381D01*
X114089139Y-111082374D01*
X114089137Y-111082378D01*
X114033670Y-111216290D01*
X114033669Y-111216291D01*
X114014750Y-111359999D01*
X111392518Y-111359999D01*
X111358229Y-111340202D01*
X111358225Y-111340200D01*
X111334012Y-111333712D01*
X111334012Y-111333713D01*
X111243648Y-111309500D01*
X111243646Y-111309500D01*
X109740799Y-111309500D01*
X109682608Y-111290593D01*
X109680532Y-111289043D01*
X109667625Y-111279139D01*
X109667621Y-111279137D01*
X109533709Y-111223670D01*
X109533708Y-111223669D01*
X109390000Y-111204750D01*
X109246291Y-111223669D01*
X109246290Y-111223670D01*
X109112378Y-111279137D01*
X109112374Y-111279139D01*
X108997381Y-111367377D01*
X108997377Y-111367381D01*
X108909139Y-111482374D01*
X108909137Y-111482378D01*
X108853670Y-111616290D01*
X108853669Y-111616291D01*
X108834750Y-111759999D01*
X100012799Y-111759999D01*
X100012199Y-109240000D01*
X103890839Y-109240000D01*
X103931651Y-109374538D01*
X103931652Y-109374540D01*
X104024502Y-109548252D01*
X104137028Y-109685363D01*
X104159328Y-109742340D01*
X104159500Y-109748169D01*
X104159500Y-110779746D01*
X104159501Y-110779758D01*
X104171132Y-110838227D01*
X104171133Y-110838231D01*
X104215448Y-110904552D01*
X104281769Y-110948867D01*
X104326231Y-110957711D01*
X104340241Y-110960498D01*
X104340246Y-110960498D01*
X104340252Y-110960500D01*
X104340253Y-110960500D01*
X105379747Y-110960500D01*
X105379748Y-110960500D01*
X105438231Y-110948867D01*
X105504552Y-110904552D01*
X105548867Y-110838231D01*
X105560500Y-110779748D01*
X105560500Y-109748169D01*
X105579407Y-109689978D01*
X105582972Y-109685363D01*
X105695497Y-109548252D01*
X105788347Y-109374540D01*
X105788348Y-109374538D01*
X105829161Y-109240000D01*
X105069618Y-109240000D01*
X105120064Y-109189554D01*
X105162851Y-109115445D01*
X105185000Y-109032787D01*
X105185000Y-108947213D01*
X105162851Y-108864555D01*
X105120064Y-108790446D01*
X105069617Y-108739999D01*
X105110000Y-108739999D01*
X105110001Y-108740000D01*
X105829161Y-108740000D01*
X105788348Y-108605461D01*
X105788347Y-108605459D01*
X105695497Y-108431747D01*
X105695493Y-108431741D01*
X105570531Y-108279476D01*
X105570523Y-108279468D01*
X105418258Y-108154506D01*
X105418252Y-108154502D01*
X105244540Y-108061652D01*
X105244538Y-108061651D01*
X105110000Y-108020838D01*
X105110000Y-108739999D01*
X105069617Y-108739999D01*
X105059554Y-108729936D01*
X104985445Y-108687149D01*
X104902787Y-108665000D01*
X104817213Y-108665000D01*
X104734555Y-108687149D01*
X104660446Y-108729936D01*
X104599936Y-108790446D01*
X104557149Y-108864555D01*
X104535000Y-108947213D01*
X104535000Y-109032787D01*
X104557149Y-109115445D01*
X104599936Y-109189554D01*
X104650382Y-109240000D01*
X103890839Y-109240000D01*
X100012199Y-109240000D01*
X100012080Y-108740000D01*
X103890839Y-108740000D01*
X104609999Y-108740000D01*
X104610000Y-108739999D01*
X104610000Y-108020838D01*
X104475461Y-108061651D01*
X104475459Y-108061652D01*
X104301747Y-108154502D01*
X104301741Y-108154506D01*
X104149476Y-108279468D01*
X104149468Y-108279476D01*
X104024506Y-108431741D01*
X104024502Y-108431747D01*
X103931652Y-108605459D01*
X103931651Y-108605461D01*
X103890839Y-108740000D01*
X100012080Y-108740000D01*
X100011382Y-105809617D01*
X105449500Y-105809617D01*
X105449500Y-106675383D01*
X105452736Y-106687463D01*
X105461580Y-106720469D01*
X105473384Y-106764523D01*
X105473385Y-106764525D01*
X105473386Y-106764527D01*
X105519530Y-106844451D01*
X109185169Y-110510090D01*
X109237789Y-110540470D01*
X109265093Y-110556234D01*
X109354237Y-110580120D01*
X109354238Y-110580120D01*
X109446525Y-110580120D01*
X109841621Y-110580120D01*
X109899812Y-110599027D01*
X109908783Y-110607260D01*
X109908900Y-110607126D01*
X109914251Y-110611763D01*
X109989310Y-110660000D01*
X110035327Y-110689573D01*
X110141783Y-110720831D01*
X110173415Y-110730119D01*
X110173416Y-110730119D01*
X110173419Y-110730120D01*
X110173421Y-110730120D01*
X110317339Y-110730120D01*
X110317341Y-110730120D01*
X110455433Y-110689573D01*
X110576508Y-110611763D01*
X110670757Y-110502993D01*
X110696660Y-110446273D01*
X110738030Y-110401198D01*
X110797997Y-110389047D01*
X110853653Y-110414464D01*
X110856692Y-110417375D01*
X110979787Y-110540470D01*
X111007091Y-110556234D01*
X111048464Y-110580121D01*
X111048463Y-110580121D01*
X111057331Y-110585240D01*
X111059711Y-110586614D01*
X111148855Y-110610500D01*
X114535028Y-110610500D01*
X114565714Y-110620470D01*
X114604972Y-110610500D01*
X127211169Y-110610500D01*
X127269360Y-110629407D01*
X127296905Y-110660000D01*
X127337389Y-110730119D01*
X127367467Y-110782216D01*
X127367469Y-110782218D01*
X127477615Y-110904548D01*
X127494129Y-110922888D01*
X127647270Y-111034151D01*
X127820197Y-111111144D01*
X128005354Y-111150500D01*
X128005357Y-111150500D01*
X128194643Y-111150500D01*
X128194646Y-111150500D01*
X128379803Y-111111144D01*
X128552730Y-111034151D01*
X128705871Y-110922888D01*
X128832533Y-110782216D01*
X128927179Y-110618284D01*
X128985674Y-110438256D01*
X129005460Y-110250000D01*
X128985674Y-110061744D01*
X128927179Y-109881716D01*
X128927176Y-109881711D01*
X128927174Y-109881706D01*
X128866103Y-109775929D01*
X128832533Y-109717784D01*
X128749660Y-109625744D01*
X128724773Y-109569848D01*
X128737495Y-109510000D01*
X128782964Y-109469059D01*
X128823231Y-109460500D01*
X129313810Y-109460500D01*
X129372001Y-109479407D01*
X129383814Y-109489496D01*
X129760900Y-109866582D01*
X129788677Y-109921099D01*
X129785051Y-109967177D01*
X129754327Y-110061739D01*
X129754326Y-110061741D01*
X129754326Y-110061744D01*
X129734540Y-110250000D01*
X129751825Y-110414464D01*
X129754327Y-110438261D01*
X129812819Y-110618279D01*
X129812825Y-110618293D01*
X129877389Y-110730119D01*
X129907467Y-110782216D01*
X129907469Y-110782218D01*
X130017615Y-110904548D01*
X130034129Y-110922888D01*
X130187270Y-111034151D01*
X130360197Y-111111144D01*
X130545354Y-111150500D01*
X130545357Y-111150500D01*
X130734643Y-111150500D01*
X130734646Y-111150500D01*
X130919803Y-111111144D01*
X131092730Y-111034151D01*
X131245871Y-110922888D01*
X131372533Y-110782216D01*
X131467179Y-110618284D01*
X131525674Y-110438256D01*
X131545460Y-110250000D01*
X131525674Y-110061744D01*
X131525672Y-110061737D01*
X131525672Y-110061735D01*
X131494948Y-109967179D01*
X131494947Y-109905994D01*
X131519096Y-109866584D01*
X132176185Y-109209496D01*
X132230702Y-109181719D01*
X132246189Y-109180500D01*
X134258514Y-109180500D01*
X134316705Y-109199407D01*
X134352669Y-109248907D01*
X134352669Y-109310093D01*
X134316705Y-109359593D01*
X134279099Y-109376336D01*
X134245691Y-109383437D01*
X134220200Y-109388855D01*
X134220194Y-109388857D01*
X134047277Y-109465845D01*
X134047268Y-109465850D01*
X133894129Y-109577111D01*
X133894124Y-109577116D01*
X133767469Y-109717781D01*
X133767465Y-109717787D01*
X133672825Y-109881706D01*
X133672819Y-109881720D01*
X133614327Y-110061738D01*
X133614326Y-110061742D01*
X133614326Y-110061744D01*
X133594540Y-110250000D01*
X133611825Y-110414464D01*
X133614327Y-110438261D01*
X133672819Y-110618279D01*
X133672825Y-110618293D01*
X133737389Y-110730119D01*
X133767467Y-110782216D01*
X133767469Y-110782218D01*
X133877615Y-110904548D01*
X133894129Y-110922888D01*
X134047270Y-111034151D01*
X134220197Y-111111144D01*
X134405354Y-111150500D01*
X134405357Y-111150500D01*
X134594643Y-111150500D01*
X134594646Y-111150500D01*
X134779803Y-111111144D01*
X134952730Y-111034151D01*
X135105871Y-110922888D01*
X135232533Y-110782216D01*
X135327179Y-110618284D01*
X135385674Y-110438256D01*
X135405460Y-110250000D01*
X135385674Y-110061744D01*
X135327179Y-109881716D01*
X135327176Y-109881711D01*
X135327174Y-109881706D01*
X135266103Y-109775929D01*
X135232533Y-109717784D01*
X135126026Y-109599496D01*
X135105875Y-109577116D01*
X135105870Y-109577111D01*
X134985277Y-109489496D01*
X134952730Y-109465849D01*
X134952725Y-109465847D01*
X134952722Y-109465845D01*
X134779805Y-109388857D01*
X134779803Y-109388856D01*
X134779800Y-109388855D01*
X134779799Y-109388855D01*
X134765675Y-109385853D01*
X134720901Y-109376336D01*
X134667915Y-109345744D01*
X134643028Y-109289849D01*
X134655749Y-109230000D01*
X134701219Y-109189059D01*
X134741486Y-109180500D01*
X136798514Y-109180500D01*
X136856705Y-109199407D01*
X136892669Y-109248907D01*
X136892669Y-109310093D01*
X136856705Y-109359593D01*
X136819099Y-109376336D01*
X136785691Y-109383437D01*
X136760200Y-109388855D01*
X136760194Y-109388857D01*
X136587277Y-109465845D01*
X136587268Y-109465850D01*
X136434129Y-109577111D01*
X136434124Y-109577116D01*
X136307469Y-109717781D01*
X136307465Y-109717787D01*
X136212825Y-109881706D01*
X136212819Y-109881720D01*
X136154327Y-110061738D01*
X136154326Y-110061742D01*
X136154326Y-110061744D01*
X136134540Y-110250000D01*
X136151825Y-110414464D01*
X136154327Y-110438261D01*
X136212819Y-110618279D01*
X136212825Y-110618293D01*
X136277389Y-110730119D01*
X136307467Y-110782216D01*
X136307469Y-110782218D01*
X136417615Y-110904548D01*
X136434129Y-110922888D01*
X136587270Y-111034151D01*
X136760197Y-111111144D01*
X136945354Y-111150500D01*
X136945357Y-111150500D01*
X137134643Y-111150500D01*
X137134646Y-111150500D01*
X137319803Y-111111144D01*
X137492730Y-111034151D01*
X137645871Y-110922888D01*
X137772533Y-110782216D01*
X137867179Y-110618284D01*
X137925674Y-110438256D01*
X137945460Y-110250000D01*
X137925674Y-110061744D01*
X137867179Y-109881716D01*
X137867176Y-109881711D01*
X137867174Y-109881706D01*
X137806103Y-109775929D01*
X137772533Y-109717784D01*
X137666026Y-109599496D01*
X137645875Y-109577116D01*
X137645870Y-109577111D01*
X137525277Y-109489496D01*
X137492730Y-109465849D01*
X137492725Y-109465847D01*
X137492722Y-109465845D01*
X137319805Y-109388857D01*
X137319803Y-109388856D01*
X137319800Y-109388855D01*
X137319799Y-109388855D01*
X137305675Y-109385853D01*
X137260901Y-109376336D01*
X137207915Y-109345744D01*
X137183028Y-109289849D01*
X137195749Y-109230000D01*
X137241219Y-109189059D01*
X137281486Y-109180500D01*
X140646241Y-109180500D01*
X140704432Y-109199407D01*
X140713403Y-109207640D01*
X140713520Y-109207506D01*
X140718871Y-109212143D01*
X140777878Y-109250064D01*
X140839947Y-109289953D01*
X140946403Y-109321211D01*
X140978035Y-109330499D01*
X140978036Y-109330499D01*
X140978039Y-109330500D01*
X140978041Y-109330500D01*
X141121959Y-109330500D01*
X141121961Y-109330500D01*
X141260053Y-109289953D01*
X141381128Y-109212143D01*
X141475377Y-109103373D01*
X141535165Y-108972457D01*
X141549968Y-108869500D01*
X141555647Y-108830002D01*
X141555647Y-108829997D01*
X141535165Y-108687543D01*
X141497678Y-108605459D01*
X141475377Y-108556627D01*
X141381128Y-108447857D01*
X141381127Y-108447856D01*
X141381126Y-108447855D01*
X141260057Y-108370049D01*
X141260054Y-108370047D01*
X141260053Y-108370047D01*
X141260050Y-108370046D01*
X141121964Y-108329500D01*
X141121961Y-108329500D01*
X140978039Y-108329500D01*
X140978035Y-108329500D01*
X140839949Y-108370046D01*
X140839942Y-108370049D01*
X140718871Y-108447856D01*
X140713520Y-108452494D01*
X140712031Y-108450776D01*
X140668659Y-108476928D01*
X140646241Y-108479500D01*
X132013856Y-108479500D01*
X132008467Y-108480944D01*
X131930073Y-108501948D01*
X131930074Y-108501949D01*
X131924711Y-108503386D01*
X131844789Y-108549529D01*
X131844787Y-108549531D01*
X131027183Y-109367133D01*
X130972667Y-109394910D01*
X130925314Y-109388672D01*
X130924734Y-109390459D01*
X130919805Y-109388857D01*
X130919803Y-109388856D01*
X130919800Y-109388855D01*
X130919799Y-109388855D01*
X130860905Y-109376337D01*
X130734646Y-109349500D01*
X130545354Y-109349500D01*
X130462397Y-109367133D01*
X130360200Y-109388855D01*
X130355266Y-109390459D01*
X130354616Y-109388461D01*
X130302231Y-109393965D01*
X130252815Y-109367133D01*
X129989053Y-109103371D01*
X129715212Y-108829530D01*
X129635288Y-108783386D01*
X129546144Y-108759500D01*
X127526144Y-108759500D01*
X127433856Y-108759500D01*
X127344712Y-108783386D01*
X127264788Y-108829530D01*
X126713814Y-109380504D01*
X126659297Y-109408281D01*
X126643810Y-109409500D01*
X125878899Y-109409500D01*
X125820708Y-109390593D01*
X125784744Y-109341093D01*
X125784744Y-109279907D01*
X125818091Y-109232376D01*
X125852240Y-109205795D01*
X125247487Y-108601042D01*
X125307890Y-108576022D01*
X125414351Y-108504888D01*
X125504888Y-108414351D01*
X125576022Y-108307890D01*
X125601042Y-108247487D01*
X126205373Y-108851818D01*
X126301670Y-108704427D01*
X126399861Y-108480573D01*
X126459869Y-108243607D01*
X126480054Y-108000000D01*
X126459869Y-107756392D01*
X126399861Y-107519426D01*
X126301670Y-107295572D01*
X126301667Y-107295567D01*
X126205373Y-107148180D01*
X125601041Y-107752511D01*
X125576022Y-107692110D01*
X125504888Y-107585649D01*
X125414351Y-107495112D01*
X125307890Y-107423978D01*
X125247485Y-107398957D01*
X125852240Y-106794203D01*
X125809510Y-106760947D01*
X125594534Y-106644606D01*
X125363330Y-106565233D01*
X125122222Y-106525000D01*
X124877778Y-106525000D01*
X124636669Y-106565233D01*
X124405465Y-106644606D01*
X124190485Y-106760948D01*
X124190484Y-106760949D01*
X124147758Y-106794203D01*
X124752512Y-107398957D01*
X124692110Y-107423978D01*
X124585649Y-107495112D01*
X124495112Y-107585649D01*
X124423978Y-107692110D01*
X124398957Y-107752512D01*
X123794625Y-107148180D01*
X123698332Y-107295567D01*
X123698329Y-107295572D01*
X123600138Y-107519426D01*
X123540130Y-107756392D01*
X123519945Y-108000000D01*
X123540130Y-108243607D01*
X123600138Y-108480573D01*
X123698329Y-108704427D01*
X123698332Y-108704432D01*
X123794625Y-108851818D01*
X124398957Y-108247485D01*
X124423978Y-108307890D01*
X124495112Y-108414351D01*
X124585649Y-108504888D01*
X124692110Y-108576022D01*
X124752511Y-108601041D01*
X124147758Y-109205795D01*
X124181908Y-109232375D01*
X124216216Y-109283037D01*
X124214193Y-109344189D01*
X124176612Y-109392473D01*
X124121101Y-109409500D01*
X118878899Y-109409500D01*
X118820708Y-109390593D01*
X118784744Y-109341093D01*
X118784744Y-109279907D01*
X118818091Y-109232376D01*
X118852240Y-109205795D01*
X118247487Y-108601042D01*
X118307890Y-108576022D01*
X118414351Y-108504888D01*
X118504888Y-108414351D01*
X118576022Y-108307890D01*
X118601042Y-108247487D01*
X119205373Y-108851818D01*
X119301670Y-108704427D01*
X119399861Y-108480573D01*
X119459869Y-108243607D01*
X119480054Y-108000000D01*
X119459869Y-107756392D01*
X119399861Y-107519426D01*
X119301670Y-107295572D01*
X119301667Y-107295567D01*
X119205373Y-107148180D01*
X118601041Y-107752511D01*
X118576022Y-107692110D01*
X118504888Y-107585649D01*
X118414351Y-107495112D01*
X118307890Y-107423978D01*
X118247485Y-107398957D01*
X118852240Y-106794203D01*
X118809510Y-106760947D01*
X118594530Y-106644604D01*
X118593526Y-106644164D01*
X118593230Y-106643901D01*
X118590930Y-106642656D01*
X118591223Y-106642113D01*
X118547829Y-106603477D01*
X118534774Y-106543701D01*
X118559348Y-106487667D01*
X118612165Y-106456780D01*
X118633288Y-106454500D01*
X120023747Y-106454500D01*
X120023748Y-106454500D01*
X120082231Y-106442867D01*
X120148552Y-106398552D01*
X120192867Y-106332231D01*
X120204500Y-106273748D01*
X120204500Y-105499995D01*
X122790882Y-105499995D01*
X122790882Y-105500004D01*
X122809309Y-105687109D01*
X122809310Y-105687112D01*
X122809311Y-105687115D01*
X122863891Y-105867039D01*
X122863894Y-105867044D01*
X122863895Y-105867047D01*
X122952520Y-106032854D01*
X122991211Y-106079999D01*
X123071801Y-106178199D01*
X123071806Y-106178203D01*
X123217145Y-106297479D01*
X123350414Y-106368712D01*
X123382961Y-106386109D01*
X123562885Y-106440689D01*
X123562887Y-106440689D01*
X123562890Y-106440690D01*
X123749996Y-106459118D01*
X123750000Y-106459118D01*
X123750004Y-106459118D01*
X123937109Y-106440690D01*
X123937110Y-106440689D01*
X123937115Y-106440689D01*
X124117039Y-106386109D01*
X124256424Y-106311606D01*
X124282854Y-106297479D01*
X124282855Y-106297477D01*
X124282857Y-106297477D01*
X124428199Y-106178199D01*
X124547477Y-106032857D01*
X124564093Y-106001772D01*
X124603471Y-105928100D01*
X124636109Y-105867039D01*
X124690689Y-105687115D01*
X124690760Y-105686403D01*
X124709118Y-105500004D01*
X124709118Y-105499995D01*
X124690690Y-105312890D01*
X124690689Y-105312887D01*
X124690689Y-105312885D01*
X124636109Y-105132961D01*
X124568022Y-105005579D01*
X124547479Y-104967145D01*
X124428203Y-104821806D01*
X124428199Y-104821801D01*
X124424150Y-104818478D01*
X124282854Y-104702520D01*
X124117047Y-104613895D01*
X124117044Y-104613894D01*
X124117039Y-104613891D01*
X123937115Y-104559311D01*
X123937112Y-104559310D01*
X123937109Y-104559309D01*
X123750004Y-104540882D01*
X123749996Y-104540882D01*
X123562890Y-104559309D01*
X123562887Y-104559310D01*
X123382964Y-104613890D01*
X123382961Y-104613891D01*
X123382958Y-104613892D01*
X123382952Y-104613895D01*
X123217145Y-104702520D01*
X123071806Y-104821796D01*
X123071796Y-104821806D01*
X122952520Y-104967145D01*
X122863895Y-105132952D01*
X122863890Y-105132964D01*
X122809310Y-105312887D01*
X122809309Y-105312890D01*
X122790882Y-105499995D01*
X120204500Y-105499995D01*
X120204500Y-104726252D01*
X120192867Y-104667769D01*
X120148552Y-104601448D01*
X120085491Y-104559311D01*
X120082233Y-104557134D01*
X120082231Y-104557133D01*
X120082228Y-104557132D01*
X120082227Y-104557132D01*
X120023758Y-104545501D01*
X120023748Y-104545500D01*
X118476252Y-104545500D01*
X118476251Y-104545500D01*
X118476241Y-104545501D01*
X118417772Y-104557132D01*
X118417766Y-104557134D01*
X118351451Y-104601445D01*
X118351445Y-104601451D01*
X118307134Y-104667766D01*
X118307132Y-104667772D01*
X118295501Y-104726241D01*
X118295500Y-104726253D01*
X118295500Y-106273746D01*
X118295501Y-106273758D01*
X118307132Y-106332227D01*
X118307134Y-106332233D01*
X118348132Y-106393590D01*
X118364741Y-106452478D01*
X118343564Y-106509882D01*
X118292690Y-106543875D01*
X118249523Y-106546242D01*
X118122223Y-106525000D01*
X117877778Y-106525000D01*
X117636669Y-106565233D01*
X117405465Y-106644606D01*
X117190485Y-106760948D01*
X117190484Y-106760949D01*
X117147758Y-106794203D01*
X117752512Y-107398957D01*
X117692110Y-107423978D01*
X117585649Y-107495112D01*
X117495112Y-107585649D01*
X117423978Y-107692110D01*
X117398957Y-107752512D01*
X116794625Y-107148180D01*
X116698332Y-107295567D01*
X116698329Y-107295572D01*
X116600138Y-107519426D01*
X116540130Y-107756392D01*
X116519945Y-108000000D01*
X116540130Y-108243607D01*
X116600138Y-108480573D01*
X116698329Y-108704427D01*
X116698332Y-108704432D01*
X116794625Y-108851818D01*
X117398957Y-108247485D01*
X117423978Y-108307890D01*
X117495112Y-108414351D01*
X117585649Y-108504888D01*
X117692110Y-108576022D01*
X117752511Y-108601041D01*
X117147758Y-109205795D01*
X117181908Y-109232375D01*
X117216216Y-109283037D01*
X117214193Y-109344189D01*
X117176612Y-109392473D01*
X117121101Y-109409500D01*
X114461951Y-109409500D01*
X114403760Y-109390593D01*
X114391947Y-109380504D01*
X112721205Y-107709762D01*
X112693428Y-107655245D01*
X112702999Y-107594813D01*
X112737686Y-107556474D01*
X112740053Y-107554953D01*
X112861128Y-107477143D01*
X112955377Y-107368373D01*
X113015165Y-107237457D01*
X113028001Y-107148180D01*
X113035647Y-107095002D01*
X113035647Y-107094997D01*
X113015165Y-106952543D01*
X113004543Y-106929284D01*
X112955377Y-106821627D01*
X112861128Y-106712857D01*
X112861127Y-106712856D01*
X112856491Y-106707506D01*
X112858524Y-106705743D01*
X112833067Y-106663505D01*
X112830500Y-106641105D01*
X112830500Y-105255439D01*
X112830500Y-105255438D01*
X112810022Y-105179012D01*
X112810020Y-105179009D01*
X112810020Y-105179007D01*
X112770463Y-105110493D01*
X112770462Y-105110492D01*
X112770461Y-105110491D01*
X112770460Y-105110489D01*
X111460546Y-103800575D01*
X111432769Y-103746058D01*
X111432558Y-103716482D01*
X111435647Y-103695000D01*
X111434200Y-103684937D01*
X111415165Y-103552543D01*
X111355377Y-103421628D01*
X111355377Y-103421627D01*
X111261128Y-103312857D01*
X111261127Y-103312856D01*
X111261126Y-103312855D01*
X111140057Y-103235049D01*
X111140054Y-103235047D01*
X111140053Y-103235047D01*
X111140050Y-103235046D01*
X111001964Y-103194500D01*
X111001961Y-103194500D01*
X110858039Y-103194500D01*
X110858035Y-103194500D01*
X110719949Y-103235046D01*
X110719942Y-103235049D01*
X110598873Y-103312855D01*
X110504622Y-103421628D01*
X110444834Y-103552543D01*
X110424353Y-103694997D01*
X110424353Y-103695002D01*
X110444834Y-103837456D01*
X110504622Y-103968371D01*
X110504623Y-103968373D01*
X110548844Y-104019407D01*
X110598873Y-104077144D01*
X110649925Y-104109953D01*
X110719947Y-104154953D01*
X110803534Y-104179496D01*
X110858035Y-104195499D01*
X110858036Y-104195499D01*
X110858039Y-104195500D01*
X110858041Y-104195500D01*
X110964521Y-104195500D01*
X111022712Y-104214407D01*
X111034525Y-104224496D01*
X112200504Y-105390475D01*
X112228281Y-105444992D01*
X112229500Y-105460479D01*
X112229500Y-106054810D01*
X112210593Y-106113001D01*
X112161093Y-106148965D01*
X112099907Y-106148965D01*
X112060496Y-106124814D01*
X109620619Y-103684937D01*
X109592842Y-103630420D01*
X109592631Y-103629022D01*
X109575165Y-103507543D01*
X109516822Y-103379792D01*
X109515377Y-103376627D01*
X109421128Y-103267857D01*
X109421127Y-103267856D01*
X109421126Y-103267855D01*
X109300057Y-103190049D01*
X109300054Y-103190047D01*
X109300053Y-103190047D01*
X109300050Y-103190046D01*
X109161964Y-103149500D01*
X109161961Y-103149500D01*
X109018039Y-103149500D01*
X109018035Y-103149500D01*
X108879949Y-103190046D01*
X108879942Y-103190049D01*
X108758871Y-103267856D01*
X108753520Y-103272494D01*
X108752031Y-103270776D01*
X108708659Y-103296928D01*
X108686241Y-103299500D01*
X107959617Y-103299500D01*
X107931688Y-103306983D01*
X107875830Y-103321950D01*
X107870473Y-103323385D01*
X107870469Y-103323387D01*
X107790551Y-103369528D01*
X105519528Y-105640551D01*
X105474294Y-105718899D01*
X105474290Y-105718907D01*
X105473387Y-105720470D01*
X105473386Y-105720472D01*
X105473386Y-105720473D01*
X105449500Y-105809617D01*
X100011382Y-105809617D01*
X100010770Y-103242252D01*
X100011312Y-103231885D01*
X100040178Y-102957248D01*
X100041794Y-102947045D01*
X100115865Y-102598568D01*
X100118543Y-102588578D01*
X100181861Y-102393709D01*
X101649500Y-102393709D01*
X101649500Y-102606290D01*
X101682752Y-102816238D01*
X101748443Y-103018412D01*
X101844948Y-103207815D01*
X101844950Y-103207819D01*
X101969891Y-103379786D01*
X101969893Y-103379788D01*
X101969896Y-103379792D01*
X102120208Y-103530104D01*
X102120211Y-103530106D01*
X102120213Y-103530108D01*
X102292180Y-103655049D01*
X102292184Y-103655051D01*
X102481588Y-103751557D01*
X102683757Y-103817246D01*
X102683758Y-103817246D01*
X102683761Y-103817247D01*
X102893710Y-103850500D01*
X102893713Y-103850500D01*
X103106290Y-103850500D01*
X103316238Y-103817247D01*
X103316239Y-103817246D01*
X103316243Y-103817246D01*
X103518412Y-103751557D01*
X103707816Y-103655051D01*
X103879792Y-103530104D01*
X104030104Y-103379792D01*
X104155051Y-103207816D01*
X104251557Y-103018412D01*
X104317246Y-102816243D01*
X104350500Y-102606287D01*
X104350500Y-102393713D01*
X104350500Y-102393709D01*
X104317247Y-102183761D01*
X104317246Y-102183757D01*
X104251557Y-101981588D01*
X104155051Y-101792184D01*
X104155049Y-101792180D01*
X104030108Y-101620213D01*
X104030106Y-101620211D01*
X104030104Y-101620208D01*
X103879792Y-101469896D01*
X103879788Y-101469893D01*
X103879786Y-101469891D01*
X103707819Y-101344950D01*
X103707815Y-101344948D01*
X103518412Y-101248443D01*
X103316238Y-101182752D01*
X103106290Y-101149500D01*
X103106287Y-101149500D01*
X102893713Y-101149500D01*
X102893710Y-101149500D01*
X102683761Y-101182752D01*
X102481587Y-101248443D01*
X102292184Y-101344948D01*
X102292180Y-101344950D01*
X102120213Y-101469891D01*
X101969891Y-101620213D01*
X101844950Y-101792180D01*
X101844948Y-101792184D01*
X101748443Y-101981587D01*
X101682752Y-102183761D01*
X101649500Y-102393709D01*
X100181861Y-102393709D01*
X100228626Y-102249782D01*
X100232339Y-102240108D01*
X100347439Y-101981587D01*
X100377234Y-101914664D01*
X100381926Y-101905458D01*
X100560048Y-101596942D01*
X100565675Y-101588276D01*
X100775088Y-101300043D01*
X100781584Y-101292022D01*
X101019965Y-101027273D01*
X101027273Y-101019965D01*
X101292022Y-100781584D01*
X101300043Y-100775088D01*
X101588276Y-100565675D01*
X101596942Y-100560048D01*
X101905458Y-100381926D01*
X101914664Y-100377234D01*
X102240110Y-100232338D01*
X102249782Y-100228626D01*
X102588578Y-100118543D01*
X102598568Y-100115865D01*
X102947045Y-100041794D01*
X102957246Y-100040178D01*
X103229900Y-100011519D01*
X103240266Y-100010978D01*
X116901030Y-100015119D01*
G37*
%TD.AperFunction*%
M02*
