%TF.GenerationSoftware,KiCad,Pcbnew,8.0.2-1*%
%TF.CreationDate,2025-01-23T13:43:47+09:00*%
%TF.ProjectId,gas_nrf52832,6761735f-6e72-4663-9532-3833322e6b69,rev?*%
%TF.SameCoordinates,Original*%
%TF.FileFunction,Other,User*%
%FSLAX46Y46*%
G04 Gerber Fmt 4.6, Leading zero omitted, Abs format (unit mm)*
G04 Created by KiCad (PCBNEW 8.0.2-1) date 2025-01-23 13:43:47*
%MOMM*%
%LPD*%
G01*
G04 APERTURE LIST*
%ADD10C,0.050000*%
G04 APERTURE END LIST*
D10*
X151014000Y-104685000D02*
X152874000Y-104685000D01*
X151014000Y-105625000D02*
X151014000Y-104685000D01*
X152874000Y-104685000D02*
X152874000Y-105625000D01*
X152874000Y-105625000D02*
X151014000Y-105625000D01*
X152070000Y-105730000D02*
X154530000Y-105730000D01*
X152070000Y-107730000D02*
X152070000Y-105730000D01*
X154530000Y-105730000D02*
X154530000Y-107730000D01*
X154530000Y-107730000D02*
X152070000Y-107730000D01*
X153257500Y-129890000D02*
X153257500Y-133390000D01*
X153257500Y-133390000D02*
X156757500Y-133390000D01*
X156757500Y-129890000D02*
X153257500Y-129890000D01*
X156757500Y-133390000D02*
X156757500Y-129890000D01*
X151730000Y-108050000D02*
X153590000Y-108050000D01*
X151730000Y-108990000D02*
X151730000Y-108050000D01*
X153590000Y-108050000D02*
X153590000Y-108990000D01*
X153590000Y-108990000D02*
X151730000Y-108990000D01*
X154730000Y-133505000D02*
X156550000Y-133505000D01*
X154730000Y-134425000D02*
X154730000Y-133505000D01*
X156550000Y-133505000D02*
X156550000Y-134425000D01*
X156550000Y-134425000D02*
X154730000Y-134425000D01*
X154910000Y-106810000D02*
X155850000Y-106810000D01*
X154910000Y-108670000D02*
X154910000Y-106810000D01*
X155850000Y-106810000D02*
X155850000Y-108670000D01*
X155850000Y-108670000D02*
X154910000Y-108670000D01*
X152435000Y-133505000D02*
X154255000Y-133505000D01*
X152435000Y-134425000D02*
X152435000Y-133505000D01*
X154255000Y-133505000D02*
X154255000Y-134425000D01*
X154255000Y-134425000D02*
X152435000Y-134425000D01*
M02*
