%TF.GenerationSoftware,KiCad,Pcbnew,7.0.9*%
%TF.CreationDate,2023-12-22T14:05:00+09:00*%
%TF.ProjectId,gas_nrf52832,6761735f-6e72-4663-9532-3833322e6b69,rev?*%
%TF.SameCoordinates,Original*%
%TF.FileFunction,Soldermask,Top*%
%TF.FilePolarity,Negative*%
%FSLAX46Y46*%
G04 Gerber Fmt 4.6, Leading zero omitted, Abs format (unit mm)*
G04 Created by KiCad (PCBNEW 7.0.9) date 2023-12-22 14:05:00*
%MOMM*%
%LPD*%
G01*
G04 APERTURE LIST*
G04 Aperture macros list*
%AMRoundRect*
0 Rectangle with rounded corners*
0 $1 Rounding radius*
0 $2 $3 $4 $5 $6 $7 $8 $9 X,Y pos of 4 corners*
0 Add a 4 corners polygon primitive as box body*
4,1,4,$2,$3,$4,$5,$6,$7,$8,$9,$2,$3,0*
0 Add four circle primitives for the rounded corners*
1,1,$1+$1,$2,$3*
1,1,$1+$1,$4,$5*
1,1,$1+$1,$6,$7*
1,1,$1+$1,$8,$9*
0 Add four rect primitives between the rounded corners*
20,1,$1+$1,$2,$3,$4,$5,0*
20,1,$1+$1,$4,$5,$6,$7,0*
20,1,$1+$1,$6,$7,$8,$9,0*
20,1,$1+$1,$8,$9,$2,$3,0*%
G04 Aperture macros list end*
%ADD10RoundRect,0.135000X-0.135000X-0.185000X0.135000X-0.185000X0.135000X0.185000X-0.135000X0.185000X0*%
%ADD11RoundRect,0.225000X0.250000X-0.225000X0.250000X0.225000X-0.250000X0.225000X-0.250000X-0.225000X0*%
%ADD12R,0.800000X0.300000*%
%ADD13R,0.300000X0.800000*%
%ADD14R,2.800000X2.800000*%
%ADD15RoundRect,0.225000X-0.250000X0.225000X-0.250000X-0.225000X0.250000X-0.225000X0.250000X0.225000X0*%
%ADD16RoundRect,0.218750X-0.218750X-0.256250X0.218750X-0.256250X0.218750X0.256250X-0.218750X0.256250X0*%
%ADD17R,1.700000X1.700000*%
%ADD18O,1.700000X1.700000*%
%ADD19RoundRect,0.140000X-0.140000X-0.170000X0.140000X-0.170000X0.140000X0.170000X-0.140000X0.170000X0*%
%ADD20RoundRect,0.225000X-0.225000X-0.250000X0.225000X-0.250000X0.225000X0.250000X-0.225000X0.250000X0*%
%ADD21RoundRect,0.218750X0.256250X-0.218750X0.256250X0.218750X-0.256250X0.218750X-0.256250X-0.218750X0*%
%ADD22RoundRect,0.225000X0.225000X0.250000X-0.225000X0.250000X-0.225000X-0.250000X0.225000X-0.250000X0*%
%ADD23C,2.200000*%
%ADD24RoundRect,0.135000X0.185000X-0.135000X0.185000X0.135000X-0.185000X0.135000X-0.185000X-0.135000X0*%
%ADD25R,1.000000X1.000000*%
%ADD26O,1.000000X1.000000*%
%ADD27RoundRect,0.135000X-0.185000X0.135000X-0.185000X-0.135000X0.185000X-0.135000X0.185000X0.135000X0*%
%ADD28R,0.400000X0.500000*%
%ADD29RoundRect,0.150000X0.512500X0.150000X-0.512500X0.150000X-0.512500X-0.150000X0.512500X-0.150000X0*%
%ADD30R,0.300000X0.492000*%
%ADD31RoundRect,0.102000X-0.600000X0.350000X-0.600000X-0.350000X0.600000X-0.350000X0.600000X0.350000X0*%
%ADD32RoundRect,0.102000X-0.600000X0.380000X-0.600000X-0.380000X0.600000X-0.380000X0.600000X0.380000X0*%
%ADD33RoundRect,0.102000X-0.600000X0.400000X-0.600000X-0.400000X0.600000X-0.400000X0.600000X0.400000X0*%
%ADD34O,2.304000X1.304000*%
%ADD35O,1.904000X1.304000*%
%ADD36R,1.450000X0.450000*%
%ADD37R,1.250000X0.600000*%
%ADD38RoundRect,0.125000X-0.125000X-0.137500X0.125000X-0.137500X0.125000X0.137500X-0.125000X0.137500X0*%
%ADD39RoundRect,0.135000X0.135000X0.185000X-0.135000X0.185000X-0.135000X-0.185000X0.135000X-0.185000X0*%
%ADD40RoundRect,0.102000X-0.400000X0.700000X-0.400000X-0.700000X0.400000X-0.700000X0.400000X0.700000X0*%
%ADD41RoundRect,0.102000X-0.200000X0.700000X-0.200000X-0.700000X0.200000X-0.700000X0.200000X0.700000X0*%
%ADD42RoundRect,0.102000X-0.700000X-0.200000X0.700000X-0.200000X0.700000X0.200000X-0.700000X0.200000X0*%
%ADD43RoundRect,0.102000X0.700000X0.200000X-0.700000X0.200000X-0.700000X-0.200000X0.700000X-0.200000X0*%
%ADD44RoundRect,0.102000X0.200000X-0.700000X0.200000X0.700000X-0.200000X0.700000X-0.200000X-0.700000X0*%
%ADD45RoundRect,0.102000X0.400000X-0.700000X0.400000X0.700000X-0.400000X0.700000X-0.400000X-0.700000X0*%
%ADD46RoundRect,0.140000X0.140000X0.170000X-0.140000X0.170000X-0.140000X-0.170000X0.140000X-0.170000X0*%
%ADD47C,0.208000*%
%ADD48RoundRect,0.200000X0.200000X0.275000X-0.200000X0.275000X-0.200000X-0.275000X0.200000X-0.275000X0*%
%ADD49RoundRect,0.140000X-0.170000X0.140000X-0.170000X-0.140000X0.170000X-0.140000X0.170000X0.140000X0*%
%ADD50O,1.350000X1.350000*%
%ADD51R,1.350000X1.350000*%
%ADD52RoundRect,0.147500X-0.172500X0.147500X-0.172500X-0.147500X0.172500X-0.147500X0.172500X0.147500X0*%
%ADD53R,0.800000X1.800000*%
%ADD54R,0.500000X0.400000*%
%ADD55R,1.800000X1.000000*%
%ADD56C,3.800000*%
G04 APERTURE END LIST*
D10*
X111500000Y-90980000D03*
X112520000Y-90980000D03*
D11*
X116910000Y-99740000D03*
X116910000Y-98190000D03*
D10*
X94985000Y-101260000D03*
X96005000Y-101260000D03*
D12*
X116920000Y-86500000D03*
X116920000Y-86000000D03*
X116920000Y-85500000D03*
X116920000Y-85000000D03*
X116920000Y-84500000D03*
X116920000Y-84000000D03*
D13*
X116170000Y-83250000D03*
X115670000Y-83250000D03*
X115170000Y-83250000D03*
X114670000Y-83250000D03*
X114170000Y-83250000D03*
X113670000Y-83250000D03*
D12*
X112920000Y-84000000D03*
X112920000Y-84500000D03*
X112920000Y-85000000D03*
X112920000Y-85500000D03*
X112920000Y-86000000D03*
X112920000Y-86500000D03*
D13*
X113670000Y-87250000D03*
X114170000Y-87250000D03*
X114670000Y-87250000D03*
X115170000Y-87250000D03*
X115670000Y-87250000D03*
X116170000Y-87250000D03*
D14*
X114920000Y-85250000D03*
D15*
X109220000Y-85985000D03*
X109220000Y-87535000D03*
D16*
X134725000Y-79300000D03*
X136300000Y-79300000D03*
D17*
X146600000Y-79520000D03*
D18*
X146600000Y-82060000D03*
X146600000Y-84600000D03*
D10*
X130640000Y-97300000D03*
X131660000Y-97300000D03*
D19*
X131940000Y-89627500D03*
X132900000Y-89627500D03*
D20*
X105750000Y-83800000D03*
X107300000Y-83800000D03*
D21*
X140500000Y-88535000D03*
X140500000Y-86960000D03*
D20*
X124850000Y-98200000D03*
X126400000Y-98200000D03*
D22*
X137350000Y-87100000D03*
X135800000Y-87100000D03*
D10*
X135680000Y-84600000D03*
X136700000Y-84600000D03*
D23*
X91900000Y-78000000D03*
X91900000Y-108000000D03*
X150900000Y-78000000D03*
X150900000Y-108000000D03*
D24*
X131800000Y-94510000D03*
X131800000Y-93490000D03*
D20*
X130925000Y-86150000D03*
X132475000Y-86150000D03*
X131450000Y-87750000D03*
X133000000Y-87750000D03*
D25*
X102200000Y-82100000D03*
D26*
X100930000Y-82100000D03*
D27*
X115300000Y-103580000D03*
X115300000Y-104600000D03*
D11*
X137630000Y-103965000D03*
X137630000Y-102415000D03*
D28*
X125500000Y-84700000D03*
X126300000Y-84700000D03*
D29*
X125906250Y-95431250D03*
X125906250Y-94481250D03*
X125906250Y-93531250D03*
X123631250Y-93531250D03*
X123631250Y-95431250D03*
D30*
X129658000Y-95156500D03*
X130158000Y-95156500D03*
X130658000Y-95156500D03*
X130658000Y-93488500D03*
X130158000Y-93488500D03*
X129658000Y-93488500D03*
D31*
X95900000Y-93620000D03*
D32*
X95900000Y-95640000D03*
D33*
X95900000Y-96870000D03*
D31*
X95900000Y-94620000D03*
D32*
X95900000Y-92600000D03*
D33*
X95900000Y-91370000D03*
D34*
X90950000Y-88500000D03*
X90950000Y-99740000D03*
D35*
X94950000Y-88500000D03*
X94950000Y-99740000D03*
D36*
X103025000Y-94605407D03*
X103025000Y-95255407D03*
X103025000Y-95905407D03*
X103025000Y-96555407D03*
X107425000Y-96555407D03*
X107425000Y-95905407D03*
X107425000Y-95255407D03*
X107425000Y-94605407D03*
D27*
X143900000Y-82130000D03*
X143900000Y-83150000D03*
D20*
X101950000Y-92980407D03*
X103500000Y-92980407D03*
D16*
X141212500Y-79300000D03*
X142787500Y-79300000D03*
D10*
X124768750Y-96781250D03*
X125788750Y-96781250D03*
D15*
X110920000Y-86500000D03*
X110920000Y-88050000D03*
D37*
X142400000Y-83155000D03*
X142400000Y-81245000D03*
X140300000Y-82200000D03*
D27*
X129650000Y-91380000D03*
X129650000Y-92400000D03*
D16*
X137912500Y-79300000D03*
X139487500Y-79300000D03*
D19*
X133070000Y-83000000D03*
X134030000Y-83000000D03*
D24*
X123560000Y-98250000D03*
X123560000Y-97230000D03*
D38*
X140850000Y-101725000D03*
X141650000Y-101725000D03*
X142450000Y-101725000D03*
X143250000Y-101725000D03*
X143250000Y-104100000D03*
X142450000Y-104100000D03*
X141650000Y-104100000D03*
X140850000Y-104100000D03*
D10*
X97385000Y-93520000D03*
X98405000Y-93520000D03*
D39*
X112850000Y-82000000D03*
X111830000Y-82000000D03*
D40*
X149100000Y-90327500D03*
D41*
X146100000Y-90327500D03*
X145400000Y-90327500D03*
X144700000Y-90327500D03*
X144000000Y-90327500D03*
X143300000Y-90327500D03*
X142600000Y-90327500D03*
X141900000Y-90327500D03*
X141200000Y-90327500D03*
X140500000Y-90327500D03*
X139800000Y-90327500D03*
D42*
X137700000Y-90727500D03*
D43*
X137700000Y-91427500D03*
D42*
X137700000Y-92127500D03*
X137700000Y-92827500D03*
X137700000Y-93527500D03*
X137700000Y-94227500D03*
X137700000Y-94927500D03*
X137700000Y-95627500D03*
X137700000Y-96327500D03*
X137700000Y-97027500D03*
X137700000Y-97727500D03*
X137700000Y-98427500D03*
X137700000Y-99127500D03*
D44*
X139100000Y-99527500D03*
X139800000Y-99527500D03*
X140500000Y-99527500D03*
X141200000Y-99527500D03*
X141900000Y-99527500D03*
X142600000Y-99527500D03*
X143300000Y-99527500D03*
X144000000Y-99527500D03*
X144700000Y-99527500D03*
X145400000Y-99527500D03*
X146100000Y-99527500D03*
X146800000Y-99527500D03*
X147500000Y-99527500D03*
X148200000Y-99527500D03*
D45*
X149100000Y-99527500D03*
D11*
X115000000Y-97275000D03*
X115000000Y-95725000D03*
X136000000Y-103965000D03*
X136000000Y-102415000D03*
D46*
X95910000Y-86860000D03*
X94950000Y-86860000D03*
D22*
X120420000Y-86090000D03*
X118870000Y-86090000D03*
D11*
X121640000Y-99890000D03*
X121640000Y-98340000D03*
D24*
X123500000Y-92010000D03*
X123500000Y-90990000D03*
D17*
X139250000Y-106850000D03*
D18*
X141790000Y-106850000D03*
X144330000Y-106850000D03*
X146870000Y-106850000D03*
D15*
X133300000Y-95950000D03*
X133300000Y-97500000D03*
D27*
X130700000Y-81700000D03*
X130700000Y-82720000D03*
D22*
X140475000Y-85427500D03*
X138925000Y-85427500D03*
D10*
X124730000Y-92000000D03*
X125750000Y-92000000D03*
D47*
X132630000Y-101230000D03*
X132630000Y-100830000D03*
X133030000Y-101230000D03*
X133030000Y-100830000D03*
D10*
X101950000Y-91350000D03*
X102970000Y-91350000D03*
D11*
X118400000Y-90450000D03*
X118400000Y-88900000D03*
D24*
X107430000Y-98906657D03*
X107430000Y-97886657D03*
D48*
X109750000Y-90970000D03*
X108100000Y-90970000D03*
D49*
X132900000Y-91290000D03*
X132900000Y-92250000D03*
D50*
X123000000Y-79600000D03*
X125500000Y-79600000D03*
X128000000Y-79600000D03*
X123000000Y-82900000D03*
X125500000Y-82900000D03*
D51*
X128000000Y-82900000D03*
D10*
X109500000Y-98000000D03*
X110520000Y-98000000D03*
D52*
X141900000Y-86842500D03*
X141900000Y-87812500D03*
D53*
X116100000Y-90460000D03*
X114500000Y-90460000D03*
D10*
X109330000Y-84250000D03*
X110350000Y-84250000D03*
D37*
X138300000Y-83155000D03*
X138300000Y-81245000D03*
X136200000Y-82200000D03*
D54*
X129500000Y-90100000D03*
X129500000Y-89300000D03*
D10*
X97385000Y-94620000D03*
X98405000Y-94620000D03*
D55*
X134600000Y-89627500D03*
X134600000Y-92127500D03*
D39*
X131678000Y-96188500D03*
X130658000Y-96188500D03*
D27*
X131900000Y-82000000D03*
X131900000Y-83020000D03*
D22*
X106600000Y-93000000D03*
X105050000Y-93000000D03*
D16*
X131537500Y-79300000D03*
X133112500Y-79300000D03*
D20*
X130925000Y-84550000D03*
X132475000Y-84550000D03*
D56*
X104550000Y-101650000D03*
X104550000Y-88150000D03*
X111300000Y-94900000D03*
X119300000Y-94900000D03*
X126050000Y-88150000D03*
X126050000Y-101650000D03*
M02*
