%TF.GenerationSoftware,KiCad,Pcbnew,8.0.2-1*%
%TF.CreationDate,2025-01-23T13:43:47+09:00*%
%TF.ProjectId,gas_nrf52832,6761735f-6e72-4663-9532-3833322e6b69,rev?*%
%TF.SameCoordinates,Original*%
%TF.FileFunction,Profile,NP*%
%FSLAX46Y46*%
G04 Gerber Fmt 4.6, Leading zero omitted, Abs format (unit mm)*
G04 Created by KiCad (PCBNEW 8.0.2-1) date 2025-01-23 13:43:47*
%MOMM*%
%LPD*%
G01*
G04 APERTURE LIST*
%TA.AperFunction,Profile*%
%ADD10C,0.010000*%
%TD*%
G04 APERTURE END LIST*
D10*
X100000000Y-103500000D02*
X100000000Y-115500000D01*
X100000000Y-138500000D02*
X100000000Y-126500000D01*
X117000000Y-100000000D02*
X103500000Y-100000000D01*
X117000000Y-100000000D02*
X117000000Y-103000000D01*
X140000000Y-100000000D02*
X140000000Y-103000000D01*
X140000000Y-103000000D02*
X117000000Y-103000000D01*
X162500000Y-100000000D02*
X140000000Y-100000000D01*
X162500000Y-142000000D02*
X103500000Y-142000000D01*
X166000000Y-103500000D02*
X166000000Y-138500000D01*
X100000000Y-103500000D02*
G75*
G02*
X103500000Y-100000000I3500000J0D01*
G01*
X103500000Y-142000000D02*
G75*
G02*
X100000000Y-138500000I0J3500000D01*
G01*
X162500000Y-100000000D02*
G75*
G02*
X166000000Y-103500000I0J-3500000D01*
G01*
X166000000Y-138500000D02*
G75*
G02*
X162500000Y-142000000I-3500000J0D01*
G01*
X100000000Y-115500000D02*
X100400000Y-115900000D01*
X100400000Y-115900000D02*
X103400000Y-115900000D01*
X100400000Y-126100000D02*
X100000000Y-126500000D01*
X103400000Y-126100000D02*
X100400000Y-126100000D01*
X103900000Y-116400000D02*
X103900000Y-125600000D01*
X103400000Y-115900000D02*
G75*
G02*
X103900000Y-116400000I-1J-500001D01*
G01*
X103900000Y-125600000D02*
G75*
G02*
X103400000Y-126100000I-500000J0D01*
G01*
M02*
