%TF.GenerationSoftware,KiCad,Pcbnew,7.0.9*%
%TF.CreationDate,2023-12-22T14:05:00+09:00*%
%TF.ProjectId,gas_nrf52832,6761735f-6e72-4663-9532-3833322e6b69,rev?*%
%TF.SameCoordinates,Original*%
%TF.FileFunction,Legend,Top*%
%TF.FilePolarity,Positive*%
%FSLAX46Y46*%
G04 Gerber Fmt 4.6, Leading zero omitted, Abs format (unit mm)*
G04 Created by KiCad (PCBNEW 7.0.9) date 2023-12-22 14:05:00*
%MOMM*%
%LPD*%
G01*
G04 APERTURE LIST*
%ADD10C,0.150000*%
%ADD11C,0.120000*%
%ADD12C,0.250000*%
%ADD13C,0.050000*%
%ADD14C,0.200000*%
%ADD15C,0.127000*%
%ADD16C,0.100000*%
G04 APERTURE END LIST*
D10*
X100889160Y-108444295D02*
X100889160Y-107644295D01*
X100889160Y-108025247D02*
X101346303Y-108025247D01*
X101346303Y-108444295D02*
X101346303Y-107644295D01*
X101727255Y-108444295D02*
X101727255Y-107644295D01*
X101727255Y-108025247D02*
X102184398Y-108025247D01*
X102184398Y-108444295D02*
X102184398Y-107644295D01*
X102527254Y-108406200D02*
X102641540Y-108444295D01*
X102641540Y-108444295D02*
X102832016Y-108444295D01*
X102832016Y-108444295D02*
X102908207Y-108406200D01*
X102908207Y-108406200D02*
X102946302Y-108368104D01*
X102946302Y-108368104D02*
X102984397Y-108291914D01*
X102984397Y-108291914D02*
X102984397Y-108215723D01*
X102984397Y-108215723D02*
X102946302Y-108139533D01*
X102946302Y-108139533D02*
X102908207Y-108101438D01*
X102908207Y-108101438D02*
X102832016Y-108063342D01*
X102832016Y-108063342D02*
X102679635Y-108025247D01*
X102679635Y-108025247D02*
X102603445Y-107987152D01*
X102603445Y-107987152D02*
X102565350Y-107949057D01*
X102565350Y-107949057D02*
X102527254Y-107872866D01*
X102527254Y-107872866D02*
X102527254Y-107796676D01*
X102527254Y-107796676D02*
X102565350Y-107720485D01*
X102565350Y-107720485D02*
X102603445Y-107682390D01*
X102603445Y-107682390D02*
X102679635Y-107644295D01*
X102679635Y-107644295D02*
X102870112Y-107644295D01*
X102870112Y-107644295D02*
X102984397Y-107682390D01*
X104355826Y-107682390D02*
X104279636Y-107644295D01*
X104279636Y-107644295D02*
X104165350Y-107644295D01*
X104165350Y-107644295D02*
X104051064Y-107682390D01*
X104051064Y-107682390D02*
X103974874Y-107758580D01*
X103974874Y-107758580D02*
X103936779Y-107834771D01*
X103936779Y-107834771D02*
X103898683Y-107987152D01*
X103898683Y-107987152D02*
X103898683Y-108101438D01*
X103898683Y-108101438D02*
X103936779Y-108253819D01*
X103936779Y-108253819D02*
X103974874Y-108330009D01*
X103974874Y-108330009D02*
X104051064Y-108406200D01*
X104051064Y-108406200D02*
X104165350Y-108444295D01*
X104165350Y-108444295D02*
X104241541Y-108444295D01*
X104241541Y-108444295D02*
X104355826Y-108406200D01*
X104355826Y-108406200D02*
X104393922Y-108368104D01*
X104393922Y-108368104D02*
X104393922Y-108101438D01*
X104393922Y-108101438D02*
X104241541Y-108101438D01*
X105079636Y-108444295D02*
X105079636Y-108025247D01*
X105079636Y-108025247D02*
X105041541Y-107949057D01*
X105041541Y-107949057D02*
X104965350Y-107910961D01*
X104965350Y-107910961D02*
X104812969Y-107910961D01*
X104812969Y-107910961D02*
X104736779Y-107949057D01*
X105079636Y-108406200D02*
X105003445Y-108444295D01*
X105003445Y-108444295D02*
X104812969Y-108444295D01*
X104812969Y-108444295D02*
X104736779Y-108406200D01*
X104736779Y-108406200D02*
X104698683Y-108330009D01*
X104698683Y-108330009D02*
X104698683Y-108253819D01*
X104698683Y-108253819D02*
X104736779Y-108177628D01*
X104736779Y-108177628D02*
X104812969Y-108139533D01*
X104812969Y-108139533D02*
X105003445Y-108139533D01*
X105003445Y-108139533D02*
X105079636Y-108101438D01*
X105422493Y-108406200D02*
X105498684Y-108444295D01*
X105498684Y-108444295D02*
X105651065Y-108444295D01*
X105651065Y-108444295D02*
X105727255Y-108406200D01*
X105727255Y-108406200D02*
X105765351Y-108330009D01*
X105765351Y-108330009D02*
X105765351Y-108291914D01*
X105765351Y-108291914D02*
X105727255Y-108215723D01*
X105727255Y-108215723D02*
X105651065Y-108177628D01*
X105651065Y-108177628D02*
X105536779Y-108177628D01*
X105536779Y-108177628D02*
X105460589Y-108139533D01*
X105460589Y-108139533D02*
X105422493Y-108063342D01*
X105422493Y-108063342D02*
X105422493Y-108025247D01*
X105422493Y-108025247D02*
X105460589Y-107949057D01*
X105460589Y-107949057D02*
X105536779Y-107910961D01*
X105536779Y-107910961D02*
X105651065Y-107910961D01*
X105651065Y-107910961D02*
X105727255Y-107949057D01*
X106984398Y-108025247D02*
X107098684Y-108063342D01*
X107098684Y-108063342D02*
X107136779Y-108101438D01*
X107136779Y-108101438D02*
X107174875Y-108177628D01*
X107174875Y-108177628D02*
X107174875Y-108291914D01*
X107174875Y-108291914D02*
X107136779Y-108368104D01*
X107136779Y-108368104D02*
X107098684Y-108406200D01*
X107098684Y-108406200D02*
X107022494Y-108444295D01*
X107022494Y-108444295D02*
X106717732Y-108444295D01*
X106717732Y-108444295D02*
X106717732Y-107644295D01*
X106717732Y-107644295D02*
X106984398Y-107644295D01*
X106984398Y-107644295D02*
X107060589Y-107682390D01*
X107060589Y-107682390D02*
X107098684Y-107720485D01*
X107098684Y-107720485D02*
X107136779Y-107796676D01*
X107136779Y-107796676D02*
X107136779Y-107872866D01*
X107136779Y-107872866D02*
X107098684Y-107949057D01*
X107098684Y-107949057D02*
X107060589Y-107987152D01*
X107060589Y-107987152D02*
X106984398Y-108025247D01*
X106984398Y-108025247D02*
X106717732Y-108025247D01*
X107632017Y-108444295D02*
X107555827Y-108406200D01*
X107555827Y-108406200D02*
X107517732Y-108368104D01*
X107517732Y-108368104D02*
X107479636Y-108291914D01*
X107479636Y-108291914D02*
X107479636Y-108063342D01*
X107479636Y-108063342D02*
X107517732Y-107987152D01*
X107517732Y-107987152D02*
X107555827Y-107949057D01*
X107555827Y-107949057D02*
X107632017Y-107910961D01*
X107632017Y-107910961D02*
X107746303Y-107910961D01*
X107746303Y-107910961D02*
X107822494Y-107949057D01*
X107822494Y-107949057D02*
X107860589Y-107987152D01*
X107860589Y-107987152D02*
X107898684Y-108063342D01*
X107898684Y-108063342D02*
X107898684Y-108291914D01*
X107898684Y-108291914D02*
X107860589Y-108368104D01*
X107860589Y-108368104D02*
X107822494Y-108406200D01*
X107822494Y-108406200D02*
X107746303Y-108444295D01*
X107746303Y-108444295D02*
X107632017Y-108444295D01*
X108584399Y-108444295D02*
X108584399Y-108025247D01*
X108584399Y-108025247D02*
X108546304Y-107949057D01*
X108546304Y-107949057D02*
X108470113Y-107910961D01*
X108470113Y-107910961D02*
X108317732Y-107910961D01*
X108317732Y-107910961D02*
X108241542Y-107949057D01*
X108584399Y-108406200D02*
X108508208Y-108444295D01*
X108508208Y-108444295D02*
X108317732Y-108444295D01*
X108317732Y-108444295D02*
X108241542Y-108406200D01*
X108241542Y-108406200D02*
X108203446Y-108330009D01*
X108203446Y-108330009D02*
X108203446Y-108253819D01*
X108203446Y-108253819D02*
X108241542Y-108177628D01*
X108241542Y-108177628D02*
X108317732Y-108139533D01*
X108317732Y-108139533D02*
X108508208Y-108139533D01*
X108508208Y-108139533D02*
X108584399Y-108101438D01*
X108965352Y-108444295D02*
X108965352Y-107910961D01*
X108965352Y-108063342D02*
X109003447Y-107987152D01*
X109003447Y-107987152D02*
X109041542Y-107949057D01*
X109041542Y-107949057D02*
X109117733Y-107910961D01*
X109117733Y-107910961D02*
X109193923Y-107910961D01*
X109803447Y-108444295D02*
X109803447Y-107644295D01*
X109803447Y-108406200D02*
X109727256Y-108444295D01*
X109727256Y-108444295D02*
X109574875Y-108444295D01*
X109574875Y-108444295D02*
X109498685Y-108406200D01*
X109498685Y-108406200D02*
X109460590Y-108368104D01*
X109460590Y-108368104D02*
X109422494Y-108291914D01*
X109422494Y-108291914D02*
X109422494Y-108063342D01*
X109422494Y-108063342D02*
X109460590Y-107987152D01*
X109460590Y-107987152D02*
X109498685Y-107949057D01*
X109498685Y-107949057D02*
X109574875Y-107910961D01*
X109574875Y-107910961D02*
X109727256Y-107910961D01*
X109727256Y-107910961D02*
X109803447Y-107949057D01*
X111505714Y-92412295D02*
X111239047Y-92031342D01*
X111048571Y-92412295D02*
X111048571Y-91612295D01*
X111048571Y-91612295D02*
X111353333Y-91612295D01*
X111353333Y-91612295D02*
X111429523Y-91650390D01*
X111429523Y-91650390D02*
X111467618Y-91688485D01*
X111467618Y-91688485D02*
X111505714Y-91764676D01*
X111505714Y-91764676D02*
X111505714Y-91878961D01*
X111505714Y-91878961D02*
X111467618Y-91955152D01*
X111467618Y-91955152D02*
X111429523Y-91993247D01*
X111429523Y-91993247D02*
X111353333Y-92031342D01*
X111353333Y-92031342D02*
X111048571Y-92031342D01*
X112267618Y-92412295D02*
X111810475Y-92412295D01*
X112039047Y-92412295D02*
X112039047Y-91612295D01*
X112039047Y-91612295D02*
X111962856Y-91726580D01*
X111962856Y-91726580D02*
X111886666Y-91802771D01*
X111886666Y-91802771D02*
X111810475Y-91840866D01*
X112648571Y-92412295D02*
X112800952Y-92412295D01*
X112800952Y-92412295D02*
X112877142Y-92374200D01*
X112877142Y-92374200D02*
X112915238Y-92336104D01*
X112915238Y-92336104D02*
X112991428Y-92221819D01*
X112991428Y-92221819D02*
X113029523Y-92069438D01*
X113029523Y-92069438D02*
X113029523Y-91764676D01*
X113029523Y-91764676D02*
X112991428Y-91688485D01*
X112991428Y-91688485D02*
X112953333Y-91650390D01*
X112953333Y-91650390D02*
X112877142Y-91612295D01*
X112877142Y-91612295D02*
X112724761Y-91612295D01*
X112724761Y-91612295D02*
X112648571Y-91650390D01*
X112648571Y-91650390D02*
X112610476Y-91688485D01*
X112610476Y-91688485D02*
X112572380Y-91764676D01*
X112572380Y-91764676D02*
X112572380Y-91955152D01*
X112572380Y-91955152D02*
X112610476Y-92031342D01*
X112610476Y-92031342D02*
X112648571Y-92069438D01*
X112648571Y-92069438D02*
X112724761Y-92107533D01*
X112724761Y-92107533D02*
X112877142Y-92107533D01*
X112877142Y-92107533D02*
X112953333Y-92069438D01*
X112953333Y-92069438D02*
X112991428Y-92031342D01*
X112991428Y-92031342D02*
X113029523Y-91955152D01*
X116395714Y-101406104D02*
X116357618Y-101444200D01*
X116357618Y-101444200D02*
X116243333Y-101482295D01*
X116243333Y-101482295D02*
X116167142Y-101482295D01*
X116167142Y-101482295D02*
X116052856Y-101444200D01*
X116052856Y-101444200D02*
X115976666Y-101368009D01*
X115976666Y-101368009D02*
X115938571Y-101291819D01*
X115938571Y-101291819D02*
X115900475Y-101139438D01*
X115900475Y-101139438D02*
X115900475Y-101025152D01*
X115900475Y-101025152D02*
X115938571Y-100872771D01*
X115938571Y-100872771D02*
X115976666Y-100796580D01*
X115976666Y-100796580D02*
X116052856Y-100720390D01*
X116052856Y-100720390D02*
X116167142Y-100682295D01*
X116167142Y-100682295D02*
X116243333Y-100682295D01*
X116243333Y-100682295D02*
X116357618Y-100720390D01*
X116357618Y-100720390D02*
X116395714Y-100758485D01*
X116700475Y-100758485D02*
X116738571Y-100720390D01*
X116738571Y-100720390D02*
X116814761Y-100682295D01*
X116814761Y-100682295D02*
X117005237Y-100682295D01*
X117005237Y-100682295D02*
X117081428Y-100720390D01*
X117081428Y-100720390D02*
X117119523Y-100758485D01*
X117119523Y-100758485D02*
X117157618Y-100834676D01*
X117157618Y-100834676D02*
X117157618Y-100910866D01*
X117157618Y-100910866D02*
X117119523Y-101025152D01*
X117119523Y-101025152D02*
X116662380Y-101482295D01*
X116662380Y-101482295D02*
X117157618Y-101482295D01*
X117424285Y-100682295D02*
X117919523Y-100682295D01*
X117919523Y-100682295D02*
X117652857Y-100987057D01*
X117652857Y-100987057D02*
X117767142Y-100987057D01*
X117767142Y-100987057D02*
X117843333Y-101025152D01*
X117843333Y-101025152D02*
X117881428Y-101063247D01*
X117881428Y-101063247D02*
X117919523Y-101139438D01*
X117919523Y-101139438D02*
X117919523Y-101329914D01*
X117919523Y-101329914D02*
X117881428Y-101406104D01*
X117881428Y-101406104D02*
X117843333Y-101444200D01*
X117843333Y-101444200D02*
X117767142Y-101482295D01*
X117767142Y-101482295D02*
X117538571Y-101482295D01*
X117538571Y-101482295D02*
X117462380Y-101444200D01*
X117462380Y-101444200D02*
X117424285Y-101406104D01*
X92885714Y-101612295D02*
X92619047Y-101231342D01*
X92428571Y-101612295D02*
X92428571Y-100812295D01*
X92428571Y-100812295D02*
X92733333Y-100812295D01*
X92733333Y-100812295D02*
X92809523Y-100850390D01*
X92809523Y-100850390D02*
X92847618Y-100888485D01*
X92847618Y-100888485D02*
X92885714Y-100964676D01*
X92885714Y-100964676D02*
X92885714Y-101078961D01*
X92885714Y-101078961D02*
X92847618Y-101155152D01*
X92847618Y-101155152D02*
X92809523Y-101193247D01*
X92809523Y-101193247D02*
X92733333Y-101231342D01*
X92733333Y-101231342D02*
X92428571Y-101231342D01*
X93190475Y-100888485D02*
X93228571Y-100850390D01*
X93228571Y-100850390D02*
X93304761Y-100812295D01*
X93304761Y-100812295D02*
X93495237Y-100812295D01*
X93495237Y-100812295D02*
X93571428Y-100850390D01*
X93571428Y-100850390D02*
X93609523Y-100888485D01*
X93609523Y-100888485D02*
X93647618Y-100964676D01*
X93647618Y-100964676D02*
X93647618Y-101040866D01*
X93647618Y-101040866D02*
X93609523Y-101155152D01*
X93609523Y-101155152D02*
X93152380Y-101612295D01*
X93152380Y-101612295D02*
X93647618Y-101612295D01*
X94409523Y-101612295D02*
X93952380Y-101612295D01*
X94180952Y-101612295D02*
X94180952Y-100812295D01*
X94180952Y-100812295D02*
X94104761Y-100926580D01*
X94104761Y-100926580D02*
X94028571Y-101002771D01*
X94028571Y-101002771D02*
X93952380Y-101040866D01*
X116619048Y-82362295D02*
X116619048Y-81562295D01*
X117457143Y-82286104D02*
X117419047Y-82324200D01*
X117419047Y-82324200D02*
X117304762Y-82362295D01*
X117304762Y-82362295D02*
X117228571Y-82362295D01*
X117228571Y-82362295D02*
X117114285Y-82324200D01*
X117114285Y-82324200D02*
X117038095Y-82248009D01*
X117038095Y-82248009D02*
X117000000Y-82171819D01*
X117000000Y-82171819D02*
X116961904Y-82019438D01*
X116961904Y-82019438D02*
X116961904Y-81905152D01*
X116961904Y-81905152D02*
X117000000Y-81752771D01*
X117000000Y-81752771D02*
X117038095Y-81676580D01*
X117038095Y-81676580D02*
X117114285Y-81600390D01*
X117114285Y-81600390D02*
X117228571Y-81562295D01*
X117228571Y-81562295D02*
X117304762Y-81562295D01*
X117304762Y-81562295D02*
X117419047Y-81600390D01*
X117419047Y-81600390D02*
X117457143Y-81638485D01*
X118219047Y-82362295D02*
X117761904Y-82362295D01*
X117990476Y-82362295D02*
X117990476Y-81562295D01*
X117990476Y-81562295D02*
X117914285Y-81676580D01*
X117914285Y-81676580D02*
X117838095Y-81752771D01*
X117838095Y-81752771D02*
X117761904Y-81790866D01*
X107566667Y-87886104D02*
X107528571Y-87924200D01*
X107528571Y-87924200D02*
X107414286Y-87962295D01*
X107414286Y-87962295D02*
X107338095Y-87962295D01*
X107338095Y-87962295D02*
X107223809Y-87924200D01*
X107223809Y-87924200D02*
X107147619Y-87848009D01*
X107147619Y-87848009D02*
X107109524Y-87771819D01*
X107109524Y-87771819D02*
X107071428Y-87619438D01*
X107071428Y-87619438D02*
X107071428Y-87505152D01*
X107071428Y-87505152D02*
X107109524Y-87352771D01*
X107109524Y-87352771D02*
X107147619Y-87276580D01*
X107147619Y-87276580D02*
X107223809Y-87200390D01*
X107223809Y-87200390D02*
X107338095Y-87162295D01*
X107338095Y-87162295D02*
X107414286Y-87162295D01*
X107414286Y-87162295D02*
X107528571Y-87200390D01*
X107528571Y-87200390D02*
X107566667Y-87238485D01*
X108252381Y-87162295D02*
X108100000Y-87162295D01*
X108100000Y-87162295D02*
X108023809Y-87200390D01*
X108023809Y-87200390D02*
X107985714Y-87238485D01*
X107985714Y-87238485D02*
X107909524Y-87352771D01*
X107909524Y-87352771D02*
X107871428Y-87505152D01*
X107871428Y-87505152D02*
X107871428Y-87809914D01*
X107871428Y-87809914D02*
X107909524Y-87886104D01*
X107909524Y-87886104D02*
X107947619Y-87924200D01*
X107947619Y-87924200D02*
X108023809Y-87962295D01*
X108023809Y-87962295D02*
X108176190Y-87962295D01*
X108176190Y-87962295D02*
X108252381Y-87924200D01*
X108252381Y-87924200D02*
X108290476Y-87886104D01*
X108290476Y-87886104D02*
X108328571Y-87809914D01*
X108328571Y-87809914D02*
X108328571Y-87619438D01*
X108328571Y-87619438D02*
X108290476Y-87543247D01*
X108290476Y-87543247D02*
X108252381Y-87505152D01*
X108252381Y-87505152D02*
X108176190Y-87467057D01*
X108176190Y-87467057D02*
X108023809Y-87467057D01*
X108023809Y-87467057D02*
X107947619Y-87505152D01*
X107947619Y-87505152D02*
X107909524Y-87543247D01*
X107909524Y-87543247D02*
X107871428Y-87619438D01*
X134609524Y-78262295D02*
X134609524Y-77462295D01*
X134609524Y-77462295D02*
X134800000Y-77462295D01*
X134800000Y-77462295D02*
X134914286Y-77500390D01*
X134914286Y-77500390D02*
X134990476Y-77576580D01*
X134990476Y-77576580D02*
X135028571Y-77652771D01*
X135028571Y-77652771D02*
X135066667Y-77805152D01*
X135066667Y-77805152D02*
X135066667Y-77919438D01*
X135066667Y-77919438D02*
X135028571Y-78071819D01*
X135028571Y-78071819D02*
X134990476Y-78148009D01*
X134990476Y-78148009D02*
X134914286Y-78224200D01*
X134914286Y-78224200D02*
X134800000Y-78262295D01*
X134800000Y-78262295D02*
X134609524Y-78262295D01*
X135828571Y-78262295D02*
X135371428Y-78262295D01*
X135600000Y-78262295D02*
X135600000Y-77462295D01*
X135600000Y-77462295D02*
X135523809Y-77576580D01*
X135523809Y-77576580D02*
X135447619Y-77652771D01*
X135447619Y-77652771D02*
X135371428Y-77690866D01*
X143833333Y-79262295D02*
X143833333Y-79833723D01*
X143833333Y-79833723D02*
X143795238Y-79948009D01*
X143795238Y-79948009D02*
X143719047Y-80024200D01*
X143719047Y-80024200D02*
X143604762Y-80062295D01*
X143604762Y-80062295D02*
X143528571Y-80062295D01*
X144557143Y-79528961D02*
X144557143Y-80062295D01*
X144366667Y-79224200D02*
X144176190Y-79795628D01*
X144176190Y-79795628D02*
X144671429Y-79795628D01*
X129266667Y-97662295D02*
X129000000Y-97281342D01*
X128809524Y-97662295D02*
X128809524Y-96862295D01*
X128809524Y-96862295D02*
X129114286Y-96862295D01*
X129114286Y-96862295D02*
X129190476Y-96900390D01*
X129190476Y-96900390D02*
X129228571Y-96938485D01*
X129228571Y-96938485D02*
X129266667Y-97014676D01*
X129266667Y-97014676D02*
X129266667Y-97128961D01*
X129266667Y-97128961D02*
X129228571Y-97205152D01*
X129228571Y-97205152D02*
X129190476Y-97243247D01*
X129190476Y-97243247D02*
X129114286Y-97281342D01*
X129114286Y-97281342D02*
X128809524Y-97281342D01*
X129533333Y-96862295D02*
X130066667Y-96862295D01*
X130066667Y-96862295D02*
X129723809Y-97662295D01*
X130766667Y-89913604D02*
X130728571Y-89951700D01*
X130728571Y-89951700D02*
X130614286Y-89989795D01*
X130614286Y-89989795D02*
X130538095Y-89989795D01*
X130538095Y-89989795D02*
X130423809Y-89951700D01*
X130423809Y-89951700D02*
X130347619Y-89875509D01*
X130347619Y-89875509D02*
X130309524Y-89799319D01*
X130309524Y-89799319D02*
X130271428Y-89646938D01*
X130271428Y-89646938D02*
X130271428Y-89532652D01*
X130271428Y-89532652D02*
X130309524Y-89380271D01*
X130309524Y-89380271D02*
X130347619Y-89304080D01*
X130347619Y-89304080D02*
X130423809Y-89227890D01*
X130423809Y-89227890D02*
X130538095Y-89189795D01*
X130538095Y-89189795D02*
X130614286Y-89189795D01*
X130614286Y-89189795D02*
X130728571Y-89227890D01*
X130728571Y-89227890D02*
X130766667Y-89265985D01*
X131528571Y-89989795D02*
X131071428Y-89989795D01*
X131300000Y-89989795D02*
X131300000Y-89189795D01*
X131300000Y-89189795D02*
X131223809Y-89304080D01*
X131223809Y-89304080D02*
X131147619Y-89380271D01*
X131147619Y-89380271D02*
X131071428Y-89418366D01*
X106366667Y-85386104D02*
X106328571Y-85424200D01*
X106328571Y-85424200D02*
X106214286Y-85462295D01*
X106214286Y-85462295D02*
X106138095Y-85462295D01*
X106138095Y-85462295D02*
X106023809Y-85424200D01*
X106023809Y-85424200D02*
X105947619Y-85348009D01*
X105947619Y-85348009D02*
X105909524Y-85271819D01*
X105909524Y-85271819D02*
X105871428Y-85119438D01*
X105871428Y-85119438D02*
X105871428Y-85005152D01*
X105871428Y-85005152D02*
X105909524Y-84852771D01*
X105909524Y-84852771D02*
X105947619Y-84776580D01*
X105947619Y-84776580D02*
X106023809Y-84700390D01*
X106023809Y-84700390D02*
X106138095Y-84662295D01*
X106138095Y-84662295D02*
X106214286Y-84662295D01*
X106214286Y-84662295D02*
X106328571Y-84700390D01*
X106328571Y-84700390D02*
X106366667Y-84738485D01*
X106633333Y-84662295D02*
X107166667Y-84662295D01*
X107166667Y-84662295D02*
X106823809Y-85462295D01*
X138936666Y-88109795D02*
X138555714Y-88109795D01*
X138555714Y-88109795D02*
X138555714Y-87309795D01*
X139165237Y-87385985D02*
X139203333Y-87347890D01*
X139203333Y-87347890D02*
X139279523Y-87309795D01*
X139279523Y-87309795D02*
X139469999Y-87309795D01*
X139469999Y-87309795D02*
X139546190Y-87347890D01*
X139546190Y-87347890D02*
X139584285Y-87385985D01*
X139584285Y-87385985D02*
X139622380Y-87462176D01*
X139622380Y-87462176D02*
X139622380Y-87538366D01*
X139622380Y-87538366D02*
X139584285Y-87652652D01*
X139584285Y-87652652D02*
X139127142Y-88109795D01*
X139127142Y-88109795D02*
X139622380Y-88109795D01*
X127885714Y-98686104D02*
X127847618Y-98724200D01*
X127847618Y-98724200D02*
X127733333Y-98762295D01*
X127733333Y-98762295D02*
X127657142Y-98762295D01*
X127657142Y-98762295D02*
X127542856Y-98724200D01*
X127542856Y-98724200D02*
X127466666Y-98648009D01*
X127466666Y-98648009D02*
X127428571Y-98571819D01*
X127428571Y-98571819D02*
X127390475Y-98419438D01*
X127390475Y-98419438D02*
X127390475Y-98305152D01*
X127390475Y-98305152D02*
X127428571Y-98152771D01*
X127428571Y-98152771D02*
X127466666Y-98076580D01*
X127466666Y-98076580D02*
X127542856Y-98000390D01*
X127542856Y-98000390D02*
X127657142Y-97962295D01*
X127657142Y-97962295D02*
X127733333Y-97962295D01*
X127733333Y-97962295D02*
X127847618Y-98000390D01*
X127847618Y-98000390D02*
X127885714Y-98038485D01*
X128190475Y-98038485D02*
X128228571Y-98000390D01*
X128228571Y-98000390D02*
X128304761Y-97962295D01*
X128304761Y-97962295D02*
X128495237Y-97962295D01*
X128495237Y-97962295D02*
X128571428Y-98000390D01*
X128571428Y-98000390D02*
X128609523Y-98038485D01*
X128609523Y-98038485D02*
X128647618Y-98114676D01*
X128647618Y-98114676D02*
X128647618Y-98190866D01*
X128647618Y-98190866D02*
X128609523Y-98305152D01*
X128609523Y-98305152D02*
X128152380Y-98762295D01*
X128152380Y-98762295D02*
X128647618Y-98762295D01*
X128952380Y-98038485D02*
X128990476Y-98000390D01*
X128990476Y-98000390D02*
X129066666Y-97962295D01*
X129066666Y-97962295D02*
X129257142Y-97962295D01*
X129257142Y-97962295D02*
X129333333Y-98000390D01*
X129333333Y-98000390D02*
X129371428Y-98038485D01*
X129371428Y-98038485D02*
X129409523Y-98114676D01*
X129409523Y-98114676D02*
X129409523Y-98190866D01*
X129409523Y-98190866D02*
X129371428Y-98305152D01*
X129371428Y-98305152D02*
X128914285Y-98762295D01*
X128914285Y-98762295D02*
X129409523Y-98762295D01*
X136416667Y-86136104D02*
X136378571Y-86174200D01*
X136378571Y-86174200D02*
X136264286Y-86212295D01*
X136264286Y-86212295D02*
X136188095Y-86212295D01*
X136188095Y-86212295D02*
X136073809Y-86174200D01*
X136073809Y-86174200D02*
X135997619Y-86098009D01*
X135997619Y-86098009D02*
X135959524Y-86021819D01*
X135959524Y-86021819D02*
X135921428Y-85869438D01*
X135921428Y-85869438D02*
X135921428Y-85755152D01*
X135921428Y-85755152D02*
X135959524Y-85602771D01*
X135959524Y-85602771D02*
X135997619Y-85526580D01*
X135997619Y-85526580D02*
X136073809Y-85450390D01*
X136073809Y-85450390D02*
X136188095Y-85412295D01*
X136188095Y-85412295D02*
X136264286Y-85412295D01*
X136264286Y-85412295D02*
X136378571Y-85450390D01*
X136378571Y-85450390D02*
X136416667Y-85488485D01*
X137102381Y-85678961D02*
X137102381Y-86212295D01*
X136911905Y-85374200D02*
X136721428Y-85945628D01*
X136721428Y-85945628D02*
X137216667Y-85945628D01*
X134216667Y-84962295D02*
X133950000Y-84581342D01*
X133759524Y-84962295D02*
X133759524Y-84162295D01*
X133759524Y-84162295D02*
X134064286Y-84162295D01*
X134064286Y-84162295D02*
X134140476Y-84200390D01*
X134140476Y-84200390D02*
X134178571Y-84238485D01*
X134178571Y-84238485D02*
X134216667Y-84314676D01*
X134216667Y-84314676D02*
X134216667Y-84428961D01*
X134216667Y-84428961D02*
X134178571Y-84505152D01*
X134178571Y-84505152D02*
X134140476Y-84543247D01*
X134140476Y-84543247D02*
X134064286Y-84581342D01*
X134064286Y-84581342D02*
X133759524Y-84581342D01*
X134597619Y-84962295D02*
X134750000Y-84962295D01*
X134750000Y-84962295D02*
X134826190Y-84924200D01*
X134826190Y-84924200D02*
X134864286Y-84886104D01*
X134864286Y-84886104D02*
X134940476Y-84771819D01*
X134940476Y-84771819D02*
X134978571Y-84619438D01*
X134978571Y-84619438D02*
X134978571Y-84314676D01*
X134978571Y-84314676D02*
X134940476Y-84238485D01*
X134940476Y-84238485D02*
X134902381Y-84200390D01*
X134902381Y-84200390D02*
X134826190Y-84162295D01*
X134826190Y-84162295D02*
X134673809Y-84162295D01*
X134673809Y-84162295D02*
X134597619Y-84200390D01*
X134597619Y-84200390D02*
X134559524Y-84238485D01*
X134559524Y-84238485D02*
X134521428Y-84314676D01*
X134521428Y-84314676D02*
X134521428Y-84505152D01*
X134521428Y-84505152D02*
X134559524Y-84581342D01*
X134559524Y-84581342D02*
X134597619Y-84619438D01*
X134597619Y-84619438D02*
X134673809Y-84657533D01*
X134673809Y-84657533D02*
X134826190Y-84657533D01*
X134826190Y-84657533D02*
X134902381Y-84619438D01*
X134902381Y-84619438D02*
X134940476Y-84581342D01*
X134940476Y-84581342D02*
X134978571Y-84505152D01*
X132966667Y-94362295D02*
X132700000Y-93981342D01*
X132509524Y-94362295D02*
X132509524Y-93562295D01*
X132509524Y-93562295D02*
X132814286Y-93562295D01*
X132814286Y-93562295D02*
X132890476Y-93600390D01*
X132890476Y-93600390D02*
X132928571Y-93638485D01*
X132928571Y-93638485D02*
X132966667Y-93714676D01*
X132966667Y-93714676D02*
X132966667Y-93828961D01*
X132966667Y-93828961D02*
X132928571Y-93905152D01*
X132928571Y-93905152D02*
X132890476Y-93943247D01*
X132890476Y-93943247D02*
X132814286Y-93981342D01*
X132814286Y-93981342D02*
X132509524Y-93981342D01*
X133652381Y-93828961D02*
X133652381Y-94362295D01*
X133461905Y-93524200D02*
X133271428Y-94095628D01*
X133271428Y-94095628D02*
X133766667Y-94095628D01*
X128485714Y-86436104D02*
X128447618Y-86474200D01*
X128447618Y-86474200D02*
X128333333Y-86512295D01*
X128333333Y-86512295D02*
X128257142Y-86512295D01*
X128257142Y-86512295D02*
X128142856Y-86474200D01*
X128142856Y-86474200D02*
X128066666Y-86398009D01*
X128066666Y-86398009D02*
X128028571Y-86321819D01*
X128028571Y-86321819D02*
X127990475Y-86169438D01*
X127990475Y-86169438D02*
X127990475Y-86055152D01*
X127990475Y-86055152D02*
X128028571Y-85902771D01*
X128028571Y-85902771D02*
X128066666Y-85826580D01*
X128066666Y-85826580D02*
X128142856Y-85750390D01*
X128142856Y-85750390D02*
X128257142Y-85712295D01*
X128257142Y-85712295D02*
X128333333Y-85712295D01*
X128333333Y-85712295D02*
X128447618Y-85750390D01*
X128447618Y-85750390D02*
X128485714Y-85788485D01*
X129247618Y-86512295D02*
X128790475Y-86512295D01*
X129019047Y-86512295D02*
X129019047Y-85712295D01*
X129019047Y-85712295D02*
X128942856Y-85826580D01*
X128942856Y-85826580D02*
X128866666Y-85902771D01*
X128866666Y-85902771D02*
X128790475Y-85940866D01*
X129514285Y-85712295D02*
X130047619Y-85712295D01*
X130047619Y-85712295D02*
X129704761Y-86512295D01*
X134135714Y-88586104D02*
X134097618Y-88624200D01*
X134097618Y-88624200D02*
X133983333Y-88662295D01*
X133983333Y-88662295D02*
X133907142Y-88662295D01*
X133907142Y-88662295D02*
X133792856Y-88624200D01*
X133792856Y-88624200D02*
X133716666Y-88548009D01*
X133716666Y-88548009D02*
X133678571Y-88471819D01*
X133678571Y-88471819D02*
X133640475Y-88319438D01*
X133640475Y-88319438D02*
X133640475Y-88205152D01*
X133640475Y-88205152D02*
X133678571Y-88052771D01*
X133678571Y-88052771D02*
X133716666Y-87976580D01*
X133716666Y-87976580D02*
X133792856Y-87900390D01*
X133792856Y-87900390D02*
X133907142Y-87862295D01*
X133907142Y-87862295D02*
X133983333Y-87862295D01*
X133983333Y-87862295D02*
X134097618Y-87900390D01*
X134097618Y-87900390D02*
X134135714Y-87938485D01*
X134897618Y-88662295D02*
X134440475Y-88662295D01*
X134669047Y-88662295D02*
X134669047Y-87862295D01*
X134669047Y-87862295D02*
X134592856Y-87976580D01*
X134592856Y-87976580D02*
X134516666Y-88052771D01*
X134516666Y-88052771D02*
X134440475Y-88090866D01*
X135354761Y-88205152D02*
X135278571Y-88167057D01*
X135278571Y-88167057D02*
X135240476Y-88128961D01*
X135240476Y-88128961D02*
X135202380Y-88052771D01*
X135202380Y-88052771D02*
X135202380Y-88014676D01*
X135202380Y-88014676D02*
X135240476Y-87938485D01*
X135240476Y-87938485D02*
X135278571Y-87900390D01*
X135278571Y-87900390D02*
X135354761Y-87862295D01*
X135354761Y-87862295D02*
X135507142Y-87862295D01*
X135507142Y-87862295D02*
X135583333Y-87900390D01*
X135583333Y-87900390D02*
X135621428Y-87938485D01*
X135621428Y-87938485D02*
X135659523Y-88014676D01*
X135659523Y-88014676D02*
X135659523Y-88052771D01*
X135659523Y-88052771D02*
X135621428Y-88128961D01*
X135621428Y-88128961D02*
X135583333Y-88167057D01*
X135583333Y-88167057D02*
X135507142Y-88205152D01*
X135507142Y-88205152D02*
X135354761Y-88205152D01*
X135354761Y-88205152D02*
X135278571Y-88243247D01*
X135278571Y-88243247D02*
X135240476Y-88281342D01*
X135240476Y-88281342D02*
X135202380Y-88357533D01*
X135202380Y-88357533D02*
X135202380Y-88509914D01*
X135202380Y-88509914D02*
X135240476Y-88586104D01*
X135240476Y-88586104D02*
X135278571Y-88624200D01*
X135278571Y-88624200D02*
X135354761Y-88662295D01*
X135354761Y-88662295D02*
X135507142Y-88662295D01*
X135507142Y-88662295D02*
X135583333Y-88624200D01*
X135583333Y-88624200D02*
X135621428Y-88586104D01*
X135621428Y-88586104D02*
X135659523Y-88509914D01*
X135659523Y-88509914D02*
X135659523Y-88357533D01*
X135659523Y-88357533D02*
X135621428Y-88281342D01*
X135621428Y-88281342D02*
X135583333Y-88243247D01*
X135583333Y-88243247D02*
X135507142Y-88205152D01*
X103826009Y-82885714D02*
X103873628Y-82742857D01*
X103873628Y-82742857D02*
X103921247Y-82695238D01*
X103921247Y-82695238D02*
X104016485Y-82647619D01*
X104016485Y-82647619D02*
X104159342Y-82647619D01*
X104159342Y-82647619D02*
X104254580Y-82695238D01*
X104254580Y-82695238D02*
X104302200Y-82742857D01*
X104302200Y-82742857D02*
X104349819Y-82838095D01*
X104349819Y-82838095D02*
X104349819Y-83219047D01*
X104349819Y-83219047D02*
X103349819Y-83219047D01*
X103349819Y-83219047D02*
X103349819Y-82885714D01*
X103349819Y-82885714D02*
X103397438Y-82790476D01*
X103397438Y-82790476D02*
X103445057Y-82742857D01*
X103445057Y-82742857D02*
X103540295Y-82695238D01*
X103540295Y-82695238D02*
X103635533Y-82695238D01*
X103635533Y-82695238D02*
X103730771Y-82742857D01*
X103730771Y-82742857D02*
X103778390Y-82790476D01*
X103778390Y-82790476D02*
X103826009Y-82885714D01*
X103826009Y-82885714D02*
X103826009Y-83219047D01*
X103349819Y-82361904D02*
X103349819Y-81790476D01*
X104349819Y-82076190D02*
X103349819Y-82076190D01*
X104349819Y-80933333D02*
X104349819Y-81504761D01*
X104349819Y-81219047D02*
X103349819Y-81219047D01*
X103349819Y-81219047D02*
X103492676Y-81314285D01*
X103492676Y-81314285D02*
X103587914Y-81409523D01*
X103587914Y-81409523D02*
X103635533Y-81504761D01*
X116485714Y-104452295D02*
X116219047Y-104071342D01*
X116028571Y-104452295D02*
X116028571Y-103652295D01*
X116028571Y-103652295D02*
X116333333Y-103652295D01*
X116333333Y-103652295D02*
X116409523Y-103690390D01*
X116409523Y-103690390D02*
X116447618Y-103728485D01*
X116447618Y-103728485D02*
X116485714Y-103804676D01*
X116485714Y-103804676D02*
X116485714Y-103918961D01*
X116485714Y-103918961D02*
X116447618Y-103995152D01*
X116447618Y-103995152D02*
X116409523Y-104033247D01*
X116409523Y-104033247D02*
X116333333Y-104071342D01*
X116333333Y-104071342D02*
X116028571Y-104071342D01*
X116790475Y-103728485D02*
X116828571Y-103690390D01*
X116828571Y-103690390D02*
X116904761Y-103652295D01*
X116904761Y-103652295D02*
X117095237Y-103652295D01*
X117095237Y-103652295D02*
X117171428Y-103690390D01*
X117171428Y-103690390D02*
X117209523Y-103728485D01*
X117209523Y-103728485D02*
X117247618Y-103804676D01*
X117247618Y-103804676D02*
X117247618Y-103880866D01*
X117247618Y-103880866D02*
X117209523Y-103995152D01*
X117209523Y-103995152D02*
X116752380Y-104452295D01*
X116752380Y-104452295D02*
X117247618Y-104452295D01*
X117514285Y-103652295D02*
X118009523Y-103652295D01*
X118009523Y-103652295D02*
X117742857Y-103957057D01*
X117742857Y-103957057D02*
X117857142Y-103957057D01*
X117857142Y-103957057D02*
X117933333Y-103995152D01*
X117933333Y-103995152D02*
X117971428Y-104033247D01*
X117971428Y-104033247D02*
X118009523Y-104109438D01*
X118009523Y-104109438D02*
X118009523Y-104299914D01*
X118009523Y-104299914D02*
X117971428Y-104376104D01*
X117971428Y-104376104D02*
X117933333Y-104414200D01*
X117933333Y-104414200D02*
X117857142Y-104452295D01*
X117857142Y-104452295D02*
X117628571Y-104452295D01*
X117628571Y-104452295D02*
X117552380Y-104414200D01*
X117552380Y-104414200D02*
X117514285Y-104376104D01*
X137585714Y-105586104D02*
X137547618Y-105624200D01*
X137547618Y-105624200D02*
X137433333Y-105662295D01*
X137433333Y-105662295D02*
X137357142Y-105662295D01*
X137357142Y-105662295D02*
X137242856Y-105624200D01*
X137242856Y-105624200D02*
X137166666Y-105548009D01*
X137166666Y-105548009D02*
X137128571Y-105471819D01*
X137128571Y-105471819D02*
X137090475Y-105319438D01*
X137090475Y-105319438D02*
X137090475Y-105205152D01*
X137090475Y-105205152D02*
X137128571Y-105052771D01*
X137128571Y-105052771D02*
X137166666Y-104976580D01*
X137166666Y-104976580D02*
X137242856Y-104900390D01*
X137242856Y-104900390D02*
X137357142Y-104862295D01*
X137357142Y-104862295D02*
X137433333Y-104862295D01*
X137433333Y-104862295D02*
X137547618Y-104900390D01*
X137547618Y-104900390D02*
X137585714Y-104938485D01*
X138347618Y-105662295D02*
X137890475Y-105662295D01*
X138119047Y-105662295D02*
X138119047Y-104862295D01*
X138119047Y-104862295D02*
X138042856Y-104976580D01*
X138042856Y-104976580D02*
X137966666Y-105052771D01*
X137966666Y-105052771D02*
X137890475Y-105090866D01*
X139033333Y-105128961D02*
X139033333Y-105662295D01*
X138842857Y-104824200D02*
X138652380Y-105395628D01*
X138652380Y-105395628D02*
X139147619Y-105395628D01*
X122933333Y-84643247D02*
X122666667Y-84643247D01*
X122666667Y-85062295D02*
X122666667Y-84262295D01*
X122666667Y-84262295D02*
X123047619Y-84262295D01*
X123619047Y-84643247D02*
X123733333Y-84681342D01*
X123733333Y-84681342D02*
X123771428Y-84719438D01*
X123771428Y-84719438D02*
X123809524Y-84795628D01*
X123809524Y-84795628D02*
X123809524Y-84909914D01*
X123809524Y-84909914D02*
X123771428Y-84986104D01*
X123771428Y-84986104D02*
X123733333Y-85024200D01*
X123733333Y-85024200D02*
X123657143Y-85062295D01*
X123657143Y-85062295D02*
X123352381Y-85062295D01*
X123352381Y-85062295D02*
X123352381Y-84262295D01*
X123352381Y-84262295D02*
X123619047Y-84262295D01*
X123619047Y-84262295D02*
X123695238Y-84300390D01*
X123695238Y-84300390D02*
X123733333Y-84338485D01*
X123733333Y-84338485D02*
X123771428Y-84414676D01*
X123771428Y-84414676D02*
X123771428Y-84490866D01*
X123771428Y-84490866D02*
X123733333Y-84567057D01*
X123733333Y-84567057D02*
X123695238Y-84605152D01*
X123695238Y-84605152D02*
X123619047Y-84643247D01*
X123619047Y-84643247D02*
X123352381Y-84643247D01*
X124571428Y-85062295D02*
X124114285Y-85062295D01*
X124342857Y-85062295D02*
X124342857Y-84262295D01*
X124342857Y-84262295D02*
X124266666Y-84376580D01*
X124266666Y-84376580D02*
X124190476Y-84452771D01*
X124190476Y-84452771D02*
X124114285Y-84490866D01*
X121270476Y-93082295D02*
X121270476Y-93729914D01*
X121270476Y-93729914D02*
X121308571Y-93806104D01*
X121308571Y-93806104D02*
X121346666Y-93844200D01*
X121346666Y-93844200D02*
X121422857Y-93882295D01*
X121422857Y-93882295D02*
X121575238Y-93882295D01*
X121575238Y-93882295D02*
X121651428Y-93844200D01*
X121651428Y-93844200D02*
X121689523Y-93806104D01*
X121689523Y-93806104D02*
X121727619Y-93729914D01*
X121727619Y-93729914D02*
X121727619Y-93082295D01*
X122032380Y-93082295D02*
X122527618Y-93082295D01*
X122527618Y-93082295D02*
X122260952Y-93387057D01*
X122260952Y-93387057D02*
X122375237Y-93387057D01*
X122375237Y-93387057D02*
X122451428Y-93425152D01*
X122451428Y-93425152D02*
X122489523Y-93463247D01*
X122489523Y-93463247D02*
X122527618Y-93539438D01*
X122527618Y-93539438D02*
X122527618Y-93729914D01*
X122527618Y-93729914D02*
X122489523Y-93806104D01*
X122489523Y-93806104D02*
X122451428Y-93844200D01*
X122451428Y-93844200D02*
X122375237Y-93882295D01*
X122375237Y-93882295D02*
X122146666Y-93882295D01*
X122146666Y-93882295D02*
X122070475Y-93844200D01*
X122070475Y-93844200D02*
X122032380Y-93806104D01*
X128381809Y-94705985D02*
X128305619Y-94667890D01*
X128305619Y-94667890D02*
X128229428Y-94591700D01*
X128229428Y-94591700D02*
X128115142Y-94477414D01*
X128115142Y-94477414D02*
X128038952Y-94439319D01*
X128038952Y-94439319D02*
X127962761Y-94439319D01*
X128000857Y-94629795D02*
X127924666Y-94591700D01*
X127924666Y-94591700D02*
X127848476Y-94515509D01*
X127848476Y-94515509D02*
X127810380Y-94363128D01*
X127810380Y-94363128D02*
X127810380Y-94096461D01*
X127810380Y-94096461D02*
X127848476Y-93944080D01*
X127848476Y-93944080D02*
X127924666Y-93867890D01*
X127924666Y-93867890D02*
X128000857Y-93829795D01*
X128000857Y-93829795D02*
X128153238Y-93829795D01*
X128153238Y-93829795D02*
X128229428Y-93867890D01*
X128229428Y-93867890D02*
X128305619Y-93944080D01*
X128305619Y-93944080D02*
X128343714Y-94096461D01*
X128343714Y-94096461D02*
X128343714Y-94363128D01*
X128343714Y-94363128D02*
X128305619Y-94515509D01*
X128305619Y-94515509D02*
X128229428Y-94591700D01*
X128229428Y-94591700D02*
X128153238Y-94629795D01*
X128153238Y-94629795D02*
X128000857Y-94629795D01*
X129105618Y-94629795D02*
X128648475Y-94629795D01*
X128877047Y-94629795D02*
X128877047Y-93829795D01*
X128877047Y-93829795D02*
X128800856Y-93944080D01*
X128800856Y-93944080D02*
X128724666Y-94020271D01*
X128724666Y-94020271D02*
X128648475Y-94058366D01*
X97350833Y-97982295D02*
X97350833Y-98553723D01*
X97350833Y-98553723D02*
X97312738Y-98668009D01*
X97312738Y-98668009D02*
X97236547Y-98744200D01*
X97236547Y-98744200D02*
X97122262Y-98782295D01*
X97122262Y-98782295D02*
X97046071Y-98782295D01*
X97693690Y-98058485D02*
X97731786Y-98020390D01*
X97731786Y-98020390D02*
X97807976Y-97982295D01*
X97807976Y-97982295D02*
X97998452Y-97982295D01*
X97998452Y-97982295D02*
X98074643Y-98020390D01*
X98074643Y-98020390D02*
X98112738Y-98058485D01*
X98112738Y-98058485D02*
X98150833Y-98134676D01*
X98150833Y-98134676D02*
X98150833Y-98210866D01*
X98150833Y-98210866D02*
X98112738Y-98325152D01*
X98112738Y-98325152D02*
X97655595Y-98782295D01*
X97655595Y-98782295D02*
X98150833Y-98782295D01*
X105240476Y-97562295D02*
X105240476Y-98209914D01*
X105240476Y-98209914D02*
X105278571Y-98286104D01*
X105278571Y-98286104D02*
X105316666Y-98324200D01*
X105316666Y-98324200D02*
X105392857Y-98362295D01*
X105392857Y-98362295D02*
X105545238Y-98362295D01*
X105545238Y-98362295D02*
X105621428Y-98324200D01*
X105621428Y-98324200D02*
X105659523Y-98286104D01*
X105659523Y-98286104D02*
X105697619Y-98209914D01*
X105697619Y-98209914D02*
X105697619Y-97562295D01*
X106421428Y-97828961D02*
X106421428Y-98362295D01*
X106230952Y-97524200D02*
X106040475Y-98095628D01*
X106040475Y-98095628D02*
X106535714Y-98095628D01*
X143285714Y-84962295D02*
X143019047Y-84581342D01*
X142828571Y-84962295D02*
X142828571Y-84162295D01*
X142828571Y-84162295D02*
X143133333Y-84162295D01*
X143133333Y-84162295D02*
X143209523Y-84200390D01*
X143209523Y-84200390D02*
X143247618Y-84238485D01*
X143247618Y-84238485D02*
X143285714Y-84314676D01*
X143285714Y-84314676D02*
X143285714Y-84428961D01*
X143285714Y-84428961D02*
X143247618Y-84505152D01*
X143247618Y-84505152D02*
X143209523Y-84543247D01*
X143209523Y-84543247D02*
X143133333Y-84581342D01*
X143133333Y-84581342D02*
X142828571Y-84581342D01*
X144047618Y-84962295D02*
X143590475Y-84962295D01*
X143819047Y-84962295D02*
X143819047Y-84162295D01*
X143819047Y-84162295D02*
X143742856Y-84276580D01*
X143742856Y-84276580D02*
X143666666Y-84352771D01*
X143666666Y-84352771D02*
X143590475Y-84390866D01*
X144542857Y-84162295D02*
X144619047Y-84162295D01*
X144619047Y-84162295D02*
X144695238Y-84200390D01*
X144695238Y-84200390D02*
X144733333Y-84238485D01*
X144733333Y-84238485D02*
X144771428Y-84314676D01*
X144771428Y-84314676D02*
X144809523Y-84467057D01*
X144809523Y-84467057D02*
X144809523Y-84657533D01*
X144809523Y-84657533D02*
X144771428Y-84809914D01*
X144771428Y-84809914D02*
X144733333Y-84886104D01*
X144733333Y-84886104D02*
X144695238Y-84924200D01*
X144695238Y-84924200D02*
X144619047Y-84962295D01*
X144619047Y-84962295D02*
X144542857Y-84962295D01*
X144542857Y-84962295D02*
X144466666Y-84924200D01*
X144466666Y-84924200D02*
X144428571Y-84886104D01*
X144428571Y-84886104D02*
X144390476Y-84809914D01*
X144390476Y-84809914D02*
X144352380Y-84657533D01*
X144352380Y-84657533D02*
X144352380Y-84467057D01*
X144352380Y-84467057D02*
X144390476Y-84314676D01*
X144390476Y-84314676D02*
X144428571Y-84238485D01*
X144428571Y-84238485D02*
X144466666Y-84200390D01*
X144466666Y-84200390D02*
X144542857Y-84162295D01*
X99585714Y-92976104D02*
X99547618Y-93014200D01*
X99547618Y-93014200D02*
X99433333Y-93052295D01*
X99433333Y-93052295D02*
X99357142Y-93052295D01*
X99357142Y-93052295D02*
X99242856Y-93014200D01*
X99242856Y-93014200D02*
X99166666Y-92938009D01*
X99166666Y-92938009D02*
X99128571Y-92861819D01*
X99128571Y-92861819D02*
X99090475Y-92709438D01*
X99090475Y-92709438D02*
X99090475Y-92595152D01*
X99090475Y-92595152D02*
X99128571Y-92442771D01*
X99128571Y-92442771D02*
X99166666Y-92366580D01*
X99166666Y-92366580D02*
X99242856Y-92290390D01*
X99242856Y-92290390D02*
X99357142Y-92252295D01*
X99357142Y-92252295D02*
X99433333Y-92252295D01*
X99433333Y-92252295D02*
X99547618Y-92290390D01*
X99547618Y-92290390D02*
X99585714Y-92328485D01*
X100347618Y-93052295D02*
X99890475Y-93052295D01*
X100119047Y-93052295D02*
X100119047Y-92252295D01*
X100119047Y-92252295D02*
X100042856Y-92366580D01*
X100042856Y-92366580D02*
X99966666Y-92442771D01*
X99966666Y-92442771D02*
X99890475Y-92480866D01*
X101109523Y-93052295D02*
X100652380Y-93052295D01*
X100880952Y-93052295D02*
X100880952Y-92252295D01*
X100880952Y-92252295D02*
X100804761Y-92366580D01*
X100804761Y-92366580D02*
X100728571Y-92442771D01*
X100728571Y-92442771D02*
X100652380Y-92480866D01*
X141009524Y-78362295D02*
X141009524Y-77562295D01*
X141009524Y-77562295D02*
X141200000Y-77562295D01*
X141200000Y-77562295D02*
X141314286Y-77600390D01*
X141314286Y-77600390D02*
X141390476Y-77676580D01*
X141390476Y-77676580D02*
X141428571Y-77752771D01*
X141428571Y-77752771D02*
X141466667Y-77905152D01*
X141466667Y-77905152D02*
X141466667Y-78019438D01*
X141466667Y-78019438D02*
X141428571Y-78171819D01*
X141428571Y-78171819D02*
X141390476Y-78248009D01*
X141390476Y-78248009D02*
X141314286Y-78324200D01*
X141314286Y-78324200D02*
X141200000Y-78362295D01*
X141200000Y-78362295D02*
X141009524Y-78362295D01*
X142152381Y-77828961D02*
X142152381Y-78362295D01*
X141961905Y-77524200D02*
X141771428Y-78095628D01*
X141771428Y-78095628D02*
X142266667Y-78095628D01*
X122115714Y-96642295D02*
X121849047Y-96261342D01*
X121658571Y-96642295D02*
X121658571Y-95842295D01*
X121658571Y-95842295D02*
X121963333Y-95842295D01*
X121963333Y-95842295D02*
X122039523Y-95880390D01*
X122039523Y-95880390D02*
X122077618Y-95918485D01*
X122077618Y-95918485D02*
X122115714Y-95994676D01*
X122115714Y-95994676D02*
X122115714Y-96108961D01*
X122115714Y-96108961D02*
X122077618Y-96185152D01*
X122077618Y-96185152D02*
X122039523Y-96223247D01*
X122039523Y-96223247D02*
X121963333Y-96261342D01*
X121963333Y-96261342D02*
X121658571Y-96261342D01*
X122877618Y-96642295D02*
X122420475Y-96642295D01*
X122649047Y-96642295D02*
X122649047Y-95842295D01*
X122649047Y-95842295D02*
X122572856Y-95956580D01*
X122572856Y-95956580D02*
X122496666Y-96032771D01*
X122496666Y-96032771D02*
X122420475Y-96070866D01*
X123182380Y-95918485D02*
X123220476Y-95880390D01*
X123220476Y-95880390D02*
X123296666Y-95842295D01*
X123296666Y-95842295D02*
X123487142Y-95842295D01*
X123487142Y-95842295D02*
X123563333Y-95880390D01*
X123563333Y-95880390D02*
X123601428Y-95918485D01*
X123601428Y-95918485D02*
X123639523Y-95994676D01*
X123639523Y-95994676D02*
X123639523Y-96070866D01*
X123639523Y-96070866D02*
X123601428Y-96185152D01*
X123601428Y-96185152D02*
X123144285Y-96642295D01*
X123144285Y-96642295D02*
X123639523Y-96642295D01*
X110786667Y-89636104D02*
X110748571Y-89674200D01*
X110748571Y-89674200D02*
X110634286Y-89712295D01*
X110634286Y-89712295D02*
X110558095Y-89712295D01*
X110558095Y-89712295D02*
X110443809Y-89674200D01*
X110443809Y-89674200D02*
X110367619Y-89598009D01*
X110367619Y-89598009D02*
X110329524Y-89521819D01*
X110329524Y-89521819D02*
X110291428Y-89369438D01*
X110291428Y-89369438D02*
X110291428Y-89255152D01*
X110291428Y-89255152D02*
X110329524Y-89102771D01*
X110329524Y-89102771D02*
X110367619Y-89026580D01*
X110367619Y-89026580D02*
X110443809Y-88950390D01*
X110443809Y-88950390D02*
X110558095Y-88912295D01*
X110558095Y-88912295D02*
X110634286Y-88912295D01*
X110634286Y-88912295D02*
X110748571Y-88950390D01*
X110748571Y-88950390D02*
X110786667Y-88988485D01*
X111167619Y-89712295D02*
X111320000Y-89712295D01*
X111320000Y-89712295D02*
X111396190Y-89674200D01*
X111396190Y-89674200D02*
X111434286Y-89636104D01*
X111434286Y-89636104D02*
X111510476Y-89521819D01*
X111510476Y-89521819D02*
X111548571Y-89369438D01*
X111548571Y-89369438D02*
X111548571Y-89064676D01*
X111548571Y-89064676D02*
X111510476Y-88988485D01*
X111510476Y-88988485D02*
X111472381Y-88950390D01*
X111472381Y-88950390D02*
X111396190Y-88912295D01*
X111396190Y-88912295D02*
X111243809Y-88912295D01*
X111243809Y-88912295D02*
X111167619Y-88950390D01*
X111167619Y-88950390D02*
X111129524Y-88988485D01*
X111129524Y-88988485D02*
X111091428Y-89064676D01*
X111091428Y-89064676D02*
X111091428Y-89255152D01*
X111091428Y-89255152D02*
X111129524Y-89331342D01*
X111129524Y-89331342D02*
X111167619Y-89369438D01*
X111167619Y-89369438D02*
X111243809Y-89407533D01*
X111243809Y-89407533D02*
X111396190Y-89407533D01*
X111396190Y-89407533D02*
X111472381Y-89369438D01*
X111472381Y-89369438D02*
X111510476Y-89331342D01*
X111510476Y-89331342D02*
X111548571Y-89255152D01*
X144023809Y-81538485D02*
X143947619Y-81500390D01*
X143947619Y-81500390D02*
X143871428Y-81424200D01*
X143871428Y-81424200D02*
X143757142Y-81309914D01*
X143757142Y-81309914D02*
X143680952Y-81271819D01*
X143680952Y-81271819D02*
X143604761Y-81271819D01*
X143642857Y-81462295D02*
X143566666Y-81424200D01*
X143566666Y-81424200D02*
X143490476Y-81348009D01*
X143490476Y-81348009D02*
X143452380Y-81195628D01*
X143452380Y-81195628D02*
X143452380Y-80928961D01*
X143452380Y-80928961D02*
X143490476Y-80776580D01*
X143490476Y-80776580D02*
X143566666Y-80700390D01*
X143566666Y-80700390D02*
X143642857Y-80662295D01*
X143642857Y-80662295D02*
X143795238Y-80662295D01*
X143795238Y-80662295D02*
X143871428Y-80700390D01*
X143871428Y-80700390D02*
X143947619Y-80776580D01*
X143947619Y-80776580D02*
X143985714Y-80928961D01*
X143985714Y-80928961D02*
X143985714Y-81195628D01*
X143985714Y-81195628D02*
X143947619Y-81348009D01*
X143947619Y-81348009D02*
X143871428Y-81424200D01*
X143871428Y-81424200D02*
X143795238Y-81462295D01*
X143795238Y-81462295D02*
X143642857Y-81462295D01*
X144252380Y-80662295D02*
X144747618Y-80662295D01*
X144747618Y-80662295D02*
X144480952Y-80967057D01*
X144480952Y-80967057D02*
X144595237Y-80967057D01*
X144595237Y-80967057D02*
X144671428Y-81005152D01*
X144671428Y-81005152D02*
X144709523Y-81043247D01*
X144709523Y-81043247D02*
X144747618Y-81119438D01*
X144747618Y-81119438D02*
X144747618Y-81309914D01*
X144747618Y-81309914D02*
X144709523Y-81386104D01*
X144709523Y-81386104D02*
X144671428Y-81424200D01*
X144671428Y-81424200D02*
X144595237Y-81462295D01*
X144595237Y-81462295D02*
X144366666Y-81462295D01*
X144366666Y-81462295D02*
X144290475Y-81424200D01*
X144290475Y-81424200D02*
X144252380Y-81386104D01*
X130766667Y-92362295D02*
X130500000Y-91981342D01*
X130309524Y-92362295D02*
X130309524Y-91562295D01*
X130309524Y-91562295D02*
X130614286Y-91562295D01*
X130614286Y-91562295D02*
X130690476Y-91600390D01*
X130690476Y-91600390D02*
X130728571Y-91638485D01*
X130728571Y-91638485D02*
X130766667Y-91714676D01*
X130766667Y-91714676D02*
X130766667Y-91828961D01*
X130766667Y-91828961D02*
X130728571Y-91905152D01*
X130728571Y-91905152D02*
X130690476Y-91943247D01*
X130690476Y-91943247D02*
X130614286Y-91981342D01*
X130614286Y-91981342D02*
X130309524Y-91981342D01*
X131490476Y-91562295D02*
X131109524Y-91562295D01*
X131109524Y-91562295D02*
X131071428Y-91943247D01*
X131071428Y-91943247D02*
X131109524Y-91905152D01*
X131109524Y-91905152D02*
X131185714Y-91867057D01*
X131185714Y-91867057D02*
X131376190Y-91867057D01*
X131376190Y-91867057D02*
X131452381Y-91905152D01*
X131452381Y-91905152D02*
X131490476Y-91943247D01*
X131490476Y-91943247D02*
X131528571Y-92019438D01*
X131528571Y-92019438D02*
X131528571Y-92209914D01*
X131528571Y-92209914D02*
X131490476Y-92286104D01*
X131490476Y-92286104D02*
X131452381Y-92324200D01*
X131452381Y-92324200D02*
X131376190Y-92362295D01*
X131376190Y-92362295D02*
X131185714Y-92362295D01*
X131185714Y-92362295D02*
X131109524Y-92324200D01*
X131109524Y-92324200D02*
X131071428Y-92286104D01*
X137909524Y-78362295D02*
X137909524Y-77562295D01*
X137909524Y-77562295D02*
X138100000Y-77562295D01*
X138100000Y-77562295D02*
X138214286Y-77600390D01*
X138214286Y-77600390D02*
X138290476Y-77676580D01*
X138290476Y-77676580D02*
X138328571Y-77752771D01*
X138328571Y-77752771D02*
X138366667Y-77905152D01*
X138366667Y-77905152D02*
X138366667Y-78019438D01*
X138366667Y-78019438D02*
X138328571Y-78171819D01*
X138328571Y-78171819D02*
X138290476Y-78248009D01*
X138290476Y-78248009D02*
X138214286Y-78324200D01*
X138214286Y-78324200D02*
X138100000Y-78362295D01*
X138100000Y-78362295D02*
X137909524Y-78362295D01*
X138633333Y-77562295D02*
X139128571Y-77562295D01*
X139128571Y-77562295D02*
X138861905Y-77867057D01*
X138861905Y-77867057D02*
X138976190Y-77867057D01*
X138976190Y-77867057D02*
X139052381Y-77905152D01*
X139052381Y-77905152D02*
X139090476Y-77943247D01*
X139090476Y-77943247D02*
X139128571Y-78019438D01*
X139128571Y-78019438D02*
X139128571Y-78209914D01*
X139128571Y-78209914D02*
X139090476Y-78286104D01*
X139090476Y-78286104D02*
X139052381Y-78324200D01*
X139052381Y-78324200D02*
X138976190Y-78362295D01*
X138976190Y-78362295D02*
X138747619Y-78362295D01*
X138747619Y-78362295D02*
X138671428Y-78324200D01*
X138671428Y-78324200D02*
X138633333Y-78286104D01*
X133035714Y-82286104D02*
X132997618Y-82324200D01*
X132997618Y-82324200D02*
X132883333Y-82362295D01*
X132883333Y-82362295D02*
X132807142Y-82362295D01*
X132807142Y-82362295D02*
X132692856Y-82324200D01*
X132692856Y-82324200D02*
X132616666Y-82248009D01*
X132616666Y-82248009D02*
X132578571Y-82171819D01*
X132578571Y-82171819D02*
X132540475Y-82019438D01*
X132540475Y-82019438D02*
X132540475Y-81905152D01*
X132540475Y-81905152D02*
X132578571Y-81752771D01*
X132578571Y-81752771D02*
X132616666Y-81676580D01*
X132616666Y-81676580D02*
X132692856Y-81600390D01*
X132692856Y-81600390D02*
X132807142Y-81562295D01*
X132807142Y-81562295D02*
X132883333Y-81562295D01*
X132883333Y-81562295D02*
X132997618Y-81600390D01*
X132997618Y-81600390D02*
X133035714Y-81638485D01*
X133797618Y-82362295D02*
X133340475Y-82362295D01*
X133569047Y-82362295D02*
X133569047Y-81562295D01*
X133569047Y-81562295D02*
X133492856Y-81676580D01*
X133492856Y-81676580D02*
X133416666Y-81752771D01*
X133416666Y-81752771D02*
X133340475Y-81790866D01*
X134178571Y-82362295D02*
X134330952Y-82362295D01*
X134330952Y-82362295D02*
X134407142Y-82324200D01*
X134407142Y-82324200D02*
X134445238Y-82286104D01*
X134445238Y-82286104D02*
X134521428Y-82171819D01*
X134521428Y-82171819D02*
X134559523Y-82019438D01*
X134559523Y-82019438D02*
X134559523Y-81714676D01*
X134559523Y-81714676D02*
X134521428Y-81638485D01*
X134521428Y-81638485D02*
X134483333Y-81600390D01*
X134483333Y-81600390D02*
X134407142Y-81562295D01*
X134407142Y-81562295D02*
X134254761Y-81562295D01*
X134254761Y-81562295D02*
X134178571Y-81600390D01*
X134178571Y-81600390D02*
X134140476Y-81638485D01*
X134140476Y-81638485D02*
X134102380Y-81714676D01*
X134102380Y-81714676D02*
X134102380Y-81905152D01*
X134102380Y-81905152D02*
X134140476Y-81981342D01*
X134140476Y-81981342D02*
X134178571Y-82019438D01*
X134178571Y-82019438D02*
X134254761Y-82057533D01*
X134254761Y-82057533D02*
X134407142Y-82057533D01*
X134407142Y-82057533D02*
X134483333Y-82019438D01*
X134483333Y-82019438D02*
X134521428Y-81981342D01*
X134521428Y-81981342D02*
X134559523Y-81905152D01*
X123005714Y-99782295D02*
X122739047Y-99401342D01*
X122548571Y-99782295D02*
X122548571Y-98982295D01*
X122548571Y-98982295D02*
X122853333Y-98982295D01*
X122853333Y-98982295D02*
X122929523Y-99020390D01*
X122929523Y-99020390D02*
X122967618Y-99058485D01*
X122967618Y-99058485D02*
X123005714Y-99134676D01*
X123005714Y-99134676D02*
X123005714Y-99248961D01*
X123005714Y-99248961D02*
X122967618Y-99325152D01*
X122967618Y-99325152D02*
X122929523Y-99363247D01*
X122929523Y-99363247D02*
X122853333Y-99401342D01*
X122853333Y-99401342D02*
X122548571Y-99401342D01*
X123767618Y-99782295D02*
X123310475Y-99782295D01*
X123539047Y-99782295D02*
X123539047Y-98982295D01*
X123539047Y-98982295D02*
X123462856Y-99096580D01*
X123462856Y-99096580D02*
X123386666Y-99172771D01*
X123386666Y-99172771D02*
X123310475Y-99210866D01*
X124529523Y-99782295D02*
X124072380Y-99782295D01*
X124300952Y-99782295D02*
X124300952Y-98982295D01*
X124300952Y-98982295D02*
X124224761Y-99096580D01*
X124224761Y-99096580D02*
X124148571Y-99172771D01*
X124148571Y-99172771D02*
X124072380Y-99210866D01*
X143890476Y-102332295D02*
X143890476Y-102979914D01*
X143890476Y-102979914D02*
X143928571Y-103056104D01*
X143928571Y-103056104D02*
X143966666Y-103094200D01*
X143966666Y-103094200D02*
X144042857Y-103132295D01*
X144042857Y-103132295D02*
X144195238Y-103132295D01*
X144195238Y-103132295D02*
X144271428Y-103094200D01*
X144271428Y-103094200D02*
X144309523Y-103056104D01*
X144309523Y-103056104D02*
X144347619Y-102979914D01*
X144347619Y-102979914D02*
X144347619Y-102332295D01*
X145109523Y-102332295D02*
X144728571Y-102332295D01*
X144728571Y-102332295D02*
X144690475Y-102713247D01*
X144690475Y-102713247D02*
X144728571Y-102675152D01*
X144728571Y-102675152D02*
X144804761Y-102637057D01*
X144804761Y-102637057D02*
X144995237Y-102637057D01*
X144995237Y-102637057D02*
X145071428Y-102675152D01*
X145071428Y-102675152D02*
X145109523Y-102713247D01*
X145109523Y-102713247D02*
X145147618Y-102789438D01*
X145147618Y-102789438D02*
X145147618Y-102979914D01*
X145147618Y-102979914D02*
X145109523Y-103056104D01*
X145109523Y-103056104D02*
X145071428Y-103094200D01*
X145071428Y-103094200D02*
X144995237Y-103132295D01*
X144995237Y-103132295D02*
X144804761Y-103132295D01*
X144804761Y-103132295D02*
X144728571Y-103094200D01*
X144728571Y-103094200D02*
X144690475Y-103056104D01*
X97771667Y-92882295D02*
X97505000Y-92501342D01*
X97314524Y-92882295D02*
X97314524Y-92082295D01*
X97314524Y-92082295D02*
X97619286Y-92082295D01*
X97619286Y-92082295D02*
X97695476Y-92120390D01*
X97695476Y-92120390D02*
X97733571Y-92158485D01*
X97733571Y-92158485D02*
X97771667Y-92234676D01*
X97771667Y-92234676D02*
X97771667Y-92348961D01*
X97771667Y-92348961D02*
X97733571Y-92425152D01*
X97733571Y-92425152D02*
X97695476Y-92463247D01*
X97695476Y-92463247D02*
X97619286Y-92501342D01*
X97619286Y-92501342D02*
X97314524Y-92501342D01*
X98228809Y-92425152D02*
X98152619Y-92387057D01*
X98152619Y-92387057D02*
X98114524Y-92348961D01*
X98114524Y-92348961D02*
X98076428Y-92272771D01*
X98076428Y-92272771D02*
X98076428Y-92234676D01*
X98076428Y-92234676D02*
X98114524Y-92158485D01*
X98114524Y-92158485D02*
X98152619Y-92120390D01*
X98152619Y-92120390D02*
X98228809Y-92082295D01*
X98228809Y-92082295D02*
X98381190Y-92082295D01*
X98381190Y-92082295D02*
X98457381Y-92120390D01*
X98457381Y-92120390D02*
X98495476Y-92158485D01*
X98495476Y-92158485D02*
X98533571Y-92234676D01*
X98533571Y-92234676D02*
X98533571Y-92272771D01*
X98533571Y-92272771D02*
X98495476Y-92348961D01*
X98495476Y-92348961D02*
X98457381Y-92387057D01*
X98457381Y-92387057D02*
X98381190Y-92425152D01*
X98381190Y-92425152D02*
X98228809Y-92425152D01*
X98228809Y-92425152D02*
X98152619Y-92463247D01*
X98152619Y-92463247D02*
X98114524Y-92501342D01*
X98114524Y-92501342D02*
X98076428Y-92577533D01*
X98076428Y-92577533D02*
X98076428Y-92729914D01*
X98076428Y-92729914D02*
X98114524Y-92806104D01*
X98114524Y-92806104D02*
X98152619Y-92844200D01*
X98152619Y-92844200D02*
X98228809Y-92882295D01*
X98228809Y-92882295D02*
X98381190Y-92882295D01*
X98381190Y-92882295D02*
X98457381Y-92844200D01*
X98457381Y-92844200D02*
X98495476Y-92806104D01*
X98495476Y-92806104D02*
X98533571Y-92729914D01*
X98533571Y-92729914D02*
X98533571Y-92577533D01*
X98533571Y-92577533D02*
X98495476Y-92501342D01*
X98495476Y-92501342D02*
X98457381Y-92463247D01*
X98457381Y-92463247D02*
X98381190Y-92425152D01*
X112196667Y-81162295D02*
X111930000Y-80781342D01*
X111739524Y-81162295D02*
X111739524Y-80362295D01*
X111739524Y-80362295D02*
X112044286Y-80362295D01*
X112044286Y-80362295D02*
X112120476Y-80400390D01*
X112120476Y-80400390D02*
X112158571Y-80438485D01*
X112158571Y-80438485D02*
X112196667Y-80514676D01*
X112196667Y-80514676D02*
X112196667Y-80628961D01*
X112196667Y-80628961D02*
X112158571Y-80705152D01*
X112158571Y-80705152D02*
X112120476Y-80743247D01*
X112120476Y-80743247D02*
X112044286Y-80781342D01*
X112044286Y-80781342D02*
X111739524Y-80781342D01*
X112958571Y-81162295D02*
X112501428Y-81162295D01*
X112730000Y-81162295D02*
X112730000Y-80362295D01*
X112730000Y-80362295D02*
X112653809Y-80476580D01*
X112653809Y-80476580D02*
X112577619Y-80552771D01*
X112577619Y-80552771D02*
X112501428Y-80590866D01*
X144747619Y-101143247D02*
X145014285Y-101143247D01*
X145128571Y-101562295D02*
X144747619Y-101562295D01*
X144747619Y-101562295D02*
X144747619Y-100762295D01*
X144747619Y-100762295D02*
X145128571Y-100762295D01*
X145890476Y-101562295D02*
X145433333Y-101562295D01*
X145661905Y-101562295D02*
X145661905Y-100762295D01*
X145661905Y-100762295D02*
X145585714Y-100876580D01*
X145585714Y-100876580D02*
X145509524Y-100952771D01*
X145509524Y-100952771D02*
X145433333Y-100990866D01*
X114485714Y-98946104D02*
X114447618Y-98984200D01*
X114447618Y-98984200D02*
X114333333Y-99022295D01*
X114333333Y-99022295D02*
X114257142Y-99022295D01*
X114257142Y-99022295D02*
X114142856Y-98984200D01*
X114142856Y-98984200D02*
X114066666Y-98908009D01*
X114066666Y-98908009D02*
X114028571Y-98831819D01*
X114028571Y-98831819D02*
X113990475Y-98679438D01*
X113990475Y-98679438D02*
X113990475Y-98565152D01*
X113990475Y-98565152D02*
X114028571Y-98412771D01*
X114028571Y-98412771D02*
X114066666Y-98336580D01*
X114066666Y-98336580D02*
X114142856Y-98260390D01*
X114142856Y-98260390D02*
X114257142Y-98222295D01*
X114257142Y-98222295D02*
X114333333Y-98222295D01*
X114333333Y-98222295D02*
X114447618Y-98260390D01*
X114447618Y-98260390D02*
X114485714Y-98298485D01*
X114790475Y-98298485D02*
X114828571Y-98260390D01*
X114828571Y-98260390D02*
X114904761Y-98222295D01*
X114904761Y-98222295D02*
X115095237Y-98222295D01*
X115095237Y-98222295D02*
X115171428Y-98260390D01*
X115171428Y-98260390D02*
X115209523Y-98298485D01*
X115209523Y-98298485D02*
X115247618Y-98374676D01*
X115247618Y-98374676D02*
X115247618Y-98450866D01*
X115247618Y-98450866D02*
X115209523Y-98565152D01*
X115209523Y-98565152D02*
X114752380Y-99022295D01*
X114752380Y-99022295D02*
X115247618Y-99022295D01*
X115742857Y-98222295D02*
X115819047Y-98222295D01*
X115819047Y-98222295D02*
X115895238Y-98260390D01*
X115895238Y-98260390D02*
X115933333Y-98298485D01*
X115933333Y-98298485D02*
X115971428Y-98374676D01*
X115971428Y-98374676D02*
X116009523Y-98527057D01*
X116009523Y-98527057D02*
X116009523Y-98717533D01*
X116009523Y-98717533D02*
X115971428Y-98869914D01*
X115971428Y-98869914D02*
X115933333Y-98946104D01*
X115933333Y-98946104D02*
X115895238Y-98984200D01*
X115895238Y-98984200D02*
X115819047Y-99022295D01*
X115819047Y-99022295D02*
X115742857Y-99022295D01*
X115742857Y-99022295D02*
X115666666Y-98984200D01*
X115666666Y-98984200D02*
X115628571Y-98946104D01*
X115628571Y-98946104D02*
X115590476Y-98869914D01*
X115590476Y-98869914D02*
X115552380Y-98717533D01*
X115552380Y-98717533D02*
X115552380Y-98527057D01*
X115552380Y-98527057D02*
X115590476Y-98374676D01*
X115590476Y-98374676D02*
X115628571Y-98298485D01*
X115628571Y-98298485D02*
X115666666Y-98260390D01*
X115666666Y-98260390D02*
X115742857Y-98222295D01*
X134735714Y-105586104D02*
X134697618Y-105624200D01*
X134697618Y-105624200D02*
X134583333Y-105662295D01*
X134583333Y-105662295D02*
X134507142Y-105662295D01*
X134507142Y-105662295D02*
X134392856Y-105624200D01*
X134392856Y-105624200D02*
X134316666Y-105548009D01*
X134316666Y-105548009D02*
X134278571Y-105471819D01*
X134278571Y-105471819D02*
X134240475Y-105319438D01*
X134240475Y-105319438D02*
X134240475Y-105205152D01*
X134240475Y-105205152D02*
X134278571Y-105052771D01*
X134278571Y-105052771D02*
X134316666Y-104976580D01*
X134316666Y-104976580D02*
X134392856Y-104900390D01*
X134392856Y-104900390D02*
X134507142Y-104862295D01*
X134507142Y-104862295D02*
X134583333Y-104862295D01*
X134583333Y-104862295D02*
X134697618Y-104900390D01*
X134697618Y-104900390D02*
X134735714Y-104938485D01*
X135497618Y-105662295D02*
X135040475Y-105662295D01*
X135269047Y-105662295D02*
X135269047Y-104862295D01*
X135269047Y-104862295D02*
X135192856Y-104976580D01*
X135192856Y-104976580D02*
X135116666Y-105052771D01*
X135116666Y-105052771D02*
X135040475Y-105090866D01*
X136221428Y-104862295D02*
X135840476Y-104862295D01*
X135840476Y-104862295D02*
X135802380Y-105243247D01*
X135802380Y-105243247D02*
X135840476Y-105205152D01*
X135840476Y-105205152D02*
X135916666Y-105167057D01*
X135916666Y-105167057D02*
X136107142Y-105167057D01*
X136107142Y-105167057D02*
X136183333Y-105205152D01*
X136183333Y-105205152D02*
X136221428Y-105243247D01*
X136221428Y-105243247D02*
X136259523Y-105319438D01*
X136259523Y-105319438D02*
X136259523Y-105509914D01*
X136259523Y-105509914D02*
X136221428Y-105586104D01*
X136221428Y-105586104D02*
X136183333Y-105624200D01*
X136183333Y-105624200D02*
X136107142Y-105662295D01*
X136107142Y-105662295D02*
X135916666Y-105662295D01*
X135916666Y-105662295D02*
X135840476Y-105624200D01*
X135840476Y-105624200D02*
X135802380Y-105586104D01*
X93616667Y-87136104D02*
X93578571Y-87174200D01*
X93578571Y-87174200D02*
X93464286Y-87212295D01*
X93464286Y-87212295D02*
X93388095Y-87212295D01*
X93388095Y-87212295D02*
X93273809Y-87174200D01*
X93273809Y-87174200D02*
X93197619Y-87098009D01*
X93197619Y-87098009D02*
X93159524Y-87021819D01*
X93159524Y-87021819D02*
X93121428Y-86869438D01*
X93121428Y-86869438D02*
X93121428Y-86755152D01*
X93121428Y-86755152D02*
X93159524Y-86602771D01*
X93159524Y-86602771D02*
X93197619Y-86526580D01*
X93197619Y-86526580D02*
X93273809Y-86450390D01*
X93273809Y-86450390D02*
X93388095Y-86412295D01*
X93388095Y-86412295D02*
X93464286Y-86412295D01*
X93464286Y-86412295D02*
X93578571Y-86450390D01*
X93578571Y-86450390D02*
X93616667Y-86488485D01*
X94073809Y-86755152D02*
X93997619Y-86717057D01*
X93997619Y-86717057D02*
X93959524Y-86678961D01*
X93959524Y-86678961D02*
X93921428Y-86602771D01*
X93921428Y-86602771D02*
X93921428Y-86564676D01*
X93921428Y-86564676D02*
X93959524Y-86488485D01*
X93959524Y-86488485D02*
X93997619Y-86450390D01*
X93997619Y-86450390D02*
X94073809Y-86412295D01*
X94073809Y-86412295D02*
X94226190Y-86412295D01*
X94226190Y-86412295D02*
X94302381Y-86450390D01*
X94302381Y-86450390D02*
X94340476Y-86488485D01*
X94340476Y-86488485D02*
X94378571Y-86564676D01*
X94378571Y-86564676D02*
X94378571Y-86602771D01*
X94378571Y-86602771D02*
X94340476Y-86678961D01*
X94340476Y-86678961D02*
X94302381Y-86717057D01*
X94302381Y-86717057D02*
X94226190Y-86755152D01*
X94226190Y-86755152D02*
X94073809Y-86755152D01*
X94073809Y-86755152D02*
X93997619Y-86793247D01*
X93997619Y-86793247D02*
X93959524Y-86831342D01*
X93959524Y-86831342D02*
X93921428Y-86907533D01*
X93921428Y-86907533D02*
X93921428Y-87059914D01*
X93921428Y-87059914D02*
X93959524Y-87136104D01*
X93959524Y-87136104D02*
X93997619Y-87174200D01*
X93997619Y-87174200D02*
X94073809Y-87212295D01*
X94073809Y-87212295D02*
X94226190Y-87212295D01*
X94226190Y-87212295D02*
X94302381Y-87174200D01*
X94302381Y-87174200D02*
X94340476Y-87136104D01*
X94340476Y-87136104D02*
X94378571Y-87059914D01*
X94378571Y-87059914D02*
X94378571Y-86907533D01*
X94378571Y-86907533D02*
X94340476Y-86831342D01*
X94340476Y-86831342D02*
X94302381Y-86793247D01*
X94302381Y-86793247D02*
X94226190Y-86755152D01*
X120166667Y-87786104D02*
X120128571Y-87824200D01*
X120128571Y-87824200D02*
X120014286Y-87862295D01*
X120014286Y-87862295D02*
X119938095Y-87862295D01*
X119938095Y-87862295D02*
X119823809Y-87824200D01*
X119823809Y-87824200D02*
X119747619Y-87748009D01*
X119747619Y-87748009D02*
X119709524Y-87671819D01*
X119709524Y-87671819D02*
X119671428Y-87519438D01*
X119671428Y-87519438D02*
X119671428Y-87405152D01*
X119671428Y-87405152D02*
X119709524Y-87252771D01*
X119709524Y-87252771D02*
X119747619Y-87176580D01*
X119747619Y-87176580D02*
X119823809Y-87100390D01*
X119823809Y-87100390D02*
X119938095Y-87062295D01*
X119938095Y-87062295D02*
X120014286Y-87062295D01*
X120014286Y-87062295D02*
X120128571Y-87100390D01*
X120128571Y-87100390D02*
X120166667Y-87138485D01*
X120890476Y-87062295D02*
X120509524Y-87062295D01*
X120509524Y-87062295D02*
X120471428Y-87443247D01*
X120471428Y-87443247D02*
X120509524Y-87405152D01*
X120509524Y-87405152D02*
X120585714Y-87367057D01*
X120585714Y-87367057D02*
X120776190Y-87367057D01*
X120776190Y-87367057D02*
X120852381Y-87405152D01*
X120852381Y-87405152D02*
X120890476Y-87443247D01*
X120890476Y-87443247D02*
X120928571Y-87519438D01*
X120928571Y-87519438D02*
X120928571Y-87709914D01*
X120928571Y-87709914D02*
X120890476Y-87786104D01*
X120890476Y-87786104D02*
X120852381Y-87824200D01*
X120852381Y-87824200D02*
X120776190Y-87862295D01*
X120776190Y-87862295D02*
X120585714Y-87862295D01*
X120585714Y-87862295D02*
X120509524Y-87824200D01*
X120509524Y-87824200D02*
X120471428Y-87786104D01*
X120636104Y-101054285D02*
X120674200Y-101092381D01*
X120674200Y-101092381D02*
X120712295Y-101206666D01*
X120712295Y-101206666D02*
X120712295Y-101282857D01*
X120712295Y-101282857D02*
X120674200Y-101397143D01*
X120674200Y-101397143D02*
X120598009Y-101473333D01*
X120598009Y-101473333D02*
X120521819Y-101511428D01*
X120521819Y-101511428D02*
X120369438Y-101549524D01*
X120369438Y-101549524D02*
X120255152Y-101549524D01*
X120255152Y-101549524D02*
X120102771Y-101511428D01*
X120102771Y-101511428D02*
X120026580Y-101473333D01*
X120026580Y-101473333D02*
X119950390Y-101397143D01*
X119950390Y-101397143D02*
X119912295Y-101282857D01*
X119912295Y-101282857D02*
X119912295Y-101206666D01*
X119912295Y-101206666D02*
X119950390Y-101092381D01*
X119950390Y-101092381D02*
X119988485Y-101054285D01*
X119988485Y-100749524D02*
X119950390Y-100711428D01*
X119950390Y-100711428D02*
X119912295Y-100635238D01*
X119912295Y-100635238D02*
X119912295Y-100444762D01*
X119912295Y-100444762D02*
X119950390Y-100368571D01*
X119950390Y-100368571D02*
X119988485Y-100330476D01*
X119988485Y-100330476D02*
X120064676Y-100292381D01*
X120064676Y-100292381D02*
X120140866Y-100292381D01*
X120140866Y-100292381D02*
X120255152Y-100330476D01*
X120255152Y-100330476D02*
X120712295Y-100787619D01*
X120712295Y-100787619D02*
X120712295Y-100292381D01*
X120712295Y-99530476D02*
X120712295Y-99987619D01*
X120712295Y-99759047D02*
X119912295Y-99759047D01*
X119912295Y-99759047D02*
X120026580Y-99835238D01*
X120026580Y-99835238D02*
X120102771Y-99911428D01*
X120102771Y-99911428D02*
X120140866Y-99987619D01*
X122543545Y-91723332D02*
X122162592Y-91989999D01*
X122543545Y-92180475D02*
X121743545Y-92180475D01*
X121743545Y-92180475D02*
X121743545Y-91875713D01*
X121743545Y-91875713D02*
X121781640Y-91799523D01*
X121781640Y-91799523D02*
X121819735Y-91761428D01*
X121819735Y-91761428D02*
X121895926Y-91723332D01*
X121895926Y-91723332D02*
X122010211Y-91723332D01*
X122010211Y-91723332D02*
X122086402Y-91761428D01*
X122086402Y-91761428D02*
X122124497Y-91799523D01*
X122124497Y-91799523D02*
X122162592Y-91875713D01*
X122162592Y-91875713D02*
X122162592Y-92180475D01*
X121819735Y-91418571D02*
X121781640Y-91380475D01*
X121781640Y-91380475D02*
X121743545Y-91304285D01*
X121743545Y-91304285D02*
X121743545Y-91113809D01*
X121743545Y-91113809D02*
X121781640Y-91037618D01*
X121781640Y-91037618D02*
X121819735Y-90999523D01*
X121819735Y-90999523D02*
X121895926Y-90961428D01*
X121895926Y-90961428D02*
X121972116Y-90961428D01*
X121972116Y-90961428D02*
X122086402Y-90999523D01*
X122086402Y-90999523D02*
X122543545Y-91456666D01*
X122543545Y-91456666D02*
X122543545Y-90961428D01*
X136433333Y-106412295D02*
X136433333Y-106983723D01*
X136433333Y-106983723D02*
X136395238Y-107098009D01*
X136395238Y-107098009D02*
X136319047Y-107174200D01*
X136319047Y-107174200D02*
X136204762Y-107212295D01*
X136204762Y-107212295D02*
X136128571Y-107212295D01*
X137233333Y-107212295D02*
X136776190Y-107212295D01*
X137004762Y-107212295D02*
X137004762Y-106412295D01*
X137004762Y-106412295D02*
X136928571Y-106526580D01*
X136928571Y-106526580D02*
X136852381Y-106602771D01*
X136852381Y-106602771D02*
X136776190Y-106640866D01*
X134635714Y-97036104D02*
X134597618Y-97074200D01*
X134597618Y-97074200D02*
X134483333Y-97112295D01*
X134483333Y-97112295D02*
X134407142Y-97112295D01*
X134407142Y-97112295D02*
X134292856Y-97074200D01*
X134292856Y-97074200D02*
X134216666Y-96998009D01*
X134216666Y-96998009D02*
X134178571Y-96921819D01*
X134178571Y-96921819D02*
X134140475Y-96769438D01*
X134140475Y-96769438D02*
X134140475Y-96655152D01*
X134140475Y-96655152D02*
X134178571Y-96502771D01*
X134178571Y-96502771D02*
X134216666Y-96426580D01*
X134216666Y-96426580D02*
X134292856Y-96350390D01*
X134292856Y-96350390D02*
X134407142Y-96312295D01*
X134407142Y-96312295D02*
X134483333Y-96312295D01*
X134483333Y-96312295D02*
X134597618Y-96350390D01*
X134597618Y-96350390D02*
X134635714Y-96388485D01*
X135397618Y-97112295D02*
X134940475Y-97112295D01*
X135169047Y-97112295D02*
X135169047Y-96312295D01*
X135169047Y-96312295D02*
X135092856Y-96426580D01*
X135092856Y-96426580D02*
X135016666Y-96502771D01*
X135016666Y-96502771D02*
X134940475Y-96540866D01*
X136083333Y-96312295D02*
X135930952Y-96312295D01*
X135930952Y-96312295D02*
X135854761Y-96350390D01*
X135854761Y-96350390D02*
X135816666Y-96388485D01*
X135816666Y-96388485D02*
X135740476Y-96502771D01*
X135740476Y-96502771D02*
X135702380Y-96655152D01*
X135702380Y-96655152D02*
X135702380Y-96959914D01*
X135702380Y-96959914D02*
X135740476Y-97036104D01*
X135740476Y-97036104D02*
X135778571Y-97074200D01*
X135778571Y-97074200D02*
X135854761Y-97112295D01*
X135854761Y-97112295D02*
X136007142Y-97112295D01*
X136007142Y-97112295D02*
X136083333Y-97074200D01*
X136083333Y-97074200D02*
X136121428Y-97036104D01*
X136121428Y-97036104D02*
X136159523Y-96959914D01*
X136159523Y-96959914D02*
X136159523Y-96769438D01*
X136159523Y-96769438D02*
X136121428Y-96693247D01*
X136121428Y-96693247D02*
X136083333Y-96655152D01*
X136083333Y-96655152D02*
X136007142Y-96617057D01*
X136007142Y-96617057D02*
X135854761Y-96617057D01*
X135854761Y-96617057D02*
X135778571Y-96655152D01*
X135778571Y-96655152D02*
X135740476Y-96693247D01*
X135740476Y-96693247D02*
X135702380Y-96769438D01*
X130735714Y-81062295D02*
X130469047Y-80681342D01*
X130278571Y-81062295D02*
X130278571Y-80262295D01*
X130278571Y-80262295D02*
X130583333Y-80262295D01*
X130583333Y-80262295D02*
X130659523Y-80300390D01*
X130659523Y-80300390D02*
X130697618Y-80338485D01*
X130697618Y-80338485D02*
X130735714Y-80414676D01*
X130735714Y-80414676D02*
X130735714Y-80528961D01*
X130735714Y-80528961D02*
X130697618Y-80605152D01*
X130697618Y-80605152D02*
X130659523Y-80643247D01*
X130659523Y-80643247D02*
X130583333Y-80681342D01*
X130583333Y-80681342D02*
X130278571Y-80681342D01*
X131497618Y-81062295D02*
X131040475Y-81062295D01*
X131269047Y-81062295D02*
X131269047Y-80262295D01*
X131269047Y-80262295D02*
X131192856Y-80376580D01*
X131192856Y-80376580D02*
X131116666Y-80452771D01*
X131116666Y-80452771D02*
X131040475Y-80490866D01*
X131764285Y-80262295D02*
X132297619Y-80262295D01*
X132297619Y-80262295D02*
X131954761Y-81062295D01*
X139566667Y-84486104D02*
X139528571Y-84524200D01*
X139528571Y-84524200D02*
X139414286Y-84562295D01*
X139414286Y-84562295D02*
X139338095Y-84562295D01*
X139338095Y-84562295D02*
X139223809Y-84524200D01*
X139223809Y-84524200D02*
X139147619Y-84448009D01*
X139147619Y-84448009D02*
X139109524Y-84371819D01*
X139109524Y-84371819D02*
X139071428Y-84219438D01*
X139071428Y-84219438D02*
X139071428Y-84105152D01*
X139071428Y-84105152D02*
X139109524Y-83952771D01*
X139109524Y-83952771D02*
X139147619Y-83876580D01*
X139147619Y-83876580D02*
X139223809Y-83800390D01*
X139223809Y-83800390D02*
X139338095Y-83762295D01*
X139338095Y-83762295D02*
X139414286Y-83762295D01*
X139414286Y-83762295D02*
X139528571Y-83800390D01*
X139528571Y-83800390D02*
X139566667Y-83838485D01*
X139833333Y-83762295D02*
X140328571Y-83762295D01*
X140328571Y-83762295D02*
X140061905Y-84067057D01*
X140061905Y-84067057D02*
X140176190Y-84067057D01*
X140176190Y-84067057D02*
X140252381Y-84105152D01*
X140252381Y-84105152D02*
X140290476Y-84143247D01*
X140290476Y-84143247D02*
X140328571Y-84219438D01*
X140328571Y-84219438D02*
X140328571Y-84409914D01*
X140328571Y-84409914D02*
X140290476Y-84486104D01*
X140290476Y-84486104D02*
X140252381Y-84524200D01*
X140252381Y-84524200D02*
X140176190Y-84562295D01*
X140176190Y-84562295D02*
X139947619Y-84562295D01*
X139947619Y-84562295D02*
X139871428Y-84524200D01*
X139871428Y-84524200D02*
X139833333Y-84486104D01*
X124485714Y-91192295D02*
X124219047Y-90811342D01*
X124028571Y-91192295D02*
X124028571Y-90392295D01*
X124028571Y-90392295D02*
X124333333Y-90392295D01*
X124333333Y-90392295D02*
X124409523Y-90430390D01*
X124409523Y-90430390D02*
X124447618Y-90468485D01*
X124447618Y-90468485D02*
X124485714Y-90544676D01*
X124485714Y-90544676D02*
X124485714Y-90658961D01*
X124485714Y-90658961D02*
X124447618Y-90735152D01*
X124447618Y-90735152D02*
X124409523Y-90773247D01*
X124409523Y-90773247D02*
X124333333Y-90811342D01*
X124333333Y-90811342D02*
X124028571Y-90811342D01*
X125247618Y-91192295D02*
X124790475Y-91192295D01*
X125019047Y-91192295D02*
X125019047Y-90392295D01*
X125019047Y-90392295D02*
X124942856Y-90506580D01*
X124942856Y-90506580D02*
X124866666Y-90582771D01*
X124866666Y-90582771D02*
X124790475Y-90620866D01*
X125704761Y-90735152D02*
X125628571Y-90697057D01*
X125628571Y-90697057D02*
X125590476Y-90658961D01*
X125590476Y-90658961D02*
X125552380Y-90582771D01*
X125552380Y-90582771D02*
X125552380Y-90544676D01*
X125552380Y-90544676D02*
X125590476Y-90468485D01*
X125590476Y-90468485D02*
X125628571Y-90430390D01*
X125628571Y-90430390D02*
X125704761Y-90392295D01*
X125704761Y-90392295D02*
X125857142Y-90392295D01*
X125857142Y-90392295D02*
X125933333Y-90430390D01*
X125933333Y-90430390D02*
X125971428Y-90468485D01*
X125971428Y-90468485D02*
X126009523Y-90544676D01*
X126009523Y-90544676D02*
X126009523Y-90582771D01*
X126009523Y-90582771D02*
X125971428Y-90658961D01*
X125971428Y-90658961D02*
X125933333Y-90697057D01*
X125933333Y-90697057D02*
X125857142Y-90735152D01*
X125857142Y-90735152D02*
X125704761Y-90735152D01*
X125704761Y-90735152D02*
X125628571Y-90773247D01*
X125628571Y-90773247D02*
X125590476Y-90811342D01*
X125590476Y-90811342D02*
X125552380Y-90887533D01*
X125552380Y-90887533D02*
X125552380Y-91039914D01*
X125552380Y-91039914D02*
X125590476Y-91116104D01*
X125590476Y-91116104D02*
X125628571Y-91154200D01*
X125628571Y-91154200D02*
X125704761Y-91192295D01*
X125704761Y-91192295D02*
X125857142Y-91192295D01*
X125857142Y-91192295D02*
X125933333Y-91154200D01*
X125933333Y-91154200D02*
X125971428Y-91116104D01*
X125971428Y-91116104D02*
X126009523Y-91039914D01*
X126009523Y-91039914D02*
X126009523Y-90887533D01*
X126009523Y-90887533D02*
X125971428Y-90811342D01*
X125971428Y-90811342D02*
X125933333Y-90773247D01*
X125933333Y-90773247D02*
X125857142Y-90735152D01*
X132029048Y-102992295D02*
X132029048Y-102192295D01*
X132867143Y-102916104D02*
X132829047Y-102954200D01*
X132829047Y-102954200D02*
X132714762Y-102992295D01*
X132714762Y-102992295D02*
X132638571Y-102992295D01*
X132638571Y-102992295D02*
X132524285Y-102954200D01*
X132524285Y-102954200D02*
X132448095Y-102878009D01*
X132448095Y-102878009D02*
X132410000Y-102801819D01*
X132410000Y-102801819D02*
X132371904Y-102649438D01*
X132371904Y-102649438D02*
X132371904Y-102535152D01*
X132371904Y-102535152D02*
X132410000Y-102382771D01*
X132410000Y-102382771D02*
X132448095Y-102306580D01*
X132448095Y-102306580D02*
X132524285Y-102230390D01*
X132524285Y-102230390D02*
X132638571Y-102192295D01*
X132638571Y-102192295D02*
X132714762Y-102192295D01*
X132714762Y-102192295D02*
X132829047Y-102230390D01*
X132829047Y-102230390D02*
X132867143Y-102268485D01*
X133171904Y-102268485D02*
X133210000Y-102230390D01*
X133210000Y-102230390D02*
X133286190Y-102192295D01*
X133286190Y-102192295D02*
X133476666Y-102192295D01*
X133476666Y-102192295D02*
X133552857Y-102230390D01*
X133552857Y-102230390D02*
X133590952Y-102268485D01*
X133590952Y-102268485D02*
X133629047Y-102344676D01*
X133629047Y-102344676D02*
X133629047Y-102420866D01*
X133629047Y-102420866D02*
X133590952Y-102535152D01*
X133590952Y-102535152D02*
X133133809Y-102992295D01*
X133133809Y-102992295D02*
X133629047Y-102992295D01*
X104075714Y-91672295D02*
X103809047Y-91291342D01*
X103618571Y-91672295D02*
X103618571Y-90872295D01*
X103618571Y-90872295D02*
X103923333Y-90872295D01*
X103923333Y-90872295D02*
X103999523Y-90910390D01*
X103999523Y-90910390D02*
X104037618Y-90948485D01*
X104037618Y-90948485D02*
X104075714Y-91024676D01*
X104075714Y-91024676D02*
X104075714Y-91138961D01*
X104075714Y-91138961D02*
X104037618Y-91215152D01*
X104037618Y-91215152D02*
X103999523Y-91253247D01*
X103999523Y-91253247D02*
X103923333Y-91291342D01*
X103923333Y-91291342D02*
X103618571Y-91291342D01*
X104837618Y-91672295D02*
X104380475Y-91672295D01*
X104609047Y-91672295D02*
X104609047Y-90872295D01*
X104609047Y-90872295D02*
X104532856Y-90986580D01*
X104532856Y-90986580D02*
X104456666Y-91062771D01*
X104456666Y-91062771D02*
X104380475Y-91100866D01*
X105523333Y-91138961D02*
X105523333Y-91672295D01*
X105332857Y-90834200D02*
X105142380Y-91405628D01*
X105142380Y-91405628D02*
X105637619Y-91405628D01*
X117885714Y-92066104D02*
X117847618Y-92104200D01*
X117847618Y-92104200D02*
X117733333Y-92142295D01*
X117733333Y-92142295D02*
X117657142Y-92142295D01*
X117657142Y-92142295D02*
X117542856Y-92104200D01*
X117542856Y-92104200D02*
X117466666Y-92028009D01*
X117466666Y-92028009D02*
X117428571Y-91951819D01*
X117428571Y-91951819D02*
X117390475Y-91799438D01*
X117390475Y-91799438D02*
X117390475Y-91685152D01*
X117390475Y-91685152D02*
X117428571Y-91532771D01*
X117428571Y-91532771D02*
X117466666Y-91456580D01*
X117466666Y-91456580D02*
X117542856Y-91380390D01*
X117542856Y-91380390D02*
X117657142Y-91342295D01*
X117657142Y-91342295D02*
X117733333Y-91342295D01*
X117733333Y-91342295D02*
X117847618Y-91380390D01*
X117847618Y-91380390D02*
X117885714Y-91418485D01*
X118647618Y-92142295D02*
X118190475Y-92142295D01*
X118419047Y-92142295D02*
X118419047Y-91342295D01*
X118419047Y-91342295D02*
X118342856Y-91456580D01*
X118342856Y-91456580D02*
X118266666Y-91532771D01*
X118266666Y-91532771D02*
X118190475Y-91570866D01*
X119142857Y-91342295D02*
X119219047Y-91342295D01*
X119219047Y-91342295D02*
X119295238Y-91380390D01*
X119295238Y-91380390D02*
X119333333Y-91418485D01*
X119333333Y-91418485D02*
X119371428Y-91494676D01*
X119371428Y-91494676D02*
X119409523Y-91647057D01*
X119409523Y-91647057D02*
X119409523Y-91837533D01*
X119409523Y-91837533D02*
X119371428Y-91989914D01*
X119371428Y-91989914D02*
X119333333Y-92066104D01*
X119333333Y-92066104D02*
X119295238Y-92104200D01*
X119295238Y-92104200D02*
X119219047Y-92142295D01*
X119219047Y-92142295D02*
X119142857Y-92142295D01*
X119142857Y-92142295D02*
X119066666Y-92104200D01*
X119066666Y-92104200D02*
X119028571Y-92066104D01*
X119028571Y-92066104D02*
X118990476Y-91989914D01*
X118990476Y-91989914D02*
X118952380Y-91837533D01*
X118952380Y-91837533D02*
X118952380Y-91647057D01*
X118952380Y-91647057D02*
X118990476Y-91494676D01*
X118990476Y-91494676D02*
X119028571Y-91418485D01*
X119028571Y-91418485D02*
X119066666Y-91380390D01*
X119066666Y-91380390D02*
X119142857Y-91342295D01*
X106885714Y-100448952D02*
X106619047Y-100067999D01*
X106428571Y-100448952D02*
X106428571Y-99648952D01*
X106428571Y-99648952D02*
X106733333Y-99648952D01*
X106733333Y-99648952D02*
X106809523Y-99687047D01*
X106809523Y-99687047D02*
X106847618Y-99725142D01*
X106847618Y-99725142D02*
X106885714Y-99801333D01*
X106885714Y-99801333D02*
X106885714Y-99915618D01*
X106885714Y-99915618D02*
X106847618Y-99991809D01*
X106847618Y-99991809D02*
X106809523Y-100029904D01*
X106809523Y-100029904D02*
X106733333Y-100067999D01*
X106733333Y-100067999D02*
X106428571Y-100067999D01*
X107647618Y-100448952D02*
X107190475Y-100448952D01*
X107419047Y-100448952D02*
X107419047Y-99648952D01*
X107419047Y-99648952D02*
X107342856Y-99763237D01*
X107342856Y-99763237D02*
X107266666Y-99839428D01*
X107266666Y-99839428D02*
X107190475Y-99877523D01*
X108371428Y-99648952D02*
X107990476Y-99648952D01*
X107990476Y-99648952D02*
X107952380Y-100029904D01*
X107952380Y-100029904D02*
X107990476Y-99991809D01*
X107990476Y-99991809D02*
X108066666Y-99953714D01*
X108066666Y-99953714D02*
X108257142Y-99953714D01*
X108257142Y-99953714D02*
X108333333Y-99991809D01*
X108333333Y-99991809D02*
X108371428Y-100029904D01*
X108371428Y-100029904D02*
X108409523Y-100106095D01*
X108409523Y-100106095D02*
X108409523Y-100296571D01*
X108409523Y-100296571D02*
X108371428Y-100372761D01*
X108371428Y-100372761D02*
X108333333Y-100410857D01*
X108333333Y-100410857D02*
X108257142Y-100448952D01*
X108257142Y-100448952D02*
X108066666Y-100448952D01*
X108066666Y-100448952D02*
X107990476Y-100410857D01*
X107990476Y-100410857D02*
X107952380Y-100372761D01*
X108411964Y-90032295D02*
X108145297Y-89651342D01*
X107954821Y-90032295D02*
X107954821Y-89232295D01*
X107954821Y-89232295D02*
X108259583Y-89232295D01*
X108259583Y-89232295D02*
X108335773Y-89270390D01*
X108335773Y-89270390D02*
X108373868Y-89308485D01*
X108373868Y-89308485D02*
X108411964Y-89384676D01*
X108411964Y-89384676D02*
X108411964Y-89498961D01*
X108411964Y-89498961D02*
X108373868Y-89575152D01*
X108373868Y-89575152D02*
X108335773Y-89613247D01*
X108335773Y-89613247D02*
X108259583Y-89651342D01*
X108259583Y-89651342D02*
X107954821Y-89651342D01*
X109173868Y-90032295D02*
X108716725Y-90032295D01*
X108945297Y-90032295D02*
X108945297Y-89232295D01*
X108945297Y-89232295D02*
X108869106Y-89346580D01*
X108869106Y-89346580D02*
X108792916Y-89422771D01*
X108792916Y-89422771D02*
X108716725Y-89460866D01*
X109859583Y-89232295D02*
X109707202Y-89232295D01*
X109707202Y-89232295D02*
X109631011Y-89270390D01*
X109631011Y-89270390D02*
X109592916Y-89308485D01*
X109592916Y-89308485D02*
X109516726Y-89422771D01*
X109516726Y-89422771D02*
X109478630Y-89575152D01*
X109478630Y-89575152D02*
X109478630Y-89879914D01*
X109478630Y-89879914D02*
X109516726Y-89956104D01*
X109516726Y-89956104D02*
X109554821Y-89994200D01*
X109554821Y-89994200D02*
X109631011Y-90032295D01*
X109631011Y-90032295D02*
X109783392Y-90032295D01*
X109783392Y-90032295D02*
X109859583Y-89994200D01*
X109859583Y-89994200D02*
X109897678Y-89956104D01*
X109897678Y-89956104D02*
X109935773Y-89879914D01*
X109935773Y-89879914D02*
X109935773Y-89689438D01*
X109935773Y-89689438D02*
X109897678Y-89613247D01*
X109897678Y-89613247D02*
X109859583Y-89575152D01*
X109859583Y-89575152D02*
X109783392Y-89537057D01*
X109783392Y-89537057D02*
X109631011Y-89537057D01*
X109631011Y-89537057D02*
X109554821Y-89575152D01*
X109554821Y-89575152D02*
X109516726Y-89613247D01*
X109516726Y-89613247D02*
X109478630Y-89689438D01*
X131466667Y-91136104D02*
X131428571Y-91174200D01*
X131428571Y-91174200D02*
X131314286Y-91212295D01*
X131314286Y-91212295D02*
X131238095Y-91212295D01*
X131238095Y-91212295D02*
X131123809Y-91174200D01*
X131123809Y-91174200D02*
X131047619Y-91098009D01*
X131047619Y-91098009D02*
X131009524Y-91021819D01*
X131009524Y-91021819D02*
X130971428Y-90869438D01*
X130971428Y-90869438D02*
X130971428Y-90755152D01*
X130971428Y-90755152D02*
X131009524Y-90602771D01*
X131009524Y-90602771D02*
X131047619Y-90526580D01*
X131047619Y-90526580D02*
X131123809Y-90450390D01*
X131123809Y-90450390D02*
X131238095Y-90412295D01*
X131238095Y-90412295D02*
X131314286Y-90412295D01*
X131314286Y-90412295D02*
X131428571Y-90450390D01*
X131428571Y-90450390D02*
X131466667Y-90488485D01*
X131771428Y-90488485D02*
X131809524Y-90450390D01*
X131809524Y-90450390D02*
X131885714Y-90412295D01*
X131885714Y-90412295D02*
X132076190Y-90412295D01*
X132076190Y-90412295D02*
X132152381Y-90450390D01*
X132152381Y-90450390D02*
X132190476Y-90488485D01*
X132190476Y-90488485D02*
X132228571Y-90564676D01*
X132228571Y-90564676D02*
X132228571Y-90640866D01*
X132228571Y-90640866D02*
X132190476Y-90755152D01*
X132190476Y-90755152D02*
X131733333Y-91212295D01*
X131733333Y-91212295D02*
X132228571Y-91212295D01*
X119733333Y-80862295D02*
X119733333Y-81433723D01*
X119733333Y-81433723D02*
X119695238Y-81548009D01*
X119695238Y-81548009D02*
X119619047Y-81624200D01*
X119619047Y-81624200D02*
X119504762Y-81662295D01*
X119504762Y-81662295D02*
X119428571Y-81662295D01*
X120038095Y-80862295D02*
X120533333Y-80862295D01*
X120533333Y-80862295D02*
X120266667Y-81167057D01*
X120266667Y-81167057D02*
X120380952Y-81167057D01*
X120380952Y-81167057D02*
X120457143Y-81205152D01*
X120457143Y-81205152D02*
X120495238Y-81243247D01*
X120495238Y-81243247D02*
X120533333Y-81319438D01*
X120533333Y-81319438D02*
X120533333Y-81509914D01*
X120533333Y-81509914D02*
X120495238Y-81586104D01*
X120495238Y-81586104D02*
X120457143Y-81624200D01*
X120457143Y-81624200D02*
X120380952Y-81662295D01*
X120380952Y-81662295D02*
X120152381Y-81662295D01*
X120152381Y-81662295D02*
X120076190Y-81624200D01*
X120076190Y-81624200D02*
X120038095Y-81586104D01*
X108137704Y-97485714D02*
X108518657Y-97219047D01*
X108137704Y-97028571D02*
X108937704Y-97028571D01*
X108937704Y-97028571D02*
X108937704Y-97333333D01*
X108937704Y-97333333D02*
X108899609Y-97409523D01*
X108899609Y-97409523D02*
X108861514Y-97447618D01*
X108861514Y-97447618D02*
X108785323Y-97485714D01*
X108785323Y-97485714D02*
X108671038Y-97485714D01*
X108671038Y-97485714D02*
X108594847Y-97447618D01*
X108594847Y-97447618D02*
X108556752Y-97409523D01*
X108556752Y-97409523D02*
X108518657Y-97333333D01*
X108518657Y-97333333D02*
X108518657Y-97028571D01*
X108137704Y-98247618D02*
X108137704Y-97790475D01*
X108137704Y-98019047D02*
X108937704Y-98019047D01*
X108937704Y-98019047D02*
X108823419Y-97942856D01*
X108823419Y-97942856D02*
X108747228Y-97866666D01*
X108747228Y-97866666D02*
X108709133Y-97790475D01*
X108937704Y-98514285D02*
X108937704Y-99009523D01*
X108937704Y-99009523D02*
X108632942Y-98742857D01*
X108632942Y-98742857D02*
X108632942Y-98857142D01*
X108632942Y-98857142D02*
X108594847Y-98933333D01*
X108594847Y-98933333D02*
X108556752Y-98971428D01*
X108556752Y-98971428D02*
X108480561Y-99009523D01*
X108480561Y-99009523D02*
X108290085Y-99009523D01*
X108290085Y-99009523D02*
X108213895Y-98971428D01*
X108213895Y-98971428D02*
X108175800Y-98933333D01*
X108175800Y-98933333D02*
X108137704Y-98857142D01*
X108137704Y-98857142D02*
X108137704Y-98628571D01*
X108137704Y-98628571D02*
X108175800Y-98552380D01*
X108175800Y-98552380D02*
X108213895Y-98514285D01*
X142936666Y-87689795D02*
X142555714Y-87689795D01*
X142555714Y-87689795D02*
X142555714Y-86889795D01*
X143622380Y-87689795D02*
X143165237Y-87689795D01*
X143393809Y-87689795D02*
X143393809Y-86889795D01*
X143393809Y-86889795D02*
X143317618Y-87004080D01*
X143317618Y-87004080D02*
X143241428Y-87080271D01*
X143241428Y-87080271D02*
X143165237Y-87118366D01*
X115156666Y-89062295D02*
X114775714Y-89062295D01*
X114775714Y-89062295D02*
X114775714Y-88262295D01*
X115347142Y-88262295D02*
X115842380Y-88262295D01*
X115842380Y-88262295D02*
X115575714Y-88567057D01*
X115575714Y-88567057D02*
X115689999Y-88567057D01*
X115689999Y-88567057D02*
X115766190Y-88605152D01*
X115766190Y-88605152D02*
X115804285Y-88643247D01*
X115804285Y-88643247D02*
X115842380Y-88719438D01*
X115842380Y-88719438D02*
X115842380Y-88909914D01*
X115842380Y-88909914D02*
X115804285Y-88986104D01*
X115804285Y-88986104D02*
X115766190Y-89024200D01*
X115766190Y-89024200D02*
X115689999Y-89062295D01*
X115689999Y-89062295D02*
X115461428Y-89062295D01*
X115461428Y-89062295D02*
X115385237Y-89024200D01*
X115385237Y-89024200D02*
X115347142Y-88986104D01*
X109716667Y-83612295D02*
X109450000Y-83231342D01*
X109259524Y-83612295D02*
X109259524Y-82812295D01*
X109259524Y-82812295D02*
X109564286Y-82812295D01*
X109564286Y-82812295D02*
X109640476Y-82850390D01*
X109640476Y-82850390D02*
X109678571Y-82888485D01*
X109678571Y-82888485D02*
X109716667Y-82964676D01*
X109716667Y-82964676D02*
X109716667Y-83078961D01*
X109716667Y-83078961D02*
X109678571Y-83155152D01*
X109678571Y-83155152D02*
X109640476Y-83193247D01*
X109640476Y-83193247D02*
X109564286Y-83231342D01*
X109564286Y-83231342D02*
X109259524Y-83231342D01*
X109983333Y-82812295D02*
X110478571Y-82812295D01*
X110478571Y-82812295D02*
X110211905Y-83117057D01*
X110211905Y-83117057D02*
X110326190Y-83117057D01*
X110326190Y-83117057D02*
X110402381Y-83155152D01*
X110402381Y-83155152D02*
X110440476Y-83193247D01*
X110440476Y-83193247D02*
X110478571Y-83269438D01*
X110478571Y-83269438D02*
X110478571Y-83459914D01*
X110478571Y-83459914D02*
X110440476Y-83536104D01*
X110440476Y-83536104D02*
X110402381Y-83574200D01*
X110402381Y-83574200D02*
X110326190Y-83612295D01*
X110326190Y-83612295D02*
X110097619Y-83612295D01*
X110097619Y-83612295D02*
X110021428Y-83574200D01*
X110021428Y-83574200D02*
X109983333Y-83536104D01*
X135673809Y-83738485D02*
X135597619Y-83700390D01*
X135597619Y-83700390D02*
X135521428Y-83624200D01*
X135521428Y-83624200D02*
X135407142Y-83509914D01*
X135407142Y-83509914D02*
X135330952Y-83471819D01*
X135330952Y-83471819D02*
X135254761Y-83471819D01*
X135292857Y-83662295D02*
X135216666Y-83624200D01*
X135216666Y-83624200D02*
X135140476Y-83548009D01*
X135140476Y-83548009D02*
X135102380Y-83395628D01*
X135102380Y-83395628D02*
X135102380Y-83128961D01*
X135102380Y-83128961D02*
X135140476Y-82976580D01*
X135140476Y-82976580D02*
X135216666Y-82900390D01*
X135216666Y-82900390D02*
X135292857Y-82862295D01*
X135292857Y-82862295D02*
X135445238Y-82862295D01*
X135445238Y-82862295D02*
X135521428Y-82900390D01*
X135521428Y-82900390D02*
X135597619Y-82976580D01*
X135597619Y-82976580D02*
X135635714Y-83128961D01*
X135635714Y-83128961D02*
X135635714Y-83395628D01*
X135635714Y-83395628D02*
X135597619Y-83548009D01*
X135597619Y-83548009D02*
X135521428Y-83624200D01*
X135521428Y-83624200D02*
X135445238Y-83662295D01*
X135445238Y-83662295D02*
X135292857Y-83662295D01*
X135940475Y-82938485D02*
X135978571Y-82900390D01*
X135978571Y-82900390D02*
X136054761Y-82862295D01*
X136054761Y-82862295D02*
X136245237Y-82862295D01*
X136245237Y-82862295D02*
X136321428Y-82900390D01*
X136321428Y-82900390D02*
X136359523Y-82938485D01*
X136359523Y-82938485D02*
X136397618Y-83014676D01*
X136397618Y-83014676D02*
X136397618Y-83090866D01*
X136397618Y-83090866D02*
X136359523Y-83205152D01*
X136359523Y-83205152D02*
X135902380Y-83662295D01*
X135902380Y-83662295D02*
X136397618Y-83662295D01*
X128833333Y-87893247D02*
X128566667Y-87893247D01*
X128566667Y-88312295D02*
X128566667Y-87512295D01*
X128566667Y-87512295D02*
X128947619Y-87512295D01*
X129519047Y-87893247D02*
X129633333Y-87931342D01*
X129633333Y-87931342D02*
X129671428Y-87969438D01*
X129671428Y-87969438D02*
X129709524Y-88045628D01*
X129709524Y-88045628D02*
X129709524Y-88159914D01*
X129709524Y-88159914D02*
X129671428Y-88236104D01*
X129671428Y-88236104D02*
X129633333Y-88274200D01*
X129633333Y-88274200D02*
X129557143Y-88312295D01*
X129557143Y-88312295D02*
X129252381Y-88312295D01*
X129252381Y-88312295D02*
X129252381Y-87512295D01*
X129252381Y-87512295D02*
X129519047Y-87512295D01*
X129519047Y-87512295D02*
X129595238Y-87550390D01*
X129595238Y-87550390D02*
X129633333Y-87588485D01*
X129633333Y-87588485D02*
X129671428Y-87664676D01*
X129671428Y-87664676D02*
X129671428Y-87740866D01*
X129671428Y-87740866D02*
X129633333Y-87817057D01*
X129633333Y-87817057D02*
X129595238Y-87855152D01*
X129595238Y-87855152D02*
X129519047Y-87893247D01*
X129519047Y-87893247D02*
X129252381Y-87893247D01*
X130014285Y-87588485D02*
X130052381Y-87550390D01*
X130052381Y-87550390D02*
X130128571Y-87512295D01*
X130128571Y-87512295D02*
X130319047Y-87512295D01*
X130319047Y-87512295D02*
X130395238Y-87550390D01*
X130395238Y-87550390D02*
X130433333Y-87588485D01*
X130433333Y-87588485D02*
X130471428Y-87664676D01*
X130471428Y-87664676D02*
X130471428Y-87740866D01*
X130471428Y-87740866D02*
X130433333Y-87855152D01*
X130433333Y-87855152D02*
X129976190Y-88312295D01*
X129976190Y-88312295D02*
X130471428Y-88312295D01*
X97390714Y-96082295D02*
X97124047Y-95701342D01*
X96933571Y-96082295D02*
X96933571Y-95282295D01*
X96933571Y-95282295D02*
X97238333Y-95282295D01*
X97238333Y-95282295D02*
X97314523Y-95320390D01*
X97314523Y-95320390D02*
X97352618Y-95358485D01*
X97352618Y-95358485D02*
X97390714Y-95434676D01*
X97390714Y-95434676D02*
X97390714Y-95548961D01*
X97390714Y-95548961D02*
X97352618Y-95625152D01*
X97352618Y-95625152D02*
X97314523Y-95663247D01*
X97314523Y-95663247D02*
X97238333Y-95701342D01*
X97238333Y-95701342D02*
X96933571Y-95701342D01*
X97695475Y-95358485D02*
X97733571Y-95320390D01*
X97733571Y-95320390D02*
X97809761Y-95282295D01*
X97809761Y-95282295D02*
X98000237Y-95282295D01*
X98000237Y-95282295D02*
X98076428Y-95320390D01*
X98076428Y-95320390D02*
X98114523Y-95358485D01*
X98114523Y-95358485D02*
X98152618Y-95434676D01*
X98152618Y-95434676D02*
X98152618Y-95510866D01*
X98152618Y-95510866D02*
X98114523Y-95625152D01*
X98114523Y-95625152D02*
X97657380Y-96082295D01*
X97657380Y-96082295D02*
X98152618Y-96082295D01*
X98647857Y-95282295D02*
X98724047Y-95282295D01*
X98724047Y-95282295D02*
X98800238Y-95320390D01*
X98800238Y-95320390D02*
X98838333Y-95358485D01*
X98838333Y-95358485D02*
X98876428Y-95434676D01*
X98876428Y-95434676D02*
X98914523Y-95587057D01*
X98914523Y-95587057D02*
X98914523Y-95777533D01*
X98914523Y-95777533D02*
X98876428Y-95929914D01*
X98876428Y-95929914D02*
X98838333Y-96006104D01*
X98838333Y-96006104D02*
X98800238Y-96044200D01*
X98800238Y-96044200D02*
X98724047Y-96082295D01*
X98724047Y-96082295D02*
X98647857Y-96082295D01*
X98647857Y-96082295D02*
X98571666Y-96044200D01*
X98571666Y-96044200D02*
X98533571Y-96006104D01*
X98533571Y-96006104D02*
X98495476Y-95929914D01*
X98495476Y-95929914D02*
X98457380Y-95777533D01*
X98457380Y-95777533D02*
X98457380Y-95587057D01*
X98457380Y-95587057D02*
X98495476Y-95434676D01*
X98495476Y-95434676D02*
X98533571Y-95358485D01*
X98533571Y-95358485D02*
X98571666Y-95320390D01*
X98571666Y-95320390D02*
X98647857Y-95282295D01*
X135652380Y-89012295D02*
X136185714Y-89812295D01*
X136185714Y-89012295D02*
X135652380Y-89812295D01*
X136909523Y-89812295D02*
X136452380Y-89812295D01*
X136680952Y-89812295D02*
X136680952Y-89012295D01*
X136680952Y-89012295D02*
X136604761Y-89126580D01*
X136604761Y-89126580D02*
X136528571Y-89202771D01*
X136528571Y-89202771D02*
X136452380Y-89240866D01*
X129266667Y-96562295D02*
X129000000Y-96181342D01*
X128809524Y-96562295D02*
X128809524Y-95762295D01*
X128809524Y-95762295D02*
X129114286Y-95762295D01*
X129114286Y-95762295D02*
X129190476Y-95800390D01*
X129190476Y-95800390D02*
X129228571Y-95838485D01*
X129228571Y-95838485D02*
X129266667Y-95914676D01*
X129266667Y-95914676D02*
X129266667Y-96028961D01*
X129266667Y-96028961D02*
X129228571Y-96105152D01*
X129228571Y-96105152D02*
X129190476Y-96143247D01*
X129190476Y-96143247D02*
X129114286Y-96181342D01*
X129114286Y-96181342D02*
X128809524Y-96181342D01*
X129952381Y-95762295D02*
X129800000Y-95762295D01*
X129800000Y-95762295D02*
X129723809Y-95800390D01*
X129723809Y-95800390D02*
X129685714Y-95838485D01*
X129685714Y-95838485D02*
X129609524Y-95952771D01*
X129609524Y-95952771D02*
X129571428Y-96105152D01*
X129571428Y-96105152D02*
X129571428Y-96409914D01*
X129571428Y-96409914D02*
X129609524Y-96486104D01*
X129609524Y-96486104D02*
X129647619Y-96524200D01*
X129647619Y-96524200D02*
X129723809Y-96562295D01*
X129723809Y-96562295D02*
X129876190Y-96562295D01*
X129876190Y-96562295D02*
X129952381Y-96524200D01*
X129952381Y-96524200D02*
X129990476Y-96486104D01*
X129990476Y-96486104D02*
X130028571Y-96409914D01*
X130028571Y-96409914D02*
X130028571Y-96219438D01*
X130028571Y-96219438D02*
X129990476Y-96143247D01*
X129990476Y-96143247D02*
X129952381Y-96105152D01*
X129952381Y-96105152D02*
X129876190Y-96067057D01*
X129876190Y-96067057D02*
X129723809Y-96067057D01*
X129723809Y-96067057D02*
X129647619Y-96105152D01*
X129647619Y-96105152D02*
X129609524Y-96143247D01*
X129609524Y-96143247D02*
X129571428Y-96219438D01*
X132935714Y-81362295D02*
X132669047Y-80981342D01*
X132478571Y-81362295D02*
X132478571Y-80562295D01*
X132478571Y-80562295D02*
X132783333Y-80562295D01*
X132783333Y-80562295D02*
X132859523Y-80600390D01*
X132859523Y-80600390D02*
X132897618Y-80638485D01*
X132897618Y-80638485D02*
X132935714Y-80714676D01*
X132935714Y-80714676D02*
X132935714Y-80828961D01*
X132935714Y-80828961D02*
X132897618Y-80905152D01*
X132897618Y-80905152D02*
X132859523Y-80943247D01*
X132859523Y-80943247D02*
X132783333Y-80981342D01*
X132783333Y-80981342D02*
X132478571Y-80981342D01*
X133240475Y-80638485D02*
X133278571Y-80600390D01*
X133278571Y-80600390D02*
X133354761Y-80562295D01*
X133354761Y-80562295D02*
X133545237Y-80562295D01*
X133545237Y-80562295D02*
X133621428Y-80600390D01*
X133621428Y-80600390D02*
X133659523Y-80638485D01*
X133659523Y-80638485D02*
X133697618Y-80714676D01*
X133697618Y-80714676D02*
X133697618Y-80790866D01*
X133697618Y-80790866D02*
X133659523Y-80905152D01*
X133659523Y-80905152D02*
X133202380Y-81362295D01*
X133202380Y-81362295D02*
X133697618Y-81362295D01*
X134002380Y-80638485D02*
X134040476Y-80600390D01*
X134040476Y-80600390D02*
X134116666Y-80562295D01*
X134116666Y-80562295D02*
X134307142Y-80562295D01*
X134307142Y-80562295D02*
X134383333Y-80600390D01*
X134383333Y-80600390D02*
X134421428Y-80638485D01*
X134421428Y-80638485D02*
X134459523Y-80714676D01*
X134459523Y-80714676D02*
X134459523Y-80790866D01*
X134459523Y-80790866D02*
X134421428Y-80905152D01*
X134421428Y-80905152D02*
X133964285Y-81362295D01*
X133964285Y-81362295D02*
X134459523Y-81362295D01*
X107930714Y-93286104D02*
X107892618Y-93324200D01*
X107892618Y-93324200D02*
X107778333Y-93362295D01*
X107778333Y-93362295D02*
X107702142Y-93362295D01*
X107702142Y-93362295D02*
X107587856Y-93324200D01*
X107587856Y-93324200D02*
X107511666Y-93248009D01*
X107511666Y-93248009D02*
X107473571Y-93171819D01*
X107473571Y-93171819D02*
X107435475Y-93019438D01*
X107435475Y-93019438D02*
X107435475Y-92905152D01*
X107435475Y-92905152D02*
X107473571Y-92752771D01*
X107473571Y-92752771D02*
X107511666Y-92676580D01*
X107511666Y-92676580D02*
X107587856Y-92600390D01*
X107587856Y-92600390D02*
X107702142Y-92562295D01*
X107702142Y-92562295D02*
X107778333Y-92562295D01*
X107778333Y-92562295D02*
X107892618Y-92600390D01*
X107892618Y-92600390D02*
X107930714Y-92638485D01*
X108692618Y-93362295D02*
X108235475Y-93362295D01*
X108464047Y-93362295D02*
X108464047Y-92562295D01*
X108464047Y-92562295D02*
X108387856Y-92676580D01*
X108387856Y-92676580D02*
X108311666Y-92752771D01*
X108311666Y-92752771D02*
X108235475Y-92790866D01*
X108997380Y-92638485D02*
X109035476Y-92600390D01*
X109035476Y-92600390D02*
X109111666Y-92562295D01*
X109111666Y-92562295D02*
X109302142Y-92562295D01*
X109302142Y-92562295D02*
X109378333Y-92600390D01*
X109378333Y-92600390D02*
X109416428Y-92638485D01*
X109416428Y-92638485D02*
X109454523Y-92714676D01*
X109454523Y-92714676D02*
X109454523Y-92790866D01*
X109454523Y-92790866D02*
X109416428Y-92905152D01*
X109416428Y-92905152D02*
X108959285Y-93362295D01*
X108959285Y-93362295D02*
X109454523Y-93362295D01*
X131409524Y-78262295D02*
X131409524Y-77462295D01*
X131409524Y-77462295D02*
X131600000Y-77462295D01*
X131600000Y-77462295D02*
X131714286Y-77500390D01*
X131714286Y-77500390D02*
X131790476Y-77576580D01*
X131790476Y-77576580D02*
X131828571Y-77652771D01*
X131828571Y-77652771D02*
X131866667Y-77805152D01*
X131866667Y-77805152D02*
X131866667Y-77919438D01*
X131866667Y-77919438D02*
X131828571Y-78071819D01*
X131828571Y-78071819D02*
X131790476Y-78148009D01*
X131790476Y-78148009D02*
X131714286Y-78224200D01*
X131714286Y-78224200D02*
X131600000Y-78262295D01*
X131600000Y-78262295D02*
X131409524Y-78262295D01*
X132171428Y-77538485D02*
X132209524Y-77500390D01*
X132209524Y-77500390D02*
X132285714Y-77462295D01*
X132285714Y-77462295D02*
X132476190Y-77462295D01*
X132476190Y-77462295D02*
X132552381Y-77500390D01*
X132552381Y-77500390D02*
X132590476Y-77538485D01*
X132590476Y-77538485D02*
X132628571Y-77614676D01*
X132628571Y-77614676D02*
X132628571Y-77690866D01*
X132628571Y-77690866D02*
X132590476Y-77805152D01*
X132590476Y-77805152D02*
X132133333Y-78262295D01*
X132133333Y-78262295D02*
X132628571Y-78262295D01*
X128485714Y-84836104D02*
X128447618Y-84874200D01*
X128447618Y-84874200D02*
X128333333Y-84912295D01*
X128333333Y-84912295D02*
X128257142Y-84912295D01*
X128257142Y-84912295D02*
X128142856Y-84874200D01*
X128142856Y-84874200D02*
X128066666Y-84798009D01*
X128066666Y-84798009D02*
X128028571Y-84721819D01*
X128028571Y-84721819D02*
X127990475Y-84569438D01*
X127990475Y-84569438D02*
X127990475Y-84455152D01*
X127990475Y-84455152D02*
X128028571Y-84302771D01*
X128028571Y-84302771D02*
X128066666Y-84226580D01*
X128066666Y-84226580D02*
X128142856Y-84150390D01*
X128142856Y-84150390D02*
X128257142Y-84112295D01*
X128257142Y-84112295D02*
X128333333Y-84112295D01*
X128333333Y-84112295D02*
X128447618Y-84150390D01*
X128447618Y-84150390D02*
X128485714Y-84188485D01*
X129247618Y-84912295D02*
X128790475Y-84912295D01*
X129019047Y-84912295D02*
X129019047Y-84112295D01*
X129019047Y-84112295D02*
X128942856Y-84226580D01*
X128942856Y-84226580D02*
X128866666Y-84302771D01*
X128866666Y-84302771D02*
X128790475Y-84340866D01*
X129514285Y-84112295D02*
X130009523Y-84112295D01*
X130009523Y-84112295D02*
X129742857Y-84417057D01*
X129742857Y-84417057D02*
X129857142Y-84417057D01*
X129857142Y-84417057D02*
X129933333Y-84455152D01*
X129933333Y-84455152D02*
X129971428Y-84493247D01*
X129971428Y-84493247D02*
X130009523Y-84569438D01*
X130009523Y-84569438D02*
X130009523Y-84759914D01*
X130009523Y-84759914D02*
X129971428Y-84836104D01*
X129971428Y-84836104D02*
X129933333Y-84874200D01*
X129933333Y-84874200D02*
X129857142Y-84912295D01*
X129857142Y-84912295D02*
X129628571Y-84912295D01*
X129628571Y-84912295D02*
X129552380Y-84874200D01*
X129552380Y-84874200D02*
X129514285Y-84836104D01*
D11*
X111856359Y-90600000D02*
X112163641Y-90600000D01*
X111856359Y-91360000D02*
X112163641Y-91360000D01*
X117420000Y-99105580D02*
X117420000Y-98824420D01*
X116400000Y-99105580D02*
X116400000Y-98824420D01*
X95341359Y-100880000D02*
X95648641Y-100880000D01*
X95341359Y-101640000D02*
X95648641Y-101640000D01*
D12*
X117445000Y-87250000D02*
G75*
G03*
X117445000Y-87250000I-125000J0D01*
G01*
D11*
X109730000Y-86619420D02*
X109730000Y-86900580D01*
X108710000Y-86619420D02*
X108710000Y-86900580D01*
X134027500Y-78565000D02*
X134027500Y-80035000D01*
X134027500Y-80035000D02*
X136312500Y-80035000D01*
X136312500Y-78565000D02*
X134027500Y-78565000D01*
X145270000Y-78190000D02*
X146600000Y-78190000D01*
X145270000Y-79520000D02*
X145270000Y-78190000D01*
X145270000Y-80790000D02*
X145270000Y-85930000D01*
X145270000Y-80790000D02*
X147930000Y-80790000D01*
X145270000Y-85930000D02*
X147930000Y-85930000D01*
X147930000Y-80790000D02*
X147930000Y-85930000D01*
X130996359Y-96920000D02*
X131303641Y-96920000D01*
X130996359Y-97680000D02*
X131303641Y-97680000D01*
X132312164Y-89267500D02*
X132527836Y-89267500D01*
X132312164Y-89987500D02*
X132527836Y-89987500D01*
X106384420Y-83290000D02*
X106665580Y-83290000D01*
X106384420Y-84310000D02*
X106665580Y-84310000D01*
X139990000Y-87910279D02*
X139990000Y-87584721D01*
X141010000Y-87910279D02*
X141010000Y-87584721D01*
X125484420Y-97690000D02*
X125765580Y-97690000D01*
X125484420Y-98710000D02*
X125765580Y-98710000D01*
X136715580Y-87610000D02*
X136434420Y-87610000D01*
X136715580Y-86590000D02*
X136434420Y-86590000D01*
X136036359Y-84220000D02*
X136343641Y-84220000D01*
X136036359Y-84980000D02*
X136343641Y-84980000D01*
X131420000Y-94153641D02*
X131420000Y-93846359D01*
X132180000Y-94153641D02*
X132180000Y-93846359D01*
X131559420Y-85640000D02*
X131840580Y-85640000D01*
X131559420Y-86660000D02*
X131840580Y-86660000D01*
X132084420Y-87240000D02*
X132365580Y-87240000D01*
X132084420Y-88260000D02*
X132365580Y-88260000D01*
X102960000Y-80990000D02*
X102960000Y-82100000D01*
X102200000Y-80990000D02*
X102960000Y-80990000D01*
X101440000Y-80990000D02*
X100235000Y-80990000D01*
X101440000Y-80990000D02*
X101440000Y-81536529D01*
X100235000Y-80990000D02*
X100235000Y-81792470D01*
X100235000Y-82407530D02*
X100235000Y-83210000D01*
X101440000Y-82663471D02*
X101440000Y-83210000D01*
X101440000Y-83210000D02*
X100235000Y-83210000D01*
X115680000Y-103936359D02*
X115680000Y-104243641D01*
X114920000Y-103936359D02*
X114920000Y-104243641D01*
X137120000Y-103330580D02*
X137120000Y-103049420D01*
X138140000Y-103330580D02*
X138140000Y-103049420D01*
D13*
X125900000Y-84550000D02*
X125900000Y-84850000D01*
D11*
X124768750Y-96041250D02*
X126568750Y-96041250D01*
X124768750Y-96041250D02*
X123968750Y-96041250D01*
X124768750Y-92921250D02*
X125568750Y-92921250D01*
X124768750Y-92921250D02*
X123968750Y-92921250D01*
D14*
X129258000Y-95402500D02*
X129258000Y-94910500D01*
X129358000Y-94560500D02*
X129358000Y-94084500D01*
X130958000Y-94560500D02*
X129358000Y-94560500D01*
X129358000Y-94084500D02*
X130958000Y-94084500D01*
X130958000Y-94084500D02*
X130958000Y-94560500D01*
X89400000Y-100120000D02*
X89400000Y-88120000D01*
X97260000Y-91370000D02*
G75*
G03*
X97260000Y-91370000I-100000J0D01*
G01*
D11*
X105225000Y-93960407D02*
X102225000Y-93960407D01*
X106225000Y-97200407D02*
X104225000Y-97200407D01*
X144280000Y-82486359D02*
X144280000Y-82793641D01*
X143520000Y-82486359D02*
X143520000Y-82793641D01*
X102584420Y-92470407D02*
X102865580Y-92470407D01*
X102584420Y-93490407D02*
X102865580Y-93490407D01*
X140515000Y-78565000D02*
X140515000Y-80035000D01*
X140515000Y-80035000D02*
X142800000Y-80035000D01*
X142800000Y-78565000D02*
X140515000Y-78565000D01*
X125125109Y-96401250D02*
X125432391Y-96401250D01*
X125125109Y-97161250D02*
X125432391Y-97161250D01*
X111430000Y-87134420D02*
X111430000Y-87415580D01*
X110410000Y-87134420D02*
X110410000Y-87415580D01*
D14*
X143025000Y-83705000D02*
X141775000Y-83705000D01*
X141425000Y-83660000D02*
X141275000Y-83660000D01*
X141425000Y-80740000D02*
X141425000Y-83660000D01*
X141275000Y-83660000D02*
X141275000Y-80740000D01*
X141275000Y-80740000D02*
X141425000Y-80740000D01*
D11*
X130030000Y-91736359D02*
X130030000Y-92043641D01*
X129270000Y-91736359D02*
X129270000Y-92043641D01*
X137215000Y-78565000D02*
X137215000Y-80035000D01*
X137215000Y-80035000D02*
X139500000Y-80035000D01*
X139500000Y-78565000D02*
X137215000Y-78565000D01*
X133442164Y-82640000D02*
X133657836Y-82640000D01*
X133442164Y-83360000D02*
X133657836Y-83360000D01*
X123180000Y-97893641D02*
X123180000Y-97586359D01*
X123940000Y-97893641D02*
X123940000Y-97586359D01*
X140440000Y-102912500D02*
X140440000Y-104412500D01*
X143660000Y-101412500D02*
X143660000Y-104412500D01*
X97741359Y-93140000D02*
X98048641Y-93140000D01*
X97741359Y-93900000D02*
X98048641Y-93900000D01*
X112493641Y-82380000D02*
X112186359Y-82380000D01*
X112493641Y-81620000D02*
X112186359Y-81620000D01*
D15*
X153300000Y-89927500D02*
X153300000Y-99927500D01*
X149820000Y-89927500D02*
X153300000Y-89927500D01*
X146620000Y-89927500D02*
X148380000Y-89927500D01*
X137300000Y-89927500D02*
X139280000Y-89927500D01*
X137300000Y-90207500D02*
X137300000Y-89927500D01*
X153300000Y-99927500D02*
X149820000Y-99927500D01*
X138580000Y-99927500D02*
X137300000Y-99927500D01*
X137300000Y-99927500D02*
X137300000Y-99647500D01*
D14*
X149210000Y-89085500D02*
G75*
G03*
X149210000Y-89085500I-100000J0D01*
G01*
D11*
X114490000Y-96640580D02*
X114490000Y-96359420D01*
X115510000Y-96640580D02*
X115510000Y-96359420D01*
X135490000Y-103330580D02*
X135490000Y-103049420D01*
X136510000Y-103330580D02*
X136510000Y-103049420D01*
X95537836Y-87220000D02*
X95322164Y-87220000D01*
X95537836Y-86500000D02*
X95322164Y-86500000D01*
X119785580Y-86600000D02*
X119504420Y-86600000D01*
X119785580Y-85580000D02*
X119504420Y-85580000D01*
X121130000Y-99255580D02*
X121130000Y-98974420D01*
X122150000Y-99255580D02*
X122150000Y-98974420D01*
X123120000Y-91653641D02*
X123120000Y-91346359D01*
X123880000Y-91653641D02*
X123880000Y-91346359D01*
X137920000Y-108180000D02*
X137920000Y-106850000D01*
X139250000Y-108180000D02*
X137920000Y-108180000D01*
X140520000Y-108180000D02*
X148200000Y-108180000D01*
X140520000Y-108180000D02*
X140520000Y-105520000D01*
X148200000Y-108180000D02*
X148200000Y-105520000D01*
X140520000Y-105520000D02*
X148200000Y-105520000D01*
X133810000Y-96584420D02*
X133810000Y-96865580D01*
X132790000Y-96584420D02*
X132790000Y-96865580D01*
X131080000Y-82056359D02*
X131080000Y-82363641D01*
X130320000Y-82056359D02*
X130320000Y-82363641D01*
X139840580Y-85937500D02*
X139559420Y-85937500D01*
X139840580Y-84917500D02*
X139559420Y-84917500D01*
X125086359Y-91620000D02*
X125393641Y-91620000D01*
X125086359Y-92380000D02*
X125393641Y-92380000D01*
D14*
X132630000Y-101684000D02*
X132176000Y-101230000D01*
X133484000Y-101684000D02*
X132630000Y-101684000D01*
X132176000Y-101230000D02*
X132176000Y-100376000D01*
X132176000Y-100376000D02*
X133484000Y-100376000D01*
X133484000Y-100376000D02*
X133484000Y-101684000D01*
X132276000Y-101684000D02*
G75*
G03*
X132276000Y-101684000I-100000J0D01*
G01*
D11*
X102306359Y-90970000D02*
X102613641Y-90970000D01*
X102306359Y-91730000D02*
X102613641Y-91730000D01*
X117890000Y-89815580D02*
X117890000Y-89534420D01*
X118910000Y-89815580D02*
X118910000Y-89534420D01*
X107050000Y-98550298D02*
X107050000Y-98243016D01*
X107810000Y-98550298D02*
X107810000Y-98243016D01*
X109162258Y-91492500D02*
X108687742Y-91492500D01*
X109162258Y-90447500D02*
X108687742Y-90447500D01*
X133260000Y-91662164D02*
X133260000Y-91877836D01*
X132540000Y-91662164D02*
X132540000Y-91877836D01*
D16*
X130000000Y-83750000D02*
X121000000Y-83750000D01*
X120928000Y-78750000D02*
X120928000Y-83750000D01*
X130000000Y-78750000D02*
X130000000Y-83750000D01*
X130000000Y-78750000D02*
X121000000Y-78750000D01*
D11*
X109856359Y-97620000D02*
X110163641Y-97620000D01*
X109856359Y-98380000D02*
X110163641Y-98380000D01*
D14*
X115300000Y-91260000D02*
X115300000Y-89660000D01*
D11*
X109686359Y-83870000D02*
X109993641Y-83870000D01*
X109686359Y-84630000D02*
X109993641Y-84630000D01*
D14*
X138925000Y-83705000D02*
X137675000Y-83705000D01*
X137325000Y-83660000D02*
X137175000Y-83660000D01*
X137325000Y-80740000D02*
X137325000Y-83660000D01*
X137175000Y-83660000D02*
X137175000Y-80740000D01*
X137175000Y-80740000D02*
X137325000Y-80740000D01*
D13*
X129350000Y-89700000D02*
X129650000Y-89700000D01*
D11*
X97741359Y-94240000D02*
X98048641Y-94240000D01*
X97741359Y-95000000D02*
X98048641Y-95000000D01*
X133725000Y-91552500D02*
X133725000Y-90202500D01*
X135475000Y-91552500D02*
X135475000Y-90202500D01*
X131321641Y-96568500D02*
X131014359Y-96568500D01*
X131321641Y-95808500D02*
X131014359Y-95808500D01*
X132280000Y-82356359D02*
X132280000Y-82663641D01*
X131520000Y-82356359D02*
X131520000Y-82663641D01*
X105965580Y-93510000D02*
X105684420Y-93510000D01*
X105965580Y-92490000D02*
X105684420Y-92490000D01*
X130840000Y-78565000D02*
X130840000Y-80035000D01*
X130840000Y-80035000D02*
X133125000Y-80035000D01*
X133125000Y-78565000D02*
X130840000Y-78565000D01*
X131559420Y-84040000D02*
X131840580Y-84040000D01*
X131559420Y-85060000D02*
X131840580Y-85060000D01*
M02*
