%TF.GenerationSoftware,KiCad,Pcbnew,8.0.2-1*%
%TF.CreationDate,2025-01-23T13:43:47+09:00*%
%TF.ProjectId,gas_nrf52832,6761735f-6e72-4663-9532-3833322e6b69,rev?*%
%TF.SameCoordinates,Original*%
%TF.FileFunction,Paste,Top*%
%TF.FilePolarity,Positive*%
%FSLAX46Y46*%
G04 Gerber Fmt 4.6, Leading zero omitted, Abs format (unit mm)*
G04 Created by KiCad (PCBNEW 8.0.2-1) date 2025-01-23 13:43:47*
%MOMM*%
%LPD*%
G01*
G04 APERTURE LIST*
G04 Aperture macros list*
%AMRoundRect*
0 Rectangle with rounded corners*
0 $1 Rounding radius*
0 $2 $3 $4 $5 $6 $7 $8 $9 X,Y pos of 4 corners*
0 Add a 4 corners polygon primitive as box body*
4,1,4,$2,$3,$4,$5,$6,$7,$8,$9,$2,$3,0*
0 Add four circle primitives for the rounded corners*
1,1,$1+$1,$2,$3*
1,1,$1+$1,$4,$5*
1,1,$1+$1,$6,$7*
1,1,$1+$1,$8,$9*
0 Add four rect primitives between the rounded corners*
20,1,$1+$1,$2,$3,$4,$5,0*
20,1,$1+$1,$4,$5,$6,$7,0*
20,1,$1+$1,$6,$7,$8,$9,0*
20,1,$1+$1,$8,$9,$2,$3,0*%
G04 Aperture macros list end*
%ADD10RoundRect,0.135000X-0.185000X0.135000X-0.185000X-0.135000X0.185000X-0.135000X0.185000X0.135000X0*%
%ADD11RoundRect,0.135000X0.185000X-0.135000X0.185000X0.135000X-0.185000X0.135000X-0.185000X-0.135000X0*%
%ADD12R,1.800000X0.800000*%
%ADD13RoundRect,0.140000X-0.170000X0.140000X-0.170000X-0.140000X0.170000X-0.140000X0.170000X0.140000X0*%
%ADD14RoundRect,0.135000X-0.135000X-0.185000X0.135000X-0.185000X0.135000X0.185000X-0.135000X0.185000X0*%
%ADD15RoundRect,0.140000X0.170000X-0.140000X0.170000X0.140000X-0.170000X0.140000X-0.170000X-0.140000X0*%
%ADD16R,1.400000X1.000000*%
%ADD17RoundRect,0.200000X-0.275000X0.200000X-0.275000X-0.200000X0.275000X-0.200000X0.275000X0.200000X0*%
%ADD18R,1.800000X1.000000*%
%ADD19RoundRect,0.140000X-0.140000X-0.170000X0.140000X-0.170000X0.140000X0.170000X-0.140000X0.170000X0*%
%ADD20R,0.400000X0.500000*%
%ADD21RoundRect,0.140000X0.140000X0.170000X-0.140000X0.170000X-0.140000X-0.170000X0.140000X-0.170000X0*%
%ADD22R,0.300000X0.800000*%
%ADD23R,0.800000X0.300000*%
%ADD24R,2.800000X2.800000*%
%ADD25RoundRect,0.200000X-0.200000X-0.275000X0.200000X-0.275000X0.200000X0.275000X-0.200000X0.275000X0*%
%ADD26RoundRect,0.218750X0.256250X-0.218750X0.256250X0.218750X-0.256250X0.218750X-0.256250X-0.218750X0*%
%ADD27RoundRect,0.135000X0.135000X0.185000X-0.135000X0.185000X-0.135000X-0.185000X0.135000X-0.185000X0*%
%ADD28R,0.600000X1.200000*%
%ADD29R,0.500000X0.400000*%
%ADD30RoundRect,0.147500X-0.172500X0.147500X-0.172500X-0.147500X0.172500X-0.147500X0.172500X0.147500X0*%
%ADD31R,0.800000X1.400000*%
%ADD32R,0.400000X1.400000*%
%ADD33R,1.400000X0.400000*%
%ADD34R,0.600000X1.250000*%
%ADD35R,1.200000X0.600000*%
%ADD36R,1.250000X0.600000*%
%ADD37R,1.100000X0.250000*%
G04 APERTURE END LIST*
D10*
X155660000Y-111560000D03*
X155660000Y-112580000D03*
X116120000Y-113255000D03*
X116120000Y-114275000D03*
D11*
X141540000Y-122395000D03*
X141540000Y-121375000D03*
D12*
X113505000Y-104245000D03*
X113505000Y-105845000D03*
D13*
X118880000Y-132505000D03*
X118880000Y-133465000D03*
D14*
X119060000Y-115370000D03*
X120080000Y-115370000D03*
X122750000Y-129910000D03*
X123770000Y-129910000D03*
D15*
X114420000Y-108260000D03*
X114420000Y-107300000D03*
D16*
X124780000Y-119840000D03*
X124780000Y-121740000D03*
X126980000Y-120790000D03*
D17*
X114580000Y-112390000D03*
X114580000Y-114040000D03*
D18*
X147750000Y-116552500D03*
X147750000Y-119052500D03*
D19*
X155630000Y-113595000D03*
X156590000Y-113595000D03*
D20*
X115330000Y-105500000D03*
X116130000Y-105500000D03*
D21*
X121620000Y-129910000D03*
X120660000Y-129910000D03*
D22*
X110880000Y-104845000D03*
X110380000Y-104845000D03*
X109880000Y-104845000D03*
X109380000Y-104845000D03*
X108880000Y-104845000D03*
X108380000Y-104845000D03*
D23*
X107630000Y-105595000D03*
X107630000Y-106095000D03*
X107630000Y-106595000D03*
X107630000Y-107095000D03*
X107630000Y-107595000D03*
X107630000Y-108095000D03*
D22*
X108380000Y-108845000D03*
X108880000Y-108845000D03*
X109380000Y-108845000D03*
X109880000Y-108845000D03*
X110380000Y-108845000D03*
X110880000Y-108845000D03*
D23*
X111630000Y-108095000D03*
X111630000Y-107595000D03*
X111630000Y-107095000D03*
X111630000Y-106595000D03*
X111630000Y-106095000D03*
X111630000Y-105595000D03*
D24*
X109630000Y-106845000D03*
D21*
X122785000Y-134835000D03*
X121825000Y-134835000D03*
X112605000Y-112920000D03*
X111645000Y-112920000D03*
D25*
X119065000Y-116770000D03*
X120715000Y-116770000D03*
D21*
X112605000Y-110145000D03*
X111645000Y-110145000D03*
D26*
X151630000Y-112990000D03*
X151630000Y-111415000D03*
D15*
X125620000Y-135890000D03*
X125620000Y-134930000D03*
D27*
X116120000Y-115470000D03*
X115100000Y-115470000D03*
D13*
X121500000Y-110780000D03*
X121500000Y-111740000D03*
D28*
X140140000Y-120160000D03*
X139190000Y-120160000D03*
X138240000Y-120160000D03*
X138240000Y-122660000D03*
X140140000Y-122660000D03*
D10*
X143730000Y-121380000D03*
X143730000Y-122400000D03*
D19*
X111790000Y-102620000D03*
X112750000Y-102620000D03*
D15*
X108420000Y-112700000D03*
X108420000Y-111740000D03*
D29*
X111655000Y-111895000D03*
X111655000Y-111095000D03*
D14*
X143650000Y-129370000D03*
X144670000Y-129370000D03*
D30*
X153000000Y-111177500D03*
X153000000Y-112147500D03*
D31*
X161800000Y-116380000D03*
D32*
X158800000Y-116380000D03*
X158100000Y-116380000D03*
X157400000Y-116380000D03*
X156700000Y-116380000D03*
X156000000Y-116380000D03*
X155300000Y-116380000D03*
X154600000Y-116380000D03*
X153900000Y-116380000D03*
X153200000Y-116380000D03*
X152500000Y-116380000D03*
D33*
X150400000Y-116780000D03*
X150400000Y-117480000D03*
X150400000Y-118180000D03*
X150400000Y-118880000D03*
X150400000Y-119580000D03*
X150400000Y-120280000D03*
X150400000Y-120980000D03*
X150400000Y-121680000D03*
X150400000Y-122380000D03*
X150400000Y-123080000D03*
X150400000Y-123780000D03*
X150400000Y-124480000D03*
X150400000Y-125180000D03*
D32*
X151800000Y-125580000D03*
X152500000Y-125580000D03*
X153200000Y-125580000D03*
X153900000Y-125580000D03*
X154600000Y-125580000D03*
X155300000Y-125580000D03*
X156000000Y-125580000D03*
X156700000Y-125580000D03*
X157400000Y-125580000D03*
X158100000Y-125580000D03*
X158800000Y-125580000D03*
X159500000Y-125580000D03*
X160200000Y-125580000D03*
X160900000Y-125580000D03*
D31*
X161800000Y-125580000D03*
D10*
X157635000Y-112385000D03*
X157635000Y-113405000D03*
D15*
X146470000Y-130350000D03*
X146470000Y-129390000D03*
D34*
X119700000Y-111740000D03*
X117800000Y-111740000D03*
X118750000Y-113840000D03*
D21*
X153900000Y-113260000D03*
X152940000Y-113260000D03*
D13*
X135850000Y-131935000D03*
X135850000Y-132895000D03*
D27*
X136870000Y-120160000D03*
X135850000Y-120160000D03*
D11*
X131080000Y-134225000D03*
X131080000Y-133205000D03*
D14*
X128520000Y-120790000D03*
X129540000Y-120790000D03*
X122930000Y-111750000D03*
X123950000Y-111750000D03*
D21*
X141095000Y-124060000D03*
X140135000Y-124060000D03*
D11*
X118880000Y-131570000D03*
X118880000Y-130550000D03*
D15*
X145500000Y-117052500D03*
X145500000Y-116092500D03*
D35*
X122780000Y-133460000D03*
X122780000Y-132510000D03*
X122780000Y-131560000D03*
X120280000Y-131560000D03*
X120280000Y-133460000D03*
D27*
X143160000Y-108840000D03*
X142140000Y-108840000D03*
D19*
X133480000Y-135840000D03*
X134440000Y-135840000D03*
D10*
X124360000Y-134900000D03*
X124360000Y-135920000D03*
D36*
X147070000Y-107990000D03*
X147070000Y-106080000D03*
X144970000Y-107035000D03*
D21*
X132460000Y-130490000D03*
X131500000Y-130490000D03*
D14*
X106950000Y-121485000D03*
X107970000Y-121485000D03*
D10*
X137280000Y-131930000D03*
X137280000Y-132950000D03*
D13*
X110405000Y-111165000D03*
X110405000Y-112125000D03*
D15*
X150250000Y-114550000D03*
X150250000Y-113590000D03*
D37*
X104650000Y-119250000D03*
X104650000Y-120750000D03*
X104650000Y-121250000D03*
X104650000Y-122750000D03*
X104650000Y-122250000D03*
X104650000Y-121750000D03*
X104650000Y-120250000D03*
X104650000Y-119750000D03*
D11*
X145235000Y-122395000D03*
X145235000Y-121375000D03*
D14*
X107630000Y-110110000D03*
X108650000Y-110110000D03*
X106950000Y-120460000D03*
X107970000Y-120460000D03*
D13*
X145500000Y-118572500D03*
X145500000Y-119532500D03*
D15*
X115620000Y-108260000D03*
X115620000Y-107300000D03*
D27*
X132470000Y-128880000D03*
X131450000Y-128880000D03*
X116120000Y-116770000D03*
X115100000Y-116770000D03*
D19*
X122940000Y-110680000D03*
X123900000Y-110680000D03*
D13*
X142665000Y-121390000D03*
X142665000Y-122350000D03*
D28*
X134430000Y-131940000D03*
X133480000Y-131940000D03*
X132530000Y-131940000D03*
X132530000Y-134440000D03*
X134430000Y-134440000D03*
D15*
X146305000Y-122345000D03*
X146305000Y-121385000D03*
D13*
X110130000Y-102745000D03*
X110130000Y-103705000D03*
D27*
X118570000Y-135710000D03*
X117550000Y-135710000D03*
M02*
