M48
; DRILL file {KiCad 8.0.2-1} date 2024-09-30T14:56:49+0900
; FORMAT={-:-/ absolute / metric / decimal}
; #@! TF.CreationDate,2024-09-30T14:56:49+09:00
; #@! TF.GenerationSoftware,Kicad,Pcbnew,8.0.2-1
; #@! TF.FileFunction,Plated,1,4,PTH
FMAT,2
METRIC
; #@! TA.AperFunction,Plated,PTH,ViaDrill
T1C0.300
; #@! TA.AperFunction,Plated,PTH,ViaDrill
T2C0.400
; #@! TA.AperFunction,Plated,PTH,ComponentDrill
T3C0.650
; #@! TA.AperFunction,Plated,PTH,ComponentDrill
T4C0.800
; #@! TA.AperFunction,Plated,PTH,ComponentDrill
T5C1.000
; #@! TA.AperFunction,Plated,PTH,ComponentDrill
T6C1.340
; #@! TA.AperFunction,Plated,PTH,ComponentDrill
T7C1.710
; #@! TA.AperFunction,Plated,PTH,ComponentDrill
T8C2.800
%
G90
G05
T1
X90.5Y-76.5
X90.5Y-80.0
X90.5Y-109.5
X90.51Y-105.0
X95.0Y-76.45
X95.0Y-105.0
X95.0Y-109.5
X100.0Y-76.45
X100.0Y-100.0
X100.0Y-105.0
X100.0Y-109.5
X100.275Y-81.695
X100.725Y-78.945
X100.95Y-95.45
X100.96Y-92.76
X100.975Y-83.895
X102.15Y-78.895
X102.175Y-83.895
X102.865Y-81.535
X104.25Y-82.945
X104.35Y-78.895
X105.0Y-76.45
X105.0Y-109.5
X105.5Y-80.07
X105.5Y-81.67
X106.0Y-83.82
X107.0Y-80.07
X107.0Y-81.67
X108.25Y-79.02
X109.4Y-82.22
X109.465Y-80.607
X109.995Y-100.8
X110.0Y-76.45
X110.0Y-90.0
X110.0Y-109.5
X110.35Y-80.62
X111.305Y-84.04
X112.02Y-99.85
X115.0Y-76.45
X115.0Y-85.0
X115.0Y-90.0
X115.0Y-109.5
X116.625Y-98.55
X118.6Y-97.95
X118.6Y-103.825
X120.0Y-76.45
X120.0Y-85.0
X120.0Y-109.5
X125.0Y-76.45
X125.0Y-109.5
X126.32Y-96.96
X127.195Y-96.635
X129.107Y-93.898
X129.375Y-90.975
X130.0Y-76.45
X130.0Y-79.5
X130.0Y-109.5
X132.5Y-83.0
X133.23Y-99.67
X133.265Y-102.845
X133.265Y-106.095
X133.6Y-91.0
X133.6Y-92.5
X134.965Y-96.95
X135.0Y-76.45
X135.0Y-79.5
X135.0Y-109.5
X135.19Y-101.965
X135.99Y-105.865
X137.5Y-83.0
X137.59Y-105.87
X137.7Y-90.0
X139.0Y-76.45
X139.0Y-79.5
X139.0Y-86.6
X140.0Y-97.5
X140.0Y-109.5
X142.05Y-85.2
X142.5Y-95.0
X142.526Y-88.025
X143.825Y-86.075
X144.75Y-88.025
X145.0Y-92.5
X145.0Y-106.0
X145.0Y-109.5
X145.925Y-84.225
X146.85Y-88.025
X147.5Y-76.45
X152.5Y-76.45
X152.5Y-80.0
X152.5Y-85.0
X152.5Y-89.0
X152.5Y-101.0
X152.5Y-105.0
X152.5Y-109.5
T2
X97.21Y-91.38
X97.21Y-96.87
X98.985Y-95.435
X99.3Y-92.025
X108.34Y-101.74
X120.65Y-103.124
X126.238Y-94.234
X133.096Y-103.886
X133.096Y-105.156
X137.7Y-99.9
X137.922Y-88.392
X143.33Y-82.5
X147.525Y-78.525
X149.1Y-91.6
X149.1Y-100.85
T4
X98.08Y-79.37
X98.08Y-80.64
T5
X123.0Y-79.6
X123.0Y-82.9
X125.5Y-79.6
X125.5Y-82.9
X128.0Y-79.6
X128.0Y-82.9
T5
X140.82Y-104.0
X143.36Y-104.0
X145.9Y-104.0
X148.44Y-104.0
X150.5Y-82.235
X150.5Y-84.775
X150.5Y-87.315
T6
X140.82Y-104.0
X143.36Y-104.0
X145.9Y-104.0
X148.44Y-104.0
X150.5Y-82.235
X150.5Y-84.775
X150.5Y-87.315
T7
X92.0Y-88.5
X92.0Y-99.74
T8
X104.55Y-88.15
X104.55Y-101.65
X111.3Y-94.9
X119.3Y-94.9
X126.05Y-88.15
X126.05Y-101.65
T3
G00X91.45Y-88.49
M15
G01X90.45Y-88.49
M16
G05
G00X91.45Y-99.73
M15
G01X90.45Y-99.73
M16
G05
G00X95.25Y-88.49
M15
G01X94.65Y-88.49
M16
G05
G00X95.25Y-99.73
M15
G01X94.65Y-99.73
M16
G05
M30
