%TF.GenerationSoftware,KiCad,Pcbnew,7.0.9*%
%TF.CreationDate,2023-12-22T14:05:00+09:00*%
%TF.ProjectId,gas_nrf52832,6761735f-6e72-4663-9532-3833322e6b69,rev?*%
%TF.SameCoordinates,Original*%
%TF.FileFunction,Legend,Bot*%
%TF.FilePolarity,Positive*%
%FSLAX46Y46*%
G04 Gerber Fmt 4.6, Leading zero omitted, Abs format (unit mm)*
G04 Created by KiCad (PCBNEW 7.0.9) date 2023-12-22 14:05:00*
%MOMM*%
%LPD*%
G01*
G04 APERTURE LIST*
%ADD10C,0.150000*%
%ADD11C,0.200000*%
G04 APERTURE END LIST*
D10*
X105179523Y-93732295D02*
X105179523Y-94379914D01*
X105179523Y-94379914D02*
X105141428Y-94456104D01*
X105141428Y-94456104D02*
X105103333Y-94494200D01*
X105103333Y-94494200D02*
X105027142Y-94532295D01*
X105027142Y-94532295D02*
X104874761Y-94532295D01*
X104874761Y-94532295D02*
X104798571Y-94494200D01*
X104798571Y-94494200D02*
X104760476Y-94456104D01*
X104760476Y-94456104D02*
X104722380Y-94379914D01*
X104722380Y-94379914D02*
X104722380Y-93732295D01*
X104379524Y-93808485D02*
X104341428Y-93770390D01*
X104341428Y-93770390D02*
X104265238Y-93732295D01*
X104265238Y-93732295D02*
X104074762Y-93732295D01*
X104074762Y-93732295D02*
X103998571Y-93770390D01*
X103998571Y-93770390D02*
X103960476Y-93808485D01*
X103960476Y-93808485D02*
X103922381Y-93884676D01*
X103922381Y-93884676D02*
X103922381Y-93960866D01*
X103922381Y-93960866D02*
X103960476Y-94075152D01*
X103960476Y-94075152D02*
X104417619Y-94532295D01*
X104417619Y-94532295D02*
X103922381Y-94532295D01*
X126397023Y-95012295D02*
X126397023Y-95659914D01*
X126397023Y-95659914D02*
X126358928Y-95736104D01*
X126358928Y-95736104D02*
X126320833Y-95774200D01*
X126320833Y-95774200D02*
X126244642Y-95812295D01*
X126244642Y-95812295D02*
X126092261Y-95812295D01*
X126092261Y-95812295D02*
X126016071Y-95774200D01*
X126016071Y-95774200D02*
X125977976Y-95736104D01*
X125977976Y-95736104D02*
X125939880Y-95659914D01*
X125939880Y-95659914D02*
X125939880Y-95012295D01*
X125139881Y-95812295D02*
X125597024Y-95812295D01*
X125368452Y-95812295D02*
X125368452Y-95012295D01*
X125368452Y-95012295D02*
X125444643Y-95126580D01*
X125444643Y-95126580D02*
X125520833Y-95202771D01*
X125520833Y-95202771D02*
X125597024Y-95240866D01*
D11*
X114550000Y-94900000D02*
G75*
G03*
X114550000Y-94900000I-10000000J0D01*
G01*
X136050000Y-94900000D02*
G75*
G03*
X136050000Y-94900000I-10000000J0D01*
G01*
M02*
