%TF.GenerationSoftware,KiCad,Pcbnew,7.0.7*%
%TF.CreationDate,2023-09-18T11:47:39+09:00*%
%TF.ProjectId,gas_nrf52832,6761735f-6e72-4663-9532-3833322e6b69,rev?*%
%TF.SameCoordinates,Original*%
%TF.FileFunction,Legend,Top*%
%TF.FilePolarity,Positive*%
%FSLAX46Y46*%
G04 Gerber Fmt 4.6, Leading zero omitted, Abs format (unit mm)*
G04 Created by KiCad (PCBNEW 7.0.7) date 2023-09-18 11:47:39*
%MOMM*%
%LPD*%
G01*
G04 APERTURE LIST*
G04 Aperture macros list*
%AMRoundRect*
0 Rectangle with rounded corners*
0 $1 Rounding radius*
0 $2 $3 $4 $5 $6 $7 $8 $9 X,Y pos of 4 corners*
0 Add a 4 corners polygon primitive as box body*
4,1,4,$2,$3,$4,$5,$6,$7,$8,$9,$2,$3,0*
0 Add four circle primitives for the rounded corners*
1,1,$1+$1,$2,$3*
1,1,$1+$1,$4,$5*
1,1,$1+$1,$6,$7*
1,1,$1+$1,$8,$9*
0 Add four rect primitives between the rounded corners*
20,1,$1+$1,$2,$3,$4,$5,0*
20,1,$1+$1,$4,$5,$6,$7,0*
20,1,$1+$1,$6,$7,$8,$9,0*
20,1,$1+$1,$8,$9,$2,$3,0*%
G04 Aperture macros list end*
%ADD10C,0.150000*%
%ADD11C,0.100000*%
%ADD12C,0.120000*%
%ADD13C,0.200000*%
%ADD14C,0.250000*%
%ADD15C,0.127000*%
%ADD16RoundRect,0.135000X0.135000X0.185000X-0.135000X0.185000X-0.135000X-0.185000X0.135000X-0.185000X0*%
%ADD17R,0.600000X1.250000*%
%ADD18RoundRect,0.218750X0.218750X0.256250X-0.218750X0.256250X-0.218750X-0.256250X0.218750X-0.256250X0*%
%ADD19RoundRect,0.135000X-0.135000X-0.185000X0.135000X-0.185000X0.135000X0.185000X-0.135000X0.185000X0*%
%ADD20R,0.800000X0.300000*%
%ADD21R,0.300000X0.800000*%
%ADD22R,2.800000X2.800000*%
%ADD23RoundRect,0.225000X-0.250000X0.225000X-0.250000X-0.225000X0.250000X-0.225000X0.250000X0.225000X0*%
%ADD24RoundRect,0.218750X0.256250X-0.218750X0.256250X0.218750X-0.256250X0.218750X-0.256250X-0.218750X0*%
%ADD25R,1.700000X1.700000*%
%ADD26O,1.700000X1.700000*%
%ADD27RoundRect,0.135000X0.185000X-0.135000X0.185000X0.135000X-0.185000X0.135000X-0.185000X-0.135000X0*%
%ADD28RoundRect,0.140000X-0.140000X-0.170000X0.140000X-0.170000X0.140000X0.170000X-0.140000X0.170000X0*%
%ADD29RoundRect,0.102000X0.465000X-0.435000X0.465000X0.435000X-0.465000X0.435000X-0.465000X-0.435000X0*%
%ADD30RoundRect,0.225000X-0.225000X-0.250000X0.225000X-0.250000X0.225000X0.250000X-0.225000X0.250000X0*%
%ADD31R,1.350000X1.350000*%
%ADD32O,1.350000X1.350000*%
%ADD33RoundRect,0.150000X0.512500X0.150000X-0.512500X0.150000X-0.512500X-0.150000X0.512500X-0.150000X0*%
%ADD34R,0.492000X0.300000*%
%ADD35RoundRect,0.102000X-0.600000X0.350000X-0.600000X-0.350000X0.600000X-0.350000X0.600000X0.350000X0*%
%ADD36RoundRect,0.102000X-0.600000X0.380000X-0.600000X-0.380000X0.600000X-0.380000X0.600000X0.380000X0*%
%ADD37RoundRect,0.102000X-0.600000X0.400000X-0.600000X-0.400000X0.600000X-0.400000X0.600000X0.400000X0*%
%ADD38O,2.304000X1.304000*%
%ADD39O,1.904000X1.304000*%
%ADD40R,1.450000X0.450000*%
%ADD41RoundRect,0.225000X0.250000X-0.225000X0.250000X0.225000X-0.250000X0.225000X-0.250000X-0.225000X0*%
%ADD42RoundRect,0.135000X-0.185000X0.135000X-0.185000X-0.135000X0.185000X-0.135000X0.185000X0.135000X0*%
%ADD43RoundRect,0.125000X-0.125000X-0.137500X0.125000X-0.137500X0.125000X0.137500X-0.125000X0.137500X0*%
%ADD44RoundRect,0.102000X-0.400000X0.700000X-0.400000X-0.700000X0.400000X-0.700000X0.400000X0.700000X0*%
%ADD45RoundRect,0.102000X-0.200000X0.700000X-0.200000X-0.700000X0.200000X-0.700000X0.200000X0.700000X0*%
%ADD46RoundRect,0.102000X-0.700000X-0.200000X0.700000X-0.200000X0.700000X0.200000X-0.700000X0.200000X0*%
%ADD47RoundRect,0.102000X0.700000X0.200000X-0.700000X0.200000X-0.700000X-0.200000X0.700000X-0.200000X0*%
%ADD48RoundRect,0.102000X0.200000X-0.700000X0.200000X0.700000X-0.200000X0.700000X-0.200000X-0.700000X0*%
%ADD49RoundRect,0.102000X0.400000X-0.700000X0.400000X0.700000X-0.400000X0.700000X-0.400000X-0.700000X0*%
%ADD50RoundRect,0.102000X0.200000X-0.500000X0.200000X0.500000X-0.200000X0.500000X-0.200000X-0.500000X0*%
%ADD51RoundRect,0.225000X0.225000X0.250000X-0.225000X0.250000X-0.225000X-0.250000X0.225000X-0.250000X0*%
%ADD52C,0.208000*%
%ADD53RoundRect,0.140000X0.170000X-0.140000X0.170000X0.140000X-0.170000X0.140000X-0.170000X-0.140000X0*%
%ADD54R,0.800000X1.800000*%
%ADD55R,1.800000X1.000000*%
%ADD56C,2.300000*%
G04 APERTURE END LIST*
D10*
X146245714Y-86032295D02*
X145979047Y-85651342D01*
X145788571Y-86032295D02*
X145788571Y-85232295D01*
X145788571Y-85232295D02*
X146093333Y-85232295D01*
X146093333Y-85232295D02*
X146169523Y-85270390D01*
X146169523Y-85270390D02*
X146207618Y-85308485D01*
X146207618Y-85308485D02*
X146245714Y-85384676D01*
X146245714Y-85384676D02*
X146245714Y-85498961D01*
X146245714Y-85498961D02*
X146207618Y-85575152D01*
X146207618Y-85575152D02*
X146169523Y-85613247D01*
X146169523Y-85613247D02*
X146093333Y-85651342D01*
X146093333Y-85651342D02*
X145788571Y-85651342D01*
X146550475Y-85308485D02*
X146588571Y-85270390D01*
X146588571Y-85270390D02*
X146664761Y-85232295D01*
X146664761Y-85232295D02*
X146855237Y-85232295D01*
X146855237Y-85232295D02*
X146931428Y-85270390D01*
X146931428Y-85270390D02*
X146969523Y-85308485D01*
X146969523Y-85308485D02*
X147007618Y-85384676D01*
X147007618Y-85384676D02*
X147007618Y-85460866D01*
X147007618Y-85460866D02*
X146969523Y-85575152D01*
X146969523Y-85575152D02*
X146512380Y-86032295D01*
X146512380Y-86032295D02*
X147007618Y-86032295D01*
X147312380Y-85308485D02*
X147350476Y-85270390D01*
X147350476Y-85270390D02*
X147426666Y-85232295D01*
X147426666Y-85232295D02*
X147617142Y-85232295D01*
X147617142Y-85232295D02*
X147693333Y-85270390D01*
X147693333Y-85270390D02*
X147731428Y-85308485D01*
X147731428Y-85308485D02*
X147769523Y-85384676D01*
X147769523Y-85384676D02*
X147769523Y-85460866D01*
X147769523Y-85460866D02*
X147731428Y-85575152D01*
X147731428Y-85575152D02*
X147274285Y-86032295D01*
X147274285Y-86032295D02*
X147769523Y-86032295D01*
X141775714Y-74762295D02*
X141509047Y-74381342D01*
X141318571Y-74762295D02*
X141318571Y-73962295D01*
X141318571Y-73962295D02*
X141623333Y-73962295D01*
X141623333Y-73962295D02*
X141699523Y-74000390D01*
X141699523Y-74000390D02*
X141737618Y-74038485D01*
X141737618Y-74038485D02*
X141775714Y-74114676D01*
X141775714Y-74114676D02*
X141775714Y-74228961D01*
X141775714Y-74228961D02*
X141737618Y-74305152D01*
X141737618Y-74305152D02*
X141699523Y-74343247D01*
X141699523Y-74343247D02*
X141623333Y-74381342D01*
X141623333Y-74381342D02*
X141318571Y-74381342D01*
X142537618Y-74762295D02*
X142080475Y-74762295D01*
X142309047Y-74762295D02*
X142309047Y-73962295D01*
X142309047Y-73962295D02*
X142232856Y-74076580D01*
X142232856Y-74076580D02*
X142156666Y-74152771D01*
X142156666Y-74152771D02*
X142080475Y-74190866D01*
X142804285Y-73962295D02*
X143337619Y-73962295D01*
X143337619Y-73962295D02*
X142994761Y-74762295D01*
X148323809Y-79838485D02*
X148247619Y-79800390D01*
X148247619Y-79800390D02*
X148171428Y-79724200D01*
X148171428Y-79724200D02*
X148057142Y-79609914D01*
X148057142Y-79609914D02*
X147980952Y-79571819D01*
X147980952Y-79571819D02*
X147904761Y-79571819D01*
X147942857Y-79762295D02*
X147866666Y-79724200D01*
X147866666Y-79724200D02*
X147790476Y-79648009D01*
X147790476Y-79648009D02*
X147752380Y-79495628D01*
X147752380Y-79495628D02*
X147752380Y-79228961D01*
X147752380Y-79228961D02*
X147790476Y-79076580D01*
X147790476Y-79076580D02*
X147866666Y-79000390D01*
X147866666Y-79000390D02*
X147942857Y-78962295D01*
X147942857Y-78962295D02*
X148095238Y-78962295D01*
X148095238Y-78962295D02*
X148171428Y-79000390D01*
X148171428Y-79000390D02*
X148247619Y-79076580D01*
X148247619Y-79076580D02*
X148285714Y-79228961D01*
X148285714Y-79228961D02*
X148285714Y-79495628D01*
X148285714Y-79495628D02*
X148247619Y-79648009D01*
X148247619Y-79648009D02*
X148171428Y-79724200D01*
X148171428Y-79724200D02*
X148095238Y-79762295D01*
X148095238Y-79762295D02*
X147942857Y-79762295D01*
X148552380Y-78962295D02*
X149047618Y-78962295D01*
X149047618Y-78962295D02*
X148780952Y-79267057D01*
X148780952Y-79267057D02*
X148895237Y-79267057D01*
X148895237Y-79267057D02*
X148971428Y-79305152D01*
X148971428Y-79305152D02*
X149009523Y-79343247D01*
X149009523Y-79343247D02*
X149047618Y-79419438D01*
X149047618Y-79419438D02*
X149047618Y-79609914D01*
X149047618Y-79609914D02*
X149009523Y-79686104D01*
X149009523Y-79686104D02*
X148971428Y-79724200D01*
X148971428Y-79724200D02*
X148895237Y-79762295D01*
X148895237Y-79762295D02*
X148666666Y-79762295D01*
X148666666Y-79762295D02*
X148590475Y-79724200D01*
X148590475Y-79724200D02*
X148552380Y-79686104D01*
X144861905Y-74554819D02*
X144861905Y-73554819D01*
X144861905Y-73554819D02*
X145100000Y-73554819D01*
X145100000Y-73554819D02*
X145242857Y-73602438D01*
X145242857Y-73602438D02*
X145338095Y-73697676D01*
X145338095Y-73697676D02*
X145385714Y-73792914D01*
X145385714Y-73792914D02*
X145433333Y-73983390D01*
X145433333Y-73983390D02*
X145433333Y-74126247D01*
X145433333Y-74126247D02*
X145385714Y-74316723D01*
X145385714Y-74316723D02*
X145338095Y-74411961D01*
X145338095Y-74411961D02*
X145242857Y-74507200D01*
X145242857Y-74507200D02*
X145100000Y-74554819D01*
X145100000Y-74554819D02*
X144861905Y-74554819D01*
X146290476Y-73888152D02*
X146290476Y-74554819D01*
X146052381Y-73507200D02*
X145814286Y-74221485D01*
X145814286Y-74221485D02*
X146433333Y-74221485D01*
X112751026Y-98027607D02*
X112484359Y-97646654D01*
X112293883Y-98027607D02*
X112293883Y-97227607D01*
X112293883Y-97227607D02*
X112598645Y-97227607D01*
X112598645Y-97227607D02*
X112674835Y-97265702D01*
X112674835Y-97265702D02*
X112712930Y-97303797D01*
X112712930Y-97303797D02*
X112751026Y-97379988D01*
X112751026Y-97379988D02*
X112751026Y-97494273D01*
X112751026Y-97494273D02*
X112712930Y-97570464D01*
X112712930Y-97570464D02*
X112674835Y-97608559D01*
X112674835Y-97608559D02*
X112598645Y-97646654D01*
X112598645Y-97646654D02*
X112293883Y-97646654D01*
X113055787Y-97303797D02*
X113093883Y-97265702D01*
X113093883Y-97265702D02*
X113170073Y-97227607D01*
X113170073Y-97227607D02*
X113360549Y-97227607D01*
X113360549Y-97227607D02*
X113436740Y-97265702D01*
X113436740Y-97265702D02*
X113474835Y-97303797D01*
X113474835Y-97303797D02*
X113512930Y-97379988D01*
X113512930Y-97379988D02*
X113512930Y-97456178D01*
X113512930Y-97456178D02*
X113474835Y-97570464D01*
X113474835Y-97570464D02*
X113017692Y-98027607D01*
X113017692Y-98027607D02*
X113512930Y-98027607D01*
X114274835Y-98027607D02*
X113817692Y-98027607D01*
X114046264Y-98027607D02*
X114046264Y-97227607D01*
X114046264Y-97227607D02*
X113970073Y-97341892D01*
X113970073Y-97341892D02*
X113893883Y-97418083D01*
X113893883Y-97418083D02*
X113817692Y-97456178D01*
X125444360Y-96107607D02*
X125444360Y-95307607D01*
X126282455Y-96031416D02*
X126244359Y-96069512D01*
X126244359Y-96069512D02*
X126130074Y-96107607D01*
X126130074Y-96107607D02*
X126053883Y-96107607D01*
X126053883Y-96107607D02*
X125939597Y-96069512D01*
X125939597Y-96069512D02*
X125863407Y-95993321D01*
X125863407Y-95993321D02*
X125825312Y-95917131D01*
X125825312Y-95917131D02*
X125787216Y-95764750D01*
X125787216Y-95764750D02*
X125787216Y-95650464D01*
X125787216Y-95650464D02*
X125825312Y-95498083D01*
X125825312Y-95498083D02*
X125863407Y-95421892D01*
X125863407Y-95421892D02*
X125939597Y-95345702D01*
X125939597Y-95345702D02*
X126053883Y-95307607D01*
X126053883Y-95307607D02*
X126130074Y-95307607D01*
X126130074Y-95307607D02*
X126244359Y-95345702D01*
X126244359Y-95345702D02*
X126282455Y-95383797D01*
X127044359Y-96107607D02*
X126587216Y-96107607D01*
X126815788Y-96107607D02*
X126815788Y-95307607D01*
X126815788Y-95307607D02*
X126739597Y-95421892D01*
X126739597Y-95421892D02*
X126663407Y-95498083D01*
X126663407Y-95498083D02*
X126587216Y-95536178D01*
X116699479Y-96711416D02*
X116661383Y-96749512D01*
X116661383Y-96749512D02*
X116547098Y-96787607D01*
X116547098Y-96787607D02*
X116470907Y-96787607D01*
X116470907Y-96787607D02*
X116356621Y-96749512D01*
X116356621Y-96749512D02*
X116280431Y-96673321D01*
X116280431Y-96673321D02*
X116242336Y-96597131D01*
X116242336Y-96597131D02*
X116204240Y-96444750D01*
X116204240Y-96444750D02*
X116204240Y-96330464D01*
X116204240Y-96330464D02*
X116242336Y-96178083D01*
X116242336Y-96178083D02*
X116280431Y-96101892D01*
X116280431Y-96101892D02*
X116356621Y-96025702D01*
X116356621Y-96025702D02*
X116470907Y-95987607D01*
X116470907Y-95987607D02*
X116547098Y-95987607D01*
X116547098Y-95987607D02*
X116661383Y-96025702D01*
X116661383Y-96025702D02*
X116699479Y-96063797D01*
X117385193Y-95987607D02*
X117232812Y-95987607D01*
X117232812Y-95987607D02*
X117156621Y-96025702D01*
X117156621Y-96025702D02*
X117118526Y-96063797D01*
X117118526Y-96063797D02*
X117042336Y-96178083D01*
X117042336Y-96178083D02*
X117004240Y-96330464D01*
X117004240Y-96330464D02*
X117004240Y-96635226D01*
X117004240Y-96635226D02*
X117042336Y-96711416D01*
X117042336Y-96711416D02*
X117080431Y-96749512D01*
X117080431Y-96749512D02*
X117156621Y-96787607D01*
X117156621Y-96787607D02*
X117309002Y-96787607D01*
X117309002Y-96787607D02*
X117385193Y-96749512D01*
X117385193Y-96749512D02*
X117423288Y-96711416D01*
X117423288Y-96711416D02*
X117461383Y-96635226D01*
X117461383Y-96635226D02*
X117461383Y-96444750D01*
X117461383Y-96444750D02*
X117423288Y-96368559D01*
X117423288Y-96368559D02*
X117385193Y-96330464D01*
X117385193Y-96330464D02*
X117309002Y-96292369D01*
X117309002Y-96292369D02*
X117156621Y-96292369D01*
X117156621Y-96292369D02*
X117080431Y-96330464D01*
X117080431Y-96330464D02*
X117042336Y-96368559D01*
X117042336Y-96368559D02*
X117004240Y-96444750D01*
X122454819Y-85938094D02*
X121454819Y-85938094D01*
X121454819Y-85938094D02*
X121454819Y-85699999D01*
X121454819Y-85699999D02*
X121502438Y-85557142D01*
X121502438Y-85557142D02*
X121597676Y-85461904D01*
X121597676Y-85461904D02*
X121692914Y-85414285D01*
X121692914Y-85414285D02*
X121883390Y-85366666D01*
X121883390Y-85366666D02*
X122026247Y-85366666D01*
X122026247Y-85366666D02*
X122216723Y-85414285D01*
X122216723Y-85414285D02*
X122311961Y-85461904D01*
X122311961Y-85461904D02*
X122407200Y-85557142D01*
X122407200Y-85557142D02*
X122454819Y-85699999D01*
X122454819Y-85699999D02*
X122454819Y-85938094D01*
X122454819Y-84414285D02*
X122454819Y-84985713D01*
X122454819Y-84699999D02*
X121454819Y-84699999D01*
X121454819Y-84699999D02*
X121597676Y-84795237D01*
X121597676Y-84795237D02*
X121692914Y-84890475D01*
X121692914Y-84890475D02*
X121740533Y-84985713D01*
X132685714Y-103837295D02*
X132419047Y-103456342D01*
X132228571Y-103837295D02*
X132228571Y-103037295D01*
X132228571Y-103037295D02*
X132533333Y-103037295D01*
X132533333Y-103037295D02*
X132609523Y-103075390D01*
X132609523Y-103075390D02*
X132647618Y-103113485D01*
X132647618Y-103113485D02*
X132685714Y-103189676D01*
X132685714Y-103189676D02*
X132685714Y-103303961D01*
X132685714Y-103303961D02*
X132647618Y-103380152D01*
X132647618Y-103380152D02*
X132609523Y-103418247D01*
X132609523Y-103418247D02*
X132533333Y-103456342D01*
X132533333Y-103456342D02*
X132228571Y-103456342D01*
X133447618Y-103837295D02*
X132990475Y-103837295D01*
X133219047Y-103837295D02*
X133219047Y-103037295D01*
X133219047Y-103037295D02*
X133142856Y-103151580D01*
X133142856Y-103151580D02*
X133066666Y-103227771D01*
X133066666Y-103227771D02*
X132990475Y-103265866D01*
X133714285Y-103037295D02*
X134209523Y-103037295D01*
X134209523Y-103037295D02*
X133942857Y-103342057D01*
X133942857Y-103342057D02*
X134057142Y-103342057D01*
X134057142Y-103342057D02*
X134133333Y-103380152D01*
X134133333Y-103380152D02*
X134171428Y-103418247D01*
X134171428Y-103418247D02*
X134209523Y-103494438D01*
X134209523Y-103494438D02*
X134209523Y-103684914D01*
X134209523Y-103684914D02*
X134171428Y-103761104D01*
X134171428Y-103761104D02*
X134133333Y-103799200D01*
X134133333Y-103799200D02*
X134057142Y-103837295D01*
X134057142Y-103837295D02*
X133828571Y-103837295D01*
X133828571Y-103837295D02*
X133752380Y-103799200D01*
X133752380Y-103799200D02*
X133714285Y-103761104D01*
X143566666Y-112154819D02*
X143566666Y-112869104D01*
X143566666Y-112869104D02*
X143519047Y-113011961D01*
X143519047Y-113011961D02*
X143423809Y-113107200D01*
X143423809Y-113107200D02*
X143280952Y-113154819D01*
X143280952Y-113154819D02*
X143185714Y-113154819D01*
X144471428Y-112488152D02*
X144471428Y-113154819D01*
X144233333Y-112107200D02*
X143995238Y-112821485D01*
X143995238Y-112821485D02*
X144614285Y-112821485D01*
X132162295Y-94833332D02*
X131781342Y-95099999D01*
X132162295Y-95290475D02*
X131362295Y-95290475D01*
X131362295Y-95290475D02*
X131362295Y-94985713D01*
X131362295Y-94985713D02*
X131400390Y-94909523D01*
X131400390Y-94909523D02*
X131438485Y-94871428D01*
X131438485Y-94871428D02*
X131514676Y-94833332D01*
X131514676Y-94833332D02*
X131628961Y-94833332D01*
X131628961Y-94833332D02*
X131705152Y-94871428D01*
X131705152Y-94871428D02*
X131743247Y-94909523D01*
X131743247Y-94909523D02*
X131781342Y-94985713D01*
X131781342Y-94985713D02*
X131781342Y-95290475D01*
X131362295Y-94566666D02*
X131362295Y-94033332D01*
X131362295Y-94033332D02*
X132162295Y-94376190D01*
X139570714Y-103708604D02*
X139532618Y-103746700D01*
X139532618Y-103746700D02*
X139418333Y-103784795D01*
X139418333Y-103784795D02*
X139342142Y-103784795D01*
X139342142Y-103784795D02*
X139227856Y-103746700D01*
X139227856Y-103746700D02*
X139151666Y-103670509D01*
X139151666Y-103670509D02*
X139113571Y-103594319D01*
X139113571Y-103594319D02*
X139075475Y-103441938D01*
X139075475Y-103441938D02*
X139075475Y-103327652D01*
X139075475Y-103327652D02*
X139113571Y-103175271D01*
X139113571Y-103175271D02*
X139151666Y-103099080D01*
X139151666Y-103099080D02*
X139227856Y-103022890D01*
X139227856Y-103022890D02*
X139342142Y-102984795D01*
X139342142Y-102984795D02*
X139418333Y-102984795D01*
X139418333Y-102984795D02*
X139532618Y-103022890D01*
X139532618Y-103022890D02*
X139570714Y-103060985D01*
X140332618Y-103784795D02*
X139875475Y-103784795D01*
X140104047Y-103784795D02*
X140104047Y-102984795D01*
X140104047Y-102984795D02*
X140027856Y-103099080D01*
X140027856Y-103099080D02*
X139951666Y-103175271D01*
X139951666Y-103175271D02*
X139875475Y-103213366D01*
X140599285Y-102984795D02*
X141094523Y-102984795D01*
X141094523Y-102984795D02*
X140827857Y-103289557D01*
X140827857Y-103289557D02*
X140942142Y-103289557D01*
X140942142Y-103289557D02*
X141018333Y-103327652D01*
X141018333Y-103327652D02*
X141056428Y-103365747D01*
X141056428Y-103365747D02*
X141094523Y-103441938D01*
X141094523Y-103441938D02*
X141094523Y-103632414D01*
X141094523Y-103632414D02*
X141056428Y-103708604D01*
X141056428Y-103708604D02*
X141018333Y-103746700D01*
X141018333Y-103746700D02*
X140942142Y-103784795D01*
X140942142Y-103784795D02*
X140713571Y-103784795D01*
X140713571Y-103784795D02*
X140637380Y-103746700D01*
X140637380Y-103746700D02*
X140599285Y-103708604D01*
X132366667Y-89986104D02*
X132328571Y-90024200D01*
X132328571Y-90024200D02*
X132214286Y-90062295D01*
X132214286Y-90062295D02*
X132138095Y-90062295D01*
X132138095Y-90062295D02*
X132023809Y-90024200D01*
X132023809Y-90024200D02*
X131947619Y-89948009D01*
X131947619Y-89948009D02*
X131909524Y-89871819D01*
X131909524Y-89871819D02*
X131871428Y-89719438D01*
X131871428Y-89719438D02*
X131871428Y-89605152D01*
X131871428Y-89605152D02*
X131909524Y-89452771D01*
X131909524Y-89452771D02*
X131947619Y-89376580D01*
X131947619Y-89376580D02*
X132023809Y-89300390D01*
X132023809Y-89300390D02*
X132138095Y-89262295D01*
X132138095Y-89262295D02*
X132214286Y-89262295D01*
X132214286Y-89262295D02*
X132328571Y-89300390D01*
X132328571Y-89300390D02*
X132366667Y-89338485D01*
X133128571Y-90062295D02*
X132671428Y-90062295D01*
X132900000Y-90062295D02*
X132900000Y-89262295D01*
X132900000Y-89262295D02*
X132823809Y-89376580D01*
X132823809Y-89376580D02*
X132747619Y-89452771D01*
X132747619Y-89452771D02*
X132671428Y-89490866D01*
X126098645Y-101424892D02*
X126051026Y-101472512D01*
X126051026Y-101472512D02*
X125908169Y-101520131D01*
X125908169Y-101520131D02*
X125812931Y-101520131D01*
X125812931Y-101520131D02*
X125670074Y-101472512D01*
X125670074Y-101472512D02*
X125574836Y-101377273D01*
X125574836Y-101377273D02*
X125527217Y-101282035D01*
X125527217Y-101282035D02*
X125479598Y-101091559D01*
X125479598Y-101091559D02*
X125479598Y-100948702D01*
X125479598Y-100948702D02*
X125527217Y-100758226D01*
X125527217Y-100758226D02*
X125574836Y-100662988D01*
X125574836Y-100662988D02*
X125670074Y-100567750D01*
X125670074Y-100567750D02*
X125812931Y-100520131D01*
X125812931Y-100520131D02*
X125908169Y-100520131D01*
X125908169Y-100520131D02*
X126051026Y-100567750D01*
X126051026Y-100567750D02*
X126098645Y-100615369D01*
X126431979Y-100520131D02*
X127098645Y-100520131D01*
X127098645Y-100520131D02*
X126670074Y-101520131D01*
X141775714Y-78732295D02*
X141509047Y-78351342D01*
X141318571Y-78732295D02*
X141318571Y-77932295D01*
X141318571Y-77932295D02*
X141623333Y-77932295D01*
X141623333Y-77932295D02*
X141699523Y-77970390D01*
X141699523Y-77970390D02*
X141737618Y-78008485D01*
X141737618Y-78008485D02*
X141775714Y-78084676D01*
X141775714Y-78084676D02*
X141775714Y-78198961D01*
X141775714Y-78198961D02*
X141737618Y-78275152D01*
X141737618Y-78275152D02*
X141699523Y-78313247D01*
X141699523Y-78313247D02*
X141623333Y-78351342D01*
X141623333Y-78351342D02*
X141318571Y-78351342D01*
X142537618Y-78732295D02*
X142080475Y-78732295D01*
X142309047Y-78732295D02*
X142309047Y-77932295D01*
X142309047Y-77932295D02*
X142232856Y-78046580D01*
X142232856Y-78046580D02*
X142156666Y-78122771D01*
X142156666Y-78122771D02*
X142080475Y-78160866D01*
X143032857Y-77932295D02*
X143109047Y-77932295D01*
X143109047Y-77932295D02*
X143185238Y-77970390D01*
X143185238Y-77970390D02*
X143223333Y-78008485D01*
X143223333Y-78008485D02*
X143261428Y-78084676D01*
X143261428Y-78084676D02*
X143299523Y-78237057D01*
X143299523Y-78237057D02*
X143299523Y-78427533D01*
X143299523Y-78427533D02*
X143261428Y-78579914D01*
X143261428Y-78579914D02*
X143223333Y-78656104D01*
X143223333Y-78656104D02*
X143185238Y-78694200D01*
X143185238Y-78694200D02*
X143109047Y-78732295D01*
X143109047Y-78732295D02*
X143032857Y-78732295D01*
X143032857Y-78732295D02*
X142956666Y-78694200D01*
X142956666Y-78694200D02*
X142918571Y-78656104D01*
X142918571Y-78656104D02*
X142880476Y-78579914D01*
X142880476Y-78579914D02*
X142842380Y-78427533D01*
X142842380Y-78427533D02*
X142842380Y-78237057D01*
X142842380Y-78237057D02*
X142880476Y-78084676D01*
X142880476Y-78084676D02*
X142918571Y-78008485D01*
X142918571Y-78008485D02*
X142956666Y-77970390D01*
X142956666Y-77970390D02*
X143032857Y-77932295D01*
X142262295Y-88033333D02*
X142262295Y-88414285D01*
X142262295Y-88414285D02*
X141462295Y-88414285D01*
X141538485Y-87804762D02*
X141500390Y-87766666D01*
X141500390Y-87766666D02*
X141462295Y-87690476D01*
X141462295Y-87690476D02*
X141462295Y-87500000D01*
X141462295Y-87500000D02*
X141500390Y-87423809D01*
X141500390Y-87423809D02*
X141538485Y-87385714D01*
X141538485Y-87385714D02*
X141614676Y-87347619D01*
X141614676Y-87347619D02*
X141690866Y-87347619D01*
X141690866Y-87347619D02*
X141805152Y-87385714D01*
X141805152Y-87385714D02*
X142262295Y-87842857D01*
X142262295Y-87842857D02*
X142262295Y-87347619D01*
X138083333Y-87579580D02*
X138035714Y-87627200D01*
X138035714Y-87627200D02*
X137892857Y-87674819D01*
X137892857Y-87674819D02*
X137797619Y-87674819D01*
X137797619Y-87674819D02*
X137654762Y-87627200D01*
X137654762Y-87627200D02*
X137559524Y-87531961D01*
X137559524Y-87531961D02*
X137511905Y-87436723D01*
X137511905Y-87436723D02*
X137464286Y-87246247D01*
X137464286Y-87246247D02*
X137464286Y-87103390D01*
X137464286Y-87103390D02*
X137511905Y-86912914D01*
X137511905Y-86912914D02*
X137559524Y-86817676D01*
X137559524Y-86817676D02*
X137654762Y-86722438D01*
X137654762Y-86722438D02*
X137797619Y-86674819D01*
X137797619Y-86674819D02*
X137892857Y-86674819D01*
X137892857Y-86674819D02*
X138035714Y-86722438D01*
X138035714Y-86722438D02*
X138083333Y-86770057D01*
X138940476Y-87008152D02*
X138940476Y-87674819D01*
X138702381Y-86627200D02*
X138464286Y-87341485D01*
X138464286Y-87341485D02*
X139083333Y-87341485D01*
X142766667Y-85962295D02*
X142500000Y-85581342D01*
X142309524Y-85962295D02*
X142309524Y-85162295D01*
X142309524Y-85162295D02*
X142614286Y-85162295D01*
X142614286Y-85162295D02*
X142690476Y-85200390D01*
X142690476Y-85200390D02*
X142728571Y-85238485D01*
X142728571Y-85238485D02*
X142766667Y-85314676D01*
X142766667Y-85314676D02*
X142766667Y-85428961D01*
X142766667Y-85428961D02*
X142728571Y-85505152D01*
X142728571Y-85505152D02*
X142690476Y-85543247D01*
X142690476Y-85543247D02*
X142614286Y-85581342D01*
X142614286Y-85581342D02*
X142309524Y-85581342D01*
X143147619Y-85962295D02*
X143300000Y-85962295D01*
X143300000Y-85962295D02*
X143376190Y-85924200D01*
X143376190Y-85924200D02*
X143414286Y-85886104D01*
X143414286Y-85886104D02*
X143490476Y-85771819D01*
X143490476Y-85771819D02*
X143528571Y-85619438D01*
X143528571Y-85619438D02*
X143528571Y-85314676D01*
X143528571Y-85314676D02*
X143490476Y-85238485D01*
X143490476Y-85238485D02*
X143452381Y-85200390D01*
X143452381Y-85200390D02*
X143376190Y-85162295D01*
X143376190Y-85162295D02*
X143223809Y-85162295D01*
X143223809Y-85162295D02*
X143147619Y-85200390D01*
X143147619Y-85200390D02*
X143109524Y-85238485D01*
X143109524Y-85238485D02*
X143071428Y-85314676D01*
X143071428Y-85314676D02*
X143071428Y-85505152D01*
X143071428Y-85505152D02*
X143109524Y-85581342D01*
X143109524Y-85581342D02*
X143147619Y-85619438D01*
X143147619Y-85619438D02*
X143223809Y-85657533D01*
X143223809Y-85657533D02*
X143376190Y-85657533D01*
X143376190Y-85657533D02*
X143452381Y-85619438D01*
X143452381Y-85619438D02*
X143490476Y-85581342D01*
X143490476Y-85581342D02*
X143528571Y-85505152D01*
X129866667Y-87232295D02*
X129600000Y-86851342D01*
X129409524Y-87232295D02*
X129409524Y-86432295D01*
X129409524Y-86432295D02*
X129714286Y-86432295D01*
X129714286Y-86432295D02*
X129790476Y-86470390D01*
X129790476Y-86470390D02*
X129828571Y-86508485D01*
X129828571Y-86508485D02*
X129866667Y-86584676D01*
X129866667Y-86584676D02*
X129866667Y-86698961D01*
X129866667Y-86698961D02*
X129828571Y-86775152D01*
X129828571Y-86775152D02*
X129790476Y-86813247D01*
X129790476Y-86813247D02*
X129714286Y-86851342D01*
X129714286Y-86851342D02*
X129409524Y-86851342D01*
X130552381Y-86698961D02*
X130552381Y-87232295D01*
X130361905Y-86394200D02*
X130171428Y-86965628D01*
X130171428Y-86965628D02*
X130666667Y-86965628D01*
X111136740Y-85578559D02*
X111251026Y-85616654D01*
X111251026Y-85616654D02*
X111289121Y-85654750D01*
X111289121Y-85654750D02*
X111327217Y-85730940D01*
X111327217Y-85730940D02*
X111327217Y-85845226D01*
X111327217Y-85845226D02*
X111289121Y-85921416D01*
X111289121Y-85921416D02*
X111251026Y-85959512D01*
X111251026Y-85959512D02*
X111174836Y-85997607D01*
X111174836Y-85997607D02*
X110870074Y-85997607D01*
X110870074Y-85997607D02*
X110870074Y-85197607D01*
X110870074Y-85197607D02*
X111136740Y-85197607D01*
X111136740Y-85197607D02*
X111212931Y-85235702D01*
X111212931Y-85235702D02*
X111251026Y-85273797D01*
X111251026Y-85273797D02*
X111289121Y-85349988D01*
X111289121Y-85349988D02*
X111289121Y-85426178D01*
X111289121Y-85426178D02*
X111251026Y-85502369D01*
X111251026Y-85502369D02*
X111212931Y-85540464D01*
X111212931Y-85540464D02*
X111136740Y-85578559D01*
X111136740Y-85578559D02*
X110870074Y-85578559D01*
X111555788Y-85197607D02*
X112012931Y-85197607D01*
X111784359Y-85997607D02*
X111784359Y-85197607D01*
X112698645Y-85997607D02*
X112241502Y-85997607D01*
X112470074Y-85997607D02*
X112470074Y-85197607D01*
X112470074Y-85197607D02*
X112393883Y-85311892D01*
X112393883Y-85311892D02*
X112317693Y-85388083D01*
X112317693Y-85388083D02*
X112241502Y-85426178D01*
X141392142Y-102809819D02*
X141058809Y-102333628D01*
X140820714Y-102809819D02*
X140820714Y-101809819D01*
X140820714Y-101809819D02*
X141201666Y-101809819D01*
X141201666Y-101809819D02*
X141296904Y-101857438D01*
X141296904Y-101857438D02*
X141344523Y-101905057D01*
X141344523Y-101905057D02*
X141392142Y-102000295D01*
X141392142Y-102000295D02*
X141392142Y-102143152D01*
X141392142Y-102143152D02*
X141344523Y-102238390D01*
X141344523Y-102238390D02*
X141296904Y-102286009D01*
X141296904Y-102286009D02*
X141201666Y-102333628D01*
X141201666Y-102333628D02*
X140820714Y-102333628D01*
X142344523Y-102809819D02*
X141773095Y-102809819D01*
X142058809Y-102809819D02*
X142058809Y-101809819D01*
X142058809Y-101809819D02*
X141963571Y-101952676D01*
X141963571Y-101952676D02*
X141868333Y-102047914D01*
X141868333Y-102047914D02*
X141773095Y-102095533D01*
X142915952Y-102238390D02*
X142820714Y-102190771D01*
X142820714Y-102190771D02*
X142773095Y-102143152D01*
X142773095Y-102143152D02*
X142725476Y-102047914D01*
X142725476Y-102047914D02*
X142725476Y-102000295D01*
X142725476Y-102000295D02*
X142773095Y-101905057D01*
X142773095Y-101905057D02*
X142820714Y-101857438D01*
X142820714Y-101857438D02*
X142915952Y-101809819D01*
X142915952Y-101809819D02*
X143106428Y-101809819D01*
X143106428Y-101809819D02*
X143201666Y-101857438D01*
X143201666Y-101857438D02*
X143249285Y-101905057D01*
X143249285Y-101905057D02*
X143296904Y-102000295D01*
X143296904Y-102000295D02*
X143296904Y-102047914D01*
X143296904Y-102047914D02*
X143249285Y-102143152D01*
X143249285Y-102143152D02*
X143201666Y-102190771D01*
X143201666Y-102190771D02*
X143106428Y-102238390D01*
X143106428Y-102238390D02*
X142915952Y-102238390D01*
X142915952Y-102238390D02*
X142820714Y-102286009D01*
X142820714Y-102286009D02*
X142773095Y-102333628D01*
X142773095Y-102333628D02*
X142725476Y-102428866D01*
X142725476Y-102428866D02*
X142725476Y-102619342D01*
X142725476Y-102619342D02*
X142773095Y-102714580D01*
X142773095Y-102714580D02*
X142820714Y-102762200D01*
X142820714Y-102762200D02*
X142915952Y-102809819D01*
X142915952Y-102809819D02*
X143106428Y-102809819D01*
X143106428Y-102809819D02*
X143201666Y-102762200D01*
X143201666Y-102762200D02*
X143249285Y-102714580D01*
X143249285Y-102714580D02*
X143296904Y-102619342D01*
X143296904Y-102619342D02*
X143296904Y-102428866D01*
X143296904Y-102428866D02*
X143249285Y-102333628D01*
X143249285Y-102333628D02*
X143201666Y-102286009D01*
X143201666Y-102286009D02*
X143106428Y-102238390D01*
X133720714Y-107008604D02*
X133682618Y-107046700D01*
X133682618Y-107046700D02*
X133568333Y-107084795D01*
X133568333Y-107084795D02*
X133492142Y-107084795D01*
X133492142Y-107084795D02*
X133377856Y-107046700D01*
X133377856Y-107046700D02*
X133301666Y-106970509D01*
X133301666Y-106970509D02*
X133263571Y-106894319D01*
X133263571Y-106894319D02*
X133225475Y-106741938D01*
X133225475Y-106741938D02*
X133225475Y-106627652D01*
X133225475Y-106627652D02*
X133263571Y-106475271D01*
X133263571Y-106475271D02*
X133301666Y-106399080D01*
X133301666Y-106399080D02*
X133377856Y-106322890D01*
X133377856Y-106322890D02*
X133492142Y-106284795D01*
X133492142Y-106284795D02*
X133568333Y-106284795D01*
X133568333Y-106284795D02*
X133682618Y-106322890D01*
X133682618Y-106322890D02*
X133720714Y-106360985D01*
X134482618Y-107084795D02*
X134025475Y-107084795D01*
X134254047Y-107084795D02*
X134254047Y-106284795D01*
X134254047Y-106284795D02*
X134177856Y-106399080D01*
X134177856Y-106399080D02*
X134101666Y-106475271D01*
X134101666Y-106475271D02*
X134025475Y-106513366D01*
X135168333Y-106551461D02*
X135168333Y-107084795D01*
X134977857Y-106246700D02*
X134787380Y-106818128D01*
X134787380Y-106818128D02*
X135282619Y-106818128D01*
X120055595Y-81454819D02*
X120055595Y-82264342D01*
X120055595Y-82264342D02*
X120103214Y-82359580D01*
X120103214Y-82359580D02*
X120150833Y-82407200D01*
X120150833Y-82407200D02*
X120246071Y-82454819D01*
X120246071Y-82454819D02*
X120436547Y-82454819D01*
X120436547Y-82454819D02*
X120531785Y-82407200D01*
X120531785Y-82407200D02*
X120579404Y-82359580D01*
X120579404Y-82359580D02*
X120627023Y-82264342D01*
X120627023Y-82264342D02*
X120627023Y-81454819D01*
X121007976Y-81454819D02*
X121627023Y-81454819D01*
X121627023Y-81454819D02*
X121293690Y-81835771D01*
X121293690Y-81835771D02*
X121436547Y-81835771D01*
X121436547Y-81835771D02*
X121531785Y-81883390D01*
X121531785Y-81883390D02*
X121579404Y-81931009D01*
X121579404Y-81931009D02*
X121627023Y-82026247D01*
X121627023Y-82026247D02*
X121627023Y-82264342D01*
X121627023Y-82264342D02*
X121579404Y-82359580D01*
X121579404Y-82359580D02*
X121531785Y-82407200D01*
X121531785Y-82407200D02*
X121436547Y-82454819D01*
X121436547Y-82454819D02*
X121150833Y-82454819D01*
X121150833Y-82454819D02*
X121055595Y-82407200D01*
X121055595Y-82407200D02*
X121007976Y-82359580D01*
X129759121Y-90338485D02*
X129682931Y-90300390D01*
X129682931Y-90300390D02*
X129606740Y-90224200D01*
X129606740Y-90224200D02*
X129492454Y-90109914D01*
X129492454Y-90109914D02*
X129416264Y-90071819D01*
X129416264Y-90071819D02*
X129340073Y-90071819D01*
X129378169Y-90262295D02*
X129301978Y-90224200D01*
X129301978Y-90224200D02*
X129225788Y-90148009D01*
X129225788Y-90148009D02*
X129187692Y-89995628D01*
X129187692Y-89995628D02*
X129187692Y-89728961D01*
X129187692Y-89728961D02*
X129225788Y-89576580D01*
X129225788Y-89576580D02*
X129301978Y-89500390D01*
X129301978Y-89500390D02*
X129378169Y-89462295D01*
X129378169Y-89462295D02*
X129530550Y-89462295D01*
X129530550Y-89462295D02*
X129606740Y-89500390D01*
X129606740Y-89500390D02*
X129682931Y-89576580D01*
X129682931Y-89576580D02*
X129721026Y-89728961D01*
X129721026Y-89728961D02*
X129721026Y-89995628D01*
X129721026Y-89995628D02*
X129682931Y-90148009D01*
X129682931Y-90148009D02*
X129606740Y-90224200D01*
X129606740Y-90224200D02*
X129530550Y-90262295D01*
X129530550Y-90262295D02*
X129378169Y-90262295D01*
X130482930Y-90262295D02*
X130025787Y-90262295D01*
X130254359Y-90262295D02*
X130254359Y-89462295D01*
X130254359Y-89462295D02*
X130178168Y-89576580D01*
X130178168Y-89576580D02*
X130101978Y-89652771D01*
X130101978Y-89652771D02*
X130025787Y-89690866D01*
X112731978Y-101280131D02*
X112731978Y-101994416D01*
X112731978Y-101994416D02*
X112684359Y-102137273D01*
X112684359Y-102137273D02*
X112589121Y-102232512D01*
X112589121Y-102232512D02*
X112446264Y-102280131D01*
X112446264Y-102280131D02*
X112351026Y-102280131D01*
X113160550Y-101375369D02*
X113208169Y-101327750D01*
X113208169Y-101327750D02*
X113303407Y-101280131D01*
X113303407Y-101280131D02*
X113541502Y-101280131D01*
X113541502Y-101280131D02*
X113636740Y-101327750D01*
X113636740Y-101327750D02*
X113684359Y-101375369D01*
X113684359Y-101375369D02*
X113731978Y-101470607D01*
X113731978Y-101470607D02*
X113731978Y-101565845D01*
X113731978Y-101565845D02*
X113684359Y-101708702D01*
X113684359Y-101708702D02*
X113112931Y-102280131D01*
X113112931Y-102280131D02*
X113731978Y-102280131D01*
X124960476Y-110737295D02*
X124960476Y-111384914D01*
X124960476Y-111384914D02*
X124998571Y-111461104D01*
X124998571Y-111461104D02*
X125036666Y-111499200D01*
X125036666Y-111499200D02*
X125112857Y-111537295D01*
X125112857Y-111537295D02*
X125265238Y-111537295D01*
X125265238Y-111537295D02*
X125341428Y-111499200D01*
X125341428Y-111499200D02*
X125379523Y-111461104D01*
X125379523Y-111461104D02*
X125417619Y-111384914D01*
X125417619Y-111384914D02*
X125417619Y-110737295D01*
X126141428Y-111003961D02*
X126141428Y-111537295D01*
X125950952Y-110699200D02*
X125760475Y-111270628D01*
X125760475Y-111270628D02*
X126255714Y-111270628D01*
X122004580Y-103742857D02*
X122052200Y-103790476D01*
X122052200Y-103790476D02*
X122099819Y-103933333D01*
X122099819Y-103933333D02*
X122099819Y-104028571D01*
X122099819Y-104028571D02*
X122052200Y-104171428D01*
X122052200Y-104171428D02*
X121956961Y-104266666D01*
X121956961Y-104266666D02*
X121861723Y-104314285D01*
X121861723Y-104314285D02*
X121671247Y-104361904D01*
X121671247Y-104361904D02*
X121528390Y-104361904D01*
X121528390Y-104361904D02*
X121337914Y-104314285D01*
X121337914Y-104314285D02*
X121242676Y-104266666D01*
X121242676Y-104266666D02*
X121147438Y-104171428D01*
X121147438Y-104171428D02*
X121099819Y-104028571D01*
X121099819Y-104028571D02*
X121099819Y-103933333D01*
X121099819Y-103933333D02*
X121147438Y-103790476D01*
X121147438Y-103790476D02*
X121195057Y-103742857D01*
X122099819Y-102790476D02*
X122099819Y-103361904D01*
X122099819Y-103076190D02*
X121099819Y-103076190D01*
X121099819Y-103076190D02*
X121242676Y-103171428D01*
X121242676Y-103171428D02*
X121337914Y-103266666D01*
X121337914Y-103266666D02*
X121385533Y-103361904D01*
X122099819Y-101838095D02*
X122099819Y-102409523D01*
X122099819Y-102123809D02*
X121099819Y-102123809D01*
X121099819Y-102123809D02*
X121242676Y-102219047D01*
X121242676Y-102219047D02*
X121337914Y-102314285D01*
X121337914Y-102314285D02*
X121385533Y-102409523D01*
X126824819Y-80682857D02*
X126348628Y-81016190D01*
X126824819Y-81254285D02*
X125824819Y-81254285D01*
X125824819Y-81254285D02*
X125824819Y-80873333D01*
X125824819Y-80873333D02*
X125872438Y-80778095D01*
X125872438Y-80778095D02*
X125920057Y-80730476D01*
X125920057Y-80730476D02*
X126015295Y-80682857D01*
X126015295Y-80682857D02*
X126158152Y-80682857D01*
X126158152Y-80682857D02*
X126253390Y-80730476D01*
X126253390Y-80730476D02*
X126301009Y-80778095D01*
X126301009Y-80778095D02*
X126348628Y-80873333D01*
X126348628Y-80873333D02*
X126348628Y-81254285D01*
X126824819Y-79730476D02*
X126824819Y-80301904D01*
X126824819Y-80016190D02*
X125824819Y-80016190D01*
X125824819Y-80016190D02*
X125967676Y-80111428D01*
X125967676Y-80111428D02*
X126062914Y-80206666D01*
X126062914Y-80206666D02*
X126110533Y-80301904D01*
X125920057Y-79349523D02*
X125872438Y-79301904D01*
X125872438Y-79301904D02*
X125824819Y-79206666D01*
X125824819Y-79206666D02*
X125824819Y-78968571D01*
X125824819Y-78968571D02*
X125872438Y-78873333D01*
X125872438Y-78873333D02*
X125920057Y-78825714D01*
X125920057Y-78825714D02*
X126015295Y-78778095D01*
X126015295Y-78778095D02*
X126110533Y-78778095D01*
X126110533Y-78778095D02*
X126253390Y-78825714D01*
X126253390Y-78825714D02*
X126824819Y-79397142D01*
X126824819Y-79397142D02*
X126824819Y-78778095D01*
X118399479Y-97511416D02*
X118361383Y-97549512D01*
X118361383Y-97549512D02*
X118247098Y-97587607D01*
X118247098Y-97587607D02*
X118170907Y-97587607D01*
X118170907Y-97587607D02*
X118056621Y-97549512D01*
X118056621Y-97549512D02*
X117980431Y-97473321D01*
X117980431Y-97473321D02*
X117942336Y-97397131D01*
X117942336Y-97397131D02*
X117904240Y-97244750D01*
X117904240Y-97244750D02*
X117904240Y-97130464D01*
X117904240Y-97130464D02*
X117942336Y-96978083D01*
X117942336Y-96978083D02*
X117980431Y-96901892D01*
X117980431Y-96901892D02*
X118056621Y-96825702D01*
X118056621Y-96825702D02*
X118170907Y-96787607D01*
X118170907Y-96787607D02*
X118247098Y-96787607D01*
X118247098Y-96787607D02*
X118361383Y-96825702D01*
X118361383Y-96825702D02*
X118399479Y-96863797D01*
X118780431Y-97587607D02*
X118932812Y-97587607D01*
X118932812Y-97587607D02*
X119009002Y-97549512D01*
X119009002Y-97549512D02*
X119047098Y-97511416D01*
X119047098Y-97511416D02*
X119123288Y-97397131D01*
X119123288Y-97397131D02*
X119161383Y-97244750D01*
X119161383Y-97244750D02*
X119161383Y-96939988D01*
X119161383Y-96939988D02*
X119123288Y-96863797D01*
X119123288Y-96863797D02*
X119085193Y-96825702D01*
X119085193Y-96825702D02*
X119009002Y-96787607D01*
X119009002Y-96787607D02*
X118856621Y-96787607D01*
X118856621Y-96787607D02*
X118780431Y-96825702D01*
X118780431Y-96825702D02*
X118742336Y-96863797D01*
X118742336Y-96863797D02*
X118704240Y-96939988D01*
X118704240Y-96939988D02*
X118704240Y-97130464D01*
X118704240Y-97130464D02*
X118742336Y-97206654D01*
X118742336Y-97206654D02*
X118780431Y-97244750D01*
X118780431Y-97244750D02*
X118856621Y-97282845D01*
X118856621Y-97282845D02*
X119009002Y-97282845D01*
X119009002Y-97282845D02*
X119085193Y-97244750D01*
X119085193Y-97244750D02*
X119123288Y-97206654D01*
X119123288Y-97206654D02*
X119161383Y-97130464D01*
X127339479Y-86647607D02*
X127072812Y-86266654D01*
X126882336Y-86647607D02*
X126882336Y-85847607D01*
X126882336Y-85847607D02*
X127187098Y-85847607D01*
X127187098Y-85847607D02*
X127263288Y-85885702D01*
X127263288Y-85885702D02*
X127301383Y-85923797D01*
X127301383Y-85923797D02*
X127339479Y-85999988D01*
X127339479Y-85999988D02*
X127339479Y-86114273D01*
X127339479Y-86114273D02*
X127301383Y-86190464D01*
X127301383Y-86190464D02*
X127263288Y-86228559D01*
X127263288Y-86228559D02*
X127187098Y-86266654D01*
X127187098Y-86266654D02*
X126882336Y-86266654D01*
X128063288Y-85847607D02*
X127682336Y-85847607D01*
X127682336Y-85847607D02*
X127644240Y-86228559D01*
X127644240Y-86228559D02*
X127682336Y-86190464D01*
X127682336Y-86190464D02*
X127758526Y-86152369D01*
X127758526Y-86152369D02*
X127949002Y-86152369D01*
X127949002Y-86152369D02*
X128025193Y-86190464D01*
X128025193Y-86190464D02*
X128063288Y-86228559D01*
X128063288Y-86228559D02*
X128101383Y-86304750D01*
X128101383Y-86304750D02*
X128101383Y-86495226D01*
X128101383Y-86495226D02*
X128063288Y-86571416D01*
X128063288Y-86571416D02*
X128025193Y-86609512D01*
X128025193Y-86609512D02*
X127949002Y-86647607D01*
X127949002Y-86647607D02*
X127758526Y-86647607D01*
X127758526Y-86647607D02*
X127682336Y-86609512D01*
X127682336Y-86609512D02*
X127644240Y-86571416D01*
X142323809Y-79838485D02*
X142247619Y-79800390D01*
X142247619Y-79800390D02*
X142171428Y-79724200D01*
X142171428Y-79724200D02*
X142057142Y-79609914D01*
X142057142Y-79609914D02*
X141980952Y-79571819D01*
X141980952Y-79571819D02*
X141904761Y-79571819D01*
X141942857Y-79762295D02*
X141866666Y-79724200D01*
X141866666Y-79724200D02*
X141790476Y-79648009D01*
X141790476Y-79648009D02*
X141752380Y-79495628D01*
X141752380Y-79495628D02*
X141752380Y-79228961D01*
X141752380Y-79228961D02*
X141790476Y-79076580D01*
X141790476Y-79076580D02*
X141866666Y-79000390D01*
X141866666Y-79000390D02*
X141942857Y-78962295D01*
X141942857Y-78962295D02*
X142095238Y-78962295D01*
X142095238Y-78962295D02*
X142171428Y-79000390D01*
X142171428Y-79000390D02*
X142247619Y-79076580D01*
X142247619Y-79076580D02*
X142285714Y-79228961D01*
X142285714Y-79228961D02*
X142285714Y-79495628D01*
X142285714Y-79495628D02*
X142247619Y-79648009D01*
X142247619Y-79648009D02*
X142171428Y-79724200D01*
X142171428Y-79724200D02*
X142095238Y-79762295D01*
X142095238Y-79762295D02*
X141942857Y-79762295D01*
X142590475Y-79038485D02*
X142628571Y-79000390D01*
X142628571Y-79000390D02*
X142704761Y-78962295D01*
X142704761Y-78962295D02*
X142895237Y-78962295D01*
X142895237Y-78962295D02*
X142971428Y-79000390D01*
X142971428Y-79000390D02*
X143009523Y-79038485D01*
X143009523Y-79038485D02*
X143047618Y-79114676D01*
X143047618Y-79114676D02*
X143047618Y-79190866D01*
X143047618Y-79190866D02*
X143009523Y-79305152D01*
X143009523Y-79305152D02*
X142552380Y-79762295D01*
X142552380Y-79762295D02*
X143047618Y-79762295D01*
X144774405Y-79254819D02*
X144774405Y-78254819D01*
X144774405Y-78254819D02*
X145012500Y-78254819D01*
X145012500Y-78254819D02*
X145155357Y-78302438D01*
X145155357Y-78302438D02*
X145250595Y-78397676D01*
X145250595Y-78397676D02*
X145298214Y-78492914D01*
X145298214Y-78492914D02*
X145345833Y-78683390D01*
X145345833Y-78683390D02*
X145345833Y-78826247D01*
X145345833Y-78826247D02*
X145298214Y-79016723D01*
X145298214Y-79016723D02*
X145250595Y-79111961D01*
X145250595Y-79111961D02*
X145155357Y-79207200D01*
X145155357Y-79207200D02*
X145012500Y-79254819D01*
X145012500Y-79254819D02*
X144774405Y-79254819D01*
X145679167Y-78254819D02*
X146298214Y-78254819D01*
X146298214Y-78254819D02*
X145964881Y-78635771D01*
X145964881Y-78635771D02*
X146107738Y-78635771D01*
X146107738Y-78635771D02*
X146202976Y-78683390D01*
X146202976Y-78683390D02*
X146250595Y-78731009D01*
X146250595Y-78731009D02*
X146298214Y-78826247D01*
X146298214Y-78826247D02*
X146298214Y-79064342D01*
X146298214Y-79064342D02*
X146250595Y-79159580D01*
X146250595Y-79159580D02*
X146202976Y-79207200D01*
X146202976Y-79207200D02*
X146107738Y-79254819D01*
X146107738Y-79254819D02*
X145822024Y-79254819D01*
X145822024Y-79254819D02*
X145726786Y-79207200D01*
X145726786Y-79207200D02*
X145679167Y-79159580D01*
X120107142Y-74904819D02*
X119773809Y-74428628D01*
X119535714Y-74904819D02*
X119535714Y-73904819D01*
X119535714Y-73904819D02*
X119916666Y-73904819D01*
X119916666Y-73904819D02*
X120011904Y-73952438D01*
X120011904Y-73952438D02*
X120059523Y-74000057D01*
X120059523Y-74000057D02*
X120107142Y-74095295D01*
X120107142Y-74095295D02*
X120107142Y-74238152D01*
X120107142Y-74238152D02*
X120059523Y-74333390D01*
X120059523Y-74333390D02*
X120011904Y-74381009D01*
X120011904Y-74381009D02*
X119916666Y-74428628D01*
X119916666Y-74428628D02*
X119535714Y-74428628D01*
X121059523Y-74904819D02*
X120488095Y-74904819D01*
X120773809Y-74904819D02*
X120773809Y-73904819D01*
X120773809Y-73904819D02*
X120678571Y-74047676D01*
X120678571Y-74047676D02*
X120583333Y-74142914D01*
X120583333Y-74142914D02*
X120488095Y-74190533D01*
X122011904Y-74904819D02*
X121440476Y-74904819D01*
X121726190Y-74904819D02*
X121726190Y-73904819D01*
X121726190Y-73904819D02*
X121630952Y-74047676D01*
X121630952Y-74047676D02*
X121535714Y-74142914D01*
X121535714Y-74142914D02*
X121440476Y-74190533D01*
X144373095Y-106834819D02*
X144373095Y-107644342D01*
X144373095Y-107644342D02*
X144420714Y-107739580D01*
X144420714Y-107739580D02*
X144468333Y-107787200D01*
X144468333Y-107787200D02*
X144563571Y-107834819D01*
X144563571Y-107834819D02*
X144754047Y-107834819D01*
X144754047Y-107834819D02*
X144849285Y-107787200D01*
X144849285Y-107787200D02*
X144896904Y-107739580D01*
X144896904Y-107739580D02*
X144944523Y-107644342D01*
X144944523Y-107644342D02*
X144944523Y-106834819D01*
X145896904Y-106834819D02*
X145420714Y-106834819D01*
X145420714Y-106834819D02*
X145373095Y-107311009D01*
X145373095Y-107311009D02*
X145420714Y-107263390D01*
X145420714Y-107263390D02*
X145515952Y-107215771D01*
X145515952Y-107215771D02*
X145754047Y-107215771D01*
X145754047Y-107215771D02*
X145849285Y-107263390D01*
X145849285Y-107263390D02*
X145896904Y-107311009D01*
X145896904Y-107311009D02*
X145944523Y-107406247D01*
X145944523Y-107406247D02*
X145944523Y-107644342D01*
X145944523Y-107644342D02*
X145896904Y-107739580D01*
X145896904Y-107739580D02*
X145849285Y-107787200D01*
X145849285Y-107787200D02*
X145754047Y-107834819D01*
X145754047Y-107834819D02*
X145515952Y-107834819D01*
X145515952Y-107834819D02*
X145420714Y-107787200D01*
X145420714Y-107787200D02*
X145373095Y-107739580D01*
X106548645Y-104690131D02*
X106215312Y-104213940D01*
X105977217Y-104690131D02*
X105977217Y-103690131D01*
X105977217Y-103690131D02*
X106358169Y-103690131D01*
X106358169Y-103690131D02*
X106453407Y-103737750D01*
X106453407Y-103737750D02*
X106501026Y-103785369D01*
X106501026Y-103785369D02*
X106548645Y-103880607D01*
X106548645Y-103880607D02*
X106548645Y-104023464D01*
X106548645Y-104023464D02*
X106501026Y-104118702D01*
X106501026Y-104118702D02*
X106453407Y-104166321D01*
X106453407Y-104166321D02*
X106358169Y-104213940D01*
X106358169Y-104213940D02*
X105977217Y-104213940D01*
X107120074Y-104118702D02*
X107024836Y-104071083D01*
X107024836Y-104071083D02*
X106977217Y-104023464D01*
X106977217Y-104023464D02*
X106929598Y-103928226D01*
X106929598Y-103928226D02*
X106929598Y-103880607D01*
X106929598Y-103880607D02*
X106977217Y-103785369D01*
X106977217Y-103785369D02*
X107024836Y-103737750D01*
X107024836Y-103737750D02*
X107120074Y-103690131D01*
X107120074Y-103690131D02*
X107310550Y-103690131D01*
X107310550Y-103690131D02*
X107405788Y-103737750D01*
X107405788Y-103737750D02*
X107453407Y-103785369D01*
X107453407Y-103785369D02*
X107501026Y-103880607D01*
X107501026Y-103880607D02*
X107501026Y-103928226D01*
X107501026Y-103928226D02*
X107453407Y-104023464D01*
X107453407Y-104023464D02*
X107405788Y-104071083D01*
X107405788Y-104071083D02*
X107310550Y-104118702D01*
X107310550Y-104118702D02*
X107120074Y-104118702D01*
X107120074Y-104118702D02*
X107024836Y-104166321D01*
X107024836Y-104166321D02*
X106977217Y-104213940D01*
X106977217Y-104213940D02*
X106929598Y-104309178D01*
X106929598Y-104309178D02*
X106929598Y-104499654D01*
X106929598Y-104499654D02*
X106977217Y-104594892D01*
X106977217Y-104594892D02*
X107024836Y-104642512D01*
X107024836Y-104642512D02*
X107120074Y-104690131D01*
X107120074Y-104690131D02*
X107310550Y-104690131D01*
X107310550Y-104690131D02*
X107405788Y-104642512D01*
X107405788Y-104642512D02*
X107453407Y-104594892D01*
X107453407Y-104594892D02*
X107501026Y-104499654D01*
X107501026Y-104499654D02*
X107501026Y-104309178D01*
X107501026Y-104309178D02*
X107453407Y-104213940D01*
X107453407Y-104213940D02*
X107405788Y-104166321D01*
X107405788Y-104166321D02*
X107310550Y-104118702D01*
X118766145Y-88930131D02*
X118432812Y-88453940D01*
X118194717Y-88930131D02*
X118194717Y-87930131D01*
X118194717Y-87930131D02*
X118575669Y-87930131D01*
X118575669Y-87930131D02*
X118670907Y-87977750D01*
X118670907Y-87977750D02*
X118718526Y-88025369D01*
X118718526Y-88025369D02*
X118766145Y-88120607D01*
X118766145Y-88120607D02*
X118766145Y-88263464D01*
X118766145Y-88263464D02*
X118718526Y-88358702D01*
X118718526Y-88358702D02*
X118670907Y-88406321D01*
X118670907Y-88406321D02*
X118575669Y-88453940D01*
X118575669Y-88453940D02*
X118194717Y-88453940D01*
X119718526Y-88930131D02*
X119147098Y-88930131D01*
X119432812Y-88930131D02*
X119432812Y-87930131D01*
X119432812Y-87930131D02*
X119337574Y-88072988D01*
X119337574Y-88072988D02*
X119242336Y-88168226D01*
X119242336Y-88168226D02*
X119147098Y-88215845D01*
X151322619Y-102608372D02*
X151589285Y-102608372D01*
X151703571Y-103027420D02*
X151322619Y-103027420D01*
X151322619Y-103027420D02*
X151322619Y-102227420D01*
X151322619Y-102227420D02*
X151703571Y-102227420D01*
X152465476Y-103027420D02*
X152008333Y-103027420D01*
X152236905Y-103027420D02*
X152236905Y-102227420D01*
X152236905Y-102227420D02*
X152160714Y-102341705D01*
X152160714Y-102341705D02*
X152084524Y-102417896D01*
X152084524Y-102417896D02*
X152008333Y-102455991D01*
X134570714Y-109508604D02*
X134532618Y-109546700D01*
X134532618Y-109546700D02*
X134418333Y-109584795D01*
X134418333Y-109584795D02*
X134342142Y-109584795D01*
X134342142Y-109584795D02*
X134227856Y-109546700D01*
X134227856Y-109546700D02*
X134151666Y-109470509D01*
X134151666Y-109470509D02*
X134113571Y-109394319D01*
X134113571Y-109394319D02*
X134075475Y-109241938D01*
X134075475Y-109241938D02*
X134075475Y-109127652D01*
X134075475Y-109127652D02*
X134113571Y-108975271D01*
X134113571Y-108975271D02*
X134151666Y-108899080D01*
X134151666Y-108899080D02*
X134227856Y-108822890D01*
X134227856Y-108822890D02*
X134342142Y-108784795D01*
X134342142Y-108784795D02*
X134418333Y-108784795D01*
X134418333Y-108784795D02*
X134532618Y-108822890D01*
X134532618Y-108822890D02*
X134570714Y-108860985D01*
X135332618Y-109584795D02*
X134875475Y-109584795D01*
X135104047Y-109584795D02*
X135104047Y-108784795D01*
X135104047Y-108784795D02*
X135027856Y-108899080D01*
X135027856Y-108899080D02*
X134951666Y-108975271D01*
X134951666Y-108975271D02*
X134875475Y-109013366D01*
X136056428Y-108784795D02*
X135675476Y-108784795D01*
X135675476Y-108784795D02*
X135637380Y-109165747D01*
X135637380Y-109165747D02*
X135675476Y-109127652D01*
X135675476Y-109127652D02*
X135751666Y-109089557D01*
X135751666Y-109089557D02*
X135942142Y-109089557D01*
X135942142Y-109089557D02*
X136018333Y-109127652D01*
X136018333Y-109127652D02*
X136056428Y-109165747D01*
X136056428Y-109165747D02*
X136094523Y-109241938D01*
X136094523Y-109241938D02*
X136094523Y-109432414D01*
X136094523Y-109432414D02*
X136056428Y-109508604D01*
X136056428Y-109508604D02*
X136018333Y-109546700D01*
X136018333Y-109546700D02*
X135942142Y-109584795D01*
X135942142Y-109584795D02*
X135751666Y-109584795D01*
X135751666Y-109584795D02*
X135675476Y-109546700D01*
X135675476Y-109546700D02*
X135637380Y-109508604D01*
X106248645Y-87614892D02*
X106201026Y-87662512D01*
X106201026Y-87662512D02*
X106058169Y-87710131D01*
X106058169Y-87710131D02*
X105962931Y-87710131D01*
X105962931Y-87710131D02*
X105820074Y-87662512D01*
X105820074Y-87662512D02*
X105724836Y-87567273D01*
X105724836Y-87567273D02*
X105677217Y-87472035D01*
X105677217Y-87472035D02*
X105629598Y-87281559D01*
X105629598Y-87281559D02*
X105629598Y-87138702D01*
X105629598Y-87138702D02*
X105677217Y-86948226D01*
X105677217Y-86948226D02*
X105724836Y-86852988D01*
X105724836Y-86852988D02*
X105820074Y-86757750D01*
X105820074Y-86757750D02*
X105962931Y-86710131D01*
X105962931Y-86710131D02*
X106058169Y-86710131D01*
X106058169Y-86710131D02*
X106201026Y-86757750D01*
X106201026Y-86757750D02*
X106248645Y-86805369D01*
X106820074Y-87138702D02*
X106724836Y-87091083D01*
X106724836Y-87091083D02*
X106677217Y-87043464D01*
X106677217Y-87043464D02*
X106629598Y-86948226D01*
X106629598Y-86948226D02*
X106629598Y-86900607D01*
X106629598Y-86900607D02*
X106677217Y-86805369D01*
X106677217Y-86805369D02*
X106724836Y-86757750D01*
X106724836Y-86757750D02*
X106820074Y-86710131D01*
X106820074Y-86710131D02*
X107010550Y-86710131D01*
X107010550Y-86710131D02*
X107105788Y-86757750D01*
X107105788Y-86757750D02*
X107153407Y-86805369D01*
X107153407Y-86805369D02*
X107201026Y-86900607D01*
X107201026Y-86900607D02*
X107201026Y-86948226D01*
X107201026Y-86948226D02*
X107153407Y-87043464D01*
X107153407Y-87043464D02*
X107105788Y-87091083D01*
X107105788Y-87091083D02*
X107010550Y-87138702D01*
X107010550Y-87138702D02*
X106820074Y-87138702D01*
X106820074Y-87138702D02*
X106724836Y-87186321D01*
X106724836Y-87186321D02*
X106677217Y-87233940D01*
X106677217Y-87233940D02*
X106629598Y-87329178D01*
X106629598Y-87329178D02*
X106629598Y-87519654D01*
X106629598Y-87519654D02*
X106677217Y-87614892D01*
X106677217Y-87614892D02*
X106724836Y-87662512D01*
X106724836Y-87662512D02*
X106820074Y-87710131D01*
X106820074Y-87710131D02*
X107010550Y-87710131D01*
X107010550Y-87710131D02*
X107105788Y-87662512D01*
X107105788Y-87662512D02*
X107153407Y-87614892D01*
X107153407Y-87614892D02*
X107201026Y-87519654D01*
X107201026Y-87519654D02*
X107201026Y-87329178D01*
X107201026Y-87329178D02*
X107153407Y-87233940D01*
X107153407Y-87233940D02*
X107105788Y-87186321D01*
X107105788Y-87186321D02*
X107010550Y-87138702D01*
X129366667Y-94386104D02*
X129328571Y-94424200D01*
X129328571Y-94424200D02*
X129214286Y-94462295D01*
X129214286Y-94462295D02*
X129138095Y-94462295D01*
X129138095Y-94462295D02*
X129023809Y-94424200D01*
X129023809Y-94424200D02*
X128947619Y-94348009D01*
X128947619Y-94348009D02*
X128909524Y-94271819D01*
X128909524Y-94271819D02*
X128871428Y-94119438D01*
X128871428Y-94119438D02*
X128871428Y-94005152D01*
X128871428Y-94005152D02*
X128909524Y-93852771D01*
X128909524Y-93852771D02*
X128947619Y-93776580D01*
X128947619Y-93776580D02*
X129023809Y-93700390D01*
X129023809Y-93700390D02*
X129138095Y-93662295D01*
X129138095Y-93662295D02*
X129214286Y-93662295D01*
X129214286Y-93662295D02*
X129328571Y-93700390D01*
X129328571Y-93700390D02*
X129366667Y-93738485D01*
X130090476Y-93662295D02*
X129709524Y-93662295D01*
X129709524Y-93662295D02*
X129671428Y-94043247D01*
X129671428Y-94043247D02*
X129709524Y-94005152D01*
X129709524Y-94005152D02*
X129785714Y-93967057D01*
X129785714Y-93967057D02*
X129976190Y-93967057D01*
X129976190Y-93967057D02*
X130052381Y-94005152D01*
X130052381Y-94005152D02*
X130090476Y-94043247D01*
X130090476Y-94043247D02*
X130128571Y-94119438D01*
X130128571Y-94119438D02*
X130128571Y-94309914D01*
X130128571Y-94309914D02*
X130090476Y-94386104D01*
X130090476Y-94386104D02*
X130052381Y-94424200D01*
X130052381Y-94424200D02*
X129976190Y-94462295D01*
X129976190Y-94462295D02*
X129785714Y-94462295D01*
X129785714Y-94462295D02*
X129709524Y-94424200D01*
X129709524Y-94424200D02*
X129671428Y-94386104D01*
X144092142Y-102809819D02*
X143758809Y-102333628D01*
X143520714Y-102809819D02*
X143520714Y-101809819D01*
X143520714Y-101809819D02*
X143901666Y-101809819D01*
X143901666Y-101809819D02*
X143996904Y-101857438D01*
X143996904Y-101857438D02*
X144044523Y-101905057D01*
X144044523Y-101905057D02*
X144092142Y-102000295D01*
X144092142Y-102000295D02*
X144092142Y-102143152D01*
X144092142Y-102143152D02*
X144044523Y-102238390D01*
X144044523Y-102238390D02*
X143996904Y-102286009D01*
X143996904Y-102286009D02*
X143901666Y-102333628D01*
X143901666Y-102333628D02*
X143520714Y-102333628D01*
X145044523Y-102809819D02*
X144473095Y-102809819D01*
X144758809Y-102809819D02*
X144758809Y-101809819D01*
X144758809Y-101809819D02*
X144663571Y-101952676D01*
X144663571Y-101952676D02*
X144568333Y-102047914D01*
X144568333Y-102047914D02*
X144473095Y-102095533D01*
X145520714Y-102809819D02*
X145711190Y-102809819D01*
X145711190Y-102809819D02*
X145806428Y-102762200D01*
X145806428Y-102762200D02*
X145854047Y-102714580D01*
X145854047Y-102714580D02*
X145949285Y-102571723D01*
X145949285Y-102571723D02*
X145996904Y-102381247D01*
X145996904Y-102381247D02*
X145996904Y-102000295D01*
X145996904Y-102000295D02*
X145949285Y-101905057D01*
X145949285Y-101905057D02*
X145901666Y-101857438D01*
X145901666Y-101857438D02*
X145806428Y-101809819D01*
X145806428Y-101809819D02*
X145615952Y-101809819D01*
X145615952Y-101809819D02*
X145520714Y-101857438D01*
X145520714Y-101857438D02*
X145473095Y-101905057D01*
X145473095Y-101905057D02*
X145425476Y-102000295D01*
X145425476Y-102000295D02*
X145425476Y-102238390D01*
X145425476Y-102238390D02*
X145473095Y-102333628D01*
X145473095Y-102333628D02*
X145520714Y-102381247D01*
X145520714Y-102381247D02*
X145615952Y-102428866D01*
X145615952Y-102428866D02*
X145806428Y-102428866D01*
X145806428Y-102428866D02*
X145901666Y-102381247D01*
X145901666Y-102381247D02*
X145949285Y-102333628D01*
X145949285Y-102333628D02*
X145996904Y-102238390D01*
X122778333Y-76254819D02*
X122445000Y-75778628D01*
X122206905Y-76254819D02*
X122206905Y-75254819D01*
X122206905Y-75254819D02*
X122587857Y-75254819D01*
X122587857Y-75254819D02*
X122683095Y-75302438D01*
X122683095Y-75302438D02*
X122730714Y-75350057D01*
X122730714Y-75350057D02*
X122778333Y-75445295D01*
X122778333Y-75445295D02*
X122778333Y-75588152D01*
X122778333Y-75588152D02*
X122730714Y-75683390D01*
X122730714Y-75683390D02*
X122683095Y-75731009D01*
X122683095Y-75731009D02*
X122587857Y-75778628D01*
X122587857Y-75778628D02*
X122206905Y-75778628D01*
X123159286Y-75350057D02*
X123206905Y-75302438D01*
X123206905Y-75302438D02*
X123302143Y-75254819D01*
X123302143Y-75254819D02*
X123540238Y-75254819D01*
X123540238Y-75254819D02*
X123635476Y-75302438D01*
X123635476Y-75302438D02*
X123683095Y-75350057D01*
X123683095Y-75350057D02*
X123730714Y-75445295D01*
X123730714Y-75445295D02*
X123730714Y-75540533D01*
X123730714Y-75540533D02*
X123683095Y-75683390D01*
X123683095Y-75683390D02*
X123111667Y-76254819D01*
X123111667Y-76254819D02*
X123730714Y-76254819D01*
X146566666Y-113154819D02*
X146566666Y-113869104D01*
X146566666Y-113869104D02*
X146519047Y-114011961D01*
X146519047Y-114011961D02*
X146423809Y-114107200D01*
X146423809Y-114107200D02*
X146280952Y-114154819D01*
X146280952Y-114154819D02*
X146185714Y-114154819D01*
X147566666Y-114154819D02*
X146995238Y-114154819D01*
X147280952Y-114154819D02*
X147280952Y-113154819D01*
X147280952Y-113154819D02*
X147185714Y-113297676D01*
X147185714Y-113297676D02*
X147090476Y-113392914D01*
X147090476Y-113392914D02*
X146995238Y-113440533D01*
X139586104Y-82768332D02*
X139624200Y-82806428D01*
X139624200Y-82806428D02*
X139662295Y-82920713D01*
X139662295Y-82920713D02*
X139662295Y-82996904D01*
X139662295Y-82996904D02*
X139624200Y-83111190D01*
X139624200Y-83111190D02*
X139548009Y-83187380D01*
X139548009Y-83187380D02*
X139471819Y-83225475D01*
X139471819Y-83225475D02*
X139319438Y-83263571D01*
X139319438Y-83263571D02*
X139205152Y-83263571D01*
X139205152Y-83263571D02*
X139052771Y-83225475D01*
X139052771Y-83225475D02*
X138976580Y-83187380D01*
X138976580Y-83187380D02*
X138900390Y-83111190D01*
X138900390Y-83111190D02*
X138862295Y-82996904D01*
X138862295Y-82996904D02*
X138862295Y-82920713D01*
X138862295Y-82920713D02*
X138900390Y-82806428D01*
X138900390Y-82806428D02*
X138938485Y-82768332D01*
X138862295Y-82501666D02*
X138862295Y-82006428D01*
X138862295Y-82006428D02*
X139167057Y-82273094D01*
X139167057Y-82273094D02*
X139167057Y-82158809D01*
X139167057Y-82158809D02*
X139205152Y-82082618D01*
X139205152Y-82082618D02*
X139243247Y-82044523D01*
X139243247Y-82044523D02*
X139319438Y-82006428D01*
X139319438Y-82006428D02*
X139509914Y-82006428D01*
X139509914Y-82006428D02*
X139586104Y-82044523D01*
X139586104Y-82044523D02*
X139624200Y-82082618D01*
X139624200Y-82082618D02*
X139662295Y-82158809D01*
X139662295Y-82158809D02*
X139662295Y-82387380D01*
X139662295Y-82387380D02*
X139624200Y-82463571D01*
X139624200Y-82463571D02*
X139586104Y-82501666D01*
X136704048Y-102884795D02*
X136704048Y-102084795D01*
X137542143Y-102808604D02*
X137504047Y-102846700D01*
X137504047Y-102846700D02*
X137389762Y-102884795D01*
X137389762Y-102884795D02*
X137313571Y-102884795D01*
X137313571Y-102884795D02*
X137199285Y-102846700D01*
X137199285Y-102846700D02*
X137123095Y-102770509D01*
X137123095Y-102770509D02*
X137085000Y-102694319D01*
X137085000Y-102694319D02*
X137046904Y-102541938D01*
X137046904Y-102541938D02*
X137046904Y-102427652D01*
X137046904Y-102427652D02*
X137085000Y-102275271D01*
X137085000Y-102275271D02*
X137123095Y-102199080D01*
X137123095Y-102199080D02*
X137199285Y-102122890D01*
X137199285Y-102122890D02*
X137313571Y-102084795D01*
X137313571Y-102084795D02*
X137389762Y-102084795D01*
X137389762Y-102084795D02*
X137504047Y-102122890D01*
X137504047Y-102122890D02*
X137542143Y-102160985D01*
X137846904Y-102160985D02*
X137885000Y-102122890D01*
X137885000Y-102122890D02*
X137961190Y-102084795D01*
X137961190Y-102084795D02*
X138151666Y-102084795D01*
X138151666Y-102084795D02*
X138227857Y-102122890D01*
X138227857Y-102122890D02*
X138265952Y-102160985D01*
X138265952Y-102160985D02*
X138304047Y-102237176D01*
X138304047Y-102237176D02*
X138304047Y-102313366D01*
X138304047Y-102313366D02*
X138265952Y-102427652D01*
X138265952Y-102427652D02*
X137808809Y-102884795D01*
X137808809Y-102884795D02*
X138304047Y-102884795D01*
X131702295Y-110899285D02*
X131321342Y-111165952D01*
X131702295Y-111356428D02*
X130902295Y-111356428D01*
X130902295Y-111356428D02*
X130902295Y-111051666D01*
X130902295Y-111051666D02*
X130940390Y-110975476D01*
X130940390Y-110975476D02*
X130978485Y-110937381D01*
X130978485Y-110937381D02*
X131054676Y-110899285D01*
X131054676Y-110899285D02*
X131168961Y-110899285D01*
X131168961Y-110899285D02*
X131245152Y-110937381D01*
X131245152Y-110937381D02*
X131283247Y-110975476D01*
X131283247Y-110975476D02*
X131321342Y-111051666D01*
X131321342Y-111051666D02*
X131321342Y-111356428D01*
X131702295Y-110137381D02*
X131702295Y-110594524D01*
X131702295Y-110365952D02*
X130902295Y-110365952D01*
X130902295Y-110365952D02*
X131016580Y-110442143D01*
X131016580Y-110442143D02*
X131092771Y-110518333D01*
X131092771Y-110518333D02*
X131130866Y-110594524D01*
X131168961Y-109451666D02*
X131702295Y-109451666D01*
X130864200Y-109642142D02*
X131435628Y-109832619D01*
X131435628Y-109832619D02*
X131435628Y-109337380D01*
X114768526Y-89881416D02*
X114730430Y-89919512D01*
X114730430Y-89919512D02*
X114616145Y-89957607D01*
X114616145Y-89957607D02*
X114539954Y-89957607D01*
X114539954Y-89957607D02*
X114425668Y-89919512D01*
X114425668Y-89919512D02*
X114349478Y-89843321D01*
X114349478Y-89843321D02*
X114311383Y-89767131D01*
X114311383Y-89767131D02*
X114273287Y-89614750D01*
X114273287Y-89614750D02*
X114273287Y-89500464D01*
X114273287Y-89500464D02*
X114311383Y-89348083D01*
X114311383Y-89348083D02*
X114349478Y-89271892D01*
X114349478Y-89271892D02*
X114425668Y-89195702D01*
X114425668Y-89195702D02*
X114539954Y-89157607D01*
X114539954Y-89157607D02*
X114616145Y-89157607D01*
X114616145Y-89157607D02*
X114730430Y-89195702D01*
X114730430Y-89195702D02*
X114768526Y-89233797D01*
X115530430Y-89957607D02*
X115073287Y-89957607D01*
X115301859Y-89957607D02*
X115301859Y-89157607D01*
X115301859Y-89157607D02*
X115225668Y-89271892D01*
X115225668Y-89271892D02*
X115149478Y-89348083D01*
X115149478Y-89348083D02*
X115073287Y-89386178D01*
X116025669Y-89157607D02*
X116101859Y-89157607D01*
X116101859Y-89157607D02*
X116178050Y-89195702D01*
X116178050Y-89195702D02*
X116216145Y-89233797D01*
X116216145Y-89233797D02*
X116254240Y-89309988D01*
X116254240Y-89309988D02*
X116292335Y-89462369D01*
X116292335Y-89462369D02*
X116292335Y-89652845D01*
X116292335Y-89652845D02*
X116254240Y-89805226D01*
X116254240Y-89805226D02*
X116216145Y-89881416D01*
X116216145Y-89881416D02*
X116178050Y-89919512D01*
X116178050Y-89919512D02*
X116101859Y-89957607D01*
X116101859Y-89957607D02*
X116025669Y-89957607D01*
X116025669Y-89957607D02*
X115949478Y-89919512D01*
X115949478Y-89919512D02*
X115911383Y-89881416D01*
X115911383Y-89881416D02*
X115873288Y-89805226D01*
X115873288Y-89805226D02*
X115835192Y-89652845D01*
X115835192Y-89652845D02*
X115835192Y-89462369D01*
X115835192Y-89462369D02*
X115873288Y-89309988D01*
X115873288Y-89309988D02*
X115911383Y-89233797D01*
X115911383Y-89233797D02*
X115949478Y-89195702D01*
X115949478Y-89195702D02*
X116025669Y-89157607D01*
X116552142Y-107454819D02*
X116218809Y-106978628D01*
X115980714Y-107454819D02*
X115980714Y-106454819D01*
X115980714Y-106454819D02*
X116361666Y-106454819D01*
X116361666Y-106454819D02*
X116456904Y-106502438D01*
X116456904Y-106502438D02*
X116504523Y-106550057D01*
X116504523Y-106550057D02*
X116552142Y-106645295D01*
X116552142Y-106645295D02*
X116552142Y-106788152D01*
X116552142Y-106788152D02*
X116504523Y-106883390D01*
X116504523Y-106883390D02*
X116456904Y-106931009D01*
X116456904Y-106931009D02*
X116361666Y-106978628D01*
X116361666Y-106978628D02*
X115980714Y-106978628D01*
X117504523Y-107454819D02*
X116933095Y-107454819D01*
X117218809Y-107454819D02*
X117218809Y-106454819D01*
X117218809Y-106454819D02*
X117123571Y-106597676D01*
X117123571Y-106597676D02*
X117028333Y-106692914D01*
X117028333Y-106692914D02*
X116933095Y-106740533D01*
X118409285Y-106454819D02*
X117933095Y-106454819D01*
X117933095Y-106454819D02*
X117885476Y-106931009D01*
X117885476Y-106931009D02*
X117933095Y-106883390D01*
X117933095Y-106883390D02*
X118028333Y-106835771D01*
X118028333Y-106835771D02*
X118266428Y-106835771D01*
X118266428Y-106835771D02*
X118361666Y-106883390D01*
X118361666Y-106883390D02*
X118409285Y-106931009D01*
X118409285Y-106931009D02*
X118456904Y-107026247D01*
X118456904Y-107026247D02*
X118456904Y-107264342D01*
X118456904Y-107264342D02*
X118409285Y-107359580D01*
X118409285Y-107359580D02*
X118361666Y-107407200D01*
X118361666Y-107407200D02*
X118266428Y-107454819D01*
X118266428Y-107454819D02*
X118028333Y-107454819D01*
X118028333Y-107454819D02*
X117933095Y-107407200D01*
X117933095Y-107407200D02*
X117885476Y-107359580D01*
X127295714Y-112637295D02*
X127029047Y-112256342D01*
X126838571Y-112637295D02*
X126838571Y-111837295D01*
X126838571Y-111837295D02*
X127143333Y-111837295D01*
X127143333Y-111837295D02*
X127219523Y-111875390D01*
X127219523Y-111875390D02*
X127257618Y-111913485D01*
X127257618Y-111913485D02*
X127295714Y-111989676D01*
X127295714Y-111989676D02*
X127295714Y-112103961D01*
X127295714Y-112103961D02*
X127257618Y-112180152D01*
X127257618Y-112180152D02*
X127219523Y-112218247D01*
X127219523Y-112218247D02*
X127143333Y-112256342D01*
X127143333Y-112256342D02*
X126838571Y-112256342D01*
X128057618Y-112637295D02*
X127600475Y-112637295D01*
X127829047Y-112637295D02*
X127829047Y-111837295D01*
X127829047Y-111837295D02*
X127752856Y-111951580D01*
X127752856Y-111951580D02*
X127676666Y-112027771D01*
X127676666Y-112027771D02*
X127600475Y-112065866D01*
X128743333Y-111837295D02*
X128590952Y-111837295D01*
X128590952Y-111837295D02*
X128514761Y-111875390D01*
X128514761Y-111875390D02*
X128476666Y-111913485D01*
X128476666Y-111913485D02*
X128400476Y-112027771D01*
X128400476Y-112027771D02*
X128362380Y-112180152D01*
X128362380Y-112180152D02*
X128362380Y-112484914D01*
X128362380Y-112484914D02*
X128400476Y-112561104D01*
X128400476Y-112561104D02*
X128438571Y-112599200D01*
X128438571Y-112599200D02*
X128514761Y-112637295D01*
X128514761Y-112637295D02*
X128667142Y-112637295D01*
X128667142Y-112637295D02*
X128743333Y-112599200D01*
X128743333Y-112599200D02*
X128781428Y-112561104D01*
X128781428Y-112561104D02*
X128819523Y-112484914D01*
X128819523Y-112484914D02*
X128819523Y-112294438D01*
X128819523Y-112294438D02*
X128781428Y-112218247D01*
X128781428Y-112218247D02*
X128743333Y-112180152D01*
X128743333Y-112180152D02*
X128667142Y-112142057D01*
X128667142Y-112142057D02*
X128514761Y-112142057D01*
X128514761Y-112142057D02*
X128438571Y-112180152D01*
X128438571Y-112180152D02*
X128400476Y-112218247D01*
X128400476Y-112218247D02*
X128362380Y-112294438D01*
X130716667Y-93436104D02*
X130678571Y-93474200D01*
X130678571Y-93474200D02*
X130564286Y-93512295D01*
X130564286Y-93512295D02*
X130488095Y-93512295D01*
X130488095Y-93512295D02*
X130373809Y-93474200D01*
X130373809Y-93474200D02*
X130297619Y-93398009D01*
X130297619Y-93398009D02*
X130259524Y-93321819D01*
X130259524Y-93321819D02*
X130221428Y-93169438D01*
X130221428Y-93169438D02*
X130221428Y-93055152D01*
X130221428Y-93055152D02*
X130259524Y-92902771D01*
X130259524Y-92902771D02*
X130297619Y-92826580D01*
X130297619Y-92826580D02*
X130373809Y-92750390D01*
X130373809Y-92750390D02*
X130488095Y-92712295D01*
X130488095Y-92712295D02*
X130564286Y-92712295D01*
X130564286Y-92712295D02*
X130678571Y-92750390D01*
X130678571Y-92750390D02*
X130716667Y-92788485D01*
X131021428Y-92788485D02*
X131059524Y-92750390D01*
X131059524Y-92750390D02*
X131135714Y-92712295D01*
X131135714Y-92712295D02*
X131326190Y-92712295D01*
X131326190Y-92712295D02*
X131402381Y-92750390D01*
X131402381Y-92750390D02*
X131440476Y-92788485D01*
X131440476Y-92788485D02*
X131478571Y-92864676D01*
X131478571Y-92864676D02*
X131478571Y-92940866D01*
X131478571Y-92940866D02*
X131440476Y-93055152D01*
X131440476Y-93055152D02*
X130983333Y-93512295D01*
X130983333Y-93512295D02*
X131478571Y-93512295D01*
D11*
X140138580Y-77016666D02*
X139424295Y-77016666D01*
X139424295Y-77016666D02*
X139281438Y-76969047D01*
X139281438Y-76969047D02*
X139186200Y-76873809D01*
X139186200Y-76873809D02*
X139138580Y-76730952D01*
X139138580Y-76730952D02*
X139138580Y-76635714D01*
X140138580Y-77397619D02*
X140138580Y-78016666D01*
X140138580Y-78016666D02*
X139757628Y-77683333D01*
X139757628Y-77683333D02*
X139757628Y-77826190D01*
X139757628Y-77826190D02*
X139710009Y-77921428D01*
X139710009Y-77921428D02*
X139662390Y-77969047D01*
X139662390Y-77969047D02*
X139567152Y-78016666D01*
X139567152Y-78016666D02*
X139329057Y-78016666D01*
X139329057Y-78016666D02*
X139233819Y-77969047D01*
X139233819Y-77969047D02*
X139186200Y-77921428D01*
X139186200Y-77921428D02*
X139138580Y-77826190D01*
X139138580Y-77826190D02*
X139138580Y-77540476D01*
X139138580Y-77540476D02*
X139186200Y-77445238D01*
X139186200Y-77445238D02*
X139233819Y-77397619D01*
D10*
X141962295Y-85333333D02*
X141962295Y-85714285D01*
X141962295Y-85714285D02*
X141162295Y-85714285D01*
X141962295Y-84647619D02*
X141962295Y-85104762D01*
X141962295Y-84876190D02*
X141162295Y-84876190D01*
X141162295Y-84876190D02*
X141276580Y-84952381D01*
X141276580Y-84952381D02*
X141352771Y-85028571D01*
X141352771Y-85028571D02*
X141390866Y-85104762D01*
X123599478Y-100427607D02*
X123218526Y-100427607D01*
X123218526Y-100427607D02*
X123218526Y-99627607D01*
X123789954Y-99627607D02*
X124285192Y-99627607D01*
X124285192Y-99627607D02*
X124018526Y-99932369D01*
X124018526Y-99932369D02*
X124132811Y-99932369D01*
X124132811Y-99932369D02*
X124209002Y-99970464D01*
X124209002Y-99970464D02*
X124247097Y-100008559D01*
X124247097Y-100008559D02*
X124285192Y-100084750D01*
X124285192Y-100084750D02*
X124285192Y-100275226D01*
X124285192Y-100275226D02*
X124247097Y-100351416D01*
X124247097Y-100351416D02*
X124209002Y-100389512D01*
X124209002Y-100389512D02*
X124132811Y-100427607D01*
X124132811Y-100427607D02*
X123904240Y-100427607D01*
X123904240Y-100427607D02*
X123828049Y-100389512D01*
X123828049Y-100389512D02*
X123789954Y-100351416D01*
X117099479Y-91427607D02*
X116832812Y-91046654D01*
X116642336Y-91427607D02*
X116642336Y-90627607D01*
X116642336Y-90627607D02*
X116947098Y-90627607D01*
X116947098Y-90627607D02*
X117023288Y-90665702D01*
X117023288Y-90665702D02*
X117061383Y-90703797D01*
X117061383Y-90703797D02*
X117099479Y-90779988D01*
X117099479Y-90779988D02*
X117099479Y-90894273D01*
X117099479Y-90894273D02*
X117061383Y-90970464D01*
X117061383Y-90970464D02*
X117023288Y-91008559D01*
X117023288Y-91008559D02*
X116947098Y-91046654D01*
X116947098Y-91046654D02*
X116642336Y-91046654D01*
X117366145Y-90627607D02*
X117861383Y-90627607D01*
X117861383Y-90627607D02*
X117594717Y-90932369D01*
X117594717Y-90932369D02*
X117709002Y-90932369D01*
X117709002Y-90932369D02*
X117785193Y-90970464D01*
X117785193Y-90970464D02*
X117823288Y-91008559D01*
X117823288Y-91008559D02*
X117861383Y-91084750D01*
X117861383Y-91084750D02*
X117861383Y-91275226D01*
X117861383Y-91275226D02*
X117823288Y-91351416D01*
X117823288Y-91351416D02*
X117785193Y-91389512D01*
X117785193Y-91389512D02*
X117709002Y-91427607D01*
X117709002Y-91427607D02*
X117480431Y-91427607D01*
X117480431Y-91427607D02*
X117404240Y-91389512D01*
X117404240Y-91389512D02*
X117366145Y-91351416D01*
X112751026Y-94727607D02*
X112484359Y-94346654D01*
X112293883Y-94727607D02*
X112293883Y-93927607D01*
X112293883Y-93927607D02*
X112598645Y-93927607D01*
X112598645Y-93927607D02*
X112674835Y-93965702D01*
X112674835Y-93965702D02*
X112712930Y-94003797D01*
X112712930Y-94003797D02*
X112751026Y-94079988D01*
X112751026Y-94079988D02*
X112751026Y-94194273D01*
X112751026Y-94194273D02*
X112712930Y-94270464D01*
X112712930Y-94270464D02*
X112674835Y-94308559D01*
X112674835Y-94308559D02*
X112598645Y-94346654D01*
X112598645Y-94346654D02*
X112293883Y-94346654D01*
X113055787Y-94003797D02*
X113093883Y-93965702D01*
X113093883Y-93965702D02*
X113170073Y-93927607D01*
X113170073Y-93927607D02*
X113360549Y-93927607D01*
X113360549Y-93927607D02*
X113436740Y-93965702D01*
X113436740Y-93965702D02*
X113474835Y-94003797D01*
X113474835Y-94003797D02*
X113512930Y-94079988D01*
X113512930Y-94079988D02*
X113512930Y-94156178D01*
X113512930Y-94156178D02*
X113474835Y-94270464D01*
X113474835Y-94270464D02*
X113017692Y-94727607D01*
X113017692Y-94727607D02*
X113512930Y-94727607D01*
X114008169Y-93927607D02*
X114084359Y-93927607D01*
X114084359Y-93927607D02*
X114160550Y-93965702D01*
X114160550Y-93965702D02*
X114198645Y-94003797D01*
X114198645Y-94003797D02*
X114236740Y-94079988D01*
X114236740Y-94079988D02*
X114274835Y-94232369D01*
X114274835Y-94232369D02*
X114274835Y-94422845D01*
X114274835Y-94422845D02*
X114236740Y-94575226D01*
X114236740Y-94575226D02*
X114198645Y-94651416D01*
X114198645Y-94651416D02*
X114160550Y-94689512D01*
X114160550Y-94689512D02*
X114084359Y-94727607D01*
X114084359Y-94727607D02*
X114008169Y-94727607D01*
X114008169Y-94727607D02*
X113931978Y-94689512D01*
X113931978Y-94689512D02*
X113893883Y-94651416D01*
X113893883Y-94651416D02*
X113855788Y-94575226D01*
X113855788Y-94575226D02*
X113817692Y-94422845D01*
X113817692Y-94422845D02*
X113817692Y-94232369D01*
X113817692Y-94232369D02*
X113855788Y-94079988D01*
X113855788Y-94079988D02*
X113893883Y-94003797D01*
X113893883Y-94003797D02*
X113931978Y-93965702D01*
X113931978Y-93965702D02*
X114008169Y-93927607D01*
X132637295Y-92547619D02*
X133437295Y-92014285D01*
X132637295Y-92014285D02*
X133437295Y-92547619D01*
X133437295Y-91290476D02*
X133437295Y-91747619D01*
X133437295Y-91519047D02*
X132637295Y-91519047D01*
X132637295Y-91519047D02*
X132751580Y-91595238D01*
X132751580Y-91595238D02*
X132827771Y-91671428D01*
X132827771Y-91671428D02*
X132865866Y-91747619D01*
X127366667Y-91962295D02*
X127100000Y-91581342D01*
X126909524Y-91962295D02*
X126909524Y-91162295D01*
X126909524Y-91162295D02*
X127214286Y-91162295D01*
X127214286Y-91162295D02*
X127290476Y-91200390D01*
X127290476Y-91200390D02*
X127328571Y-91238485D01*
X127328571Y-91238485D02*
X127366667Y-91314676D01*
X127366667Y-91314676D02*
X127366667Y-91428961D01*
X127366667Y-91428961D02*
X127328571Y-91505152D01*
X127328571Y-91505152D02*
X127290476Y-91543247D01*
X127290476Y-91543247D02*
X127214286Y-91581342D01*
X127214286Y-91581342D02*
X126909524Y-91581342D01*
X128052381Y-91162295D02*
X127900000Y-91162295D01*
X127900000Y-91162295D02*
X127823809Y-91200390D01*
X127823809Y-91200390D02*
X127785714Y-91238485D01*
X127785714Y-91238485D02*
X127709524Y-91352771D01*
X127709524Y-91352771D02*
X127671428Y-91505152D01*
X127671428Y-91505152D02*
X127671428Y-91809914D01*
X127671428Y-91809914D02*
X127709524Y-91886104D01*
X127709524Y-91886104D02*
X127747619Y-91924200D01*
X127747619Y-91924200D02*
X127823809Y-91962295D01*
X127823809Y-91962295D02*
X127976190Y-91962295D01*
X127976190Y-91962295D02*
X128052381Y-91924200D01*
X128052381Y-91924200D02*
X128090476Y-91886104D01*
X128090476Y-91886104D02*
X128128571Y-91809914D01*
X128128571Y-91809914D02*
X128128571Y-91619438D01*
X128128571Y-91619438D02*
X128090476Y-91543247D01*
X128090476Y-91543247D02*
X128052381Y-91505152D01*
X128052381Y-91505152D02*
X127976190Y-91467057D01*
X127976190Y-91467057D02*
X127823809Y-91467057D01*
X127823809Y-91467057D02*
X127747619Y-91505152D01*
X127747619Y-91505152D02*
X127709524Y-91543247D01*
X127709524Y-91543247D02*
X127671428Y-91619438D01*
X128135714Y-106686104D02*
X128097618Y-106724200D01*
X128097618Y-106724200D02*
X127983333Y-106762295D01*
X127983333Y-106762295D02*
X127907142Y-106762295D01*
X127907142Y-106762295D02*
X127792856Y-106724200D01*
X127792856Y-106724200D02*
X127716666Y-106648009D01*
X127716666Y-106648009D02*
X127678571Y-106571819D01*
X127678571Y-106571819D02*
X127640475Y-106419438D01*
X127640475Y-106419438D02*
X127640475Y-106305152D01*
X127640475Y-106305152D02*
X127678571Y-106152771D01*
X127678571Y-106152771D02*
X127716666Y-106076580D01*
X127716666Y-106076580D02*
X127792856Y-106000390D01*
X127792856Y-106000390D02*
X127907142Y-105962295D01*
X127907142Y-105962295D02*
X127983333Y-105962295D01*
X127983333Y-105962295D02*
X128097618Y-106000390D01*
X128097618Y-106000390D02*
X128135714Y-106038485D01*
X128897618Y-106762295D02*
X128440475Y-106762295D01*
X128669047Y-106762295D02*
X128669047Y-105962295D01*
X128669047Y-105962295D02*
X128592856Y-106076580D01*
X128592856Y-106076580D02*
X128516666Y-106152771D01*
X128516666Y-106152771D02*
X128440475Y-106190866D01*
X129202380Y-106038485D02*
X129240476Y-106000390D01*
X129240476Y-106000390D02*
X129316666Y-105962295D01*
X129316666Y-105962295D02*
X129507142Y-105962295D01*
X129507142Y-105962295D02*
X129583333Y-106000390D01*
X129583333Y-106000390D02*
X129621428Y-106038485D01*
X129621428Y-106038485D02*
X129659523Y-106114676D01*
X129659523Y-106114676D02*
X129659523Y-106190866D01*
X129659523Y-106190866D02*
X129621428Y-106305152D01*
X129621428Y-106305152D02*
X129164285Y-106762295D01*
X129164285Y-106762295D02*
X129659523Y-106762295D01*
X124154819Y-85938094D02*
X123154819Y-85938094D01*
X123154819Y-85938094D02*
X123154819Y-85699999D01*
X123154819Y-85699999D02*
X123202438Y-85557142D01*
X123202438Y-85557142D02*
X123297676Y-85461904D01*
X123297676Y-85461904D02*
X123392914Y-85414285D01*
X123392914Y-85414285D02*
X123583390Y-85366666D01*
X123583390Y-85366666D02*
X123726247Y-85366666D01*
X123726247Y-85366666D02*
X123916723Y-85414285D01*
X123916723Y-85414285D02*
X124011961Y-85461904D01*
X124011961Y-85461904D02*
X124107200Y-85557142D01*
X124107200Y-85557142D02*
X124154819Y-85699999D01*
X124154819Y-85699999D02*
X124154819Y-85938094D01*
X123250057Y-84985713D02*
X123202438Y-84938094D01*
X123202438Y-84938094D02*
X123154819Y-84842856D01*
X123154819Y-84842856D02*
X123154819Y-84604761D01*
X123154819Y-84604761D02*
X123202438Y-84509523D01*
X123202438Y-84509523D02*
X123250057Y-84461904D01*
X123250057Y-84461904D02*
X123345295Y-84414285D01*
X123345295Y-84414285D02*
X123440533Y-84414285D01*
X123440533Y-84414285D02*
X123583390Y-84461904D01*
X123583390Y-84461904D02*
X124154819Y-85033332D01*
X124154819Y-85033332D02*
X124154819Y-84414285D01*
D12*
X146913641Y-84880000D02*
X146606359Y-84880000D01*
X146913641Y-84120000D02*
X146606359Y-84120000D01*
X142443641Y-76080000D02*
X142136359Y-76080000D01*
X142443641Y-75320000D02*
X142136359Y-75320000D01*
D13*
X145695000Y-83625000D02*
X145695000Y-82375000D01*
X145740000Y-82025000D02*
X145740000Y-81875000D01*
X148660000Y-82025000D02*
X145740000Y-82025000D01*
X145740000Y-81875000D02*
X148660000Y-81875000D01*
X148660000Y-81875000D02*
X148660000Y-82025000D01*
D12*
X147070500Y-76197500D02*
X147070500Y-74727500D01*
X147070500Y-74727500D02*
X144785500Y-74727500D01*
X144785500Y-76197500D02*
X147070500Y-76197500D01*
D11*
X144569500Y-76478500D02*
X144061500Y-76478500D01*
X144315500Y-76732500D02*
X144315500Y-76224500D01*
D12*
X112941671Y-96055312D02*
X113248953Y-96055312D01*
X112941671Y-96815312D02*
X113248953Y-96815312D01*
D14*
X125057812Y-94865312D02*
G75*
G03*
X125057812Y-94865312I-125000J0D01*
G01*
D12*
X117342812Y-94234732D02*
X117342812Y-94515892D01*
X116322812Y-94234732D02*
X116322812Y-94515892D01*
X121265000Y-89097500D02*
X122735000Y-89097500D01*
X122735000Y-89097500D02*
X122735000Y-86812500D01*
X121265000Y-86812500D02*
X121265000Y-89097500D01*
D11*
X120984000Y-86596500D02*
X120984000Y-86088500D01*
X120730000Y-86342500D02*
X121238000Y-86342500D01*
D12*
X130966359Y-103120000D02*
X131273641Y-103120000D01*
X130966359Y-103880000D02*
X131273641Y-103880000D01*
X142630000Y-110170000D02*
X142630000Y-111500000D01*
X141300000Y-110170000D02*
X142630000Y-110170000D01*
X140030000Y-110170000D02*
X134890000Y-110170000D01*
X140030000Y-110170000D02*
X140030000Y-112830000D01*
X134890000Y-110170000D02*
X134890000Y-112830000D01*
X140030000Y-112830000D02*
X134890000Y-112830000D01*
X132570000Y-94863641D02*
X132570000Y-94556359D01*
X133330000Y-94863641D02*
X133330000Y-94556359D01*
X140295000Y-105284420D02*
X140295000Y-105565580D01*
X139275000Y-105284420D02*
X139275000Y-105565580D01*
X132387164Y-90290000D02*
X132602836Y-90290000D01*
X132387164Y-91010000D02*
X132602836Y-91010000D01*
X126792812Y-98709732D02*
X126792812Y-98990892D01*
X125772812Y-98709732D02*
X125772812Y-98990892D01*
X142443641Y-77580000D02*
X142136359Y-77580000D01*
X142443641Y-76820000D02*
X142136359Y-76820000D01*
X138109420Y-88140000D02*
X138390580Y-88140000D01*
X138109420Y-89160000D02*
X138390580Y-89160000D01*
X143053641Y-84880000D02*
X142746359Y-84880000D01*
X143053641Y-84120000D02*
X142746359Y-84120000D01*
X129420000Y-88513641D02*
X129420000Y-88206359D01*
X130180000Y-88513641D02*
X130180000Y-88206359D01*
X113275312Y-86675312D02*
X113275312Y-87735312D01*
X112215312Y-86675312D02*
X113275312Y-86675312D01*
X111215312Y-86675312D02*
X109155312Y-86675312D01*
X111215312Y-86675312D02*
X111215312Y-88795312D01*
X109155312Y-86675312D02*
X109155312Y-88795312D01*
X111215312Y-88795312D02*
X109155312Y-88795312D01*
X142488641Y-103935000D02*
X142181359Y-103935000D01*
X142488641Y-103175000D02*
X142181359Y-103175000D01*
X136769420Y-106212500D02*
X137050580Y-106212500D01*
X136769420Y-107232500D02*
X137050580Y-107232500D01*
X120817500Y-81160000D02*
X122617500Y-81160000D01*
X120817500Y-81160000D02*
X120017500Y-81160000D01*
X120817500Y-78040000D02*
X121617500Y-78040000D01*
X120817500Y-78040000D02*
X120017500Y-78040000D01*
D13*
X128878812Y-89775312D02*
X128386812Y-89775312D01*
X128036812Y-89675312D02*
X127560812Y-89675312D01*
X128036812Y-88075312D02*
X128036812Y-89675312D01*
X127560812Y-89675312D02*
X127560812Y-88075312D01*
X127560812Y-88075312D02*
X128036812Y-88075312D01*
X104665312Y-101935312D02*
X104665312Y-89935312D01*
X112525312Y-93185312D02*
G75*
G03*
X112525312Y-93185312I-100000J0D01*
G01*
D12*
X126120000Y-107030000D02*
X123120000Y-107030000D01*
X127120000Y-110270000D02*
X125120000Y-110270000D01*
X121135000Y-106315580D02*
X121135000Y-106034420D01*
X122155000Y-106315580D02*
X122155000Y-106034420D01*
X125580000Y-79886359D02*
X125580000Y-80193641D01*
X124820000Y-79886359D02*
X124820000Y-80193641D01*
X119042812Y-95009732D02*
X119042812Y-95290892D01*
X118022812Y-95009732D02*
X118022812Y-95290892D01*
X127626453Y-87655312D02*
X127319171Y-87655312D01*
X127626453Y-86895312D02*
X127319171Y-86895312D01*
D13*
X141840000Y-83625000D02*
X141840000Y-82375000D01*
X141885000Y-82025000D02*
X141885000Y-81875000D01*
X144805000Y-82025000D02*
X141885000Y-82025000D01*
X141885000Y-81875000D02*
X144805000Y-81875000D01*
X144805000Y-81875000D02*
X144805000Y-82025000D01*
D12*
X146997500Y-77935000D02*
X146997500Y-76465000D01*
X146997500Y-76465000D02*
X144712500Y-76465000D01*
X144712500Y-77935000D02*
X146997500Y-77935000D01*
D11*
X144496500Y-78216000D02*
X143988500Y-78216000D01*
X144242500Y-78470000D02*
X144242500Y-77962000D01*
D12*
X120420000Y-76253641D02*
X120420000Y-75946359D01*
X121180000Y-76253641D02*
X121180000Y-75946359D01*
X140825000Y-107367500D02*
X140825000Y-108867500D01*
X144045000Y-105867500D02*
X144045000Y-108867500D01*
X106571671Y-102645312D02*
X106878953Y-102645312D01*
X106571671Y-103405312D02*
X106878953Y-103405312D01*
X119096453Y-90055312D02*
X118789171Y-90055312D01*
X119096453Y-89295312D02*
X118789171Y-89295312D01*
D15*
X153375000Y-90950000D02*
X153375000Y-100950000D01*
X149895000Y-90950000D02*
X153375000Y-90950000D01*
X146695000Y-90950000D02*
X148455000Y-90950000D01*
X137375000Y-90950000D02*
X139355000Y-90950000D01*
X137375000Y-91230000D02*
X137375000Y-90950000D01*
X153375000Y-100950000D02*
X149895000Y-100950000D01*
X138655000Y-100950000D02*
X137375000Y-100950000D01*
X137375000Y-100950000D02*
X137375000Y-100670000D01*
D13*
X149285000Y-90108000D02*
G75*
G03*
X149285000Y-90108000I-100000J0D01*
G01*
D12*
X137569420Y-107812500D02*
X137850580Y-107812500D01*
X137569420Y-108832500D02*
X137850580Y-108832500D01*
X107130892Y-89185312D02*
X106849732Y-89185312D01*
X107130892Y-88165312D02*
X106849732Y-88165312D01*
X127398392Y-94215312D02*
X127117232Y-94215312D01*
X127398392Y-93195312D02*
X127117232Y-93195312D01*
X144181359Y-103175000D02*
X144488641Y-103175000D01*
X144181359Y-103935000D02*
X144488641Y-103935000D01*
X122791359Y-76970000D02*
X123098641Y-76970000D01*
X122791359Y-77730000D02*
X123098641Y-77730000D01*
X149060000Y-112560000D02*
X148000000Y-112560000D01*
X149060000Y-111500000D02*
X149060000Y-112560000D01*
X149060000Y-110500000D02*
X149060000Y-104440000D01*
X149060000Y-110500000D02*
X146940000Y-110500000D01*
X149060000Y-104440000D02*
X146940000Y-104440000D01*
X146940000Y-110500000D02*
X146940000Y-104440000D01*
X140090000Y-82740580D02*
X140090000Y-82459420D01*
X141110000Y-82740580D02*
X141110000Y-82459420D01*
D13*
X138139000Y-104655000D02*
X137685000Y-105109000D01*
X138139000Y-103801000D02*
X138139000Y-104655000D01*
X137685000Y-105109000D02*
X136831000Y-105109000D01*
X136831000Y-105109000D02*
X136831000Y-103801000D01*
X136831000Y-103801000D02*
X138139000Y-103801000D01*
X138239000Y-105109000D02*
G75*
G03*
X138239000Y-105109000I-100000J0D01*
G01*
D12*
X130550000Y-110231359D02*
X130550000Y-110538641D01*
X129790000Y-110231359D02*
X129790000Y-110538641D01*
X115792812Y-91559732D02*
X115792812Y-91840892D01*
X114772812Y-91559732D02*
X114772812Y-91840892D01*
X119863641Y-107330000D02*
X119556359Y-107330000D01*
X119863641Y-106570000D02*
X119556359Y-106570000D01*
X127656359Y-110645000D02*
X127963641Y-110645000D01*
X127656359Y-111405000D02*
X127963641Y-111405000D01*
X132387164Y-92790000D02*
X132602836Y-92790000D01*
X132387164Y-93510000D02*
X132602836Y-93510000D01*
D11*
X138000000Y-74850000D02*
X129000000Y-74850000D01*
X138000000Y-74850000D02*
X138000000Y-79850000D01*
X128928000Y-74850000D02*
X128928000Y-79850000D01*
X138000000Y-79850000D02*
X129000000Y-79850000D01*
D12*
X140215000Y-85377836D02*
X140215000Y-85162164D01*
X140935000Y-85377836D02*
X140935000Y-85162164D01*
D13*
X123732812Y-98875312D02*
X123732812Y-97275312D01*
D12*
X118812812Y-91061671D02*
X118812812Y-91368953D01*
X118052812Y-91061671D02*
X118052812Y-91368953D01*
X112941671Y-95055312D02*
X113248953Y-95055312D01*
X112941671Y-95815312D02*
X113248953Y-95815312D01*
X133800000Y-92575000D02*
X133800000Y-91225000D01*
X135550000Y-92575000D02*
X135550000Y-91225000D01*
X127628453Y-90905312D02*
X127321171Y-90905312D01*
X127628453Y-90145312D02*
X127321171Y-90145312D01*
X131244420Y-106465000D02*
X131525580Y-106465000D01*
X131244420Y-107485000D02*
X131525580Y-107485000D01*
X122965000Y-89072500D02*
X124435000Y-89072500D01*
X124435000Y-89072500D02*
X124435000Y-86787500D01*
X122965000Y-86787500D02*
X122965000Y-89072500D01*
D11*
X122684000Y-86571500D02*
X122684000Y-86063500D01*
X122430000Y-86317500D02*
X122938000Y-86317500D01*
%LPC*%
D16*
X147270000Y-84500000D03*
X146250000Y-84500000D03*
X142800000Y-75700000D03*
X141780000Y-75700000D03*
D17*
X146245000Y-83000000D03*
X148155000Y-83000000D03*
X147200000Y-80900000D03*
D18*
X146373000Y-75462500D03*
X144798000Y-75462500D03*
D19*
X112585312Y-96435312D03*
X113605312Y-96435312D03*
D20*
X124532812Y-94115312D03*
X124532812Y-93615312D03*
X124532812Y-93115312D03*
X124532812Y-92615312D03*
X124532812Y-92115312D03*
X124532812Y-91615312D03*
D21*
X123782812Y-90865312D03*
X123282812Y-90865312D03*
X122782812Y-90865312D03*
X122282812Y-90865312D03*
X121782812Y-90865312D03*
X121282812Y-90865312D03*
D20*
X120532812Y-91615312D03*
X120532812Y-92115312D03*
X120532812Y-92615312D03*
X120532812Y-93115312D03*
X120532812Y-93615312D03*
X120532812Y-94115312D03*
D21*
X121282812Y-94865312D03*
X121782812Y-94865312D03*
X122282812Y-94865312D03*
X122782812Y-94865312D03*
X123282812Y-94865312D03*
X123782812Y-94865312D03*
D22*
X122532812Y-92865312D03*
D23*
X116832812Y-93600312D03*
X116832812Y-95150312D03*
D24*
X122000000Y-88400000D03*
X122000000Y-86825000D03*
D19*
X130610000Y-103500000D03*
X131630000Y-103500000D03*
D25*
X141300000Y-111500000D03*
D26*
X138760000Y-111500000D03*
X136220000Y-111500000D03*
D27*
X132950000Y-95220000D03*
X132950000Y-94200000D03*
D23*
X139785000Y-104650000D03*
X139785000Y-106200000D03*
D28*
X132015000Y-90650000D03*
X132975000Y-90650000D03*
D23*
X126282812Y-98075312D03*
X126282812Y-99625312D03*
D16*
X142800000Y-77200000D03*
X141780000Y-77200000D03*
D29*
X140575000Y-88650000D03*
X140575000Y-87090000D03*
D30*
X137475000Y-88650000D03*
X139025000Y-88650000D03*
D16*
X143410000Y-84500000D03*
X142390000Y-84500000D03*
D27*
X129800000Y-88870000D03*
X129800000Y-87850000D03*
D31*
X112215312Y-87735312D03*
D32*
X110215312Y-87735312D03*
D16*
X142845000Y-103555000D03*
X141825000Y-103555000D03*
D30*
X136135000Y-106722500D03*
X137685000Y-106722500D03*
D33*
X121955000Y-80550000D03*
X121955000Y-79600000D03*
X121955000Y-78650000D03*
X119680000Y-78650000D03*
X119680000Y-80550000D03*
D34*
X128632812Y-89375312D03*
X128632812Y-88875312D03*
X128632812Y-88375312D03*
X126964812Y-88375312D03*
X126964812Y-88875312D03*
X126964812Y-89375312D03*
D35*
X111165312Y-95435312D03*
D36*
X111165312Y-97455312D03*
D37*
X111165312Y-98685312D03*
D35*
X111165312Y-96435312D03*
D36*
X111165312Y-94415312D03*
D37*
X111165312Y-93185312D03*
D38*
X106215312Y-90315312D03*
X106215312Y-101555312D03*
D39*
X110215312Y-90315312D03*
X110215312Y-101555312D03*
D40*
X123920000Y-107675000D03*
X123920000Y-108325000D03*
X123920000Y-108975000D03*
X123920000Y-109625000D03*
X128320000Y-109625000D03*
X128320000Y-108975000D03*
X128320000Y-108325000D03*
X128320000Y-107675000D03*
D41*
X121645000Y-106950000D03*
X121645000Y-105400000D03*
D42*
X125200000Y-79530000D03*
X125200000Y-80550000D03*
D23*
X118532812Y-94375312D03*
X118532812Y-95925312D03*
D16*
X127982812Y-87275312D03*
X126962812Y-87275312D03*
D17*
X142390000Y-83000000D03*
X144300000Y-83000000D03*
X143345000Y-80900000D03*
D18*
X146300000Y-77200000D03*
X144725000Y-77200000D03*
D27*
X120800000Y-76610000D03*
X120800000Y-75590000D03*
D43*
X141235000Y-106180000D03*
X142035000Y-106180000D03*
X142835000Y-106180000D03*
X143635000Y-106180000D03*
X143635000Y-108555000D03*
X142835000Y-108555000D03*
X142035000Y-108555000D03*
X141235000Y-108555000D03*
D19*
X106215312Y-103025312D03*
X107235312Y-103025312D03*
D16*
X119452812Y-89675312D03*
X118432812Y-89675312D03*
D44*
X149175000Y-91350000D03*
D45*
X146175000Y-91350000D03*
X145475000Y-91350000D03*
X144775000Y-91350000D03*
X144075000Y-91350000D03*
X143375000Y-91350000D03*
X142675000Y-91350000D03*
X141975000Y-91350000D03*
X141275000Y-91350000D03*
X140575000Y-91350000D03*
X139875000Y-91350000D03*
D46*
X137775000Y-91750000D03*
D47*
X137775000Y-92450000D03*
D46*
X137775000Y-93150000D03*
X137775000Y-93850000D03*
X137775000Y-94550000D03*
X137775000Y-95250000D03*
X137775000Y-95950000D03*
X137775000Y-96650000D03*
X137775000Y-97350000D03*
X137775000Y-98050000D03*
X137775000Y-98750000D03*
X137775000Y-99450000D03*
X137775000Y-100150000D03*
D48*
X139175000Y-100550000D03*
X139875000Y-100550000D03*
X140575000Y-100550000D03*
X141275000Y-100550000D03*
X141975000Y-100550000D03*
X142675000Y-100550000D03*
X143375000Y-100550000D03*
X144075000Y-100550000D03*
X144775000Y-100550000D03*
X145475000Y-100550000D03*
X146175000Y-100550000D03*
X146875000Y-100550000D03*
X147575000Y-100550000D03*
X148275000Y-100550000D03*
D49*
X149175000Y-100550000D03*
D50*
X148625000Y-98850000D03*
X147225000Y-98850000D03*
D30*
X136935000Y-108322500D03*
X138485000Y-108322500D03*
D51*
X107765312Y-88675312D03*
X106215312Y-88675312D03*
X128032812Y-93705312D03*
X126482812Y-93705312D03*
D19*
X143825000Y-103555000D03*
X144845000Y-103555000D03*
X122435000Y-77350000D03*
X123455000Y-77350000D03*
D31*
X148000000Y-111500000D03*
D32*
X148000000Y-109500000D03*
X148000000Y-107500000D03*
X148000000Y-105500000D03*
D41*
X140600000Y-83375000D03*
X140600000Y-81825000D03*
D52*
X137685000Y-104655000D03*
X137285000Y-104655000D03*
X137685000Y-104255000D03*
X137285000Y-104255000D03*
D42*
X130170000Y-109875000D03*
X130170000Y-110895000D03*
D23*
X115282812Y-90925312D03*
X115282812Y-92475312D03*
D16*
X120220000Y-106950000D03*
X119200000Y-106950000D03*
D19*
X127300000Y-111025000D03*
X128320000Y-111025000D03*
D28*
X132015000Y-93150000D03*
X132975000Y-93150000D03*
D31*
X136000000Y-79000000D03*
D32*
X133500000Y-79000000D03*
X131000000Y-79000000D03*
X136000000Y-75700000D03*
X133500000Y-75700000D03*
X131000000Y-75700000D03*
D53*
X140575000Y-85750000D03*
X140575000Y-84790000D03*
D54*
X124532812Y-98075312D03*
X122932812Y-98075312D03*
D42*
X118432812Y-90705312D03*
X118432812Y-91725312D03*
D19*
X112585312Y-95435312D03*
X113605312Y-95435312D03*
D55*
X134675000Y-90650000D03*
X134675000Y-93150000D03*
D16*
X127984812Y-90525312D03*
X126964812Y-90525312D03*
D30*
X130610000Y-106975000D03*
X132160000Y-106975000D03*
D24*
X123700000Y-88375000D03*
X123700000Y-86800000D03*
D56*
X123920000Y-105400000D03*
X110420000Y-105400000D03*
X117170000Y-112150000D03*
X117170000Y-76150000D03*
X110420000Y-82900000D03*
X123920000Y-82900000D03*
%LPD*%
M02*
