%TF.GenerationSoftware,KiCad,Pcbnew,7.0.7*%
%TF.CreationDate,2023-09-18T11:47:39+09:00*%
%TF.ProjectId,gas_nrf52832,6761735f-6e72-4663-9532-3833322e6b69,rev?*%
%TF.SameCoordinates,Original*%
%TF.FileFunction,Copper,L2,Bot*%
%TF.FilePolarity,Positive*%
%FSLAX46Y46*%
G04 Gerber Fmt 4.6, Leading zero omitted, Abs format (unit mm)*
G04 Created by KiCad (PCBNEW 7.0.7) date 2023-09-18 11:47:39*
%MOMM*%
%LPD*%
G01*
G04 APERTURE LIST*
%TA.AperFunction,ComponentPad*%
%ADD10R,1.700000X1.700000*%
%TD*%
%TA.AperFunction,ComponentPad*%
%ADD11O,1.700000X1.700000*%
%TD*%
%TA.AperFunction,ComponentPad*%
%ADD12R,1.350000X1.350000*%
%TD*%
%TA.AperFunction,ComponentPad*%
%ADD13O,1.350000X1.350000*%
%TD*%
%TA.AperFunction,ComponentPad*%
%ADD14O,2.100000X1.100000*%
%TD*%
%TA.AperFunction,ComponentPad*%
%ADD15O,1.700000X1.100000*%
%TD*%
%TA.AperFunction,ComponentPad*%
%ADD16C,2.300000*%
%TD*%
%TA.AperFunction,ViaPad*%
%ADD17C,0.600000*%
%TD*%
%TA.AperFunction,ViaPad*%
%ADD18C,0.800000*%
%TD*%
%TA.AperFunction,Conductor*%
%ADD19C,0.250000*%
%TD*%
G04 APERTURE END LIST*
D10*
X141300000Y-111500000D03*
D11*
X138760000Y-111500000D03*
X136220000Y-111500000D03*
D12*
X112215312Y-87735312D03*
D13*
X110215312Y-87735312D03*
D14*
X106215312Y-90315312D03*
X106215312Y-101555312D03*
D15*
X110215312Y-90315312D03*
X110215312Y-101555312D03*
D12*
X148000000Y-111500000D03*
D13*
X148000000Y-109500000D03*
X148000000Y-107500000D03*
X148000000Y-105500000D03*
D12*
X136000000Y-79000000D03*
D13*
X133500000Y-79000000D03*
X131000000Y-79000000D03*
X136000000Y-75700000D03*
X133500000Y-75700000D03*
X131000000Y-75700000D03*
D16*
X123920000Y-105400000D03*
X110420000Y-105400000D03*
X117170000Y-112150000D03*
X117170000Y-76150000D03*
X110420000Y-82900000D03*
X123920000Y-82900000D03*
D17*
X148500000Y-84500000D03*
X144500000Y-84500000D03*
X126032812Y-91525312D03*
X115632812Y-93600312D03*
D18*
X130600000Y-81300000D03*
X135200000Y-103800000D03*
X128900000Y-105850000D03*
D17*
X144250000Y-88900000D03*
X136070000Y-88870000D03*
X106265312Y-87165312D03*
X142035000Y-109722500D03*
X108365312Y-103065312D03*
X146375000Y-93850000D03*
X141300000Y-109700000D03*
X144735000Y-108572500D03*
X120265312Y-95165312D03*
X116832812Y-96425312D03*
X137775000Y-89950000D03*
X147900000Y-102400000D03*
X129332812Y-93715312D03*
X112050000Y-81250000D03*
X148000000Y-113100000D03*
X136275000Y-91750000D03*
X148975000Y-94450000D03*
X114615312Y-96465312D03*
X146400000Y-111500000D03*
X118532812Y-97175312D03*
X124542812Y-90865312D03*
X138700000Y-104000000D03*
X148975000Y-93150000D03*
X128032812Y-92315312D03*
X147875000Y-88150000D03*
X137800000Y-101900000D03*
X139475000Y-98350000D03*
X116565312Y-90965312D03*
X143635000Y-109722500D03*
X139475000Y-93850000D03*
X110215312Y-85885312D03*
X149200000Y-102350000D03*
X115265312Y-89565312D03*
X122782812Y-89525312D03*
X108850000Y-81250000D03*
X147875000Y-94450000D03*
X139800000Y-107600000D03*
X112582812Y-98665312D03*
X111515312Y-91815312D03*
X112682812Y-93215312D03*
X136275000Y-100150000D03*
X129800000Y-89800000D03*
X136275000Y-89950000D03*
X123445000Y-79600000D03*
X145475000Y-96050000D03*
X143775000Y-98350000D03*
X123765312Y-96365312D03*
X148975000Y-89450000D03*
X129100000Y-90500000D03*
X117282812Y-89685312D03*
X147900000Y-103500000D03*
X143775000Y-93850000D03*
X127632812Y-99625312D03*
X149200000Y-103500000D03*
D18*
X121832812Y-93575312D03*
D17*
X149000000Y-113100000D03*
X108850000Y-84450000D03*
X107765312Y-87215312D03*
X141675000Y-96050000D03*
X132000000Y-91950000D03*
X147875000Y-93150000D03*
X148975000Y-88150000D03*
X146500000Y-113100000D03*
X112050000Y-84450000D03*
X111482812Y-100015312D03*
X114615312Y-95465312D03*
X118432812Y-88485312D03*
X119865312Y-95865312D03*
D18*
X123282812Y-93575312D03*
X121832812Y-92225312D03*
D17*
X123445000Y-78550000D03*
X136300000Y-101900000D03*
X107265312Y-104165312D03*
X147875000Y-89450000D03*
X119532812Y-90725312D03*
X125974427Y-92496167D03*
X143000000Y-111500000D03*
X138085000Y-109622500D03*
D18*
X123282812Y-92225312D03*
D17*
X138206233Y-103324500D03*
X128032812Y-95065312D03*
X114032812Y-90965312D03*
X122282812Y-96025312D03*
X126482812Y-94815312D03*
X133900000Y-87400000D03*
X133924500Y-94824500D03*
X126365312Y-96765312D03*
X120745000Y-77450000D03*
X141135000Y-104655000D03*
X144635000Y-104655000D03*
D19*
X124707812Y-88900312D02*
X119957812Y-88900312D01*
X115632812Y-93225312D02*
X115632812Y-93600312D01*
X126032812Y-91525312D02*
X126032812Y-80667188D01*
X119957812Y-88900312D02*
X115632812Y-93225312D01*
X126032812Y-80667188D02*
X131000000Y-75700000D01*
X126032812Y-91525312D02*
X126032812Y-90225312D01*
X126032812Y-90225312D02*
X124707812Y-88900312D01*
X136100000Y-102700000D02*
X145200000Y-102700000D01*
X131200000Y-81300000D02*
X130600000Y-81300000D01*
X135200000Y-103800000D02*
X135200000Y-97600000D01*
X129450000Y-105300000D02*
X133700000Y-105300000D01*
X135200000Y-97600000D02*
X135200000Y-81900000D01*
X133700000Y-105300000D02*
X135200000Y-103800000D01*
X135200000Y-102500000D02*
X135200000Y-103800000D01*
X136000000Y-102700000D02*
X135200000Y-101900000D01*
X133500000Y-79000000D02*
X131200000Y-81300000D01*
X135200000Y-101900000D02*
X135200000Y-102500000D01*
X133500000Y-80200000D02*
X133500000Y-79000000D01*
X135200000Y-81900000D02*
X133500000Y-80200000D01*
X136100000Y-102700000D02*
X136000000Y-102700000D01*
X145200000Y-102700000D02*
X148000000Y-105500000D01*
X128900000Y-105850000D02*
X129450000Y-105300000D01*
X144250000Y-88900000D02*
X136100000Y-88900000D01*
X136100000Y-88900000D02*
X136070000Y-88870000D01*
X125142812Y-95565312D02*
X125892812Y-94815312D01*
X122282812Y-96025312D02*
X122742812Y-95565312D01*
X122742812Y-95565312D02*
X125142812Y-95565312D01*
X125892812Y-94815312D02*
X126482812Y-94815312D01*
X133900000Y-87400000D02*
X133900000Y-94800000D01*
X133900000Y-94800000D02*
X133924500Y-94824500D01*
X110800000Y-100970624D02*
X110215312Y-101555312D01*
X110215312Y-90315312D02*
X110800000Y-90900000D01*
X106215312Y-90315312D02*
X110215312Y-90315312D01*
X110215312Y-101555312D02*
X106215312Y-101555312D01*
X110800000Y-90900000D02*
X110800000Y-100970624D01*
X126365312Y-96765312D02*
X127216696Y-95913928D01*
X127216696Y-95913928D02*
X127216696Y-82783304D01*
X127216696Y-82783304D02*
X131000000Y-79000000D01*
X118470000Y-77450000D02*
X117170000Y-76150000D01*
X120745000Y-77450000D02*
X118470000Y-77450000D01*
X141135000Y-104655000D02*
X144635000Y-104655000D01*
%TA.AperFunction,Conductor*%
G36*
X149623205Y-71717313D02*
G01*
X149648515Y-71761150D01*
X149649638Y-71774360D01*
X149564632Y-89243125D01*
X149550000Y-92250000D01*
X149593425Y-113485063D01*
X149599735Y-116570349D01*
X149582519Y-116617950D01*
X149538734Y-116643349D01*
X149525735Y-116644500D01*
X104724500Y-116644500D01*
X104676934Y-116627187D01*
X104651624Y-116583350D01*
X104650500Y-116570500D01*
X104650500Y-112150004D01*
X115814341Y-112150004D01*
X115834936Y-112385403D01*
X115834936Y-112385406D01*
X115834937Y-112385408D01*
X115896097Y-112613663D01*
X115995965Y-112827830D01*
X116131505Y-113021401D01*
X116298599Y-113188495D01*
X116492170Y-113324035D01*
X116706337Y-113423903D01*
X116934592Y-113485063D01*
X117052295Y-113495361D01*
X117169996Y-113505659D01*
X117170000Y-113505659D01*
X117170004Y-113505659D01*
X117274625Y-113496505D01*
X117405408Y-113485063D01*
X117633663Y-113423903D01*
X117847830Y-113324035D01*
X118041401Y-113188495D01*
X118208495Y-113021401D01*
X118344035Y-112827830D01*
X118443903Y-112613663D01*
X118505063Y-112385408D01*
X118525659Y-112150000D01*
X118505063Y-111914592D01*
X118443903Y-111686337D01*
X118357012Y-111499999D01*
X135164417Y-111499999D01*
X135184700Y-111705935D01*
X135198067Y-111750000D01*
X135244768Y-111903954D01*
X135342315Y-112086450D01*
X135473590Y-112246410D01*
X135633550Y-112377685D01*
X135816046Y-112475232D01*
X136014066Y-112535300D01*
X136220000Y-112555583D01*
X136425934Y-112535300D01*
X136623954Y-112475232D01*
X136806450Y-112377685D01*
X136966410Y-112246410D01*
X137097685Y-112086450D01*
X137195232Y-111903954D01*
X137255300Y-111705934D01*
X137275583Y-111500000D01*
X137275583Y-111499999D01*
X137704417Y-111499999D01*
X137724700Y-111705935D01*
X137738067Y-111750000D01*
X137784768Y-111903954D01*
X137882315Y-112086450D01*
X138013590Y-112246410D01*
X138173550Y-112377685D01*
X138356046Y-112475232D01*
X138554066Y-112535300D01*
X138760000Y-112555583D01*
X138965934Y-112535300D01*
X139163954Y-112475232D01*
X139346450Y-112377685D01*
X139506410Y-112246410D01*
X139637685Y-112086450D01*
X139735232Y-111903954D01*
X139795300Y-111705934D01*
X139802356Y-111634286D01*
X139824248Y-111588647D01*
X139870355Y-111567757D01*
X139919103Y-111581390D01*
X139947683Y-111623169D01*
X139950000Y-111641541D01*
X139950000Y-112397828D01*
X139956402Y-112457375D01*
X139956403Y-112457380D01*
X140006645Y-112592087D01*
X140006646Y-112592088D01*
X140092811Y-112707188D01*
X140207911Y-112793353D01*
X140207912Y-112793354D01*
X140342619Y-112843596D01*
X140342624Y-112843597D01*
X140402171Y-112850000D01*
X141050000Y-112850000D01*
X141050000Y-112050648D01*
X141067313Y-112003082D01*
X141111150Y-111977772D01*
X141154739Y-111983334D01*
X141157685Y-111984680D01*
X141264237Y-112000000D01*
X141264243Y-112000000D01*
X141335757Y-112000000D01*
X141335763Y-112000000D01*
X141442315Y-111984680D01*
X141445260Y-111983334D01*
X141495719Y-111979324D01*
X141536952Y-112008685D01*
X141550000Y-112050648D01*
X141550000Y-112850000D01*
X142197829Y-112850000D01*
X142257375Y-112843597D01*
X142257380Y-112843596D01*
X142392087Y-112793354D01*
X142392088Y-112793353D01*
X142507188Y-112707188D01*
X142593353Y-112592088D01*
X142593354Y-112592087D01*
X142643596Y-112457380D01*
X142643597Y-112457375D01*
X142650000Y-112397828D01*
X142650000Y-112222828D01*
X146825000Y-112222828D01*
X146831402Y-112282375D01*
X146831403Y-112282380D01*
X146881645Y-112417087D01*
X146881646Y-112417088D01*
X146967811Y-112532188D01*
X147082911Y-112618353D01*
X147082912Y-112618354D01*
X147217619Y-112668596D01*
X147217624Y-112668597D01*
X147277171Y-112675000D01*
X147750000Y-112675000D01*
X147750000Y-111942306D01*
X147767313Y-111894740D01*
X147811150Y-111869430D01*
X147857596Y-111876372D01*
X147874852Y-111885165D01*
X147953683Y-111897650D01*
X147968518Y-111900000D01*
X147968519Y-111900000D01*
X148031482Y-111900000D01*
X148045567Y-111897769D01*
X148125148Y-111885165D01*
X148142403Y-111876372D01*
X148192643Y-111870202D01*
X148235097Y-111897769D01*
X148250000Y-111942306D01*
X148250000Y-112675000D01*
X148722829Y-112675000D01*
X148782375Y-112668597D01*
X148782380Y-112668596D01*
X148917087Y-112618354D01*
X148917088Y-112618353D01*
X149032188Y-112532188D01*
X149118353Y-112417088D01*
X149118354Y-112417087D01*
X149168596Y-112282380D01*
X149168597Y-112282375D01*
X149175000Y-112222828D01*
X149175000Y-111750000D01*
X148442307Y-111750000D01*
X148394741Y-111732687D01*
X148369431Y-111688850D01*
X148376373Y-111642404D01*
X148385164Y-111625149D01*
X148385165Y-111625148D01*
X148404986Y-111500000D01*
X148385165Y-111374852D01*
X148376373Y-111357596D01*
X148370204Y-111307354D01*
X148397772Y-111264901D01*
X148442307Y-111250000D01*
X149175000Y-111250000D01*
X149175000Y-110777171D01*
X149168597Y-110717624D01*
X149168596Y-110717619D01*
X149118354Y-110582912D01*
X149118353Y-110582911D01*
X149032188Y-110467811D01*
X148917088Y-110381646D01*
X148917087Y-110381645D01*
X148782380Y-110331403D01*
X148782375Y-110331402D01*
X148722829Y-110325000D01*
X148581723Y-110325000D01*
X148534157Y-110307687D01*
X148508847Y-110263850D01*
X148517637Y-110214000D01*
X148538227Y-110191133D01*
X148589047Y-110154209D01*
X148589046Y-110154209D01*
X148589050Y-110154207D01*
X148712195Y-110017440D01*
X148804214Y-109858059D01*
X148861085Y-109683029D01*
X148880322Y-109500000D01*
X148861085Y-109316971D01*
X148857127Y-109304789D01*
X148804215Y-109141942D01*
X148712197Y-108982563D01*
X148712194Y-108982558D01*
X148589047Y-108845790D01*
X148440167Y-108737622D01*
X148440160Y-108737618D01*
X148272035Y-108662764D01*
X148272033Y-108662763D01*
X148130282Y-108632633D01*
X148092019Y-108624500D01*
X147907981Y-108624500D01*
X147876425Y-108631207D01*
X147727966Y-108662763D01*
X147727964Y-108662764D01*
X147559839Y-108737618D01*
X147559832Y-108737622D01*
X147410952Y-108845790D01*
X147287805Y-108982558D01*
X147287802Y-108982563D01*
X147195784Y-109141942D01*
X147138916Y-109316965D01*
X147119678Y-109500000D01*
X147138916Y-109683034D01*
X147195784Y-109858057D01*
X147287802Y-110017436D01*
X147287805Y-110017441D01*
X147410952Y-110154209D01*
X147461773Y-110191133D01*
X147490079Y-110233098D01*
X147484788Y-110283439D01*
X147448375Y-110318602D01*
X147418277Y-110325000D01*
X147277171Y-110325000D01*
X147217624Y-110331402D01*
X147217619Y-110331403D01*
X147082912Y-110381645D01*
X147082911Y-110381646D01*
X146967811Y-110467811D01*
X146881646Y-110582911D01*
X146881645Y-110582912D01*
X146831403Y-110717619D01*
X146831402Y-110717624D01*
X146825000Y-110777171D01*
X146825000Y-111250000D01*
X147557693Y-111250000D01*
X147605259Y-111267313D01*
X147630569Y-111311150D01*
X147623627Y-111357596D01*
X147614835Y-111374850D01*
X147614835Y-111374851D01*
X147595014Y-111499999D01*
X147614835Y-111625148D01*
X147614835Y-111625149D01*
X147623627Y-111642404D01*
X147629796Y-111692646D01*
X147602228Y-111735099D01*
X147557693Y-111750000D01*
X146825000Y-111750000D01*
X146825000Y-112222828D01*
X142650000Y-112222828D01*
X142650000Y-111750000D01*
X141846554Y-111750000D01*
X141798988Y-111732687D01*
X141773678Y-111688850D01*
X141775552Y-111655151D01*
X141800000Y-111571891D01*
X141800000Y-111428108D01*
X141775552Y-111344849D01*
X141778762Y-111294332D01*
X141813693Y-111257697D01*
X141846554Y-111250000D01*
X142650000Y-111250000D01*
X142650000Y-110602171D01*
X142643597Y-110542624D01*
X142643596Y-110542619D01*
X142593354Y-110407912D01*
X142593353Y-110407911D01*
X142507188Y-110292811D01*
X142392088Y-110206646D01*
X142392087Y-110206645D01*
X142257380Y-110156403D01*
X142257375Y-110156402D01*
X142197829Y-110150000D01*
X141550000Y-110150000D01*
X141550000Y-110949352D01*
X141532687Y-110996918D01*
X141488850Y-111022228D01*
X141445262Y-111016666D01*
X141442315Y-111015320D01*
X141442313Y-111015319D01*
X141442311Y-111015319D01*
X141335767Y-111000000D01*
X141335763Y-111000000D01*
X141264237Y-111000000D01*
X141264232Y-111000000D01*
X141157688Y-111015319D01*
X141157685Y-111015320D01*
X141154738Y-111016666D01*
X141104278Y-111020675D01*
X141063046Y-110991312D01*
X141050000Y-110949352D01*
X141050000Y-110150000D01*
X140402171Y-110150000D01*
X140342624Y-110156402D01*
X140342619Y-110156403D01*
X140207912Y-110206645D01*
X140207911Y-110206646D01*
X140092811Y-110292811D01*
X140006646Y-110407911D01*
X140006645Y-110407912D01*
X139956403Y-110542619D01*
X139956402Y-110542624D01*
X139950000Y-110602171D01*
X139950000Y-111358458D01*
X139932687Y-111406024D01*
X139888850Y-111431334D01*
X139839000Y-111422544D01*
X139806463Y-111383767D01*
X139802357Y-111365716D01*
X139795300Y-111294066D01*
X139735232Y-111096046D01*
X139637685Y-110913550D01*
X139506410Y-110753590D01*
X139346450Y-110622315D01*
X139163954Y-110524768D01*
X139052158Y-110490855D01*
X138965935Y-110464700D01*
X138862966Y-110454558D01*
X138760000Y-110444417D01*
X138759999Y-110444417D01*
X138554064Y-110464700D01*
X138356043Y-110524769D01*
X138173549Y-110622315D01*
X138013590Y-110753589D01*
X138013589Y-110753590D01*
X137882315Y-110913549D01*
X137784769Y-111096043D01*
X137784768Y-111096045D01*
X137784768Y-111096046D01*
X137777011Y-111121616D01*
X137724700Y-111294064D01*
X137704417Y-111499999D01*
X137275583Y-111499999D01*
X137255300Y-111294066D01*
X137195232Y-111096046D01*
X137097685Y-110913550D01*
X136966410Y-110753590D01*
X136806450Y-110622315D01*
X136623954Y-110524768D01*
X136512158Y-110490855D01*
X136425935Y-110464700D01*
X136220000Y-110444417D01*
X136014064Y-110464700D01*
X135816043Y-110524769D01*
X135633549Y-110622315D01*
X135473590Y-110753589D01*
X135473589Y-110753590D01*
X135342315Y-110913549D01*
X135244769Y-111096043D01*
X135244768Y-111096045D01*
X135244768Y-111096046D01*
X135237011Y-111121616D01*
X135184700Y-111294064D01*
X135164417Y-111499999D01*
X118357012Y-111499999D01*
X118344035Y-111472171D01*
X118208495Y-111278599D01*
X118041401Y-111111505D01*
X118041398Y-111111503D01*
X118041399Y-111111503D01*
X117911682Y-111020675D01*
X117847830Y-110975965D01*
X117633663Y-110876097D01*
X117405408Y-110814937D01*
X117405406Y-110814936D01*
X117405403Y-110814936D01*
X117170004Y-110794341D01*
X117169996Y-110794341D01*
X116934596Y-110814936D01*
X116934592Y-110814936D01*
X116934592Y-110814937D01*
X116706337Y-110876097D01*
X116706336Y-110876097D01*
X116706334Y-110876098D01*
X116706333Y-110876098D01*
X116549243Y-110949352D01*
X116492167Y-110975967D01*
X116298602Y-111111502D01*
X116298599Y-111111504D01*
X116131504Y-111278599D01*
X116131502Y-111278602D01*
X115995967Y-111472167D01*
X115995965Y-111472170D01*
X115995965Y-111472171D01*
X115896097Y-111686337D01*
X115882242Y-111738045D01*
X115834936Y-111914596D01*
X115814341Y-112149995D01*
X115814341Y-112150004D01*
X104650500Y-112150004D01*
X104650500Y-107500000D01*
X147119678Y-107500000D01*
X147138916Y-107683034D01*
X147195784Y-107858057D01*
X147287802Y-108017436D01*
X147287805Y-108017441D01*
X147410952Y-108154209D01*
X147559832Y-108262377D01*
X147559839Y-108262381D01*
X147727966Y-108337236D01*
X147907981Y-108375500D01*
X147907982Y-108375500D01*
X148092018Y-108375500D01*
X148092019Y-108375500D01*
X148272034Y-108337236D01*
X148440161Y-108262381D01*
X148589050Y-108154207D01*
X148712195Y-108017440D01*
X148804214Y-107858059D01*
X148861085Y-107683029D01*
X148880322Y-107500000D01*
X148861085Y-107316971D01*
X148857127Y-107304789D01*
X148804215Y-107141942D01*
X148712197Y-106982563D01*
X148712194Y-106982558D01*
X148589047Y-106845790D01*
X148440167Y-106737622D01*
X148440160Y-106737618D01*
X148272035Y-106662764D01*
X148272033Y-106662763D01*
X148130282Y-106632633D01*
X148092019Y-106624500D01*
X147907981Y-106624500D01*
X147876425Y-106631207D01*
X147727966Y-106662763D01*
X147727964Y-106662764D01*
X147559839Y-106737618D01*
X147559832Y-106737622D01*
X147410952Y-106845790D01*
X147287805Y-106982558D01*
X147287802Y-106982563D01*
X147195784Y-107141942D01*
X147138916Y-107316965D01*
X147119678Y-107500000D01*
X104650500Y-107500000D01*
X104650500Y-105400004D01*
X109064341Y-105400004D01*
X109084936Y-105635403D01*
X109084936Y-105635406D01*
X109084937Y-105635408D01*
X109146097Y-105863663D01*
X109245965Y-106077830D01*
X109381505Y-106271401D01*
X109548599Y-106438495D01*
X109742170Y-106574035D01*
X109956337Y-106673903D01*
X110184592Y-106735063D01*
X110302295Y-106745361D01*
X110419996Y-106755659D01*
X110420000Y-106755659D01*
X110420004Y-106755659D01*
X110524625Y-106746505D01*
X110655408Y-106735063D01*
X110883663Y-106673903D01*
X111097830Y-106574035D01*
X111291401Y-106438495D01*
X111458495Y-106271401D01*
X111594035Y-106077830D01*
X111693903Y-105863663D01*
X111755063Y-105635408D01*
X111775659Y-105400004D01*
X122564341Y-105400004D01*
X122584936Y-105635403D01*
X122584936Y-105635406D01*
X122584937Y-105635408D01*
X122646097Y-105863663D01*
X122745965Y-106077830D01*
X122881505Y-106271401D01*
X123048599Y-106438495D01*
X123242170Y-106574035D01*
X123456337Y-106673903D01*
X123684592Y-106735063D01*
X123802295Y-106745361D01*
X123919996Y-106755659D01*
X123920000Y-106755659D01*
X123920004Y-106755659D01*
X124024625Y-106746505D01*
X124155408Y-106735063D01*
X124383663Y-106673903D01*
X124597830Y-106574035D01*
X124791401Y-106438495D01*
X124958495Y-106271401D01*
X125094035Y-106077830D01*
X125193903Y-105863663D01*
X125197564Y-105850000D01*
X128294318Y-105850000D01*
X128314955Y-106006760D01*
X128314955Y-106006761D01*
X128375464Y-106152841D01*
X128471715Y-106278279D01*
X128471720Y-106278284D01*
X128548547Y-106337235D01*
X128597159Y-106374536D01*
X128743238Y-106435044D01*
X128900000Y-106455682D01*
X129056762Y-106435044D01*
X129202841Y-106374536D01*
X129328282Y-106278282D01*
X129424536Y-106152841D01*
X129485044Y-106006762D01*
X129505682Y-105850000D01*
X129493534Y-105757733D01*
X129504490Y-105708315D01*
X129514569Y-105695755D01*
X129563154Y-105647172D01*
X129609030Y-105625781D01*
X129615478Y-105625500D01*
X133684174Y-105625500D01*
X133687394Y-105625640D01*
X133713546Y-105627928D01*
X133728805Y-105629264D01*
X133728805Y-105629263D01*
X133728807Y-105629264D01*
X133768967Y-105618502D01*
X133772100Y-105617807D01*
X133813045Y-105610588D01*
X133817194Y-105608191D01*
X133835055Y-105600794D01*
X133839684Y-105599554D01*
X133873732Y-105575712D01*
X133876450Y-105573980D01*
X133912455Y-105553194D01*
X133939187Y-105521334D01*
X133941348Y-105518976D01*
X134805325Y-104654999D01*
X140629353Y-104654999D01*
X140649834Y-104797454D01*
X140709623Y-104928373D01*
X140803868Y-105037139D01*
X140803869Y-105037140D01*
X140803872Y-105037143D01*
X140924947Y-105114953D01*
X141016861Y-105141941D01*
X141063035Y-105155499D01*
X141063037Y-105155500D01*
X141063039Y-105155500D01*
X141206963Y-105155500D01*
X141206964Y-105155499D01*
X141345053Y-105114953D01*
X141466128Y-105037143D01*
X141493079Y-105006039D01*
X141537312Y-104981430D01*
X141549004Y-104980500D01*
X144220996Y-104980500D01*
X144268562Y-104997813D01*
X144276917Y-105006035D01*
X144303872Y-105037143D01*
X144424947Y-105114953D01*
X144516861Y-105141941D01*
X144563035Y-105155499D01*
X144563037Y-105155500D01*
X144563039Y-105155500D01*
X144706963Y-105155500D01*
X144706964Y-105155499D01*
X144845053Y-105114953D01*
X144966128Y-105037143D01*
X145060377Y-104928373D01*
X145120165Y-104797457D01*
X145140647Y-104655000D01*
X145120165Y-104512543D01*
X145060377Y-104381627D01*
X145010907Y-104324535D01*
X144966131Y-104272860D01*
X144966129Y-104272859D01*
X144966128Y-104272857D01*
X144893164Y-104225966D01*
X144845054Y-104195047D01*
X144845050Y-104195046D01*
X144706964Y-104154500D01*
X144706961Y-104154500D01*
X144563039Y-104154500D01*
X144563036Y-104154500D01*
X144424949Y-104195046D01*
X144424945Y-104195047D01*
X144303875Y-104272855D01*
X144303872Y-104272857D01*
X144276920Y-104303960D01*
X144232688Y-104328570D01*
X144220996Y-104329500D01*
X141549004Y-104329500D01*
X141501438Y-104312187D01*
X141493082Y-104303964D01*
X141466128Y-104272857D01*
X141393164Y-104225966D01*
X141345054Y-104195047D01*
X141345050Y-104195046D01*
X141206964Y-104154500D01*
X141206961Y-104154500D01*
X141063039Y-104154500D01*
X141063036Y-104154500D01*
X140924949Y-104195046D01*
X140924945Y-104195047D01*
X140803875Y-104272855D01*
X140803868Y-104272860D01*
X140709623Y-104381626D01*
X140649834Y-104512545D01*
X140629353Y-104654999D01*
X134805325Y-104654999D01*
X135045750Y-104414574D01*
X135091625Y-104393183D01*
X135107730Y-104393533D01*
X135200000Y-104405682D01*
X135356762Y-104385044D01*
X135502841Y-104324536D01*
X135628282Y-104228282D01*
X135724536Y-104102841D01*
X135785044Y-103956762D01*
X135805682Y-103800000D01*
X135785044Y-103643238D01*
X135724536Y-103497159D01*
X135705285Y-103472070D01*
X135628286Y-103371722D01*
X135628284Y-103371720D01*
X135628282Y-103371719D01*
X135628282Y-103371718D01*
X135554451Y-103315065D01*
X135527254Y-103272373D01*
X135525500Y-103256357D01*
X135525500Y-102864477D01*
X135542813Y-102816911D01*
X135586650Y-102791601D01*
X135636500Y-102800391D01*
X135651823Y-102812149D01*
X135757692Y-102918018D01*
X135758647Y-102918973D01*
X135760819Y-102921343D01*
X135787545Y-102953194D01*
X135823546Y-102973979D01*
X135826270Y-102975715D01*
X135860314Y-102999553D01*
X135860316Y-102999554D01*
X135864949Y-103000795D01*
X135882795Y-103008186D01*
X135886955Y-103010588D01*
X135886958Y-103010588D01*
X135886959Y-103010589D01*
X135886958Y-103010589D01*
X135927888Y-103017806D01*
X135931038Y-103018504D01*
X135971193Y-103029264D01*
X135971193Y-103029263D01*
X135971194Y-103029264D01*
X135979040Y-103028577D01*
X136012610Y-103025640D01*
X136015829Y-103025500D01*
X136071525Y-103025500D01*
X145034522Y-103025500D01*
X145082088Y-103042813D01*
X145086848Y-103047174D01*
X147160244Y-105120570D01*
X147181636Y-105166446D01*
X147178296Y-105195763D01*
X147138916Y-105316964D01*
X147138915Y-105316969D01*
X147138915Y-105316971D01*
X147119678Y-105500000D01*
X147135146Y-105647173D01*
X147138916Y-105683034D01*
X147195784Y-105858057D01*
X147287802Y-106017436D01*
X147287805Y-106017441D01*
X147410952Y-106154209D01*
X147559832Y-106262377D01*
X147559839Y-106262381D01*
X147727966Y-106337236D01*
X147907981Y-106375500D01*
X147907982Y-106375500D01*
X148092018Y-106375500D01*
X148092019Y-106375500D01*
X148272034Y-106337236D01*
X148440161Y-106262381D01*
X148589050Y-106154207D01*
X148712195Y-106017440D01*
X148804214Y-105858059D01*
X148861085Y-105683029D01*
X148880322Y-105500000D01*
X148861085Y-105316971D01*
X148841425Y-105256464D01*
X148804215Y-105141942D01*
X148712197Y-104982563D01*
X148712194Y-104982558D01*
X148589047Y-104845790D01*
X148440167Y-104737622D01*
X148440160Y-104737618D01*
X148272035Y-104662764D01*
X148272033Y-104662763D01*
X148130282Y-104632633D01*
X148092019Y-104624500D01*
X147907981Y-104624500D01*
X147859389Y-104634828D01*
X147727968Y-104662763D01*
X147727967Y-104662763D01*
X147701859Y-104674387D01*
X147651364Y-104677917D01*
X147619436Y-104659110D01*
X145441357Y-102481031D01*
X145439176Y-102478651D01*
X145436363Y-102475299D01*
X145412455Y-102446806D01*
X145395088Y-102436778D01*
X145376458Y-102426022D01*
X145373736Y-102424288D01*
X145339685Y-102400446D01*
X145339682Y-102400445D01*
X145335047Y-102399203D01*
X145317200Y-102391811D01*
X145313044Y-102389411D01*
X145272114Y-102382193D01*
X145268964Y-102381495D01*
X145228806Y-102370735D01*
X145228805Y-102370735D01*
X145195818Y-102373622D01*
X145187394Y-102374359D01*
X145184174Y-102374500D01*
X136165478Y-102374500D01*
X136117912Y-102357187D01*
X136113152Y-102352826D01*
X135547174Y-101786848D01*
X135525782Y-101740972D01*
X135525500Y-101734522D01*
X135525500Y-89204299D01*
X135542813Y-89156733D01*
X135586650Y-89131423D01*
X135636500Y-89140213D01*
X135655424Y-89155838D01*
X135670618Y-89173373D01*
X135738868Y-89252139D01*
X135738869Y-89252140D01*
X135738872Y-89252143D01*
X135859947Y-89329953D01*
X135962115Y-89359952D01*
X135998035Y-89370499D01*
X135998037Y-89370500D01*
X135998039Y-89370500D01*
X136141963Y-89370500D01*
X136141964Y-89370499D01*
X136280053Y-89329953D01*
X136401128Y-89252143D01*
X136402083Y-89251040D01*
X136402966Y-89250549D01*
X136405128Y-89248676D01*
X136405519Y-89249128D01*
X136446318Y-89226429D01*
X136458009Y-89225500D01*
X143835996Y-89225500D01*
X143883562Y-89242813D01*
X143891917Y-89251035D01*
X143918872Y-89282143D01*
X144039947Y-89359953D01*
X144146403Y-89391211D01*
X144178035Y-89400499D01*
X144178037Y-89400500D01*
X144178039Y-89400500D01*
X144321963Y-89400500D01*
X144321964Y-89400499D01*
X144460053Y-89359953D01*
X144581128Y-89282143D01*
X144675377Y-89173373D01*
X144735165Y-89042457D01*
X144755647Y-88900000D01*
X144735165Y-88757543D01*
X144675377Y-88626627D01*
X144636541Y-88581807D01*
X144581131Y-88517860D01*
X144581129Y-88517859D01*
X144581128Y-88517857D01*
X144524182Y-88481260D01*
X144460054Y-88440047D01*
X144460050Y-88440046D01*
X144321964Y-88399500D01*
X144321961Y-88399500D01*
X144178039Y-88399500D01*
X144178036Y-88399500D01*
X144039949Y-88440046D01*
X144039945Y-88440047D01*
X143918875Y-88517855D01*
X143918872Y-88517857D01*
X143891920Y-88548960D01*
X143847688Y-88573570D01*
X143835996Y-88574500D01*
X136509999Y-88574500D01*
X136462433Y-88557187D01*
X136454077Y-88548964D01*
X136401128Y-88487857D01*
X136326734Y-88440047D01*
X136280054Y-88410047D01*
X136280050Y-88410046D01*
X136141964Y-88369500D01*
X136141961Y-88369500D01*
X135998039Y-88369500D01*
X135998036Y-88369500D01*
X135859949Y-88410046D01*
X135859945Y-88410047D01*
X135738875Y-88487855D01*
X135738871Y-88487858D01*
X135738277Y-88488544D01*
X135657102Y-88582226D01*
X135655426Y-88584160D01*
X135611192Y-88608770D01*
X135561488Y-88599191D01*
X135529570Y-88559903D01*
X135525500Y-88535700D01*
X135525500Y-81915825D01*
X135525641Y-81912598D01*
X135526247Y-81905681D01*
X135529264Y-81871193D01*
X135518502Y-81831033D01*
X135517806Y-81827889D01*
X135510589Y-81786958D01*
X135510588Y-81786956D01*
X135510588Y-81786955D01*
X135508186Y-81782795D01*
X135500795Y-81764949D01*
X135499554Y-81760316D01*
X135477121Y-81728279D01*
X135475715Y-81726270D01*
X135473979Y-81723546D01*
X135453193Y-81687543D01*
X135421347Y-81660821D01*
X135418966Y-81658640D01*
X133847174Y-80086848D01*
X133825782Y-80040972D01*
X133825500Y-80034522D01*
X133825500Y-79861486D01*
X133842813Y-79813920D01*
X133869398Y-79793886D01*
X133940161Y-79762381D01*
X134033253Y-79694746D01*
X135124500Y-79694746D01*
X135136133Y-79753232D01*
X135163296Y-79793883D01*
X135180448Y-79819552D01*
X135206912Y-79837235D01*
X135246767Y-79863866D01*
X135246768Y-79863866D01*
X135246769Y-79863867D01*
X135305252Y-79875500D01*
X135305254Y-79875500D01*
X136694746Y-79875500D01*
X136694748Y-79875500D01*
X136753231Y-79863867D01*
X136819552Y-79819552D01*
X136863867Y-79753231D01*
X136875500Y-79694748D01*
X136875500Y-78305252D01*
X136863867Y-78246769D01*
X136857752Y-78237618D01*
X136849027Y-78224560D01*
X136819552Y-78180448D01*
X136797343Y-78165608D01*
X136753232Y-78136133D01*
X136753233Y-78136133D01*
X136723989Y-78130316D01*
X136694748Y-78124500D01*
X135305252Y-78124500D01*
X135276010Y-78130316D01*
X135246767Y-78136133D01*
X135180449Y-78180447D01*
X135180447Y-78180449D01*
X135136133Y-78246767D01*
X135124500Y-78305253D01*
X135124500Y-79694746D01*
X134033253Y-79694746D01*
X134089050Y-79654207D01*
X134212195Y-79517440D01*
X134304214Y-79358059D01*
X134305266Y-79354823D01*
X134361083Y-79183034D01*
X134361085Y-79183029D01*
X134380322Y-79000000D01*
X134361085Y-78816971D01*
X134357127Y-78804789D01*
X134304215Y-78641942D01*
X134212197Y-78482563D01*
X134212194Y-78482558D01*
X134089047Y-78345790D01*
X133940167Y-78237622D01*
X133940160Y-78237618D01*
X133772035Y-78162764D01*
X133772033Y-78162763D01*
X133630281Y-78132633D01*
X133592019Y-78124500D01*
X133407981Y-78124500D01*
X133376425Y-78131207D01*
X133227966Y-78162763D01*
X133227964Y-78162764D01*
X133059839Y-78237618D01*
X133059832Y-78237622D01*
X132910952Y-78345790D01*
X132787805Y-78482558D01*
X132787802Y-78482563D01*
X132695784Y-78641942D01*
X132638916Y-78816965D01*
X132619678Y-79000000D01*
X132638916Y-79183034D01*
X132678296Y-79304234D01*
X132676530Y-79354822D01*
X132660244Y-79379427D01*
X131148590Y-80891082D01*
X131102714Y-80912474D01*
X131053819Y-80899373D01*
X131037555Y-80883803D01*
X131028283Y-80871719D01*
X131028279Y-80871715D01*
X130902841Y-80775464D01*
X130756761Y-80714955D01*
X130600000Y-80694318D01*
X130443239Y-80714955D01*
X130443238Y-80714955D01*
X130297158Y-80775464D01*
X130171720Y-80871715D01*
X130171715Y-80871720D01*
X130075464Y-80997158D01*
X130014955Y-81143238D01*
X130014955Y-81143239D01*
X129994318Y-81300000D01*
X130014955Y-81456760D01*
X130014955Y-81456761D01*
X130075464Y-81602841D01*
X130171715Y-81728279D01*
X130171720Y-81728284D01*
X130219497Y-81764944D01*
X130297159Y-81824536D01*
X130443238Y-81885044D01*
X130600000Y-81905682D01*
X130756762Y-81885044D01*
X130902841Y-81824536D01*
X131028282Y-81728282D01*
X131048659Y-81701725D01*
X131084934Y-81654452D01*
X131127625Y-81627254D01*
X131143642Y-81625500D01*
X131184174Y-81625500D01*
X131187394Y-81625640D01*
X131213546Y-81627928D01*
X131228805Y-81629264D01*
X131228805Y-81629263D01*
X131228807Y-81629264D01*
X131268967Y-81618502D01*
X131272100Y-81617807D01*
X131313045Y-81610588D01*
X131317194Y-81608191D01*
X131335055Y-81600794D01*
X131339684Y-81599554D01*
X131373732Y-81575712D01*
X131376450Y-81573980D01*
X131412455Y-81553194D01*
X131439187Y-81521334D01*
X131441348Y-81518976D01*
X133048175Y-79912150D01*
X133094050Y-79890759D01*
X133142945Y-79903860D01*
X133171979Y-79945324D01*
X133174500Y-79964477D01*
X133174500Y-80184173D01*
X133174359Y-80187400D01*
X133170735Y-80228805D01*
X133170735Y-80228806D01*
X133181495Y-80268964D01*
X133182193Y-80272114D01*
X133189411Y-80313044D01*
X133191811Y-80317200D01*
X133199203Y-80335047D01*
X133200445Y-80339682D01*
X133200446Y-80339685D01*
X133224288Y-80373736D01*
X133226022Y-80376458D01*
X133234812Y-80391681D01*
X133246806Y-80412455D01*
X133246808Y-80412457D01*
X133246807Y-80412457D01*
X133262744Y-80425829D01*
X133278658Y-80439182D01*
X133281027Y-80441353D01*
X134852826Y-82013152D01*
X134874218Y-82059028D01*
X134874500Y-82065478D01*
X134874500Y-101884173D01*
X134874359Y-101887400D01*
X134870735Y-101928805D01*
X134870736Y-101928807D01*
X134871891Y-101933119D01*
X134871978Y-101933441D01*
X134874500Y-101952595D01*
X134874500Y-103256357D01*
X134857187Y-103303923D01*
X134845549Y-103315065D01*
X134771715Y-103371720D01*
X134771713Y-103371722D01*
X134675464Y-103497158D01*
X134614955Y-103643238D01*
X134614955Y-103643239D01*
X134594318Y-103800000D01*
X134606464Y-103892265D01*
X134595508Y-103941684D01*
X134585423Y-103954249D01*
X133586848Y-104952826D01*
X133540972Y-104974218D01*
X133534522Y-104974500D01*
X129465814Y-104974500D01*
X129462593Y-104974359D01*
X129453597Y-104973572D01*
X129421194Y-104970736D01*
X129421192Y-104970736D01*
X129381045Y-104981493D01*
X129377895Y-104982191D01*
X129336959Y-104989410D01*
X129336953Y-104989412D01*
X129332788Y-104991817D01*
X129314956Y-104999203D01*
X129310315Y-105000447D01*
X129310314Y-105000447D01*
X129276270Y-105024285D01*
X129273547Y-105026020D01*
X129237546Y-105046805D01*
X129210832Y-105078639D01*
X129208651Y-105081019D01*
X129054249Y-105235423D01*
X129008373Y-105256815D01*
X128992265Y-105256464D01*
X128900000Y-105244318D01*
X128743239Y-105264955D01*
X128743238Y-105264955D01*
X128597158Y-105325464D01*
X128471720Y-105421715D01*
X128471715Y-105421720D01*
X128375464Y-105547158D01*
X128314955Y-105693238D01*
X128314955Y-105693239D01*
X128294318Y-105850000D01*
X125197564Y-105850000D01*
X125255063Y-105635408D01*
X125275659Y-105400000D01*
X125255063Y-105164592D01*
X125193903Y-104936337D01*
X125094035Y-104722171D01*
X124958495Y-104528599D01*
X124791401Y-104361505D01*
X124791398Y-104361503D01*
X124791399Y-104361503D01*
X124709218Y-104303960D01*
X124597830Y-104225965D01*
X124383663Y-104126097D01*
X124155408Y-104064937D01*
X124155406Y-104064936D01*
X124155403Y-104064936D01*
X123920004Y-104044341D01*
X123919996Y-104044341D01*
X123684596Y-104064936D01*
X123684592Y-104064936D01*
X123684592Y-104064937D01*
X123456337Y-104126097D01*
X123456336Y-104126097D01*
X123456334Y-104126098D01*
X123456333Y-104126098D01*
X123308475Y-104195047D01*
X123242167Y-104225967D01*
X123048602Y-104361502D01*
X123048599Y-104361504D01*
X122881504Y-104528599D01*
X122881502Y-104528602D01*
X122745967Y-104722167D01*
X122745965Y-104722170D01*
X122745965Y-104722171D01*
X122646097Y-104936337D01*
X122587373Y-105155500D01*
X122584936Y-105164596D01*
X122564341Y-105399995D01*
X122564341Y-105400004D01*
X111775659Y-105400004D01*
X111775659Y-105400000D01*
X111755063Y-105164592D01*
X111693903Y-104936337D01*
X111594035Y-104722171D01*
X111458495Y-104528599D01*
X111291401Y-104361505D01*
X111291398Y-104361503D01*
X111291399Y-104361503D01*
X111209218Y-104303960D01*
X111097830Y-104225965D01*
X110883663Y-104126097D01*
X110655408Y-104064937D01*
X110655406Y-104064936D01*
X110655403Y-104064936D01*
X110420004Y-104044341D01*
X110419996Y-104044341D01*
X110184596Y-104064936D01*
X110184592Y-104064936D01*
X110184592Y-104064937D01*
X109956337Y-104126097D01*
X109956336Y-104126097D01*
X109956334Y-104126098D01*
X109956333Y-104126098D01*
X109808475Y-104195047D01*
X109742167Y-104225967D01*
X109548602Y-104361502D01*
X109548599Y-104361504D01*
X109381504Y-104528599D01*
X109381502Y-104528602D01*
X109245967Y-104722167D01*
X109245965Y-104722170D01*
X109245965Y-104722171D01*
X109146097Y-104936337D01*
X109087373Y-105155500D01*
X109084936Y-105164596D01*
X109064341Y-105399995D01*
X109064341Y-105400004D01*
X104650500Y-105400004D01*
X104650500Y-102601538D01*
X104661930Y-102570133D01*
X104660064Y-102569364D01*
X104665812Y-102555411D01*
X104665812Y-100629812D01*
X104683125Y-100582246D01*
X104726962Y-100556936D01*
X104739812Y-100555812D01*
X110334688Y-100555812D01*
X110334968Y-100555914D01*
X110365312Y-100555837D01*
X110365312Y-100555838D01*
X110400314Y-100555750D01*
X110447923Y-100572943D01*
X110473342Y-100616717D01*
X110474499Y-100629749D01*
X110474500Y-100730811D01*
X110457188Y-100778378D01*
X110413351Y-100803688D01*
X110400500Y-100804812D01*
X109871603Y-100804812D01*
X109741057Y-100820071D01*
X109741052Y-100820072D01*
X109576196Y-100880074D01*
X109429617Y-100976480D01*
X109309218Y-101104096D01*
X109257999Y-101192812D01*
X109219223Y-101225349D01*
X109193913Y-101229812D01*
X107440922Y-101229812D01*
X107393356Y-101212499D01*
X107372975Y-101185124D01*
X107369692Y-101177513D01*
X107369686Y-101177504D01*
X107327589Y-101120958D01*
X107264922Y-101036782D01*
X107220407Y-100999429D01*
X107130527Y-100924010D01*
X107130528Y-100924010D01*
X106973746Y-100845272D01*
X106973742Y-100845271D01*
X106803033Y-100804812D01*
X105671603Y-100804812D01*
X105541057Y-100820071D01*
X105541052Y-100820072D01*
X105376196Y-100880074D01*
X105229617Y-100976480D01*
X105109219Y-101104095D01*
X105021499Y-101256032D01*
X104971183Y-101424098D01*
X104971182Y-101424103D01*
X104960981Y-101599248D01*
X104991447Y-101772023D01*
X105060934Y-101933115D01*
X105060937Y-101933119D01*
X105094789Y-101978590D01*
X105165702Y-102073842D01*
X105165708Y-102073847D01*
X105300096Y-102186613D01*
X105300095Y-102186613D01*
X105387580Y-102230549D01*
X105456879Y-102265352D01*
X105627591Y-102305812D01*
X106759021Y-102305812D01*
X106889567Y-102290553D01*
X107054429Y-102230549D01*
X107201008Y-102134142D01*
X107321404Y-102006530D01*
X107372625Y-101917811D01*
X107411401Y-101885275D01*
X107436711Y-101880812D01*
X109189702Y-101880812D01*
X109237268Y-101898125D01*
X109257649Y-101925500D01*
X109260931Y-101933110D01*
X109260937Y-101933119D01*
X109294789Y-101978590D01*
X109365702Y-102073842D01*
X109365708Y-102073847D01*
X109500096Y-102186613D01*
X109500095Y-102186613D01*
X109587580Y-102230549D01*
X109656879Y-102265352D01*
X109827591Y-102305812D01*
X110559021Y-102305812D01*
X110689567Y-102290553D01*
X110854429Y-102230549D01*
X111001008Y-102134142D01*
X111121404Y-102006530D01*
X111209124Y-101854593D01*
X111259442Y-101686522D01*
X111269643Y-101511377D01*
X111239177Y-101338601D01*
X111169689Y-101177508D01*
X111127589Y-101120958D01*
X111113071Y-101072466D01*
X111114070Y-101063919D01*
X111117805Y-101042738D01*
X111118504Y-101039584D01*
X111119255Y-101036782D01*
X111129264Y-100999431D01*
X111125638Y-100957990D01*
X111125499Y-100954816D01*
X111125499Y-96025312D01*
X121777165Y-96025312D01*
X121797646Y-96167766D01*
X121857435Y-96298685D01*
X121951680Y-96407451D01*
X121951681Y-96407452D01*
X121951684Y-96407455D01*
X122072759Y-96485265D01*
X122179215Y-96516523D01*
X122210847Y-96525811D01*
X122210849Y-96525812D01*
X122210851Y-96525812D01*
X122354775Y-96525812D01*
X122354776Y-96525811D01*
X122492865Y-96485265D01*
X122613940Y-96407455D01*
X122708189Y-96298685D01*
X122767977Y-96167769D01*
X122788459Y-96025312D01*
X122788033Y-96022351D01*
X122788458Y-96020318D01*
X122788459Y-96020020D01*
X122788521Y-96020020D01*
X122798400Y-95972808D01*
X122808950Y-95959500D01*
X122855965Y-95912485D01*
X122901843Y-95891093D01*
X122908291Y-95890812D01*
X125126986Y-95890812D01*
X125130206Y-95890952D01*
X125156358Y-95893240D01*
X125171617Y-95894576D01*
X125171617Y-95894575D01*
X125171619Y-95894576D01*
X125211779Y-95883814D01*
X125214912Y-95883119D01*
X125255857Y-95875900D01*
X125260006Y-95873503D01*
X125277867Y-95866106D01*
X125282496Y-95864866D01*
X125316544Y-95841024D01*
X125319262Y-95839292D01*
X125355267Y-95818506D01*
X125381999Y-95786646D01*
X125384159Y-95784289D01*
X126005964Y-95162486D01*
X126051842Y-95141094D01*
X126058291Y-95140812D01*
X126068808Y-95140812D01*
X126116374Y-95158125D01*
X126124729Y-95166347D01*
X126151684Y-95197455D01*
X126217374Y-95239671D01*
X126256028Y-95264513D01*
X126272759Y-95275265D01*
X126379215Y-95306523D01*
X126410847Y-95315811D01*
X126410849Y-95315812D01*
X126410851Y-95315812D01*
X126554775Y-95315812D01*
X126554776Y-95315811D01*
X126692865Y-95275265D01*
X126777189Y-95221072D01*
X126826564Y-95209921D01*
X126871556Y-95233116D01*
X126891112Y-95279805D01*
X126891196Y-95283326D01*
X126891196Y-95748450D01*
X126873883Y-95796016D01*
X126869522Y-95800776D01*
X126427160Y-96243138D01*
X126381284Y-96264530D01*
X126374834Y-96264812D01*
X126293348Y-96264812D01*
X126155261Y-96305358D01*
X126155257Y-96305359D01*
X126034187Y-96383167D01*
X126034180Y-96383172D01*
X125939935Y-96491938D01*
X125880146Y-96622857D01*
X125859665Y-96765312D01*
X125880146Y-96907766D01*
X125939935Y-97038685D01*
X126034180Y-97147451D01*
X126034181Y-97147452D01*
X126034184Y-97147455D01*
X126155259Y-97225265D01*
X126261715Y-97256523D01*
X126293347Y-97265811D01*
X126293349Y-97265812D01*
X126293351Y-97265812D01*
X126437275Y-97265812D01*
X126437276Y-97265811D01*
X126575365Y-97225265D01*
X126696440Y-97147455D01*
X126790689Y-97038685D01*
X126850477Y-96907769D01*
X126870959Y-96765312D01*
X126870534Y-96762354D01*
X126870959Y-96760322D01*
X126870959Y-96760018D01*
X126871023Y-96760018D01*
X126880899Y-96712808D01*
X126891450Y-96699498D01*
X127435679Y-96155269D01*
X127438025Y-96153119D01*
X127469890Y-96126383D01*
X127490676Y-96090378D01*
X127492408Y-96087661D01*
X127516249Y-96053613D01*
X127516250Y-96053612D01*
X127517490Y-96048982D01*
X127524889Y-96031120D01*
X127527284Y-96026973D01*
X127534503Y-95986028D01*
X127535200Y-95982888D01*
X127541469Y-95959494D01*
X127545960Y-95942735D01*
X127542334Y-95901294D01*
X127542196Y-95898120D01*
X127542196Y-87400000D01*
X133394353Y-87400000D01*
X133414834Y-87542454D01*
X133414834Y-87542455D01*
X133414835Y-87542457D01*
X133474623Y-87673373D01*
X133556426Y-87767780D01*
X133574491Y-87815064D01*
X133574500Y-87816238D01*
X133574500Y-94436535D01*
X133557187Y-94484101D01*
X133556426Y-94484994D01*
X133499125Y-94551122D01*
X133499124Y-94551124D01*
X133439334Y-94682045D01*
X133418853Y-94824500D01*
X133439334Y-94966954D01*
X133499123Y-95097873D01*
X133593368Y-95206639D01*
X133593369Y-95206640D01*
X133593372Y-95206643D01*
X133668188Y-95254724D01*
X133707214Y-95279805D01*
X133714447Y-95284453D01*
X133808673Y-95312120D01*
X133852535Y-95324999D01*
X133852537Y-95325000D01*
X133852539Y-95325000D01*
X133996463Y-95325000D01*
X133996464Y-95324999D01*
X134134553Y-95284453D01*
X134255628Y-95206643D01*
X134349877Y-95097873D01*
X134409665Y-94966957D01*
X134430147Y-94824500D01*
X134409665Y-94682043D01*
X134349877Y-94551127D01*
X134255628Y-94442357D01*
X134251626Y-94438889D01*
X134253397Y-94436845D01*
X134228825Y-94404519D01*
X134225500Y-94382587D01*
X134225500Y-87816238D01*
X134242813Y-87768672D01*
X134243504Y-87767859D01*
X134325377Y-87673373D01*
X134385165Y-87542457D01*
X134405647Y-87400000D01*
X134385165Y-87257543D01*
X134325377Y-87126627D01*
X134262300Y-87053832D01*
X134231131Y-87017860D01*
X134231129Y-87017859D01*
X134231128Y-87017857D01*
X134174182Y-86981260D01*
X134110054Y-86940047D01*
X134110050Y-86940046D01*
X133971964Y-86899500D01*
X133971961Y-86899500D01*
X133828039Y-86899500D01*
X133828036Y-86899500D01*
X133689949Y-86940046D01*
X133689945Y-86940047D01*
X133568875Y-87017855D01*
X133568868Y-87017860D01*
X133474623Y-87126626D01*
X133414834Y-87257545D01*
X133394353Y-87400000D01*
X127542196Y-87400000D01*
X127542196Y-82948778D01*
X127559508Y-82901215D01*
X127563847Y-82896478D01*
X130619436Y-79840888D01*
X130665311Y-79819497D01*
X130701859Y-79825613D01*
X130727963Y-79837235D01*
X130727964Y-79837235D01*
X130727966Y-79837236D01*
X130907981Y-79875500D01*
X130907982Y-79875500D01*
X131092018Y-79875500D01*
X131092019Y-79875500D01*
X131272034Y-79837236D01*
X131440161Y-79762381D01*
X131589050Y-79654207D01*
X131712195Y-79517440D01*
X131804214Y-79358059D01*
X131805266Y-79354823D01*
X131861083Y-79183034D01*
X131861085Y-79183029D01*
X131880322Y-79000000D01*
X131861085Y-78816971D01*
X131857127Y-78804789D01*
X131804215Y-78641942D01*
X131712197Y-78482563D01*
X131712194Y-78482558D01*
X131589047Y-78345790D01*
X131440167Y-78237622D01*
X131440160Y-78237618D01*
X131272035Y-78162764D01*
X131272033Y-78162763D01*
X131130281Y-78132633D01*
X131092019Y-78124500D01*
X130907981Y-78124500D01*
X130876425Y-78131207D01*
X130727966Y-78162763D01*
X130727964Y-78162764D01*
X130559839Y-78237618D01*
X130559832Y-78237622D01*
X130410952Y-78345790D01*
X130287805Y-78482558D01*
X130287802Y-78482563D01*
X130195784Y-78641942D01*
X130138916Y-78816965D01*
X130119678Y-78999999D01*
X130138916Y-79183035D01*
X130178296Y-79304235D01*
X130176530Y-79354823D01*
X130160244Y-79379428D01*
X126997726Y-82541945D01*
X126995346Y-82544126D01*
X126963504Y-82570846D01*
X126963501Y-82570849D01*
X126942715Y-82606850D01*
X126940981Y-82609572D01*
X126917143Y-82643616D01*
X126917141Y-82643621D01*
X126915897Y-82648263D01*
X126908511Y-82666094D01*
X126906108Y-82670255D01*
X126906108Y-82670256D01*
X126898889Y-82711188D01*
X126898191Y-82714337D01*
X126887431Y-82754496D01*
X126887431Y-82754498D01*
X126891055Y-82795902D01*
X126891196Y-82799129D01*
X126891196Y-94347297D01*
X126873883Y-94394863D01*
X126830046Y-94420173D01*
X126780196Y-94411383D01*
X126777189Y-94409550D01*
X126723683Y-94375165D01*
X126692865Y-94355359D01*
X126692862Y-94355358D01*
X126554776Y-94314812D01*
X126554773Y-94314812D01*
X126410851Y-94314812D01*
X126410848Y-94314812D01*
X126272761Y-94355358D01*
X126272757Y-94355359D01*
X126151687Y-94433167D01*
X126151684Y-94433169D01*
X126124732Y-94464272D01*
X126080500Y-94488882D01*
X126068808Y-94489812D01*
X125908630Y-94489812D01*
X125905411Y-94489671D01*
X125895432Y-94488798D01*
X125864007Y-94486048D01*
X125864006Y-94486048D01*
X125823856Y-94496806D01*
X125820706Y-94497504D01*
X125779765Y-94504724D01*
X125779763Y-94504724D01*
X125775602Y-94507127D01*
X125757771Y-94514513D01*
X125753129Y-94515757D01*
X125753124Y-94515759D01*
X125719077Y-94539599D01*
X125716356Y-94541333D01*
X125680361Y-94562115D01*
X125680355Y-94562120D01*
X125653644Y-94593951D01*
X125651463Y-94596331D01*
X125029660Y-95218138D01*
X124983784Y-95239530D01*
X124977334Y-95239812D01*
X122758630Y-95239812D01*
X122755411Y-95239671D01*
X122745432Y-95238798D01*
X122714007Y-95236048D01*
X122714006Y-95236048D01*
X122673856Y-95246806D01*
X122670706Y-95247504D01*
X122629765Y-95254724D01*
X122629763Y-95254724D01*
X122625602Y-95257127D01*
X122607771Y-95264513D01*
X122603129Y-95265757D01*
X122603124Y-95265759D01*
X122569077Y-95289599D01*
X122566356Y-95291333D01*
X122530361Y-95312115D01*
X122530355Y-95312120D01*
X122503644Y-95343951D01*
X122501464Y-95346331D01*
X122344659Y-95503138D01*
X122298783Y-95524530D01*
X122292333Y-95524812D01*
X122210848Y-95524812D01*
X122072761Y-95565358D01*
X122072757Y-95565359D01*
X121951687Y-95643167D01*
X121951680Y-95643172D01*
X121857435Y-95751938D01*
X121797646Y-95882857D01*
X121777165Y-96025312D01*
X111125499Y-96025312D01*
X111125499Y-93600311D01*
X115127165Y-93600311D01*
X115147646Y-93742766D01*
X115207435Y-93873685D01*
X115301680Y-93982451D01*
X115301681Y-93982452D01*
X115301684Y-93982455D01*
X115422759Y-94060265D01*
X115529215Y-94091523D01*
X115560847Y-94100811D01*
X115560849Y-94100812D01*
X115560851Y-94100812D01*
X115704775Y-94100812D01*
X115704776Y-94100811D01*
X115842865Y-94060265D01*
X115963940Y-93982455D01*
X116058189Y-93873685D01*
X116117977Y-93742769D01*
X116138459Y-93600312D01*
X116117977Y-93457855D01*
X116058627Y-93327900D01*
X116054615Y-93277442D01*
X116073612Y-93244836D01*
X120070963Y-89247486D01*
X120116840Y-89226094D01*
X120123290Y-89225812D01*
X124542334Y-89225812D01*
X124589900Y-89243125D01*
X124594660Y-89247486D01*
X125685638Y-90338464D01*
X125707030Y-90384340D01*
X125707312Y-90390790D01*
X125707312Y-91109073D01*
X125689999Y-91156639D01*
X125689238Y-91157532D01*
X125607435Y-91251938D01*
X125547646Y-91382857D01*
X125527165Y-91525312D01*
X125547646Y-91667766D01*
X125607435Y-91798685D01*
X125701680Y-91907451D01*
X125701681Y-91907452D01*
X125701684Y-91907455D01*
X125791007Y-91964859D01*
X125822268Y-91984950D01*
X125822759Y-91985265D01*
X125909060Y-92010605D01*
X125960847Y-92025811D01*
X125960849Y-92025812D01*
X125960851Y-92025812D01*
X126104775Y-92025812D01*
X126104776Y-92025811D01*
X126242865Y-91985265D01*
X126363940Y-91907455D01*
X126458189Y-91798685D01*
X126517977Y-91667769D01*
X126538459Y-91525312D01*
X126517977Y-91382855D01*
X126458189Y-91251939D01*
X126376385Y-91157531D01*
X126358320Y-91110246D01*
X126358311Y-91109072D01*
X126358311Y-90693110D01*
X126358311Y-90241114D01*
X126358450Y-90237940D01*
X126362076Y-90196505D01*
X126360833Y-90191865D01*
X126358312Y-90172715D01*
X126358312Y-80832665D01*
X126375625Y-80785099D01*
X126379975Y-80780350D01*
X130619436Y-76540888D01*
X130665311Y-76519497D01*
X130701859Y-76525613D01*
X130727963Y-76537235D01*
X130727964Y-76537235D01*
X130727966Y-76537236D01*
X130907981Y-76575500D01*
X130907982Y-76575500D01*
X131092018Y-76575500D01*
X131092019Y-76575500D01*
X131272034Y-76537236D01*
X131440161Y-76462381D01*
X131589050Y-76354207D01*
X131712195Y-76217440D01*
X131804214Y-76058059D01*
X131805266Y-76054823D01*
X131850828Y-75914596D01*
X131861085Y-75883029D01*
X131880322Y-75700000D01*
X132619678Y-75700000D01*
X132638916Y-75883034D01*
X132695784Y-76058057D01*
X132787802Y-76217436D01*
X132787805Y-76217441D01*
X132910952Y-76354209D01*
X133059832Y-76462377D01*
X133059839Y-76462381D01*
X133227966Y-76537236D01*
X133407981Y-76575500D01*
X133407982Y-76575500D01*
X133592018Y-76575500D01*
X133592019Y-76575500D01*
X133772034Y-76537236D01*
X133940161Y-76462381D01*
X134089050Y-76354207D01*
X134212195Y-76217440D01*
X134304214Y-76058059D01*
X134305266Y-76054823D01*
X134350828Y-75914596D01*
X134361085Y-75883029D01*
X134380322Y-75700000D01*
X135119678Y-75700000D01*
X135138916Y-75883034D01*
X135195784Y-76058057D01*
X135287802Y-76217436D01*
X135287805Y-76217441D01*
X135410952Y-76354209D01*
X135559832Y-76462377D01*
X135559839Y-76462381D01*
X135727966Y-76537236D01*
X135907981Y-76575500D01*
X135907982Y-76575500D01*
X136092018Y-76575500D01*
X136092019Y-76575500D01*
X136272034Y-76537236D01*
X136440161Y-76462381D01*
X136589050Y-76354207D01*
X136712195Y-76217440D01*
X136804214Y-76058059D01*
X136805266Y-76054823D01*
X136850828Y-75914596D01*
X136861085Y-75883029D01*
X136880322Y-75700000D01*
X136861085Y-75516971D01*
X136846527Y-75472167D01*
X136804215Y-75341942D01*
X136712197Y-75182563D01*
X136712194Y-75182558D01*
X136589047Y-75045790D01*
X136440167Y-74937622D01*
X136440160Y-74937618D01*
X136272035Y-74862764D01*
X136272033Y-74862763D01*
X136130282Y-74832633D01*
X136092019Y-74824500D01*
X135907981Y-74824500D01*
X135876425Y-74831207D01*
X135727966Y-74862763D01*
X135727964Y-74862764D01*
X135559839Y-74937618D01*
X135559832Y-74937622D01*
X135410952Y-75045790D01*
X135287805Y-75182558D01*
X135287802Y-75182563D01*
X135195784Y-75341942D01*
X135138916Y-75516965D01*
X135119678Y-75700000D01*
X134380322Y-75700000D01*
X134361085Y-75516971D01*
X134346527Y-75472167D01*
X134304215Y-75341942D01*
X134212197Y-75182563D01*
X134212194Y-75182558D01*
X134089047Y-75045790D01*
X133940167Y-74937622D01*
X133940160Y-74937618D01*
X133772035Y-74862764D01*
X133772033Y-74862763D01*
X133630282Y-74832633D01*
X133592019Y-74824500D01*
X133407981Y-74824500D01*
X133376425Y-74831207D01*
X133227966Y-74862763D01*
X133227964Y-74862764D01*
X133059839Y-74937618D01*
X133059832Y-74937622D01*
X132910952Y-75045790D01*
X132787805Y-75182558D01*
X132787802Y-75182563D01*
X132695784Y-75341942D01*
X132638916Y-75516965D01*
X132619678Y-75700000D01*
X131880322Y-75700000D01*
X131861085Y-75516971D01*
X131846527Y-75472167D01*
X131804215Y-75341942D01*
X131712197Y-75182563D01*
X131712194Y-75182558D01*
X131589047Y-75045790D01*
X131440167Y-74937622D01*
X131440160Y-74937618D01*
X131272035Y-74862764D01*
X131272033Y-74862763D01*
X131130281Y-74832633D01*
X131092019Y-74824500D01*
X130907981Y-74824500D01*
X130876425Y-74831207D01*
X130727966Y-74862763D01*
X130727964Y-74862764D01*
X130559839Y-74937618D01*
X130559832Y-74937622D01*
X130410952Y-75045790D01*
X130287805Y-75182558D01*
X130287802Y-75182563D01*
X130195784Y-75341942D01*
X130138916Y-75516965D01*
X130119678Y-75700000D01*
X130138916Y-75883035D01*
X130178296Y-76004235D01*
X130176530Y-76054823D01*
X130160244Y-76079428D01*
X125813842Y-80425829D01*
X125811462Y-80428010D01*
X125779620Y-80454730D01*
X125779617Y-80454733D01*
X125758831Y-80490734D01*
X125757097Y-80493456D01*
X125733259Y-80527500D01*
X125733257Y-80527505D01*
X125732013Y-80532147D01*
X125724627Y-80549978D01*
X125722224Y-80554139D01*
X125722224Y-80554140D01*
X125715005Y-80595072D01*
X125714307Y-80598221D01*
X125703547Y-80638380D01*
X125703547Y-80638382D01*
X125707171Y-80679786D01*
X125707312Y-80683013D01*
X125707311Y-89260833D01*
X125689998Y-89308399D01*
X125646161Y-89333709D01*
X125596311Y-89324919D01*
X125580985Y-89313159D01*
X124949169Y-88681343D01*
X124946988Y-88678963D01*
X124944175Y-88675611D01*
X124920267Y-88647118D01*
X124902900Y-88637090D01*
X124884270Y-88626334D01*
X124881548Y-88624600D01*
X124847497Y-88600758D01*
X124847494Y-88600757D01*
X124842859Y-88599515D01*
X124825012Y-88592123D01*
X124820856Y-88589723D01*
X124779926Y-88582505D01*
X124776776Y-88581807D01*
X124736618Y-88571047D01*
X124736617Y-88571047D01*
X124703630Y-88573934D01*
X124695206Y-88574671D01*
X124691986Y-88574812D01*
X119973638Y-88574812D01*
X119970417Y-88574671D01*
X119961462Y-88573887D01*
X119929006Y-88571047D01*
X119929004Y-88571047D01*
X119888845Y-88581807D01*
X119885696Y-88582505D01*
X119844764Y-88589724D01*
X119844763Y-88589724D01*
X119840602Y-88592127D01*
X119822771Y-88599513D01*
X119818129Y-88600757D01*
X119818124Y-88600759D01*
X119784080Y-88624597D01*
X119781359Y-88626331D01*
X119745359Y-88647116D01*
X119745355Y-88647120D01*
X119718639Y-88678957D01*
X119716458Y-88681338D01*
X115413842Y-92983953D01*
X115411462Y-92986134D01*
X115379620Y-93012854D01*
X115379617Y-93012857D01*
X115358831Y-93048858D01*
X115357097Y-93051580D01*
X115333259Y-93085624D01*
X115333257Y-93085629D01*
X115332013Y-93090271D01*
X115324627Y-93108102D01*
X115322224Y-93112263D01*
X115322224Y-93112264D01*
X115315005Y-93153196D01*
X115314307Y-93156346D01*
X115301873Y-93202756D01*
X115300343Y-93202346D01*
X115285946Y-93236330D01*
X115207435Y-93326937D01*
X115147646Y-93457857D01*
X115127165Y-93600311D01*
X111125499Y-93600311D01*
X111125499Y-90915802D01*
X111125638Y-90912628D01*
X111129264Y-90871193D01*
X111118504Y-90831038D01*
X111117806Y-90827890D01*
X111115037Y-90812186D01*
X111123824Y-90762337D01*
X111209124Y-90614593D01*
X111259442Y-90446522D01*
X111269643Y-90271377D01*
X111239177Y-90098601D01*
X111169689Y-89937508D01*
X111064922Y-89796782D01*
X111064915Y-89796776D01*
X110930527Y-89684010D01*
X110930528Y-89684010D01*
X110773746Y-89605272D01*
X110773742Y-89605271D01*
X110603033Y-89564812D01*
X109871603Y-89564812D01*
X109741057Y-89580071D01*
X109741052Y-89580072D01*
X109576196Y-89640074D01*
X109429617Y-89736480D01*
X109309218Y-89864096D01*
X109257999Y-89952812D01*
X109219223Y-89985349D01*
X109193913Y-89989812D01*
X107440922Y-89989812D01*
X107393356Y-89972499D01*
X107372975Y-89945124D01*
X107369692Y-89937513D01*
X107369686Y-89937504D01*
X107264922Y-89796782D01*
X107264915Y-89796776D01*
X107130527Y-89684010D01*
X107130528Y-89684010D01*
X106973746Y-89605272D01*
X106973742Y-89605271D01*
X106803033Y-89564812D01*
X105671603Y-89564812D01*
X105541057Y-89580071D01*
X105541052Y-89580072D01*
X105376196Y-89640074D01*
X105229617Y-89736480D01*
X105109219Y-89864095D01*
X105021499Y-90016032D01*
X104974591Y-90172715D01*
X104971182Y-90184102D01*
X104962192Y-90338464D01*
X104960981Y-90359248D01*
X104991447Y-90532023D01*
X105060934Y-90693115D01*
X105060935Y-90693116D01*
X105165702Y-90833842D01*
X105165708Y-90833847D01*
X105300096Y-90946613D01*
X105300095Y-90946613D01*
X105387580Y-90990549D01*
X105456879Y-91025352D01*
X105627591Y-91065812D01*
X106759021Y-91065812D01*
X106889567Y-91050553D01*
X107054429Y-90990549D01*
X107201008Y-90894142D01*
X107321404Y-90766530D01*
X107372625Y-90677811D01*
X107411401Y-90645275D01*
X107436711Y-90640812D01*
X109189702Y-90640812D01*
X109237268Y-90658125D01*
X109257649Y-90685500D01*
X109260931Y-90693110D01*
X109260935Y-90693116D01*
X109365702Y-90833842D01*
X109365708Y-90833847D01*
X109500096Y-90946613D01*
X109500095Y-90946613D01*
X109587580Y-90990549D01*
X109656879Y-91025352D01*
X109827591Y-91065812D01*
X110400500Y-91065812D01*
X110448066Y-91083125D01*
X110473376Y-91126962D01*
X110474500Y-91139812D01*
X110474500Y-91240899D01*
X110457187Y-91288465D01*
X110413350Y-91313775D01*
X110400319Y-91314898D01*
X110365411Y-91314812D01*
X104739812Y-91314812D01*
X104692246Y-91297499D01*
X104666936Y-91253662D01*
X104665812Y-91240812D01*
X104665812Y-89315211D01*
X104664404Y-89308097D01*
X104664753Y-89308027D01*
X104660914Y-89288513D01*
X104660929Y-89282144D01*
X104663811Y-87985312D01*
X109064807Y-87985312D01*
X109114961Y-88161583D01*
X109114963Y-88161588D01*
X109212027Y-88356521D01*
X109212029Y-88356524D01*
X109343254Y-88530295D01*
X109343255Y-88530296D01*
X109504182Y-88676998D01*
X109689321Y-88791631D01*
X109689331Y-88791636D01*
X109892377Y-88870298D01*
X109965312Y-88883931D01*
X109965312Y-88177618D01*
X109982625Y-88130052D01*
X110026462Y-88104742D01*
X110072908Y-88111684D01*
X110090164Y-88120477D01*
X110168994Y-88132962D01*
X110183830Y-88135312D01*
X110183831Y-88135312D01*
X110246794Y-88135312D01*
X110260879Y-88133081D01*
X110340460Y-88120477D01*
X110357715Y-88111684D01*
X110407955Y-88105514D01*
X110450409Y-88133081D01*
X110465312Y-88177618D01*
X110465312Y-88883931D01*
X110538246Y-88870298D01*
X110741292Y-88791636D01*
X110741302Y-88791631D01*
X110926441Y-88676998D01*
X110926442Y-88676998D01*
X111087368Y-88530296D01*
X111087369Y-88530295D01*
X111206759Y-88372196D01*
X111249239Y-88344671D01*
X111299475Y-88350891D01*
X111333959Y-88387947D01*
X111339812Y-88416790D01*
X111339812Y-88430060D01*
X111341799Y-88440047D01*
X111351445Y-88488544D01*
X111371031Y-88517855D01*
X111395760Y-88554864D01*
X111437127Y-88582505D01*
X111462079Y-88599178D01*
X111462080Y-88599178D01*
X111462081Y-88599179D01*
X111520564Y-88610812D01*
X111520566Y-88610812D01*
X112910058Y-88610812D01*
X112910060Y-88610812D01*
X112968543Y-88599179D01*
X113034864Y-88554864D01*
X113079179Y-88488543D01*
X113090812Y-88430060D01*
X113090812Y-87040564D01*
X113079179Y-86982081D01*
X113034864Y-86915760D01*
X113010530Y-86899500D01*
X112968544Y-86871445D01*
X112968545Y-86871445D01*
X112939301Y-86865628D01*
X112910060Y-86859812D01*
X111520564Y-86859812D01*
X111491322Y-86865628D01*
X111462079Y-86871445D01*
X111395761Y-86915759D01*
X111395759Y-86915761D01*
X111351445Y-86982079D01*
X111339812Y-87040565D01*
X111339812Y-87053832D01*
X111322499Y-87101398D01*
X111278662Y-87126708D01*
X111228812Y-87117918D01*
X111206759Y-87098427D01*
X111087369Y-86940328D01*
X111087368Y-86940327D01*
X110926441Y-86793625D01*
X110741302Y-86678992D01*
X110741292Y-86678987D01*
X110538246Y-86600325D01*
X110465312Y-86586691D01*
X110465312Y-87293005D01*
X110447999Y-87340571D01*
X110404162Y-87365881D01*
X110357716Y-87358939D01*
X110340461Y-87350147D01*
X110246794Y-87335312D01*
X110246793Y-87335312D01*
X110183831Y-87335312D01*
X110183830Y-87335312D01*
X110090163Y-87350147D01*
X110090162Y-87350147D01*
X110072908Y-87358939D01*
X110022666Y-87365108D01*
X109980213Y-87337540D01*
X109965312Y-87293005D01*
X109965312Y-86586691D01*
X109965311Y-86586691D01*
X109892377Y-86600325D01*
X109689331Y-86678987D01*
X109689321Y-86678992D01*
X109504182Y-86793625D01*
X109504181Y-86793625D01*
X109343255Y-86940327D01*
X109343254Y-86940328D01*
X109212029Y-87114099D01*
X109212027Y-87114102D01*
X109114963Y-87309035D01*
X109114961Y-87309040D01*
X109064807Y-87485312D01*
X109773005Y-87485312D01*
X109820571Y-87502625D01*
X109845881Y-87546462D01*
X109838939Y-87592908D01*
X109830147Y-87610162D01*
X109830147Y-87610163D01*
X109810326Y-87735311D01*
X109830147Y-87860460D01*
X109830147Y-87860461D01*
X109838939Y-87877716D01*
X109845108Y-87927958D01*
X109817540Y-87970411D01*
X109773005Y-87985312D01*
X109064807Y-87985312D01*
X104663811Y-87985312D01*
X104675111Y-82900000D01*
X108764898Y-82900000D01*
X108785275Y-83158916D01*
X108845902Y-83411451D01*
X108945294Y-83651403D01*
X108945298Y-83651410D01*
X109080989Y-83872837D01*
X109086801Y-83879644D01*
X109565627Y-83400818D01*
X109611503Y-83379426D01*
X109660398Y-83392527D01*
X109677820Y-83409648D01*
X109747483Y-83505531D01*
X109747485Y-83505533D01*
X109747486Y-83505534D01*
X109888080Y-83632126D01*
X109901778Y-83640034D01*
X109934315Y-83678808D01*
X109934317Y-83729427D01*
X109917105Y-83756446D01*
X109440354Y-84233197D01*
X109447154Y-84239005D01*
X109447162Y-84239011D01*
X109668589Y-84374701D01*
X109668596Y-84374705D01*
X109908548Y-84474097D01*
X110161083Y-84534724D01*
X110420000Y-84555101D01*
X110678916Y-84534724D01*
X110931451Y-84474097D01*
X111171403Y-84374705D01*
X111171410Y-84374701D01*
X111392839Y-84239009D01*
X111392846Y-84239004D01*
X111399644Y-84233198D01*
X110922894Y-83756447D01*
X110901502Y-83710570D01*
X110914603Y-83661676D01*
X110938217Y-83640036D01*
X110951920Y-83632126D01*
X111092514Y-83505534D01*
X111162179Y-83409648D01*
X111204144Y-83381343D01*
X111254485Y-83386634D01*
X111274372Y-83400819D01*
X111753198Y-83879644D01*
X111759004Y-83872846D01*
X111759009Y-83872839D01*
X111894701Y-83651410D01*
X111894705Y-83651403D01*
X111994097Y-83411451D01*
X112054724Y-83158916D01*
X112075101Y-82900004D01*
X122564341Y-82900004D01*
X122584936Y-83135403D01*
X122584936Y-83135406D01*
X122584937Y-83135408D01*
X122646097Y-83363663D01*
X122745965Y-83577830D01*
X122881505Y-83771401D01*
X123048599Y-83938495D01*
X123242170Y-84074035D01*
X123456337Y-84173903D01*
X123684592Y-84235063D01*
X123802296Y-84245361D01*
X123919996Y-84255659D01*
X123920000Y-84255659D01*
X123920004Y-84255659D01*
X124024625Y-84246505D01*
X124155408Y-84235063D01*
X124383663Y-84173903D01*
X124597830Y-84074035D01*
X124791401Y-83938495D01*
X124958495Y-83771401D01*
X125094035Y-83577830D01*
X125193903Y-83363663D01*
X125255063Y-83135408D01*
X125275659Y-82900000D01*
X125255063Y-82664592D01*
X125193903Y-82436337D01*
X125094035Y-82222171D01*
X124958495Y-82028599D01*
X124791401Y-81861505D01*
X124791398Y-81861503D01*
X124791399Y-81861503D01*
X124684937Y-81786958D01*
X124597830Y-81725965D01*
X124383663Y-81626097D01*
X124155408Y-81564937D01*
X124155406Y-81564936D01*
X124155403Y-81564936D01*
X123920004Y-81544341D01*
X123919996Y-81544341D01*
X123684596Y-81564936D01*
X123684592Y-81564936D01*
X123684592Y-81564937D01*
X123456337Y-81626097D01*
X123456336Y-81626097D01*
X123456334Y-81626098D01*
X123456333Y-81626098D01*
X123244359Y-81724945D01*
X123242167Y-81725967D01*
X123048602Y-81861502D01*
X123048599Y-81861504D01*
X122881504Y-82028599D01*
X122881502Y-82028602D01*
X122745967Y-82222167D01*
X122745965Y-82222170D01*
X122745965Y-82222171D01*
X122646097Y-82436337D01*
X122590556Y-82643620D01*
X122584936Y-82664596D01*
X122564341Y-82899995D01*
X122564341Y-82900004D01*
X112075101Y-82900004D01*
X112075101Y-82900000D01*
X112054724Y-82641083D01*
X111994097Y-82388548D01*
X111894705Y-82148596D01*
X111894701Y-82148589D01*
X111759011Y-81927162D01*
X111759005Y-81927154D01*
X111753197Y-81920354D01*
X111274371Y-82399180D01*
X111228494Y-82420572D01*
X111179600Y-82407471D01*
X111162178Y-82390350D01*
X111092516Y-82294468D01*
X110951920Y-82167874D01*
X110938219Y-82159964D01*
X110905682Y-82121188D01*
X110905682Y-82070569D01*
X110922893Y-82043552D01*
X111399644Y-81566801D01*
X111392837Y-81560989D01*
X111171410Y-81425298D01*
X111171403Y-81425294D01*
X110931451Y-81325902D01*
X110678916Y-81265275D01*
X110420000Y-81244898D01*
X110161083Y-81265275D01*
X109908548Y-81325902D01*
X109668596Y-81425294D01*
X109668588Y-81425298D01*
X109447162Y-81560988D01*
X109440354Y-81566801D01*
X109917105Y-82043552D01*
X109938497Y-82089428D01*
X109925396Y-82138323D01*
X109901781Y-82159963D01*
X109888082Y-82167872D01*
X109888079Y-82167874D01*
X109747485Y-82294466D01*
X109677820Y-82390351D01*
X109635855Y-82418656D01*
X109585513Y-82413364D01*
X109565627Y-82399180D01*
X109086801Y-81920354D01*
X109080988Y-81927162D01*
X108945298Y-82148588D01*
X108945294Y-82148596D01*
X108845902Y-82388548D01*
X108785275Y-82641083D01*
X108764898Y-82900000D01*
X104675111Y-82900000D01*
X104690111Y-76150004D01*
X115814341Y-76150004D01*
X115834936Y-76385403D01*
X115834936Y-76385406D01*
X115834937Y-76385408D01*
X115896097Y-76613663D01*
X115995965Y-76827830D01*
X116131505Y-77021401D01*
X116298599Y-77188495D01*
X116492170Y-77324035D01*
X116706337Y-77423903D01*
X116934592Y-77485063D01*
X117052296Y-77495361D01*
X117169996Y-77505659D01*
X117170000Y-77505659D01*
X117170004Y-77505659D01*
X117274625Y-77496505D01*
X117405408Y-77485063D01*
X117633663Y-77423903D01*
X117825338Y-77334522D01*
X117875765Y-77330111D01*
X117908938Y-77349264D01*
X118228647Y-77668973D01*
X118230819Y-77671343D01*
X118257545Y-77703194D01*
X118292496Y-77723373D01*
X118293546Y-77723979D01*
X118296270Y-77725715D01*
X118330314Y-77749553D01*
X118330316Y-77749554D01*
X118334949Y-77750795D01*
X118352795Y-77758186D01*
X118356955Y-77760588D01*
X118356958Y-77760588D01*
X118356959Y-77760589D01*
X118356958Y-77760589D01*
X118397888Y-77767806D01*
X118401038Y-77768504D01*
X118441193Y-77779264D01*
X118441193Y-77779263D01*
X118441194Y-77779264D01*
X118449040Y-77778577D01*
X118482610Y-77775640D01*
X118485829Y-77775500D01*
X120330996Y-77775500D01*
X120378562Y-77792813D01*
X120386917Y-77801035D01*
X120413872Y-77832143D01*
X120534947Y-77909953D01*
X120641403Y-77941211D01*
X120673035Y-77950499D01*
X120673037Y-77950500D01*
X120673039Y-77950500D01*
X120816963Y-77950500D01*
X120816964Y-77950499D01*
X120955053Y-77909953D01*
X121076128Y-77832143D01*
X121170377Y-77723373D01*
X121230165Y-77592457D01*
X121250647Y-77450000D01*
X121230165Y-77307543D01*
X121170377Y-77176627D01*
X121124403Y-77123570D01*
X121076131Y-77067860D01*
X121076129Y-77067859D01*
X121076128Y-77067857D01*
X121003836Y-77021398D01*
X120955054Y-76990047D01*
X120955050Y-76990046D01*
X120816964Y-76949500D01*
X120816961Y-76949500D01*
X120673039Y-76949500D01*
X120673036Y-76949500D01*
X120534949Y-76990046D01*
X120534945Y-76990047D01*
X120413875Y-77067855D01*
X120413872Y-77067857D01*
X120386920Y-77098960D01*
X120342688Y-77123570D01*
X120330996Y-77124500D01*
X118635478Y-77124500D01*
X118587912Y-77107187D01*
X118583152Y-77102826D01*
X118369264Y-76888938D01*
X118347872Y-76843062D01*
X118354523Y-76805338D01*
X118443903Y-76613663D01*
X118505063Y-76385408D01*
X118525659Y-76150000D01*
X118505063Y-75914592D01*
X118443903Y-75686337D01*
X118344035Y-75472171D01*
X118208495Y-75278599D01*
X118041401Y-75111505D01*
X118041398Y-75111503D01*
X118041399Y-75111503D01*
X117968842Y-75060698D01*
X117847830Y-74975965D01*
X117633663Y-74876097D01*
X117405408Y-74814937D01*
X117405406Y-74814936D01*
X117405403Y-74814936D01*
X117170004Y-74794341D01*
X117169996Y-74794341D01*
X116934596Y-74814936D01*
X116934592Y-74814936D01*
X116934592Y-74814937D01*
X116706337Y-74876097D01*
X116706336Y-74876097D01*
X116706334Y-74876098D01*
X116706333Y-74876099D01*
X116492167Y-74975967D01*
X116298602Y-75111502D01*
X116298599Y-75111504D01*
X116131504Y-75278599D01*
X116131502Y-75278602D01*
X115995967Y-75472167D01*
X115995965Y-75472170D01*
X115995965Y-75472171D01*
X115896097Y-75686337D01*
X115892436Y-75700000D01*
X115834936Y-75914596D01*
X115814341Y-76149995D01*
X115814341Y-76150004D01*
X104690111Y-76150004D01*
X104699835Y-71773836D01*
X104717255Y-71726308D01*
X104761148Y-71701096D01*
X104773836Y-71700000D01*
X149575639Y-71700000D01*
X149623205Y-71717313D01*
G37*
%TD.AperFunction*%
M02*
