M48
; DRILL file {KiCad 8.0.2-1} date 2024-12-04T10:13:37+0900
; FORMAT={-:-/ absolute / metric / decimal}
; #@! TF.CreationDate,2024-12-04T10:13:37+09:00
; #@! TF.GenerationSoftware,Kicad,Pcbnew,8.0.2-1
; #@! TF.FileFunction,Plated,1,4,PTH
FMAT,2
METRIC
; #@! TA.AperFunction,Plated,PTH,ViaDrill
T1C0.300
; #@! TA.AperFunction,Plated,PTH,ViaDrill
T2C0.400
; #@! TA.AperFunction,Plated,PTH,ComponentDrill
T3C0.600
; #@! TA.AperFunction,Plated,PTH,ComponentDrill
T4C0.650
; #@! TA.AperFunction,Plated,PTH,ComponentDrill
T5C0.800
; #@! TA.AperFunction,Plated,PTH,ComponentDrill
T6C1.000
; #@! TA.AperFunction,Plated,PTH,ComponentDrill
T7C2.800
%
G90
G05
T1
X90.5Y-76.5
X90.5Y-80.0
X90.5Y-109.5
X90.51Y-105.0
X95.0Y-76.45
X95.0Y-105.0
X95.0Y-109.5
X100.0Y-76.45
X100.0Y-100.0
X100.0Y-105.0
X100.0Y-109.5
X100.275Y-81.695
X100.725Y-78.945
X100.95Y-95.45
X100.96Y-92.76
X100.975Y-83.895
X102.15Y-78.895
X102.175Y-83.895
X102.865Y-81.535
X104.2Y-78.15
X104.25Y-82.945
X105.0Y-76.45
X105.0Y-109.5
X105.5Y-80.07
X105.5Y-81.67
X106.0Y-83.82
X107.0Y-80.07
X107.0Y-81.67
X108.25Y-79.02
X109.4Y-82.22
X109.465Y-80.607
X109.995Y-100.8
X110.0Y-76.45
X110.0Y-109.5
X110.16Y-98.2
X110.35Y-80.62
X111.305Y-84.04
X113.0Y-89.0
X113.4Y-96.9
X114.5Y-100.8
X114.7Y-94.0
X115.0Y-76.45
X115.0Y-82.8
X115.0Y-109.5
X116.5Y-90.7
X116.6Y-98.6
X118.6Y-97.95
X118.6Y-103.825
X119.3Y-89.3
X120.0Y-76.45
X120.0Y-109.5
X120.3Y-86.8
X121.2Y-82.8
X122.575Y-86.9
X122.9Y-84.6
X125.0Y-76.45
X125.0Y-109.5
X126.32Y-96.96
X128.0Y-97.6
X129.107Y-93.898
X129.375Y-90.975
X130.0Y-76.45
X130.0Y-109.5
X133.0Y-84.1
X133.02Y-82.9
X133.23Y-99.67
X133.6Y-91.0
X133.6Y-92.5
X134.9Y-101.8
X134.965Y-96.95
X135.0Y-109.5
X135.1Y-100.4
X135.875Y-84.835
X136.85Y-80.96
X137.7Y-90.0
X138.3Y-83.8
X138.7Y-109.25
X138.8Y-101.9
X139.0Y-86.6
X140.0Y-94.2
X140.0Y-97.5
X140.3Y-101.2
X140.3Y-109.245
X140.8Y-82.8
X141.1Y-105.345
X142.5Y-95.0
X142.526Y-88.025
X143.025Y-106.225
X143.025Y-109.475
X143.825Y-86.075
X144.75Y-88.025
X145.0Y-92.5
X145.8Y-86.7
X147.5Y-76.45
X149.1Y-105.1
T2
X97.21Y-91.38
X97.21Y-96.87
X98.985Y-95.435
X99.3Y-92.025
X108.34Y-101.74
X120.65Y-103.124
X126.238Y-94.234
X137.7Y-99.9
X137.922Y-88.392
X144.0Y-106.3
X145.4Y-78.142
X149.1Y-91.6
X149.1Y-100.85
T4
X98.08Y-79.37
X98.08Y-80.64
T5
X123.0Y-79.6
X123.0Y-82.9
X125.5Y-79.6
X125.5Y-82.9
X128.0Y-79.6
X128.0Y-82.9
T6
X146.3Y-103.145
X146.3Y-105.685
X146.3Y-108.225
X148.5Y-82.0
X148.5Y-84.54
X148.5Y-87.08
T7
X104.55Y-88.15
X104.55Y-101.65
X111.3Y-94.9
X119.3Y-94.9
X126.05Y-88.15
X126.05Y-101.65
T3
G00X91.45Y-88.49
M15
G01X90.45Y-88.49
M16
G05
G00X91.45Y-99.73
M15
G01X90.45Y-99.73
M16
G05
G00X95.25Y-88.49
M15
G01X94.65Y-88.49
M16
G05
G00X95.25Y-99.73
M15
G01X94.65Y-99.73
M16
G05
M30
