%TF.GenerationSoftware,KiCad,Pcbnew,8.0.2-1*%
%TF.CreationDate,2024-12-04T10:13:35+09:00*%
%TF.ProjectId,gas_nrf52832,6761735f-6e72-4663-9532-3833322e6b69,rev?*%
%TF.SameCoordinates,Original*%
%TF.FileFunction,Copper,L3,Inr*%
%TF.FilePolarity,Positive*%
%FSLAX46Y46*%
G04 Gerber Fmt 4.6, Leading zero omitted, Abs format (unit mm)*
G04 Created by KiCad (PCBNEW 8.0.2-1) date 2024-12-04 10:13:35*
%MOMM*%
%LPD*%
G01*
G04 APERTURE LIST*
%TA.AperFunction,ComponentPad*%
%ADD10R,1.000000X1.000000*%
%TD*%
%TA.AperFunction,ComponentPad*%
%ADD11O,1.000000X1.000000*%
%TD*%
%TA.AperFunction,ComponentPad*%
%ADD12R,1.700000X1.700000*%
%TD*%
%TA.AperFunction,ComponentPad*%
%ADD13O,1.700000X1.700000*%
%TD*%
%TA.AperFunction,ComponentPad*%
%ADD14R,1.350000X1.350000*%
%TD*%
%TA.AperFunction,ComponentPad*%
%ADD15O,1.350000X1.350000*%
%TD*%
%TA.AperFunction,ComponentPad*%
%ADD16O,2.100000X1.100000*%
%TD*%
%TA.AperFunction,ComponentPad*%
%ADD17O,1.700000X1.100000*%
%TD*%
%TA.AperFunction,ComponentPad*%
%ADD18C,3.800000*%
%TD*%
%TA.AperFunction,ViaPad*%
%ADD19C,0.600000*%
%TD*%
%TA.AperFunction,ViaPad*%
%ADD20C,0.700000*%
%TD*%
G04 APERTURE END LIST*
D10*
X98080000Y-80640000D03*
D11*
X98080000Y-79370000D03*
D12*
X146300000Y-108225000D03*
D13*
X146300000Y-105685000D03*
X146300000Y-103145000D03*
D14*
X128000000Y-82900000D03*
D15*
X125500000Y-82900000D03*
X123000000Y-82900000D03*
X128000000Y-79600000D03*
X125500000Y-79600000D03*
X123000000Y-79600000D03*
D12*
X148500000Y-82000000D03*
D13*
X148500000Y-84540000D03*
X148500000Y-87080000D03*
D16*
X90950000Y-88490000D03*
X90950000Y-99730000D03*
D17*
X94950000Y-88490000D03*
X94950000Y-99730000D03*
D18*
X104550000Y-101650000D03*
X104550000Y-88150000D03*
X111300000Y-94900000D03*
X119300000Y-94900000D03*
X126050000Y-88150000D03*
X126050000Y-101650000D03*
D19*
X143825000Y-86075000D03*
X116600000Y-98600000D03*
X121200000Y-82800000D03*
X95000000Y-105000000D03*
X133000000Y-84100000D03*
X105500000Y-80070000D03*
X115000000Y-76450000D03*
X115000000Y-109500000D03*
X140300000Y-109245000D03*
X90500000Y-109500000D03*
X100000000Y-109500000D03*
X125000000Y-109500000D03*
X143025000Y-109475000D03*
X140000000Y-97500000D03*
X119300000Y-89300000D03*
X130000000Y-109500000D03*
X133600000Y-92500000D03*
X128000000Y-97600000D03*
X118600000Y-103825000D03*
X108250000Y-79020000D03*
X100000000Y-100000000D03*
X130000000Y-76450000D03*
X142526054Y-88024813D03*
X111305000Y-84040000D03*
X133020000Y-82900000D03*
X129375000Y-90975000D03*
X104200000Y-78150000D03*
X110350000Y-80620000D03*
X110000000Y-76450000D03*
X104250000Y-82945000D03*
X133230000Y-99670000D03*
X100960000Y-92760000D03*
X90500000Y-76500000D03*
X110000000Y-109500000D03*
X134900000Y-101800000D03*
X141100000Y-105345000D03*
D20*
X145400000Y-78142500D03*
D19*
X100000000Y-76450000D03*
X95000000Y-109500000D03*
X100275000Y-81695000D03*
D20*
X97210000Y-96870000D03*
D19*
X135000000Y-109500000D03*
X100000000Y-105000000D03*
X120300000Y-86800000D03*
X107000000Y-80070000D03*
X105000000Y-109500000D03*
X95000000Y-76450000D03*
X114500000Y-100800000D03*
X118600000Y-97950000D03*
X116500000Y-90700000D03*
X110160000Y-98200000D03*
X129106765Y-93898235D03*
X136850000Y-80960000D03*
X100975000Y-83895000D03*
X90500000Y-80000000D03*
X125000000Y-76450000D03*
X149100000Y-105100000D03*
X126320000Y-96960000D03*
X143025000Y-106225000D03*
D20*
X97210000Y-91380000D03*
X149100000Y-100850000D03*
D19*
X102150000Y-78895000D03*
X107000000Y-81670000D03*
X105000000Y-76450000D03*
X144750000Y-88025000D03*
X145000000Y-92500000D03*
X145800000Y-86700000D03*
X142500000Y-95000000D03*
X115000000Y-82800000D03*
X137700000Y-90000000D03*
X120000000Y-76450000D03*
X133600000Y-91000000D03*
D20*
X137700000Y-99900000D03*
D19*
X135875000Y-84835000D03*
X134965000Y-96950000D03*
X109995000Y-100800000D03*
X105500000Y-81670000D03*
X90510000Y-105000000D03*
X100725000Y-78945000D03*
D20*
X149100000Y-91600000D03*
D19*
X147500000Y-76450000D03*
X100950000Y-95450000D03*
X102175000Y-83895000D03*
X109465181Y-80607187D03*
X138700000Y-109250000D03*
X139000000Y-86600000D03*
X120000000Y-109500000D03*
X113000000Y-89000000D03*
X122575000Y-86900000D03*
D20*
X144000000Y-106300000D03*
D19*
X122900000Y-84600000D03*
D20*
X126238000Y-94234000D03*
X137922000Y-88392000D03*
X120650000Y-103124000D03*
X108340000Y-101740000D03*
D19*
X109400000Y-82220000D03*
X106000000Y-83820000D03*
X102865380Y-81535380D03*
X140800000Y-82800000D03*
X135100000Y-100400000D03*
X140000000Y-94200000D03*
X140300000Y-101200000D03*
X138300000Y-83800000D03*
X138800000Y-101900000D03*
D20*
X99300000Y-92025000D03*
X98985000Y-95435000D03*
D19*
X113400000Y-96900000D03*
X114700000Y-94000000D03*
%TA.AperFunction,Conductor*%
G36*
X97467502Y-78619707D02*
G01*
X97536743Y-78674926D01*
X97575170Y-78754718D01*
X97575170Y-78843282D01*
X97544932Y-78912046D01*
X97455183Y-79042067D01*
X97455180Y-79042072D01*
X97394860Y-79201124D01*
X97394860Y-79201126D01*
X97374355Y-79370000D01*
X97394860Y-79538873D01*
X97394860Y-79538875D01*
X97455180Y-79697927D01*
X97455184Y-79697934D01*
X97474730Y-79726252D01*
X97507559Y-79808506D01*
X97501448Y-79896858D01*
X97457608Y-79973809D01*
X97448951Y-79981234D01*
X97449306Y-79981589D01*
X97435448Y-79995446D01*
X97391133Y-80061767D01*
X97379500Y-80120250D01*
X97379500Y-81159749D01*
X97391133Y-81218232D01*
X97435447Y-81284552D01*
X97501767Y-81328866D01*
X97501769Y-81328867D01*
X97536984Y-81335871D01*
X97560250Y-81340500D01*
X97560252Y-81340500D01*
X98599750Y-81340500D01*
X98619155Y-81336639D01*
X98658231Y-81328867D01*
X98724552Y-81284552D01*
X98768867Y-81218231D01*
X98780500Y-81159748D01*
X98780500Y-80607187D01*
X108959534Y-80607187D01*
X108980016Y-80749645D01*
X108980017Y-80749649D01*
X109039801Y-80880556D01*
X109039805Y-80880563D01*
X109134052Y-80989329D01*
X109134053Y-80989330D01*
X109255128Y-81067140D01*
X109283355Y-81075428D01*
X109393219Y-81107687D01*
X109393220Y-81107687D01*
X109537143Y-81107687D01*
X109590370Y-81092057D01*
X109675234Y-81067140D01*
X109790286Y-80993200D01*
X109873576Y-80963100D01*
X109961679Y-80972118D01*
X110005219Y-80997060D01*
X110006898Y-80994448D01*
X110018872Y-81002143D01*
X110139947Y-81079953D01*
X110191423Y-81095067D01*
X110278038Y-81120500D01*
X110278039Y-81120500D01*
X110421962Y-81120500D01*
X110483407Y-81102458D01*
X110560053Y-81079953D01*
X110681128Y-81002143D01*
X110717645Y-80960000D01*
X136344353Y-80960000D01*
X136364835Y-81102458D01*
X136364836Y-81102462D01*
X136424620Y-81233369D01*
X136424624Y-81233376D01*
X136507368Y-81328867D01*
X136518872Y-81342143D01*
X136639947Y-81419953D01*
X136691423Y-81435067D01*
X136778038Y-81460500D01*
X136778039Y-81460500D01*
X136921962Y-81460500D01*
X136975189Y-81444870D01*
X137060053Y-81419953D01*
X137181128Y-81342143D01*
X137273926Y-81235048D01*
X137275375Y-81233376D01*
X137275379Y-81233369D01*
X137322472Y-81130250D01*
X147449500Y-81130250D01*
X147449500Y-82869749D01*
X147461133Y-82928232D01*
X147505447Y-82994552D01*
X147571767Y-83038866D01*
X147571769Y-83038867D01*
X147606984Y-83045871D01*
X147630250Y-83050500D01*
X147630252Y-83050500D01*
X149369750Y-83050500D01*
X149389155Y-83046639D01*
X149428231Y-83038867D01*
X149494552Y-82994552D01*
X149538867Y-82928231D01*
X149550500Y-82869748D01*
X149550500Y-81130252D01*
X149538867Y-81071769D01*
X149535773Y-81067138D01*
X149494552Y-81005447D01*
X149428232Y-80961133D01*
X149369750Y-80949500D01*
X149369748Y-80949500D01*
X147630252Y-80949500D01*
X147630250Y-80949500D01*
X147571767Y-80961133D01*
X147505447Y-81005447D01*
X147461133Y-81071767D01*
X147449500Y-81130250D01*
X137322472Y-81130250D01*
X137335163Y-81102462D01*
X137335163Y-81102460D01*
X137335165Y-81102457D01*
X137355647Y-80960000D01*
X137335165Y-80817543D01*
X137335163Y-80817540D01*
X137335163Y-80817537D01*
X137275379Y-80686630D01*
X137275375Y-80686623D01*
X137181128Y-80577857D01*
X137181127Y-80577856D01*
X137106585Y-80529951D01*
X137060053Y-80500047D01*
X137060050Y-80500046D01*
X137060048Y-80500045D01*
X136921962Y-80459500D01*
X136921961Y-80459500D01*
X136778039Y-80459500D01*
X136778038Y-80459500D01*
X136639951Y-80500045D01*
X136639945Y-80500048D01*
X136518872Y-80577856D01*
X136518871Y-80577857D01*
X136424624Y-80686623D01*
X136424620Y-80686630D01*
X136364836Y-80817537D01*
X136364835Y-80817541D01*
X136344353Y-80960000D01*
X110717645Y-80960000D01*
X110736834Y-80937854D01*
X110775375Y-80893376D01*
X110775379Y-80893369D01*
X110835163Y-80762462D01*
X110835163Y-80762460D01*
X110835165Y-80762457D01*
X110855647Y-80620000D01*
X110835165Y-80477543D01*
X110835163Y-80477540D01*
X110835163Y-80477537D01*
X110775379Y-80346630D01*
X110775375Y-80346623D01*
X110681128Y-80237857D01*
X110681127Y-80237856D01*
X110620590Y-80198952D01*
X110560053Y-80160047D01*
X110560050Y-80160046D01*
X110560048Y-80160045D01*
X110421962Y-80119500D01*
X110421961Y-80119500D01*
X110278039Y-80119500D01*
X110278038Y-80119500D01*
X110139951Y-80160045D01*
X110139947Y-80160047D01*
X110024894Y-80233986D01*
X109941603Y-80264086D01*
X109853500Y-80255068D01*
X109809961Y-80230127D01*
X109808283Y-80232739D01*
X109695168Y-80160045D01*
X109675234Y-80147234D01*
X109675231Y-80147233D01*
X109675229Y-80147232D01*
X109537143Y-80106687D01*
X109537142Y-80106687D01*
X109393220Y-80106687D01*
X109393219Y-80106687D01*
X109255132Y-80147232D01*
X109255126Y-80147235D01*
X109134053Y-80225043D01*
X109134052Y-80225044D01*
X109039805Y-80333810D01*
X109039801Y-80333817D01*
X108980017Y-80464724D01*
X108980016Y-80464728D01*
X108959534Y-80607187D01*
X98780500Y-80607187D01*
X98780500Y-80120252D01*
X98780350Y-80119500D01*
X98770504Y-80070000D01*
X104994353Y-80070000D01*
X105014835Y-80212458D01*
X105014836Y-80212462D01*
X105074620Y-80343369D01*
X105074624Y-80343376D01*
X105155955Y-80437236D01*
X105168872Y-80452143D01*
X105289947Y-80529953D01*
X105341423Y-80545067D01*
X105428038Y-80570500D01*
X105428039Y-80570500D01*
X105571962Y-80570500D01*
X105625189Y-80554870D01*
X105710053Y-80529953D01*
X105831128Y-80452143D01*
X105908907Y-80362381D01*
X105925375Y-80343376D01*
X105925379Y-80343369D01*
X105985163Y-80212462D01*
X105985163Y-80212460D01*
X105985165Y-80212457D01*
X106005647Y-80070000D01*
X106494353Y-80070000D01*
X106514835Y-80212458D01*
X106514836Y-80212462D01*
X106574620Y-80343369D01*
X106574624Y-80343376D01*
X106655955Y-80437236D01*
X106668872Y-80452143D01*
X106789947Y-80529953D01*
X106841423Y-80545067D01*
X106928038Y-80570500D01*
X106928039Y-80570500D01*
X107071962Y-80570500D01*
X107125189Y-80554870D01*
X107210053Y-80529953D01*
X107331128Y-80452143D01*
X107408907Y-80362381D01*
X107425375Y-80343376D01*
X107425379Y-80343369D01*
X107485163Y-80212462D01*
X107485163Y-80212460D01*
X107485165Y-80212457D01*
X107505647Y-80070000D01*
X107485165Y-79927543D01*
X107485163Y-79927540D01*
X107485163Y-79927537D01*
X107425379Y-79796630D01*
X107425375Y-79796623D01*
X107331128Y-79687857D01*
X107331127Y-79687856D01*
X107270590Y-79648952D01*
X107210053Y-79610047D01*
X107210050Y-79610046D01*
X107210048Y-79610045D01*
X107071962Y-79569500D01*
X107071961Y-79569500D01*
X106928039Y-79569500D01*
X106928038Y-79569500D01*
X106789951Y-79610045D01*
X106789945Y-79610048D01*
X106668872Y-79687856D01*
X106668871Y-79687857D01*
X106574624Y-79796623D01*
X106574620Y-79796630D01*
X106514836Y-79927537D01*
X106514835Y-79927541D01*
X106494353Y-80070000D01*
X106005647Y-80070000D01*
X105985165Y-79927543D01*
X105985163Y-79927540D01*
X105985163Y-79927537D01*
X105925379Y-79796630D01*
X105925375Y-79796623D01*
X105831128Y-79687857D01*
X105831127Y-79687856D01*
X105770590Y-79648952D01*
X105710053Y-79610047D01*
X105710050Y-79610046D01*
X105710048Y-79610045D01*
X105571962Y-79569500D01*
X105571961Y-79569500D01*
X105428039Y-79569500D01*
X105428038Y-79569500D01*
X105289951Y-79610045D01*
X105289945Y-79610048D01*
X105168872Y-79687856D01*
X105168871Y-79687857D01*
X105074624Y-79796623D01*
X105074620Y-79796630D01*
X105014836Y-79927537D01*
X105014835Y-79927541D01*
X104994353Y-80070000D01*
X98770504Y-80070000D01*
X98768867Y-80061769D01*
X98724552Y-79995448D01*
X98724551Y-79995446D01*
X98710694Y-79981589D01*
X98713719Y-79978563D01*
X98677630Y-79940381D01*
X98650746Y-79855996D01*
X98663137Y-79768304D01*
X98685271Y-79726249D01*
X98704815Y-79697934D01*
X98704818Y-79697930D01*
X98738148Y-79610045D01*
X98765139Y-79538875D01*
X98765139Y-79538874D01*
X98765140Y-79538872D01*
X98785645Y-79370000D01*
X98765140Y-79201128D01*
X98765139Y-79201125D01*
X98765139Y-79201124D01*
X98704819Y-79042072D01*
X98704816Y-79042067D01*
X98615068Y-78912046D01*
X98582238Y-78829793D01*
X98588347Y-78741440D01*
X98632186Y-78664488D01*
X98705072Y-78614178D01*
X98778841Y-78600000D01*
X100039298Y-78600000D01*
X100125641Y-78619707D01*
X100194882Y-78674926D01*
X100233309Y-78754718D01*
X100236272Y-78827318D01*
X100220509Y-78936957D01*
X100219353Y-78945000D01*
X100239835Y-79087458D01*
X100239836Y-79087462D01*
X100299620Y-79218369D01*
X100299624Y-79218376D01*
X100385296Y-79317246D01*
X100393872Y-79327143D01*
X100514947Y-79404953D01*
X100555877Y-79416971D01*
X100653038Y-79445500D01*
X100653039Y-79445500D01*
X100796962Y-79445500D01*
X100850189Y-79429870D01*
X100935053Y-79404953D01*
X101056128Y-79327143D01*
X101129954Y-79241943D01*
X101150375Y-79218376D01*
X101150379Y-79218369D01*
X101210163Y-79087462D01*
X101210163Y-79087460D01*
X101210165Y-79087457D01*
X101230647Y-78945000D01*
X101213727Y-78827318D01*
X101220946Y-78739052D01*
X101265749Y-78662657D01*
X101339261Y-78613266D01*
X101410702Y-78600000D01*
X101457109Y-78600000D01*
X101543452Y-78619707D01*
X101612693Y-78674926D01*
X101651120Y-78754718D01*
X101654084Y-78827320D01*
X101646540Y-78879792D01*
X101644353Y-78895000D01*
X101651542Y-78945000D01*
X101664835Y-79037458D01*
X101664836Y-79037462D01*
X101724620Y-79168369D01*
X101724624Y-79168376D01*
X101818871Y-79277142D01*
X101818872Y-79277143D01*
X101939947Y-79354953D01*
X101991193Y-79370000D01*
X102078038Y-79395500D01*
X102078039Y-79395500D01*
X102221962Y-79395500D01*
X102275189Y-79379870D01*
X102360053Y-79354953D01*
X102481128Y-79277143D01*
X102568466Y-79176349D01*
X102575375Y-79168376D01*
X102575379Y-79168369D01*
X102635163Y-79037462D01*
X102635163Y-79037460D01*
X102635165Y-79037457D01*
X102655647Y-78895000D01*
X102645916Y-78827319D01*
X102653135Y-78739051D01*
X102697938Y-78662656D01*
X102771450Y-78613266D01*
X102842891Y-78600000D01*
X103927439Y-78600000D01*
X103983503Y-78608061D01*
X104128038Y-78650500D01*
X104128039Y-78650500D01*
X104271962Y-78650500D01*
X104416497Y-78608061D01*
X104472561Y-78600000D01*
X107581934Y-78600000D01*
X107668277Y-78619707D01*
X107737518Y-78674926D01*
X107775945Y-78754718D01*
X107775945Y-78843282D01*
X107768024Y-78866681D01*
X107764835Y-78877541D01*
X107744353Y-79020000D01*
X107764835Y-79162458D01*
X107764836Y-79162462D01*
X107824620Y-79293369D01*
X107824624Y-79293376D01*
X107891020Y-79370000D01*
X107918872Y-79402143D01*
X108039947Y-79479953D01*
X108091423Y-79495067D01*
X108178038Y-79520500D01*
X108178039Y-79520500D01*
X108321962Y-79520500D01*
X108375189Y-79504870D01*
X108460053Y-79479953D01*
X108581128Y-79402143D01*
X108641965Y-79331933D01*
X108675375Y-79293376D01*
X108675379Y-79293369D01*
X108735163Y-79162462D01*
X108735163Y-79162460D01*
X108735165Y-79162457D01*
X108755647Y-79020000D01*
X108735165Y-78877543D01*
X108735163Y-78877540D01*
X108731155Y-78863887D01*
X108733242Y-78863273D01*
X108719108Y-78794933D01*
X108740575Y-78709011D01*
X108797197Y-78640912D01*
X108877759Y-78604125D01*
X108918066Y-78600000D01*
X122276579Y-78600000D01*
X122362922Y-78619707D01*
X122432163Y-78674926D01*
X122470590Y-78754718D01*
X122470590Y-78843282D01*
X122432163Y-78923074D01*
X122414960Y-78941339D01*
X122410950Y-78945793D01*
X122287805Y-79082560D01*
X122287804Y-79082562D01*
X122195786Y-79241940D01*
X122195785Y-79241943D01*
X122138914Y-79416971D01*
X122119678Y-79600000D01*
X122138914Y-79783028D01*
X122175900Y-79896858D01*
X122195786Y-79958059D01*
X122287805Y-80117440D01*
X122410950Y-80254207D01*
X122466988Y-80294921D01*
X122559837Y-80362380D01*
X122559838Y-80362380D01*
X122559839Y-80362381D01*
X122727966Y-80437236D01*
X122798092Y-80452142D01*
X122907978Y-80475500D01*
X122907981Y-80475500D01*
X123092022Y-80475500D01*
X123177800Y-80457266D01*
X123272034Y-80437236D01*
X123440161Y-80362381D01*
X123589050Y-80254207D01*
X123712195Y-80117440D01*
X123804214Y-79958059D01*
X123861085Y-79783029D01*
X123880322Y-79600000D01*
X123861085Y-79416971D01*
X123804214Y-79241941D01*
X123712195Y-79082560D01*
X123589050Y-78945793D01*
X123589049Y-78945792D01*
X123582071Y-78938042D01*
X123583275Y-78936957D01*
X123539285Y-78874465D01*
X123524777Y-78787098D01*
X123549613Y-78702088D01*
X123608874Y-78636273D01*
X123690822Y-78602688D01*
X123723421Y-78600000D01*
X124776579Y-78600000D01*
X124862922Y-78619707D01*
X124932163Y-78674926D01*
X124970590Y-78754718D01*
X124970590Y-78843282D01*
X124932163Y-78923074D01*
X124914960Y-78941339D01*
X124910950Y-78945793D01*
X124787805Y-79082560D01*
X124787804Y-79082562D01*
X124695786Y-79241940D01*
X124695785Y-79241943D01*
X124638914Y-79416971D01*
X124619678Y-79600000D01*
X124638914Y-79783028D01*
X124675900Y-79896858D01*
X124695786Y-79958059D01*
X124787805Y-80117440D01*
X124910950Y-80254207D01*
X124966988Y-80294921D01*
X125059837Y-80362380D01*
X125059838Y-80362380D01*
X125059839Y-80362381D01*
X125227966Y-80437236D01*
X125298092Y-80452142D01*
X125407978Y-80475500D01*
X125407981Y-80475500D01*
X125592022Y-80475500D01*
X125677800Y-80457266D01*
X125772034Y-80437236D01*
X125940161Y-80362381D01*
X126089050Y-80254207D01*
X126212195Y-80117440D01*
X126304214Y-79958059D01*
X126361085Y-79783029D01*
X126380322Y-79600000D01*
X126361085Y-79416971D01*
X126304214Y-79241941D01*
X126212195Y-79082560D01*
X126089050Y-78945793D01*
X126089049Y-78945792D01*
X126082071Y-78938042D01*
X126083275Y-78936957D01*
X126039285Y-78874465D01*
X126024777Y-78787098D01*
X126049613Y-78702088D01*
X126108874Y-78636273D01*
X126190822Y-78602688D01*
X126223421Y-78600000D01*
X127276579Y-78600000D01*
X127362922Y-78619707D01*
X127432163Y-78674926D01*
X127470590Y-78754718D01*
X127470590Y-78843282D01*
X127432163Y-78923074D01*
X127414960Y-78941339D01*
X127410950Y-78945793D01*
X127287805Y-79082560D01*
X127287804Y-79082562D01*
X127195786Y-79241940D01*
X127195785Y-79241943D01*
X127138914Y-79416971D01*
X127119678Y-79600000D01*
X127138914Y-79783028D01*
X127175900Y-79896858D01*
X127195786Y-79958059D01*
X127287805Y-80117440D01*
X127410950Y-80254207D01*
X127466988Y-80294921D01*
X127559837Y-80362380D01*
X127559838Y-80362380D01*
X127559839Y-80362381D01*
X127727966Y-80437236D01*
X127798092Y-80452142D01*
X127907978Y-80475500D01*
X127907981Y-80475500D01*
X128092022Y-80475500D01*
X128177800Y-80457266D01*
X128272034Y-80437236D01*
X128440161Y-80362381D01*
X128589050Y-80254207D01*
X128712195Y-80117440D01*
X128804214Y-79958059D01*
X128861085Y-79783029D01*
X128880322Y-79600000D01*
X128861085Y-79416971D01*
X128804214Y-79241941D01*
X128712195Y-79082560D01*
X128589050Y-78945793D01*
X128589049Y-78945792D01*
X128582071Y-78938042D01*
X128583275Y-78936957D01*
X128539285Y-78874465D01*
X128524777Y-78787098D01*
X128549613Y-78702088D01*
X128608874Y-78636273D01*
X128690822Y-78602688D01*
X128723421Y-78600000D01*
X145028590Y-78600000D01*
X145110216Y-78618630D01*
X145110324Y-78618370D01*
X145111856Y-78619004D01*
X145114933Y-78619707D01*
X145119939Y-78622352D01*
X145256288Y-78678829D01*
X145256290Y-78678830D01*
X145399997Y-78697750D01*
X145400000Y-78697750D01*
X145400003Y-78697750D01*
X145543709Y-78678830D01*
X145543711Y-78678829D01*
X145689676Y-78618370D01*
X145690707Y-78620861D01*
X145756544Y-78600556D01*
X145771410Y-78600000D01*
X149568066Y-78600000D01*
X149654409Y-78619707D01*
X149723650Y-78674926D01*
X149740626Y-78701280D01*
X149740857Y-78701139D01*
X149744948Y-78707815D01*
X149869893Y-78879789D01*
X149869896Y-78879792D01*
X150020208Y-79030104D01*
X150192184Y-79155051D01*
X150192186Y-79155052D01*
X150198847Y-79159134D01*
X150198135Y-79160295D01*
X150259324Y-79211374D01*
X150295954Y-79292007D01*
X150300000Y-79331933D01*
X150300000Y-89428500D01*
X150280293Y-89514843D01*
X150225074Y-89584084D01*
X150145282Y-89622511D01*
X150101000Y-89627500D01*
X149500000Y-89627500D01*
X149500000Y-90873000D01*
X149480293Y-90959343D01*
X149425074Y-91028584D01*
X149345282Y-91067011D01*
X149256718Y-91067011D01*
X149249507Y-91065222D01*
X149243714Y-91063670D01*
X149100003Y-91044750D01*
X149099997Y-91044750D01*
X148956290Y-91063669D01*
X148956288Y-91063670D01*
X148822377Y-91119137D01*
X148822373Y-91119139D01*
X148707379Y-91207377D01*
X148707377Y-91207379D01*
X148619139Y-91322373D01*
X148619137Y-91322377D01*
X148563670Y-91456288D01*
X148563669Y-91456290D01*
X148544750Y-91599996D01*
X148544750Y-91600003D01*
X148563669Y-91743709D01*
X148563670Y-91743711D01*
X148619137Y-91877622D01*
X148619139Y-91877626D01*
X148707377Y-91992620D01*
X148707379Y-91992622D01*
X148822373Y-92080860D01*
X148822377Y-92080862D01*
X148956288Y-92136329D01*
X148956290Y-92136330D01*
X149099997Y-92155250D01*
X149100000Y-92155250D01*
X149100003Y-92155250D01*
X149243704Y-92136331D01*
X149243706Y-92136330D01*
X149243709Y-92136330D01*
X149243711Y-92136329D01*
X149249497Y-92134779D01*
X149337999Y-92131469D01*
X149419172Y-92166886D01*
X149476940Y-92234015D01*
X149499861Y-92319561D01*
X149500000Y-92326999D01*
X149500000Y-100123000D01*
X149480293Y-100209343D01*
X149425074Y-100278584D01*
X149345282Y-100317011D01*
X149256718Y-100317011D01*
X149249507Y-100315222D01*
X149243714Y-100313670D01*
X149100003Y-100294750D01*
X149099997Y-100294750D01*
X148956290Y-100313669D01*
X148956288Y-100313670D01*
X148822377Y-100369137D01*
X148822373Y-100369139D01*
X148707379Y-100457377D01*
X148707377Y-100457379D01*
X148619139Y-100572373D01*
X148619137Y-100572377D01*
X148563670Y-100706288D01*
X148563669Y-100706290D01*
X148544750Y-100849996D01*
X148544750Y-100850003D01*
X148563669Y-100993709D01*
X148563670Y-100993711D01*
X148619137Y-101127622D01*
X148619139Y-101127626D01*
X148707377Y-101242620D01*
X148707379Y-101242622D01*
X148822373Y-101330860D01*
X148822377Y-101330862D01*
X148956288Y-101386329D01*
X148956290Y-101386330D01*
X149099997Y-101405250D01*
X149100000Y-101405250D01*
X149100003Y-101405250D01*
X149243709Y-101386330D01*
X149243711Y-101386329D01*
X149349617Y-101342462D01*
X149377625Y-101330861D01*
X149492621Y-101242621D01*
X149580861Y-101127625D01*
X149636330Y-100993709D01*
X149643077Y-100942462D01*
X149655250Y-100850003D01*
X149655250Y-100849996D01*
X149636330Y-100706290D01*
X149636329Y-100706288D01*
X149580862Y-100572377D01*
X149580860Y-100572373D01*
X149561884Y-100547643D01*
X149524956Y-100467146D01*
X149526612Y-100378598D01*
X149566524Y-100299538D01*
X149636786Y-100245624D01*
X149719761Y-100227500D01*
X150101000Y-100227500D01*
X150187343Y-100247207D01*
X150256584Y-100302426D01*
X150295011Y-100382218D01*
X150300000Y-100426500D01*
X150300000Y-106668066D01*
X150280293Y-106754409D01*
X150225074Y-106823650D01*
X150198719Y-106840626D01*
X150198861Y-106840857D01*
X150192184Y-106844948D01*
X150020210Y-106969893D01*
X149869893Y-107120210D01*
X149744948Y-107292184D01*
X149740857Y-107298861D01*
X149739695Y-107298149D01*
X149688615Y-107359331D01*
X149607980Y-107395956D01*
X149568066Y-107400000D01*
X147514212Y-107400000D01*
X147427869Y-107380293D01*
X147358628Y-107325074D01*
X147348750Y-107311560D01*
X147294551Y-107230446D01*
X147228232Y-107186133D01*
X147169750Y-107174500D01*
X147169748Y-107174500D01*
X145430252Y-107174500D01*
X145430250Y-107174500D01*
X145371767Y-107186133D01*
X145305448Y-107230446D01*
X145251250Y-107311560D01*
X145186894Y-107372402D01*
X145102513Y-107399296D01*
X145085788Y-107400000D01*
X93231934Y-107400000D01*
X93145591Y-107380293D01*
X93076350Y-107325074D01*
X93059373Y-107298719D01*
X93059143Y-107298861D01*
X93055051Y-107292184D01*
X92930106Y-107120210D01*
X92779789Y-106969893D01*
X92607815Y-106844948D01*
X92601139Y-106840857D01*
X92601850Y-106839695D01*
X92540669Y-106788615D01*
X92504044Y-106707980D01*
X92500000Y-106668066D01*
X92500000Y-106225000D01*
X142519353Y-106225000D01*
X142539835Y-106367458D01*
X142539836Y-106367462D01*
X142599620Y-106498369D01*
X142599624Y-106498376D01*
X142693871Y-106607142D01*
X142693872Y-106607143D01*
X142814947Y-106684953D01*
X142866423Y-106700067D01*
X142953038Y-106725500D01*
X142953039Y-106725500D01*
X143096962Y-106725500D01*
X143156629Y-106707980D01*
X143235053Y-106684953D01*
X143356128Y-106607143D01*
X143411834Y-106542854D01*
X143450375Y-106498376D01*
X143450379Y-106498369D01*
X143510163Y-106367462D01*
X143510163Y-106367460D01*
X143510165Y-106367457D01*
X143530647Y-106225000D01*
X143510165Y-106082543D01*
X143510163Y-106082540D01*
X143510163Y-106082537D01*
X143450379Y-105951630D01*
X143450375Y-105951623D01*
X143356128Y-105842857D01*
X143356127Y-105842856D01*
X143295590Y-105803952D01*
X143235053Y-105765047D01*
X143235050Y-105765046D01*
X143235048Y-105765045D01*
X143096962Y-105724500D01*
X143096961Y-105724500D01*
X142953039Y-105724500D01*
X142953038Y-105724500D01*
X142814951Y-105765045D01*
X142814945Y-105765048D01*
X142693872Y-105842856D01*
X142693871Y-105842857D01*
X142599624Y-105951623D01*
X142599620Y-105951630D01*
X142539836Y-106082537D01*
X142539835Y-106082541D01*
X142519353Y-106225000D01*
X92500000Y-106225000D01*
X92500000Y-105000000D01*
X94494353Y-105000000D01*
X94514835Y-105142458D01*
X94514836Y-105142462D01*
X94574620Y-105273369D01*
X94574624Y-105273376D01*
X94661269Y-105373369D01*
X94668872Y-105382143D01*
X94789947Y-105459953D01*
X94841423Y-105475067D01*
X94928038Y-105500500D01*
X94928039Y-105500500D01*
X95071962Y-105500500D01*
X95144959Y-105479066D01*
X95210053Y-105459953D01*
X95331128Y-105382143D01*
X95386834Y-105317854D01*
X95425375Y-105273376D01*
X95425379Y-105273369D01*
X95485163Y-105142462D01*
X95485163Y-105142460D01*
X95485165Y-105142457D01*
X95505647Y-105000000D01*
X99494353Y-105000000D01*
X99514835Y-105142458D01*
X99514836Y-105142462D01*
X99574620Y-105273369D01*
X99574624Y-105273376D01*
X99661269Y-105373369D01*
X99668872Y-105382143D01*
X99789947Y-105459953D01*
X99841423Y-105475067D01*
X99928038Y-105500500D01*
X99928039Y-105500500D01*
X100071962Y-105500500D01*
X100144959Y-105479066D01*
X100210053Y-105459953D01*
X100331128Y-105382143D01*
X100363312Y-105345000D01*
X140594353Y-105345000D01*
X140614835Y-105487458D01*
X140614836Y-105487462D01*
X140674620Y-105618369D01*
X140674624Y-105618376D01*
X140766582Y-105724500D01*
X140768872Y-105727143D01*
X140889947Y-105804953D01*
X140941423Y-105820067D01*
X141028038Y-105845500D01*
X141028039Y-105845500D01*
X141171962Y-105845500D01*
X141225189Y-105829870D01*
X141310053Y-105804953D01*
X141431128Y-105727143D01*
X141467645Y-105685000D01*
X145244417Y-105685000D01*
X145264699Y-105890933D01*
X145324768Y-106088955D01*
X145422313Y-106271448D01*
X145422315Y-106271450D01*
X145553590Y-106431410D01*
X145635189Y-106498376D01*
X145713551Y-106562686D01*
X145796722Y-106607142D01*
X145896046Y-106660232D01*
X146094066Y-106720300D01*
X146300000Y-106740583D01*
X146505934Y-106720300D01*
X146703954Y-106660232D01*
X146886450Y-106562685D01*
X147046410Y-106431410D01*
X147177685Y-106271450D01*
X147275232Y-106088954D01*
X147335300Y-105890934D01*
X147355583Y-105685000D01*
X147335300Y-105479066D01*
X147275232Y-105281046D01*
X147201154Y-105142457D01*
X147178460Y-105100000D01*
X148594353Y-105100000D01*
X148614835Y-105242458D01*
X148614836Y-105242462D01*
X148674620Y-105373369D01*
X148674624Y-105373376D01*
X148749644Y-105459953D01*
X148768872Y-105482143D01*
X148889947Y-105559953D01*
X148941423Y-105575067D01*
X149028038Y-105600500D01*
X149028039Y-105600500D01*
X149171962Y-105600500D01*
X149225189Y-105584870D01*
X149310053Y-105559953D01*
X149431128Y-105482143D01*
X149517779Y-105382142D01*
X149525375Y-105373376D01*
X149525379Y-105373369D01*
X149585163Y-105242462D01*
X149585163Y-105242460D01*
X149585165Y-105242457D01*
X149605647Y-105100000D01*
X149585165Y-104957543D01*
X149585163Y-104957540D01*
X149585163Y-104957537D01*
X149525379Y-104826630D01*
X149525375Y-104826623D01*
X149431128Y-104717857D01*
X149431127Y-104717856D01*
X149325073Y-104649700D01*
X149310053Y-104640047D01*
X149310050Y-104640046D01*
X149310048Y-104640045D01*
X149171962Y-104599500D01*
X149171961Y-104599500D01*
X149028039Y-104599500D01*
X149028038Y-104599500D01*
X148889951Y-104640045D01*
X148889945Y-104640048D01*
X148768872Y-104717856D01*
X148768871Y-104717857D01*
X148674624Y-104826623D01*
X148674620Y-104826630D01*
X148614836Y-104957537D01*
X148614835Y-104957541D01*
X148594353Y-105100000D01*
X147178460Y-105100000D01*
X147177686Y-105098551D01*
X147155587Y-105071623D01*
X147046410Y-104938590D01*
X146886450Y-104807315D01*
X146886451Y-104807315D01*
X146886448Y-104807313D01*
X146703955Y-104709768D01*
X146505933Y-104649699D01*
X146300000Y-104629417D01*
X146094066Y-104649699D01*
X145896044Y-104709768D01*
X145713551Y-104807313D01*
X145553590Y-104938590D01*
X145422313Y-105098551D01*
X145324768Y-105281044D01*
X145264699Y-105479066D01*
X145244417Y-105685000D01*
X141467645Y-105685000D01*
X141486834Y-105662854D01*
X141525375Y-105618376D01*
X141525379Y-105618369D01*
X141585163Y-105487462D01*
X141585163Y-105487460D01*
X141585165Y-105487457D01*
X141605647Y-105345000D01*
X141585165Y-105202543D01*
X141585163Y-105202540D01*
X141585163Y-105202537D01*
X141525379Y-105071630D01*
X141525375Y-105071623D01*
X141431128Y-104962857D01*
X141431127Y-104962856D01*
X141370590Y-104923952D01*
X141310053Y-104885047D01*
X141310050Y-104885046D01*
X141310048Y-104885045D01*
X141171962Y-104844500D01*
X141171961Y-104844500D01*
X141028039Y-104844500D01*
X141028038Y-104844500D01*
X140889951Y-104885045D01*
X140889945Y-104885048D01*
X140768872Y-104962856D01*
X140768871Y-104962857D01*
X140674624Y-105071623D01*
X140674620Y-105071630D01*
X140614836Y-105202537D01*
X140614835Y-105202541D01*
X140594353Y-105345000D01*
X100363312Y-105345000D01*
X100386834Y-105317854D01*
X100425375Y-105273376D01*
X100425379Y-105273369D01*
X100485163Y-105142462D01*
X100485163Y-105142460D01*
X100485165Y-105142457D01*
X100505647Y-105000000D01*
X100485165Y-104857543D01*
X100485163Y-104857540D01*
X100485163Y-104857537D01*
X100425379Y-104726630D01*
X100425375Y-104726623D01*
X100331128Y-104617857D01*
X100331127Y-104617856D01*
X100270590Y-104578952D01*
X100210053Y-104540047D01*
X100210050Y-104540046D01*
X100210048Y-104540045D01*
X100071962Y-104499500D01*
X100071961Y-104499500D01*
X99928039Y-104499500D01*
X99928038Y-104499500D01*
X99789951Y-104540045D01*
X99789945Y-104540048D01*
X99668872Y-104617856D01*
X99668871Y-104617857D01*
X99574624Y-104726623D01*
X99574620Y-104726630D01*
X99514836Y-104857537D01*
X99514835Y-104857541D01*
X99494353Y-105000000D01*
X95505647Y-105000000D01*
X95485165Y-104857543D01*
X95485163Y-104857540D01*
X95485163Y-104857537D01*
X95425379Y-104726630D01*
X95425375Y-104726623D01*
X95331128Y-104617857D01*
X95331127Y-104617856D01*
X95270590Y-104578952D01*
X95210053Y-104540047D01*
X95210050Y-104540046D01*
X95210048Y-104540045D01*
X95071962Y-104499500D01*
X95071961Y-104499500D01*
X94928039Y-104499500D01*
X94928038Y-104499500D01*
X94789951Y-104540045D01*
X94789945Y-104540048D01*
X94668872Y-104617856D01*
X94668871Y-104617857D01*
X94574624Y-104726623D01*
X94574620Y-104726630D01*
X94514836Y-104857537D01*
X94514835Y-104857541D01*
X94494353Y-105000000D01*
X92500000Y-105000000D01*
X92500000Y-103825000D01*
X118094353Y-103825000D01*
X118114835Y-103967458D01*
X118114836Y-103967462D01*
X118174620Y-104098369D01*
X118174624Y-104098376D01*
X118263187Y-104200582D01*
X118268872Y-104207143D01*
X118389947Y-104284953D01*
X118441423Y-104300067D01*
X118528038Y-104325500D01*
X118528039Y-104325500D01*
X118671962Y-104325500D01*
X118725189Y-104309870D01*
X118810053Y-104284953D01*
X118931128Y-104207143D01*
X118986834Y-104142854D01*
X119025375Y-104098376D01*
X119025379Y-104098369D01*
X119085163Y-103967462D01*
X119085163Y-103967460D01*
X119085165Y-103967457D01*
X119105647Y-103825000D01*
X119085165Y-103682543D01*
X119085163Y-103682540D01*
X119085163Y-103682537D01*
X119025379Y-103551630D01*
X119025375Y-103551623D01*
X118931128Y-103442857D01*
X118931127Y-103442856D01*
X118817850Y-103370058D01*
X118810053Y-103365047D01*
X118810050Y-103365046D01*
X118810048Y-103365045D01*
X118671962Y-103324500D01*
X118671961Y-103324500D01*
X118528039Y-103324500D01*
X118528038Y-103324500D01*
X118389951Y-103365045D01*
X118389945Y-103365048D01*
X118268872Y-103442856D01*
X118268871Y-103442857D01*
X118174624Y-103551623D01*
X118174620Y-103551630D01*
X118114836Y-103682537D01*
X118114835Y-103682541D01*
X118094353Y-103825000D01*
X92500000Y-103825000D01*
X92500000Y-101649998D01*
X102444592Y-101649998D01*
X102444592Y-101650001D01*
X102464202Y-101936687D01*
X102522663Y-102218022D01*
X102522665Y-102218027D01*
X102522666Y-102218032D01*
X102573104Y-102359951D01*
X102618895Y-102488795D01*
X102618900Y-102488806D01*
X102751098Y-102743935D01*
X102751099Y-102743936D01*
X102916811Y-102978698D01*
X102916815Y-102978702D01*
X103112950Y-103188711D01*
X103279858Y-103324500D01*
X103329697Y-103365047D01*
X103335852Y-103370054D01*
X103335857Y-103370058D01*
X103581377Y-103519362D01*
X103581378Y-103519363D01*
X103743745Y-103589888D01*
X103844942Y-103633844D01*
X104121642Y-103711371D01*
X104263982Y-103730935D01*
X104406314Y-103750499D01*
X104406316Y-103750499D01*
X104406322Y-103750500D01*
X104406324Y-103750500D01*
X104693676Y-103750500D01*
X104693678Y-103750500D01*
X104978358Y-103711371D01*
X105255058Y-103633844D01*
X105457450Y-103545932D01*
X105518621Y-103519363D01*
X105518621Y-103519362D01*
X105518625Y-103519361D01*
X105764147Y-103370055D01*
X105987053Y-103188708D01*
X106183189Y-102978698D01*
X106348901Y-102743936D01*
X106481104Y-102488797D01*
X106577334Y-102218032D01*
X106635798Y-101936686D01*
X106655408Y-101650000D01*
X106655408Y-101649998D01*
X123944592Y-101649998D01*
X123944592Y-101650001D01*
X123964202Y-101936687D01*
X124022663Y-102218022D01*
X124022665Y-102218027D01*
X124022666Y-102218032D01*
X124073104Y-102359951D01*
X124118895Y-102488795D01*
X124118900Y-102488806D01*
X124251098Y-102743935D01*
X124251099Y-102743936D01*
X124416811Y-102978698D01*
X124416815Y-102978702D01*
X124612950Y-103188711D01*
X124779858Y-103324500D01*
X124829697Y-103365047D01*
X124835852Y-103370054D01*
X124835857Y-103370058D01*
X125081377Y-103519362D01*
X125081378Y-103519363D01*
X125243745Y-103589888D01*
X125344942Y-103633844D01*
X125621642Y-103711371D01*
X125763982Y-103730935D01*
X125906314Y-103750499D01*
X125906316Y-103750499D01*
X125906322Y-103750500D01*
X125906324Y-103750500D01*
X126193676Y-103750500D01*
X126193678Y-103750500D01*
X126478358Y-103711371D01*
X126755058Y-103633844D01*
X126957450Y-103545932D01*
X127018621Y-103519363D01*
X127018621Y-103519362D01*
X127018625Y-103519361D01*
X127264147Y-103370055D01*
X127487053Y-103188708D01*
X127527873Y-103145000D01*
X145244417Y-103145000D01*
X145264699Y-103350933D01*
X145324768Y-103548955D01*
X145422313Y-103731448D01*
X145422315Y-103731450D01*
X145553590Y-103891410D01*
X145689227Y-104002724D01*
X145713551Y-104022686D01*
X145896044Y-104120231D01*
X145896046Y-104120232D01*
X146094066Y-104180300D01*
X146300000Y-104200583D01*
X146505934Y-104180300D01*
X146703954Y-104120232D01*
X146886450Y-104022685D01*
X147046410Y-103891410D01*
X147177685Y-103731450D01*
X147275232Y-103548954D01*
X147335300Y-103350934D01*
X147355583Y-103145000D01*
X147335300Y-102939066D01*
X147275232Y-102741046D01*
X147177685Y-102558550D01*
X147046410Y-102398590D01*
X146886450Y-102267315D01*
X146886451Y-102267315D01*
X146886448Y-102267313D01*
X146703955Y-102169768D01*
X146505933Y-102109699D01*
X146300000Y-102089417D01*
X146094066Y-102109699D01*
X145896044Y-102169768D01*
X145713551Y-102267313D01*
X145553590Y-102398590D01*
X145422313Y-102558551D01*
X145324768Y-102741044D01*
X145264699Y-102939066D01*
X145244417Y-103145000D01*
X127527873Y-103145000D01*
X127683189Y-102978698D01*
X127848901Y-102743936D01*
X127981104Y-102488797D01*
X128077334Y-102218032D01*
X128135798Y-101936686D01*
X128145148Y-101800000D01*
X134394353Y-101800000D01*
X134414835Y-101942458D01*
X134414836Y-101942462D01*
X134474620Y-102073369D01*
X134474624Y-102073376D01*
X134558149Y-102169768D01*
X134568872Y-102182143D01*
X134689947Y-102259953D01*
X134715013Y-102267313D01*
X134828038Y-102300500D01*
X134828039Y-102300500D01*
X134971962Y-102300500D01*
X135034483Y-102282142D01*
X135110053Y-102259953D01*
X135231128Y-102182143D01*
X135311475Y-102089417D01*
X135325375Y-102073376D01*
X135325379Y-102073369D01*
X135385163Y-101942462D01*
X135385163Y-101942460D01*
X135385165Y-101942457D01*
X135391269Y-101900000D01*
X138294353Y-101900000D01*
X138314835Y-102042458D01*
X138314836Y-102042462D01*
X138374620Y-102173369D01*
X138374624Y-102173376D01*
X138468871Y-102282142D01*
X138468872Y-102282143D01*
X138589947Y-102359953D01*
X138641423Y-102375067D01*
X138728038Y-102400500D01*
X138728039Y-102400500D01*
X138871962Y-102400500D01*
X138925189Y-102384870D01*
X139010053Y-102359953D01*
X139131128Y-102282143D01*
X139217779Y-102182142D01*
X139225375Y-102173376D01*
X139225379Y-102173369D01*
X139285163Y-102042462D01*
X139285163Y-102042460D01*
X139285165Y-102042457D01*
X139305647Y-101900000D01*
X139285165Y-101757543D01*
X139285163Y-101757540D01*
X139285163Y-101757537D01*
X139225379Y-101626630D01*
X139225375Y-101626623D01*
X139131128Y-101517857D01*
X139131127Y-101517856D01*
X139061903Y-101473369D01*
X139010053Y-101440047D01*
X139010050Y-101440046D01*
X139010048Y-101440045D01*
X138871962Y-101399500D01*
X138871961Y-101399500D01*
X138728039Y-101399500D01*
X138728038Y-101399500D01*
X138589951Y-101440045D01*
X138589945Y-101440048D01*
X138468872Y-101517856D01*
X138468871Y-101517857D01*
X138374624Y-101626623D01*
X138374620Y-101626630D01*
X138314836Y-101757537D01*
X138314835Y-101757541D01*
X138294353Y-101900000D01*
X135391269Y-101900000D01*
X135405647Y-101800000D01*
X135385165Y-101657543D01*
X135385163Y-101657540D01*
X135385163Y-101657537D01*
X135325379Y-101526630D01*
X135325375Y-101526623D01*
X135231128Y-101417857D01*
X135231127Y-101417856D01*
X135146254Y-101363312D01*
X135110053Y-101340047D01*
X135110050Y-101340046D01*
X135110048Y-101340045D01*
X134971962Y-101299500D01*
X134971961Y-101299500D01*
X134828039Y-101299500D01*
X134828038Y-101299500D01*
X134689951Y-101340045D01*
X134689945Y-101340048D01*
X134568872Y-101417856D01*
X134568871Y-101417857D01*
X134474624Y-101526623D01*
X134474620Y-101526630D01*
X134414836Y-101657537D01*
X134414835Y-101657541D01*
X134394353Y-101800000D01*
X128145148Y-101800000D01*
X128155408Y-101650000D01*
X128135798Y-101363314D01*
X128101861Y-101200000D01*
X139794353Y-101200000D01*
X139814835Y-101342458D01*
X139814836Y-101342462D01*
X139874620Y-101473369D01*
X139874624Y-101473376D01*
X139968871Y-101582142D01*
X139968872Y-101582143D01*
X140089947Y-101659953D01*
X140141423Y-101675067D01*
X140228038Y-101700500D01*
X140228039Y-101700500D01*
X140371962Y-101700500D01*
X140425189Y-101684870D01*
X140510053Y-101659953D01*
X140631128Y-101582143D01*
X140686834Y-101517854D01*
X140725375Y-101473376D01*
X140725379Y-101473369D01*
X140785163Y-101342462D01*
X140785163Y-101342460D01*
X140785165Y-101342457D01*
X140805647Y-101200000D01*
X140785165Y-101057543D01*
X140785163Y-101057540D01*
X140785163Y-101057537D01*
X140725379Y-100926630D01*
X140725375Y-100926623D01*
X140631128Y-100817857D01*
X140631127Y-100817856D01*
X140570590Y-100778952D01*
X140510053Y-100740047D01*
X140510050Y-100740046D01*
X140510048Y-100740045D01*
X140371962Y-100699500D01*
X140371961Y-100699500D01*
X140228039Y-100699500D01*
X140228038Y-100699500D01*
X140089951Y-100740045D01*
X140089945Y-100740048D01*
X139968872Y-100817856D01*
X139968871Y-100817857D01*
X139874624Y-100926623D01*
X139874620Y-100926630D01*
X139814836Y-101057537D01*
X139814835Y-101057541D01*
X139794353Y-101200000D01*
X128101861Y-101200000D01*
X128077334Y-101081968D01*
X127981104Y-100811203D01*
X127909687Y-100673376D01*
X127848901Y-100556064D01*
X127738740Y-100400000D01*
X134594353Y-100400000D01*
X134614835Y-100542458D01*
X134614836Y-100542462D01*
X134674620Y-100673369D01*
X134674624Y-100673376D01*
X134768871Y-100782142D01*
X134768872Y-100782143D01*
X134889947Y-100859953D01*
X134941423Y-100875067D01*
X135028038Y-100900500D01*
X135028039Y-100900500D01*
X135171962Y-100900500D01*
X135225189Y-100884870D01*
X135310053Y-100859953D01*
X135431128Y-100782143D01*
X135496854Y-100706291D01*
X135525375Y-100673376D01*
X135525379Y-100673369D01*
X135585163Y-100542462D01*
X135585163Y-100542460D01*
X135585165Y-100542457D01*
X135605647Y-100400000D01*
X135585165Y-100257543D01*
X135585163Y-100257540D01*
X135585163Y-100257537D01*
X135525379Y-100126630D01*
X135525375Y-100126623D01*
X135431128Y-100017857D01*
X135431127Y-100017856D01*
X135370590Y-99978952D01*
X135310053Y-99940047D01*
X135310050Y-99940046D01*
X135310048Y-99940045D01*
X135173651Y-99899996D01*
X137144750Y-99899996D01*
X137144750Y-99900003D01*
X137163669Y-100043709D01*
X137163670Y-100043711D01*
X137219137Y-100177622D01*
X137219139Y-100177626D01*
X137307377Y-100292620D01*
X137307379Y-100292622D01*
X137422373Y-100380860D01*
X137422377Y-100380862D01*
X137556288Y-100436329D01*
X137556290Y-100436330D01*
X137699997Y-100455250D01*
X137700000Y-100455250D01*
X137700003Y-100455250D01*
X137843709Y-100436330D01*
X137843711Y-100436329D01*
X137888307Y-100417857D01*
X137977625Y-100380861D01*
X138083656Y-100299500D01*
X138092620Y-100292622D01*
X138092622Y-100292620D01*
X138180860Y-100177626D01*
X138180859Y-100177626D01*
X138180861Y-100177625D01*
X138236330Y-100043709D01*
X138242085Y-100000000D01*
X138255250Y-99900003D01*
X138255250Y-99899996D01*
X138236330Y-99756290D01*
X138236329Y-99756288D01*
X138180862Y-99622377D01*
X138180860Y-99622373D01*
X138092622Y-99507379D01*
X138092620Y-99507377D01*
X137977626Y-99419139D01*
X137977622Y-99419137D01*
X137843711Y-99363670D01*
X137843709Y-99363669D01*
X137700003Y-99344750D01*
X137699997Y-99344750D01*
X137556290Y-99363669D01*
X137556288Y-99363670D01*
X137422377Y-99419137D01*
X137422373Y-99419139D01*
X137307379Y-99507377D01*
X137307377Y-99507379D01*
X137219139Y-99622373D01*
X137219137Y-99622377D01*
X137163670Y-99756288D01*
X137163669Y-99756290D01*
X137144750Y-99899996D01*
X135173651Y-99899996D01*
X135171962Y-99899500D01*
X135171961Y-99899500D01*
X135028039Y-99899500D01*
X135028038Y-99899500D01*
X134889951Y-99940045D01*
X134889945Y-99940048D01*
X134768872Y-100017856D01*
X134768871Y-100017857D01*
X134674624Y-100126623D01*
X134674620Y-100126630D01*
X134614836Y-100257537D01*
X134614835Y-100257541D01*
X134594353Y-100400000D01*
X127738740Y-100400000D01*
X127683194Y-100321309D01*
X127683193Y-100321308D01*
X127683189Y-100321302D01*
X127487053Y-100111292D01*
X127487051Y-100111291D01*
X127487049Y-100111288D01*
X127264147Y-99929945D01*
X127264142Y-99929941D01*
X127018622Y-99780637D01*
X127018621Y-99780636D01*
X126763908Y-99670000D01*
X132724353Y-99670000D01*
X132744835Y-99812458D01*
X132744836Y-99812462D01*
X132804620Y-99943369D01*
X132804624Y-99943376D01*
X132898871Y-100052142D01*
X132898872Y-100052143D01*
X133019947Y-100129953D01*
X133062532Y-100142457D01*
X133158038Y-100170500D01*
X133158039Y-100170500D01*
X133301962Y-100170500D01*
X133355189Y-100154870D01*
X133440053Y-100129953D01*
X133561128Y-100052143D01*
X133650577Y-99948913D01*
X133655375Y-99943376D01*
X133655379Y-99943369D01*
X133715163Y-99812462D01*
X133715163Y-99812460D01*
X133715165Y-99812457D01*
X133735647Y-99670000D01*
X133715165Y-99527543D01*
X133715163Y-99527540D01*
X133715163Y-99527537D01*
X133655379Y-99396630D01*
X133655375Y-99396623D01*
X133561128Y-99287857D01*
X133561127Y-99287856D01*
X133500590Y-99248952D01*
X133440053Y-99210047D01*
X133440050Y-99210046D01*
X133440048Y-99210045D01*
X133301962Y-99169500D01*
X133301961Y-99169500D01*
X133158039Y-99169500D01*
X133158038Y-99169500D01*
X133019951Y-99210045D01*
X133019945Y-99210048D01*
X132898872Y-99287856D01*
X132898871Y-99287857D01*
X132804624Y-99396623D01*
X132804620Y-99396630D01*
X132744836Y-99527537D01*
X132744835Y-99527541D01*
X132724353Y-99670000D01*
X126763908Y-99670000D01*
X126755056Y-99666155D01*
X126478355Y-99588628D01*
X126478349Y-99588627D01*
X126193685Y-99549500D01*
X126193678Y-99549500D01*
X125906322Y-99549500D01*
X125906314Y-99549500D01*
X125621650Y-99588627D01*
X125621644Y-99588628D01*
X125344943Y-99666155D01*
X125081378Y-99780636D01*
X125081377Y-99780637D01*
X124835857Y-99929941D01*
X124835852Y-99929945D01*
X124612950Y-100111288D01*
X124416815Y-100321297D01*
X124416805Y-100321309D01*
X124251098Y-100556064D01*
X124118900Y-100811193D01*
X124118895Y-100811204D01*
X124077874Y-100926627D01*
X124031348Y-101057541D01*
X124022666Y-101081969D01*
X124022663Y-101081977D01*
X123964202Y-101363312D01*
X123944592Y-101649998D01*
X106655408Y-101649998D01*
X106635798Y-101363314D01*
X106577334Y-101081968D01*
X106481104Y-100811203D01*
X106475299Y-100800000D01*
X109489353Y-100800000D01*
X109509835Y-100942458D01*
X109509836Y-100942462D01*
X109569620Y-101073369D01*
X109569624Y-101073376D01*
X109663871Y-101182142D01*
X109663872Y-101182143D01*
X109784947Y-101259953D01*
X109836423Y-101275067D01*
X109923038Y-101300500D01*
X109923039Y-101300500D01*
X110066962Y-101300500D01*
X110120189Y-101284870D01*
X110205053Y-101259953D01*
X110326128Y-101182143D01*
X110412929Y-101081969D01*
X110420375Y-101073376D01*
X110420379Y-101073369D01*
X110480163Y-100942462D01*
X110480163Y-100942460D01*
X110480165Y-100942457D01*
X110500647Y-100800000D01*
X113994353Y-100800000D01*
X114014835Y-100942458D01*
X114014836Y-100942462D01*
X114074620Y-101073369D01*
X114074624Y-101073376D01*
X114168871Y-101182142D01*
X114168872Y-101182143D01*
X114289947Y-101259953D01*
X114341423Y-101275067D01*
X114428038Y-101300500D01*
X114428039Y-101300500D01*
X114571962Y-101300500D01*
X114625189Y-101284870D01*
X114710053Y-101259953D01*
X114831128Y-101182143D01*
X114917929Y-101081969D01*
X114925375Y-101073376D01*
X114925379Y-101073369D01*
X114985163Y-100942462D01*
X114985163Y-100942460D01*
X114985165Y-100942457D01*
X115005647Y-100800000D01*
X114985165Y-100657543D01*
X114985163Y-100657540D01*
X114985163Y-100657537D01*
X114925379Y-100526630D01*
X114925375Y-100526623D01*
X114831128Y-100417857D01*
X114831127Y-100417856D01*
X114755318Y-100369137D01*
X114710053Y-100340047D01*
X114710050Y-100340046D01*
X114710048Y-100340045D01*
X114571962Y-100299500D01*
X114571961Y-100299500D01*
X114428039Y-100299500D01*
X114428038Y-100299500D01*
X114289951Y-100340045D01*
X114289945Y-100340048D01*
X114168872Y-100417856D01*
X114168871Y-100417857D01*
X114074624Y-100526623D01*
X114074620Y-100526630D01*
X114014836Y-100657537D01*
X114014835Y-100657541D01*
X113994353Y-100800000D01*
X110500647Y-100800000D01*
X110480165Y-100657543D01*
X110480163Y-100657540D01*
X110480163Y-100657537D01*
X110420379Y-100526630D01*
X110420375Y-100526623D01*
X110326128Y-100417857D01*
X110326127Y-100417856D01*
X110250318Y-100369137D01*
X110205053Y-100340047D01*
X110205050Y-100340046D01*
X110205048Y-100340045D01*
X110066962Y-100299500D01*
X110066961Y-100299500D01*
X109923039Y-100299500D01*
X109923038Y-100299500D01*
X109784951Y-100340045D01*
X109784945Y-100340048D01*
X109663872Y-100417856D01*
X109663871Y-100417857D01*
X109569624Y-100526623D01*
X109569620Y-100526630D01*
X109509836Y-100657537D01*
X109509835Y-100657541D01*
X109489353Y-100800000D01*
X106475299Y-100800000D01*
X106409687Y-100673376D01*
X106348901Y-100556064D01*
X106183194Y-100321309D01*
X106183193Y-100321308D01*
X106183189Y-100321302D01*
X105987053Y-100111292D01*
X105987051Y-100111291D01*
X105987049Y-100111288D01*
X105764147Y-99929945D01*
X105764142Y-99929941D01*
X105518622Y-99780637D01*
X105518621Y-99780636D01*
X105255056Y-99666155D01*
X104978355Y-99588628D01*
X104978349Y-99588627D01*
X104693685Y-99549500D01*
X104693678Y-99549500D01*
X104406322Y-99549500D01*
X104406314Y-99549500D01*
X104121650Y-99588627D01*
X104121644Y-99588628D01*
X103844943Y-99666155D01*
X103581378Y-99780636D01*
X103581377Y-99780637D01*
X103335857Y-99929941D01*
X103335852Y-99929945D01*
X103112950Y-100111288D01*
X102916815Y-100321297D01*
X102916805Y-100321309D01*
X102751098Y-100556064D01*
X102618900Y-100811193D01*
X102618895Y-100811204D01*
X102577874Y-100926627D01*
X102531348Y-101057541D01*
X102522666Y-101081969D01*
X102522663Y-101081977D01*
X102464202Y-101363312D01*
X102444592Y-101649998D01*
X92500000Y-101649998D01*
X92500000Y-98929000D01*
X92519707Y-98842657D01*
X92574926Y-98773416D01*
X92654718Y-98734989D01*
X92699000Y-98730000D01*
X94139727Y-98730000D01*
X94226070Y-98749707D01*
X94295311Y-98804926D01*
X94333738Y-98884718D01*
X94333738Y-98973282D01*
X94295311Y-99053074D01*
X94250286Y-99094462D01*
X94171587Y-99147046D01*
X94171580Y-99147052D01*
X94067052Y-99251580D01*
X94067046Y-99251588D01*
X93984917Y-99374502D01*
X93984915Y-99374505D01*
X93928341Y-99511089D01*
X93899500Y-99656082D01*
X93899500Y-99803917D01*
X93928341Y-99948910D01*
X93984915Y-100085494D01*
X93984916Y-100085495D01*
X94067049Y-100208416D01*
X94171584Y-100312951D01*
X94294505Y-100395084D01*
X94431087Y-100451658D01*
X94576082Y-100480500D01*
X94576083Y-100480500D01*
X95323917Y-100480500D01*
X95323918Y-100480500D01*
X95468913Y-100451658D01*
X95605495Y-100395084D01*
X95728416Y-100312951D01*
X95832951Y-100208416D01*
X95915084Y-100085495D01*
X95950497Y-100000000D01*
X99494353Y-100000000D01*
X99514835Y-100142458D01*
X99514836Y-100142462D01*
X99574620Y-100273369D01*
X99574624Y-100273376D01*
X99657602Y-100369137D01*
X99668872Y-100382143D01*
X99789947Y-100459953D01*
X99841423Y-100475067D01*
X99928038Y-100500500D01*
X99928039Y-100500500D01*
X100071962Y-100500500D01*
X100125189Y-100484870D01*
X100210053Y-100459953D01*
X100331128Y-100382143D01*
X100420862Y-100278584D01*
X100425375Y-100273376D01*
X100425379Y-100273369D01*
X100485163Y-100142462D01*
X100485163Y-100142460D01*
X100485165Y-100142457D01*
X100505647Y-100000000D01*
X100485165Y-99857543D01*
X100485163Y-99857540D01*
X100485163Y-99857537D01*
X100425379Y-99726630D01*
X100425375Y-99726623D01*
X100331128Y-99617857D01*
X100331127Y-99617856D01*
X100224762Y-99549500D01*
X100210053Y-99540047D01*
X100210050Y-99540046D01*
X100210048Y-99540045D01*
X100071962Y-99499500D01*
X100071961Y-99499500D01*
X99928039Y-99499500D01*
X99928038Y-99499500D01*
X99789951Y-99540045D01*
X99789945Y-99540048D01*
X99668872Y-99617856D01*
X99668871Y-99617857D01*
X99574624Y-99726623D01*
X99574620Y-99726630D01*
X99514836Y-99857537D01*
X99514835Y-99857541D01*
X99494353Y-100000000D01*
X95950497Y-100000000D01*
X95971658Y-99948913D01*
X96000500Y-99803918D01*
X96000500Y-99656082D01*
X95971658Y-99511087D01*
X95915084Y-99374505D01*
X95832951Y-99251584D01*
X95728416Y-99147049D01*
X95649714Y-99094462D01*
X95605497Y-99064917D01*
X95605494Y-99064915D01*
X95508914Y-99024911D01*
X95468913Y-99008342D01*
X95468911Y-99008341D01*
X95468913Y-99008341D01*
X95394648Y-98993569D01*
X95313809Y-98957395D01*
X95256671Y-98889729D01*
X95234551Y-98803972D01*
X95251830Y-98717111D01*
X95302552Y-98648525D01*
X95336882Y-98618536D01*
X95388162Y-98523263D01*
X95402698Y-98416047D01*
X95378638Y-98310559D01*
X95319049Y-98220250D01*
X95291190Y-98200000D01*
X109654353Y-98200000D01*
X109674835Y-98342458D01*
X109674836Y-98342462D01*
X109734620Y-98473369D01*
X109734624Y-98473376D01*
X109828871Y-98582142D01*
X109828872Y-98582143D01*
X109949947Y-98659953D01*
X110001423Y-98675067D01*
X110088038Y-98700500D01*
X110088039Y-98700500D01*
X110231962Y-98700500D01*
X110285189Y-98684870D01*
X110370053Y-98659953D01*
X110463342Y-98600000D01*
X116094353Y-98600000D01*
X116114835Y-98742458D01*
X116114836Y-98742462D01*
X116174620Y-98873369D01*
X116174624Y-98873376D01*
X116261194Y-98973282D01*
X116268872Y-98982143D01*
X116389947Y-99059953D01*
X116406850Y-99064916D01*
X116528038Y-99100500D01*
X116528039Y-99100500D01*
X116671962Y-99100500D01*
X116725189Y-99084870D01*
X116810053Y-99059953D01*
X116931128Y-98982143D01*
X117015547Y-98884718D01*
X117025375Y-98873376D01*
X117025379Y-98873369D01*
X117085163Y-98742462D01*
X117085163Y-98742460D01*
X117085165Y-98742457D01*
X117105647Y-98600000D01*
X117085165Y-98457543D01*
X117085163Y-98457540D01*
X117085163Y-98457537D01*
X117025379Y-98326630D01*
X117025375Y-98326623D01*
X116931128Y-98217857D01*
X116931127Y-98217856D01*
X116835863Y-98156634D01*
X116810053Y-98140047D01*
X116810050Y-98140046D01*
X116810048Y-98140045D01*
X116671962Y-98099500D01*
X116671961Y-98099500D01*
X116528039Y-98099500D01*
X116528038Y-98099500D01*
X116389951Y-98140045D01*
X116389945Y-98140048D01*
X116268872Y-98217856D01*
X116268871Y-98217857D01*
X116174624Y-98326623D01*
X116174620Y-98326630D01*
X116114836Y-98457537D01*
X116114835Y-98457541D01*
X116094353Y-98600000D01*
X110463342Y-98600000D01*
X110491128Y-98582143D01*
X110546834Y-98517854D01*
X110585375Y-98473376D01*
X110585379Y-98473369D01*
X110645163Y-98342462D01*
X110645163Y-98342460D01*
X110645165Y-98342457D01*
X110665647Y-98200000D01*
X110645165Y-98057543D01*
X110645163Y-98057540D01*
X110645163Y-98057537D01*
X110596052Y-97950000D01*
X118094353Y-97950000D01*
X118114835Y-98092458D01*
X118114836Y-98092462D01*
X118174620Y-98223369D01*
X118174624Y-98223376D01*
X118264089Y-98326623D01*
X118268872Y-98332143D01*
X118389947Y-98409953D01*
X118441423Y-98425067D01*
X118528038Y-98450500D01*
X118528039Y-98450500D01*
X118671962Y-98450500D01*
X118725189Y-98434870D01*
X118810053Y-98409953D01*
X118931128Y-98332143D01*
X118986834Y-98267854D01*
X119025375Y-98223376D01*
X119025379Y-98223369D01*
X119085163Y-98092462D01*
X119085163Y-98092460D01*
X119085165Y-98092457D01*
X119105647Y-97950000D01*
X119085165Y-97807543D01*
X119085163Y-97807540D01*
X119085163Y-97807537D01*
X119025379Y-97676630D01*
X119025375Y-97676623D01*
X118958980Y-97600000D01*
X127494353Y-97600000D01*
X127514835Y-97742458D01*
X127514836Y-97742462D01*
X127574620Y-97873369D01*
X127574624Y-97873376D01*
X127649644Y-97959953D01*
X127668872Y-97982143D01*
X127789947Y-98059953D01*
X127841423Y-98075067D01*
X127928038Y-98100500D01*
X127928039Y-98100500D01*
X128071962Y-98100500D01*
X128125189Y-98084870D01*
X128210053Y-98059953D01*
X128331128Y-97982143D01*
X128417779Y-97882142D01*
X128425375Y-97873376D01*
X128425379Y-97873369D01*
X128485163Y-97742462D01*
X128485163Y-97742460D01*
X128485165Y-97742457D01*
X128505647Y-97600000D01*
X128491269Y-97500000D01*
X139494353Y-97500000D01*
X139514835Y-97642458D01*
X139514836Y-97642462D01*
X139574620Y-97773369D01*
X139574624Y-97773376D01*
X139661269Y-97873369D01*
X139668872Y-97882143D01*
X139789947Y-97959953D01*
X139821794Y-97969304D01*
X139928038Y-98000500D01*
X139928039Y-98000500D01*
X140071962Y-98000500D01*
X140134483Y-97982142D01*
X140210053Y-97959953D01*
X140331128Y-97882143D01*
X140395769Y-97807543D01*
X140425375Y-97773376D01*
X140425379Y-97773369D01*
X140485163Y-97642462D01*
X140485163Y-97642460D01*
X140485165Y-97642457D01*
X140505647Y-97500000D01*
X140485165Y-97357543D01*
X140485163Y-97357540D01*
X140485163Y-97357537D01*
X140425379Y-97226630D01*
X140425375Y-97226623D01*
X140331128Y-97117857D01*
X140331127Y-97117856D01*
X140270590Y-97078952D01*
X140210053Y-97040047D01*
X140210050Y-97040046D01*
X140210048Y-97040045D01*
X140071962Y-96999500D01*
X140071961Y-96999500D01*
X139928039Y-96999500D01*
X139928038Y-96999500D01*
X139789951Y-97040045D01*
X139789945Y-97040048D01*
X139668872Y-97117856D01*
X139668871Y-97117857D01*
X139574624Y-97226623D01*
X139574620Y-97226630D01*
X139514836Y-97357537D01*
X139514835Y-97357541D01*
X139494353Y-97500000D01*
X128491269Y-97500000D01*
X128485165Y-97457543D01*
X128485163Y-97457540D01*
X128485163Y-97457537D01*
X128425379Y-97326630D01*
X128425375Y-97326623D01*
X128331128Y-97217857D01*
X128331127Y-97217856D01*
X128221846Y-97147626D01*
X128210053Y-97140047D01*
X128210050Y-97140046D01*
X128210048Y-97140045D01*
X128071962Y-97099500D01*
X128071961Y-97099500D01*
X127928039Y-97099500D01*
X127928038Y-97099500D01*
X127789951Y-97140045D01*
X127789945Y-97140048D01*
X127668872Y-97217856D01*
X127668871Y-97217857D01*
X127574624Y-97326623D01*
X127574620Y-97326630D01*
X127514836Y-97457537D01*
X127514835Y-97457541D01*
X127494353Y-97600000D01*
X118958980Y-97600000D01*
X118931128Y-97567857D01*
X118931127Y-97567856D01*
X118825540Y-97500000D01*
X118810053Y-97490047D01*
X118810050Y-97490046D01*
X118810048Y-97490045D01*
X118671962Y-97449500D01*
X118671961Y-97449500D01*
X118528039Y-97449500D01*
X118528038Y-97449500D01*
X118389951Y-97490045D01*
X118389945Y-97490048D01*
X118268872Y-97567856D01*
X118268871Y-97567857D01*
X118174624Y-97676623D01*
X118174620Y-97676630D01*
X118114836Y-97807537D01*
X118114835Y-97807541D01*
X118094353Y-97950000D01*
X110596052Y-97950000D01*
X110585379Y-97926630D01*
X110585375Y-97926623D01*
X110491128Y-97817857D01*
X110491127Y-97817856D01*
X110421903Y-97773369D01*
X110370053Y-97740047D01*
X110370050Y-97740046D01*
X110370048Y-97740045D01*
X110231962Y-97699500D01*
X110231961Y-97699500D01*
X110088039Y-97699500D01*
X110088038Y-97699500D01*
X109949951Y-97740045D01*
X109949945Y-97740048D01*
X109828872Y-97817856D01*
X109828871Y-97817857D01*
X109734624Y-97926623D01*
X109734620Y-97926630D01*
X109674836Y-98057537D01*
X109674835Y-98057541D01*
X109654353Y-98200000D01*
X95291190Y-98200000D01*
X95231529Y-98156635D01*
X95231528Y-98156634D01*
X95217476Y-98149490D01*
X95218622Y-98147234D01*
X95161745Y-98113394D01*
X95112819Y-98039572D01*
X95100000Y-97969304D01*
X95100000Y-96869996D01*
X96654750Y-96869996D01*
X96654750Y-96870003D01*
X96673669Y-97013709D01*
X96673670Y-97013711D01*
X96729137Y-97147622D01*
X96729139Y-97147626D01*
X96817377Y-97262620D01*
X96817379Y-97262622D01*
X96932373Y-97350860D01*
X96932377Y-97350862D01*
X97066288Y-97406329D01*
X97066290Y-97406330D01*
X97209997Y-97425250D01*
X97210000Y-97425250D01*
X97210003Y-97425250D01*
X97353709Y-97406330D01*
X97353711Y-97406329D01*
X97465672Y-97359954D01*
X97487625Y-97350861D01*
X97602621Y-97262621D01*
X97690861Y-97147625D01*
X97746330Y-97013709D01*
X97748201Y-96999500D01*
X97765250Y-96870003D01*
X97765250Y-96869996D01*
X97746330Y-96726290D01*
X97746329Y-96726288D01*
X97690862Y-96592377D01*
X97690860Y-96592373D01*
X97602622Y-96477379D01*
X97602620Y-96477377D01*
X97487626Y-96389139D01*
X97487622Y-96389137D01*
X97353711Y-96333670D01*
X97353709Y-96333669D01*
X97210003Y-96314750D01*
X97209997Y-96314750D01*
X97066290Y-96333669D01*
X97066288Y-96333670D01*
X96932377Y-96389137D01*
X96932373Y-96389139D01*
X96817379Y-96477377D01*
X96817377Y-96477379D01*
X96729139Y-96592373D01*
X96729137Y-96592377D01*
X96673670Y-96726288D01*
X96673669Y-96726290D01*
X96654750Y-96869996D01*
X95100000Y-96869996D01*
X95100000Y-95434996D01*
X98429750Y-95434996D01*
X98429750Y-95435003D01*
X98448669Y-95578709D01*
X98448670Y-95578711D01*
X98504137Y-95712622D01*
X98504139Y-95712626D01*
X98592377Y-95827620D01*
X98592379Y-95827622D01*
X98707373Y-95915860D01*
X98707377Y-95915862D01*
X98841288Y-95971329D01*
X98841290Y-95971330D01*
X98984997Y-95990250D01*
X98985000Y-95990250D01*
X98985003Y-95990250D01*
X99128709Y-95971330D01*
X99128711Y-95971329D01*
X99262625Y-95915861D01*
X99377621Y-95827621D01*
X99465861Y-95712625D01*
X99521330Y-95578709D01*
X99535901Y-95468032D01*
X99538275Y-95450000D01*
X100444353Y-95450000D01*
X100464835Y-95592458D01*
X100464836Y-95592462D01*
X100524620Y-95723369D01*
X100524624Y-95723376D01*
X100618871Y-95832142D01*
X100618872Y-95832143D01*
X100739947Y-95909953D01*
X100791423Y-95925067D01*
X100878038Y-95950500D01*
X100878039Y-95950500D01*
X101021962Y-95950500D01*
X101075189Y-95934870D01*
X101160053Y-95909953D01*
X101281128Y-95832143D01*
X101336834Y-95767854D01*
X101375375Y-95723376D01*
X101375379Y-95723369D01*
X101435163Y-95592462D01*
X101435163Y-95592460D01*
X101435165Y-95592457D01*
X101455647Y-95450000D01*
X101435165Y-95307543D01*
X101435163Y-95307540D01*
X101435163Y-95307537D01*
X101375379Y-95176630D01*
X101375375Y-95176623D01*
X101281128Y-95067857D01*
X101281127Y-95067856D01*
X101175540Y-95000000D01*
X101160053Y-94990047D01*
X101160050Y-94990046D01*
X101160048Y-94990045D01*
X101021962Y-94949500D01*
X101021961Y-94949500D01*
X100878039Y-94949500D01*
X100878038Y-94949500D01*
X100739951Y-94990045D01*
X100739945Y-94990048D01*
X100618872Y-95067856D01*
X100618871Y-95067857D01*
X100524624Y-95176623D01*
X100524620Y-95176630D01*
X100464836Y-95307537D01*
X100464835Y-95307541D01*
X100444353Y-95450000D01*
X99538275Y-95450000D01*
X99540250Y-95435003D01*
X99540250Y-95434996D01*
X99521330Y-95291290D01*
X99521329Y-95291288D01*
X99465862Y-95157377D01*
X99465860Y-95157373D01*
X99377622Y-95042379D01*
X99377620Y-95042377D01*
X99262626Y-94954139D01*
X99262622Y-94954137D01*
X99131917Y-94899998D01*
X109194592Y-94899998D01*
X109194592Y-94900001D01*
X109214202Y-95186687D01*
X109272663Y-95468022D01*
X109272665Y-95468027D01*
X109272666Y-95468032D01*
X109341065Y-95660490D01*
X109368895Y-95738795D01*
X109368900Y-95738806D01*
X109489385Y-95971330D01*
X109501099Y-95993936D01*
X109666811Y-96228698D01*
X109666815Y-96228702D01*
X109862950Y-96438711D01*
X110085852Y-96620054D01*
X110085857Y-96620058D01*
X110195325Y-96686627D01*
X110311931Y-96757537D01*
X110331377Y-96769362D01*
X110331378Y-96769363D01*
X110442301Y-96817543D01*
X110594942Y-96883844D01*
X110871642Y-96961371D01*
X111013982Y-96980935D01*
X111156314Y-97000499D01*
X111156316Y-97000499D01*
X111156322Y-97000500D01*
X111156324Y-97000500D01*
X111443676Y-97000500D01*
X111443678Y-97000500D01*
X111728358Y-96961371D01*
X112005058Y-96883844D01*
X112207450Y-96795932D01*
X112268621Y-96769363D01*
X112268621Y-96769362D01*
X112268625Y-96769361D01*
X112514147Y-96620055D01*
X112596584Y-96552987D01*
X112675997Y-96513785D01*
X112764556Y-96512920D01*
X112844720Y-96550566D01*
X112900612Y-96619265D01*
X112921161Y-96705412D01*
X112915900Y-96743315D01*
X112916861Y-96743454D01*
X112914836Y-96757541D01*
X112914835Y-96757543D01*
X112898667Y-96869996D01*
X112894353Y-96900000D01*
X112914835Y-97042458D01*
X112914836Y-97042462D01*
X112974620Y-97173369D01*
X112974624Y-97173376D01*
X113026615Y-97233376D01*
X113068872Y-97282143D01*
X113189947Y-97359953D01*
X113241423Y-97375067D01*
X113328038Y-97400500D01*
X113328039Y-97400500D01*
X113471962Y-97400500D01*
X113525189Y-97384870D01*
X113610053Y-97359953D01*
X113731128Y-97282143D01*
X113786834Y-97217854D01*
X113825375Y-97173376D01*
X113825379Y-97173369D01*
X113885163Y-97042462D01*
X113885163Y-97042460D01*
X113885165Y-97042457D01*
X113905647Y-96900000D01*
X113885165Y-96757543D01*
X113885163Y-96757540D01*
X113885163Y-96757537D01*
X113825379Y-96626630D01*
X113825375Y-96626623D01*
X113731128Y-96517857D01*
X113731127Y-96517856D01*
X113668140Y-96477377D01*
X113610053Y-96440047D01*
X113610050Y-96440046D01*
X113610048Y-96440045D01*
X113471962Y-96399500D01*
X113471961Y-96399500D01*
X113328039Y-96399500D01*
X113328038Y-96399500D01*
X113225875Y-96429497D01*
X113137477Y-96434914D01*
X113055484Y-96401439D01*
X112996134Y-96335704D01*
X112971183Y-96250728D01*
X112985573Y-96163341D01*
X113007230Y-96123804D01*
X113098901Y-95993936D01*
X113231104Y-95738797D01*
X113327334Y-95468032D01*
X113385798Y-95186686D01*
X113405408Y-94900000D01*
X113405408Y-94899998D01*
X117194592Y-94899998D01*
X117194592Y-94900001D01*
X117214202Y-95186687D01*
X117272663Y-95468022D01*
X117272665Y-95468027D01*
X117272666Y-95468032D01*
X117341065Y-95660490D01*
X117368895Y-95738795D01*
X117368900Y-95738806D01*
X117489385Y-95971330D01*
X117501099Y-95993936D01*
X117666811Y-96228698D01*
X117666815Y-96228702D01*
X117862950Y-96438711D01*
X118085852Y-96620054D01*
X118085857Y-96620058D01*
X118195325Y-96686627D01*
X118311931Y-96757537D01*
X118331377Y-96769362D01*
X118331378Y-96769363D01*
X118442301Y-96817543D01*
X118594942Y-96883844D01*
X118871642Y-96961371D01*
X119013982Y-96980935D01*
X119156314Y-97000499D01*
X119156316Y-97000499D01*
X119156322Y-97000500D01*
X119156324Y-97000500D01*
X119443676Y-97000500D01*
X119443678Y-97000500D01*
X119728358Y-96961371D01*
X119733251Y-96960000D01*
X125814353Y-96960000D01*
X125834835Y-97102458D01*
X125834836Y-97102462D01*
X125894620Y-97233369D01*
X125894624Y-97233376D01*
X125975424Y-97326623D01*
X125988872Y-97342143D01*
X126109947Y-97419953D01*
X126161423Y-97435067D01*
X126248038Y-97460500D01*
X126248039Y-97460500D01*
X126391962Y-97460500D01*
X126445189Y-97444870D01*
X126530053Y-97419953D01*
X126651128Y-97342143D01*
X126720035Y-97262620D01*
X126745375Y-97233376D01*
X126745379Y-97233369D01*
X126805163Y-97102462D01*
X126805163Y-97102460D01*
X126805165Y-97102457D01*
X126825647Y-96960000D01*
X126824209Y-96950000D01*
X134459353Y-96950000D01*
X134479835Y-97092458D01*
X134479836Y-97092462D01*
X134539620Y-97223369D01*
X134539624Y-97223376D01*
X134629089Y-97326623D01*
X134633872Y-97332143D01*
X134754947Y-97409953D01*
X134789004Y-97419953D01*
X134893038Y-97450500D01*
X134893039Y-97450500D01*
X135036962Y-97450500D01*
X135090189Y-97434870D01*
X135175053Y-97409953D01*
X135296128Y-97332143D01*
X135356370Y-97262620D01*
X135390375Y-97223376D01*
X135390379Y-97223369D01*
X135450163Y-97092462D01*
X135450163Y-97092460D01*
X135450165Y-97092457D01*
X135470647Y-96950000D01*
X135450165Y-96807543D01*
X135450163Y-96807540D01*
X135450163Y-96807537D01*
X135390379Y-96676630D01*
X135390375Y-96676623D01*
X135296128Y-96567857D01*
X135296127Y-96567856D01*
X135210644Y-96512920D01*
X135175053Y-96490047D01*
X135175050Y-96490046D01*
X135175048Y-96490045D01*
X135036962Y-96449500D01*
X135036961Y-96449500D01*
X134893039Y-96449500D01*
X134893038Y-96449500D01*
X134754951Y-96490045D01*
X134754945Y-96490048D01*
X134633872Y-96567856D01*
X134633871Y-96567857D01*
X134539624Y-96676623D01*
X134539620Y-96676630D01*
X134479836Y-96807537D01*
X134479835Y-96807541D01*
X134459353Y-96950000D01*
X126824209Y-96950000D01*
X126805165Y-96817543D01*
X126805163Y-96817540D01*
X126805163Y-96817537D01*
X126745379Y-96686630D01*
X126745375Y-96686623D01*
X126651128Y-96577857D01*
X126651127Y-96577856D01*
X126557764Y-96517856D01*
X126530053Y-96500047D01*
X126530050Y-96500046D01*
X126530048Y-96500045D01*
X126391962Y-96459500D01*
X126391961Y-96459500D01*
X126248039Y-96459500D01*
X126248038Y-96459500D01*
X126109951Y-96500045D01*
X126109945Y-96500048D01*
X125988872Y-96577856D01*
X125988871Y-96577857D01*
X125894624Y-96686623D01*
X125894620Y-96686630D01*
X125834836Y-96817537D01*
X125834835Y-96817541D01*
X125814353Y-96960000D01*
X119733251Y-96960000D01*
X120005058Y-96883844D01*
X120207450Y-96795932D01*
X120268621Y-96769363D01*
X120268621Y-96769362D01*
X120268625Y-96769361D01*
X120514147Y-96620055D01*
X120737053Y-96438708D01*
X120933189Y-96228698D01*
X121098901Y-95993936D01*
X121231104Y-95738797D01*
X121327334Y-95468032D01*
X121385798Y-95186686D01*
X121398568Y-95000000D01*
X141994353Y-95000000D01*
X142014835Y-95142458D01*
X142014836Y-95142462D01*
X142074620Y-95273369D01*
X142074624Y-95273376D01*
X142168871Y-95382142D01*
X142168872Y-95382143D01*
X142289947Y-95459953D01*
X142317428Y-95468022D01*
X142428038Y-95500500D01*
X142428039Y-95500500D01*
X142571962Y-95500500D01*
X142625189Y-95484870D01*
X142710053Y-95459953D01*
X142831128Y-95382143D01*
X142895769Y-95307543D01*
X142925375Y-95273376D01*
X142925379Y-95273369D01*
X142985163Y-95142462D01*
X142985163Y-95142460D01*
X142985165Y-95142457D01*
X143005647Y-95000000D01*
X142985165Y-94857543D01*
X142985163Y-94857540D01*
X142985163Y-94857537D01*
X142925379Y-94726630D01*
X142925375Y-94726623D01*
X142831128Y-94617857D01*
X142831127Y-94617856D01*
X142770590Y-94578952D01*
X142710053Y-94540047D01*
X142710050Y-94540046D01*
X142710048Y-94540045D01*
X142571962Y-94499500D01*
X142571961Y-94499500D01*
X142428039Y-94499500D01*
X142428038Y-94499500D01*
X142289951Y-94540045D01*
X142289945Y-94540048D01*
X142168872Y-94617856D01*
X142168871Y-94617857D01*
X142074624Y-94726623D01*
X142074620Y-94726630D01*
X142014836Y-94857537D01*
X142014835Y-94857541D01*
X141994353Y-95000000D01*
X121398568Y-95000000D01*
X121405408Y-94900000D01*
X121385798Y-94613314D01*
X121327334Y-94331968D01*
X121231104Y-94061203D01*
X121229206Y-94057541D01*
X121146660Y-93898235D01*
X128601118Y-93898235D01*
X128621600Y-94040693D01*
X128621601Y-94040697D01*
X128681385Y-94171604D01*
X128681389Y-94171611D01*
X128769567Y-94273373D01*
X128775637Y-94280378D01*
X128896712Y-94358188D01*
X128948188Y-94373302D01*
X129034803Y-94398735D01*
X129034804Y-94398735D01*
X129178727Y-94398735D01*
X129235237Y-94382142D01*
X129316818Y-94358188D01*
X129437893Y-94280378D01*
X129493599Y-94216089D01*
X129507540Y-94200000D01*
X139494353Y-94200000D01*
X139514835Y-94342458D01*
X139514836Y-94342462D01*
X139574620Y-94473369D01*
X139574624Y-94473376D01*
X139668871Y-94582142D01*
X139668872Y-94582143D01*
X139789947Y-94659953D01*
X139841423Y-94675067D01*
X139928038Y-94700500D01*
X139928039Y-94700500D01*
X140071962Y-94700500D01*
X140125189Y-94684870D01*
X140210053Y-94659953D01*
X140331128Y-94582143D01*
X140402738Y-94499500D01*
X140425375Y-94473376D01*
X140425379Y-94473369D01*
X140485163Y-94342462D01*
X140485163Y-94342460D01*
X140485165Y-94342457D01*
X140505647Y-94200000D01*
X140485165Y-94057543D01*
X140485163Y-94057540D01*
X140485163Y-94057537D01*
X140425379Y-93926630D01*
X140425375Y-93926623D01*
X140331128Y-93817857D01*
X140331127Y-93817856D01*
X140234528Y-93755776D01*
X140210053Y-93740047D01*
X140210050Y-93740046D01*
X140210048Y-93740045D01*
X140071962Y-93699500D01*
X140071961Y-93699500D01*
X139928039Y-93699500D01*
X139928038Y-93699500D01*
X139789951Y-93740045D01*
X139789945Y-93740048D01*
X139668872Y-93817856D01*
X139668871Y-93817857D01*
X139574624Y-93926623D01*
X139574620Y-93926630D01*
X139514836Y-94057537D01*
X139514835Y-94057541D01*
X139494353Y-94200000D01*
X129507540Y-94200000D01*
X129532140Y-94171611D01*
X129532144Y-94171604D01*
X129591928Y-94040697D01*
X129591928Y-94040695D01*
X129591930Y-94040692D01*
X129612412Y-93898235D01*
X129591930Y-93755778D01*
X129591928Y-93755775D01*
X129591928Y-93755772D01*
X129532144Y-93624865D01*
X129532140Y-93624858D01*
X129437893Y-93516092D01*
X129437892Y-93516091D01*
X129377355Y-93477187D01*
X129316818Y-93438282D01*
X129316815Y-93438281D01*
X129316813Y-93438280D01*
X129178727Y-93397735D01*
X129178726Y-93397735D01*
X129034804Y-93397735D01*
X129034803Y-93397735D01*
X128896716Y-93438280D01*
X128896710Y-93438283D01*
X128775637Y-93516091D01*
X128775636Y-93516092D01*
X128681389Y-93624858D01*
X128681385Y-93624865D01*
X128621601Y-93755772D01*
X128621600Y-93755776D01*
X128601118Y-93898235D01*
X121146660Y-93898235D01*
X121098901Y-93806064D01*
X120933194Y-93571309D01*
X120933193Y-93571308D01*
X120933189Y-93571302D01*
X120737053Y-93361292D01*
X120737051Y-93361291D01*
X120737049Y-93361288D01*
X120514147Y-93179945D01*
X120514142Y-93179941D01*
X120268622Y-93030637D01*
X120268621Y-93030636D01*
X120005056Y-92916155D01*
X119728355Y-92838628D01*
X119728349Y-92838627D01*
X119443685Y-92799500D01*
X119443678Y-92799500D01*
X119156322Y-92799500D01*
X119156314Y-92799500D01*
X118871650Y-92838627D01*
X118871644Y-92838628D01*
X118594943Y-92916155D01*
X118331378Y-93030636D01*
X118331377Y-93030637D01*
X118085857Y-93179941D01*
X118085852Y-93179945D01*
X117862950Y-93361288D01*
X117666815Y-93571297D01*
X117666805Y-93571309D01*
X117501098Y-93806064D01*
X117368900Y-94061193D01*
X117368895Y-94061204D01*
X117329659Y-94171604D01*
X117291002Y-94280377D01*
X117272666Y-94331969D01*
X117272663Y-94331977D01*
X117214202Y-94613312D01*
X117194592Y-94899998D01*
X113405408Y-94899998D01*
X113385798Y-94613314D01*
X113327334Y-94331968D01*
X113231104Y-94061203D01*
X113229206Y-94057541D01*
X113199391Y-94000000D01*
X114194353Y-94000000D01*
X114214835Y-94142458D01*
X114214836Y-94142462D01*
X114274620Y-94273369D01*
X114274624Y-94273376D01*
X114368871Y-94382142D01*
X114368872Y-94382143D01*
X114489947Y-94459953D01*
X114535638Y-94473369D01*
X114628038Y-94500500D01*
X114628039Y-94500500D01*
X114771962Y-94500500D01*
X114825189Y-94484870D01*
X114910053Y-94459953D01*
X115031128Y-94382143D01*
X115086834Y-94317854D01*
X115125375Y-94273376D01*
X115125379Y-94273369D01*
X115185163Y-94142462D01*
X115185163Y-94142460D01*
X115185165Y-94142457D01*
X115205647Y-94000000D01*
X115185165Y-93857543D01*
X115185163Y-93857540D01*
X115185163Y-93857537D01*
X115125379Y-93726630D01*
X115125375Y-93726623D01*
X115031128Y-93617857D01*
X115031127Y-93617856D01*
X114958679Y-93571297D01*
X114910053Y-93540047D01*
X114910050Y-93540046D01*
X114910048Y-93540045D01*
X114771962Y-93499500D01*
X114771961Y-93499500D01*
X114628039Y-93499500D01*
X114628038Y-93499500D01*
X114489951Y-93540045D01*
X114489945Y-93540048D01*
X114368872Y-93617856D01*
X114368871Y-93617857D01*
X114274624Y-93726623D01*
X114274620Y-93726630D01*
X114214836Y-93857537D01*
X114214835Y-93857541D01*
X114194353Y-94000000D01*
X113199391Y-94000000D01*
X113098901Y-93806064D01*
X112933194Y-93571309D01*
X112933193Y-93571308D01*
X112933189Y-93571302D01*
X112737053Y-93361292D01*
X112737051Y-93361291D01*
X112737049Y-93361288D01*
X112514147Y-93179945D01*
X112514142Y-93179941D01*
X112268622Y-93030637D01*
X112268621Y-93030636D01*
X112005056Y-92916155D01*
X111728355Y-92838628D01*
X111728349Y-92838627D01*
X111443685Y-92799500D01*
X111443678Y-92799500D01*
X111156322Y-92799500D01*
X111156314Y-92799500D01*
X110871650Y-92838627D01*
X110871644Y-92838628D01*
X110594943Y-92916155D01*
X110331378Y-93030636D01*
X110331377Y-93030637D01*
X110085857Y-93179941D01*
X110085852Y-93179945D01*
X109862950Y-93361288D01*
X109666815Y-93571297D01*
X109666805Y-93571309D01*
X109501098Y-93806064D01*
X109368900Y-94061193D01*
X109368895Y-94061204D01*
X109329659Y-94171604D01*
X109291002Y-94280377D01*
X109272666Y-94331969D01*
X109272663Y-94331977D01*
X109214202Y-94613312D01*
X109194592Y-94899998D01*
X99131917Y-94899998D01*
X99128711Y-94898670D01*
X99128709Y-94898669D01*
X98985003Y-94879750D01*
X98984997Y-94879750D01*
X98841290Y-94898669D01*
X98841288Y-94898670D01*
X98707377Y-94954137D01*
X98707373Y-94954139D01*
X98592379Y-95042377D01*
X98592377Y-95042379D01*
X98504139Y-95157373D01*
X98504137Y-95157377D01*
X98448670Y-95291288D01*
X98448669Y-95291290D01*
X98429750Y-95434996D01*
X95100000Y-95434996D01*
X95100000Y-92760000D01*
X100454353Y-92760000D01*
X100474835Y-92902458D01*
X100474836Y-92902462D01*
X100534620Y-93033369D01*
X100534624Y-93033376D01*
X100628871Y-93142142D01*
X100628872Y-93142143D01*
X100749947Y-93219953D01*
X100801423Y-93235067D01*
X100888038Y-93260500D01*
X100888039Y-93260500D01*
X101031962Y-93260500D01*
X101085189Y-93244870D01*
X101170053Y-93219953D01*
X101291128Y-93142143D01*
X101346834Y-93077854D01*
X101385375Y-93033376D01*
X101385379Y-93033369D01*
X101445163Y-92902462D01*
X101445163Y-92902460D01*
X101445165Y-92902457D01*
X101465647Y-92760000D01*
X101445165Y-92617543D01*
X101445163Y-92617540D01*
X101445163Y-92617537D01*
X101391485Y-92500000D01*
X133094353Y-92500000D01*
X133114835Y-92642458D01*
X133114836Y-92642462D01*
X133174620Y-92773369D01*
X133174624Y-92773376D01*
X133268871Y-92882142D01*
X133268872Y-92882143D01*
X133389947Y-92959953D01*
X133441423Y-92975067D01*
X133528038Y-93000500D01*
X133528039Y-93000500D01*
X133671962Y-93000500D01*
X133725189Y-92984870D01*
X133810053Y-92959953D01*
X133931128Y-92882143D01*
X134002738Y-92799500D01*
X134025375Y-92773376D01*
X134025379Y-92773369D01*
X134085163Y-92642462D01*
X134085163Y-92642460D01*
X134085165Y-92642457D01*
X134105647Y-92500000D01*
X144494353Y-92500000D01*
X144514835Y-92642458D01*
X144514836Y-92642462D01*
X144574620Y-92773369D01*
X144574624Y-92773376D01*
X144668871Y-92882142D01*
X144668872Y-92882143D01*
X144789947Y-92959953D01*
X144841423Y-92975067D01*
X144928038Y-93000500D01*
X144928039Y-93000500D01*
X145071962Y-93000500D01*
X145125189Y-92984870D01*
X145210053Y-92959953D01*
X145331128Y-92882143D01*
X145402738Y-92799500D01*
X145425375Y-92773376D01*
X145425379Y-92773369D01*
X145485163Y-92642462D01*
X145485163Y-92642460D01*
X145485165Y-92642457D01*
X145505647Y-92500000D01*
X145485165Y-92357543D01*
X145485163Y-92357540D01*
X145485163Y-92357537D01*
X145425379Y-92226630D01*
X145425375Y-92226623D01*
X145331128Y-92117857D01*
X145331127Y-92117856D01*
X145270590Y-92078952D01*
X145210053Y-92040047D01*
X145210050Y-92040046D01*
X145210048Y-92040045D01*
X145071962Y-91999500D01*
X145071961Y-91999500D01*
X144928039Y-91999500D01*
X144928038Y-91999500D01*
X144789951Y-92040045D01*
X144789945Y-92040048D01*
X144668872Y-92117856D01*
X144668871Y-92117857D01*
X144574624Y-92226623D01*
X144574620Y-92226630D01*
X144514836Y-92357537D01*
X144514835Y-92357541D01*
X144494353Y-92500000D01*
X134105647Y-92500000D01*
X134085165Y-92357543D01*
X134085163Y-92357540D01*
X134085163Y-92357537D01*
X134025379Y-92226630D01*
X134025375Y-92226623D01*
X133931128Y-92117857D01*
X133931127Y-92117856D01*
X133870590Y-92078952D01*
X133810053Y-92040047D01*
X133810050Y-92040046D01*
X133810048Y-92040045D01*
X133671962Y-91999500D01*
X133671961Y-91999500D01*
X133528039Y-91999500D01*
X133528038Y-91999500D01*
X133389951Y-92040045D01*
X133389945Y-92040048D01*
X133268872Y-92117856D01*
X133268871Y-92117857D01*
X133174624Y-92226623D01*
X133174620Y-92226630D01*
X133114836Y-92357537D01*
X133114835Y-92357541D01*
X133094353Y-92500000D01*
X101391485Y-92500000D01*
X101385379Y-92486630D01*
X101385375Y-92486623D01*
X101291128Y-92377857D01*
X101291127Y-92377856D01*
X101200417Y-92319561D01*
X101170053Y-92300047D01*
X101170050Y-92300046D01*
X101170048Y-92300045D01*
X101031962Y-92259500D01*
X101031961Y-92259500D01*
X100888039Y-92259500D01*
X100888038Y-92259500D01*
X100749951Y-92300045D01*
X100749945Y-92300048D01*
X100628872Y-92377856D01*
X100628871Y-92377857D01*
X100534624Y-92486623D01*
X100534620Y-92486630D01*
X100474836Y-92617537D01*
X100474835Y-92617541D01*
X100454353Y-92760000D01*
X95100000Y-92760000D01*
X95100000Y-92024996D01*
X98744750Y-92024996D01*
X98744750Y-92025003D01*
X98763669Y-92168709D01*
X98763670Y-92168711D01*
X98819137Y-92302622D01*
X98819139Y-92302626D01*
X98907377Y-92417620D01*
X98907379Y-92417622D01*
X99022373Y-92505860D01*
X99022377Y-92505862D01*
X99156288Y-92561329D01*
X99156290Y-92561330D01*
X99299997Y-92580250D01*
X99300000Y-92580250D01*
X99300003Y-92580250D01*
X99443709Y-92561330D01*
X99443711Y-92561329D01*
X99577625Y-92505861D01*
X99692621Y-92417621D01*
X99780861Y-92302625D01*
X99836330Y-92168709D01*
X99843025Y-92117856D01*
X99855250Y-92025003D01*
X99855250Y-92024996D01*
X99836330Y-91881290D01*
X99836329Y-91881288D01*
X99780862Y-91747377D01*
X99780860Y-91747373D01*
X99692622Y-91632379D01*
X99692620Y-91632377D01*
X99577626Y-91544139D01*
X99577622Y-91544137D01*
X99443711Y-91488670D01*
X99443709Y-91488669D01*
X99300003Y-91469750D01*
X99299997Y-91469750D01*
X99156290Y-91488669D01*
X99156288Y-91488670D01*
X99022377Y-91544137D01*
X99022373Y-91544139D01*
X98907379Y-91632377D01*
X98907377Y-91632379D01*
X98819139Y-91747373D01*
X98819137Y-91747377D01*
X98763670Y-91881288D01*
X98763669Y-91881290D01*
X98744750Y-92024996D01*
X95100000Y-92024996D01*
X95100000Y-91379996D01*
X96654750Y-91379996D01*
X96654750Y-91380003D01*
X96673669Y-91523709D01*
X96673670Y-91523711D01*
X96729137Y-91657622D01*
X96729139Y-91657626D01*
X96817377Y-91772620D01*
X96817379Y-91772622D01*
X96932373Y-91860860D01*
X96932377Y-91860862D01*
X97066288Y-91916329D01*
X97066290Y-91916330D01*
X97209997Y-91935250D01*
X97210000Y-91935250D01*
X97210003Y-91935250D01*
X97353709Y-91916330D01*
X97353711Y-91916329D01*
X97487625Y-91860861D01*
X97602621Y-91772621D01*
X97690861Y-91657625D01*
X97746330Y-91523709D01*
X97758015Y-91434953D01*
X97765250Y-91380003D01*
X97765250Y-91379996D01*
X97746330Y-91236290D01*
X97746329Y-91236288D01*
X97690862Y-91102377D01*
X97690860Y-91102373D01*
X97602622Y-90987379D01*
X97602620Y-90987377D01*
X97487626Y-90899139D01*
X97487622Y-90899137D01*
X97353711Y-90843670D01*
X97353709Y-90843669D01*
X97210003Y-90824750D01*
X97209997Y-90824750D01*
X97066290Y-90843669D01*
X97066288Y-90843670D01*
X96932377Y-90899137D01*
X96932373Y-90899139D01*
X96817379Y-90987377D01*
X96817377Y-90987379D01*
X96729139Y-91102373D01*
X96729137Y-91102377D01*
X96673670Y-91236288D01*
X96673669Y-91236290D01*
X96654750Y-91379996D01*
X95100000Y-91379996D01*
X95100000Y-90700000D01*
X115994353Y-90700000D01*
X116014835Y-90842458D01*
X116014836Y-90842462D01*
X116074620Y-90973369D01*
X116074624Y-90973376D01*
X116152864Y-91063669D01*
X116168872Y-91082143D01*
X116289947Y-91159953D01*
X116341423Y-91175067D01*
X116428038Y-91200500D01*
X116428039Y-91200500D01*
X116571962Y-91200500D01*
X116625189Y-91184870D01*
X116710053Y-91159953D01*
X116831128Y-91082143D01*
X116913243Y-90987377D01*
X116923968Y-90975000D01*
X128869353Y-90975000D01*
X128889835Y-91117458D01*
X128889836Y-91117462D01*
X128949620Y-91248369D01*
X128949624Y-91248376D01*
X129013747Y-91322377D01*
X129043872Y-91357143D01*
X129164947Y-91434953D01*
X129216423Y-91450067D01*
X129303038Y-91475500D01*
X129303039Y-91475500D01*
X129446962Y-91475500D01*
X129500189Y-91459870D01*
X129585053Y-91434953D01*
X129706128Y-91357143D01*
X129778718Y-91273369D01*
X129800375Y-91248376D01*
X129800379Y-91248369D01*
X129860163Y-91117462D01*
X129860163Y-91117460D01*
X129860165Y-91117457D01*
X129877053Y-91000000D01*
X133094353Y-91000000D01*
X133114835Y-91142458D01*
X133114836Y-91142462D01*
X133174620Y-91273369D01*
X133174624Y-91273376D01*
X133267015Y-91380000D01*
X133268872Y-91382143D01*
X133389947Y-91459953D01*
X133423313Y-91469750D01*
X133528038Y-91500500D01*
X133528039Y-91500500D01*
X133671962Y-91500500D01*
X133757104Y-91475500D01*
X133810053Y-91459953D01*
X133931128Y-91382143D01*
X133986834Y-91317854D01*
X134025375Y-91273376D01*
X134025379Y-91273369D01*
X134085163Y-91142462D01*
X134085163Y-91142460D01*
X134085165Y-91142457D01*
X134105647Y-91000000D01*
X134085165Y-90857543D01*
X134085163Y-90857540D01*
X134085163Y-90857537D01*
X134025379Y-90726630D01*
X134025375Y-90726623D01*
X133931128Y-90617857D01*
X133931127Y-90617856D01*
X133837268Y-90557537D01*
X133810053Y-90540047D01*
X133810050Y-90540046D01*
X133810048Y-90540045D01*
X133671962Y-90499500D01*
X133671961Y-90499500D01*
X133528039Y-90499500D01*
X133528038Y-90499500D01*
X133389951Y-90540045D01*
X133389945Y-90540048D01*
X133268872Y-90617856D01*
X133268871Y-90617857D01*
X133174624Y-90726623D01*
X133174620Y-90726630D01*
X133114836Y-90857537D01*
X133114835Y-90857541D01*
X133094353Y-91000000D01*
X129877053Y-91000000D01*
X129880647Y-90975000D01*
X129860165Y-90832543D01*
X129860163Y-90832540D01*
X129860163Y-90832537D01*
X129800379Y-90701630D01*
X129800375Y-90701623D01*
X129706128Y-90592857D01*
X129706127Y-90592856D01*
X129623951Y-90540045D01*
X129585053Y-90515047D01*
X129585050Y-90515046D01*
X129585048Y-90515045D01*
X129446962Y-90474500D01*
X129446961Y-90474500D01*
X129303039Y-90474500D01*
X129303038Y-90474500D01*
X129164951Y-90515045D01*
X129164945Y-90515048D01*
X129043872Y-90592856D01*
X129043871Y-90592857D01*
X128949624Y-90701623D01*
X128949620Y-90701630D01*
X128889836Y-90832537D01*
X128889835Y-90832541D01*
X128869353Y-90975000D01*
X116923968Y-90975000D01*
X116925375Y-90973376D01*
X116925379Y-90973369D01*
X116985163Y-90842462D01*
X116985163Y-90842460D01*
X116985165Y-90842457D01*
X117005647Y-90700000D01*
X116985165Y-90557543D01*
X116985163Y-90557540D01*
X116985163Y-90557537D01*
X116925379Y-90426630D01*
X116925375Y-90426623D01*
X116831128Y-90317857D01*
X116831127Y-90317856D01*
X116726318Y-90250500D01*
X116710053Y-90240047D01*
X116710050Y-90240046D01*
X116710048Y-90240045D01*
X116571962Y-90199500D01*
X116571961Y-90199500D01*
X116428039Y-90199500D01*
X116428038Y-90199500D01*
X116289951Y-90240045D01*
X116289945Y-90240048D01*
X116168872Y-90317856D01*
X116168871Y-90317857D01*
X116074624Y-90426623D01*
X116074620Y-90426630D01*
X116014836Y-90557537D01*
X116014835Y-90557541D01*
X115994353Y-90700000D01*
X95100000Y-90700000D01*
X95100000Y-90250750D01*
X95119707Y-90164407D01*
X95174926Y-90095166D01*
X95218171Y-90071971D01*
X95217457Y-90070565D01*
X95231547Y-90063407D01*
X95231550Y-90063407D01*
X95319083Y-89999782D01*
X95378681Y-89909459D01*
X95402745Y-89803955D01*
X95388206Y-89696722D01*
X95336919Y-89601434D01*
X95302609Y-89571462D01*
X95250550Y-89499817D01*
X95234731Y-89412678D01*
X95258287Y-89327305D01*
X95316552Y-89260607D01*
X95394704Y-89226419D01*
X95468913Y-89211658D01*
X95605495Y-89155084D01*
X95728416Y-89072951D01*
X95832951Y-88968416D01*
X95915084Y-88845495D01*
X95971658Y-88708913D01*
X96000500Y-88563918D01*
X96000500Y-88416082D01*
X95971658Y-88271087D01*
X95921501Y-88149998D01*
X102444592Y-88149998D01*
X102444592Y-88150001D01*
X102464202Y-88436687D01*
X102522663Y-88718022D01*
X102522665Y-88718027D01*
X102522666Y-88718032D01*
X102567967Y-88845497D01*
X102618895Y-88988795D01*
X102618900Y-88988806D01*
X102751098Y-89243935D01*
X102881377Y-89428500D01*
X102916811Y-89478698D01*
X103005234Y-89573376D01*
X103112950Y-89688711D01*
X103335852Y-89870054D01*
X103335857Y-89870058D01*
X103513640Y-89978170D01*
X103549537Y-90000000D01*
X103581377Y-90019362D01*
X103581378Y-90019363D01*
X103743745Y-90089888D01*
X103844942Y-90133844D01*
X104121642Y-90211371D01*
X104263982Y-90230935D01*
X104406314Y-90250499D01*
X104406316Y-90250499D01*
X104406322Y-90250500D01*
X104406324Y-90250500D01*
X104693676Y-90250500D01*
X104693678Y-90250500D01*
X104978358Y-90211371D01*
X105255058Y-90133844D01*
X105457450Y-90045932D01*
X105518621Y-90019363D01*
X105518621Y-90019362D01*
X105518625Y-90019361D01*
X105764147Y-89870055D01*
X105987053Y-89688708D01*
X106183189Y-89478698D01*
X106309327Y-89300000D01*
X118794353Y-89300000D01*
X118814835Y-89442458D01*
X118814836Y-89442462D01*
X118874620Y-89573369D01*
X118874624Y-89573376D01*
X118968871Y-89682142D01*
X118968872Y-89682143D01*
X119089947Y-89759953D01*
X119141423Y-89775067D01*
X119228038Y-89800500D01*
X119228039Y-89800500D01*
X119371962Y-89800500D01*
X119425189Y-89784870D01*
X119510053Y-89759953D01*
X119631128Y-89682143D01*
X119716096Y-89584084D01*
X119725375Y-89573376D01*
X119725379Y-89573369D01*
X119785163Y-89442462D01*
X119785163Y-89442460D01*
X119785165Y-89442457D01*
X119805647Y-89300000D01*
X119785165Y-89157543D01*
X119785163Y-89157540D01*
X119785163Y-89157537D01*
X119725379Y-89026630D01*
X119725375Y-89026623D01*
X119631128Y-88917857D01*
X119631127Y-88917856D01*
X119518530Y-88845495D01*
X119510053Y-88840047D01*
X119510050Y-88840046D01*
X119510048Y-88840045D01*
X119371962Y-88799500D01*
X119371961Y-88799500D01*
X119228039Y-88799500D01*
X119228038Y-88799500D01*
X119089951Y-88840045D01*
X119089945Y-88840048D01*
X118968872Y-88917856D01*
X118968871Y-88917857D01*
X118874624Y-89026623D01*
X118874620Y-89026630D01*
X118814836Y-89157537D01*
X118814835Y-89157541D01*
X118794353Y-89300000D01*
X106309327Y-89300000D01*
X106348901Y-89243936D01*
X106481104Y-88988797D01*
X106577334Y-88718032D01*
X106635798Y-88436686D01*
X106655408Y-88150000D01*
X106655408Y-88149998D01*
X123944592Y-88149998D01*
X123944592Y-88150001D01*
X123964202Y-88436687D01*
X124022663Y-88718022D01*
X124022665Y-88718027D01*
X124022666Y-88718032D01*
X124067967Y-88845497D01*
X124118895Y-88988795D01*
X124118900Y-88988806D01*
X124251098Y-89243935D01*
X124381377Y-89428500D01*
X124416811Y-89478698D01*
X124505234Y-89573376D01*
X124612950Y-89688711D01*
X124835852Y-89870054D01*
X124835857Y-89870058D01*
X125013640Y-89978170D01*
X125049537Y-90000000D01*
X125081377Y-90019362D01*
X125081378Y-90019363D01*
X125243745Y-90089888D01*
X125344942Y-90133844D01*
X125621642Y-90211371D01*
X125763982Y-90230935D01*
X125906314Y-90250499D01*
X125906316Y-90250499D01*
X125906322Y-90250500D01*
X125906324Y-90250500D01*
X126193676Y-90250500D01*
X126193678Y-90250500D01*
X126478358Y-90211371D01*
X126755058Y-90133844D01*
X126957450Y-90045932D01*
X127018621Y-90019363D01*
X127018621Y-90019362D01*
X127018625Y-90019361D01*
X127050463Y-90000000D01*
X137194353Y-90000000D01*
X137214835Y-90142458D01*
X137214836Y-90142462D01*
X137274620Y-90273369D01*
X137274624Y-90273376D01*
X137368871Y-90382142D01*
X137368872Y-90382143D01*
X137489947Y-90459953D01*
X137539490Y-90474500D01*
X137628038Y-90500500D01*
X137628039Y-90500500D01*
X137771962Y-90500500D01*
X137825189Y-90484870D01*
X137910053Y-90459953D01*
X138031128Y-90382143D01*
X138086834Y-90317854D01*
X138125375Y-90273376D01*
X138125379Y-90273369D01*
X138185163Y-90142462D01*
X138185163Y-90142460D01*
X138185165Y-90142457D01*
X138205647Y-90000000D01*
X138185165Y-89857543D01*
X138185163Y-89857540D01*
X138185163Y-89857537D01*
X138125379Y-89726630D01*
X138125375Y-89726623D01*
X138031128Y-89617857D01*
X138031127Y-89617856D01*
X137958936Y-89571462D01*
X137910053Y-89540047D01*
X137910050Y-89540046D01*
X137910048Y-89540045D01*
X137771962Y-89499500D01*
X137771961Y-89499500D01*
X137628039Y-89499500D01*
X137628038Y-89499500D01*
X137489951Y-89540045D01*
X137489945Y-89540048D01*
X137368872Y-89617856D01*
X137368871Y-89617857D01*
X137274624Y-89726623D01*
X137274620Y-89726630D01*
X137214836Y-89857537D01*
X137214835Y-89857541D01*
X137194353Y-90000000D01*
X127050463Y-90000000D01*
X127264147Y-89870055D01*
X127487053Y-89688708D01*
X127683189Y-89478698D01*
X127848901Y-89243936D01*
X127981104Y-88988797D01*
X128077334Y-88718032D01*
X128135798Y-88436686D01*
X128155408Y-88150000D01*
X128146845Y-88024813D01*
X142020407Y-88024813D01*
X142040889Y-88167271D01*
X142040890Y-88167275D01*
X142100674Y-88298182D01*
X142100678Y-88298189D01*
X142194925Y-88406955D01*
X142194926Y-88406956D01*
X142316001Y-88484766D01*
X142367477Y-88499880D01*
X142454092Y-88525313D01*
X142454093Y-88525313D01*
X142598016Y-88525313D01*
X142651243Y-88509683D01*
X142736107Y-88484766D01*
X142857182Y-88406956D01*
X142912888Y-88342667D01*
X142951429Y-88298189D01*
X142951433Y-88298182D01*
X143011217Y-88167275D01*
X143011217Y-88167273D01*
X143011219Y-88167270D01*
X143031674Y-88025000D01*
X144244353Y-88025000D01*
X144264835Y-88167458D01*
X144264836Y-88167462D01*
X144324620Y-88298369D01*
X144324624Y-88298376D01*
X144418709Y-88406955D01*
X144418872Y-88407143D01*
X144539947Y-88484953D01*
X144591423Y-88500067D01*
X144678038Y-88525500D01*
X144678039Y-88525500D01*
X144821962Y-88525500D01*
X144875189Y-88509870D01*
X144960053Y-88484953D01*
X145081128Y-88407143D01*
X145136834Y-88342854D01*
X145175375Y-88298376D01*
X145175379Y-88298369D01*
X145235163Y-88167462D01*
X145235163Y-88167460D01*
X145235165Y-88167457D01*
X145255647Y-88025000D01*
X145235165Y-87882543D01*
X145235163Y-87882540D01*
X145235163Y-87882537D01*
X145175379Y-87751630D01*
X145175375Y-87751623D01*
X145081128Y-87642857D01*
X145081127Y-87642856D01*
X145020590Y-87603952D01*
X144960053Y-87565047D01*
X144960050Y-87565046D01*
X144960048Y-87565045D01*
X144821962Y-87524500D01*
X144821961Y-87524500D01*
X144678039Y-87524500D01*
X144678038Y-87524500D01*
X144539951Y-87565045D01*
X144539945Y-87565048D01*
X144418872Y-87642856D01*
X144418871Y-87642857D01*
X144324624Y-87751623D01*
X144324620Y-87751630D01*
X144264836Y-87882537D01*
X144264835Y-87882541D01*
X144244353Y-88025000D01*
X143031674Y-88025000D01*
X143031701Y-88024813D01*
X143011219Y-87882356D01*
X143011217Y-87882353D01*
X143011217Y-87882350D01*
X142951433Y-87751443D01*
X142951429Y-87751436D01*
X142857182Y-87642670D01*
X142857181Y-87642669D01*
X142796644Y-87603765D01*
X142736107Y-87564860D01*
X142736104Y-87564859D01*
X142736102Y-87564858D01*
X142598016Y-87524313D01*
X142598015Y-87524313D01*
X142454093Y-87524313D01*
X142454092Y-87524313D01*
X142316005Y-87564858D01*
X142315999Y-87564861D01*
X142194926Y-87642669D01*
X142194925Y-87642670D01*
X142100678Y-87751436D01*
X142100674Y-87751443D01*
X142040890Y-87882350D01*
X142040889Y-87882354D01*
X142020407Y-88024813D01*
X128146845Y-88024813D01*
X128135798Y-87863314D01*
X128077334Y-87581968D01*
X127981104Y-87311203D01*
X127848901Y-87056064D01*
X127790529Y-86973369D01*
X127683194Y-86821309D01*
X127683193Y-86821308D01*
X127683189Y-86821302D01*
X127487053Y-86611292D01*
X127487051Y-86611291D01*
X127487049Y-86611288D01*
X127473174Y-86600000D01*
X138494353Y-86600000D01*
X138514835Y-86742458D01*
X138514836Y-86742462D01*
X138574620Y-86873369D01*
X138574624Y-86873376D01*
X138634488Y-86942462D01*
X138668872Y-86982143D01*
X138789947Y-87059953D01*
X138835638Y-87073369D01*
X138928038Y-87100500D01*
X138928039Y-87100500D01*
X139071962Y-87100500D01*
X139141778Y-87080000D01*
X139210053Y-87059953D01*
X139331128Y-86982143D01*
X139424777Y-86874066D01*
X139425375Y-86873376D01*
X139425379Y-86873369D01*
X139485163Y-86742462D01*
X139485163Y-86742460D01*
X139485165Y-86742457D01*
X139491269Y-86700000D01*
X145294353Y-86700000D01*
X145314835Y-86842458D01*
X145314836Y-86842462D01*
X145374620Y-86973369D01*
X145374624Y-86973376D01*
X145449644Y-87059953D01*
X145468872Y-87082143D01*
X145589947Y-87159953D01*
X145641423Y-87175067D01*
X145728038Y-87200500D01*
X145728039Y-87200500D01*
X145871962Y-87200500D01*
X145934483Y-87182142D01*
X146010053Y-87159953D01*
X146131128Y-87082143D01*
X146132985Y-87080000D01*
X147444417Y-87080000D01*
X147464699Y-87285933D01*
X147524768Y-87483955D01*
X147622313Y-87666448D01*
X147622315Y-87666450D01*
X147753590Y-87826410D01*
X147851853Y-87907052D01*
X147913551Y-87957686D01*
X148039486Y-88025000D01*
X148096046Y-88055232D01*
X148294066Y-88115300D01*
X148500000Y-88135583D01*
X148705934Y-88115300D01*
X148903954Y-88055232D01*
X149086450Y-87957685D01*
X149246410Y-87826410D01*
X149377685Y-87666450D01*
X149475232Y-87483954D01*
X149535300Y-87285934D01*
X149555583Y-87080000D01*
X149535300Y-86874066D01*
X149475232Y-86676046D01*
X149421489Y-86575500D01*
X149377686Y-86493551D01*
X149325486Y-86429945D01*
X149246410Y-86333590D01*
X149086450Y-86202315D01*
X149086451Y-86202315D01*
X149086448Y-86202313D01*
X148903955Y-86104768D01*
X148705933Y-86044699D01*
X148500000Y-86024417D01*
X148294066Y-86044699D01*
X148096044Y-86104768D01*
X147913551Y-86202313D01*
X147753590Y-86333590D01*
X147622313Y-86493551D01*
X147524768Y-86676044D01*
X147464699Y-86874066D01*
X147444417Y-87080000D01*
X146132985Y-87080000D01*
X146217779Y-86982142D01*
X146225375Y-86973376D01*
X146225379Y-86973369D01*
X146285163Y-86842462D01*
X146285163Y-86842460D01*
X146285165Y-86842457D01*
X146305647Y-86700000D01*
X146285165Y-86557543D01*
X146285163Y-86557540D01*
X146285163Y-86557537D01*
X146225379Y-86426630D01*
X146225375Y-86426623D01*
X146131128Y-86317857D01*
X146131127Y-86317856D01*
X146070590Y-86278952D01*
X146010053Y-86240047D01*
X146010050Y-86240046D01*
X146010048Y-86240045D01*
X145871962Y-86199500D01*
X145871961Y-86199500D01*
X145728039Y-86199500D01*
X145728038Y-86199500D01*
X145589951Y-86240045D01*
X145589945Y-86240048D01*
X145468872Y-86317856D01*
X145468871Y-86317857D01*
X145374624Y-86426623D01*
X145374620Y-86426630D01*
X145314836Y-86557537D01*
X145314835Y-86557541D01*
X145294353Y-86700000D01*
X139491269Y-86700000D01*
X139505647Y-86600000D01*
X139485165Y-86457543D01*
X139485163Y-86457540D01*
X139485163Y-86457537D01*
X139425379Y-86326630D01*
X139425375Y-86326623D01*
X139331128Y-86217857D01*
X139331127Y-86217856D01*
X139250678Y-86166155D01*
X139210053Y-86140047D01*
X139210050Y-86140046D01*
X139210048Y-86140045D01*
X139071962Y-86099500D01*
X139071961Y-86099500D01*
X138928039Y-86099500D01*
X138928038Y-86099500D01*
X138789951Y-86140045D01*
X138789945Y-86140048D01*
X138668872Y-86217856D01*
X138668871Y-86217857D01*
X138574624Y-86326623D01*
X138574620Y-86326630D01*
X138514836Y-86457537D01*
X138514835Y-86457541D01*
X138494353Y-86600000D01*
X127473174Y-86600000D01*
X127264147Y-86429945D01*
X127264142Y-86429941D01*
X127018622Y-86280637D01*
X127018621Y-86280636D01*
X126755056Y-86166155D01*
X126478355Y-86088628D01*
X126478349Y-86088627D01*
X126379207Y-86075000D01*
X143319353Y-86075000D01*
X143339835Y-86217458D01*
X143339836Y-86217462D01*
X143399620Y-86348369D01*
X143399624Y-86348376D01*
X143493871Y-86457142D01*
X143493872Y-86457143D01*
X143614947Y-86534953D01*
X143666423Y-86550067D01*
X143753038Y-86575500D01*
X143753039Y-86575500D01*
X143896962Y-86575500D01*
X143950189Y-86559870D01*
X144035053Y-86534953D01*
X144156128Y-86457143D01*
X144211834Y-86392854D01*
X144250375Y-86348376D01*
X144250379Y-86348369D01*
X144310163Y-86217462D01*
X144310163Y-86217460D01*
X144310165Y-86217457D01*
X144330647Y-86075000D01*
X144310165Y-85932543D01*
X144310163Y-85932540D01*
X144310163Y-85932537D01*
X144250379Y-85801630D01*
X144250375Y-85801623D01*
X144156128Y-85692857D01*
X144156127Y-85692856D01*
X144095590Y-85653952D01*
X144035053Y-85615047D01*
X144035050Y-85615046D01*
X144035048Y-85615045D01*
X143896962Y-85574500D01*
X143896961Y-85574500D01*
X143753039Y-85574500D01*
X143753038Y-85574500D01*
X143614951Y-85615045D01*
X143614945Y-85615048D01*
X143493872Y-85692856D01*
X143493871Y-85692857D01*
X143399624Y-85801623D01*
X143399620Y-85801630D01*
X143339836Y-85932537D01*
X143339835Y-85932541D01*
X143319353Y-86075000D01*
X126379207Y-86075000D01*
X126193685Y-86049500D01*
X126193678Y-86049500D01*
X125906322Y-86049500D01*
X125906314Y-86049500D01*
X125621650Y-86088627D01*
X125621644Y-86088628D01*
X125344943Y-86166155D01*
X125081378Y-86280636D01*
X125081377Y-86280637D01*
X124835857Y-86429941D01*
X124835852Y-86429945D01*
X124612950Y-86611288D01*
X124416815Y-86821297D01*
X124416805Y-86821309D01*
X124251098Y-87056064D01*
X124118900Y-87311193D01*
X124118895Y-87311204D01*
X124057500Y-87483954D01*
X124028680Y-87565048D01*
X124022666Y-87581969D01*
X124022663Y-87581977D01*
X123964202Y-87863312D01*
X123944592Y-88149998D01*
X106655408Y-88149998D01*
X106635798Y-87863314D01*
X106577334Y-87581968D01*
X106481104Y-87311203D01*
X106348901Y-87056064D01*
X106290529Y-86973369D01*
X106183194Y-86821309D01*
X106183193Y-86821308D01*
X106183189Y-86821302D01*
X106163294Y-86800000D01*
X119794353Y-86800000D01*
X119814835Y-86942458D01*
X119814836Y-86942462D01*
X119874620Y-87073369D01*
X119874624Y-87073376D01*
X119949644Y-87159953D01*
X119968872Y-87182143D01*
X120089947Y-87259953D01*
X120141423Y-87275067D01*
X120228038Y-87300500D01*
X120228039Y-87300500D01*
X120371962Y-87300500D01*
X120425189Y-87284870D01*
X120510053Y-87259953D01*
X120631128Y-87182143D01*
X120719635Y-87080000D01*
X120725375Y-87073376D01*
X120725379Y-87073369D01*
X120785163Y-86942462D01*
X120785163Y-86942460D01*
X120785165Y-86942457D01*
X120805647Y-86800000D01*
X120785165Y-86657543D01*
X120785163Y-86657540D01*
X120785163Y-86657537D01*
X120725379Y-86526630D01*
X120725375Y-86526623D01*
X120631128Y-86417857D01*
X120631127Y-86417856D01*
X120523013Y-86348376D01*
X120510053Y-86340047D01*
X120510050Y-86340046D01*
X120510048Y-86340045D01*
X120371962Y-86299500D01*
X120371961Y-86299500D01*
X120228039Y-86299500D01*
X120228038Y-86299500D01*
X120089951Y-86340045D01*
X120089945Y-86340048D01*
X119968872Y-86417856D01*
X119968871Y-86417857D01*
X119874624Y-86526623D01*
X119874620Y-86526630D01*
X119814836Y-86657537D01*
X119814835Y-86657541D01*
X119794353Y-86800000D01*
X106163294Y-86800000D01*
X105987053Y-86611292D01*
X105987051Y-86611291D01*
X105987049Y-86611288D01*
X105764147Y-86429945D01*
X105764142Y-86429941D01*
X105518622Y-86280637D01*
X105518621Y-86280636D01*
X105255056Y-86166155D01*
X104978355Y-86088628D01*
X104978349Y-86088627D01*
X104693685Y-86049500D01*
X104693678Y-86049500D01*
X104406322Y-86049500D01*
X104406314Y-86049500D01*
X104121650Y-86088627D01*
X104121644Y-86088628D01*
X103844943Y-86166155D01*
X103581378Y-86280636D01*
X103581377Y-86280637D01*
X103335857Y-86429941D01*
X103335852Y-86429945D01*
X103112950Y-86611288D01*
X102916815Y-86821297D01*
X102916805Y-86821309D01*
X102751098Y-87056064D01*
X102618900Y-87311193D01*
X102618895Y-87311204D01*
X102557500Y-87483954D01*
X102528680Y-87565048D01*
X102522666Y-87581969D01*
X102522663Y-87581977D01*
X102464202Y-87863312D01*
X102444592Y-88149998D01*
X95921501Y-88149998D01*
X95915084Y-88134505D01*
X95832951Y-88011584D01*
X95728416Y-87907049D01*
X95607731Y-87826410D01*
X95605497Y-87824917D01*
X95605494Y-87824915D01*
X95508914Y-87784911D01*
X95468913Y-87768342D01*
X95468911Y-87768341D01*
X95468910Y-87768341D01*
X95371813Y-87749027D01*
X95323918Y-87739500D01*
X94576082Y-87739500D01*
X94540079Y-87746661D01*
X94431089Y-87768341D01*
X94294505Y-87824915D01*
X94294502Y-87824917D01*
X94171588Y-87907046D01*
X94171580Y-87907052D01*
X94067052Y-88011580D01*
X94067046Y-88011588D01*
X93984917Y-88134502D01*
X93984915Y-88134505D01*
X93928341Y-88271089D01*
X93901315Y-88406956D01*
X93899500Y-88416082D01*
X93899500Y-88563918D01*
X93928342Y-88708913D01*
X93932119Y-88718032D01*
X93984915Y-88845494D01*
X93984916Y-88845495D01*
X94067049Y-88968416D01*
X94171584Y-89072951D01*
X94171587Y-89072953D01*
X94250286Y-89125538D01*
X94311128Y-89189893D01*
X94338023Y-89274274D01*
X94325643Y-89361968D01*
X94276439Y-89435605D01*
X94200159Y-89480602D01*
X94139727Y-89490000D01*
X92699000Y-89490000D01*
X92612657Y-89470293D01*
X92543416Y-89415074D01*
X92504989Y-89335282D01*
X92500000Y-89291000D01*
X92500000Y-84835000D01*
X135369353Y-84835000D01*
X135389835Y-84977458D01*
X135389836Y-84977462D01*
X135449620Y-85108369D01*
X135449624Y-85108376D01*
X135543871Y-85217142D01*
X135543872Y-85217143D01*
X135664947Y-85294953D01*
X135716423Y-85310067D01*
X135803038Y-85335500D01*
X135803039Y-85335500D01*
X135946962Y-85335500D01*
X136000189Y-85319870D01*
X136085053Y-85294953D01*
X136206128Y-85217143D01*
X136261834Y-85152854D01*
X136300375Y-85108376D01*
X136300379Y-85108369D01*
X136360163Y-84977462D01*
X136360163Y-84977460D01*
X136360165Y-84977457D01*
X136380647Y-84835000D01*
X136360165Y-84692543D01*
X136360163Y-84692540D01*
X136360163Y-84692537D01*
X136300379Y-84561630D01*
X136300375Y-84561623D01*
X136281638Y-84540000D01*
X147444417Y-84540000D01*
X147464699Y-84745933D01*
X147524768Y-84943955D01*
X147622313Y-85126448D01*
X147622315Y-85126450D01*
X147753590Y-85286410D01*
X147813407Y-85335500D01*
X147913551Y-85417686D01*
X148096044Y-85515231D01*
X148096046Y-85515232D01*
X148294066Y-85575300D01*
X148500000Y-85595583D01*
X148705934Y-85575300D01*
X148903954Y-85515232D01*
X149086450Y-85417685D01*
X149246410Y-85286410D01*
X149377685Y-85126450D01*
X149475232Y-84943954D01*
X149535300Y-84745934D01*
X149555583Y-84540000D01*
X149535300Y-84334066D01*
X149475232Y-84136046D01*
X149452423Y-84093373D01*
X149377686Y-83953551D01*
X149357724Y-83929227D01*
X149246410Y-83793590D01*
X149126074Y-83694833D01*
X149086448Y-83662313D01*
X148903955Y-83564768D01*
X148705933Y-83504699D01*
X148500000Y-83484417D01*
X148294066Y-83504699D01*
X148096044Y-83564768D01*
X147913551Y-83662313D01*
X147753590Y-83793590D01*
X147622313Y-83953551D01*
X147524768Y-84136044D01*
X147464699Y-84334066D01*
X147444417Y-84540000D01*
X136281638Y-84540000D01*
X136206128Y-84452857D01*
X136206127Y-84452856D01*
X136145590Y-84413952D01*
X136085053Y-84375047D01*
X136085050Y-84375046D01*
X136085048Y-84375045D01*
X135946962Y-84334500D01*
X135946961Y-84334500D01*
X135803039Y-84334500D01*
X135803038Y-84334500D01*
X135664951Y-84375045D01*
X135664945Y-84375048D01*
X135543872Y-84452856D01*
X135543871Y-84452857D01*
X135449624Y-84561623D01*
X135449620Y-84561630D01*
X135389836Y-84692537D01*
X135389835Y-84692541D01*
X135369353Y-84835000D01*
X92500000Y-84835000D01*
X92500000Y-83895000D01*
X100469353Y-83895000D01*
X100489835Y-84037458D01*
X100489836Y-84037462D01*
X100549620Y-84168369D01*
X100549624Y-84168376D01*
X100643871Y-84277142D01*
X100643872Y-84277143D01*
X100764947Y-84354953D01*
X100816423Y-84370067D01*
X100903038Y-84395500D01*
X100903039Y-84395500D01*
X101046962Y-84395500D01*
X101122309Y-84373376D01*
X101185053Y-84354953D01*
X101306128Y-84277143D01*
X101400377Y-84168373D01*
X101400378Y-84168369D01*
X101407589Y-84157151D01*
X101470847Y-84095168D01*
X101554735Y-84066771D01*
X101642635Y-84077582D01*
X101717140Y-84125462D01*
X101742411Y-84157151D01*
X101749624Y-84168375D01*
X101813821Y-84242462D01*
X101843872Y-84277143D01*
X101964947Y-84354953D01*
X102016423Y-84370067D01*
X102103038Y-84395500D01*
X102103039Y-84395500D01*
X102246962Y-84395500D01*
X102322309Y-84373376D01*
X102385053Y-84354953D01*
X102506128Y-84277143D01*
X102561834Y-84212854D01*
X102600375Y-84168376D01*
X102600379Y-84168369D01*
X102660163Y-84037462D01*
X102660163Y-84037460D01*
X102660165Y-84037457D01*
X102680647Y-83895000D01*
X102669864Y-83820000D01*
X105494353Y-83820000D01*
X105514835Y-83962458D01*
X105514836Y-83962462D01*
X105574620Y-84093369D01*
X105574624Y-84093376D01*
X105651541Y-84182142D01*
X105668872Y-84202143D01*
X105789947Y-84279953D01*
X105841423Y-84295067D01*
X105928038Y-84320500D01*
X105928039Y-84320500D01*
X106071962Y-84320500D01*
X106125189Y-84304870D01*
X106210053Y-84279953D01*
X106331128Y-84202143D01*
X106423822Y-84095168D01*
X106425375Y-84093376D01*
X106425379Y-84093369D01*
X106449752Y-84040000D01*
X110799353Y-84040000D01*
X110819835Y-84182458D01*
X110819836Y-84182462D01*
X110879620Y-84313369D01*
X110879624Y-84313376D01*
X110973871Y-84422142D01*
X110973872Y-84422143D01*
X111094947Y-84499953D01*
X111146423Y-84515067D01*
X111233038Y-84540500D01*
X111233039Y-84540500D01*
X111376962Y-84540500D01*
X111430189Y-84524870D01*
X111515053Y-84499953D01*
X111636128Y-84422143D01*
X111694350Y-84354951D01*
X111730375Y-84313376D01*
X111730379Y-84313369D01*
X111790163Y-84182462D01*
X111790163Y-84182460D01*
X111790165Y-84182457D01*
X111802020Y-84100000D01*
X132494353Y-84100000D01*
X132514835Y-84242458D01*
X132514836Y-84242462D01*
X132574620Y-84373369D01*
X132574624Y-84373376D01*
X132668871Y-84482142D01*
X132668872Y-84482143D01*
X132789947Y-84559953D01*
X132841423Y-84575067D01*
X132928038Y-84600500D01*
X132928039Y-84600500D01*
X133071962Y-84600500D01*
X133125189Y-84584870D01*
X133210053Y-84559953D01*
X133331128Y-84482143D01*
X133423926Y-84375048D01*
X133425375Y-84373376D01*
X133425379Y-84373369D01*
X133485163Y-84242462D01*
X133485163Y-84242460D01*
X133485165Y-84242457D01*
X133505647Y-84100000D01*
X133485165Y-83957543D01*
X133485163Y-83957540D01*
X133485163Y-83957537D01*
X133425379Y-83826630D01*
X133425375Y-83826623D01*
X133402306Y-83800000D01*
X137794353Y-83800000D01*
X137814835Y-83942458D01*
X137814836Y-83942462D01*
X137874620Y-84073369D01*
X137874624Y-84073376D01*
X137947216Y-84157151D01*
X137968872Y-84182143D01*
X138089947Y-84259953D01*
X138141423Y-84275067D01*
X138228038Y-84300500D01*
X138228039Y-84300500D01*
X138371962Y-84300500D01*
X138441945Y-84279951D01*
X138510053Y-84259953D01*
X138631128Y-84182143D01*
X138706492Y-84095168D01*
X138725375Y-84073376D01*
X138725379Y-84073369D01*
X138785163Y-83942462D01*
X138785163Y-83942460D01*
X138785165Y-83942457D01*
X138805647Y-83800000D01*
X138785165Y-83657543D01*
X138785163Y-83657540D01*
X138785163Y-83657537D01*
X138725379Y-83526630D01*
X138725375Y-83526623D01*
X138631128Y-83417857D01*
X138631127Y-83417856D01*
X138570590Y-83378952D01*
X138510053Y-83340047D01*
X138510050Y-83340046D01*
X138510048Y-83340045D01*
X138371962Y-83299500D01*
X138371961Y-83299500D01*
X138228039Y-83299500D01*
X138228038Y-83299500D01*
X138089951Y-83340045D01*
X138089945Y-83340048D01*
X137968872Y-83417856D01*
X137968871Y-83417857D01*
X137874624Y-83526623D01*
X137874620Y-83526630D01*
X137814836Y-83657537D01*
X137814835Y-83657541D01*
X137794353Y-83800000D01*
X133402306Y-83800000D01*
X133331128Y-83717857D01*
X133331127Y-83717856D01*
X133262630Y-83673836D01*
X133200648Y-83610577D01*
X133172251Y-83526689D01*
X133183064Y-83438788D01*
X133230945Y-83364284D01*
X133262621Y-83339022D01*
X133351128Y-83282143D01*
X133437779Y-83182142D01*
X133445375Y-83173376D01*
X133445379Y-83173369D01*
X133505163Y-83042462D01*
X133505163Y-83042460D01*
X133505165Y-83042457D01*
X133525647Y-82900000D01*
X133511269Y-82800000D01*
X140294353Y-82800000D01*
X140314835Y-82942458D01*
X140314836Y-82942462D01*
X140374620Y-83073369D01*
X140374624Y-83073376D01*
X140441020Y-83150000D01*
X140468872Y-83182143D01*
X140589947Y-83259953D01*
X140641423Y-83275067D01*
X140728038Y-83300500D01*
X140728039Y-83300500D01*
X140871962Y-83300500D01*
X140934483Y-83282142D01*
X141010053Y-83259953D01*
X141131128Y-83182143D01*
X141213169Y-83087462D01*
X141225375Y-83073376D01*
X141225379Y-83073369D01*
X141285163Y-82942462D01*
X141285163Y-82942460D01*
X141285165Y-82942457D01*
X141305647Y-82800000D01*
X141285165Y-82657543D01*
X141285163Y-82657540D01*
X141285163Y-82657537D01*
X141225379Y-82526630D01*
X141225375Y-82526623D01*
X141131128Y-82417857D01*
X141131127Y-82417856D01*
X141070590Y-82378952D01*
X141010053Y-82340047D01*
X141010050Y-82340046D01*
X141010048Y-82340045D01*
X140871962Y-82299500D01*
X140871961Y-82299500D01*
X140728039Y-82299500D01*
X140728038Y-82299500D01*
X140589951Y-82340045D01*
X140589945Y-82340048D01*
X140468872Y-82417856D01*
X140468871Y-82417857D01*
X140374624Y-82526623D01*
X140374620Y-82526630D01*
X140314836Y-82657537D01*
X140314835Y-82657541D01*
X140294353Y-82800000D01*
X133511269Y-82800000D01*
X133505165Y-82757543D01*
X133505163Y-82757540D01*
X133505163Y-82757537D01*
X133445379Y-82626630D01*
X133445375Y-82626623D01*
X133351128Y-82517857D01*
X133351127Y-82517856D01*
X133236982Y-82444500D01*
X133230053Y-82440047D01*
X133230050Y-82440046D01*
X133230048Y-82440045D01*
X133091962Y-82399500D01*
X133091961Y-82399500D01*
X132948039Y-82399500D01*
X132948038Y-82399500D01*
X132809951Y-82440045D01*
X132809945Y-82440048D01*
X132688872Y-82517856D01*
X132688871Y-82517857D01*
X132594624Y-82626623D01*
X132594620Y-82626630D01*
X132534836Y-82757537D01*
X132534835Y-82757541D01*
X132514353Y-82900000D01*
X132534835Y-83042458D01*
X132534836Y-83042462D01*
X132594620Y-83173369D01*
X132594624Y-83173376D01*
X132688871Y-83282142D01*
X132688872Y-83282143D01*
X132757369Y-83326163D01*
X132819351Y-83389422D01*
X132847748Y-83473309D01*
X132836935Y-83561210D01*
X132789054Y-83635714D01*
X132757370Y-83660982D01*
X132668874Y-83717854D01*
X132668871Y-83717857D01*
X132574624Y-83826623D01*
X132574620Y-83826630D01*
X132514836Y-83957537D01*
X132514835Y-83957541D01*
X132494353Y-84100000D01*
X111802020Y-84100000D01*
X111810647Y-84040000D01*
X111790165Y-83897543D01*
X111790163Y-83897540D01*
X111790163Y-83897537D01*
X111730379Y-83766630D01*
X111730375Y-83766623D01*
X111636128Y-83657857D01*
X111636127Y-83657856D01*
X111562559Y-83610577D01*
X111515053Y-83580047D01*
X111515050Y-83580046D01*
X111515048Y-83580045D01*
X111376962Y-83539500D01*
X111376961Y-83539500D01*
X111233039Y-83539500D01*
X111233038Y-83539500D01*
X111094951Y-83580045D01*
X111094945Y-83580048D01*
X110973872Y-83657856D01*
X110973871Y-83657857D01*
X110879624Y-83766623D01*
X110879620Y-83766630D01*
X110819836Y-83897537D01*
X110819835Y-83897541D01*
X110799353Y-84040000D01*
X106449752Y-84040000D01*
X106485163Y-83962462D01*
X106485163Y-83962460D01*
X106485165Y-83962457D01*
X106505647Y-83820000D01*
X106485165Y-83677543D01*
X106485163Y-83677540D01*
X106485163Y-83677537D01*
X106425379Y-83546630D01*
X106425375Y-83546623D01*
X106331128Y-83437857D01*
X106331127Y-83437856D01*
X106255761Y-83389422D01*
X106210053Y-83360047D01*
X106210050Y-83360046D01*
X106210048Y-83360045D01*
X106071962Y-83319500D01*
X106071961Y-83319500D01*
X105928039Y-83319500D01*
X105928038Y-83319500D01*
X105789951Y-83360045D01*
X105789945Y-83360048D01*
X105668872Y-83437856D01*
X105668871Y-83437857D01*
X105574624Y-83546623D01*
X105574620Y-83546630D01*
X105514836Y-83677537D01*
X105514835Y-83677541D01*
X105494353Y-83820000D01*
X102669864Y-83820000D01*
X102660165Y-83752543D01*
X102660163Y-83752540D01*
X102660163Y-83752537D01*
X102600379Y-83621630D01*
X102600375Y-83621623D01*
X102506128Y-83512857D01*
X102506127Y-83512856D01*
X102389425Y-83437857D01*
X102385053Y-83435047D01*
X102385050Y-83435046D01*
X102385048Y-83435045D01*
X102246962Y-83394500D01*
X102246961Y-83394500D01*
X102103039Y-83394500D01*
X102103038Y-83394500D01*
X101964951Y-83435045D01*
X101964945Y-83435048D01*
X101843872Y-83512856D01*
X101843871Y-83512857D01*
X101749625Y-83621623D01*
X101742409Y-83632852D01*
X101679149Y-83694833D01*
X101595262Y-83723229D01*
X101507361Y-83712415D01*
X101432857Y-83664534D01*
X101407591Y-83632852D01*
X101400374Y-83621623D01*
X101306128Y-83512857D01*
X101306127Y-83512856D01*
X101189425Y-83437857D01*
X101185053Y-83435047D01*
X101185050Y-83435046D01*
X101185048Y-83435045D01*
X101046962Y-83394500D01*
X101046961Y-83394500D01*
X100903039Y-83394500D01*
X100903038Y-83394500D01*
X100764951Y-83435045D01*
X100764945Y-83435048D01*
X100643872Y-83512856D01*
X100643871Y-83512857D01*
X100549624Y-83621623D01*
X100549620Y-83621630D01*
X100489836Y-83752537D01*
X100489835Y-83752541D01*
X100469353Y-83895000D01*
X92500000Y-83895000D01*
X92500000Y-82945000D01*
X103744353Y-82945000D01*
X103764835Y-83087458D01*
X103764836Y-83087462D01*
X103824620Y-83218369D01*
X103824624Y-83218376D01*
X103912249Y-83319500D01*
X103918872Y-83327143D01*
X104039947Y-83404953D01*
X104091423Y-83420067D01*
X104178038Y-83445500D01*
X104178039Y-83445500D01*
X104321962Y-83445500D01*
X104375189Y-83429870D01*
X104460053Y-83404953D01*
X104581128Y-83327143D01*
X104673898Y-83220080D01*
X104675375Y-83218376D01*
X104675379Y-83218369D01*
X104735163Y-83087462D01*
X104735163Y-83087460D01*
X104735165Y-83087457D01*
X104755647Y-82945000D01*
X104735165Y-82802543D01*
X104735163Y-82802540D01*
X104735163Y-82802537D01*
X104734004Y-82800000D01*
X114494353Y-82800000D01*
X114514835Y-82942458D01*
X114514836Y-82942462D01*
X114574620Y-83073369D01*
X114574624Y-83073376D01*
X114641020Y-83150000D01*
X114668872Y-83182143D01*
X114789947Y-83259953D01*
X114841423Y-83275067D01*
X114928038Y-83300500D01*
X114928039Y-83300500D01*
X115071962Y-83300500D01*
X115134483Y-83282142D01*
X115210053Y-83259953D01*
X115331128Y-83182143D01*
X115413169Y-83087462D01*
X115425375Y-83073376D01*
X115425379Y-83073369D01*
X115485163Y-82942462D01*
X115485163Y-82942460D01*
X115485165Y-82942457D01*
X115505647Y-82800000D01*
X120694353Y-82800000D01*
X120714835Y-82942458D01*
X120714836Y-82942462D01*
X120774620Y-83073369D01*
X120774624Y-83073376D01*
X120841020Y-83150000D01*
X120868872Y-83182143D01*
X120989947Y-83259953D01*
X121041423Y-83275067D01*
X121128038Y-83300500D01*
X121128039Y-83300500D01*
X121271962Y-83300500D01*
X121334483Y-83282142D01*
X121410053Y-83259953D01*
X121531128Y-83182143D01*
X121613169Y-83087462D01*
X121625375Y-83073376D01*
X121625379Y-83073369D01*
X121685163Y-82942462D01*
X121685163Y-82942460D01*
X121685165Y-82942457D01*
X121691269Y-82900000D01*
X122119678Y-82900000D01*
X122138914Y-83083028D01*
X122171119Y-83182142D01*
X122195786Y-83258059D01*
X122287805Y-83417440D01*
X122386117Y-83526627D01*
X122410949Y-83554206D01*
X122559837Y-83662380D01*
X122559838Y-83662380D01*
X122559839Y-83662381D01*
X122727966Y-83737236D01*
X122799969Y-83752541D01*
X122907978Y-83775500D01*
X122907981Y-83775500D01*
X123092022Y-83775500D01*
X123200021Y-83752543D01*
X123272034Y-83737236D01*
X123440161Y-83662381D01*
X123589050Y-83554207D01*
X123712195Y-83417440D01*
X123804214Y-83258059D01*
X123861085Y-83083029D01*
X123880322Y-82900000D01*
X124619678Y-82900000D01*
X124638914Y-83083028D01*
X124671119Y-83182142D01*
X124695786Y-83258059D01*
X124787805Y-83417440D01*
X124886117Y-83526627D01*
X124910949Y-83554206D01*
X125059837Y-83662380D01*
X125059838Y-83662380D01*
X125059839Y-83662381D01*
X125227966Y-83737236D01*
X125299969Y-83752541D01*
X125407978Y-83775500D01*
X125407981Y-83775500D01*
X125592022Y-83775500D01*
X125700021Y-83752543D01*
X125772034Y-83737236D01*
X125940161Y-83662381D01*
X126089050Y-83554207D01*
X126212195Y-83417440D01*
X126304214Y-83258059D01*
X126361085Y-83083029D01*
X126380322Y-82900000D01*
X126361085Y-82716971D01*
X126304214Y-82541941D01*
X126212195Y-82382560D01*
X126089050Y-82245793D01*
X126053549Y-82220000D01*
X126033314Y-82205298D01*
X127125000Y-82205298D01*
X127125000Y-82650000D01*
X127684314Y-82650000D01*
X127679920Y-82654394D01*
X127627259Y-82745606D01*
X127600000Y-82847339D01*
X127600000Y-82952661D01*
X127627259Y-83054394D01*
X127679920Y-83145606D01*
X127684314Y-83150000D01*
X127125000Y-83150000D01*
X127125000Y-83594701D01*
X127136603Y-83653034D01*
X127180808Y-83719191D01*
X127246965Y-83763396D01*
X127305299Y-83775000D01*
X127750000Y-83775000D01*
X127750000Y-83215686D01*
X127754394Y-83220080D01*
X127845606Y-83272741D01*
X127947339Y-83300000D01*
X128052661Y-83300000D01*
X128154394Y-83272741D01*
X128245606Y-83220080D01*
X128250000Y-83215686D01*
X128250000Y-83775000D01*
X128694701Y-83775000D01*
X128753034Y-83763396D01*
X128819191Y-83719191D01*
X128863396Y-83653034D01*
X128875000Y-83594701D01*
X128875000Y-83150000D01*
X128315686Y-83150000D01*
X128320080Y-83145606D01*
X128372741Y-83054394D01*
X128400000Y-82952661D01*
X128400000Y-82847339D01*
X128372741Y-82745606D01*
X128320080Y-82654394D01*
X128315686Y-82650000D01*
X128875000Y-82650000D01*
X128875000Y-82205298D01*
X128863396Y-82146965D01*
X128819191Y-82080808D01*
X128753034Y-82036603D01*
X128694701Y-82025000D01*
X128250000Y-82025000D01*
X128250000Y-82584314D01*
X128245606Y-82579920D01*
X128154394Y-82527259D01*
X128052661Y-82500000D01*
X127947339Y-82500000D01*
X127845606Y-82527259D01*
X127754394Y-82579920D01*
X127750000Y-82584314D01*
X127750000Y-82025000D01*
X127305299Y-82025000D01*
X127246965Y-82036603D01*
X127180808Y-82080808D01*
X127136603Y-82146965D01*
X127125000Y-82205298D01*
X126033314Y-82205298D01*
X125940162Y-82137619D01*
X125772032Y-82062763D01*
X125772026Y-82062762D01*
X125592022Y-82024500D01*
X125592019Y-82024500D01*
X125407981Y-82024500D01*
X125407978Y-82024500D01*
X125227973Y-82062762D01*
X125227967Y-82062763D01*
X125059837Y-82137619D01*
X124910950Y-82245793D01*
X124910949Y-82245793D01*
X124862592Y-82299500D01*
X124787805Y-82382560D01*
X124787804Y-82382562D01*
X124695786Y-82541940D01*
X124695785Y-82541943D01*
X124638914Y-82716971D01*
X124619678Y-82900000D01*
X123880322Y-82900000D01*
X123861085Y-82716971D01*
X123804214Y-82541941D01*
X123712195Y-82382560D01*
X123589050Y-82245793D01*
X123553549Y-82220000D01*
X123440162Y-82137619D01*
X123272032Y-82062763D01*
X123272026Y-82062762D01*
X123092022Y-82024500D01*
X123092019Y-82024500D01*
X122907981Y-82024500D01*
X122907978Y-82024500D01*
X122727973Y-82062762D01*
X122727967Y-82062763D01*
X122559837Y-82137619D01*
X122410950Y-82245793D01*
X122410949Y-82245793D01*
X122362592Y-82299500D01*
X122287805Y-82382560D01*
X122287804Y-82382562D01*
X122195786Y-82541940D01*
X122195785Y-82541943D01*
X122138914Y-82716971D01*
X122119678Y-82900000D01*
X121691269Y-82900000D01*
X121705647Y-82800000D01*
X121685165Y-82657543D01*
X121685163Y-82657540D01*
X121685163Y-82657537D01*
X121625379Y-82526630D01*
X121625375Y-82526623D01*
X121531128Y-82417857D01*
X121531127Y-82417856D01*
X121470590Y-82378952D01*
X121410053Y-82340047D01*
X121410050Y-82340046D01*
X121410048Y-82340045D01*
X121271962Y-82299500D01*
X121271961Y-82299500D01*
X121128039Y-82299500D01*
X121128038Y-82299500D01*
X120989951Y-82340045D01*
X120989945Y-82340048D01*
X120868872Y-82417856D01*
X120868871Y-82417857D01*
X120774624Y-82526623D01*
X120774620Y-82526630D01*
X120714836Y-82657537D01*
X120714835Y-82657541D01*
X120694353Y-82800000D01*
X115505647Y-82800000D01*
X115485165Y-82657543D01*
X115485163Y-82657540D01*
X115485163Y-82657537D01*
X115425379Y-82526630D01*
X115425375Y-82526623D01*
X115331128Y-82417857D01*
X115331127Y-82417856D01*
X115270590Y-82378952D01*
X115210053Y-82340047D01*
X115210050Y-82340046D01*
X115210048Y-82340045D01*
X115071962Y-82299500D01*
X115071961Y-82299500D01*
X114928039Y-82299500D01*
X114928038Y-82299500D01*
X114789951Y-82340045D01*
X114789945Y-82340048D01*
X114668872Y-82417856D01*
X114668871Y-82417857D01*
X114574624Y-82526623D01*
X114574620Y-82526630D01*
X114514836Y-82657537D01*
X114514835Y-82657541D01*
X114494353Y-82800000D01*
X104734004Y-82800000D01*
X104675379Y-82671630D01*
X104675375Y-82671623D01*
X104581128Y-82562857D01*
X104581127Y-82562856D01*
X104473013Y-82493376D01*
X104460053Y-82485047D01*
X104460050Y-82485046D01*
X104460048Y-82485045D01*
X104321962Y-82444500D01*
X104321961Y-82444500D01*
X104178039Y-82444500D01*
X104178038Y-82444500D01*
X104039951Y-82485045D01*
X104039945Y-82485048D01*
X103918872Y-82562856D01*
X103918871Y-82562857D01*
X103824624Y-82671623D01*
X103824620Y-82671630D01*
X103764836Y-82802537D01*
X103764835Y-82802541D01*
X103744353Y-82945000D01*
X92500000Y-82945000D01*
X92500000Y-82220000D01*
X108894353Y-82220000D01*
X108914835Y-82362458D01*
X108914836Y-82362462D01*
X108974620Y-82493369D01*
X108974624Y-82493376D01*
X109068871Y-82602142D01*
X109068872Y-82602143D01*
X109189947Y-82679953D01*
X109241423Y-82695067D01*
X109328038Y-82720500D01*
X109328039Y-82720500D01*
X109471962Y-82720500D01*
X109525189Y-82704870D01*
X109610053Y-82679953D01*
X109731128Y-82602143D01*
X109796560Y-82526630D01*
X109825375Y-82493376D01*
X109825379Y-82493369D01*
X109885163Y-82362462D01*
X109885163Y-82362460D01*
X109885165Y-82362457D01*
X109905647Y-82220000D01*
X109885165Y-82077543D01*
X109885163Y-82077540D01*
X109885163Y-82077537D01*
X109825379Y-81946630D01*
X109825375Y-81946623D01*
X109731128Y-81837857D01*
X109731127Y-81837856D01*
X109670590Y-81798952D01*
X109610053Y-81760047D01*
X109610050Y-81760046D01*
X109610048Y-81760045D01*
X109471962Y-81719500D01*
X109471961Y-81719500D01*
X109328039Y-81719500D01*
X109328038Y-81719500D01*
X109189951Y-81760045D01*
X109189945Y-81760048D01*
X109068872Y-81837856D01*
X109068871Y-81837857D01*
X108974624Y-81946623D01*
X108974620Y-81946630D01*
X108914836Y-82077537D01*
X108914835Y-82077541D01*
X108894353Y-82220000D01*
X92500000Y-82220000D01*
X92500000Y-81695000D01*
X99769353Y-81695000D01*
X99789835Y-81837458D01*
X99789836Y-81837462D01*
X99849620Y-81968369D01*
X99849624Y-81968376D01*
X99943871Y-82077142D01*
X99943872Y-82077143D01*
X100064947Y-82154953D01*
X100116423Y-82170067D01*
X100203038Y-82195500D01*
X100203039Y-82195500D01*
X100346962Y-82195500D01*
X100432104Y-82170500D01*
X100485053Y-82154953D01*
X100606128Y-82077143D01*
X100661834Y-82012854D01*
X100700375Y-81968376D01*
X100700379Y-81968369D01*
X100760163Y-81837462D01*
X100760163Y-81837460D01*
X100760165Y-81837457D01*
X100780647Y-81695000D01*
X100760165Y-81552543D01*
X100760163Y-81552540D01*
X100760163Y-81552537D01*
X100752328Y-81535380D01*
X102359733Y-81535380D01*
X102380215Y-81677838D01*
X102380216Y-81677842D01*
X102440000Y-81808749D01*
X102440004Y-81808756D01*
X102534251Y-81917522D01*
X102534252Y-81917523D01*
X102655327Y-81995333D01*
X102706803Y-82010447D01*
X102793418Y-82035880D01*
X102793419Y-82035880D01*
X102937342Y-82035880D01*
X102990569Y-82020250D01*
X103075433Y-81995333D01*
X103196508Y-81917523D01*
X103252214Y-81853234D01*
X103290755Y-81808756D01*
X103290759Y-81808749D01*
X103350543Y-81677842D01*
X103350543Y-81677840D01*
X103350545Y-81677837D01*
X103351672Y-81670000D01*
X104994353Y-81670000D01*
X105014835Y-81812458D01*
X105014836Y-81812462D01*
X105074620Y-81943369D01*
X105074624Y-81943376D01*
X105168871Y-82052142D01*
X105168872Y-82052143D01*
X105289947Y-82129953D01*
X105341423Y-82145067D01*
X105428038Y-82170500D01*
X105428039Y-82170500D01*
X105571962Y-82170500D01*
X105625189Y-82154870D01*
X105710053Y-82129953D01*
X105831128Y-82052143D01*
X105922555Y-81946630D01*
X105925375Y-81943376D01*
X105925379Y-81943369D01*
X105985163Y-81812462D01*
X105985163Y-81812460D01*
X105985165Y-81812457D01*
X106005647Y-81670000D01*
X106494353Y-81670000D01*
X106514835Y-81812458D01*
X106514836Y-81812462D01*
X106574620Y-81943369D01*
X106574624Y-81943376D01*
X106668871Y-82052142D01*
X106668872Y-82052143D01*
X106789947Y-82129953D01*
X106841423Y-82145067D01*
X106928038Y-82170500D01*
X106928039Y-82170500D01*
X107071962Y-82170500D01*
X107125189Y-82154870D01*
X107210053Y-82129953D01*
X107331128Y-82052143D01*
X107422555Y-81946630D01*
X107425375Y-81943376D01*
X107425379Y-81943369D01*
X107485163Y-81812462D01*
X107485163Y-81812460D01*
X107485165Y-81812457D01*
X107505647Y-81670000D01*
X107485165Y-81527543D01*
X107485163Y-81527540D01*
X107485163Y-81527537D01*
X107425379Y-81396630D01*
X107425375Y-81396623D01*
X107331128Y-81287857D01*
X107331127Y-81287856D01*
X107248951Y-81235045D01*
X107210053Y-81210047D01*
X107210050Y-81210046D01*
X107210048Y-81210045D01*
X107071962Y-81169500D01*
X107071961Y-81169500D01*
X106928039Y-81169500D01*
X106928038Y-81169500D01*
X106789951Y-81210045D01*
X106789945Y-81210048D01*
X106668872Y-81287856D01*
X106668871Y-81287857D01*
X106574624Y-81396623D01*
X106574620Y-81396630D01*
X106514836Y-81527537D01*
X106514835Y-81527541D01*
X106494353Y-81670000D01*
X106005647Y-81670000D01*
X105985165Y-81527543D01*
X105985163Y-81527540D01*
X105985163Y-81527537D01*
X105925379Y-81396630D01*
X105925375Y-81396623D01*
X105831128Y-81287857D01*
X105831127Y-81287856D01*
X105748951Y-81235045D01*
X105710053Y-81210047D01*
X105710050Y-81210046D01*
X105710048Y-81210045D01*
X105571962Y-81169500D01*
X105571961Y-81169500D01*
X105428039Y-81169500D01*
X105428038Y-81169500D01*
X105289951Y-81210045D01*
X105289945Y-81210048D01*
X105168872Y-81287856D01*
X105168871Y-81287857D01*
X105074624Y-81396623D01*
X105074620Y-81396630D01*
X105014836Y-81527537D01*
X105014835Y-81527541D01*
X104994353Y-81670000D01*
X103351672Y-81670000D01*
X103371027Y-81535380D01*
X103350545Y-81392923D01*
X103350543Y-81392920D01*
X103350543Y-81392917D01*
X103290759Y-81262010D01*
X103290755Y-81262003D01*
X103196508Y-81153237D01*
X103196507Y-81153236D01*
X103117494Y-81102458D01*
X103075433Y-81075427D01*
X103075430Y-81075426D01*
X103075428Y-81075425D01*
X102937342Y-81034880D01*
X102937341Y-81034880D01*
X102793419Y-81034880D01*
X102793418Y-81034880D01*
X102655331Y-81075425D01*
X102655325Y-81075428D01*
X102534252Y-81153236D01*
X102534251Y-81153237D01*
X102440004Y-81262003D01*
X102440000Y-81262010D01*
X102380216Y-81392917D01*
X102380215Y-81392921D01*
X102359733Y-81535380D01*
X100752328Y-81535380D01*
X100700379Y-81421630D01*
X100700375Y-81421623D01*
X100606128Y-81312857D01*
X100606127Y-81312856D01*
X100526997Y-81262003D01*
X100485053Y-81235047D01*
X100485050Y-81235046D01*
X100485048Y-81235045D01*
X100346962Y-81194500D01*
X100346961Y-81194500D01*
X100203039Y-81194500D01*
X100203038Y-81194500D01*
X100064951Y-81235045D01*
X100064945Y-81235048D01*
X99943872Y-81312856D01*
X99943871Y-81312857D01*
X99849624Y-81421623D01*
X99849620Y-81421630D01*
X99789836Y-81552537D01*
X99789835Y-81552541D01*
X99769353Y-81695000D01*
X92500000Y-81695000D01*
X92500000Y-79331933D01*
X92519707Y-79245590D01*
X92574926Y-79176349D01*
X92601294Y-79159365D01*
X92601153Y-79159134D01*
X92607807Y-79155055D01*
X92607816Y-79155051D01*
X92779792Y-79030104D01*
X92930104Y-78879792D01*
X93055051Y-78707816D01*
X93055054Y-78707810D01*
X93059143Y-78701139D01*
X93060304Y-78701850D01*
X93111385Y-78640669D01*
X93192020Y-78604044D01*
X93231934Y-78600000D01*
X97381159Y-78600000D01*
X97467502Y-78619707D01*
G37*
%TD.AperFunction*%
M02*
