%TF.GenerationSoftware,KiCad,Pcbnew,8.0.2-1*%
%TF.CreationDate,2024-09-30T14:56:41+09:00*%
%TF.ProjectId,gas_nrf52832,6761735f-6e72-4663-9532-3833322e6b69,rev?*%
%TF.SameCoordinates,Original*%
%TF.FileFunction,Copper,L4,Bot*%
%TF.FilePolarity,Positive*%
%FSLAX46Y46*%
G04 Gerber Fmt 4.6, Leading zero omitted, Abs format (unit mm)*
G04 Created by KiCad (PCBNEW 8.0.2-1) date 2024-09-30 14:56:41*
%MOMM*%
%LPD*%
G01*
G04 APERTURE LIST*
%TA.AperFunction,ComponentPad*%
%ADD10R,1.000000X1.000000*%
%TD*%
%TA.AperFunction,ComponentPad*%
%ADD11O,1.000000X1.000000*%
%TD*%
%TA.AperFunction,ComponentPad*%
%ADD12R,1.700000X1.700000*%
%TD*%
%TA.AperFunction,ComponentPad*%
%ADD13O,1.700000X1.700000*%
%TD*%
%TA.AperFunction,ComponentPad*%
%ADD14R,1.350000X1.350000*%
%TD*%
%TA.AperFunction,ComponentPad*%
%ADD15O,1.350000X1.350000*%
%TD*%
%TA.AperFunction,ComponentPad*%
%ADD16O,2.100000X1.100000*%
%TD*%
%TA.AperFunction,ComponentPad*%
%ADD17O,1.700000X1.100000*%
%TD*%
%TA.AperFunction,ComponentPad*%
%ADD18C,3.800000*%
%TD*%
%TA.AperFunction,ViaPad*%
%ADD19C,0.600000*%
%TD*%
%TA.AperFunction,ViaPad*%
%ADD20C,0.700000*%
%TD*%
%TA.AperFunction,Conductor*%
%ADD21C,0.500000*%
%TD*%
%TA.AperFunction,Conductor*%
%ADD22C,0.200000*%
%TD*%
%TA.AperFunction,Conductor*%
%ADD23C,0.300000*%
%TD*%
G04 APERTURE END LIST*
D10*
X98080000Y-80640000D03*
D11*
X98080000Y-79370000D03*
D12*
X140820000Y-104000000D03*
D13*
X143360000Y-104000000D03*
X145900000Y-104000000D03*
X148440000Y-104000000D03*
D14*
X128000000Y-82900000D03*
D15*
X125500000Y-82900000D03*
X123000000Y-82900000D03*
X128000000Y-79600000D03*
X125500000Y-79600000D03*
X123000000Y-79600000D03*
D12*
X150500000Y-82235000D03*
D13*
X150500000Y-84775000D03*
X150500000Y-87315000D03*
D16*
X90950000Y-88490000D03*
X90950000Y-99730000D03*
D17*
X94950000Y-88490000D03*
X94950000Y-99730000D03*
D18*
X104550000Y-101650000D03*
X104550000Y-88150000D03*
X111300000Y-94900000D03*
X119300000Y-94900000D03*
X126050000Y-88150000D03*
X126050000Y-101650000D03*
D19*
X143825000Y-86075000D03*
X116625000Y-98550000D03*
X95000000Y-105000000D03*
X146850000Y-88025000D03*
X105500000Y-80070000D03*
X115000000Y-76450000D03*
X115000000Y-109500000D03*
X115000000Y-85000000D03*
X135990000Y-105865000D03*
X137500000Y-83000000D03*
X90500000Y-109500000D03*
X100000000Y-109500000D03*
X125000000Y-109500000D03*
X133265000Y-106095000D03*
X140000000Y-97500000D03*
X112020000Y-99850000D03*
X130000000Y-109500000D03*
X133600000Y-92500000D03*
X127195000Y-96635000D03*
X118600000Y-103825000D03*
X108250000Y-79020000D03*
X100000000Y-100000000D03*
X130000000Y-76450000D03*
X142526054Y-88024813D03*
X111305000Y-84040000D03*
X152500000Y-80000000D03*
X135000000Y-76450000D03*
X129375000Y-90975000D03*
X145000000Y-109500000D03*
X104350000Y-78895000D03*
X130000000Y-79500000D03*
X110350000Y-80620000D03*
X110000000Y-76450000D03*
X104250000Y-82945000D03*
X139000000Y-76450000D03*
X133230000Y-99670000D03*
X100960000Y-92760000D03*
X152500000Y-109500000D03*
X90500000Y-76500000D03*
X110000000Y-109500000D03*
X135190000Y-101965000D03*
D20*
X147525000Y-78525000D03*
D19*
X120000000Y-85000000D03*
X100000000Y-76450000D03*
X140000000Y-109500000D03*
X95000000Y-109500000D03*
X100275000Y-81695000D03*
D20*
X97210000Y-96870000D03*
D19*
X135000000Y-109500000D03*
X110000000Y-90000000D03*
X100000000Y-105000000D03*
X107000000Y-80070000D03*
X105000000Y-109500000D03*
X95000000Y-76450000D03*
X152500000Y-85000000D03*
X118600000Y-97950000D03*
X139000000Y-79500000D03*
X129106765Y-93898235D03*
X152500000Y-105000000D03*
X142050000Y-85200000D03*
X100975000Y-83895000D03*
X135000000Y-79500000D03*
X90500000Y-80000000D03*
X125000000Y-76450000D03*
X145000000Y-106000000D03*
X126320000Y-96960000D03*
X133265000Y-102845000D03*
D20*
X97210000Y-91380000D03*
X149100000Y-100850000D03*
D19*
X102150000Y-78895000D03*
X107000000Y-81670000D03*
X105000000Y-76450000D03*
X144750000Y-88025000D03*
X152500000Y-101000000D03*
X145000000Y-92500000D03*
X152500000Y-89000000D03*
X152500000Y-76450000D03*
X142500000Y-95000000D03*
X137700000Y-90000000D03*
X120000000Y-76450000D03*
X133600000Y-91000000D03*
D20*
X137700000Y-99900000D03*
D19*
X145925000Y-84225000D03*
X134965000Y-96950000D03*
X109995000Y-100800000D03*
X105500000Y-81670000D03*
X90510000Y-105000000D03*
X100725000Y-78945000D03*
D20*
X149100000Y-91600000D03*
D19*
X147500000Y-76450000D03*
X100950000Y-95450000D03*
X102175000Y-83895000D03*
X109465181Y-80607187D03*
X132500000Y-83000000D03*
X137590000Y-105870000D03*
X139000000Y-86600000D03*
X120000000Y-109500000D03*
X115000000Y-90000000D03*
D20*
X143330000Y-82500000D03*
X133096000Y-105156000D03*
X133096000Y-103886000D03*
X126238000Y-94234000D03*
X137922000Y-88392000D03*
X120650000Y-103124000D03*
X108340000Y-101740000D03*
D19*
X109400000Y-82220000D03*
X106000000Y-83820000D03*
X102865380Y-81535380D03*
D20*
X99300000Y-92025000D03*
X98985000Y-95435000D03*
D21*
X100584000Y-77650000D02*
X99822000Y-78412000D01*
X99080000Y-80640000D02*
X98080000Y-80640000D01*
X99822000Y-79898000D02*
X99080000Y-80640000D01*
X139069239Y-77650000D02*
X100584000Y-77650000D01*
X143330000Y-81910761D02*
X139069239Y-77650000D01*
X143330000Y-82500000D02*
X143330000Y-81910761D01*
X99822000Y-78412000D02*
X99822000Y-79898000D01*
D22*
X109400000Y-82225000D02*
X107800000Y-83825000D01*
X107800000Y-83825000D02*
X106000000Y-83825000D01*
D23*
X123730000Y-81370000D02*
X125500000Y-79600000D01*
X103380760Y-81020000D02*
X108940000Y-81020000D01*
X109290000Y-81370000D02*
X123730000Y-81370000D01*
X102865380Y-81535380D02*
X103380760Y-81020000D01*
X108940000Y-81020000D02*
X109290000Y-81370000D01*
D21*
X98985000Y-95435000D02*
X99300000Y-95120000D01*
X99300000Y-95120000D02*
X99300000Y-92025000D01*
%TA.AperFunction,Conductor*%
G36*
X153243039Y-75619685D02*
G01*
X153288794Y-75672489D01*
X153300000Y-75724000D01*
X153300000Y-89503500D01*
X153280315Y-89570539D01*
X153227511Y-89616294D01*
X153176000Y-89627500D01*
X149500000Y-89627500D01*
X149500000Y-100227500D01*
X153176000Y-100227500D01*
X153243039Y-100247185D01*
X153288794Y-100299989D01*
X153300000Y-100351500D01*
X153300000Y-110276000D01*
X153280315Y-110343039D01*
X153227511Y-110388794D01*
X153176000Y-110400000D01*
X89624000Y-110400000D01*
X89556961Y-110380315D01*
X89511206Y-110327511D01*
X89500000Y-110276000D01*
X89500000Y-107893713D01*
X90549500Y-107893713D01*
X90549500Y-108106286D01*
X90582753Y-108316239D01*
X90648444Y-108518414D01*
X90744951Y-108707820D01*
X90869890Y-108879786D01*
X91020213Y-109030109D01*
X91192179Y-109155048D01*
X91192181Y-109155049D01*
X91192184Y-109155051D01*
X91381588Y-109251557D01*
X91583757Y-109317246D01*
X91793713Y-109350500D01*
X91793714Y-109350500D01*
X92006286Y-109350500D01*
X92006287Y-109350500D01*
X92216243Y-109317246D01*
X92418412Y-109251557D01*
X92607816Y-109155051D01*
X92629789Y-109139086D01*
X92779786Y-109030109D01*
X92779788Y-109030106D01*
X92779792Y-109030104D01*
X92930104Y-108879792D01*
X92930106Y-108879788D01*
X92930109Y-108879786D01*
X93055048Y-108707820D01*
X93055047Y-108707820D01*
X93055051Y-108707816D01*
X93151557Y-108518412D01*
X93217246Y-108316243D01*
X93250500Y-108106287D01*
X93250500Y-107893713D01*
X149549500Y-107893713D01*
X149549500Y-108106286D01*
X149582753Y-108316239D01*
X149648444Y-108518414D01*
X149744951Y-108707820D01*
X149869890Y-108879786D01*
X150020213Y-109030109D01*
X150192179Y-109155048D01*
X150192181Y-109155049D01*
X150192184Y-109155051D01*
X150381588Y-109251557D01*
X150583757Y-109317246D01*
X150793713Y-109350500D01*
X150793714Y-109350500D01*
X151006286Y-109350500D01*
X151006287Y-109350500D01*
X151216243Y-109317246D01*
X151418412Y-109251557D01*
X151607816Y-109155051D01*
X151629789Y-109139086D01*
X151779786Y-109030109D01*
X151779788Y-109030106D01*
X151779792Y-109030104D01*
X151930104Y-108879792D01*
X151930106Y-108879788D01*
X151930109Y-108879786D01*
X152055048Y-108707820D01*
X152055047Y-108707820D01*
X152055051Y-108707816D01*
X152151557Y-108518412D01*
X152217246Y-108316243D01*
X152250500Y-108106287D01*
X152250500Y-107893713D01*
X152217246Y-107683757D01*
X152151557Y-107481588D01*
X152055051Y-107292184D01*
X152055049Y-107292181D01*
X152055048Y-107292179D01*
X151930109Y-107120213D01*
X151779786Y-106969890D01*
X151607820Y-106844951D01*
X151418414Y-106748444D01*
X151418413Y-106748443D01*
X151418412Y-106748443D01*
X151216243Y-106682754D01*
X151216241Y-106682753D01*
X151216240Y-106682753D01*
X151054957Y-106657208D01*
X151006287Y-106649500D01*
X150793713Y-106649500D01*
X150745042Y-106657208D01*
X150583760Y-106682753D01*
X150381585Y-106748444D01*
X150192179Y-106844951D01*
X150020213Y-106969890D01*
X149869890Y-107120213D01*
X149744951Y-107292179D01*
X149648444Y-107481585D01*
X149582753Y-107683760D01*
X149549500Y-107893713D01*
X93250500Y-107893713D01*
X93217246Y-107683757D01*
X93151557Y-107481588D01*
X93055051Y-107292184D01*
X93055049Y-107292181D01*
X93055048Y-107292179D01*
X92930109Y-107120213D01*
X92779786Y-106969890D01*
X92607820Y-106844951D01*
X92418414Y-106748444D01*
X92418413Y-106748443D01*
X92418412Y-106748443D01*
X92216243Y-106682754D01*
X92216241Y-106682753D01*
X92216240Y-106682753D01*
X92054957Y-106657208D01*
X92006287Y-106649500D01*
X91793713Y-106649500D01*
X91745042Y-106657208D01*
X91583760Y-106682753D01*
X91381585Y-106748444D01*
X91192179Y-106844951D01*
X91020213Y-106969890D01*
X90869890Y-107120213D01*
X90744951Y-107292179D01*
X90648444Y-107481585D01*
X90582753Y-107683760D01*
X90549500Y-107893713D01*
X89500000Y-107893713D01*
X89500000Y-103885999D01*
X132540750Y-103885999D01*
X132540750Y-103886000D01*
X132559670Y-104029708D01*
X132559671Y-104029712D01*
X132615137Y-104163622D01*
X132615138Y-104163624D01*
X132615139Y-104163625D01*
X132703379Y-104278621D01*
X132818375Y-104366861D01*
X132836692Y-104374448D01*
X132913925Y-104406439D01*
X132968329Y-104450280D01*
X132990394Y-104516574D01*
X132973115Y-104584273D01*
X132921978Y-104631884D01*
X132913925Y-104635561D01*
X132818378Y-104675137D01*
X132703379Y-104763379D01*
X132615137Y-104878377D01*
X132559671Y-105012287D01*
X132559670Y-105012291D01*
X132540750Y-105155999D01*
X132540750Y-105156000D01*
X132559670Y-105299708D01*
X132559671Y-105299712D01*
X132615137Y-105433622D01*
X132615138Y-105433624D01*
X132615139Y-105433625D01*
X132703379Y-105548621D01*
X132818375Y-105636861D01*
X132952291Y-105692330D01*
X133079280Y-105709048D01*
X133095999Y-105711250D01*
X133096000Y-105711250D01*
X133096001Y-105711250D01*
X133110977Y-105709278D01*
X133239709Y-105692330D01*
X133373625Y-105636861D01*
X133488621Y-105548621D01*
X133576861Y-105433625D01*
X133632330Y-105299709D01*
X133651250Y-105156000D01*
X133632330Y-105012291D01*
X133576861Y-104878375D01*
X133488621Y-104763379D01*
X133373625Y-104675139D01*
X133373624Y-104675138D01*
X133373622Y-104675137D01*
X133278074Y-104635561D01*
X133223670Y-104591721D01*
X133201605Y-104525427D01*
X133218884Y-104457727D01*
X133270021Y-104410116D01*
X133278074Y-104406439D01*
X133355308Y-104374448D01*
X133373625Y-104366861D01*
X133488621Y-104278621D01*
X133576861Y-104163625D01*
X133632330Y-104029709D01*
X133651250Y-103886000D01*
X133632330Y-103742291D01*
X133595350Y-103653013D01*
X133576862Y-103608377D01*
X133576861Y-103608376D01*
X133576861Y-103608375D01*
X133488621Y-103493379D01*
X133373625Y-103405139D01*
X133373624Y-103405138D01*
X133373622Y-103405137D01*
X133239712Y-103349671D01*
X133239710Y-103349670D01*
X133239709Y-103349670D01*
X133167854Y-103340210D01*
X133096001Y-103330750D01*
X133095999Y-103330750D01*
X132952291Y-103349670D01*
X132952287Y-103349671D01*
X132818377Y-103405137D01*
X132703379Y-103493379D01*
X132615137Y-103608377D01*
X132559671Y-103742287D01*
X132559670Y-103742291D01*
X132540750Y-103885999D01*
X89500000Y-103885999D01*
X89500000Y-101650000D01*
X102444592Y-101650000D01*
X102464201Y-101936680D01*
X102522666Y-102218034D01*
X102522667Y-102218037D01*
X102618894Y-102488793D01*
X102618893Y-102488793D01*
X102751098Y-102743935D01*
X102916812Y-102978700D01*
X103001923Y-103069831D01*
X103112947Y-103188708D01*
X103335853Y-103370055D01*
X103576869Y-103516621D01*
X103581382Y-103519365D01*
X103757915Y-103596043D01*
X103844942Y-103633844D01*
X104121642Y-103711371D01*
X104371920Y-103745771D01*
X104406321Y-103750500D01*
X104406322Y-103750500D01*
X104693679Y-103750500D01*
X104724370Y-103746281D01*
X104978358Y-103711371D01*
X105255058Y-103633844D01*
X105368015Y-103584779D01*
X105518617Y-103519365D01*
X105518620Y-103519363D01*
X105518625Y-103519361D01*
X105764147Y-103370055D01*
X105987053Y-103188708D01*
X106047487Y-103123999D01*
X120094750Y-103123999D01*
X120094750Y-103124000D01*
X120113670Y-103267708D01*
X120113671Y-103267712D01*
X120169137Y-103401622D01*
X120169138Y-103401624D01*
X120169139Y-103401625D01*
X120257379Y-103516621D01*
X120372375Y-103604861D01*
X120372376Y-103604861D01*
X120372377Y-103604862D01*
X120387464Y-103611111D01*
X120506291Y-103660330D01*
X120633280Y-103677048D01*
X120649999Y-103679250D01*
X120650000Y-103679250D01*
X120650001Y-103679250D01*
X120664977Y-103677278D01*
X120793709Y-103660330D01*
X120927625Y-103604861D01*
X121042621Y-103516621D01*
X121130861Y-103401625D01*
X121186330Y-103267709D01*
X121205250Y-103124000D01*
X121205028Y-103122317D01*
X121202374Y-103102155D01*
X121186330Y-102980291D01*
X121130861Y-102846375D01*
X121042621Y-102731379D01*
X120927625Y-102643139D01*
X120927624Y-102643138D01*
X120927622Y-102643137D01*
X120793712Y-102587671D01*
X120793710Y-102587670D01*
X120793709Y-102587670D01*
X120721854Y-102578210D01*
X120650001Y-102568750D01*
X120649999Y-102568750D01*
X120506291Y-102587670D01*
X120506287Y-102587671D01*
X120372377Y-102643137D01*
X120257379Y-102731379D01*
X120169137Y-102846377D01*
X120113671Y-102980287D01*
X120113670Y-102980291D01*
X120094750Y-103123999D01*
X106047487Y-103123999D01*
X106183189Y-102978698D01*
X106348901Y-102743936D01*
X106481104Y-102488797D01*
X106577334Y-102218032D01*
X106635798Y-101936686D01*
X106649252Y-101739999D01*
X107784750Y-101739999D01*
X107784750Y-101740000D01*
X107803670Y-101883708D01*
X107803671Y-101883712D01*
X107859137Y-102017622D01*
X107859138Y-102017624D01*
X107859139Y-102017625D01*
X107947379Y-102132621D01*
X108062375Y-102220861D01*
X108196291Y-102276330D01*
X108323280Y-102293048D01*
X108339999Y-102295250D01*
X108340000Y-102295250D01*
X108340001Y-102295250D01*
X108354977Y-102293278D01*
X108483709Y-102276330D01*
X108617625Y-102220861D01*
X108732621Y-102132621D01*
X108820861Y-102017625D01*
X108876330Y-101883709D01*
X108895250Y-101740000D01*
X108883401Y-101650000D01*
X123944592Y-101650000D01*
X123964201Y-101936680D01*
X124022666Y-102218034D01*
X124022667Y-102218037D01*
X124118894Y-102488793D01*
X124118893Y-102488793D01*
X124251098Y-102743935D01*
X124416812Y-102978700D01*
X124501923Y-103069831D01*
X124612947Y-103188708D01*
X124835853Y-103370055D01*
X125076869Y-103516621D01*
X125081382Y-103519365D01*
X125257915Y-103596043D01*
X125344942Y-103633844D01*
X125621642Y-103711371D01*
X125871920Y-103745771D01*
X125906321Y-103750500D01*
X125906322Y-103750500D01*
X126193679Y-103750500D01*
X126224370Y-103746281D01*
X126478358Y-103711371D01*
X126755058Y-103633844D01*
X126868015Y-103584779D01*
X127018617Y-103519365D01*
X127018620Y-103519363D01*
X127018625Y-103519361D01*
X127264147Y-103370055D01*
X127487053Y-103188708D01*
X127567888Y-103102155D01*
X139470000Y-103102155D01*
X139470000Y-103750000D01*
X140386988Y-103750000D01*
X140354075Y-103807007D01*
X140320000Y-103934174D01*
X140320000Y-104065826D01*
X140354075Y-104192993D01*
X140386988Y-104250000D01*
X139470000Y-104250000D01*
X139470000Y-104897844D01*
X139476401Y-104957372D01*
X139476403Y-104957379D01*
X139526645Y-105092086D01*
X139526649Y-105092093D01*
X139612809Y-105207187D01*
X139612812Y-105207190D01*
X139727906Y-105293350D01*
X139727913Y-105293354D01*
X139862620Y-105343596D01*
X139862627Y-105343598D01*
X139922155Y-105349999D01*
X139922172Y-105350000D01*
X140570000Y-105350000D01*
X140570000Y-104433012D01*
X140627007Y-104465925D01*
X140754174Y-104500000D01*
X140885826Y-104500000D01*
X141012993Y-104465925D01*
X141070000Y-104433012D01*
X141070000Y-105350000D01*
X141717828Y-105350000D01*
X141717844Y-105349999D01*
X141777372Y-105343598D01*
X141777379Y-105343596D01*
X141912086Y-105293354D01*
X141912093Y-105293350D01*
X142027187Y-105207190D01*
X142027190Y-105207187D01*
X142113350Y-105092093D01*
X142113354Y-105092086D01*
X142163596Y-104957379D01*
X142163598Y-104957372D01*
X142169999Y-104897844D01*
X142170000Y-104897827D01*
X142170000Y-104497186D01*
X142189685Y-104430147D01*
X142242489Y-104384392D01*
X142311647Y-104374448D01*
X142375203Y-104403473D01*
X142403356Y-104438729D01*
X142482315Y-104586450D01*
X142482317Y-104586452D01*
X142613589Y-104746410D01*
X142710209Y-104825702D01*
X142773550Y-104877685D01*
X142956046Y-104975232D01*
X143154066Y-105035300D01*
X143154065Y-105035300D01*
X143172529Y-105037118D01*
X143360000Y-105055583D01*
X143565934Y-105035300D01*
X143763954Y-104975232D01*
X143946450Y-104877685D01*
X144106410Y-104746410D01*
X144237685Y-104586450D01*
X144335232Y-104403954D01*
X144395300Y-104205934D01*
X144415583Y-104000000D01*
X144844417Y-104000000D01*
X144864699Y-104205932D01*
X144864700Y-104205934D01*
X144924768Y-104403954D01*
X145022315Y-104586450D01*
X145022317Y-104586452D01*
X145153589Y-104746410D01*
X145250209Y-104825702D01*
X145313550Y-104877685D01*
X145496046Y-104975232D01*
X145694066Y-105035300D01*
X145694065Y-105035300D01*
X145712529Y-105037118D01*
X145900000Y-105055583D01*
X146105934Y-105035300D01*
X146303954Y-104975232D01*
X146486450Y-104877685D01*
X146646410Y-104746410D01*
X146777685Y-104586450D01*
X146875232Y-104403954D01*
X146935300Y-104205934D01*
X146955583Y-104000000D01*
X147384417Y-104000000D01*
X147404699Y-104205932D01*
X147404700Y-104205934D01*
X147464768Y-104403954D01*
X147562315Y-104586450D01*
X147562317Y-104586452D01*
X147693589Y-104746410D01*
X147790209Y-104825702D01*
X147853550Y-104877685D01*
X148036046Y-104975232D01*
X148234066Y-105035300D01*
X148234065Y-105035300D01*
X148252529Y-105037118D01*
X148440000Y-105055583D01*
X148645934Y-105035300D01*
X148843954Y-104975232D01*
X149026450Y-104877685D01*
X149186410Y-104746410D01*
X149317685Y-104586450D01*
X149415232Y-104403954D01*
X149475300Y-104205934D01*
X149495583Y-104000000D01*
X149475300Y-103794066D01*
X149415232Y-103596046D01*
X149317685Y-103413550D01*
X149198000Y-103267712D01*
X149186410Y-103253589D01*
X149026452Y-103122317D01*
X149026453Y-103122317D01*
X149026450Y-103122315D01*
X148843954Y-103024768D01*
X148645934Y-102964700D01*
X148645932Y-102964699D01*
X148645934Y-102964699D01*
X148440000Y-102944417D01*
X148234067Y-102964699D01*
X148036043Y-103024769D01*
X148002634Y-103042627D01*
X147853550Y-103122315D01*
X147853548Y-103122316D01*
X147853547Y-103122317D01*
X147693589Y-103253589D01*
X147562317Y-103413547D01*
X147464769Y-103596043D01*
X147464768Y-103596045D01*
X147464768Y-103596046D01*
X147460198Y-103611111D01*
X147404699Y-103794067D01*
X147384417Y-104000000D01*
X146955583Y-104000000D01*
X146935300Y-103794066D01*
X146875232Y-103596046D01*
X146777685Y-103413550D01*
X146658000Y-103267712D01*
X146646410Y-103253589D01*
X146486452Y-103122317D01*
X146486453Y-103122317D01*
X146486450Y-103122315D01*
X146303954Y-103024768D01*
X146105934Y-102964700D01*
X146105932Y-102964699D01*
X146105934Y-102964699D01*
X145900000Y-102944417D01*
X145694067Y-102964699D01*
X145496043Y-103024769D01*
X145462634Y-103042627D01*
X145313550Y-103122315D01*
X145313548Y-103122316D01*
X145313547Y-103122317D01*
X145153589Y-103253589D01*
X145022317Y-103413547D01*
X144924769Y-103596043D01*
X144924768Y-103596045D01*
X144924768Y-103596046D01*
X144920198Y-103611111D01*
X144864699Y-103794067D01*
X144844417Y-104000000D01*
X144415583Y-104000000D01*
X144395300Y-103794066D01*
X144335232Y-103596046D01*
X144237685Y-103413550D01*
X144118000Y-103267712D01*
X144106410Y-103253589D01*
X143946452Y-103122317D01*
X143946453Y-103122317D01*
X143946450Y-103122315D01*
X143763954Y-103024768D01*
X143565934Y-102964700D01*
X143565932Y-102964699D01*
X143565934Y-102964699D01*
X143360000Y-102944417D01*
X143154067Y-102964699D01*
X142956043Y-103024769D01*
X142922634Y-103042627D01*
X142773550Y-103122315D01*
X142773548Y-103122316D01*
X142773547Y-103122317D01*
X142613589Y-103253589D01*
X142482317Y-103413547D01*
X142482315Y-103413550D01*
X142410887Y-103547181D01*
X142403358Y-103561267D01*
X142354395Y-103611111D01*
X142286257Y-103626571D01*
X142220578Y-103602739D01*
X142178209Y-103547181D01*
X142170000Y-103502813D01*
X142170000Y-103102172D01*
X142169999Y-103102155D01*
X142163598Y-103042627D01*
X142163596Y-103042620D01*
X142113354Y-102907913D01*
X142113350Y-102907906D01*
X142027190Y-102792812D01*
X142027187Y-102792809D01*
X141912093Y-102706649D01*
X141912086Y-102706645D01*
X141777379Y-102656403D01*
X141777372Y-102656401D01*
X141717844Y-102650000D01*
X141070000Y-102650000D01*
X141070000Y-103566988D01*
X141012993Y-103534075D01*
X140885826Y-103500000D01*
X140754174Y-103500000D01*
X140627007Y-103534075D01*
X140570000Y-103566988D01*
X140570000Y-102650000D01*
X139922155Y-102650000D01*
X139862627Y-102656401D01*
X139862620Y-102656403D01*
X139727913Y-102706645D01*
X139727906Y-102706649D01*
X139612812Y-102792809D01*
X139612809Y-102792812D01*
X139526649Y-102907906D01*
X139526645Y-102907913D01*
X139476403Y-103042620D01*
X139476401Y-103042627D01*
X139470000Y-103102155D01*
X127567888Y-103102155D01*
X127683189Y-102978698D01*
X127848901Y-102743936D01*
X127981104Y-102488797D01*
X128077334Y-102218032D01*
X128135798Y-101936686D01*
X128155408Y-101650000D01*
X128135798Y-101363314D01*
X128077334Y-101081968D01*
X127981105Y-100811206D01*
X127981106Y-100811206D01*
X127848901Y-100556064D01*
X127683187Y-100321299D01*
X127595451Y-100227358D01*
X127487053Y-100111292D01*
X127264147Y-99929945D01*
X127264146Y-99929944D01*
X127018617Y-99780634D01*
X126755063Y-99666158D01*
X126755061Y-99666157D01*
X126755058Y-99666156D01*
X126625578Y-99629877D01*
X126478364Y-99588630D01*
X126478359Y-99588629D01*
X126478358Y-99588629D01*
X126336018Y-99569064D01*
X126193679Y-99549500D01*
X126193678Y-99549500D01*
X125906322Y-99549500D01*
X125906321Y-99549500D01*
X125621642Y-99588629D01*
X125621635Y-99588630D01*
X125413861Y-99646845D01*
X125344942Y-99666156D01*
X125344939Y-99666156D01*
X125344936Y-99666158D01*
X125344935Y-99666158D01*
X125081382Y-99780634D01*
X124835853Y-99929944D01*
X124612950Y-100111289D01*
X124416812Y-100321299D01*
X124251098Y-100556064D01*
X124118894Y-100811206D01*
X124022667Y-101081962D01*
X124022666Y-101081965D01*
X123964201Y-101363319D01*
X123944592Y-101650000D01*
X108883401Y-101650000D01*
X108876330Y-101596291D01*
X108820861Y-101462375D01*
X108732621Y-101347379D01*
X108617625Y-101259139D01*
X108617624Y-101259138D01*
X108617622Y-101259137D01*
X108483712Y-101203671D01*
X108483710Y-101203670D01*
X108483709Y-101203670D01*
X108411854Y-101194210D01*
X108340001Y-101184750D01*
X108339999Y-101184750D01*
X108196291Y-101203670D01*
X108196287Y-101203671D01*
X108062377Y-101259137D01*
X107947379Y-101347379D01*
X107859137Y-101462377D01*
X107803671Y-101596287D01*
X107803670Y-101596291D01*
X107784750Y-101739999D01*
X106649252Y-101739999D01*
X106655408Y-101650000D01*
X106635798Y-101363314D01*
X106577334Y-101081968D01*
X106481105Y-100811206D01*
X106481106Y-100811206D01*
X106348901Y-100556064D01*
X106183187Y-100321299D01*
X106095451Y-100227358D01*
X105987053Y-100111292D01*
X105764147Y-99929945D01*
X105764146Y-99929944D01*
X105518617Y-99780634D01*
X105255063Y-99666158D01*
X105255061Y-99666157D01*
X105255058Y-99666156D01*
X105125578Y-99629877D01*
X104978364Y-99588630D01*
X104978359Y-99588629D01*
X104978358Y-99588629D01*
X104836018Y-99569064D01*
X104693679Y-99549500D01*
X104693678Y-99549500D01*
X104406322Y-99549500D01*
X104406321Y-99549500D01*
X104121642Y-99588629D01*
X104121635Y-99588630D01*
X103913861Y-99646845D01*
X103844942Y-99666156D01*
X103844939Y-99666156D01*
X103844936Y-99666158D01*
X103844935Y-99666158D01*
X103581382Y-99780634D01*
X103335853Y-99929944D01*
X103112950Y-100111289D01*
X102916812Y-100321299D01*
X102751098Y-100556064D01*
X102618894Y-100811206D01*
X102522667Y-101081962D01*
X102522666Y-101081965D01*
X102464201Y-101363319D01*
X102444592Y-101650000D01*
X89500000Y-101650000D01*
X89500000Y-100564288D01*
X89519685Y-100497249D01*
X89572489Y-100451494D01*
X89641647Y-100441550D01*
X89705203Y-100470575D01*
X89711681Y-100476607D01*
X89780660Y-100545586D01*
X89780664Y-100545589D01*
X89952631Y-100660494D01*
X89952641Y-100660499D01*
X90143725Y-100739649D01*
X90143733Y-100739651D01*
X90346579Y-100779999D01*
X90346583Y-100780000D01*
X90700000Y-100780000D01*
X90700000Y-100030000D01*
X91200000Y-100030000D01*
X91200000Y-100780000D01*
X91553417Y-100780000D01*
X91553420Y-100779999D01*
X91756266Y-100739651D01*
X91756274Y-100739649D01*
X91947358Y-100660499D01*
X91947368Y-100660494D01*
X92119335Y-100545589D01*
X92119339Y-100545586D01*
X92265586Y-100399339D01*
X92265589Y-100399335D01*
X92380494Y-100227368D01*
X92380499Y-100227358D01*
X92459648Y-100036276D01*
X92459649Y-100036274D01*
X92470843Y-99980000D01*
X91616988Y-99980000D01*
X91634205Y-99970060D01*
X91690060Y-99914205D01*
X91729556Y-99845796D01*
X91750000Y-99769496D01*
X91750000Y-99690504D01*
X91729556Y-99614204D01*
X91690060Y-99545795D01*
X91634205Y-99489940D01*
X91616988Y-99480000D01*
X92470843Y-99480000D01*
X92459649Y-99423725D01*
X92459648Y-99423723D01*
X92380499Y-99232641D01*
X92380494Y-99232631D01*
X92265589Y-99060664D01*
X92265586Y-99060660D01*
X92146607Y-98941681D01*
X92113122Y-98880358D01*
X92118106Y-98810666D01*
X92159978Y-98754733D01*
X92225442Y-98730316D01*
X92234288Y-98730000D01*
X93865712Y-98730000D01*
X93932751Y-98749685D01*
X93978506Y-98802489D01*
X93988450Y-98871647D01*
X93959425Y-98935203D01*
X93953393Y-98941681D01*
X93834413Y-99060660D01*
X93834410Y-99060664D01*
X93719505Y-99232631D01*
X93719500Y-99232641D01*
X93640351Y-99423723D01*
X93640350Y-99423725D01*
X93629157Y-99480000D01*
X94483012Y-99480000D01*
X94465795Y-99489940D01*
X94409940Y-99545795D01*
X94370444Y-99614204D01*
X94350000Y-99690504D01*
X94350000Y-99769496D01*
X94370444Y-99845796D01*
X94409940Y-99914205D01*
X94465795Y-99970060D01*
X94483012Y-99980000D01*
X93629157Y-99980000D01*
X93640350Y-100036274D01*
X93640351Y-100036276D01*
X93719500Y-100227358D01*
X93719505Y-100227368D01*
X93834410Y-100399335D01*
X93834413Y-100399339D01*
X93980660Y-100545586D01*
X93980664Y-100545589D01*
X94152631Y-100660494D01*
X94152641Y-100660499D01*
X94343725Y-100739649D01*
X94343733Y-100739651D01*
X94546579Y-100779999D01*
X94546583Y-100780000D01*
X94700000Y-100780000D01*
X94700000Y-100030000D01*
X95200000Y-100030000D01*
X95200000Y-100780000D01*
X95353417Y-100780000D01*
X95353420Y-100779999D01*
X95556266Y-100739651D01*
X95556274Y-100739649D01*
X95747358Y-100660499D01*
X95747368Y-100660494D01*
X95919335Y-100545589D01*
X95919339Y-100545586D01*
X96065586Y-100399339D01*
X96065589Y-100399335D01*
X96180494Y-100227368D01*
X96180499Y-100227358D01*
X96259648Y-100036276D01*
X96259649Y-100036274D01*
X96270843Y-99980000D01*
X95416988Y-99980000D01*
X95434205Y-99970060D01*
X95490060Y-99914205D01*
X95529556Y-99845796D01*
X95550000Y-99769496D01*
X95550000Y-99690504D01*
X95529556Y-99614204D01*
X95490060Y-99545795D01*
X95434205Y-99489940D01*
X95416988Y-99480000D01*
X96270843Y-99480000D01*
X96259649Y-99423725D01*
X96259648Y-99423723D01*
X96180499Y-99232641D01*
X96180494Y-99232631D01*
X96065589Y-99060664D01*
X96065586Y-99060660D01*
X95919339Y-98914413D01*
X95919335Y-98914410D01*
X95747368Y-98799505D01*
X95747358Y-98799500D01*
X95556274Y-98720350D01*
X95556266Y-98720348D01*
X95473077Y-98703801D01*
X95411166Y-98671417D01*
X95376592Y-98610701D01*
X95380331Y-98540932D01*
X95388082Y-98523411D01*
X95388162Y-98523263D01*
X95402698Y-98416047D01*
X95378638Y-98310559D01*
X95378638Y-98310558D01*
X95319049Y-98220249D01*
X95231531Y-98156636D01*
X95231524Y-98156633D01*
X95185905Y-98141906D01*
X95128155Y-98102578D01*
X95100835Y-98038271D01*
X95100000Y-98023903D01*
X95100000Y-95435000D01*
X98429750Y-95435000D01*
X98438241Y-95499498D01*
X98448670Y-95578708D01*
X98448671Y-95578712D01*
X98504137Y-95712622D01*
X98504138Y-95712624D01*
X98504139Y-95712625D01*
X98592379Y-95827621D01*
X98707375Y-95915861D01*
X98841291Y-95971330D01*
X98968280Y-95988048D01*
X98984999Y-95990250D01*
X98985000Y-95990250D01*
X98985001Y-95990250D01*
X98999977Y-95988278D01*
X99128709Y-95971330D01*
X99262625Y-95915861D01*
X99377621Y-95827621D01*
X99465861Y-95712625D01*
X99521330Y-95578709D01*
X99522344Y-95571004D01*
X99550605Y-95507106D01*
X99557604Y-95499498D01*
X99660486Y-95396617D01*
X99660486Y-95396616D01*
X99660489Y-95396614D01*
X99719798Y-95293887D01*
X99719799Y-95293886D01*
X99750500Y-95179309D01*
X99750500Y-94900000D01*
X109194592Y-94900000D01*
X109214201Y-95186680D01*
X109272666Y-95468034D01*
X109272667Y-95468037D01*
X109368894Y-95738793D01*
X109368893Y-95738793D01*
X109501098Y-95993935D01*
X109666812Y-96228700D01*
X109751923Y-96319831D01*
X109862947Y-96438708D01*
X110085853Y-96620055D01*
X110331382Y-96769365D01*
X110518237Y-96850526D01*
X110594942Y-96883844D01*
X110871642Y-96961371D01*
X111121920Y-96995771D01*
X111156321Y-97000500D01*
X111156322Y-97000500D01*
X111443679Y-97000500D01*
X111474370Y-96996281D01*
X111728358Y-96961371D01*
X112005058Y-96883844D01*
X112118015Y-96834779D01*
X112268617Y-96769365D01*
X112268620Y-96769363D01*
X112268625Y-96769361D01*
X112514147Y-96620055D01*
X112737053Y-96438708D01*
X112933189Y-96228698D01*
X113098901Y-95993936D01*
X113231104Y-95738797D01*
X113327334Y-95468032D01*
X113385798Y-95186686D01*
X113405408Y-94900000D01*
X117194592Y-94900000D01*
X117214201Y-95186680D01*
X117272666Y-95468034D01*
X117272667Y-95468037D01*
X117368894Y-95738793D01*
X117368893Y-95738793D01*
X117501098Y-95993935D01*
X117666812Y-96228700D01*
X117751923Y-96319831D01*
X117862947Y-96438708D01*
X118085853Y-96620055D01*
X118331382Y-96769365D01*
X118518237Y-96850526D01*
X118594942Y-96883844D01*
X118871642Y-96961371D01*
X119121920Y-96995771D01*
X119156321Y-97000500D01*
X119156322Y-97000500D01*
X119443679Y-97000500D01*
X119474370Y-96996281D01*
X119728358Y-96961371D01*
X120005058Y-96883844D01*
X120118015Y-96834779D01*
X120268617Y-96769365D01*
X120268620Y-96769363D01*
X120268625Y-96769361D01*
X120514147Y-96620055D01*
X120737053Y-96438708D01*
X120933189Y-96228698D01*
X121098901Y-95993936D01*
X121231104Y-95738797D01*
X121327334Y-95468032D01*
X121385798Y-95186686D01*
X121405408Y-94900000D01*
X121385798Y-94613314D01*
X121327334Y-94331968D01*
X121292516Y-94233999D01*
X125682750Y-94233999D01*
X125682750Y-94234000D01*
X125701670Y-94377708D01*
X125701671Y-94377712D01*
X125757137Y-94511622D01*
X125757138Y-94511624D01*
X125757139Y-94511625D01*
X125845379Y-94626621D01*
X125960375Y-94714861D01*
X126094291Y-94770330D01*
X126221280Y-94787048D01*
X126237999Y-94789250D01*
X126238000Y-94789250D01*
X126238001Y-94789250D01*
X126252977Y-94787278D01*
X126381709Y-94770330D01*
X126515625Y-94714861D01*
X126630621Y-94626621D01*
X126718861Y-94511625D01*
X126774330Y-94377709D01*
X126793250Y-94234000D01*
X126774330Y-94090291D01*
X126718861Y-93956375D01*
X126630621Y-93841379D01*
X126515625Y-93753139D01*
X126515624Y-93753138D01*
X126515622Y-93753137D01*
X126381712Y-93697671D01*
X126381710Y-93697670D01*
X126381709Y-93697670D01*
X126309854Y-93688210D01*
X126238001Y-93678750D01*
X126237999Y-93678750D01*
X126094291Y-93697670D01*
X126094287Y-93697671D01*
X125960377Y-93753137D01*
X125845379Y-93841379D01*
X125757137Y-93956377D01*
X125701671Y-94090287D01*
X125701670Y-94090291D01*
X125682750Y-94233999D01*
X121292516Y-94233999D01*
X121231105Y-94061206D01*
X121231106Y-94061206D01*
X121098901Y-93806064D01*
X120933187Y-93571299D01*
X120854554Y-93487105D01*
X120737053Y-93361292D01*
X120514147Y-93179945D01*
X120514146Y-93179944D01*
X120268617Y-93030634D01*
X120005063Y-92916158D01*
X120005061Y-92916157D01*
X120005058Y-92916156D01*
X119875578Y-92879877D01*
X119728364Y-92838630D01*
X119728359Y-92838629D01*
X119728358Y-92838629D01*
X119586018Y-92819064D01*
X119443679Y-92799500D01*
X119443678Y-92799500D01*
X119156322Y-92799500D01*
X119156321Y-92799500D01*
X118871642Y-92838629D01*
X118871635Y-92838630D01*
X118663861Y-92896845D01*
X118594942Y-92916156D01*
X118594939Y-92916156D01*
X118594936Y-92916158D01*
X118594935Y-92916158D01*
X118331382Y-93030634D01*
X118085853Y-93179944D01*
X117862950Y-93361289D01*
X117666812Y-93571299D01*
X117501098Y-93806064D01*
X117368894Y-94061206D01*
X117272667Y-94331962D01*
X117272666Y-94331965D01*
X117214201Y-94613319D01*
X117194592Y-94900000D01*
X113405408Y-94900000D01*
X113385798Y-94613314D01*
X113327334Y-94331968D01*
X113231105Y-94061206D01*
X113231106Y-94061206D01*
X113098901Y-93806064D01*
X112933187Y-93571299D01*
X112854554Y-93487105D01*
X112737053Y-93361292D01*
X112514147Y-93179945D01*
X112514146Y-93179944D01*
X112268617Y-93030634D01*
X112005063Y-92916158D01*
X112005061Y-92916157D01*
X112005058Y-92916156D01*
X111875578Y-92879877D01*
X111728364Y-92838630D01*
X111728359Y-92838629D01*
X111728358Y-92838629D01*
X111586018Y-92819064D01*
X111443679Y-92799500D01*
X111443678Y-92799500D01*
X111156322Y-92799500D01*
X111156321Y-92799500D01*
X110871642Y-92838629D01*
X110871635Y-92838630D01*
X110663861Y-92896845D01*
X110594942Y-92916156D01*
X110594939Y-92916156D01*
X110594936Y-92916158D01*
X110594935Y-92916158D01*
X110331382Y-93030634D01*
X110085853Y-93179944D01*
X109862950Y-93361289D01*
X109666812Y-93571299D01*
X109501098Y-93806064D01*
X109368894Y-94061206D01*
X109272667Y-94331962D01*
X109272666Y-94331965D01*
X109214201Y-94613319D01*
X109194592Y-94900000D01*
X99750500Y-94900000D01*
X99750500Y-92384284D01*
X99770185Y-92317245D01*
X99776116Y-92308808D01*
X99780861Y-92302625D01*
X99836330Y-92168709D01*
X99855250Y-92025000D01*
X99836330Y-91881291D01*
X99780861Y-91747375D01*
X99692621Y-91632379D01*
X99577625Y-91544139D01*
X99577624Y-91544138D01*
X99577622Y-91544137D01*
X99443712Y-91488671D01*
X99443710Y-91488670D01*
X99443709Y-91488670D01*
X99371854Y-91479210D01*
X99300001Y-91469750D01*
X99299999Y-91469750D01*
X99156291Y-91488670D01*
X99156287Y-91488671D01*
X99022377Y-91544137D01*
X98907379Y-91632379D01*
X98819137Y-91747377D01*
X98763671Y-91881287D01*
X98763670Y-91881291D01*
X98744750Y-92024999D01*
X98744750Y-92025000D01*
X98763670Y-92168708D01*
X98763671Y-92168712D01*
X98819137Y-92302622D01*
X98819138Y-92302624D01*
X98819139Y-92302625D01*
X98823875Y-92308798D01*
X98849070Y-92373965D01*
X98849500Y-92384284D01*
X98849500Y-94812415D01*
X98829815Y-94879454D01*
X98777011Y-94925209D01*
X98772952Y-94926976D01*
X98707378Y-94954137D01*
X98592379Y-95042379D01*
X98504137Y-95157377D01*
X98448671Y-95291287D01*
X98448670Y-95291291D01*
X98434804Y-95396615D01*
X98429750Y-95435000D01*
X95100000Y-95435000D01*
X95100000Y-90196102D01*
X95119685Y-90129063D01*
X95172489Y-90083308D01*
X95186000Y-90078068D01*
X95231550Y-90063407D01*
X95319083Y-89999782D01*
X95378681Y-89909459D01*
X95402745Y-89803955D01*
X95388206Y-89696722D01*
X95388128Y-89696577D01*
X95388069Y-89696301D01*
X95384756Y-89686105D01*
X95385841Y-89685752D01*
X95373687Y-89628216D01*
X95398498Y-89562899D01*
X95454683Y-89521366D01*
X95473126Y-89516188D01*
X95556274Y-89499649D01*
X95747358Y-89420499D01*
X95747368Y-89420494D01*
X95919335Y-89305589D01*
X95919339Y-89305586D01*
X96065586Y-89159339D01*
X96065589Y-89159335D01*
X96180494Y-88987368D01*
X96180499Y-88987358D01*
X96259648Y-88796276D01*
X96259649Y-88796274D01*
X96270843Y-88740000D01*
X95416988Y-88740000D01*
X95434205Y-88730060D01*
X95490060Y-88674205D01*
X95529556Y-88605796D01*
X95550000Y-88529496D01*
X95550000Y-88450504D01*
X95529556Y-88374204D01*
X95490060Y-88305795D01*
X95434205Y-88249940D01*
X95416988Y-88240000D01*
X96270843Y-88240000D01*
X96259649Y-88183725D01*
X96259648Y-88183723D01*
X96245679Y-88150000D01*
X102444592Y-88150000D01*
X102464201Y-88436680D01*
X102464201Y-88436684D01*
X102464202Y-88436686D01*
X102467256Y-88451383D01*
X102522666Y-88718034D01*
X102522667Y-88718037D01*
X102618894Y-88988793D01*
X102618893Y-88988793D01*
X102751098Y-89243935D01*
X102916812Y-89478700D01*
X102995449Y-89562899D01*
X103112947Y-89688708D01*
X103335853Y-89870055D01*
X103577474Y-90016989D01*
X103581382Y-90019365D01*
X103716532Y-90078068D01*
X103844942Y-90133844D01*
X104121642Y-90211371D01*
X104371920Y-90245771D01*
X104406321Y-90250500D01*
X104406322Y-90250500D01*
X104693679Y-90250500D01*
X104724370Y-90246281D01*
X104978358Y-90211371D01*
X105255058Y-90133844D01*
X105417221Y-90063407D01*
X105518617Y-90019365D01*
X105518620Y-90019363D01*
X105518625Y-90019361D01*
X105764147Y-89870055D01*
X105987053Y-89688708D01*
X106183189Y-89478698D01*
X106348901Y-89243936D01*
X106481104Y-88988797D01*
X106577334Y-88718032D01*
X106635798Y-88436686D01*
X106655408Y-88150000D01*
X106655408Y-88149994D01*
X123645255Y-88149994D01*
X123645255Y-88150005D01*
X123664215Y-88451383D01*
X123664216Y-88451390D01*
X123720805Y-88748040D01*
X123814125Y-89035247D01*
X123814127Y-89035252D01*
X123942704Y-89308491D01*
X123942707Y-89308497D01*
X124104516Y-89563469D01*
X124185311Y-89661133D01*
X124898932Y-88947512D01*
X124982140Y-89062039D01*
X125137961Y-89217860D01*
X125252485Y-89301066D01*
X124536564Y-90016987D01*
X124536565Y-90016989D01*
X124761461Y-90180385D01*
X124761479Y-90180397D01*
X125026109Y-90325878D01*
X125026117Y-90325882D01*
X125306889Y-90437047D01*
X125306892Y-90437048D01*
X125599399Y-90512150D01*
X125898995Y-90549999D01*
X125899007Y-90550000D01*
X126200993Y-90550000D01*
X126201004Y-90549999D01*
X126500600Y-90512150D01*
X126793107Y-90437048D01*
X126793110Y-90437047D01*
X127073882Y-90325882D01*
X127073890Y-90325878D01*
X127338520Y-90180397D01*
X127338530Y-90180390D01*
X127563433Y-90016987D01*
X127563434Y-90016987D01*
X126847514Y-89301066D01*
X126962039Y-89217860D01*
X127117860Y-89062039D01*
X127201067Y-88947514D01*
X127914687Y-89661134D01*
X127995486Y-89563464D01*
X128157292Y-89308497D01*
X128157295Y-89308491D01*
X128285872Y-89035252D01*
X128285874Y-89035247D01*
X128379194Y-88748040D01*
X128435783Y-88451390D01*
X128435784Y-88451383D01*
X128439520Y-88392000D01*
X137366750Y-88392000D01*
X137378050Y-88477834D01*
X137385670Y-88535708D01*
X137385671Y-88535712D01*
X137441137Y-88669622D01*
X137441138Y-88669624D01*
X137441139Y-88669625D01*
X137529379Y-88784621D01*
X137644375Y-88872861D01*
X137778291Y-88928330D01*
X137905280Y-88945048D01*
X137921999Y-88947250D01*
X137922000Y-88947250D01*
X137922001Y-88947250D01*
X137936977Y-88945278D01*
X138065709Y-88928330D01*
X138199625Y-88872861D01*
X138314621Y-88784621D01*
X138402861Y-88669625D01*
X138458330Y-88535709D01*
X138477250Y-88392000D01*
X138458330Y-88248291D01*
X138402861Y-88114375D01*
X138314621Y-87999379D01*
X138199625Y-87911139D01*
X138199624Y-87911138D01*
X138199622Y-87911137D01*
X138065712Y-87855671D01*
X138065710Y-87855670D01*
X138065709Y-87855670D01*
X137993854Y-87846210D01*
X137922001Y-87836750D01*
X137921999Y-87836750D01*
X137778291Y-87855670D01*
X137778287Y-87855671D01*
X137644377Y-87911137D01*
X137529379Y-87999379D01*
X137441137Y-88114377D01*
X137385671Y-88248287D01*
X137385670Y-88248291D01*
X137380149Y-88290230D01*
X137366750Y-88392000D01*
X128439520Y-88392000D01*
X128454745Y-88150005D01*
X128454745Y-88149994D01*
X128435784Y-87848616D01*
X128435783Y-87848609D01*
X128379194Y-87551959D01*
X128302201Y-87315000D01*
X149444417Y-87315000D01*
X149464699Y-87520932D01*
X149476400Y-87559505D01*
X149524768Y-87718954D01*
X149622315Y-87901450D01*
X149622317Y-87901452D01*
X149753589Y-88061410D01*
X149818128Y-88114375D01*
X149913550Y-88192685D01*
X150096046Y-88290232D01*
X150294066Y-88350300D01*
X150294065Y-88350300D01*
X150312529Y-88352118D01*
X150500000Y-88370583D01*
X150705934Y-88350300D01*
X150903954Y-88290232D01*
X151086450Y-88192685D01*
X151246410Y-88061410D01*
X151377685Y-87901450D01*
X151475232Y-87718954D01*
X151535300Y-87520934D01*
X151555583Y-87315000D01*
X151535300Y-87109066D01*
X151475232Y-86911046D01*
X151377685Y-86728550D01*
X151304082Y-86638864D01*
X151246410Y-86568589D01*
X151086452Y-86437317D01*
X151086453Y-86437317D01*
X151086450Y-86437315D01*
X150903954Y-86339768D01*
X150705934Y-86279700D01*
X150705932Y-86279699D01*
X150705934Y-86279699D01*
X150500000Y-86259417D01*
X150294067Y-86279699D01*
X150096043Y-86339769D01*
X149985898Y-86398643D01*
X149913550Y-86437315D01*
X149913548Y-86437316D01*
X149913547Y-86437317D01*
X149753589Y-86568589D01*
X149622317Y-86728547D01*
X149622315Y-86728550D01*
X149618051Y-86736528D01*
X149524769Y-86911043D01*
X149464699Y-87109067D01*
X149444417Y-87315000D01*
X128302201Y-87315000D01*
X128285874Y-87264752D01*
X128285872Y-87264747D01*
X128157295Y-86991508D01*
X128157292Y-86991502D01*
X127995483Y-86736530D01*
X127914686Y-86638864D01*
X127201066Y-87352484D01*
X127117860Y-87237961D01*
X126962039Y-87082140D01*
X126847513Y-86998932D01*
X127563434Y-86283011D01*
X127563433Y-86283009D01*
X127338538Y-86119614D01*
X127338520Y-86119602D01*
X127073890Y-85974121D01*
X127073882Y-85974117D01*
X126793110Y-85862952D01*
X126793107Y-85862951D01*
X126500600Y-85787849D01*
X126201004Y-85750000D01*
X125898995Y-85750000D01*
X125599399Y-85787849D01*
X125306892Y-85862951D01*
X125306889Y-85862952D01*
X125026117Y-85974117D01*
X125026109Y-85974121D01*
X124761476Y-86119604D01*
X124761471Y-86119607D01*
X124536565Y-86283010D01*
X124536564Y-86283011D01*
X125252486Y-86998932D01*
X125137961Y-87082140D01*
X124982140Y-87237961D01*
X124898932Y-87352485D01*
X124185311Y-86638864D01*
X124104520Y-86736525D01*
X124104518Y-86736528D01*
X123942707Y-86991502D01*
X123942704Y-86991508D01*
X123814127Y-87264747D01*
X123814125Y-87264752D01*
X123720805Y-87551959D01*
X123664216Y-87848609D01*
X123664215Y-87848616D01*
X123645255Y-88149994D01*
X106655408Y-88149994D01*
X106635798Y-87863314D01*
X106577334Y-87581968D01*
X106555642Y-87520934D01*
X106481105Y-87311206D01*
X106481106Y-87311206D01*
X106348901Y-87056064D01*
X106183187Y-86821299D01*
X106104013Y-86736525D01*
X105987053Y-86611292D01*
X105858452Y-86506667D01*
X105764146Y-86429944D01*
X105518617Y-86280634D01*
X105255063Y-86166158D01*
X105255061Y-86166157D01*
X105255058Y-86166156D01*
X105125578Y-86129877D01*
X104978364Y-86088630D01*
X104978359Y-86088629D01*
X104978358Y-86088629D01*
X104836018Y-86069064D01*
X104693679Y-86049500D01*
X104693678Y-86049500D01*
X104406322Y-86049500D01*
X104406321Y-86049500D01*
X104121642Y-86088629D01*
X104121635Y-86088630D01*
X103913861Y-86146845D01*
X103844942Y-86166156D01*
X103844939Y-86166156D01*
X103844936Y-86166158D01*
X103844935Y-86166158D01*
X103581382Y-86280634D01*
X103335853Y-86429944D01*
X103112950Y-86611289D01*
X102916812Y-86821299D01*
X102751098Y-87056064D01*
X102618894Y-87311206D01*
X102522667Y-87581962D01*
X102522666Y-87581965D01*
X102464201Y-87863319D01*
X102444592Y-88150000D01*
X96245679Y-88150000D01*
X96180499Y-87992641D01*
X96180494Y-87992631D01*
X96065589Y-87820664D01*
X96065586Y-87820660D01*
X95919339Y-87674413D01*
X95919335Y-87674410D01*
X95747368Y-87559505D01*
X95747358Y-87559500D01*
X95556274Y-87480350D01*
X95556266Y-87480348D01*
X95353420Y-87440000D01*
X95200000Y-87440000D01*
X95200000Y-88190000D01*
X94700000Y-88190000D01*
X94700000Y-87440000D01*
X94546579Y-87440000D01*
X94343733Y-87480348D01*
X94343725Y-87480350D01*
X94152641Y-87559500D01*
X94152631Y-87559505D01*
X93980664Y-87674410D01*
X93980660Y-87674413D01*
X93834413Y-87820660D01*
X93834410Y-87820664D01*
X93719505Y-87992631D01*
X93719500Y-87992641D01*
X93640351Y-88183723D01*
X93640350Y-88183725D01*
X93629157Y-88240000D01*
X94483012Y-88240000D01*
X94465795Y-88249940D01*
X94409940Y-88305795D01*
X94370444Y-88374204D01*
X94350000Y-88450504D01*
X94350000Y-88529496D01*
X94370444Y-88605796D01*
X94409940Y-88674205D01*
X94465795Y-88730060D01*
X94483012Y-88740000D01*
X93629157Y-88740000D01*
X93640350Y-88796274D01*
X93640351Y-88796276D01*
X93719500Y-88987358D01*
X93719505Y-88987368D01*
X93834410Y-89159335D01*
X93834413Y-89159339D01*
X93953393Y-89278319D01*
X93986878Y-89339642D01*
X93981894Y-89409334D01*
X93940022Y-89465267D01*
X93874558Y-89489684D01*
X93865712Y-89490000D01*
X92234288Y-89490000D01*
X92167249Y-89470315D01*
X92121494Y-89417511D01*
X92111550Y-89348353D01*
X92140575Y-89284797D01*
X92146607Y-89278319D01*
X92265586Y-89159339D01*
X92265589Y-89159335D01*
X92380494Y-88987368D01*
X92380499Y-88987358D01*
X92459648Y-88796276D01*
X92459649Y-88796274D01*
X92470843Y-88740000D01*
X91616988Y-88740000D01*
X91634205Y-88730060D01*
X91690060Y-88674205D01*
X91729556Y-88605796D01*
X91750000Y-88529496D01*
X91750000Y-88450504D01*
X91729556Y-88374204D01*
X91690060Y-88305795D01*
X91634205Y-88249940D01*
X91616988Y-88240000D01*
X92470843Y-88240000D01*
X92459649Y-88183725D01*
X92459648Y-88183723D01*
X92380499Y-87992641D01*
X92380494Y-87992631D01*
X92265589Y-87820664D01*
X92265586Y-87820660D01*
X92119339Y-87674413D01*
X92119335Y-87674410D01*
X91947368Y-87559505D01*
X91947358Y-87559500D01*
X91756274Y-87480350D01*
X91756266Y-87480348D01*
X91553420Y-87440000D01*
X91200000Y-87440000D01*
X91200000Y-88190000D01*
X90700000Y-88190000D01*
X90700000Y-87440000D01*
X90346579Y-87440000D01*
X90143733Y-87480348D01*
X90143725Y-87480350D01*
X89952641Y-87559500D01*
X89952631Y-87559505D01*
X89780664Y-87674410D01*
X89780660Y-87674413D01*
X89711681Y-87743393D01*
X89650358Y-87776878D01*
X89580666Y-87771894D01*
X89524733Y-87730022D01*
X89500316Y-87664558D01*
X89500000Y-87655712D01*
X89500000Y-81535380D01*
X102359733Y-81535380D01*
X102380214Y-81677836D01*
X102417759Y-81760046D01*
X102440003Y-81808753D01*
X102534252Y-81917523D01*
X102655327Y-81995333D01*
X102655330Y-81995334D01*
X102655329Y-81995334D01*
X102793416Y-82035879D01*
X102793418Y-82035880D01*
X102793419Y-82035880D01*
X102937342Y-82035880D01*
X102937342Y-82035879D01*
X103075433Y-81995333D01*
X103196508Y-81917523D01*
X103290757Y-81808753D01*
X103350545Y-81677837D01*
X103366827Y-81564588D01*
X103395850Y-81501036D01*
X103401856Y-81494584D01*
X103489624Y-81406816D01*
X103550946Y-81373334D01*
X103577303Y-81370500D01*
X108743456Y-81370500D01*
X108810495Y-81390185D01*
X108831137Y-81406819D01*
X109078259Y-81653941D01*
X109111744Y-81715264D01*
X109106760Y-81784956D01*
X109071792Y-81835325D01*
X109068878Y-81837849D01*
X108974623Y-81946626D01*
X108974622Y-81946628D01*
X108914834Y-82077543D01*
X108894353Y-82220000D01*
X108894353Y-82220002D01*
X108896289Y-82233470D01*
X108886344Y-82302628D01*
X108861232Y-82338795D01*
X107711848Y-83488181D01*
X107650525Y-83521666D01*
X107624167Y-83524500D01*
X106462833Y-83524500D01*
X106395794Y-83504815D01*
X106369120Y-83481703D01*
X106331128Y-83437857D01*
X106210053Y-83360047D01*
X106210051Y-83360046D01*
X106210049Y-83360045D01*
X106210050Y-83360045D01*
X106071963Y-83319500D01*
X106071961Y-83319500D01*
X105928039Y-83319500D01*
X105928036Y-83319500D01*
X105789949Y-83360045D01*
X105668873Y-83437856D01*
X105668872Y-83437856D01*
X105668872Y-83437857D01*
X105656290Y-83452377D01*
X105574623Y-83546626D01*
X105574622Y-83546628D01*
X105514834Y-83677543D01*
X105494353Y-83820000D01*
X105514834Y-83962456D01*
X105561875Y-84065460D01*
X105574623Y-84093373D01*
X105668872Y-84202143D01*
X105789947Y-84279953D01*
X105789950Y-84279954D01*
X105789949Y-84279954D01*
X105928036Y-84320499D01*
X105928038Y-84320500D01*
X105928039Y-84320500D01*
X106071962Y-84320500D01*
X106071962Y-84320499D01*
X106210053Y-84279953D01*
X106331128Y-84202143D01*
X106360456Y-84168296D01*
X106419233Y-84130523D01*
X106454168Y-84125500D01*
X107839560Y-84125500D01*
X107839562Y-84125500D01*
X107915989Y-84105021D01*
X107984511Y-84065460D01*
X108040460Y-84009511D01*
X109149971Y-82900000D01*
X122119678Y-82900000D01*
X122138915Y-83083029D01*
X122138916Y-83083032D01*
X122195783Y-83258053D01*
X122195786Y-83258059D01*
X122287805Y-83417440D01*
X122381650Y-83521666D01*
X122410949Y-83554206D01*
X122410951Y-83554208D01*
X122559834Y-83662378D01*
X122559835Y-83662378D01*
X122559839Y-83662381D01*
X122687944Y-83719417D01*
X122727961Y-83737234D01*
X122727966Y-83737236D01*
X122907981Y-83775500D01*
X123092019Y-83775500D01*
X123272034Y-83737236D01*
X123440161Y-83662381D01*
X123589050Y-83554207D01*
X123712195Y-83417440D01*
X123804214Y-83258059D01*
X123861085Y-83083029D01*
X123880322Y-82900000D01*
X124619678Y-82900000D01*
X124638915Y-83083029D01*
X124638916Y-83083032D01*
X124695783Y-83258053D01*
X124695786Y-83258059D01*
X124787805Y-83417440D01*
X124881650Y-83521666D01*
X124910949Y-83554206D01*
X124910951Y-83554208D01*
X125059834Y-83662378D01*
X125059835Y-83662378D01*
X125059839Y-83662381D01*
X125187944Y-83719417D01*
X125227961Y-83737234D01*
X125227966Y-83737236D01*
X125407981Y-83775500D01*
X125592019Y-83775500D01*
X125772034Y-83737236D01*
X125940161Y-83662381D01*
X126089050Y-83554207D01*
X126212195Y-83417440D01*
X126304214Y-83258059D01*
X126361085Y-83083029D01*
X126380322Y-82900000D01*
X126361085Y-82716971D01*
X126323775Y-82602143D01*
X126304216Y-82541946D01*
X126304213Y-82541940D01*
X126279999Y-82500000D01*
X126212195Y-82382560D01*
X126089050Y-82245793D01*
X126089048Y-82245791D01*
X126033244Y-82205247D01*
X127124500Y-82205247D01*
X127124500Y-83594752D01*
X127136131Y-83653229D01*
X127136132Y-83653230D01*
X127180447Y-83719552D01*
X127246769Y-83763867D01*
X127246770Y-83763868D01*
X127305247Y-83775499D01*
X127305250Y-83775500D01*
X127305252Y-83775500D01*
X128694750Y-83775500D01*
X128694751Y-83775499D01*
X128709568Y-83772552D01*
X128753229Y-83763868D01*
X128753229Y-83763867D01*
X128753231Y-83763867D01*
X128819552Y-83719552D01*
X128863867Y-83653231D01*
X128863867Y-83653229D01*
X128863868Y-83653229D01*
X128875499Y-83594752D01*
X128875500Y-83594750D01*
X128875500Y-82205249D01*
X128875499Y-82205247D01*
X128863868Y-82146770D01*
X128863867Y-82146769D01*
X128819552Y-82080447D01*
X128753230Y-82036132D01*
X128753229Y-82036131D01*
X128694752Y-82024500D01*
X128694748Y-82024500D01*
X127305252Y-82024500D01*
X127305247Y-82024500D01*
X127246770Y-82036131D01*
X127246769Y-82036132D01*
X127180447Y-82080447D01*
X127136132Y-82146769D01*
X127136131Y-82146770D01*
X127124500Y-82205247D01*
X126033244Y-82205247D01*
X125940165Y-82137621D01*
X125940162Y-82137619D01*
X125940161Y-82137619D01*
X125849747Y-82097364D01*
X125772038Y-82062765D01*
X125772033Y-82062763D01*
X125592019Y-82024500D01*
X125407981Y-82024500D01*
X125227966Y-82062763D01*
X125227961Y-82062765D01*
X125059839Y-82137619D01*
X125059834Y-82137621D01*
X124910951Y-82245791D01*
X124910949Y-82245793D01*
X124787804Y-82382561D01*
X124695786Y-82541940D01*
X124695783Y-82541946D01*
X124638916Y-82716967D01*
X124638915Y-82716971D01*
X124619678Y-82900000D01*
X123880322Y-82900000D01*
X123861085Y-82716971D01*
X123823775Y-82602143D01*
X123804216Y-82541946D01*
X123804213Y-82541940D01*
X123779999Y-82500000D01*
X123712195Y-82382560D01*
X123589050Y-82245793D01*
X123589048Y-82245791D01*
X123440165Y-82137621D01*
X123440162Y-82137619D01*
X123440161Y-82137619D01*
X123349747Y-82097364D01*
X123272038Y-82062765D01*
X123272033Y-82062763D01*
X123092019Y-82024500D01*
X122907981Y-82024500D01*
X122727966Y-82062763D01*
X122727961Y-82062765D01*
X122559839Y-82137619D01*
X122559834Y-82137621D01*
X122410951Y-82245791D01*
X122410949Y-82245793D01*
X122287804Y-82382561D01*
X122195786Y-82541940D01*
X122195783Y-82541946D01*
X122138916Y-82716967D01*
X122138915Y-82716971D01*
X122119678Y-82900000D01*
X109149971Y-82900000D01*
X109293152Y-82756819D01*
X109354475Y-82723334D01*
X109380833Y-82720500D01*
X109471962Y-82720500D01*
X109471962Y-82720499D01*
X109610053Y-82679953D01*
X109731128Y-82602143D01*
X109825377Y-82493373D01*
X109885165Y-82362457D01*
X109905647Y-82220000D01*
X109885165Y-82077543D01*
X109825377Y-81946627D01*
X109807245Y-81925702D01*
X109778221Y-81862147D01*
X109788165Y-81792989D01*
X109833919Y-81740185D01*
X109900959Y-81720500D01*
X123776142Y-81720500D01*
X123776144Y-81720500D01*
X123865288Y-81696614D01*
X123945212Y-81650470D01*
X125123026Y-80472654D01*
X125184347Y-80439171D01*
X125236486Y-80439047D01*
X125407981Y-80475500D01*
X125592019Y-80475500D01*
X125772034Y-80437236D01*
X125940161Y-80362381D01*
X126089050Y-80254207D01*
X126212195Y-80117440D01*
X126304214Y-79958059D01*
X126361085Y-79783029D01*
X126380322Y-79600000D01*
X127119678Y-79600000D01*
X127138915Y-79783029D01*
X127138916Y-79783031D01*
X127138916Y-79783032D01*
X127195783Y-79958053D01*
X127195786Y-79958059D01*
X127287805Y-80117440D01*
X127352688Y-80189500D01*
X127410949Y-80254206D01*
X127410951Y-80254208D01*
X127559834Y-80362378D01*
X127559835Y-80362378D01*
X127559839Y-80362381D01*
X127679863Y-80415819D01*
X127727961Y-80437234D01*
X127727966Y-80437236D01*
X127907981Y-80475500D01*
X128092019Y-80475500D01*
X128272034Y-80437236D01*
X128440161Y-80362381D01*
X128589050Y-80254207D01*
X128712195Y-80117440D01*
X128804214Y-79958059D01*
X128861085Y-79783029D01*
X128880322Y-79600000D01*
X128861085Y-79416971D01*
X128824061Y-79303023D01*
X128804216Y-79241946D01*
X128804213Y-79241940D01*
X128762936Y-79170446D01*
X128712195Y-79082560D01*
X128589050Y-78945793D01*
X128589048Y-78945791D01*
X128440165Y-78837621D01*
X128440162Y-78837619D01*
X128440161Y-78837619D01*
X128379112Y-78810438D01*
X128272038Y-78762765D01*
X128272033Y-78762763D01*
X128092019Y-78724500D01*
X127907981Y-78724500D01*
X127727966Y-78762763D01*
X127727961Y-78762765D01*
X127559839Y-78837619D01*
X127559834Y-78837621D01*
X127410951Y-78945791D01*
X127410949Y-78945793D01*
X127287804Y-79082561D01*
X127195786Y-79241940D01*
X127195783Y-79241946D01*
X127140274Y-79412787D01*
X127138915Y-79416971D01*
X127119678Y-79600000D01*
X126380322Y-79600000D01*
X126361085Y-79416971D01*
X126324061Y-79303023D01*
X126304216Y-79241946D01*
X126304213Y-79241940D01*
X126262936Y-79170446D01*
X126212195Y-79082560D01*
X126089050Y-78945793D01*
X126089048Y-78945791D01*
X125940165Y-78837621D01*
X125940162Y-78837619D01*
X125940161Y-78837619D01*
X125879112Y-78810438D01*
X125772038Y-78762765D01*
X125772033Y-78762763D01*
X125592019Y-78724500D01*
X125407981Y-78724500D01*
X125227966Y-78762763D01*
X125227961Y-78762765D01*
X125059839Y-78837619D01*
X125059834Y-78837621D01*
X124910951Y-78945791D01*
X124910949Y-78945793D01*
X124787804Y-79082561D01*
X124695786Y-79241940D01*
X124695783Y-79241946D01*
X124640274Y-79412787D01*
X124638915Y-79416971D01*
X124630667Y-79495445D01*
X124619678Y-79600000D01*
X124638915Y-79783031D01*
X124638916Y-79783033D01*
X124660158Y-79848409D01*
X124662153Y-79918250D01*
X124629908Y-79974408D01*
X123621137Y-80983181D01*
X123559814Y-81016666D01*
X123533456Y-81019500D01*
X109486544Y-81019500D01*
X109419505Y-80999815D01*
X109398863Y-80983181D01*
X109155213Y-80739531D01*
X109155208Y-80739527D01*
X109075290Y-80693387D01*
X109075289Y-80693386D01*
X109075288Y-80693386D01*
X108986144Y-80669500D01*
X103334616Y-80669500D01*
X103245472Y-80693386D01*
X103245471Y-80693386D01*
X103245469Y-80693387D01*
X103245466Y-80693388D01*
X103165554Y-80739526D01*
X103165545Y-80739533D01*
X102906517Y-80998561D01*
X102845194Y-81032046D01*
X102818836Y-81034880D01*
X102793416Y-81034880D01*
X102655329Y-81075425D01*
X102534253Y-81153236D01*
X102440003Y-81262006D01*
X102440002Y-81262008D01*
X102380214Y-81392923D01*
X102359733Y-81535380D01*
X89500000Y-81535380D01*
X89500000Y-79620000D01*
X97110840Y-79620000D01*
X97151652Y-79754541D01*
X97244503Y-79928253D01*
X97244504Y-79928254D01*
X97351353Y-80058448D01*
X97378666Y-80122758D01*
X97379500Y-80137114D01*
X97379500Y-81159752D01*
X97391131Y-81218229D01*
X97391132Y-81218230D01*
X97435447Y-81284552D01*
X97501769Y-81328867D01*
X97501770Y-81328868D01*
X97560247Y-81340499D01*
X97560250Y-81340500D01*
X97560252Y-81340500D01*
X98599750Y-81340500D01*
X98599751Y-81340499D01*
X98616479Y-81337172D01*
X98658229Y-81328868D01*
X98658229Y-81328867D01*
X98658231Y-81328867D01*
X98724552Y-81284552D01*
X98768867Y-81218231D01*
X98770765Y-81208686D01*
X98774422Y-81190308D01*
X98806807Y-81128397D01*
X98867523Y-81093823D01*
X98896039Y-81090500D01*
X99139307Y-81090500D01*
X99139309Y-81090500D01*
X99214348Y-81070392D01*
X99230207Y-81066144D01*
X99230208Y-81066143D01*
X99253887Y-81059799D01*
X99356614Y-81000489D01*
X100182489Y-80174614D01*
X100241798Y-80071887D01*
X100241799Y-80071886D01*
X100272500Y-79957309D01*
X100272500Y-79600000D01*
X122119678Y-79600000D01*
X122138915Y-79783029D01*
X122138916Y-79783031D01*
X122138916Y-79783032D01*
X122195783Y-79958053D01*
X122195786Y-79958059D01*
X122287805Y-80117440D01*
X122352688Y-80189500D01*
X122410949Y-80254206D01*
X122410951Y-80254208D01*
X122559834Y-80362378D01*
X122559835Y-80362378D01*
X122559839Y-80362381D01*
X122679863Y-80415819D01*
X122727961Y-80437234D01*
X122727966Y-80437236D01*
X122907981Y-80475500D01*
X123092019Y-80475500D01*
X123272034Y-80437236D01*
X123440161Y-80362381D01*
X123589050Y-80254207D01*
X123712195Y-80117440D01*
X123804214Y-79958059D01*
X123861085Y-79783029D01*
X123880322Y-79600000D01*
X123861085Y-79416971D01*
X123824061Y-79303023D01*
X123804216Y-79241946D01*
X123804213Y-79241940D01*
X123762936Y-79170446D01*
X123712195Y-79082560D01*
X123589050Y-78945793D01*
X123589048Y-78945791D01*
X123440165Y-78837621D01*
X123440162Y-78837619D01*
X123440161Y-78837619D01*
X123379112Y-78810438D01*
X123272038Y-78762765D01*
X123272033Y-78762763D01*
X123092019Y-78724500D01*
X122907981Y-78724500D01*
X122727966Y-78762763D01*
X122727961Y-78762765D01*
X122559839Y-78837619D01*
X122559834Y-78837621D01*
X122410951Y-78945791D01*
X122410949Y-78945793D01*
X122287804Y-79082561D01*
X122195786Y-79241940D01*
X122195783Y-79241946D01*
X122140274Y-79412787D01*
X122138915Y-79416971D01*
X122119678Y-79600000D01*
X100272500Y-79600000D01*
X100272500Y-78649965D01*
X100292185Y-78582926D01*
X100308819Y-78562284D01*
X100734285Y-78136819D01*
X100795608Y-78103334D01*
X100821966Y-78100500D01*
X138831274Y-78100500D01*
X138898313Y-78120185D01*
X138918955Y-78136819D01*
X142839702Y-82057566D01*
X142873187Y-82118889D01*
X142868203Y-82188581D01*
X142850407Y-82220721D01*
X142849140Y-82222372D01*
X142849138Y-82222374D01*
X142793671Y-82356287D01*
X142793670Y-82356291D01*
X142774750Y-82500000D01*
X142792536Y-82635099D01*
X142793670Y-82643708D01*
X142793671Y-82643712D01*
X142849137Y-82777622D01*
X142849138Y-82777624D01*
X142849139Y-82777625D01*
X142937379Y-82892621D01*
X143052375Y-82980861D01*
X143186291Y-83036330D01*
X143313280Y-83053048D01*
X143329999Y-83055250D01*
X143330000Y-83055250D01*
X143330001Y-83055250D01*
X143344977Y-83053278D01*
X143473709Y-83036330D01*
X143607625Y-82980861D01*
X143722621Y-82892621D01*
X143810861Y-82777625D01*
X143866330Y-82643709D01*
X143885250Y-82500000D01*
X143866330Y-82356291D01*
X143810861Y-82222375D01*
X143806123Y-82216200D01*
X143780930Y-82151031D01*
X143780500Y-82140715D01*
X143780500Y-81851454D01*
X143780500Y-81851452D01*
X143756008Y-81760047D01*
X143756008Y-81760046D01*
X143756008Y-81760045D01*
X143753841Y-81751960D01*
X143749799Y-81736874D01*
X143690489Y-81634147D01*
X143393497Y-81337155D01*
X149150000Y-81337155D01*
X149150000Y-81985000D01*
X150066988Y-81985000D01*
X150034075Y-82042007D01*
X150000000Y-82169174D01*
X150000000Y-82300826D01*
X150034075Y-82427993D01*
X150066988Y-82485000D01*
X149150000Y-82485000D01*
X149150000Y-83132844D01*
X149156401Y-83192372D01*
X149156403Y-83192379D01*
X149206645Y-83327086D01*
X149206649Y-83327093D01*
X149292809Y-83442187D01*
X149292812Y-83442190D01*
X149407906Y-83528350D01*
X149407913Y-83528354D01*
X149542620Y-83578596D01*
X149542627Y-83578598D01*
X149602155Y-83584999D01*
X149602172Y-83585000D01*
X150002813Y-83585000D01*
X150069852Y-83604685D01*
X150115607Y-83657489D01*
X150125551Y-83726647D01*
X150096526Y-83790203D01*
X150061267Y-83818357D01*
X149913550Y-83897315D01*
X149913548Y-83897316D01*
X149913547Y-83897317D01*
X149753589Y-84028589D01*
X149622317Y-84188547D01*
X149622315Y-84188550D01*
X149583643Y-84260898D01*
X149524769Y-84371043D01*
X149464699Y-84569067D01*
X149444417Y-84775000D01*
X149464699Y-84980932D01*
X149464700Y-84980934D01*
X149524768Y-85178954D01*
X149622315Y-85361450D01*
X149622317Y-85361452D01*
X149753589Y-85521410D01*
X149850209Y-85600702D01*
X149913550Y-85652685D01*
X150096046Y-85750232D01*
X150294066Y-85810300D01*
X150294065Y-85810300D01*
X150312529Y-85812118D01*
X150500000Y-85830583D01*
X150705934Y-85810300D01*
X150903954Y-85750232D01*
X151086450Y-85652685D01*
X151246410Y-85521410D01*
X151377685Y-85361450D01*
X151475232Y-85178954D01*
X151535300Y-84980934D01*
X151555583Y-84775000D01*
X151535300Y-84569066D01*
X151475232Y-84371046D01*
X151377685Y-84188550D01*
X151276672Y-84065464D01*
X151246410Y-84028589D01*
X151086452Y-83897317D01*
X151086453Y-83897317D01*
X151086450Y-83897315D01*
X150938732Y-83818357D01*
X150888889Y-83769395D01*
X150873429Y-83701257D01*
X150897261Y-83635578D01*
X150952819Y-83593209D01*
X150997187Y-83585000D01*
X151397828Y-83585000D01*
X151397844Y-83584999D01*
X151457372Y-83578598D01*
X151457379Y-83578596D01*
X151592086Y-83528354D01*
X151592093Y-83528350D01*
X151707187Y-83442190D01*
X151707190Y-83442187D01*
X151793350Y-83327093D01*
X151793354Y-83327086D01*
X151843596Y-83192379D01*
X151843598Y-83192372D01*
X151849999Y-83132844D01*
X151850000Y-83132827D01*
X151850000Y-82485000D01*
X150933012Y-82485000D01*
X150965925Y-82427993D01*
X151000000Y-82300826D01*
X151000000Y-82169174D01*
X150965925Y-82042007D01*
X150933012Y-81985000D01*
X151850000Y-81985000D01*
X151850000Y-81337172D01*
X151849999Y-81337155D01*
X151843598Y-81277627D01*
X151843596Y-81277620D01*
X151793354Y-81142913D01*
X151793350Y-81142906D01*
X151707190Y-81027812D01*
X151707187Y-81027809D01*
X151592093Y-80941649D01*
X151592086Y-80941645D01*
X151457379Y-80891403D01*
X151457372Y-80891401D01*
X151397844Y-80885000D01*
X150750000Y-80885000D01*
X150750000Y-81801988D01*
X150692993Y-81769075D01*
X150565826Y-81735000D01*
X150434174Y-81735000D01*
X150307007Y-81769075D01*
X150250000Y-81801988D01*
X150250000Y-80885000D01*
X149602155Y-80885000D01*
X149542627Y-80891401D01*
X149542620Y-80891403D01*
X149407913Y-80941645D01*
X149407906Y-80941649D01*
X149292812Y-81027809D01*
X149292809Y-81027812D01*
X149206649Y-81142906D01*
X149206645Y-81142913D01*
X149156403Y-81277620D01*
X149156401Y-81277627D01*
X149150000Y-81337155D01*
X143393497Y-81337155D01*
X139950055Y-77893713D01*
X149549500Y-77893713D01*
X149549500Y-78106286D01*
X149582753Y-78316239D01*
X149648444Y-78518414D01*
X149744951Y-78707820D01*
X149869890Y-78879786D01*
X150020213Y-79030109D01*
X150192179Y-79155048D01*
X150192181Y-79155049D01*
X150192184Y-79155051D01*
X150381588Y-79251557D01*
X150583757Y-79317246D01*
X150793713Y-79350500D01*
X150793714Y-79350500D01*
X151006286Y-79350500D01*
X151006287Y-79350500D01*
X151216243Y-79317246D01*
X151418412Y-79251557D01*
X151607816Y-79155051D01*
X151728804Y-79067149D01*
X151779786Y-79030109D01*
X151779788Y-79030106D01*
X151779792Y-79030104D01*
X151930104Y-78879792D01*
X151930106Y-78879788D01*
X151930109Y-78879786D01*
X152055048Y-78707820D01*
X152055047Y-78707820D01*
X152055051Y-78707816D01*
X152151557Y-78518412D01*
X152217246Y-78316243D01*
X152250500Y-78106287D01*
X152250500Y-77893713D01*
X152217246Y-77683757D01*
X152151557Y-77481588D01*
X152055051Y-77292184D01*
X152055049Y-77292181D01*
X152055048Y-77292179D01*
X151930109Y-77120213D01*
X151779786Y-76969890D01*
X151607820Y-76844951D01*
X151418414Y-76748444D01*
X151418413Y-76748443D01*
X151418412Y-76748443D01*
X151216243Y-76682754D01*
X151216241Y-76682753D01*
X151216240Y-76682753D01*
X151054957Y-76657208D01*
X151006287Y-76649500D01*
X150793713Y-76649500D01*
X150745042Y-76657208D01*
X150583760Y-76682753D01*
X150381585Y-76748444D01*
X150192179Y-76844951D01*
X150020213Y-76969890D01*
X149869890Y-77120213D01*
X149744951Y-77292179D01*
X149648444Y-77481585D01*
X149582753Y-77683760D01*
X149549500Y-77893713D01*
X139950055Y-77893713D01*
X139345853Y-77289511D01*
X139294489Y-77259856D01*
X139243127Y-77230201D01*
X139231019Y-77226957D01*
X139218912Y-77223713D01*
X139218909Y-77223712D01*
X139180717Y-77213478D01*
X139128548Y-77199500D01*
X100524691Y-77199500D01*
X100434325Y-77223713D01*
X100434324Y-77223712D01*
X100410115Y-77230200D01*
X100410106Y-77230204D01*
X100307392Y-77289505D01*
X100307384Y-77289511D01*
X99461513Y-78135383D01*
X99461509Y-78135389D01*
X99402201Y-78238112D01*
X99402200Y-78238117D01*
X99371500Y-78352691D01*
X99371500Y-79660035D01*
X99351815Y-79727074D01*
X99335185Y-79747711D01*
X99234488Y-79848409D01*
X99219048Y-79863849D01*
X99157725Y-79897333D01*
X99088033Y-79892349D01*
X99032100Y-79850477D01*
X99007683Y-79785013D01*
X99012707Y-79740171D01*
X99049160Y-79620000D01*
X98289618Y-79620000D01*
X98340064Y-79569554D01*
X98382851Y-79495445D01*
X98405000Y-79412787D01*
X98405000Y-79327213D01*
X98382851Y-79244555D01*
X98340064Y-79170446D01*
X98289618Y-79120000D01*
X98330000Y-79120000D01*
X99049160Y-79120000D01*
X99049160Y-79119999D01*
X99008347Y-78985458D01*
X98915496Y-78811746D01*
X98915492Y-78811739D01*
X98790528Y-78659471D01*
X98638260Y-78534507D01*
X98638253Y-78534503D01*
X98464541Y-78441652D01*
X98330000Y-78400839D01*
X98330000Y-79120000D01*
X98289618Y-79120000D01*
X98279554Y-79109936D01*
X98205445Y-79067149D01*
X98122787Y-79045000D01*
X98037213Y-79045000D01*
X97954555Y-79067149D01*
X97880446Y-79109936D01*
X97819936Y-79170446D01*
X97777149Y-79244555D01*
X97755000Y-79327213D01*
X97755000Y-79412787D01*
X97777149Y-79495445D01*
X97819936Y-79569554D01*
X97870382Y-79620000D01*
X97110840Y-79620000D01*
X89500000Y-79620000D01*
X89500000Y-77893713D01*
X90549500Y-77893713D01*
X90549500Y-78106286D01*
X90582753Y-78316239D01*
X90648444Y-78518414D01*
X90744951Y-78707820D01*
X90869890Y-78879786D01*
X91020213Y-79030109D01*
X91192179Y-79155048D01*
X91192181Y-79155049D01*
X91192184Y-79155051D01*
X91381588Y-79251557D01*
X91583757Y-79317246D01*
X91793713Y-79350500D01*
X91793714Y-79350500D01*
X92006286Y-79350500D01*
X92006287Y-79350500D01*
X92216243Y-79317246D01*
X92418412Y-79251557D01*
X92607816Y-79155051D01*
X92656061Y-79119999D01*
X97110839Y-79119999D01*
X97110840Y-79120000D01*
X97830000Y-79120000D01*
X97830000Y-78400839D01*
X97829999Y-78400839D01*
X97695458Y-78441652D01*
X97521746Y-78534503D01*
X97521739Y-78534507D01*
X97369471Y-78659471D01*
X97244507Y-78811739D01*
X97244503Y-78811746D01*
X97151652Y-78985458D01*
X97110839Y-79119999D01*
X92656061Y-79119999D01*
X92728804Y-79067149D01*
X92779786Y-79030109D01*
X92779788Y-79030106D01*
X92779792Y-79030104D01*
X92930104Y-78879792D01*
X92930106Y-78879788D01*
X92930109Y-78879786D01*
X93055048Y-78707820D01*
X93055047Y-78707820D01*
X93055051Y-78707816D01*
X93151557Y-78518412D01*
X93217246Y-78316243D01*
X93250500Y-78106287D01*
X93250500Y-77893713D01*
X93217246Y-77683757D01*
X93151557Y-77481588D01*
X93055051Y-77292184D01*
X93055049Y-77292181D01*
X93055048Y-77292179D01*
X92930109Y-77120213D01*
X92779786Y-76969890D01*
X92607820Y-76844951D01*
X92418414Y-76748444D01*
X92418413Y-76748443D01*
X92418412Y-76748443D01*
X92216243Y-76682754D01*
X92216241Y-76682753D01*
X92216240Y-76682753D01*
X92054957Y-76657208D01*
X92006287Y-76649500D01*
X91793713Y-76649500D01*
X91745042Y-76657208D01*
X91583760Y-76682753D01*
X91381585Y-76748444D01*
X91192179Y-76844951D01*
X91020213Y-76969890D01*
X90869890Y-77120213D01*
X90744951Y-77292179D01*
X90648444Y-77481585D01*
X90582753Y-77683760D01*
X90549500Y-77893713D01*
X89500000Y-77893713D01*
X89500000Y-75724000D01*
X89519685Y-75656961D01*
X89572489Y-75611206D01*
X89624000Y-75600000D01*
X153176000Y-75600000D01*
X153243039Y-75619685D01*
G37*
%TD.AperFunction*%
M02*
