%TF.GenerationSoftware,KiCad,Pcbnew,8.0.2-1*%
%TF.CreationDate,2024-09-30T14:56:41+09:00*%
%TF.ProjectId,gas_nrf52832,6761735f-6e72-4663-9532-3833322e6b69,rev?*%
%TF.SameCoordinates,Original*%
%TF.FileFunction,Soldermask,Top*%
%TF.FilePolarity,Negative*%
%FSLAX46Y46*%
G04 Gerber Fmt 4.6, Leading zero omitted, Abs format (unit mm)*
G04 Created by KiCad (PCBNEW 8.0.2-1) date 2024-09-30 14:56:41*
%MOMM*%
%LPD*%
G01*
G04 APERTURE LIST*
G04 Aperture macros list*
%AMRoundRect*
0 Rectangle with rounded corners*
0 $1 Rounding radius*
0 $2 $3 $4 $5 $6 $7 $8 $9 X,Y pos of 4 corners*
0 Add a 4 corners polygon primitive as box body*
4,1,4,$2,$3,$4,$5,$6,$7,$8,$9,$2,$3,0*
0 Add four circle primitives for the rounded corners*
1,1,$1+$1,$2,$3*
1,1,$1+$1,$4,$5*
1,1,$1+$1,$6,$7*
1,1,$1+$1,$8,$9*
0 Add four rect primitives between the rounded corners*
20,1,$1+$1,$2,$3,$4,$5,0*
20,1,$1+$1,$4,$5,$6,$7,0*
20,1,$1+$1,$6,$7,$8,$9,0*
20,1,$1+$1,$8,$9,$2,$3,0*%
G04 Aperture macros list end*
%ADD10RoundRect,0.135000X-0.185000X0.135000X-0.185000X-0.135000X0.185000X-0.135000X0.185000X0.135000X0*%
%ADD11RoundRect,0.135000X-0.135000X-0.185000X0.135000X-0.185000X0.135000X0.185000X-0.135000X0.185000X0*%
%ADD12R,0.800000X1.800000*%
%ADD13RoundRect,0.140000X-0.170000X0.140000X-0.170000X-0.140000X0.170000X-0.140000X0.170000X0.140000X0*%
%ADD14RoundRect,0.218750X-0.218750X-0.256250X0.218750X-0.256250X0.218750X0.256250X-0.218750X0.256250X0*%
%ADD15R,1.000000X1.000000*%
%ADD16O,1.000000X1.000000*%
%ADD17R,1.700000X1.700000*%
%ADD18O,1.700000X1.700000*%
%ADD19R,1.800000X1.000000*%
%ADD20RoundRect,0.140000X-0.140000X-0.170000X0.140000X-0.170000X0.140000X0.170000X-0.140000X0.170000X0*%
%ADD21RoundRect,0.102000X-0.200000X-0.250000X0.200000X-0.250000X0.200000X0.250000X-0.200000X0.250000X0*%
%ADD22R,1.350000X1.350000*%
%ADD23O,1.350000X1.350000*%
%ADD24R,0.800000X0.300000*%
%ADD25R,0.300000X0.800000*%
%ADD26R,2.800000X2.800000*%
%ADD27C,2.200000*%
%ADD28RoundRect,0.140000X0.140000X0.170000X-0.140000X0.170000X-0.140000X-0.170000X0.140000X-0.170000X0*%
%ADD29RoundRect,0.140000X0.170000X-0.140000X0.170000X0.140000X-0.170000X0.140000X-0.170000X-0.140000X0*%
%ADD30R,0.300000X0.492000*%
%ADD31RoundRect,0.218750X0.256250X-0.218750X0.256250X0.218750X-0.256250X0.218750X-0.256250X-0.218750X0*%
%ADD32R,1.200000X0.600000*%
%ADD33RoundRect,0.125000X-0.125000X-0.137500X0.125000X-0.137500X0.125000X0.137500X-0.125000X0.137500X0*%
%ADD34RoundRect,0.147500X-0.172500X0.147500X-0.172500X-0.147500X0.172500X-0.147500X0.172500X0.147500X0*%
%ADD35RoundRect,0.102000X-0.400000X0.700000X-0.400000X-0.700000X0.400000X-0.700000X0.400000X0.700000X0*%
%ADD36RoundRect,0.102000X-0.200000X0.700000X-0.200000X-0.700000X0.200000X-0.700000X0.200000X0.700000X0*%
%ADD37RoundRect,0.102000X-0.700000X-0.200000X0.700000X-0.200000X0.700000X0.200000X-0.700000X0.200000X0*%
%ADD38RoundRect,0.102000X0.700000X0.200000X-0.700000X0.200000X-0.700000X-0.200000X0.700000X-0.200000X0*%
%ADD39RoundRect,0.102000X0.200000X-0.700000X0.200000X0.700000X-0.200000X0.700000X-0.200000X-0.700000X0*%
%ADD40RoundRect,0.102000X0.400000X-0.700000X0.400000X0.700000X-0.400000X0.700000X-0.400000X-0.700000X0*%
%ADD41RoundRect,0.135000X0.135000X0.185000X-0.135000X0.185000X-0.135000X-0.185000X0.135000X-0.185000X0*%
%ADD42RoundRect,0.135000X0.185000X-0.135000X0.185000X0.135000X-0.185000X0.135000X-0.185000X-0.135000X0*%
%ADD43R,1.250000X0.600000*%
%ADD44RoundRect,0.218750X0.218750X0.256250X-0.218750X0.256250X-0.218750X-0.256250X0.218750X-0.256250X0*%
%ADD45RoundRect,0.102000X-0.600000X0.350000X-0.600000X-0.350000X0.600000X-0.350000X0.600000X0.350000X0*%
%ADD46RoundRect,0.102000X-0.600000X0.380000X-0.600000X-0.380000X0.600000X-0.380000X0.600000X0.380000X0*%
%ADD47RoundRect,0.102000X-0.600000X0.400000X-0.600000X-0.400000X0.600000X-0.400000X0.600000X0.400000X0*%
%ADD48O,2.304000X1.304000*%
%ADD49O,1.904000X1.304000*%
%ADD50R,0.600000X1.200000*%
%ADD51C,3.800000*%
G04 APERTURE END LIST*
D10*
X143825000Y-86765000D03*
X143825000Y-87785000D03*
D11*
X127985000Y-96660000D03*
X129005000Y-96660000D03*
D12*
X108850000Y-84795000D03*
X107250000Y-84795000D03*
D13*
X109220000Y-100795000D03*
X109220000Y-101755000D03*
D14*
X140512500Y-77300000D03*
X142087500Y-77300000D03*
D10*
X141775000Y-82500000D03*
X141775000Y-83520000D03*
D15*
X98080000Y-80640000D03*
D16*
X98080000Y-79370000D03*
D17*
X140820000Y-104000000D03*
D18*
X143360000Y-104000000D03*
X145900000Y-104000000D03*
X148440000Y-104000000D03*
D19*
X135050000Y-90500000D03*
X135050000Y-93000000D03*
D20*
X143795000Y-88800000D03*
X144755000Y-88800000D03*
D21*
X114510000Y-81710000D03*
X115310000Y-81710000D03*
D22*
X128000000Y-82900000D03*
D23*
X125500000Y-82900000D03*
X123000000Y-82900000D03*
X128000000Y-79600000D03*
X125500000Y-79600000D03*
X123000000Y-79600000D03*
D24*
X108250000Y-82170000D03*
X108250000Y-81670000D03*
X108250000Y-81170000D03*
X108250000Y-80670000D03*
X108250000Y-80170000D03*
X108250000Y-79670000D03*
D25*
X107500000Y-78920000D03*
X107000000Y-78920000D03*
X106500000Y-78920000D03*
X106000000Y-78920000D03*
X105500000Y-78920000D03*
X105000000Y-78920000D03*
D24*
X104250000Y-79670000D03*
X104250000Y-80170000D03*
X104250000Y-80670000D03*
X104250000Y-81170000D03*
X104250000Y-81670000D03*
X104250000Y-82170000D03*
D25*
X105000000Y-82920000D03*
X105500000Y-82920000D03*
X106000000Y-82920000D03*
X106500000Y-82920000D03*
X107000000Y-82920000D03*
X107500000Y-82920000D03*
D26*
X106250000Y-80920000D03*
D27*
X91900000Y-78000000D03*
X91900000Y-108000000D03*
X150900000Y-78000000D03*
X150900000Y-108000000D03*
D28*
X113125000Y-103125000D03*
X112165000Y-103125000D03*
D29*
X102950000Y-83895000D03*
X102950000Y-82935000D03*
D30*
X142850000Y-85200000D03*
X143350000Y-85200000D03*
X143850000Y-85200000D03*
X143850000Y-83532000D03*
X143350000Y-83532000D03*
X142850000Y-83532000D03*
D29*
X100175000Y-83895000D03*
X100175000Y-82935000D03*
D31*
X140400000Y-87437500D03*
X140400000Y-85862500D03*
D32*
X130220000Y-95260000D03*
X130220000Y-94310000D03*
X130220000Y-93360000D03*
X127720000Y-93360000D03*
X127720000Y-95260000D03*
D10*
X132695000Y-95250000D03*
X132695000Y-96270000D03*
D33*
X135190000Y-102765000D03*
X135990000Y-102765000D03*
X136790000Y-102765000D03*
X137590000Y-102765000D03*
X137590000Y-105140000D03*
X136790000Y-105140000D03*
X135990000Y-105140000D03*
X135190000Y-105140000D03*
D17*
X150500000Y-82235000D03*
D18*
X150500000Y-84775000D03*
X150500000Y-87315000D03*
D13*
X110475000Y-83080000D03*
X110475000Y-84040000D03*
D11*
X144890000Y-85050000D03*
X145910000Y-85050000D03*
D13*
X100710000Y-79710000D03*
X100710000Y-80670000D03*
D21*
X101200000Y-82945000D03*
X102000000Y-82945000D03*
D11*
X131190000Y-98700000D03*
X132210000Y-98700000D03*
D34*
X141750000Y-86665000D03*
X141750000Y-87635000D03*
D35*
X149100000Y-90327500D03*
D36*
X146100000Y-90327500D03*
X145400000Y-90327500D03*
X144700000Y-90327500D03*
X144000000Y-90327500D03*
X143300000Y-90327500D03*
X142600000Y-90327500D03*
X141900000Y-90327500D03*
X141200000Y-90327500D03*
X140500000Y-90327500D03*
X139800000Y-90327500D03*
D37*
X137700000Y-90727500D03*
D38*
X137700000Y-91427500D03*
D37*
X137700000Y-92127500D03*
X137700000Y-92827500D03*
X137700000Y-93527500D03*
X137700000Y-94227500D03*
X137700000Y-94927500D03*
X137700000Y-95627500D03*
X137700000Y-96327500D03*
X137700000Y-97027500D03*
X137700000Y-97727500D03*
X137700000Y-98427500D03*
X137700000Y-99127500D03*
D39*
X139100000Y-99527500D03*
X139800000Y-99527500D03*
X140500000Y-99527500D03*
X141200000Y-99527500D03*
X141900000Y-99527500D03*
X142600000Y-99527500D03*
X143300000Y-99527500D03*
X144000000Y-99527500D03*
X144700000Y-99527500D03*
X145400000Y-99527500D03*
X146100000Y-99527500D03*
X146800000Y-99527500D03*
X147500000Y-99527500D03*
X148200000Y-99527500D03*
D40*
X149100000Y-99527500D03*
D41*
X146850000Y-88800000D03*
X145830000Y-88800000D03*
D29*
X134010000Y-99680000D03*
X134010000Y-98720000D03*
D20*
X141220000Y-88750000D03*
X142180000Y-88750000D03*
D13*
X120970000Y-99145000D03*
X120970000Y-100105000D03*
D42*
X130220000Y-91990000D03*
X130220000Y-90970000D03*
X116200000Y-101435000D03*
X116200000Y-100415000D03*
D29*
X126320000Y-96215000D03*
X126320000Y-95255000D03*
D42*
X109220000Y-99860000D03*
X109220000Y-98840000D03*
D29*
X132800000Y-91000000D03*
X132800000Y-90040000D03*
D32*
X113120000Y-101750000D03*
X113120000Y-100800000D03*
X113120000Y-99850000D03*
X110620000Y-99850000D03*
X110620000Y-101750000D03*
D41*
X143960000Y-79300000D03*
X142940000Y-79300000D03*
D20*
X118600000Y-103050000D03*
X119560000Y-103050000D03*
D13*
X134065000Y-102840000D03*
X134065000Y-103800000D03*
D43*
X147525000Y-81550000D03*
X147525000Y-79640000D03*
X145425000Y-80595000D03*
D11*
X99940000Y-94625000D03*
X100960000Y-94625000D03*
D10*
X122400000Y-99140000D03*
X122400000Y-100160000D03*
D44*
X145537500Y-77300000D03*
X143962500Y-77300000D03*
D28*
X101930000Y-81695000D03*
X100970000Y-81695000D03*
D29*
X139000000Y-88380000D03*
X139000000Y-87420000D03*
D42*
X134200000Y-96265000D03*
X134200000Y-95245000D03*
D10*
X102985000Y-78920000D03*
X102985000Y-79940000D03*
D11*
X99940000Y-93600000D03*
X100960000Y-93600000D03*
D42*
X144925000Y-87175000D03*
X144925000Y-86155000D03*
D13*
X132800000Y-92520000D03*
X132800000Y-93480000D03*
D45*
X95900000Y-93610000D03*
D46*
X95900000Y-95630000D03*
D47*
X95900000Y-96860000D03*
D45*
X95900000Y-94610000D03*
D46*
X95900000Y-92590000D03*
D47*
X95900000Y-91360000D03*
D48*
X90950000Y-88490000D03*
X90950000Y-99730000D03*
D49*
X94950000Y-88490000D03*
X94950000Y-99730000D03*
D29*
X134065000Y-106095000D03*
X134065000Y-105135000D03*
D41*
X117650000Y-97750000D03*
X116630000Y-97750000D03*
D13*
X131630000Y-95260000D03*
X131630000Y-96220000D03*
D50*
X119550000Y-99150000D03*
X118600000Y-99150000D03*
X117650000Y-99150000D03*
X117650000Y-101650000D03*
X119550000Y-101650000D03*
D29*
X135270000Y-96215000D03*
X135270000Y-95255000D03*
D28*
X110350000Y-81420000D03*
X109390000Y-81420000D03*
D51*
X104550000Y-101650000D03*
X104550000Y-88150000D03*
X111300000Y-94900000D03*
X119300000Y-94900000D03*
X126050000Y-88150000D03*
X126050000Y-101650000D03*
M02*
