%TF.GenerationSoftware,KiCad,Pcbnew,8.0.2-1*%
%TF.CreationDate,2024-09-30T14:56:41+09:00*%
%TF.ProjectId,gas_nrf52832,6761735f-6e72-4663-9532-3833322e6b69,rev?*%
%TF.SameCoordinates,Original*%
%TF.FileFunction,Legend,Bot*%
%TF.FilePolarity,Positive*%
%FSLAX46Y46*%
G04 Gerber Fmt 4.6, Leading zero omitted, Abs format (unit mm)*
G04 Created by KiCad (PCBNEW 8.0.2-1) date 2024-09-30 14:56:41*
%MOMM*%
%LPD*%
G01*
G04 APERTURE LIST*
%ADD10C,0.125000*%
%ADD11C,0.200000*%
G04 APERTURE END LIST*
D10*
X105179523Y-93733595D02*
X105179523Y-94381214D01*
X105179523Y-94381214D02*
X105141428Y-94457404D01*
X105141428Y-94457404D02*
X105103333Y-94495500D01*
X105103333Y-94495500D02*
X105027142Y-94533595D01*
X105027142Y-94533595D02*
X104874761Y-94533595D01*
X104874761Y-94533595D02*
X104798571Y-94495500D01*
X104798571Y-94495500D02*
X104760476Y-94457404D01*
X104760476Y-94457404D02*
X104722380Y-94381214D01*
X104722380Y-94381214D02*
X104722380Y-93733595D01*
X104379524Y-93809785D02*
X104341428Y-93771690D01*
X104341428Y-93771690D02*
X104265238Y-93733595D01*
X104265238Y-93733595D02*
X104074762Y-93733595D01*
X104074762Y-93733595D02*
X103998571Y-93771690D01*
X103998571Y-93771690D02*
X103960476Y-93809785D01*
X103960476Y-93809785D02*
X103922381Y-93885976D01*
X103922381Y-93885976D02*
X103922381Y-93962166D01*
X103922381Y-93962166D02*
X103960476Y-94076452D01*
X103960476Y-94076452D02*
X104417619Y-94533595D01*
X104417619Y-94533595D02*
X103922381Y-94533595D01*
X126397023Y-93733595D02*
X126397023Y-94381214D01*
X126397023Y-94381214D02*
X126358928Y-94457404D01*
X126358928Y-94457404D02*
X126320833Y-94495500D01*
X126320833Y-94495500D02*
X126244642Y-94533595D01*
X126244642Y-94533595D02*
X126092261Y-94533595D01*
X126092261Y-94533595D02*
X126016071Y-94495500D01*
X126016071Y-94495500D02*
X125977976Y-94457404D01*
X125977976Y-94457404D02*
X125939880Y-94381214D01*
X125939880Y-94381214D02*
X125939880Y-93733595D01*
X125139881Y-94533595D02*
X125597024Y-94533595D01*
X125368452Y-94533595D02*
X125368452Y-93733595D01*
X125368452Y-93733595D02*
X125444643Y-93847880D01*
X125444643Y-93847880D02*
X125520833Y-93924071D01*
X125520833Y-93924071D02*
X125597024Y-93962166D01*
D11*
X114550000Y-94900000D02*
G75*
G02*
X94550000Y-94900000I-10000000J0D01*
G01*
X94550000Y-94900000D02*
G75*
G02*
X114550000Y-94900000I10000000J0D01*
G01*
X136050000Y-94900000D02*
G75*
G02*
X116050000Y-94900000I-10000000J0D01*
G01*
X116050000Y-94900000D02*
G75*
G02*
X136050000Y-94900000I10000000J0D01*
G01*
M02*
