%TF.GenerationSoftware,KiCad,Pcbnew,8.0.2-1*%
%TF.CreationDate,2024-12-04T10:13:35+09:00*%
%TF.ProjectId,gas_nrf52832,6761735f-6e72-4663-9532-3833322e6b69,rev?*%
%TF.SameCoordinates,Original*%
%TF.FileFunction,Copper,L4,Bot*%
%TF.FilePolarity,Positive*%
%FSLAX46Y46*%
G04 Gerber Fmt 4.6, Leading zero omitted, Abs format (unit mm)*
G04 Created by KiCad (PCBNEW 8.0.2-1) date 2024-12-04 10:13:35*
%MOMM*%
%LPD*%
G01*
G04 APERTURE LIST*
G04 Aperture macros list*
%AMRoundRect*
0 Rectangle with rounded corners*
0 $1 Rounding radius*
0 $2 $3 $4 $5 $6 $7 $8 $9 X,Y pos of 4 corners*
0 Add a 4 corners polygon primitive as box body*
4,1,4,$2,$3,$4,$5,$6,$7,$8,$9,$2,$3,0*
0 Add four circle primitives for the rounded corners*
1,1,$1+$1,$2,$3*
1,1,$1+$1,$4,$5*
1,1,$1+$1,$6,$7*
1,1,$1+$1,$8,$9*
0 Add four rect primitives between the rounded corners*
20,1,$1+$1,$2,$3,$4,$5,0*
20,1,$1+$1,$4,$5,$6,$7,0*
20,1,$1+$1,$6,$7,$8,$9,0*
20,1,$1+$1,$8,$9,$2,$3,0*%
G04 Aperture macros list end*
%TA.AperFunction,ComponentPad*%
%ADD10R,1.000000X1.000000*%
%TD*%
%TA.AperFunction,ComponentPad*%
%ADD11O,1.000000X1.000000*%
%TD*%
%TA.AperFunction,ComponentPad*%
%ADD12R,1.700000X1.700000*%
%TD*%
%TA.AperFunction,ComponentPad*%
%ADD13O,1.700000X1.700000*%
%TD*%
%TA.AperFunction,ComponentPad*%
%ADD14R,1.350000X1.350000*%
%TD*%
%TA.AperFunction,ComponentPad*%
%ADD15O,1.350000X1.350000*%
%TD*%
%TA.AperFunction,ComponentPad*%
%ADD16O,2.100000X1.100000*%
%TD*%
%TA.AperFunction,ComponentPad*%
%ADD17O,1.700000X1.100000*%
%TD*%
%TA.AperFunction,SMDPad,CuDef*%
%ADD18RoundRect,0.135000X-0.135000X-0.185000X0.135000X-0.185000X0.135000X0.185000X-0.135000X0.185000X0*%
%TD*%
%TA.AperFunction,SMDPad,CuDef*%
%ADD19R,0.492000X0.300000*%
%TD*%
%TA.AperFunction,SMDPad,CuDef*%
%ADD20RoundRect,0.125000X0.125000X0.137500X-0.125000X0.137500X-0.125000X-0.137500X0.125000X-0.137500X0*%
%TD*%
%TA.AperFunction,SMDPad,CuDef*%
%ADD21RoundRect,0.135000X-0.185000X0.135000X-0.185000X-0.135000X0.185000X-0.135000X0.185000X0.135000X0*%
%TD*%
%TA.AperFunction,ComponentPad*%
%ADD22C,3.800000*%
%TD*%
%TA.AperFunction,SMDPad,CuDef*%
%ADD23RoundRect,0.140000X-0.170000X0.140000X-0.170000X-0.140000X0.170000X-0.140000X0.170000X0.140000X0*%
%TD*%
%TA.AperFunction,SMDPad,CuDef*%
%ADD24RoundRect,0.135000X0.135000X0.185000X-0.135000X0.185000X-0.135000X-0.185000X0.135000X-0.185000X0*%
%TD*%
%TA.AperFunction,SMDPad,CuDef*%
%ADD25RoundRect,0.140000X0.170000X-0.140000X0.170000X0.140000X-0.170000X0.140000X-0.170000X-0.140000X0*%
%TD*%
%TA.AperFunction,ViaPad*%
%ADD26C,0.600000*%
%TD*%
%TA.AperFunction,ViaPad*%
%ADD27C,0.700000*%
%TD*%
%TA.AperFunction,Conductor*%
%ADD28C,0.400000*%
%TD*%
%TA.AperFunction,Conductor*%
%ADD29C,0.300000*%
%TD*%
%TA.AperFunction,Conductor*%
%ADD30C,0.500000*%
%TD*%
%TA.AperFunction,Conductor*%
%ADD31C,0.200000*%
%TD*%
G04 APERTURE END LIST*
D10*
X98080000Y-80640000D03*
D11*
X98080000Y-79370000D03*
D12*
X146300000Y-108225000D03*
D13*
X146300000Y-105685000D03*
X146300000Y-103145000D03*
D14*
X128000000Y-82900000D03*
D15*
X125500000Y-82900000D03*
X123000000Y-82900000D03*
X128000000Y-79600000D03*
X125500000Y-79600000D03*
X123000000Y-79600000D03*
D12*
X148500000Y-82000000D03*
D13*
X148500000Y-84540000D03*
X148500000Y-87080000D03*
D16*
X90950000Y-88490000D03*
X90950000Y-99730000D03*
D17*
X94950000Y-88490000D03*
X94950000Y-99730000D03*
D18*
X134150000Y-80685000D03*
X135170000Y-80685000D03*
D19*
X136850000Y-81760000D03*
X136850000Y-82260000D03*
X136850000Y-82760000D03*
X135182000Y-82760000D03*
X135182000Y-82260000D03*
X135182000Y-81760000D03*
D20*
X141100000Y-106145000D03*
X140300000Y-106145000D03*
X139500000Y-106145000D03*
X138700000Y-106145000D03*
X138700000Y-108520000D03*
X139500000Y-108520000D03*
X140300000Y-108520000D03*
X141100000Y-108520000D03*
D21*
X136700000Y-83800000D03*
X136700000Y-84820000D03*
D22*
X104550000Y-101650000D03*
X104550000Y-88150000D03*
X111300000Y-94900000D03*
D23*
X142225000Y-106220000D03*
X142225000Y-107180000D03*
D24*
X139710000Y-82800000D03*
X138690000Y-82800000D03*
D25*
X142225000Y-109475000D03*
X142225000Y-108515000D03*
D22*
X119300000Y-94900000D03*
X126050000Y-88150000D03*
X126050000Y-101650000D03*
D26*
X143825000Y-86075000D03*
X116600000Y-98600000D03*
X121200000Y-82800000D03*
X95000000Y-105000000D03*
X133000000Y-84100000D03*
X105500000Y-80070000D03*
X115000000Y-76450000D03*
X115000000Y-109500000D03*
X140300000Y-109245000D03*
X90500000Y-109500000D03*
X100000000Y-109500000D03*
X125000000Y-109500000D03*
X143025000Y-109475000D03*
X140000000Y-97500000D03*
X119300000Y-89300000D03*
X130000000Y-109500000D03*
X133600000Y-92500000D03*
X128000000Y-97600000D03*
X118600000Y-103825000D03*
X108250000Y-79020000D03*
X100000000Y-100000000D03*
X130000000Y-76450000D03*
X142526054Y-88024813D03*
X111305000Y-84040000D03*
X133020000Y-82900000D03*
X129375000Y-90975000D03*
X104200000Y-78150000D03*
X110350000Y-80620000D03*
X110000000Y-76450000D03*
X104250000Y-82945000D03*
X133230000Y-99670000D03*
X100960000Y-92760000D03*
X90500000Y-76500000D03*
X110000000Y-109500000D03*
X134900000Y-101800000D03*
X141100000Y-105345000D03*
D27*
X145400000Y-78142500D03*
D26*
X100000000Y-76450000D03*
X95000000Y-109500000D03*
X100275000Y-81695000D03*
D27*
X97210000Y-96870000D03*
D26*
X135000000Y-109500000D03*
X100000000Y-105000000D03*
X120300000Y-86800000D03*
X107000000Y-80070000D03*
X105000000Y-109500000D03*
X95000000Y-76450000D03*
X114500000Y-100800000D03*
X118600000Y-97950000D03*
X116500000Y-90700000D03*
X110160000Y-98200000D03*
X129106765Y-93898235D03*
X136850000Y-80960000D03*
X100975000Y-83895000D03*
X90500000Y-80000000D03*
X125000000Y-76450000D03*
X149100000Y-105100000D03*
X126320000Y-96960000D03*
X143025000Y-106225000D03*
D27*
X97210000Y-91380000D03*
X149100000Y-100850000D03*
D26*
X102150000Y-78895000D03*
X107000000Y-81670000D03*
X105000000Y-76450000D03*
X144750000Y-88025000D03*
X145000000Y-92500000D03*
X145800000Y-86700000D03*
X142500000Y-95000000D03*
X115000000Y-82800000D03*
X137700000Y-90000000D03*
X120000000Y-76450000D03*
X133600000Y-91000000D03*
D27*
X137700000Y-99900000D03*
D26*
X135875000Y-84835000D03*
X134965000Y-96950000D03*
X109995000Y-100800000D03*
X105500000Y-81670000D03*
X90510000Y-105000000D03*
X100725000Y-78945000D03*
D27*
X149100000Y-91600000D03*
D26*
X147500000Y-76450000D03*
X100950000Y-95450000D03*
X102175000Y-83895000D03*
X109465181Y-80607187D03*
X138700000Y-109250000D03*
X139000000Y-86600000D03*
X120000000Y-109500000D03*
X113000000Y-89000000D03*
X122575000Y-86900000D03*
D27*
X144000000Y-106300000D03*
D26*
X122900000Y-84600000D03*
D27*
X126238000Y-94234000D03*
X137922000Y-88392000D03*
X120650000Y-103124000D03*
X108340000Y-101740000D03*
D26*
X109400000Y-82220000D03*
X106000000Y-83820000D03*
X102865380Y-81535380D03*
X140800000Y-82800000D03*
X135100000Y-100400000D03*
X140000000Y-94200000D03*
X140300000Y-101200000D03*
X138300000Y-83800000D03*
X138800000Y-101900000D03*
D27*
X99300000Y-92025000D03*
X98985000Y-95435000D03*
D26*
X113400000Y-96900000D03*
X114700000Y-94000000D03*
D28*
X142225000Y-106220000D02*
X143020000Y-106220000D01*
X143020000Y-106220000D02*
X143025000Y-106225000D01*
D29*
X136850000Y-81760000D02*
X136850000Y-80960000D01*
X141100000Y-106145000D02*
X141100000Y-105345000D01*
X140300000Y-108520000D02*
X140300000Y-109245000D01*
D28*
X136700000Y-84820000D02*
X135890000Y-84820000D01*
X135890000Y-84820000D02*
X135875000Y-84835000D01*
X142225000Y-109475000D02*
X143025000Y-109475000D01*
X138700000Y-108520000D02*
X138700000Y-109250000D01*
D29*
X134670000Y-82760000D02*
X135182000Y-82760000D01*
X134150000Y-82240000D02*
X134150000Y-80685000D01*
D30*
X99080000Y-80640000D02*
X98080000Y-80640000D01*
D29*
X134150000Y-82240000D02*
X134670000Y-82760000D01*
D30*
X101000000Y-77400000D02*
X99400000Y-79000000D01*
X134145000Y-80690000D02*
X134150000Y-80685000D01*
X99400000Y-80320000D02*
X99080000Y-80640000D01*
X99400000Y-79000000D02*
X99400000Y-80320000D01*
X131450000Y-77400000D02*
X101000000Y-77400000D01*
X134150000Y-80100000D02*
X131450000Y-77400000D01*
X134150000Y-80685000D02*
X134150000Y-80100000D01*
D31*
X142450000Y-107285000D02*
X142350000Y-107185000D01*
D28*
X141105000Y-108515000D02*
X141100000Y-108520000D01*
X140300000Y-106625000D02*
X140855000Y-107180000D01*
X140855000Y-107180000D02*
X140320000Y-107180000D01*
D30*
X144000000Y-106300000D02*
X144000000Y-106310661D01*
D28*
X140320000Y-107180000D02*
X139500000Y-108000000D01*
X140300000Y-106145000D02*
X140300000Y-106625000D01*
X140855000Y-107180000D02*
X142225000Y-107180000D01*
D30*
X143130661Y-107180000D02*
X142225000Y-107180000D01*
D28*
X142225000Y-108515000D02*
X141105000Y-108515000D01*
D30*
X142246000Y-108536000D02*
X142225000Y-108515000D01*
X142225000Y-107180000D02*
X142225000Y-108515000D01*
D28*
X139500000Y-108000000D02*
X139500000Y-108520000D01*
D30*
X144000000Y-106310661D02*
X143130661Y-107180000D01*
D31*
X109400000Y-82225000D02*
X107800000Y-83825000D01*
X107800000Y-83825000D02*
X106000000Y-83825000D01*
D29*
X123730000Y-81370000D02*
X125500000Y-79600000D01*
X103380760Y-81020000D02*
X108940000Y-81020000D01*
X109290000Y-81370000D02*
X123730000Y-81370000D01*
X102865380Y-81535380D02*
X103380760Y-81020000D01*
X108940000Y-81020000D02*
X109290000Y-81370000D01*
D31*
X139710000Y-82800000D02*
X140800000Y-82800000D01*
X135100000Y-99100000D02*
X135100000Y-100400000D01*
X140000000Y-94200000D02*
X135100000Y-99100000D01*
X139500000Y-106145000D02*
X139500000Y-102000000D01*
X139500000Y-102000000D02*
X140300000Y-101200000D01*
X136100000Y-82485000D02*
X136100000Y-83200000D01*
X136325000Y-82260000D02*
X136100000Y-82485000D01*
X138300000Y-83800000D02*
X136700000Y-83800000D01*
X136100000Y-83200000D02*
X136700000Y-83800000D01*
X136850000Y-82260000D02*
X136325000Y-82260000D01*
X138700000Y-102000000D02*
X138800000Y-101900000D01*
X138700000Y-106145000D02*
X138700000Y-102000000D01*
X135170000Y-81748000D02*
X135182000Y-81760000D01*
X135182000Y-81760000D02*
X135182000Y-82260000D01*
X135170000Y-80685000D02*
X135170000Y-81748000D01*
X138650000Y-82760000D02*
X138690000Y-82800000D01*
X136850000Y-82760000D02*
X138650000Y-82760000D01*
D30*
X98985000Y-95435000D02*
X99300000Y-95120000D01*
X99300000Y-95120000D02*
X99300000Y-92025000D01*
D29*
X114700000Y-94000000D02*
X114700000Y-95600000D01*
X114700000Y-95600000D02*
X113400000Y-96900000D01*
%TA.AperFunction,Conductor*%
G36*
X153259191Y-75618907D02*
G01*
X153295155Y-75668407D01*
X153300000Y-75699000D01*
X153300000Y-89528500D01*
X153281093Y-89586691D01*
X153231593Y-89622655D01*
X153201000Y-89627500D01*
X149500000Y-89627500D01*
X149500000Y-100227500D01*
X149500001Y-100227500D01*
X153201000Y-100227500D01*
X153259191Y-100246407D01*
X153295155Y-100295907D01*
X153300000Y-100326500D01*
X153300000Y-110301000D01*
X153281093Y-110359191D01*
X153231593Y-110395155D01*
X153201000Y-110400000D01*
X142682603Y-110400000D01*
X142624412Y-110381093D01*
X142588448Y-110331593D01*
X142588448Y-110270407D01*
X142624412Y-110220907D01*
X142645868Y-110210396D01*
X142645482Y-110209504D01*
X142651198Y-110207030D01*
X142790374Y-110124721D01*
X142904721Y-110010374D01*
X142987030Y-109871198D01*
X142987030Y-109871197D01*
X143029504Y-109725000D01*
X141420495Y-109725000D01*
X141462969Y-109871197D01*
X141462969Y-109871198D01*
X141545278Y-110010374D01*
X141659625Y-110124721D01*
X141798801Y-110207030D01*
X141804518Y-110209504D01*
X141803553Y-110211733D01*
X141845619Y-110240318D01*
X141866348Y-110297885D01*
X141849281Y-110356642D01*
X141800937Y-110394145D01*
X141767397Y-110400000D01*
X89599000Y-110400000D01*
X89540809Y-110381093D01*
X89504845Y-110331593D01*
X89500000Y-110301000D01*
X89500000Y-107893709D01*
X90549500Y-107893709D01*
X90549500Y-108106290D01*
X90582752Y-108316238D01*
X90648443Y-108518412D01*
X90744948Y-108707815D01*
X90744950Y-108707819D01*
X90869891Y-108879786D01*
X90869893Y-108879788D01*
X90869896Y-108879792D01*
X91020208Y-109030104D01*
X91020211Y-109030106D01*
X91020213Y-109030108D01*
X91192180Y-109155049D01*
X91192184Y-109155051D01*
X91381588Y-109251557D01*
X91583757Y-109317246D01*
X91583758Y-109317246D01*
X91583761Y-109317247D01*
X91793710Y-109350500D01*
X91793713Y-109350500D01*
X92006290Y-109350500D01*
X92216238Y-109317247D01*
X92216239Y-109317246D01*
X92216243Y-109317246D01*
X92418412Y-109251557D01*
X92607816Y-109155051D01*
X92779792Y-109030104D01*
X92930104Y-108879792D01*
X93009872Y-108770000D01*
X137956842Y-108770000D01*
X137996845Y-108907689D01*
X138077227Y-109043609D01*
X138188890Y-109155272D01*
X138324810Y-109235654D01*
X138449999Y-109272025D01*
X138450000Y-109272025D01*
X138450000Y-108770001D01*
X138449999Y-108770000D01*
X137956842Y-108770000D01*
X93009872Y-108770000D01*
X93055051Y-108707816D01*
X93151557Y-108518412D01*
X93217246Y-108316243D01*
X93224570Y-108270000D01*
X137956841Y-108270000D01*
X138449999Y-108270000D01*
X138450000Y-108269999D01*
X138450000Y-107767973D01*
X138324810Y-107804345D01*
X138188890Y-107884727D01*
X138077227Y-107996390D01*
X137996845Y-108132310D01*
X137956841Y-108270000D01*
X93224570Y-108270000D01*
X93250500Y-108106290D01*
X93250500Y-107893709D01*
X93217247Y-107683761D01*
X93201516Y-107635345D01*
X93151557Y-107481588D01*
X93055051Y-107292184D01*
X93055049Y-107292180D01*
X92930108Y-107120213D01*
X92930106Y-107120211D01*
X92930104Y-107120208D01*
X92779792Y-106969896D01*
X92779788Y-106969893D01*
X92779786Y-106969891D01*
X92607819Y-106844950D01*
X92607815Y-106844948D01*
X92418412Y-106748443D01*
X92216238Y-106682752D01*
X92006290Y-106649500D01*
X92006287Y-106649500D01*
X91793713Y-106649500D01*
X91793710Y-106649500D01*
X91583761Y-106682752D01*
X91381587Y-106748443D01*
X91192184Y-106844948D01*
X91192180Y-106844950D01*
X91020213Y-106969891D01*
X90869891Y-107120213D01*
X90744950Y-107292180D01*
X90744948Y-107292184D01*
X90648443Y-107481587D01*
X90582752Y-107683761D01*
X90549500Y-107893709D01*
X89500000Y-107893709D01*
X89500000Y-105969362D01*
X138249500Y-105969362D01*
X138249500Y-106320634D01*
X138249501Y-106320645D01*
X138255740Y-106368044D01*
X138255740Y-106368046D01*
X138304251Y-106472076D01*
X138304252Y-106472077D01*
X138304253Y-106472079D01*
X138385421Y-106553247D01*
X138489455Y-106601759D01*
X138536861Y-106608000D01*
X138863138Y-106607999D01*
X138910545Y-106601759D01*
X138910546Y-106601759D01*
X138994343Y-106562683D01*
X139014579Y-106553247D01*
X139029998Y-106537827D01*
X139084513Y-106510052D01*
X139144945Y-106519623D01*
X139170000Y-106537826D01*
X139185421Y-106553247D01*
X139289455Y-106601759D01*
X139336861Y-106608000D01*
X139663138Y-106607999D01*
X139710545Y-106601759D01*
X139758661Y-106579321D01*
X139819389Y-106571865D01*
X139872903Y-106601527D01*
X139898762Y-106656980D01*
X139899500Y-106669046D01*
X139899500Y-106677727D01*
X139910907Y-106720300D01*
X139926793Y-106779589D01*
X139971980Y-106857854D01*
X139984701Y-106917702D01*
X139959814Y-106973598D01*
X139956247Y-106977357D01*
X139179520Y-107754086D01*
X139179516Y-107754092D01*
X139178493Y-107755864D01*
X139177404Y-107756843D01*
X139175569Y-107759236D01*
X139175125Y-107758895D01*
X139133019Y-107796801D01*
X139072168Y-107803191D01*
X139065141Y-107801425D01*
X138950000Y-107767973D01*
X138950000Y-109272025D01*
X139075189Y-109235654D01*
X139211109Y-109155272D01*
X139322773Y-109043608D01*
X139329872Y-109031605D01*
X139375767Y-108991142D01*
X139415082Y-108982999D01*
X139584914Y-108982999D01*
X139643105Y-109001906D01*
X139670128Y-109031605D01*
X139677226Y-109043608D01*
X139788890Y-109155272D01*
X139924810Y-109235654D01*
X140049999Y-109272025D01*
X140050000Y-109272025D01*
X140050000Y-108369000D01*
X140068907Y-108310809D01*
X140118407Y-108274845D01*
X140149000Y-108270000D01*
X140451000Y-108270000D01*
X140509191Y-108288907D01*
X140545155Y-108338407D01*
X140550000Y-108369000D01*
X140550000Y-109272025D01*
X140675189Y-109235654D01*
X140811109Y-109155272D01*
X140922773Y-109043608D01*
X140929872Y-109031605D01*
X140975767Y-108991142D01*
X141015082Y-108982999D01*
X141263138Y-108982999D01*
X141310545Y-108976759D01*
X141323347Y-108970788D01*
X141384076Y-108963330D01*
X141437591Y-108992992D01*
X141463451Y-109048444D01*
X141460258Y-109088132D01*
X141420495Y-109224998D01*
X141420496Y-109225000D01*
X143029504Y-109225000D01*
X143029504Y-109224999D01*
X142999820Y-109122824D01*
X144949999Y-109122824D01*
X144956401Y-109182370D01*
X144956403Y-109182381D01*
X145006646Y-109317088D01*
X145006647Y-109317090D01*
X145092807Y-109432184D01*
X145092815Y-109432192D01*
X145207909Y-109518352D01*
X145207911Y-109518353D01*
X145342618Y-109568596D01*
X145342629Y-109568598D01*
X145402176Y-109575000D01*
X146049999Y-109575000D01*
X146050000Y-109574999D01*
X146050000Y-108658012D01*
X146107007Y-108690925D01*
X146234174Y-108725000D01*
X146365826Y-108725000D01*
X146492993Y-108690925D01*
X146550000Y-108658012D01*
X146550000Y-109574999D01*
X146550001Y-109575000D01*
X147197824Y-109575000D01*
X147257370Y-109568598D01*
X147257381Y-109568596D01*
X147392088Y-109518353D01*
X147392090Y-109518352D01*
X147507184Y-109432192D01*
X147507192Y-109432184D01*
X147593352Y-109317090D01*
X147593353Y-109317088D01*
X147643596Y-109182381D01*
X147643598Y-109182370D01*
X147650000Y-109122824D01*
X147650000Y-108475001D01*
X147649999Y-108475000D01*
X146733012Y-108475000D01*
X146765925Y-108417993D01*
X146800000Y-108290826D01*
X146800000Y-108159174D01*
X146765925Y-108032007D01*
X146733012Y-107975000D01*
X147649999Y-107975000D01*
X147650000Y-107974999D01*
X147650000Y-107893709D01*
X149549500Y-107893709D01*
X149549500Y-108106290D01*
X149582752Y-108316238D01*
X149648443Y-108518412D01*
X149744948Y-108707815D01*
X149744950Y-108707819D01*
X149869891Y-108879786D01*
X149869893Y-108879788D01*
X149869896Y-108879792D01*
X150020208Y-109030104D01*
X150020211Y-109030106D01*
X150020213Y-109030108D01*
X150192180Y-109155049D01*
X150192184Y-109155051D01*
X150381588Y-109251557D01*
X150583757Y-109317246D01*
X150583758Y-109317246D01*
X150583761Y-109317247D01*
X150793710Y-109350500D01*
X150793713Y-109350500D01*
X151006290Y-109350500D01*
X151216238Y-109317247D01*
X151216239Y-109317246D01*
X151216243Y-109317246D01*
X151418412Y-109251557D01*
X151607816Y-109155051D01*
X151779792Y-109030104D01*
X151930104Y-108879792D01*
X152055051Y-108707816D01*
X152151557Y-108518412D01*
X152217246Y-108316243D01*
X152224570Y-108270000D01*
X152250500Y-108106290D01*
X152250500Y-107893709D01*
X152217247Y-107683761D01*
X152201516Y-107635345D01*
X152151557Y-107481588D01*
X152055051Y-107292184D01*
X152055049Y-107292180D01*
X151930108Y-107120213D01*
X151930106Y-107120211D01*
X151930104Y-107120208D01*
X151779792Y-106969896D01*
X151779788Y-106969893D01*
X151779786Y-106969891D01*
X151607819Y-106844950D01*
X151607815Y-106844948D01*
X151418412Y-106748443D01*
X151216238Y-106682752D01*
X151006290Y-106649500D01*
X151006287Y-106649500D01*
X150793713Y-106649500D01*
X150793710Y-106649500D01*
X150583761Y-106682752D01*
X150381587Y-106748443D01*
X150192184Y-106844948D01*
X150192180Y-106844950D01*
X150020213Y-106969891D01*
X149869891Y-107120213D01*
X149744950Y-107292180D01*
X149744948Y-107292184D01*
X149648443Y-107481587D01*
X149582752Y-107683761D01*
X149549500Y-107893709D01*
X147650000Y-107893709D01*
X147650000Y-107327175D01*
X147643598Y-107267629D01*
X147643596Y-107267618D01*
X147593353Y-107132911D01*
X147593352Y-107132909D01*
X147507192Y-107017815D01*
X147507184Y-107017807D01*
X147392090Y-106931647D01*
X147392088Y-106931646D01*
X147257381Y-106881403D01*
X147257370Y-106881401D01*
X147197824Y-106875000D01*
X146663361Y-106875000D01*
X146605170Y-106856093D01*
X146569206Y-106806593D01*
X146569206Y-106745407D01*
X146605170Y-106695907D01*
X146634623Y-106681263D01*
X146703954Y-106660232D01*
X146886450Y-106562685D01*
X147046410Y-106431410D01*
X147177685Y-106271450D01*
X147275232Y-106088954D01*
X147335300Y-105890934D01*
X147335301Y-105890929D01*
X147355583Y-105685003D01*
X147355583Y-105684996D01*
X147335301Y-105479070D01*
X147335300Y-105479065D01*
X147309184Y-105392973D01*
X147275232Y-105281046D01*
X147177685Y-105098550D01*
X147046410Y-104938590D01*
X147046404Y-104938585D01*
X146886452Y-104807316D01*
X146703954Y-104709768D01*
X146505934Y-104649699D01*
X146505929Y-104649698D01*
X146300003Y-104629417D01*
X146299997Y-104629417D01*
X146094070Y-104649698D01*
X146094065Y-104649699D01*
X145896045Y-104709768D01*
X145713547Y-104807316D01*
X145553595Y-104938585D01*
X145553585Y-104938595D01*
X145422316Y-105098547D01*
X145324768Y-105281045D01*
X145264699Y-105479065D01*
X145264698Y-105479070D01*
X145244417Y-105684996D01*
X145244417Y-105685003D01*
X145264698Y-105890929D01*
X145264699Y-105890934D01*
X145324768Y-106088954D01*
X145422316Y-106271452D01*
X145445744Y-106299999D01*
X145553590Y-106431410D01*
X145577574Y-106451093D01*
X145713547Y-106562683D01*
X145713548Y-106562683D01*
X145713550Y-106562685D01*
X145896046Y-106660232D01*
X145965377Y-106681263D01*
X146015574Y-106716248D01*
X146035620Y-106774056D01*
X146017859Y-106832607D01*
X145969075Y-106869536D01*
X145936639Y-106875000D01*
X145402176Y-106875000D01*
X145342629Y-106881401D01*
X145342618Y-106881403D01*
X145207911Y-106931646D01*
X145207909Y-106931647D01*
X145092815Y-107017807D01*
X145092807Y-107017815D01*
X145006647Y-107132909D01*
X145006646Y-107132911D01*
X144956403Y-107267618D01*
X144956401Y-107267629D01*
X144950000Y-107327175D01*
X144950000Y-107974999D01*
X144950001Y-107975000D01*
X145866988Y-107975000D01*
X145834075Y-108032007D01*
X145800000Y-108159174D01*
X145800000Y-108290826D01*
X145834075Y-108417993D01*
X145866988Y-108475000D01*
X144950001Y-108475000D01*
X144950000Y-108475001D01*
X144950000Y-109122824D01*
X144949999Y-109122824D01*
X142999820Y-109122824D01*
X142987030Y-109078802D01*
X142987030Y-109078801D01*
X142904721Y-108939625D01*
X142790374Y-108825278D01*
X142779834Y-108819045D01*
X142739371Y-108773150D01*
X142732075Y-108720911D01*
X142735500Y-108694901D01*
X142735499Y-108335100D01*
X142728972Y-108285513D01*
X142728972Y-108285511D01*
X142684776Y-108190733D01*
X142675500Y-108148894D01*
X142675500Y-107729500D01*
X142694407Y-107671309D01*
X142743907Y-107635345D01*
X142774500Y-107630500D01*
X143189968Y-107630500D01*
X143189970Y-107630500D01*
X143291765Y-107603224D01*
X143304548Y-107599799D01*
X143407275Y-107540489D01*
X144082779Y-106864983D01*
X144137294Y-106837208D01*
X144139798Y-106836844D01*
X144143709Y-106836330D01*
X144277625Y-106780861D01*
X144392621Y-106692621D01*
X144480861Y-106577625D01*
X144536330Y-106443709D01*
X144555250Y-106300000D01*
X144554723Y-106296000D01*
X144536330Y-106156291D01*
X144480861Y-106022375D01*
X144392621Y-105907379D01*
X144277625Y-105819139D01*
X144277621Y-105819137D01*
X144143709Y-105763670D01*
X144143708Y-105763669D01*
X144000000Y-105744750D01*
X143856291Y-105763669D01*
X143856290Y-105763670D01*
X143722378Y-105819137D01*
X143722374Y-105819139D01*
X143607381Y-105907377D01*
X143607377Y-105907381D01*
X143519139Y-106022374D01*
X143519137Y-106022378D01*
X143463670Y-106156290D01*
X143463668Y-106156295D01*
X143459928Y-106184699D01*
X143433585Y-106239922D01*
X143431780Y-106241775D01*
X143184817Y-106488739D01*
X143130300Y-106516517D01*
X143069868Y-106506946D01*
X143035644Y-106478177D01*
X143029505Y-106470000D01*
X141471000Y-106470000D01*
X141412809Y-106451093D01*
X141376845Y-106401593D01*
X141376516Y-106399517D01*
X141371999Y-106395000D01*
X140949000Y-106395000D01*
X140890809Y-106376093D01*
X140854845Y-106326593D01*
X140850000Y-106296000D01*
X140850000Y-105894999D01*
X141350000Y-105894999D01*
X141350001Y-105895000D01*
X141794000Y-105895000D01*
X141852191Y-105913907D01*
X141888155Y-105963407D01*
X141888483Y-105965482D01*
X141893001Y-105970000D01*
X141974999Y-105970000D01*
X141975000Y-105969999D01*
X142475000Y-105969999D01*
X142475001Y-105970000D01*
X143029504Y-105970000D01*
X143029504Y-105969999D01*
X142987030Y-105823802D01*
X142987030Y-105823801D01*
X142904721Y-105684625D01*
X142790374Y-105570278D01*
X142651197Y-105487969D01*
X142495912Y-105442855D01*
X142475000Y-105441209D01*
X142475000Y-105969999D01*
X141975000Y-105969999D01*
X141975000Y-105441209D01*
X141954087Y-105442855D01*
X141798805Y-105487968D01*
X141798800Y-105487970D01*
X141733284Y-105526715D01*
X141673572Y-105540061D01*
X141617420Y-105515761D01*
X141612887Y-105511505D01*
X141611109Y-105509727D01*
X141475189Y-105429345D01*
X141350000Y-105392973D01*
X141350000Y-105894999D01*
X140850000Y-105894999D01*
X140850000Y-105392973D01*
X140724810Y-105429345D01*
X140588890Y-105509727D01*
X140477226Y-105621391D01*
X140470126Y-105633397D01*
X140424229Y-105673859D01*
X140384914Y-105682000D01*
X140136866Y-105682000D01*
X140136854Y-105682001D01*
X140089455Y-105688240D01*
X140089453Y-105688240D01*
X139985423Y-105736751D01*
X139985421Y-105736752D01*
X139985421Y-105736753D01*
X139970001Y-105752172D01*
X139915487Y-105779948D01*
X139855055Y-105770377D01*
X139829999Y-105752173D01*
X139829494Y-105751668D01*
X139801719Y-105697154D01*
X139800500Y-105681667D01*
X139800500Y-103144996D01*
X145244417Y-103144996D01*
X145244417Y-103145003D01*
X145264698Y-103350929D01*
X145264699Y-103350934D01*
X145324768Y-103548954D01*
X145422316Y-103731452D01*
X145553585Y-103891404D01*
X145553590Y-103891410D01*
X145553595Y-103891414D01*
X145713547Y-104022683D01*
X145713548Y-104022683D01*
X145713550Y-104022685D01*
X145896046Y-104120232D01*
X146033997Y-104162078D01*
X146094065Y-104180300D01*
X146094070Y-104180301D01*
X146299997Y-104200583D01*
X146300000Y-104200583D01*
X146300003Y-104200583D01*
X146505929Y-104180301D01*
X146505934Y-104180300D01*
X146703954Y-104120232D01*
X146886450Y-104022685D01*
X147046410Y-103891410D01*
X147177685Y-103731450D01*
X147275232Y-103548954D01*
X147335300Y-103350934D01*
X147335301Y-103350929D01*
X147355583Y-103145003D01*
X147355583Y-103144996D01*
X147335301Y-102939070D01*
X147335300Y-102939065D01*
X147307183Y-102846375D01*
X147275232Y-102741046D01*
X147177685Y-102558550D01*
X147046410Y-102398590D01*
X147001775Y-102361959D01*
X146886452Y-102267316D01*
X146703954Y-102169768D01*
X146505934Y-102109699D01*
X146505929Y-102109698D01*
X146300003Y-102089417D01*
X146299997Y-102089417D01*
X146094070Y-102109698D01*
X146094065Y-102109699D01*
X145896045Y-102169768D01*
X145713547Y-102267316D01*
X145553595Y-102398585D01*
X145553585Y-102398595D01*
X145422316Y-102558547D01*
X145324768Y-102741045D01*
X145264699Y-102939065D01*
X145264698Y-102939070D01*
X145244417Y-103144996D01*
X139800500Y-103144996D01*
X139800500Y-102165477D01*
X139819407Y-102107286D01*
X139829484Y-102095486D01*
X140195475Y-101729494D01*
X140249990Y-101701719D01*
X140265477Y-101700500D01*
X140371959Y-101700500D01*
X140371961Y-101700500D01*
X140510053Y-101659953D01*
X140631128Y-101582143D01*
X140725377Y-101473373D01*
X140785165Y-101342457D01*
X140797144Y-101259139D01*
X140805647Y-101200002D01*
X140805647Y-101199997D01*
X140785165Y-101057543D01*
X140725377Y-100926628D01*
X140725377Y-100926627D01*
X140631128Y-100817857D01*
X140631127Y-100817856D01*
X140631126Y-100817855D01*
X140510057Y-100740049D01*
X140510054Y-100740047D01*
X140510053Y-100740047D01*
X140508701Y-100739650D01*
X140371964Y-100699500D01*
X140371961Y-100699500D01*
X140228039Y-100699500D01*
X140228035Y-100699500D01*
X140089949Y-100740046D01*
X140089942Y-100740049D01*
X139968873Y-100817855D01*
X139874622Y-100926628D01*
X139814834Y-101057543D01*
X139794353Y-101199996D01*
X139794353Y-101199997D01*
X139794353Y-101200000D01*
X139794881Y-101203669D01*
X139797442Y-101221483D01*
X139787007Y-101281772D01*
X139769453Y-101305574D01*
X139396122Y-101678906D01*
X139341605Y-101706684D01*
X139281173Y-101697113D01*
X139237908Y-101653848D01*
X139236065Y-101650029D01*
X139225378Y-101626629D01*
X139225377Y-101626628D01*
X139225377Y-101626627D01*
X139131128Y-101517857D01*
X139131127Y-101517856D01*
X139131126Y-101517855D01*
X139010057Y-101440049D01*
X139010054Y-101440047D01*
X139010053Y-101440047D01*
X139010050Y-101440046D01*
X138871964Y-101399500D01*
X138871961Y-101399500D01*
X138728039Y-101399500D01*
X138728035Y-101399500D01*
X138589949Y-101440046D01*
X138589942Y-101440049D01*
X138468873Y-101517855D01*
X138374622Y-101626628D01*
X138314834Y-101757543D01*
X138294353Y-101899997D01*
X138294353Y-101900002D01*
X138314834Y-102042456D01*
X138374623Y-102173373D01*
X138375316Y-102174173D01*
X138375660Y-102174989D01*
X138378453Y-102179334D01*
X138377701Y-102179816D01*
X138399136Y-102230531D01*
X138399500Y-102239008D01*
X138399500Y-105681667D01*
X138380593Y-105739858D01*
X138370509Y-105751664D01*
X138304253Y-105817921D01*
X138255741Y-105921955D01*
X138249500Y-105969362D01*
X89500000Y-105969362D01*
X89500000Y-101649996D01*
X102444592Y-101649996D01*
X102444592Y-101650003D01*
X102464201Y-101936682D01*
X102464202Y-101936686D01*
X102522666Y-102218032D01*
X102618896Y-102488797D01*
X102744594Y-102731381D01*
X102751098Y-102743934D01*
X102888838Y-102939070D01*
X102916811Y-102978698D01*
X103112947Y-103188708D01*
X103335853Y-103370055D01*
X103335859Y-103370059D01*
X103335861Y-103370060D01*
X103581370Y-103519358D01*
X103581382Y-103519365D01*
X103768237Y-103600526D01*
X103844942Y-103633844D01*
X104121642Y-103711371D01*
X104406322Y-103750500D01*
X104406328Y-103750500D01*
X104693672Y-103750500D01*
X104693678Y-103750500D01*
X104978358Y-103711371D01*
X105255058Y-103633844D01*
X105450495Y-103548954D01*
X105518617Y-103519365D01*
X105518620Y-103519362D01*
X105518625Y-103519361D01*
X105764147Y-103370055D01*
X105987053Y-103188708D01*
X106047487Y-103123999D01*
X120094750Y-103123999D01*
X120094750Y-103124000D01*
X120113669Y-103267708D01*
X120113670Y-103267709D01*
X120156064Y-103370060D01*
X120169139Y-103401625D01*
X120257379Y-103516621D01*
X120372375Y-103604861D01*
X120506291Y-103660330D01*
X120650000Y-103679250D01*
X120793709Y-103660330D01*
X120927625Y-103604861D01*
X121042621Y-103516621D01*
X121130861Y-103401625D01*
X121186330Y-103267709D01*
X121205250Y-103124000D01*
X121186330Y-102980291D01*
X121130861Y-102846375D01*
X121042621Y-102731379D01*
X120927625Y-102643139D01*
X120927621Y-102643137D01*
X120793709Y-102587670D01*
X120793708Y-102587669D01*
X120650000Y-102568750D01*
X120506291Y-102587669D01*
X120506290Y-102587670D01*
X120372378Y-102643137D01*
X120372374Y-102643139D01*
X120257381Y-102731377D01*
X120257377Y-102731381D01*
X120169139Y-102846374D01*
X120169137Y-102846378D01*
X120113670Y-102980290D01*
X120113669Y-102980291D01*
X120094750Y-103123999D01*
X106047487Y-103123999D01*
X106183189Y-102978698D01*
X106348901Y-102743936D01*
X106481104Y-102488797D01*
X106577334Y-102218032D01*
X106635798Y-101936686D01*
X106649252Y-101739999D01*
X107784750Y-101739999D01*
X107784750Y-101740000D01*
X107803669Y-101883708D01*
X107803670Y-101883709D01*
X107825615Y-101936691D01*
X107859139Y-102017625D01*
X107947379Y-102132621D01*
X108062375Y-102220861D01*
X108196291Y-102276330D01*
X108340000Y-102295250D01*
X108483709Y-102276330D01*
X108617625Y-102220861D01*
X108732621Y-102132621D01*
X108820861Y-102017625D01*
X108876330Y-101883709D01*
X108895250Y-101740000D01*
X108890049Y-101700499D01*
X108883400Y-101649996D01*
X123944592Y-101649996D01*
X123944592Y-101650003D01*
X123964201Y-101936682D01*
X123964202Y-101936686D01*
X124022666Y-102218032D01*
X124118896Y-102488797D01*
X124244594Y-102731381D01*
X124251098Y-102743934D01*
X124388838Y-102939070D01*
X124416811Y-102978698D01*
X124612947Y-103188708D01*
X124835853Y-103370055D01*
X124835859Y-103370059D01*
X124835861Y-103370060D01*
X125081370Y-103519358D01*
X125081382Y-103519365D01*
X125268237Y-103600526D01*
X125344942Y-103633844D01*
X125621642Y-103711371D01*
X125906322Y-103750500D01*
X125906328Y-103750500D01*
X126193672Y-103750500D01*
X126193678Y-103750500D01*
X126478358Y-103711371D01*
X126755058Y-103633844D01*
X126950495Y-103548954D01*
X127018617Y-103519365D01*
X127018620Y-103519362D01*
X127018625Y-103519361D01*
X127264147Y-103370055D01*
X127487053Y-103188708D01*
X127683189Y-102978698D01*
X127848901Y-102743936D01*
X127981104Y-102488797D01*
X128077334Y-102218032D01*
X128135798Y-101936686D01*
X128154727Y-101659953D01*
X128155408Y-101650003D01*
X128155408Y-101649996D01*
X128135798Y-101363317D01*
X128135798Y-101363314D01*
X128077334Y-101081968D01*
X127981104Y-100811203D01*
X127848901Y-100556064D01*
X127738738Y-100399997D01*
X134594353Y-100399997D01*
X134594353Y-100400002D01*
X134614834Y-100542456D01*
X134668740Y-100660491D01*
X134674623Y-100673373D01*
X134732052Y-100739650D01*
X134768873Y-100782144D01*
X134824441Y-100817855D01*
X134889947Y-100859953D01*
X134996403Y-100891211D01*
X135028035Y-100900499D01*
X135028036Y-100900499D01*
X135028039Y-100900500D01*
X135028041Y-100900500D01*
X135171959Y-100900500D01*
X135171961Y-100900500D01*
X135310053Y-100859953D01*
X135431128Y-100782143D01*
X135525377Y-100673373D01*
X135585165Y-100542457D01*
X135600769Y-100433928D01*
X135605647Y-100400002D01*
X135605647Y-100399997D01*
X135585165Y-100257543D01*
X135525377Y-100126628D01*
X135525377Y-100126627D01*
X135431128Y-100017857D01*
X135431127Y-100017856D01*
X135426491Y-100012506D01*
X135428524Y-100010743D01*
X135403067Y-99968505D01*
X135400500Y-99946105D01*
X135400500Y-99265478D01*
X135419407Y-99207287D01*
X135429490Y-99195480D01*
X139895474Y-94729495D01*
X139949991Y-94701719D01*
X139965478Y-94700500D01*
X140071959Y-94700500D01*
X140071961Y-94700500D01*
X140210053Y-94659953D01*
X140331128Y-94582143D01*
X140425377Y-94473373D01*
X140485165Y-94342457D01*
X140500759Y-94233999D01*
X140505647Y-94200002D01*
X140505647Y-94199997D01*
X140485165Y-94057543D01*
X140425377Y-93926627D01*
X140331128Y-93817857D01*
X140331127Y-93817856D01*
X140331126Y-93817855D01*
X140210057Y-93740049D01*
X140210054Y-93740047D01*
X140210053Y-93740047D01*
X140210050Y-93740046D01*
X140071964Y-93699500D01*
X140071961Y-93699500D01*
X139928039Y-93699500D01*
X139928035Y-93699500D01*
X139789949Y-93740046D01*
X139789942Y-93740049D01*
X139668873Y-93817855D01*
X139574622Y-93926628D01*
X139514834Y-94057543D01*
X139494353Y-94199997D01*
X139494353Y-94200003D01*
X139497441Y-94221482D01*
X139487007Y-94281771D01*
X139469453Y-94305574D01*
X134915489Y-98859540D01*
X134915488Y-98859539D01*
X134859539Y-98915489D01*
X134819980Y-98984007D01*
X134819978Y-98984011D01*
X134799500Y-99060435D01*
X134799500Y-99946105D01*
X134780593Y-100004296D01*
X134773258Y-100012289D01*
X134773509Y-100012506D01*
X134674622Y-100126628D01*
X134614834Y-100257543D01*
X134594353Y-100399997D01*
X127738738Y-100399997D01*
X127683189Y-100321302D01*
X127487053Y-100111292D01*
X127387131Y-100030000D01*
X127264152Y-99929949D01*
X127264151Y-99929948D01*
X127264147Y-99929945D01*
X127264142Y-99929942D01*
X127264138Y-99929939D01*
X127018629Y-99780641D01*
X127018617Y-99780634D01*
X126755063Y-99666158D01*
X126755061Y-99666157D01*
X126755058Y-99666156D01*
X126478358Y-99588629D01*
X126193678Y-99549500D01*
X125906322Y-99549500D01*
X125621642Y-99588629D01*
X125344942Y-99666156D01*
X125344939Y-99666156D01*
X125344936Y-99666158D01*
X125081382Y-99780634D01*
X125081370Y-99780641D01*
X124835861Y-99929939D01*
X124835847Y-99929949D01*
X124612952Y-100111287D01*
X124612951Y-100111288D01*
X124416810Y-100321303D01*
X124416805Y-100321309D01*
X124251098Y-100556065D01*
X124118895Y-100811204D01*
X124022665Y-101081972D01*
X123964203Y-101363308D01*
X123964201Y-101363317D01*
X123944592Y-101649996D01*
X108883400Y-101649996D01*
X108876330Y-101596291D01*
X108820861Y-101462375D01*
X108732621Y-101347379D01*
X108617625Y-101259139D01*
X108617621Y-101259137D01*
X108483709Y-101203670D01*
X108483708Y-101203669D01*
X108340000Y-101184750D01*
X108196291Y-101203669D01*
X108196290Y-101203670D01*
X108062378Y-101259137D01*
X108062374Y-101259139D01*
X107947381Y-101347377D01*
X107947377Y-101347381D01*
X107859139Y-101462374D01*
X107859137Y-101462378D01*
X107803670Y-101596290D01*
X107803669Y-101596291D01*
X107784750Y-101739999D01*
X106649252Y-101739999D01*
X106654727Y-101659953D01*
X106655408Y-101650003D01*
X106655408Y-101649996D01*
X106635798Y-101363317D01*
X106635798Y-101363314D01*
X106577334Y-101081968D01*
X106481104Y-100811203D01*
X106348901Y-100556064D01*
X106183189Y-100321302D01*
X105987053Y-100111292D01*
X105887131Y-100030000D01*
X105764152Y-99929949D01*
X105764151Y-99929948D01*
X105764147Y-99929945D01*
X105764142Y-99929942D01*
X105764138Y-99929939D01*
X105518629Y-99780641D01*
X105518617Y-99780634D01*
X105255063Y-99666158D01*
X105255061Y-99666157D01*
X105255058Y-99666156D01*
X104978358Y-99588629D01*
X104693678Y-99549500D01*
X104406322Y-99549500D01*
X104121642Y-99588629D01*
X103844942Y-99666156D01*
X103844939Y-99666156D01*
X103844936Y-99666158D01*
X103581382Y-99780634D01*
X103581370Y-99780641D01*
X103335861Y-99929939D01*
X103335847Y-99929949D01*
X103112952Y-100111287D01*
X103112951Y-100111288D01*
X102916810Y-100321303D01*
X102916805Y-100321309D01*
X102751098Y-100556065D01*
X102618895Y-100811204D01*
X102522665Y-101081972D01*
X102464203Y-101363308D01*
X102464201Y-101363317D01*
X102444592Y-101649996D01*
X89500000Y-101649996D01*
X89500000Y-100503932D01*
X89518907Y-100445741D01*
X89568407Y-100409777D01*
X89629593Y-100409777D01*
X89669004Y-100433928D01*
X89780670Y-100545594D01*
X89952625Y-100660491D01*
X89952639Y-100660498D01*
X90143727Y-100739650D01*
X90346581Y-100779999D01*
X90346586Y-100780000D01*
X90699999Y-100780000D01*
X90700000Y-100779999D01*
X90700000Y-100030000D01*
X91200000Y-100030000D01*
X91200000Y-100779999D01*
X91200001Y-100780000D01*
X91553414Y-100780000D01*
X91553418Y-100779999D01*
X91756272Y-100739650D01*
X91947360Y-100660498D01*
X91947374Y-100660491D01*
X92119329Y-100545594D01*
X92265594Y-100399329D01*
X92380491Y-100227374D01*
X92380498Y-100227360D01*
X92459648Y-100036276D01*
X92459650Y-100036269D01*
X92470843Y-99980000D01*
X91616988Y-99980000D01*
X91634205Y-99970060D01*
X91690060Y-99914205D01*
X91729556Y-99845796D01*
X91750000Y-99769496D01*
X91750000Y-99690504D01*
X91729556Y-99614204D01*
X91690060Y-99545795D01*
X91634205Y-99489940D01*
X91616988Y-99480000D01*
X92470842Y-99480000D01*
X92459650Y-99423730D01*
X92459648Y-99423723D01*
X92380498Y-99232639D01*
X92380491Y-99232625D01*
X92265594Y-99060670D01*
X92119332Y-98914408D01*
X92114704Y-98911316D01*
X92076824Y-98863266D01*
X92074422Y-98802128D01*
X92108414Y-98751254D01*
X92165817Y-98730076D01*
X92169705Y-98730000D01*
X93930295Y-98730000D01*
X93988486Y-98748907D01*
X94024450Y-98798407D01*
X94024450Y-98859593D01*
X93988486Y-98909093D01*
X93985296Y-98911316D01*
X93980667Y-98914408D01*
X93834405Y-99060670D01*
X93719508Y-99232625D01*
X93719501Y-99232639D01*
X93640351Y-99423723D01*
X93640349Y-99423730D01*
X93629157Y-99480000D01*
X94483012Y-99480000D01*
X94465795Y-99489940D01*
X94409940Y-99545795D01*
X94370444Y-99614204D01*
X94350000Y-99690504D01*
X94350000Y-99769496D01*
X94370444Y-99845796D01*
X94409940Y-99914205D01*
X94465795Y-99970060D01*
X94483012Y-99980000D01*
X93629157Y-99980000D01*
X93640349Y-100036269D01*
X93640351Y-100036276D01*
X93719501Y-100227360D01*
X93719508Y-100227374D01*
X93834405Y-100399329D01*
X93980670Y-100545594D01*
X94152625Y-100660491D01*
X94152639Y-100660498D01*
X94343727Y-100739650D01*
X94546581Y-100779999D01*
X94546586Y-100780000D01*
X94699999Y-100780000D01*
X94700000Y-100779999D01*
X94700000Y-100030000D01*
X95200000Y-100030000D01*
X95200000Y-100779999D01*
X95200001Y-100780000D01*
X95353414Y-100780000D01*
X95353418Y-100779999D01*
X95556272Y-100739650D01*
X95747360Y-100660498D01*
X95747374Y-100660491D01*
X95919329Y-100545594D01*
X96065594Y-100399329D01*
X96180491Y-100227374D01*
X96180498Y-100227360D01*
X96259648Y-100036276D01*
X96259650Y-100036269D01*
X96270843Y-99980000D01*
X95416988Y-99980000D01*
X95434205Y-99970060D01*
X95490060Y-99914205D01*
X95529556Y-99845796D01*
X95550000Y-99769496D01*
X95550000Y-99690504D01*
X95529556Y-99614204D01*
X95490060Y-99545795D01*
X95434205Y-99489940D01*
X95416988Y-99480000D01*
X96270842Y-99480000D01*
X96259650Y-99423730D01*
X96259648Y-99423723D01*
X96180498Y-99232639D01*
X96180491Y-99232625D01*
X96065594Y-99060670D01*
X95919329Y-98914405D01*
X95747374Y-98799508D01*
X95747360Y-98799501D01*
X95556272Y-98720349D01*
X95439916Y-98697205D01*
X95386532Y-98667308D01*
X95360916Y-98611743D01*
X95372055Y-98553187D01*
X95388162Y-98523263D01*
X95402698Y-98416047D01*
X95378638Y-98310559D01*
X95319049Y-98220250D01*
X95231529Y-98156635D01*
X95231528Y-98156634D01*
X95179997Y-98139999D01*
X95179990Y-98139997D01*
X95178641Y-98139714D01*
X95178370Y-98139567D01*
X95177488Y-98139333D01*
X95177544Y-98139120D01*
X95129019Y-98112839D01*
X95128996Y-98112816D01*
X95101219Y-98058299D01*
X95100000Y-98042812D01*
X95100000Y-95434999D01*
X98429750Y-95434999D01*
X98429750Y-95435000D01*
X98448669Y-95578708D01*
X98448670Y-95578709D01*
X98504139Y-95712625D01*
X98592379Y-95827621D01*
X98707375Y-95915861D01*
X98841291Y-95971330D01*
X98985000Y-95990250D01*
X99128709Y-95971330D01*
X99262625Y-95915861D01*
X99377621Y-95827621D01*
X99465861Y-95712625D01*
X99521330Y-95578709D01*
X99523452Y-95562581D01*
X99549790Y-95507359D01*
X99551557Y-95505544D01*
X99660489Y-95396614D01*
X99686194Y-95352089D01*
X99719767Y-95293942D01*
X99719776Y-95293924D01*
X99719798Y-95293887D01*
X99719799Y-95293886D01*
X99750500Y-95179309D01*
X99750500Y-94899996D01*
X109194592Y-94899996D01*
X109194592Y-94900003D01*
X109214201Y-95186682D01*
X109214202Y-95186686D01*
X109272666Y-95468032D01*
X109312001Y-95578709D01*
X109367648Y-95735287D01*
X109368896Y-95738797D01*
X109501099Y-95993936D01*
X109666811Y-96228698D01*
X109862947Y-96438708D01*
X110085853Y-96620055D01*
X110085859Y-96620059D01*
X110085861Y-96620060D01*
X110331370Y-96769358D01*
X110331382Y-96769365D01*
X110518237Y-96850526D01*
X110594942Y-96883844D01*
X110871642Y-96961371D01*
X111156322Y-97000500D01*
X111156328Y-97000500D01*
X111443672Y-97000500D01*
X111443678Y-97000500D01*
X111728358Y-96961371D01*
X111947407Y-96899997D01*
X112894353Y-96899997D01*
X112894353Y-96900002D01*
X112914834Y-97042456D01*
X112974622Y-97173371D01*
X112974623Y-97173373D01*
X113068872Y-97282143D01*
X113068873Y-97282144D01*
X113189942Y-97359950D01*
X113189947Y-97359953D01*
X113296403Y-97391211D01*
X113328035Y-97400499D01*
X113328036Y-97400499D01*
X113328039Y-97400500D01*
X113328041Y-97400500D01*
X113471959Y-97400500D01*
X113471961Y-97400500D01*
X113610053Y-97359953D01*
X113731128Y-97282143D01*
X113825377Y-97173373D01*
X113885165Y-97042457D01*
X113885164Y-97042457D01*
X113885166Y-97042455D01*
X113902631Y-96920977D01*
X113929626Y-96866069D01*
X113930551Y-96865129D01*
X114980470Y-95815212D01*
X115026614Y-95735288D01*
X115050500Y-95646144D01*
X115050500Y-94899996D01*
X117194592Y-94899996D01*
X117194592Y-94900003D01*
X117214201Y-95186682D01*
X117214202Y-95186686D01*
X117272666Y-95468032D01*
X117312001Y-95578709D01*
X117367648Y-95735287D01*
X117368896Y-95738797D01*
X117501099Y-95993936D01*
X117666811Y-96228698D01*
X117862947Y-96438708D01*
X118085853Y-96620055D01*
X118085859Y-96620059D01*
X118085861Y-96620060D01*
X118331370Y-96769358D01*
X118331382Y-96769365D01*
X118518237Y-96850526D01*
X118594942Y-96883844D01*
X118871642Y-96961371D01*
X119156322Y-97000500D01*
X119156328Y-97000500D01*
X119443672Y-97000500D01*
X119443678Y-97000500D01*
X119728358Y-96961371D01*
X120005058Y-96883844D01*
X120166351Y-96813784D01*
X120268617Y-96769365D01*
X120268620Y-96769362D01*
X120268625Y-96769361D01*
X120514147Y-96620055D01*
X120737053Y-96438708D01*
X120933189Y-96228698D01*
X121098901Y-95993936D01*
X121231104Y-95738797D01*
X121327334Y-95468032D01*
X121385798Y-95186686D01*
X121405408Y-94900000D01*
X121397832Y-94789250D01*
X121385798Y-94613317D01*
X121385798Y-94613314D01*
X121327334Y-94331968D01*
X121292516Y-94233999D01*
X125682750Y-94233999D01*
X125682750Y-94234000D01*
X125701669Y-94377708D01*
X125701670Y-94377709D01*
X125741294Y-94473373D01*
X125757139Y-94511625D01*
X125845379Y-94626621D01*
X125960375Y-94714861D01*
X126094291Y-94770330D01*
X126238000Y-94789250D01*
X126381709Y-94770330D01*
X126515625Y-94714861D01*
X126630621Y-94626621D01*
X126718861Y-94511625D01*
X126774330Y-94377709D01*
X126793250Y-94234000D01*
X126774330Y-94090291D01*
X126718861Y-93956375D01*
X126630621Y-93841379D01*
X126515625Y-93753139D01*
X126515621Y-93753137D01*
X126381709Y-93697670D01*
X126381708Y-93697669D01*
X126238000Y-93678750D01*
X126094291Y-93697669D01*
X126094290Y-93697670D01*
X125960378Y-93753137D01*
X125960374Y-93753139D01*
X125845381Y-93841377D01*
X125845377Y-93841381D01*
X125757139Y-93956374D01*
X125757137Y-93956378D01*
X125701670Y-94090290D01*
X125701669Y-94090291D01*
X125682750Y-94233999D01*
X121292516Y-94233999D01*
X121231104Y-94061203D01*
X121098901Y-93806064D01*
X120933189Y-93571302D01*
X120737053Y-93361292D01*
X120514147Y-93179945D01*
X120514142Y-93179942D01*
X120514138Y-93179939D01*
X120268629Y-93030641D01*
X120268617Y-93030634D01*
X120005063Y-92916158D01*
X120005061Y-92916157D01*
X120005058Y-92916156D01*
X119728358Y-92838629D01*
X119443678Y-92799500D01*
X119156322Y-92799500D01*
X118871642Y-92838629D01*
X118594942Y-92916156D01*
X118594939Y-92916156D01*
X118594936Y-92916158D01*
X118331382Y-93030634D01*
X118331370Y-93030641D01*
X118085861Y-93179939D01*
X118085847Y-93179949D01*
X117862952Y-93361287D01*
X117862951Y-93361288D01*
X117666810Y-93571303D01*
X117666805Y-93571309D01*
X117501098Y-93806065D01*
X117368895Y-94061204D01*
X117319567Y-94200000D01*
X117282047Y-94305574D01*
X117272665Y-94331972D01*
X117214203Y-94613308D01*
X117214201Y-94613317D01*
X117194592Y-94899996D01*
X115050500Y-94899996D01*
X115050500Y-94396710D01*
X115069407Y-94338519D01*
X115074666Y-94331896D01*
X115125377Y-94273373D01*
X115185165Y-94142457D01*
X115196847Y-94061204D01*
X115205647Y-94000002D01*
X115205647Y-93999997D01*
X115185165Y-93857543D01*
X115167040Y-93817855D01*
X115125377Y-93726627D01*
X115031128Y-93617857D01*
X115031127Y-93617856D01*
X115031126Y-93617855D01*
X114910057Y-93540049D01*
X114910054Y-93540047D01*
X114910053Y-93540047D01*
X114910050Y-93540046D01*
X114771964Y-93499500D01*
X114771961Y-93499500D01*
X114628039Y-93499500D01*
X114628035Y-93499500D01*
X114489949Y-93540046D01*
X114489942Y-93540049D01*
X114368873Y-93617855D01*
X114274622Y-93726628D01*
X114214834Y-93857543D01*
X114194353Y-93999997D01*
X114194353Y-94000002D01*
X114214834Y-94142456D01*
X114250925Y-94221482D01*
X114274623Y-94273373D01*
X114325320Y-94331880D01*
X114349137Y-94388238D01*
X114349500Y-94396710D01*
X114349500Y-95413810D01*
X114330593Y-95472001D01*
X114320504Y-95483814D01*
X113433814Y-96370504D01*
X113379297Y-96398281D01*
X113363810Y-96399500D01*
X113328035Y-96399500D01*
X113189949Y-96440046D01*
X113189942Y-96440049D01*
X113068873Y-96517855D01*
X112974622Y-96626628D01*
X112914834Y-96757543D01*
X112894353Y-96899997D01*
X111947407Y-96899997D01*
X112005058Y-96883844D01*
X112166351Y-96813784D01*
X112268617Y-96769365D01*
X112268620Y-96769362D01*
X112268625Y-96769361D01*
X112514147Y-96620055D01*
X112737053Y-96438708D01*
X112933189Y-96228698D01*
X113098901Y-95993936D01*
X113231104Y-95738797D01*
X113327334Y-95468032D01*
X113385798Y-95186686D01*
X113405408Y-94900000D01*
X113397832Y-94789250D01*
X113385798Y-94613317D01*
X113385798Y-94613314D01*
X113327334Y-94331968D01*
X113231104Y-94061203D01*
X113098901Y-93806064D01*
X112933189Y-93571302D01*
X112737053Y-93361292D01*
X112514147Y-93179945D01*
X112514142Y-93179942D01*
X112514138Y-93179939D01*
X112268629Y-93030641D01*
X112268617Y-93030634D01*
X112005063Y-92916158D01*
X112005061Y-92916157D01*
X112005058Y-92916156D01*
X111728358Y-92838629D01*
X111443678Y-92799500D01*
X111156322Y-92799500D01*
X110871642Y-92838629D01*
X110594942Y-92916156D01*
X110594939Y-92916156D01*
X110594936Y-92916158D01*
X110331382Y-93030634D01*
X110331370Y-93030641D01*
X110085861Y-93179939D01*
X110085847Y-93179949D01*
X109862952Y-93361287D01*
X109862951Y-93361288D01*
X109666810Y-93571303D01*
X109666805Y-93571309D01*
X109501098Y-93806065D01*
X109368895Y-94061204D01*
X109319567Y-94200000D01*
X109282047Y-94305574D01*
X109272665Y-94331972D01*
X109214203Y-94613308D01*
X109214201Y-94613317D01*
X109194592Y-94899996D01*
X99750500Y-94899996D01*
X99750500Y-92375798D01*
X99769407Y-92317607D01*
X99770959Y-92315529D01*
X99780861Y-92302625D01*
X99836330Y-92168709D01*
X99855250Y-92025000D01*
X99836330Y-91881291D01*
X99780861Y-91747375D01*
X99692621Y-91632379D01*
X99577625Y-91544139D01*
X99577621Y-91544137D01*
X99443709Y-91488670D01*
X99443708Y-91488669D01*
X99300000Y-91469750D01*
X99156291Y-91488669D01*
X99156290Y-91488670D01*
X99022378Y-91544137D01*
X99022374Y-91544139D01*
X98907381Y-91632377D01*
X98907377Y-91632381D01*
X98819139Y-91747374D01*
X98819137Y-91747378D01*
X98763670Y-91881290D01*
X98763669Y-91881291D01*
X98744750Y-92024999D01*
X98744750Y-92025000D01*
X98763669Y-92168708D01*
X98763670Y-92168709D01*
X98819137Y-92302621D01*
X98819140Y-92302626D01*
X98829041Y-92315529D01*
X98849466Y-92373205D01*
X98849500Y-92375798D01*
X98849500Y-94829119D01*
X98830593Y-94887310D01*
X98788386Y-94920583D01*
X98707376Y-94954138D01*
X98707374Y-94954139D01*
X98592381Y-95042377D01*
X98592377Y-95042381D01*
X98504139Y-95157374D01*
X98504137Y-95157378D01*
X98448670Y-95291290D01*
X98448669Y-95291291D01*
X98429750Y-95434999D01*
X95100000Y-95434999D01*
X95100000Y-90177188D01*
X95118907Y-90118997D01*
X95127458Y-90108757D01*
X95127480Y-90108734D01*
X95177565Y-90080891D01*
X95177505Y-90080662D01*
X95178410Y-90080421D01*
X95178664Y-90080281D01*
X95178929Y-90080225D01*
X95180000Y-90080000D01*
X95231550Y-90063407D01*
X95319083Y-89999782D01*
X95378681Y-89909459D01*
X95402745Y-89803955D01*
X95388206Y-89696722D01*
X95372101Y-89666801D01*
X95361172Y-89606601D01*
X95387715Y-89551472D01*
X95439964Y-89522784D01*
X95556271Y-89499650D01*
X95747360Y-89420498D01*
X95747374Y-89420491D01*
X95919329Y-89305594D01*
X96065594Y-89159329D01*
X96180491Y-88987374D01*
X96180498Y-88987360D01*
X96259648Y-88796276D01*
X96259650Y-88796269D01*
X96270843Y-88740000D01*
X95416988Y-88740000D01*
X95434205Y-88730060D01*
X95490060Y-88674205D01*
X95529556Y-88605796D01*
X95550000Y-88529496D01*
X95550000Y-88450504D01*
X95529556Y-88374204D01*
X95490060Y-88305795D01*
X95434205Y-88249940D01*
X95416988Y-88240000D01*
X96270842Y-88240000D01*
X96259650Y-88183730D01*
X96259648Y-88183723D01*
X96245678Y-88149996D01*
X102444592Y-88149996D01*
X102444592Y-88150003D01*
X102464201Y-88436682D01*
X102464202Y-88436686D01*
X102522666Y-88718032D01*
X102618896Y-88988797D01*
X102751099Y-89243936D01*
X102796670Y-89308496D01*
X102873875Y-89417872D01*
X102916811Y-89478698D01*
X103112947Y-89688708D01*
X103335853Y-89870055D01*
X103335859Y-89870059D01*
X103335861Y-89870060D01*
X103581370Y-90019358D01*
X103581382Y-90019365D01*
X103768237Y-90100526D01*
X103844942Y-90133844D01*
X104121642Y-90211371D01*
X104406322Y-90250500D01*
X104406328Y-90250500D01*
X104693672Y-90250500D01*
X104693678Y-90250500D01*
X104978358Y-90211371D01*
X105255058Y-90133844D01*
X105417221Y-90063407D01*
X105518617Y-90019365D01*
X105518620Y-90019362D01*
X105518625Y-90019361D01*
X105764147Y-89870055D01*
X105987053Y-89688708D01*
X106183189Y-89478698D01*
X106348901Y-89243936D01*
X106475301Y-88999997D01*
X112494353Y-88999997D01*
X112494353Y-89000002D01*
X112514834Y-89142456D01*
X112561179Y-89243936D01*
X112574623Y-89273373D01*
X112638756Y-89347387D01*
X112668873Y-89382144D01*
X112770462Y-89447431D01*
X112789947Y-89459953D01*
X112892020Y-89489924D01*
X112928035Y-89500499D01*
X112928036Y-89500499D01*
X112928039Y-89500500D01*
X112928041Y-89500500D01*
X113071959Y-89500500D01*
X113071961Y-89500500D01*
X113210053Y-89459953D01*
X113331128Y-89382143D01*
X113425377Y-89273373D01*
X113485165Y-89142457D01*
X113505647Y-89000000D01*
X113504036Y-88988797D01*
X113485165Y-88857543D01*
X113454319Y-88790000D01*
X113425377Y-88726627D01*
X113331128Y-88617857D01*
X113331127Y-88617856D01*
X113331126Y-88617855D01*
X113210057Y-88540049D01*
X113210054Y-88540047D01*
X113210053Y-88540047D01*
X113210050Y-88540046D01*
X113071964Y-88499500D01*
X113071961Y-88499500D01*
X112928039Y-88499500D01*
X112928035Y-88499500D01*
X112789949Y-88540046D01*
X112789942Y-88540049D01*
X112668873Y-88617855D01*
X112574622Y-88726628D01*
X112514834Y-88857543D01*
X112494353Y-88999997D01*
X106475301Y-88999997D01*
X106481104Y-88988797D01*
X106577334Y-88718032D01*
X106635798Y-88436686D01*
X106649252Y-88239999D01*
X106655408Y-88150003D01*
X106655408Y-88150000D01*
X123645255Y-88150000D01*
X123664217Y-88451399D01*
X123720802Y-88748027D01*
X123720805Y-88748037D01*
X123814127Y-89035252D01*
X123942706Y-89308495D01*
X123942707Y-89308496D01*
X124104519Y-89563473D01*
X124185310Y-89661133D01*
X124898931Y-88947511D01*
X124982140Y-89062039D01*
X125137961Y-89217860D01*
X125252485Y-89301067D01*
X124536566Y-90016987D01*
X124761483Y-90180400D01*
X125026107Y-90325877D01*
X125026110Y-90325879D01*
X125306892Y-90437047D01*
X125599402Y-90512150D01*
X125599398Y-90512150D01*
X125899005Y-90550000D01*
X126200995Y-90550000D01*
X126500599Y-90512150D01*
X126793107Y-90437047D01*
X127073887Y-90325879D01*
X127338518Y-90180397D01*
X127338531Y-90180389D01*
X127563432Y-90016987D01*
X126847512Y-89301067D01*
X126962039Y-89217860D01*
X127117860Y-89062039D01*
X127201067Y-88947512D01*
X127914688Y-89661133D01*
X127995479Y-89563474D01*
X127995480Y-89563473D01*
X128157286Y-89308508D01*
X128157293Y-89308495D01*
X128285872Y-89035252D01*
X128379194Y-88748037D01*
X128379197Y-88748027D01*
X128435782Y-88451399D01*
X128439519Y-88391999D01*
X137366750Y-88391999D01*
X137366750Y-88392000D01*
X137385669Y-88535708D01*
X137385670Y-88535709D01*
X137414700Y-88605796D01*
X137441139Y-88669625D01*
X137529379Y-88784621D01*
X137644375Y-88872861D01*
X137778291Y-88928330D01*
X137922000Y-88947250D01*
X138065709Y-88928330D01*
X138199625Y-88872861D01*
X138314621Y-88784621D01*
X138402861Y-88669625D01*
X138458330Y-88535709D01*
X138477250Y-88392000D01*
X138458330Y-88248291D01*
X138402861Y-88114375D01*
X138314621Y-87999379D01*
X138199625Y-87911139D01*
X138199621Y-87911137D01*
X138065709Y-87855670D01*
X138065708Y-87855669D01*
X137922000Y-87836750D01*
X137778291Y-87855669D01*
X137778290Y-87855670D01*
X137644378Y-87911137D01*
X137644374Y-87911139D01*
X137529381Y-87999377D01*
X137529377Y-87999381D01*
X137441139Y-88114374D01*
X137441137Y-88114378D01*
X137385670Y-88248290D01*
X137385669Y-88248291D01*
X137366750Y-88391999D01*
X128439519Y-88391999D01*
X128454744Y-88150000D01*
X128435782Y-87848600D01*
X128379197Y-87551972D01*
X128379194Y-87551962D01*
X128285872Y-87264747D01*
X128198934Y-87079996D01*
X147444417Y-87079996D01*
X147444417Y-87080003D01*
X147464698Y-87285929D01*
X147464699Y-87285934D01*
X147524768Y-87483954D01*
X147622316Y-87666452D01*
X147748879Y-87820670D01*
X147753590Y-87826410D01*
X147753595Y-87826414D01*
X147913547Y-87957683D01*
X147913548Y-87957683D01*
X147913550Y-87957685D01*
X148096046Y-88055232D01*
X148233997Y-88097078D01*
X148294065Y-88115300D01*
X148294070Y-88115301D01*
X148499997Y-88135583D01*
X148500000Y-88135583D01*
X148500003Y-88135583D01*
X148705929Y-88115301D01*
X148705934Y-88115300D01*
X148708987Y-88114374D01*
X148903954Y-88055232D01*
X149086450Y-87957685D01*
X149246410Y-87826410D01*
X149377685Y-87666450D01*
X149475232Y-87483954D01*
X149535300Y-87285934D01*
X149535301Y-87285929D01*
X149555583Y-87080003D01*
X149555583Y-87079996D01*
X149535301Y-86874070D01*
X149535300Y-86874065D01*
X149517078Y-86813997D01*
X149475232Y-86676046D01*
X149377685Y-86493550D01*
X149333776Y-86440047D01*
X149246414Y-86333595D01*
X149246410Y-86333590D01*
X149181883Y-86280634D01*
X149086452Y-86202316D01*
X148903954Y-86104768D01*
X148705934Y-86044699D01*
X148705929Y-86044698D01*
X148500003Y-86024417D01*
X148499997Y-86024417D01*
X148294070Y-86044698D01*
X148294065Y-86044699D01*
X148096045Y-86104768D01*
X147913547Y-86202316D01*
X147753595Y-86333585D01*
X147753585Y-86333595D01*
X147622316Y-86493547D01*
X147524768Y-86676045D01*
X147464699Y-86874065D01*
X147464698Y-86874070D01*
X147444417Y-87079996D01*
X128198934Y-87079996D01*
X128157293Y-86991504D01*
X128157286Y-86991491D01*
X127995480Y-86736526D01*
X127914688Y-86638865D01*
X127201067Y-87352485D01*
X127117860Y-87237961D01*
X126962039Y-87082140D01*
X126847511Y-86998931D01*
X127563433Y-86283010D01*
X127338522Y-86119603D01*
X127338518Y-86119600D01*
X127073892Y-85974122D01*
X127073889Y-85974120D01*
X126793107Y-85862952D01*
X126500597Y-85787849D01*
X126500601Y-85787849D01*
X126200995Y-85750000D01*
X125899005Y-85750000D01*
X125599400Y-85787849D01*
X125306892Y-85862952D01*
X125026110Y-85974120D01*
X125026107Y-85974122D01*
X124761487Y-86119597D01*
X124761468Y-86119609D01*
X124536565Y-86283010D01*
X125252487Y-86998932D01*
X125137961Y-87082140D01*
X124982140Y-87237961D01*
X124898932Y-87352487D01*
X124185310Y-86638865D01*
X124104522Y-86736523D01*
X123942707Y-86991503D01*
X123942706Y-86991504D01*
X123814127Y-87264747D01*
X123720805Y-87551962D01*
X123720802Y-87551972D01*
X123664217Y-87848600D01*
X123645255Y-88150000D01*
X106655408Y-88150000D01*
X106655408Y-88149996D01*
X106635798Y-87863317D01*
X106635798Y-87863314D01*
X106577334Y-87581968D01*
X106481104Y-87311203D01*
X106348901Y-87056064D01*
X106238738Y-86899997D01*
X122069353Y-86899997D01*
X122069353Y-86900002D01*
X122089834Y-87042456D01*
X122149622Y-87173371D01*
X122149623Y-87173373D01*
X122243872Y-87282143D01*
X122243873Y-87282144D01*
X122364942Y-87359950D01*
X122364947Y-87359953D01*
X122471403Y-87391211D01*
X122503035Y-87400499D01*
X122503036Y-87400499D01*
X122503039Y-87400500D01*
X122503041Y-87400500D01*
X122646959Y-87400500D01*
X122646961Y-87400500D01*
X122785053Y-87359953D01*
X122906128Y-87282143D01*
X123000377Y-87173373D01*
X123060165Y-87042457D01*
X123067493Y-86991491D01*
X123080647Y-86900002D01*
X123080647Y-86899997D01*
X123060165Y-86757543D01*
X123022946Y-86676046D01*
X123000377Y-86626627D01*
X122906128Y-86517857D01*
X122906127Y-86517856D01*
X122906126Y-86517855D01*
X122785057Y-86440049D01*
X122785054Y-86440047D01*
X122785053Y-86440047D01*
X122785050Y-86440046D01*
X122646964Y-86399500D01*
X122646961Y-86399500D01*
X122503039Y-86399500D01*
X122503035Y-86399500D01*
X122364949Y-86440046D01*
X122364942Y-86440049D01*
X122243873Y-86517855D01*
X122149622Y-86626628D01*
X122089834Y-86757543D01*
X122069353Y-86899997D01*
X106238738Y-86899997D01*
X106183189Y-86821302D01*
X105987053Y-86611292D01*
X105764147Y-86429945D01*
X105764142Y-86429942D01*
X105764138Y-86429939D01*
X105518629Y-86280641D01*
X105518617Y-86280634D01*
X105255063Y-86166158D01*
X105255061Y-86166157D01*
X105255058Y-86166156D01*
X104978358Y-86088629D01*
X104693678Y-86049500D01*
X104406322Y-86049500D01*
X104121642Y-86088629D01*
X103844942Y-86166156D01*
X103844939Y-86166156D01*
X103844936Y-86166158D01*
X103581382Y-86280634D01*
X103581370Y-86280641D01*
X103335861Y-86429939D01*
X103335847Y-86429949D01*
X103112952Y-86611287D01*
X103112951Y-86611288D01*
X102916810Y-86821303D01*
X102916805Y-86821309D01*
X102751098Y-87056065D01*
X102618895Y-87311204D01*
X102601571Y-87359950D01*
X102530649Y-87559508D01*
X102522665Y-87581972D01*
X102464203Y-87863308D01*
X102464201Y-87863317D01*
X102444592Y-88149996D01*
X96245678Y-88149996D01*
X96180498Y-87992639D01*
X96180491Y-87992625D01*
X96065594Y-87820670D01*
X95919329Y-87674405D01*
X95747374Y-87559508D01*
X95747360Y-87559501D01*
X95556272Y-87480349D01*
X95353418Y-87440000D01*
X95200001Y-87440000D01*
X95200000Y-87440001D01*
X95200000Y-88190000D01*
X94700000Y-88190000D01*
X94700000Y-87440001D01*
X94699999Y-87440000D01*
X94546581Y-87440000D01*
X94343727Y-87480349D01*
X94152639Y-87559501D01*
X94152625Y-87559508D01*
X93980670Y-87674405D01*
X93834405Y-87820670D01*
X93719508Y-87992625D01*
X93719501Y-87992639D01*
X93640351Y-88183723D01*
X93640349Y-88183730D01*
X93629157Y-88240000D01*
X94483012Y-88240000D01*
X94465795Y-88249940D01*
X94409940Y-88305795D01*
X94370444Y-88374204D01*
X94350000Y-88450504D01*
X94350000Y-88529496D01*
X94370444Y-88605796D01*
X94409940Y-88674205D01*
X94465795Y-88730060D01*
X94483012Y-88740000D01*
X93629157Y-88740000D01*
X93640349Y-88796269D01*
X93640351Y-88796276D01*
X93719501Y-88987360D01*
X93719508Y-88987374D01*
X93834405Y-89159329D01*
X93980667Y-89305591D01*
X93985296Y-89308684D01*
X94023176Y-89356734D01*
X94025578Y-89417872D01*
X93991586Y-89468746D01*
X93934183Y-89489924D01*
X93930295Y-89490000D01*
X92169705Y-89490000D01*
X92111514Y-89471093D01*
X92075550Y-89421593D01*
X92075550Y-89360407D01*
X92111514Y-89310907D01*
X92114704Y-89308684D01*
X92119332Y-89305591D01*
X92265594Y-89159329D01*
X92380491Y-88987374D01*
X92380498Y-88987360D01*
X92459648Y-88796276D01*
X92459650Y-88796269D01*
X92470843Y-88740000D01*
X91616988Y-88740000D01*
X91634205Y-88730060D01*
X91690060Y-88674205D01*
X91729556Y-88605796D01*
X91750000Y-88529496D01*
X91750000Y-88450504D01*
X91729556Y-88374204D01*
X91690060Y-88305795D01*
X91634205Y-88249940D01*
X91616988Y-88240000D01*
X92470842Y-88240000D01*
X92459650Y-88183730D01*
X92459648Y-88183723D01*
X92380498Y-87992639D01*
X92380491Y-87992625D01*
X92265594Y-87820670D01*
X92119329Y-87674405D01*
X91947374Y-87559508D01*
X91947360Y-87559501D01*
X91756272Y-87480349D01*
X91553418Y-87440000D01*
X91200001Y-87440000D01*
X91200000Y-87440001D01*
X91200000Y-88190000D01*
X90700000Y-88190000D01*
X90700000Y-87440001D01*
X90699999Y-87440000D01*
X90346581Y-87440000D01*
X90143727Y-87480349D01*
X89952639Y-87559501D01*
X89952625Y-87559508D01*
X89780670Y-87674405D01*
X89669004Y-87786072D01*
X89614487Y-87813849D01*
X89554055Y-87804278D01*
X89510790Y-87761013D01*
X89500000Y-87716068D01*
X89500000Y-84599997D01*
X122394353Y-84599997D01*
X122394353Y-84600002D01*
X122414834Y-84742456D01*
X122474622Y-84873371D01*
X122474623Y-84873373D01*
X122568872Y-84982143D01*
X122568873Y-84982144D01*
X122689942Y-85059950D01*
X122689947Y-85059953D01*
X122796403Y-85091211D01*
X122828035Y-85100499D01*
X122828036Y-85100499D01*
X122828039Y-85100500D01*
X122828041Y-85100500D01*
X122971959Y-85100500D01*
X122971961Y-85100500D01*
X123075836Y-85070000D01*
X135887155Y-85070000D01*
X135927595Y-85209195D01*
X135927595Y-85209196D01*
X136009261Y-85347285D01*
X136122714Y-85460738D01*
X136260804Y-85542404D01*
X136414872Y-85587165D01*
X136414878Y-85587167D01*
X136449999Y-85589930D01*
X136450000Y-85589930D01*
X136450000Y-85070001D01*
X136950000Y-85070001D01*
X136950000Y-85589930D01*
X136985121Y-85587167D01*
X136985127Y-85587165D01*
X137139195Y-85542404D01*
X137139196Y-85542404D01*
X137277285Y-85460738D01*
X137390738Y-85347285D01*
X137472404Y-85209196D01*
X137472404Y-85209195D01*
X137512844Y-85070000D01*
X136950001Y-85070000D01*
X136950000Y-85070001D01*
X136450000Y-85070001D01*
X136449999Y-85070000D01*
X135887155Y-85070000D01*
X123075836Y-85070000D01*
X123110053Y-85059953D01*
X123231128Y-84982143D01*
X123325377Y-84873373D01*
X123385165Y-84742457D01*
X123405647Y-84600000D01*
X123397020Y-84540000D01*
X123385165Y-84457543D01*
X123325377Y-84326627D01*
X123231128Y-84217857D01*
X123231127Y-84217856D01*
X123231126Y-84217855D01*
X123110057Y-84140049D01*
X123110054Y-84140047D01*
X123110053Y-84140047D01*
X123096427Y-84136046D01*
X122971964Y-84099500D01*
X122971961Y-84099500D01*
X122828039Y-84099500D01*
X122828035Y-84099500D01*
X122689949Y-84140046D01*
X122689942Y-84140049D01*
X122568873Y-84217855D01*
X122474622Y-84326628D01*
X122414834Y-84457543D01*
X122394353Y-84599997D01*
X89500000Y-84599997D01*
X89500000Y-81535377D01*
X102359733Y-81535377D01*
X102359733Y-81535382D01*
X102380214Y-81677836D01*
X102413171Y-81750000D01*
X102440003Y-81808753D01*
X102527734Y-81910001D01*
X102534253Y-81917524D01*
X102648096Y-81990686D01*
X102655327Y-81995333D01*
X102754662Y-82024500D01*
X102793415Y-82035879D01*
X102793416Y-82035879D01*
X102793419Y-82035880D01*
X102793421Y-82035880D01*
X102937339Y-82035880D01*
X102937341Y-82035880D01*
X103075433Y-81995333D01*
X103196508Y-81917523D01*
X103290757Y-81808753D01*
X103350545Y-81677837D01*
X103350544Y-81677837D01*
X103350546Y-81677835D01*
X103368011Y-81556357D01*
X103395006Y-81501449D01*
X103396000Y-81500441D01*
X103496946Y-81399496D01*
X103551462Y-81371719D01*
X103566949Y-81370500D01*
X108753810Y-81370500D01*
X108812001Y-81389407D01*
X108823813Y-81399496D01*
X109074788Y-81650470D01*
X109084608Y-81656140D01*
X109125548Y-81701610D01*
X109131942Y-81762460D01*
X109101348Y-81815448D01*
X109088631Y-81825158D01*
X109068873Y-81837856D01*
X108974622Y-81946628D01*
X108914834Y-82077543D01*
X108896475Y-82205241D01*
X108894353Y-82220000D01*
X108897168Y-82239586D01*
X108898070Y-82245855D01*
X108887635Y-82306144D01*
X108870081Y-82329946D01*
X107704525Y-83495504D01*
X107650008Y-83523281D01*
X107634521Y-83524500D01*
X106451416Y-83524500D01*
X106393225Y-83505593D01*
X106376599Y-83490333D01*
X106331128Y-83437857D01*
X106331127Y-83437856D01*
X106331126Y-83437855D01*
X106210057Y-83360049D01*
X106210054Y-83360047D01*
X106210053Y-83360047D01*
X106194445Y-83355464D01*
X106071964Y-83319500D01*
X106071961Y-83319500D01*
X105928039Y-83319500D01*
X105928035Y-83319500D01*
X105789949Y-83360046D01*
X105789942Y-83360049D01*
X105668873Y-83437855D01*
X105574622Y-83546628D01*
X105514834Y-83677543D01*
X105494353Y-83819997D01*
X105494353Y-83820002D01*
X105514834Y-83962456D01*
X105536324Y-84009511D01*
X105574623Y-84093373D01*
X105651542Y-84182143D01*
X105668873Y-84202144D01*
X105789942Y-84279950D01*
X105789947Y-84279953D01*
X105896403Y-84311211D01*
X105928035Y-84320499D01*
X105928036Y-84320499D01*
X105928039Y-84320500D01*
X105928041Y-84320500D01*
X106071959Y-84320500D01*
X106071961Y-84320500D01*
X106210053Y-84279953D01*
X106331128Y-84202143D01*
X106367932Y-84159668D01*
X106420327Y-84128073D01*
X106442751Y-84125500D01*
X107839563Y-84125500D01*
X107839563Y-84125499D01*
X107915989Y-84105021D01*
X107984511Y-84065460D01*
X108040460Y-84009511D01*
X109149971Y-82900000D01*
X122119678Y-82900000D01*
X122138534Y-83079407D01*
X122138916Y-83083034D01*
X122195784Y-83258054D01*
X122195790Y-83258068D01*
X122240746Y-83335932D01*
X122287805Y-83417440D01*
X122410950Y-83554207D01*
X122559839Y-83662381D01*
X122559843Y-83662383D01*
X122559845Y-83662384D01*
X122589246Y-83675474D01*
X122727966Y-83737236D01*
X122907981Y-83775500D01*
X122907983Y-83775500D01*
X123092017Y-83775500D01*
X123092019Y-83775500D01*
X123272034Y-83737236D01*
X123440161Y-83662381D01*
X123589050Y-83554207D01*
X123712195Y-83417440D01*
X123800746Y-83264066D01*
X123804209Y-83258068D01*
X123804209Y-83258066D01*
X123804214Y-83258059D01*
X123861085Y-83083029D01*
X123880322Y-82900000D01*
X124619678Y-82900000D01*
X124638534Y-83079407D01*
X124638916Y-83083034D01*
X124695784Y-83258054D01*
X124695790Y-83258068D01*
X124740746Y-83335932D01*
X124787805Y-83417440D01*
X124910950Y-83554207D01*
X125059839Y-83662381D01*
X125059843Y-83662383D01*
X125059845Y-83662384D01*
X125089246Y-83675474D01*
X125227966Y-83737236D01*
X125407981Y-83775500D01*
X125407983Y-83775500D01*
X125592017Y-83775500D01*
X125592019Y-83775500D01*
X125772034Y-83737236D01*
X125940161Y-83662381D01*
X126089050Y-83554207D01*
X126212195Y-83417440D01*
X126300746Y-83264066D01*
X126304209Y-83258068D01*
X126304209Y-83258066D01*
X126304214Y-83258059D01*
X126361085Y-83083029D01*
X126380322Y-82900000D01*
X126361085Y-82716971D01*
X126304214Y-82541941D01*
X126304211Y-82541936D01*
X126304209Y-82541931D01*
X126245700Y-82440593D01*
X126212195Y-82382560D01*
X126089050Y-82245793D01*
X126033251Y-82205253D01*
X127124500Y-82205253D01*
X127124500Y-83594746D01*
X127124501Y-83594758D01*
X127136132Y-83653227D01*
X127136134Y-83653233D01*
X127152378Y-83677543D01*
X127180448Y-83719552D01*
X127246769Y-83763867D01*
X127291231Y-83772711D01*
X127305241Y-83775498D01*
X127305246Y-83775498D01*
X127305252Y-83775500D01*
X127305253Y-83775500D01*
X128694747Y-83775500D01*
X128694748Y-83775500D01*
X128753231Y-83763867D01*
X128819552Y-83719552D01*
X128863867Y-83653231D01*
X128875500Y-83594748D01*
X128875500Y-82205252D01*
X128863867Y-82146769D01*
X128819552Y-82080448D01*
X128819548Y-82080445D01*
X128753233Y-82036134D01*
X128753231Y-82036133D01*
X128753228Y-82036132D01*
X128753227Y-82036132D01*
X128694758Y-82024501D01*
X128694748Y-82024500D01*
X127305252Y-82024500D01*
X127305251Y-82024500D01*
X127305241Y-82024501D01*
X127246772Y-82036132D01*
X127246766Y-82036134D01*
X127180451Y-82080445D01*
X127180445Y-82080451D01*
X127136134Y-82146766D01*
X127136132Y-82146772D01*
X127124501Y-82205241D01*
X127124500Y-82205253D01*
X126033251Y-82205253D01*
X125940161Y-82137619D01*
X125940157Y-82137617D01*
X125940154Y-82137615D01*
X125772036Y-82062765D01*
X125772034Y-82062764D01*
X125772031Y-82062763D01*
X125772030Y-82062763D01*
X125725135Y-82052795D01*
X125592019Y-82024500D01*
X125407981Y-82024500D01*
X125310797Y-82045157D01*
X125227969Y-82062763D01*
X125227963Y-82062765D01*
X125059845Y-82137615D01*
X125059842Y-82137617D01*
X124910948Y-82245794D01*
X124787803Y-82382562D01*
X124787803Y-82382563D01*
X124695790Y-82541931D01*
X124695784Y-82541945D01*
X124638916Y-82716965D01*
X124638915Y-82716969D01*
X124638915Y-82716971D01*
X124619678Y-82900000D01*
X123880322Y-82900000D01*
X123861085Y-82716971D01*
X123804214Y-82541941D01*
X123804211Y-82541936D01*
X123804209Y-82541931D01*
X123745700Y-82440593D01*
X123712195Y-82382560D01*
X123589050Y-82245793D01*
X123440161Y-82137619D01*
X123440157Y-82137617D01*
X123440154Y-82137615D01*
X123272036Y-82062765D01*
X123272034Y-82062764D01*
X123272031Y-82062763D01*
X123272030Y-82062763D01*
X123225135Y-82052795D01*
X123092019Y-82024500D01*
X122907981Y-82024500D01*
X122810797Y-82045157D01*
X122727969Y-82062763D01*
X122727963Y-82062765D01*
X122559845Y-82137615D01*
X122559842Y-82137617D01*
X122410948Y-82245794D01*
X122287803Y-82382562D01*
X122287803Y-82382563D01*
X122195790Y-82541931D01*
X122195784Y-82541945D01*
X122138916Y-82716965D01*
X122138915Y-82716969D01*
X122138915Y-82716971D01*
X122119678Y-82900000D01*
X109149971Y-82900000D01*
X109300475Y-82749496D01*
X109354992Y-82721719D01*
X109370479Y-82720500D01*
X109471959Y-82720500D01*
X109471961Y-82720500D01*
X109610053Y-82679953D01*
X109731128Y-82602143D01*
X109825377Y-82493373D01*
X109885165Y-82362457D01*
X109893137Y-82307007D01*
X109905647Y-82220002D01*
X109905647Y-82219997D01*
X109885165Y-82077543D01*
X109860941Y-82024500D01*
X109825377Y-81946627D01*
X109810750Y-81929746D01*
X109771398Y-81884331D01*
X109747580Y-81827972D01*
X109761439Y-81768376D01*
X109807680Y-81728309D01*
X109846217Y-81720500D01*
X123776142Y-81720500D01*
X123776144Y-81720500D01*
X123865288Y-81696614D01*
X123945212Y-81650470D01*
X125132625Y-80463055D01*
X125187140Y-80435280D01*
X125223211Y-80436225D01*
X125227964Y-80437235D01*
X125227966Y-80437236D01*
X125327738Y-80458443D01*
X125407980Y-80475500D01*
X125407981Y-80475500D01*
X125592017Y-80475500D01*
X125592019Y-80475500D01*
X125772034Y-80437236D01*
X125940161Y-80362381D01*
X126089050Y-80254207D01*
X126212195Y-80117440D01*
X126304214Y-79958059D01*
X126361085Y-79783029D01*
X126380322Y-79600000D01*
X127119678Y-79600000D01*
X127135920Y-79754538D01*
X127138916Y-79783034D01*
X127195784Y-79958054D01*
X127195790Y-79958068D01*
X127243494Y-80040692D01*
X127287805Y-80117440D01*
X127410950Y-80254207D01*
X127559839Y-80362381D01*
X127559843Y-80362383D01*
X127559845Y-80362384D01*
X127615485Y-80387156D01*
X127727966Y-80437236D01*
X127907981Y-80475500D01*
X127907983Y-80475500D01*
X128092017Y-80475500D01*
X128092019Y-80475500D01*
X128272034Y-80437236D01*
X128440161Y-80362381D01*
X128589050Y-80254207D01*
X128712195Y-80117440D01*
X128804214Y-79958059D01*
X128861085Y-79783029D01*
X128880322Y-79600000D01*
X128861085Y-79416971D01*
X128804214Y-79241941D01*
X128804211Y-79241936D01*
X128804209Y-79241931D01*
X128733810Y-79119999D01*
X128712195Y-79082560D01*
X128589050Y-78945793D01*
X128440161Y-78837619D01*
X128440157Y-78837617D01*
X128440154Y-78837615D01*
X128272036Y-78762765D01*
X128272034Y-78762764D01*
X128272031Y-78762763D01*
X128272030Y-78762763D01*
X128225135Y-78752795D01*
X128092019Y-78724500D01*
X127907981Y-78724500D01*
X127834656Y-78740086D01*
X127727969Y-78762763D01*
X127727963Y-78762765D01*
X127559845Y-78837615D01*
X127559842Y-78837617D01*
X127410948Y-78945794D01*
X127287803Y-79082562D01*
X127287803Y-79082563D01*
X127195790Y-79241931D01*
X127195784Y-79241945D01*
X127138916Y-79416965D01*
X127138915Y-79416969D01*
X127138915Y-79416971D01*
X127119678Y-79600000D01*
X126380322Y-79600000D01*
X126361085Y-79416971D01*
X126304214Y-79241941D01*
X126304211Y-79241936D01*
X126304209Y-79241931D01*
X126233810Y-79119999D01*
X126212195Y-79082560D01*
X126089050Y-78945793D01*
X125940161Y-78837619D01*
X125940157Y-78837617D01*
X125940154Y-78837615D01*
X125772036Y-78762765D01*
X125772034Y-78762764D01*
X125772031Y-78762763D01*
X125772030Y-78762763D01*
X125725135Y-78752795D01*
X125592019Y-78724500D01*
X125407981Y-78724500D01*
X125334656Y-78740086D01*
X125227969Y-78762763D01*
X125227963Y-78762765D01*
X125059845Y-78837615D01*
X125059842Y-78837617D01*
X124910948Y-78945794D01*
X124787803Y-79082562D01*
X124787803Y-79082563D01*
X124695790Y-79241931D01*
X124695784Y-79241945D01*
X124638916Y-79416965D01*
X124619678Y-79600000D01*
X124638915Y-79783031D01*
X124664892Y-79862979D01*
X124664891Y-79924164D01*
X124640741Y-79963575D01*
X123613814Y-80990504D01*
X123559297Y-81018281D01*
X123543810Y-81019500D01*
X109476190Y-81019500D01*
X109417999Y-81000593D01*
X109406187Y-80990504D01*
X109155214Y-80739532D01*
X109155212Y-80739530D01*
X109075288Y-80693386D01*
X108986144Y-80669500D01*
X103334616Y-80669500D01*
X103245472Y-80693386D01*
X103245471Y-80693386D01*
X103245469Y-80693387D01*
X103165549Y-80739529D01*
X102899194Y-81005884D01*
X102844678Y-81033661D01*
X102829191Y-81034880D01*
X102793415Y-81034880D01*
X102655329Y-81075426D01*
X102655322Y-81075429D01*
X102534253Y-81153235D01*
X102440002Y-81262008D01*
X102380214Y-81392923D01*
X102359733Y-81535377D01*
X89500000Y-81535377D01*
X89500000Y-79620000D01*
X97110839Y-79620000D01*
X97151651Y-79754538D01*
X97151652Y-79754540D01*
X97244502Y-79928252D01*
X97357028Y-80065363D01*
X97379328Y-80122340D01*
X97379500Y-80128169D01*
X97379500Y-81159746D01*
X97379501Y-81159758D01*
X97391132Y-81218227D01*
X97391134Y-81218233D01*
X97420384Y-81262008D01*
X97435448Y-81284552D01*
X97501769Y-81328867D01*
X97546231Y-81337711D01*
X97560241Y-81340498D01*
X97560246Y-81340498D01*
X97560252Y-81340500D01*
X97560253Y-81340500D01*
X98599747Y-81340500D01*
X98599748Y-81340500D01*
X98658231Y-81328867D01*
X98724552Y-81284552D01*
X98768867Y-81218231D01*
X98773485Y-81195011D01*
X98778425Y-81170184D01*
X98808322Y-81116801D01*
X98863888Y-81091186D01*
X98875522Y-81090500D01*
X99139307Y-81090500D01*
X99139309Y-81090500D01*
X99232968Y-81065404D01*
X99253887Y-81059799D01*
X99356614Y-81000489D01*
X99760489Y-80596614D01*
X99809853Y-80511113D01*
X99819799Y-80493886D01*
X99850500Y-80379309D01*
X99850500Y-79600000D01*
X122119678Y-79600000D01*
X122135920Y-79754538D01*
X122138916Y-79783034D01*
X122195784Y-79958054D01*
X122195790Y-79958068D01*
X122243494Y-80040692D01*
X122287805Y-80117440D01*
X122410950Y-80254207D01*
X122559839Y-80362381D01*
X122559843Y-80362383D01*
X122559845Y-80362384D01*
X122615485Y-80387156D01*
X122727966Y-80437236D01*
X122907981Y-80475500D01*
X122907983Y-80475500D01*
X123092017Y-80475500D01*
X123092019Y-80475500D01*
X123272034Y-80437236D01*
X123440161Y-80362381D01*
X123589050Y-80254207D01*
X123712195Y-80117440D01*
X123804214Y-79958059D01*
X123861085Y-79783029D01*
X123880322Y-79600000D01*
X123861085Y-79416971D01*
X123804214Y-79241941D01*
X123804211Y-79241936D01*
X123804209Y-79241931D01*
X123733810Y-79119999D01*
X123712195Y-79082560D01*
X123589050Y-78945793D01*
X123440161Y-78837619D01*
X123440157Y-78837617D01*
X123440154Y-78837615D01*
X123272036Y-78762765D01*
X123272034Y-78762764D01*
X123272031Y-78762763D01*
X123272030Y-78762763D01*
X123225135Y-78752795D01*
X123092019Y-78724500D01*
X122907981Y-78724500D01*
X122834656Y-78740086D01*
X122727969Y-78762763D01*
X122727963Y-78762765D01*
X122559845Y-78837615D01*
X122559842Y-78837617D01*
X122410948Y-78945794D01*
X122287803Y-79082562D01*
X122287803Y-79082563D01*
X122195790Y-79241931D01*
X122195784Y-79241945D01*
X122138916Y-79416965D01*
X122138915Y-79416969D01*
X122138915Y-79416971D01*
X122119678Y-79600000D01*
X99850500Y-79600000D01*
X99850500Y-79227611D01*
X99869407Y-79169420D01*
X99879496Y-79157607D01*
X101157608Y-77879496D01*
X101212125Y-77851719D01*
X101227612Y-77850500D01*
X131222389Y-77850500D01*
X131280580Y-77869407D01*
X131292393Y-77879496D01*
X133670504Y-80257607D01*
X133698281Y-80312124D01*
X133699500Y-80327611D01*
X133699500Y-80360781D01*
X133690226Y-80402618D01*
X133685933Y-80411823D01*
X133685933Y-80411824D01*
X133685932Y-80411827D01*
X133682845Y-80435280D01*
X133679500Y-80460685D01*
X133679500Y-80909314D01*
X133685932Y-80958174D01*
X133685932Y-80958175D01*
X133735933Y-81065401D01*
X133735934Y-81065402D01*
X133735935Y-81065404D01*
X133770505Y-81099974D01*
X133798281Y-81154489D01*
X133799500Y-81169976D01*
X133799500Y-82286143D01*
X133815352Y-82345304D01*
X133815351Y-82345304D01*
X133823385Y-82375285D01*
X133823386Y-82375288D01*
X133869530Y-82455212D01*
X134454788Y-83040470D01*
X134473216Y-83051109D01*
X134528497Y-83083026D01*
X134528503Y-83083029D01*
X134534712Y-83086614D01*
X134623856Y-83110500D01*
X134623858Y-83110500D01*
X135447747Y-83110500D01*
X135447748Y-83110500D01*
X135506231Y-83098867D01*
X135572552Y-83054552D01*
X135616867Y-82988231D01*
X135616867Y-82988230D01*
X135618185Y-82986258D01*
X135666235Y-82948379D01*
X135727373Y-82945977D01*
X135778247Y-82979970D01*
X135799424Y-83037374D01*
X135799500Y-83041260D01*
X135799500Y-83239562D01*
X135819979Y-83315989D01*
X135827780Y-83329500D01*
X135859540Y-83384511D01*
X136150505Y-83675476D01*
X136178281Y-83729991D01*
X136179500Y-83745478D01*
X136179500Y-83974316D01*
X136185932Y-84023173D01*
X136185933Y-84023175D01*
X136185935Y-84023182D01*
X136191381Y-84034861D01*
X136198837Y-84095590D01*
X136169172Y-84149103D01*
X136152052Y-84161911D01*
X136122714Y-84179261D01*
X136009261Y-84292714D01*
X135927595Y-84430803D01*
X135927595Y-84430804D01*
X135887155Y-84569999D01*
X135887156Y-84570000D01*
X137512844Y-84570000D01*
X137512844Y-84569999D01*
X137472404Y-84430804D01*
X137472404Y-84430803D01*
X137390738Y-84292714D01*
X137367528Y-84269504D01*
X137339751Y-84214987D01*
X137349322Y-84154555D01*
X137392587Y-84111290D01*
X137437532Y-84100500D01*
X137852917Y-84100500D01*
X137911108Y-84119407D01*
X137927733Y-84134667D01*
X137968872Y-84182143D01*
X138089947Y-84259953D01*
X138158062Y-84279953D01*
X138228035Y-84300499D01*
X138228036Y-84300499D01*
X138228039Y-84300500D01*
X138228041Y-84300500D01*
X138371959Y-84300500D01*
X138371961Y-84300500D01*
X138510053Y-84259953D01*
X138631128Y-84182143D01*
X138725377Y-84073373D01*
X138785165Y-83942457D01*
X138802771Y-83820002D01*
X138805647Y-83800002D01*
X138805647Y-83799997D01*
X138785165Y-83657543D01*
X138783194Y-83653227D01*
X138725377Y-83526627D01*
X138693927Y-83490331D01*
X138688728Y-83484331D01*
X138664910Y-83427971D01*
X138678769Y-83368376D01*
X138725010Y-83328309D01*
X138763547Y-83320500D01*
X138864314Y-83320500D01*
X138864316Y-83320500D01*
X138913173Y-83314068D01*
X139020404Y-83264065D01*
X139104065Y-83180404D01*
X139110275Y-83167085D01*
X139152003Y-83122337D01*
X139212064Y-83110662D01*
X139267517Y-83136519D01*
X139289724Y-83167084D01*
X139295935Y-83180404D01*
X139379596Y-83264065D01*
X139379597Y-83264065D01*
X139379598Y-83264066D01*
X139486824Y-83314067D01*
X139486825Y-83314067D01*
X139486827Y-83314068D01*
X139535684Y-83320500D01*
X139535685Y-83320500D01*
X139884314Y-83320500D01*
X139884316Y-83320500D01*
X139933173Y-83314068D01*
X140040404Y-83264065D01*
X140124065Y-83180404D01*
X140134671Y-83157660D01*
X140176399Y-83112912D01*
X140224395Y-83100500D01*
X140352917Y-83100500D01*
X140411108Y-83119407D01*
X140427733Y-83134667D01*
X140468872Y-83182143D01*
X140589947Y-83259953D01*
X140667247Y-83282650D01*
X140728035Y-83300499D01*
X140728036Y-83300499D01*
X140728039Y-83300500D01*
X140728041Y-83300500D01*
X140871959Y-83300500D01*
X140871961Y-83300500D01*
X141010053Y-83259953D01*
X141131128Y-83182143D01*
X141225377Y-83073373D01*
X141285165Y-82942457D01*
X141291582Y-82897824D01*
X147149999Y-82897824D01*
X147156401Y-82957370D01*
X147156403Y-82957381D01*
X147206646Y-83092088D01*
X147206647Y-83092090D01*
X147292807Y-83207184D01*
X147292815Y-83207192D01*
X147407909Y-83293352D01*
X147407911Y-83293353D01*
X147542618Y-83343596D01*
X147542629Y-83343598D01*
X147602176Y-83350000D01*
X148136639Y-83350000D01*
X148194830Y-83368907D01*
X148230794Y-83418407D01*
X148230794Y-83479593D01*
X148194830Y-83529093D01*
X148165377Y-83543737D01*
X148096045Y-83564768D01*
X147913547Y-83662316D01*
X147753595Y-83793585D01*
X147753585Y-83793595D01*
X147622316Y-83953547D01*
X147524768Y-84136045D01*
X147464699Y-84334065D01*
X147464698Y-84334070D01*
X147444417Y-84539996D01*
X147444417Y-84540003D01*
X147464698Y-84745929D01*
X147464699Y-84745934D01*
X147524768Y-84943954D01*
X147622316Y-85126452D01*
X147690222Y-85209196D01*
X147753590Y-85286410D01*
X147753595Y-85286414D01*
X147913547Y-85417683D01*
X147913548Y-85417683D01*
X147913550Y-85417685D01*
X148096046Y-85515232D01*
X148233997Y-85557078D01*
X148294065Y-85575300D01*
X148294070Y-85575301D01*
X148499997Y-85595583D01*
X148500000Y-85595583D01*
X148500003Y-85595583D01*
X148705929Y-85575301D01*
X148705934Y-85575300D01*
X148903954Y-85515232D01*
X149086450Y-85417685D01*
X149246410Y-85286410D01*
X149377685Y-85126450D01*
X149475232Y-84943954D01*
X149535300Y-84745934D01*
X149535301Y-84745929D01*
X149555583Y-84540003D01*
X149555583Y-84539996D01*
X149535301Y-84334070D01*
X149535300Y-84334065D01*
X149499178Y-84214987D01*
X149475232Y-84136046D01*
X149377685Y-83953550D01*
X149368581Y-83942457D01*
X149251672Y-83800002D01*
X149246410Y-83793590D01*
X149168914Y-83729991D01*
X149086452Y-83662316D01*
X148903954Y-83564768D01*
X148869132Y-83554205D01*
X148834622Y-83543736D01*
X148784426Y-83508752D01*
X148764380Y-83450944D01*
X148782141Y-83392393D01*
X148830925Y-83355464D01*
X148863361Y-83350000D01*
X149397824Y-83350000D01*
X149457370Y-83343598D01*
X149457381Y-83343596D01*
X149592088Y-83293353D01*
X149592090Y-83293352D01*
X149707184Y-83207192D01*
X149707192Y-83207184D01*
X149793352Y-83092090D01*
X149793353Y-83092088D01*
X149843596Y-82957381D01*
X149843598Y-82957370D01*
X149850000Y-82897824D01*
X149850000Y-82250001D01*
X149849999Y-82250000D01*
X148933012Y-82250000D01*
X148965925Y-82192993D01*
X149000000Y-82065826D01*
X149000000Y-81934174D01*
X148965925Y-81807007D01*
X148933012Y-81750000D01*
X149849999Y-81750000D01*
X149850000Y-81749999D01*
X149850000Y-81102175D01*
X149843598Y-81042629D01*
X149843596Y-81042618D01*
X149793353Y-80907911D01*
X149793352Y-80907909D01*
X149707192Y-80792815D01*
X149707184Y-80792807D01*
X149592090Y-80706647D01*
X149592088Y-80706646D01*
X149457381Y-80656403D01*
X149457370Y-80656401D01*
X149397824Y-80650000D01*
X148750001Y-80650000D01*
X148750000Y-80650001D01*
X148750000Y-81566988D01*
X148692993Y-81534075D01*
X148565826Y-81500000D01*
X148434174Y-81500000D01*
X148307007Y-81534075D01*
X148250000Y-81566988D01*
X148250000Y-80650001D01*
X148249999Y-80650000D01*
X147602176Y-80650000D01*
X147542629Y-80656401D01*
X147542618Y-80656403D01*
X147407911Y-80706646D01*
X147407909Y-80706647D01*
X147292815Y-80792807D01*
X147292807Y-80792815D01*
X147206647Y-80907909D01*
X147206646Y-80907911D01*
X147156403Y-81042618D01*
X147156401Y-81042629D01*
X147150000Y-81102175D01*
X147150000Y-81749999D01*
X147150001Y-81750000D01*
X148066988Y-81750000D01*
X148034075Y-81807007D01*
X148000000Y-81934174D01*
X148000000Y-82065826D01*
X148034075Y-82192993D01*
X148066988Y-82250000D01*
X147150001Y-82250000D01*
X147150000Y-82250001D01*
X147150000Y-82897824D01*
X147149999Y-82897824D01*
X141291582Y-82897824D01*
X141305647Y-82800000D01*
X141293709Y-82716971D01*
X141285165Y-82657543D01*
X141247781Y-82575684D01*
X141225377Y-82526627D01*
X141131128Y-82417857D01*
X141131127Y-82417856D01*
X141131126Y-82417855D01*
X141010057Y-82340049D01*
X141010054Y-82340047D01*
X141010053Y-82340047D01*
X140996049Y-82335935D01*
X140871964Y-82299500D01*
X140871961Y-82299500D01*
X140728039Y-82299500D01*
X140728035Y-82299500D01*
X140589949Y-82340046D01*
X140589942Y-82340049D01*
X140468876Y-82417854D01*
X140468875Y-82417855D01*
X140468872Y-82417857D01*
X140429342Y-82463478D01*
X140427736Y-82465331D01*
X140375340Y-82496927D01*
X140352917Y-82499500D01*
X140224395Y-82499500D01*
X140166204Y-82480593D01*
X140134671Y-82442340D01*
X140124066Y-82419598D01*
X140124065Y-82419597D01*
X140124065Y-82419596D01*
X140040404Y-82335935D01*
X140040402Y-82335934D01*
X140040401Y-82335933D01*
X139933175Y-82285932D01*
X139897586Y-82281247D01*
X139884316Y-82279500D01*
X139535684Y-82279500D01*
X139522414Y-82281247D01*
X139486825Y-82285932D01*
X139486824Y-82285932D01*
X139379598Y-82335933D01*
X139295933Y-82419598D01*
X139289724Y-82432915D01*
X139247995Y-82477663D01*
X139187934Y-82489337D01*
X139132482Y-82463478D01*
X139110276Y-82432915D01*
X139104066Y-82419598D01*
X139104065Y-82419597D01*
X139104065Y-82419596D01*
X139020404Y-82335935D01*
X139020402Y-82335934D01*
X139020401Y-82335933D01*
X138913175Y-82285932D01*
X138877586Y-82281247D01*
X138864316Y-82279500D01*
X138515684Y-82279500D01*
X138502414Y-82281247D01*
X138466825Y-82285932D01*
X138466824Y-82285932D01*
X138359598Y-82335933D01*
X138359596Y-82335934D01*
X138359596Y-82335935D01*
X138275935Y-82419596D01*
X138275934Y-82419597D01*
X138269811Y-82425721D01*
X138268326Y-82424236D01*
X138228690Y-82454106D01*
X138196458Y-82459500D01*
X137493739Y-82459500D01*
X137435548Y-82440593D01*
X137399584Y-82391093D01*
X137399584Y-82329907D01*
X137434410Y-82281247D01*
X137453184Y-82267192D01*
X137453192Y-82267184D01*
X137539352Y-82152090D01*
X137539353Y-82152088D01*
X137589596Y-82017381D01*
X137589598Y-82017370D01*
X137596000Y-81957824D01*
X137596000Y-81910001D01*
X137595999Y-81910000D01*
X137125689Y-81910000D01*
X137115988Y-81909524D01*
X137115751Y-81909500D01*
X137115748Y-81909500D01*
X136584252Y-81909500D01*
X136584248Y-81909500D01*
X136584012Y-81909524D01*
X136574311Y-81910000D01*
X136104001Y-81910000D01*
X136104000Y-81910001D01*
X136104000Y-81957829D01*
X136108469Y-81999404D01*
X136095889Y-82059282D01*
X136080040Y-82079987D01*
X135915489Y-82244539D01*
X135859539Y-82300489D01*
X135819978Y-82369009D01*
X135818964Y-82371460D01*
X135817730Y-82372904D01*
X135816734Y-82374630D01*
X135816414Y-82374445D01*
X135779228Y-82417986D01*
X135719733Y-82432270D01*
X135663205Y-82408855D01*
X135631235Y-82356686D01*
X135628500Y-82333575D01*
X135628500Y-82090253D01*
X135628498Y-82090241D01*
X135616379Y-82029315D01*
X135616379Y-81990685D01*
X135628498Y-81929758D01*
X135628500Y-81929746D01*
X135628500Y-81590253D01*
X135628498Y-81590241D01*
X135622915Y-81562175D01*
X136104000Y-81562175D01*
X136104000Y-81609999D01*
X136104001Y-81610000D01*
X136699999Y-81610000D01*
X136700000Y-81609999D01*
X136700000Y-81110001D01*
X137000000Y-81110001D01*
X137000000Y-81609999D01*
X137000001Y-81610000D01*
X137595999Y-81610000D01*
X137596000Y-81609999D01*
X137596000Y-81562175D01*
X137589598Y-81502629D01*
X137589596Y-81502618D01*
X137539353Y-81367911D01*
X137539352Y-81367909D01*
X137453192Y-81252815D01*
X137453184Y-81252807D01*
X137338090Y-81166647D01*
X137338088Y-81166646D01*
X137203381Y-81116403D01*
X137203370Y-81116401D01*
X137143824Y-81110000D01*
X137000001Y-81110000D01*
X137000000Y-81110001D01*
X136700000Y-81110001D01*
X136699999Y-81110000D01*
X136556176Y-81110000D01*
X136496629Y-81116401D01*
X136496618Y-81116403D01*
X136361911Y-81166646D01*
X136361909Y-81166647D01*
X136246815Y-81252807D01*
X136246807Y-81252815D01*
X136160647Y-81367909D01*
X136160646Y-81367911D01*
X136110403Y-81502618D01*
X136110401Y-81502629D01*
X136104000Y-81562175D01*
X135622915Y-81562175D01*
X135621758Y-81556357D01*
X135616867Y-81531769D01*
X135572552Y-81465448D01*
X135514497Y-81426656D01*
X135476618Y-81378605D01*
X135470500Y-81344341D01*
X135470500Y-81219976D01*
X135489407Y-81161785D01*
X135499496Y-81149972D01*
X135500402Y-81149065D01*
X135500404Y-81149065D01*
X135584065Y-81065404D01*
X135634068Y-80958173D01*
X135640500Y-80909316D01*
X135640500Y-80460684D01*
X135634068Y-80411827D01*
X135634066Y-80411823D01*
X135584066Y-80304598D01*
X135584065Y-80304597D01*
X135584065Y-80304596D01*
X135500404Y-80220935D01*
X135500402Y-80220934D01*
X135500401Y-80220933D01*
X135393175Y-80170932D01*
X135360601Y-80166644D01*
X135344316Y-80164500D01*
X134995684Y-80164500D01*
X134979398Y-80166644D01*
X134946825Y-80170932D01*
X134946824Y-80170932D01*
X134839598Y-80220933D01*
X134839596Y-80220934D01*
X134839596Y-80220935D01*
X134769501Y-80291029D01*
X134714987Y-80318805D01*
X134654555Y-80309234D01*
X134611290Y-80265969D01*
X134600500Y-80221024D01*
X134600500Y-80040692D01*
X134588377Y-79995448D01*
X134569799Y-79926114D01*
X134554839Y-79900202D01*
X134510490Y-79823386D01*
X132580812Y-77893709D01*
X149549500Y-77893709D01*
X149549500Y-78106290D01*
X149582752Y-78316238D01*
X149648443Y-78518412D01*
X149744948Y-78707815D01*
X149744950Y-78707819D01*
X149869891Y-78879786D01*
X149869893Y-78879788D01*
X149869896Y-78879792D01*
X150020208Y-79030104D01*
X150020211Y-79030106D01*
X150020213Y-79030108D01*
X150192180Y-79155049D01*
X150192184Y-79155051D01*
X150381588Y-79251557D01*
X150583757Y-79317246D01*
X150583758Y-79317246D01*
X150583761Y-79317247D01*
X150793710Y-79350500D01*
X150793713Y-79350500D01*
X151006290Y-79350500D01*
X151216238Y-79317247D01*
X151216239Y-79317246D01*
X151216243Y-79317246D01*
X151418412Y-79251557D01*
X151607816Y-79155051D01*
X151779792Y-79030104D01*
X151930104Y-78879792D01*
X152013402Y-78765141D01*
X152055049Y-78707819D01*
X152055051Y-78707816D01*
X152151557Y-78518412D01*
X152217246Y-78316243D01*
X152250500Y-78106287D01*
X152250500Y-77893713D01*
X152250500Y-77893709D01*
X152217247Y-77683761D01*
X152217246Y-77683757D01*
X152151557Y-77481588D01*
X152055051Y-77292184D01*
X152055049Y-77292180D01*
X151930108Y-77120213D01*
X151930106Y-77120211D01*
X151930104Y-77120208D01*
X151779792Y-76969896D01*
X151779788Y-76969893D01*
X151779786Y-76969891D01*
X151607819Y-76844950D01*
X151607815Y-76844948D01*
X151418412Y-76748443D01*
X151216238Y-76682752D01*
X151006290Y-76649500D01*
X151006287Y-76649500D01*
X150793713Y-76649500D01*
X150793710Y-76649500D01*
X150583761Y-76682752D01*
X150381587Y-76748443D01*
X150192184Y-76844948D01*
X150192180Y-76844950D01*
X150020213Y-76969891D01*
X149869891Y-77120213D01*
X149744950Y-77292180D01*
X149744948Y-77292184D01*
X149648443Y-77481587D01*
X149582752Y-77683761D01*
X149549500Y-77893709D01*
X132580812Y-77893709D01*
X131726614Y-77039511D01*
X131726611Y-77039509D01*
X131726610Y-77039508D01*
X131726609Y-77039507D01*
X131623892Y-76980203D01*
X131623889Y-76980202D01*
X131623887Y-76980201D01*
X131585427Y-76969896D01*
X131585425Y-76969895D01*
X131537169Y-76956965D01*
X131509309Y-76949500D01*
X100940691Y-76949500D01*
X100864573Y-76969896D01*
X100864572Y-76969895D01*
X100826115Y-76980200D01*
X100723386Y-77039510D01*
X99039508Y-78723389D01*
X99039507Y-78723390D01*
X99029868Y-78740086D01*
X98984398Y-78781026D01*
X98923547Y-78787420D01*
X98870560Y-78756826D01*
X98867606Y-78753390D01*
X98790532Y-78659477D01*
X98790523Y-78659468D01*
X98638258Y-78534506D01*
X98638252Y-78534502D01*
X98464540Y-78441652D01*
X98464538Y-78441651D01*
X98330000Y-78400838D01*
X98330000Y-79160382D01*
X98279554Y-79109936D01*
X98205445Y-79067149D01*
X98122787Y-79045000D01*
X98037213Y-79045000D01*
X97954555Y-79067149D01*
X97880446Y-79109936D01*
X97819936Y-79170446D01*
X97777149Y-79244555D01*
X97755000Y-79327213D01*
X97755000Y-79412787D01*
X97777149Y-79495445D01*
X97819936Y-79569554D01*
X97870382Y-79620000D01*
X97110839Y-79620000D01*
X89500000Y-79620000D01*
X89500000Y-77893709D01*
X90549500Y-77893709D01*
X90549500Y-78106290D01*
X90582752Y-78316238D01*
X90648443Y-78518412D01*
X90744948Y-78707815D01*
X90744950Y-78707819D01*
X90869891Y-78879786D01*
X90869893Y-78879788D01*
X90869896Y-78879792D01*
X91020208Y-79030104D01*
X91020211Y-79030106D01*
X91020213Y-79030108D01*
X91192180Y-79155049D01*
X91192184Y-79155051D01*
X91381588Y-79251557D01*
X91583757Y-79317246D01*
X91583758Y-79317246D01*
X91583761Y-79317247D01*
X91793710Y-79350500D01*
X91793713Y-79350500D01*
X92006290Y-79350500D01*
X92216238Y-79317247D01*
X92216239Y-79317246D01*
X92216243Y-79317246D01*
X92418412Y-79251557D01*
X92607816Y-79155051D01*
X92656060Y-79120000D01*
X97110839Y-79120000D01*
X97829999Y-79120000D01*
X97830000Y-79119999D01*
X97830000Y-78400838D01*
X97695461Y-78441651D01*
X97695459Y-78441652D01*
X97521747Y-78534502D01*
X97521741Y-78534506D01*
X97369476Y-78659468D01*
X97369468Y-78659476D01*
X97244506Y-78811741D01*
X97244502Y-78811747D01*
X97151652Y-78985459D01*
X97151651Y-78985461D01*
X97110839Y-79120000D01*
X92656060Y-79120000D01*
X92779792Y-79030104D01*
X92930104Y-78879792D01*
X93013402Y-78765141D01*
X93055049Y-78707819D01*
X93055051Y-78707816D01*
X93151557Y-78518412D01*
X93217246Y-78316243D01*
X93250500Y-78106287D01*
X93250500Y-77893713D01*
X93250500Y-77893709D01*
X93217247Y-77683761D01*
X93217246Y-77683757D01*
X93151557Y-77481588D01*
X93055051Y-77292184D01*
X93055049Y-77292180D01*
X92930108Y-77120213D01*
X92930106Y-77120211D01*
X92930104Y-77120208D01*
X92779792Y-76969896D01*
X92779788Y-76969893D01*
X92779786Y-76969891D01*
X92607819Y-76844950D01*
X92607815Y-76844948D01*
X92418412Y-76748443D01*
X92216238Y-76682752D01*
X92006290Y-76649500D01*
X92006287Y-76649500D01*
X91793713Y-76649500D01*
X91793710Y-76649500D01*
X91583761Y-76682752D01*
X91381587Y-76748443D01*
X91192184Y-76844948D01*
X91192180Y-76844950D01*
X91020213Y-76969891D01*
X90869891Y-77120213D01*
X90744950Y-77292180D01*
X90744948Y-77292184D01*
X90648443Y-77481587D01*
X90582752Y-77683761D01*
X90549500Y-77893709D01*
X89500000Y-77893709D01*
X89500000Y-75699000D01*
X89518907Y-75640809D01*
X89568407Y-75604845D01*
X89599000Y-75600000D01*
X153201000Y-75600000D01*
X153259191Y-75618907D01*
G37*
%TD.AperFunction*%
%TA.AperFunction,Conductor*%
G36*
X153243039Y-75619685D02*
G01*
X153288794Y-75672489D01*
X153300000Y-75724000D01*
X153300000Y-89503500D01*
X153280315Y-89570539D01*
X153227511Y-89616294D01*
X153176000Y-89627500D01*
X149500000Y-89627500D01*
X149500000Y-100227500D01*
X153176000Y-100227500D01*
X153243039Y-100247185D01*
X153288794Y-100299989D01*
X153300000Y-100351500D01*
X153300000Y-110276000D01*
X153280315Y-110343039D01*
X153227511Y-110388794D01*
X153176000Y-110400000D01*
X142778171Y-110400000D01*
X142711132Y-110380315D01*
X142665377Y-110327511D01*
X142655433Y-110258353D01*
X142684458Y-110194797D01*
X142715050Y-110169268D01*
X142790374Y-110124721D01*
X142790383Y-110124714D01*
X142904714Y-110010383D01*
X142904721Y-110010374D01*
X142987031Y-109871195D01*
X143029504Y-109725000D01*
X141420496Y-109725000D01*
X141462968Y-109871195D01*
X141545278Y-110010374D01*
X141545285Y-110010383D01*
X141659616Y-110124714D01*
X141659625Y-110124721D01*
X141734950Y-110169268D01*
X141782634Y-110220337D01*
X141795137Y-110289079D01*
X141768492Y-110353668D01*
X141711156Y-110393598D01*
X141671829Y-110400000D01*
X89624000Y-110400000D01*
X89556961Y-110380315D01*
X89511206Y-110327511D01*
X89500000Y-110276000D01*
X89500000Y-107893713D01*
X90549500Y-107893713D01*
X90549500Y-108106286D01*
X90578547Y-108289685D01*
X90582754Y-108316243D01*
X90591890Y-108344362D01*
X90648444Y-108518414D01*
X90744951Y-108707820D01*
X90869890Y-108879786D01*
X91020213Y-109030109D01*
X91192179Y-109155048D01*
X91192181Y-109155049D01*
X91192184Y-109155051D01*
X91381588Y-109251557D01*
X91583757Y-109317246D01*
X91793713Y-109350500D01*
X91793714Y-109350500D01*
X92006286Y-109350500D01*
X92006287Y-109350500D01*
X92216243Y-109317246D01*
X92418412Y-109251557D01*
X92607816Y-109155051D01*
X92636585Y-109134149D01*
X92779786Y-109030109D01*
X92779788Y-109030106D01*
X92779792Y-109030104D01*
X92930104Y-108879792D01*
X92930106Y-108879788D01*
X92930109Y-108879786D01*
X93009871Y-108770001D01*
X137956841Y-108770001D01*
X137996842Y-108907685D01*
X137996844Y-108907688D01*
X138077226Y-109043608D01*
X138077232Y-109043616D01*
X138188883Y-109155267D01*
X138188891Y-109155273D01*
X138324808Y-109235654D01*
X138324814Y-109235656D01*
X138449999Y-109272025D01*
X138450000Y-109272025D01*
X138450000Y-108770000D01*
X137956843Y-108770000D01*
X137956841Y-108770001D01*
X93009871Y-108770001D01*
X93055048Y-108707820D01*
X93055047Y-108707820D01*
X93055051Y-108707816D01*
X93151557Y-108518412D01*
X93217246Y-108316243D01*
X93224571Y-108269998D01*
X137956841Y-108269998D01*
X137956843Y-108270000D01*
X138450000Y-108270000D01*
X138450000Y-107767972D01*
X138324812Y-107804343D01*
X138324811Y-107804344D01*
X138188891Y-107884726D01*
X138188883Y-107884732D01*
X138077232Y-107996383D01*
X138077226Y-107996391D01*
X137996844Y-108132311D01*
X137996842Y-108132314D01*
X137956841Y-108269998D01*
X93224571Y-108269998D01*
X93250500Y-108106287D01*
X93250500Y-107893713D01*
X93217246Y-107683757D01*
X93151557Y-107481588D01*
X93055051Y-107292184D01*
X93055049Y-107292181D01*
X93055048Y-107292179D01*
X92930109Y-107120213D01*
X92779786Y-106969890D01*
X92607820Y-106844951D01*
X92418414Y-106748444D01*
X92418413Y-106748443D01*
X92418412Y-106748443D01*
X92216243Y-106682754D01*
X92216241Y-106682753D01*
X92216240Y-106682753D01*
X92054957Y-106657208D01*
X92006287Y-106649500D01*
X91793713Y-106649500D01*
X91745042Y-106657208D01*
X91583760Y-106682753D01*
X91583757Y-106682754D01*
X91405779Y-106740583D01*
X91381585Y-106748444D01*
X91192179Y-106844951D01*
X91020213Y-106969890D01*
X90869890Y-107120213D01*
X90744951Y-107292179D01*
X90648444Y-107481585D01*
X90648443Y-107481587D01*
X90648443Y-107481588D01*
X90616304Y-107580500D01*
X90582753Y-107683760D01*
X90549500Y-107893713D01*
X89500000Y-107893713D01*
X89500000Y-105969359D01*
X138249500Y-105969359D01*
X138249500Y-106320632D01*
X138250716Y-106329873D01*
X138255741Y-106368045D01*
X138304253Y-106472079D01*
X138385421Y-106553247D01*
X138489455Y-106601759D01*
X138536861Y-106608000D01*
X138863138Y-106607999D01*
X138910545Y-106601759D01*
X139014579Y-106553247D01*
X139014581Y-106553245D01*
X139023465Y-106547025D01*
X139024678Y-106548758D01*
X139073642Y-106522022D01*
X139143334Y-106527006D01*
X139175898Y-106547934D01*
X139176535Y-106547025D01*
X139185419Y-106553245D01*
X139185421Y-106553247D01*
X139289455Y-106601759D01*
X139336861Y-106608000D01*
X139663138Y-106607999D01*
X139710545Y-106601759D01*
X139726486Y-106594325D01*
X139795560Y-106583833D01*
X139859345Y-106612351D01*
X139897586Y-106670826D01*
X139898666Y-106674614D01*
X139899500Y-106677726D01*
X139899500Y-106677727D01*
X139926769Y-106779500D01*
X139926794Y-106779590D01*
X139926795Y-106779593D01*
X139962388Y-106841240D01*
X139978862Y-106909139D01*
X139956010Y-106975167D01*
X139942683Y-106990922D01*
X139173773Y-107759833D01*
X139172534Y-107758594D01*
X139124119Y-107793941D01*
X139054372Y-107798090D01*
X139047586Y-107796324D01*
X138950000Y-107767972D01*
X138950000Y-109272025D01*
X139075185Y-109235656D01*
X139075191Y-109235654D01*
X139211108Y-109155273D01*
X139211116Y-109155267D01*
X139322765Y-109043618D01*
X139327549Y-109037451D01*
X139328612Y-109038276D01*
X139373686Y-108996193D01*
X139429342Y-108982999D01*
X139570654Y-108982999D01*
X139637693Y-109002684D01*
X139671727Y-109038006D01*
X139672448Y-109037448D01*
X139677232Y-109043616D01*
X139788883Y-109155267D01*
X139788891Y-109155273D01*
X139924808Y-109235654D01*
X139924814Y-109235656D01*
X140049999Y-109272025D01*
X140050000Y-109272025D01*
X140050000Y-108394000D01*
X140069685Y-108326961D01*
X140122489Y-108281206D01*
X140174000Y-108270000D01*
X140426000Y-108270000D01*
X140493039Y-108289685D01*
X140538794Y-108342489D01*
X140550000Y-108394000D01*
X140550000Y-109272025D01*
X140675185Y-109235656D01*
X140675191Y-109235654D01*
X140811108Y-109155273D01*
X140811116Y-109155267D01*
X140922765Y-109043618D01*
X140927549Y-109037451D01*
X140928612Y-109038276D01*
X140973686Y-108996193D01*
X141029342Y-108982999D01*
X141263138Y-108982999D01*
X141263139Y-108982999D01*
X141277357Y-108981127D01*
X141310545Y-108976759D01*
X141310545Y-108976758D01*
X141311629Y-108976616D01*
X141380664Y-108987382D01*
X141432919Y-109033763D01*
X141451803Y-109101033D01*
X141446889Y-109134149D01*
X141420495Y-109225000D01*
X143029504Y-109225000D01*
X142987031Y-109078804D01*
X142904721Y-108939625D01*
X142904714Y-108939616D01*
X142790381Y-108825283D01*
X142784217Y-108820502D01*
X142785733Y-108818547D01*
X142746363Y-108776378D01*
X142733862Y-108707635D01*
X142734226Y-108704576D01*
X142735500Y-108694901D01*
X142735499Y-108335100D01*
X142728972Y-108285513D01*
X142687118Y-108195757D01*
X142675500Y-108143352D01*
X142675500Y-107754500D01*
X142695185Y-107687461D01*
X142747989Y-107641706D01*
X142799500Y-107630500D01*
X143189968Y-107630500D01*
X143189970Y-107630500D01*
X143274006Y-107607982D01*
X143291766Y-107603224D01*
X143291767Y-107603223D01*
X143304548Y-107599799D01*
X143407275Y-107540489D01*
X143620608Y-107327155D01*
X144950000Y-107327155D01*
X144950000Y-107975000D01*
X145866988Y-107975000D01*
X145834075Y-108032007D01*
X145800000Y-108159174D01*
X145800000Y-108290826D01*
X145834075Y-108417993D01*
X145866988Y-108475000D01*
X144950000Y-108475000D01*
X144950000Y-109122844D01*
X144956401Y-109182372D01*
X144956403Y-109182379D01*
X145006645Y-109317086D01*
X145006649Y-109317093D01*
X145092809Y-109432187D01*
X145092812Y-109432190D01*
X145207906Y-109518350D01*
X145207913Y-109518354D01*
X145342620Y-109568596D01*
X145342627Y-109568598D01*
X145402155Y-109574999D01*
X145402172Y-109575000D01*
X146050000Y-109575000D01*
X146050000Y-108658012D01*
X146107007Y-108690925D01*
X146234174Y-108725000D01*
X146365826Y-108725000D01*
X146492993Y-108690925D01*
X146550000Y-108658012D01*
X146550000Y-109575000D01*
X147197828Y-109575000D01*
X147197844Y-109574999D01*
X147257372Y-109568598D01*
X147257379Y-109568596D01*
X147392086Y-109518354D01*
X147392093Y-109518350D01*
X147507187Y-109432190D01*
X147507190Y-109432187D01*
X147593350Y-109317093D01*
X147593354Y-109317086D01*
X147643596Y-109182379D01*
X147643598Y-109182372D01*
X147649999Y-109122844D01*
X147650000Y-109122827D01*
X147650000Y-108475000D01*
X146733012Y-108475000D01*
X146765925Y-108417993D01*
X146800000Y-108290826D01*
X146800000Y-108159174D01*
X146765925Y-108032007D01*
X146733012Y-107975000D01*
X147650000Y-107975000D01*
X147650000Y-107893713D01*
X149549500Y-107893713D01*
X149549500Y-108106286D01*
X149578547Y-108289685D01*
X149582754Y-108316243D01*
X149591890Y-108344362D01*
X149648444Y-108518414D01*
X149744951Y-108707820D01*
X149869890Y-108879786D01*
X150020213Y-109030109D01*
X150192179Y-109155048D01*
X150192181Y-109155049D01*
X150192184Y-109155051D01*
X150381588Y-109251557D01*
X150583757Y-109317246D01*
X150793713Y-109350500D01*
X150793714Y-109350500D01*
X151006286Y-109350500D01*
X151006287Y-109350500D01*
X151216243Y-109317246D01*
X151418412Y-109251557D01*
X151607816Y-109155051D01*
X151636585Y-109134149D01*
X151779786Y-109030109D01*
X151779788Y-109030106D01*
X151779792Y-109030104D01*
X151930104Y-108879792D01*
X151930106Y-108879788D01*
X151930109Y-108879786D01*
X152055048Y-108707820D01*
X152055047Y-108707820D01*
X152055051Y-108707816D01*
X152151557Y-108518412D01*
X152217246Y-108316243D01*
X152250500Y-108106287D01*
X152250500Y-107893713D01*
X152217246Y-107683757D01*
X152151557Y-107481588D01*
X152055051Y-107292184D01*
X152055049Y-107292181D01*
X152055048Y-107292179D01*
X151930109Y-107120213D01*
X151779786Y-106969890D01*
X151607820Y-106844951D01*
X151418414Y-106748444D01*
X151418413Y-106748443D01*
X151418412Y-106748443D01*
X151216243Y-106682754D01*
X151216241Y-106682753D01*
X151216240Y-106682753D01*
X151054957Y-106657208D01*
X151006287Y-106649500D01*
X150793713Y-106649500D01*
X150745042Y-106657208D01*
X150583760Y-106682753D01*
X150583757Y-106682754D01*
X150405779Y-106740583D01*
X150381585Y-106748444D01*
X150192179Y-106844951D01*
X150020213Y-106969890D01*
X149869890Y-107120213D01*
X149744951Y-107292179D01*
X149648444Y-107481585D01*
X149648443Y-107481587D01*
X149648443Y-107481588D01*
X149616304Y-107580500D01*
X149582753Y-107683760D01*
X149549500Y-107893713D01*
X147650000Y-107893713D01*
X147650000Y-107327172D01*
X147649999Y-107327155D01*
X147643598Y-107267627D01*
X147643596Y-107267620D01*
X147593354Y-107132913D01*
X147593350Y-107132906D01*
X147507190Y-107017812D01*
X147507187Y-107017809D01*
X147392093Y-106931649D01*
X147392086Y-106931645D01*
X147257379Y-106881403D01*
X147257372Y-106881401D01*
X147197844Y-106875000D01*
X146797187Y-106875000D01*
X146730148Y-106855315D01*
X146684393Y-106802511D01*
X146674449Y-106733353D01*
X146703474Y-106669797D01*
X146738733Y-106641642D01*
X146886450Y-106562685D01*
X147046410Y-106431410D01*
X147177685Y-106271450D01*
X147275232Y-106088954D01*
X147335300Y-105890934D01*
X147355583Y-105685000D01*
X147335300Y-105479066D01*
X147275232Y-105281046D01*
X147177685Y-105098550D01*
X147125702Y-105035209D01*
X147046410Y-104938589D01*
X146886452Y-104807317D01*
X146886453Y-104807317D01*
X146886450Y-104807315D01*
X146703954Y-104709768D01*
X146505934Y-104649700D01*
X146505932Y-104649699D01*
X146505934Y-104649699D01*
X146300000Y-104629417D01*
X146094067Y-104649699D01*
X145896043Y-104709769D01*
X145785898Y-104768643D01*
X145713550Y-104807315D01*
X145713548Y-104807316D01*
X145713547Y-104807317D01*
X145553589Y-104938589D01*
X145422317Y-105098547D01*
X145324769Y-105281043D01*
X145264699Y-105479067D01*
X145244417Y-105685000D01*
X145264699Y-105890932D01*
X145274110Y-105921955D01*
X145324768Y-106088954D01*
X145422315Y-106271450D01*
X145445745Y-106300000D01*
X145553589Y-106431410D01*
X145650209Y-106510702D01*
X145713550Y-106562685D01*
X145861267Y-106641642D01*
X145911111Y-106690605D01*
X145926571Y-106758743D01*
X145902739Y-106824422D01*
X145847181Y-106866791D01*
X145802813Y-106875000D01*
X145402155Y-106875000D01*
X145342627Y-106881401D01*
X145342620Y-106881403D01*
X145207913Y-106931645D01*
X145207906Y-106931649D01*
X145092812Y-107017809D01*
X145092809Y-107017812D01*
X145006649Y-107132906D01*
X145006645Y-107132913D01*
X144956403Y-107267620D01*
X144956401Y-107267627D01*
X144950000Y-107327155D01*
X143620608Y-107327155D01*
X144076775Y-106870987D01*
X144135926Y-106838688D01*
X144135858Y-106838434D01*
X144136908Y-106838152D01*
X144138098Y-106837503D01*
X144141631Y-106836887D01*
X144143705Y-106836330D01*
X144143709Y-106836330D01*
X144277625Y-106780861D01*
X144392621Y-106692621D01*
X144480861Y-106577625D01*
X144536330Y-106443709D01*
X144555250Y-106300000D01*
X144536330Y-106156291D01*
X144480861Y-106022375D01*
X144392621Y-105907379D01*
X144277625Y-105819139D01*
X144277624Y-105819138D01*
X144277622Y-105819137D01*
X144143712Y-105763671D01*
X144143710Y-105763670D01*
X144143709Y-105763670D01*
X144071854Y-105754210D01*
X144000001Y-105744750D01*
X143999999Y-105744750D01*
X143856291Y-105763670D01*
X143856287Y-105763671D01*
X143722377Y-105819137D01*
X143607379Y-105907379D01*
X143519137Y-106022377D01*
X143463669Y-106156291D01*
X143463669Y-106156293D01*
X143461036Y-106176287D01*
X143432767Y-106240182D01*
X143425779Y-106247777D01*
X143205189Y-106468368D01*
X143143866Y-106501853D01*
X143074175Y-106496869D01*
X143038228Y-106470000D01*
X141496000Y-106470000D01*
X141428961Y-106450315D01*
X141410559Y-106429078D01*
X141408319Y-106431319D01*
X141372000Y-106395000D01*
X140974000Y-106395000D01*
X140906961Y-106375315D01*
X140861206Y-106322511D01*
X140850000Y-106271000D01*
X140850000Y-105895000D01*
X141350000Y-105895000D01*
X141769000Y-105895000D01*
X141836039Y-105914685D01*
X141854440Y-105935921D01*
X141856681Y-105933681D01*
X141893000Y-105970000D01*
X141975000Y-105970000D01*
X142475000Y-105970000D01*
X143029504Y-105970000D01*
X142987031Y-105823804D01*
X142904721Y-105684625D01*
X142904714Y-105684616D01*
X142790383Y-105570285D01*
X142790374Y-105570278D01*
X142651195Y-105487968D01*
X142651190Y-105487966D01*
X142495918Y-105442855D01*
X142495912Y-105442854D01*
X142475000Y-105441209D01*
X142475000Y-105970000D01*
X141975000Y-105970000D01*
X141975000Y-105441210D01*
X141974999Y-105441209D01*
X141954087Y-105442854D01*
X141954081Y-105442855D01*
X141798806Y-105487967D01*
X141798803Y-105487968D01*
X141748923Y-105517467D01*
X141681199Y-105534648D01*
X141617946Y-105513494D01*
X141617826Y-105513699D01*
X141616873Y-105513135D01*
X141614937Y-105512488D01*
X141611479Y-105509945D01*
X141475188Y-105429344D01*
X141475187Y-105429343D01*
X141350000Y-105392972D01*
X141350000Y-105895000D01*
X140850000Y-105895000D01*
X140850000Y-105392972D01*
X140724812Y-105429343D01*
X140724811Y-105429344D01*
X140588891Y-105509726D01*
X140588887Y-105509729D01*
X140477229Y-105621388D01*
X140472446Y-105627555D01*
X140471381Y-105626729D01*
X140426308Y-105668809D01*
X140370655Y-105682000D01*
X140136867Y-105682000D01*
X140121839Y-105683978D01*
X140089455Y-105688241D01*
X140089453Y-105688242D01*
X140089451Y-105688242D01*
X139976905Y-105740724D01*
X139907827Y-105751216D01*
X139844043Y-105722696D01*
X139805804Y-105664220D01*
X139800500Y-105628342D01*
X139800500Y-103145000D01*
X145244417Y-103145000D01*
X145264699Y-103350932D01*
X145264700Y-103350934D01*
X145324768Y-103548954D01*
X145422315Y-103731450D01*
X145422317Y-103731452D01*
X145553589Y-103891410D01*
X145650209Y-103970702D01*
X145713550Y-104022685D01*
X145896046Y-104120232D01*
X146094066Y-104180300D01*
X146094065Y-104180300D01*
X146112529Y-104182118D01*
X146300000Y-104200583D01*
X146505934Y-104180300D01*
X146703954Y-104120232D01*
X146886450Y-104022685D01*
X147046410Y-103891410D01*
X147177685Y-103731450D01*
X147275232Y-103548954D01*
X147335300Y-103350934D01*
X147355583Y-103145000D01*
X147335300Y-102939066D01*
X147275232Y-102741046D01*
X147177685Y-102558550D01*
X147120437Y-102488793D01*
X147046410Y-102398589D01*
X146897435Y-102276330D01*
X146886450Y-102267315D01*
X146703954Y-102169768D01*
X146505934Y-102109700D01*
X146505932Y-102109699D01*
X146505934Y-102109699D01*
X146300000Y-102089417D01*
X146094067Y-102109699D01*
X145896043Y-102169769D01*
X145800457Y-102220862D01*
X145713550Y-102267315D01*
X145713548Y-102267316D01*
X145713547Y-102267317D01*
X145553589Y-102398589D01*
X145422317Y-102558547D01*
X145422315Y-102558550D01*
X145383643Y-102630898D01*
X145324769Y-102741043D01*
X145264699Y-102939067D01*
X145244417Y-103145000D01*
X139800500Y-103145000D01*
X139800500Y-102175832D01*
X139820185Y-102108793D01*
X139836815Y-102088155D01*
X140188151Y-101736818D01*
X140249474Y-101703334D01*
X140275832Y-101700500D01*
X140371962Y-101700500D01*
X140371962Y-101700499D01*
X140510053Y-101659953D01*
X140631128Y-101582143D01*
X140725377Y-101473373D01*
X140785165Y-101342457D01*
X140805647Y-101200000D01*
X140785165Y-101057543D01*
X140725377Y-100926627D01*
X140631128Y-100817857D01*
X140510053Y-100740047D01*
X140510051Y-100740046D01*
X140510049Y-100740045D01*
X140510050Y-100740045D01*
X140371963Y-100699500D01*
X140371961Y-100699500D01*
X140228039Y-100699500D01*
X140228036Y-100699500D01*
X140089949Y-100740045D01*
X139968873Y-100817856D01*
X139874623Y-100926626D01*
X139874622Y-100926628D01*
X139814834Y-101057543D01*
X139794353Y-101200000D01*
X139794353Y-101200001D01*
X139795661Y-101209103D01*
X139785713Y-101278261D01*
X139760603Y-101314424D01*
X139421437Y-101653591D01*
X139360114Y-101687076D01*
X139290423Y-101682092D01*
X139234489Y-101640221D01*
X139229441Y-101632951D01*
X139225376Y-101626626D01*
X139199087Y-101596287D01*
X139131128Y-101517857D01*
X139010053Y-101440047D01*
X139010051Y-101440046D01*
X139010049Y-101440045D01*
X139010050Y-101440045D01*
X138871963Y-101399500D01*
X138871961Y-101399500D01*
X138728039Y-101399500D01*
X138728036Y-101399500D01*
X138589949Y-101440045D01*
X138468873Y-101517856D01*
X138374623Y-101626626D01*
X138374622Y-101626628D01*
X138314834Y-101757543D01*
X138294353Y-101900000D01*
X138314834Y-102042456D01*
X138335703Y-102088151D01*
X138374623Y-102173373D01*
X138374627Y-102173378D01*
X138379418Y-102180833D01*
X138376364Y-102182795D01*
X138398235Y-102230663D01*
X138399500Y-102248332D01*
X138399500Y-105671312D01*
X138379815Y-105738351D01*
X138363181Y-105758993D01*
X138304253Y-105817920D01*
X138255740Y-105921956D01*
X138249500Y-105969359D01*
X89500000Y-105969359D01*
X89500000Y-101650000D01*
X102444592Y-101650000D01*
X102464201Y-101936680D01*
X102522666Y-102218034D01*
X102522667Y-102218037D01*
X102618894Y-102488793D01*
X102618893Y-102488793D01*
X102751098Y-102743935D01*
X102916812Y-102978700D01*
X103001923Y-103069831D01*
X103112947Y-103188708D01*
X103335853Y-103370055D01*
X103576869Y-103516621D01*
X103581382Y-103519365D01*
X103768237Y-103600526D01*
X103844942Y-103633844D01*
X104121642Y-103711371D01*
X104371920Y-103745771D01*
X104406321Y-103750500D01*
X104406322Y-103750500D01*
X104693679Y-103750500D01*
X104724370Y-103746281D01*
X104978358Y-103711371D01*
X105255058Y-103633844D01*
X105368015Y-103584779D01*
X105518617Y-103519365D01*
X105518620Y-103519363D01*
X105518625Y-103519361D01*
X105764147Y-103370055D01*
X105987053Y-103188708D01*
X106047487Y-103123999D01*
X120094750Y-103123999D01*
X120094750Y-103124000D01*
X120113670Y-103267708D01*
X120113671Y-103267712D01*
X120169137Y-103401622D01*
X120169138Y-103401624D01*
X120169139Y-103401625D01*
X120257379Y-103516621D01*
X120372375Y-103604861D01*
X120506291Y-103660330D01*
X120633280Y-103677048D01*
X120649999Y-103679250D01*
X120650000Y-103679250D01*
X120650001Y-103679250D01*
X120664977Y-103677278D01*
X120793709Y-103660330D01*
X120927625Y-103604861D01*
X121042621Y-103516621D01*
X121130861Y-103401625D01*
X121186330Y-103267709D01*
X121205250Y-103124000D01*
X121186330Y-102980291D01*
X121130861Y-102846375D01*
X121042621Y-102731379D01*
X120927625Y-102643139D01*
X120927624Y-102643138D01*
X120927622Y-102643137D01*
X120793712Y-102587671D01*
X120793710Y-102587670D01*
X120793709Y-102587670D01*
X120721854Y-102578210D01*
X120650001Y-102568750D01*
X120649999Y-102568750D01*
X120506291Y-102587670D01*
X120506287Y-102587671D01*
X120372377Y-102643137D01*
X120257379Y-102731379D01*
X120169137Y-102846377D01*
X120113671Y-102980287D01*
X120113670Y-102980291D01*
X120094750Y-103123999D01*
X106047487Y-103123999D01*
X106183189Y-102978698D01*
X106348901Y-102743936D01*
X106481104Y-102488797D01*
X106577334Y-102218032D01*
X106635798Y-101936686D01*
X106649252Y-101739999D01*
X107784750Y-101739999D01*
X107784750Y-101740000D01*
X107803670Y-101883708D01*
X107803671Y-101883712D01*
X107859137Y-102017622D01*
X107859138Y-102017624D01*
X107859139Y-102017625D01*
X107947379Y-102132621D01*
X108062375Y-102220861D01*
X108196291Y-102276330D01*
X108323280Y-102293048D01*
X108339999Y-102295250D01*
X108340000Y-102295250D01*
X108340001Y-102295250D01*
X108354977Y-102293278D01*
X108483709Y-102276330D01*
X108617625Y-102220861D01*
X108732621Y-102132621D01*
X108820861Y-102017625D01*
X108876330Y-101883709D01*
X108895250Y-101740000D01*
X108883401Y-101650000D01*
X123944592Y-101650000D01*
X123964201Y-101936680D01*
X124022666Y-102218034D01*
X124022667Y-102218037D01*
X124118894Y-102488793D01*
X124118893Y-102488793D01*
X124251098Y-102743935D01*
X124416812Y-102978700D01*
X124501923Y-103069831D01*
X124612947Y-103188708D01*
X124835853Y-103370055D01*
X125076869Y-103516621D01*
X125081382Y-103519365D01*
X125268237Y-103600526D01*
X125344942Y-103633844D01*
X125621642Y-103711371D01*
X125871920Y-103745771D01*
X125906321Y-103750500D01*
X125906322Y-103750500D01*
X126193679Y-103750500D01*
X126224370Y-103746281D01*
X126478358Y-103711371D01*
X126755058Y-103633844D01*
X126868015Y-103584779D01*
X127018617Y-103519365D01*
X127018620Y-103519363D01*
X127018625Y-103519361D01*
X127264147Y-103370055D01*
X127487053Y-103188708D01*
X127683189Y-102978698D01*
X127848901Y-102743936D01*
X127981104Y-102488797D01*
X128077334Y-102218032D01*
X128135798Y-101936686D01*
X128155408Y-101650000D01*
X128135798Y-101363314D01*
X128077334Y-101081968D01*
X127981105Y-100811206D01*
X127981106Y-100811206D01*
X127848901Y-100556064D01*
X127738740Y-100400000D01*
X134594353Y-100400000D01*
X134614834Y-100542456D01*
X134674622Y-100673371D01*
X134674623Y-100673373D01*
X134768872Y-100782143D01*
X134889947Y-100859953D01*
X134889950Y-100859954D01*
X134889949Y-100859954D01*
X135028036Y-100900499D01*
X135028038Y-100900500D01*
X135028039Y-100900500D01*
X135171962Y-100900500D01*
X135171962Y-100900499D01*
X135310053Y-100859953D01*
X135431128Y-100782143D01*
X135525377Y-100673373D01*
X135585165Y-100542457D01*
X135605647Y-100400000D01*
X135585165Y-100257543D01*
X135525377Y-100126627D01*
X135525375Y-100126625D01*
X135525374Y-100126622D01*
X135430787Y-100017462D01*
X135401762Y-99953906D01*
X135400500Y-99936260D01*
X135400500Y-99275832D01*
X135420185Y-99208793D01*
X135436814Y-99188156D01*
X139888151Y-94736818D01*
X139949474Y-94703334D01*
X139975832Y-94700500D01*
X140071962Y-94700500D01*
X140071962Y-94700499D01*
X140210053Y-94659953D01*
X140331128Y-94582143D01*
X140425377Y-94473373D01*
X140485165Y-94342457D01*
X140505647Y-94200000D01*
X140485165Y-94057543D01*
X140425377Y-93926627D01*
X140331128Y-93817857D01*
X140210053Y-93740047D01*
X140210051Y-93740046D01*
X140210049Y-93740045D01*
X140210050Y-93740045D01*
X140071963Y-93699500D01*
X140071961Y-93699500D01*
X139928039Y-93699500D01*
X139928036Y-93699500D01*
X139789949Y-93740045D01*
X139668873Y-93817856D01*
X139574623Y-93926626D01*
X139574622Y-93926628D01*
X139514834Y-94057543D01*
X139494353Y-94200000D01*
X139494353Y-94200001D01*
X139495661Y-94209103D01*
X139485713Y-94278261D01*
X139460603Y-94314424D01*
X134915489Y-98859540D01*
X134859541Y-98915487D01*
X134859535Y-98915495D01*
X134819982Y-98984004D01*
X134819979Y-98984009D01*
X134799500Y-99060439D01*
X134799500Y-99936260D01*
X134779815Y-100003299D01*
X134769213Y-100017462D01*
X134674625Y-100126622D01*
X134674622Y-100126628D01*
X134614834Y-100257543D01*
X134594353Y-100400000D01*
X127738740Y-100400000D01*
X127683187Y-100321299D01*
X127595451Y-100227358D01*
X127487053Y-100111292D01*
X127264147Y-99929945D01*
X127264146Y-99929944D01*
X127018617Y-99780634D01*
X126755063Y-99666158D01*
X126755061Y-99666157D01*
X126755058Y-99666156D01*
X126625578Y-99629877D01*
X126478364Y-99588630D01*
X126478359Y-99588629D01*
X126478358Y-99588629D01*
X126336018Y-99569064D01*
X126193679Y-99549500D01*
X126193678Y-99549500D01*
X125906322Y-99549500D01*
X125906321Y-99549500D01*
X125621642Y-99588629D01*
X125621635Y-99588630D01*
X125413861Y-99646845D01*
X125344942Y-99666156D01*
X125344939Y-99666156D01*
X125344936Y-99666158D01*
X125344935Y-99666158D01*
X125081382Y-99780634D01*
X124835853Y-99929944D01*
X124612950Y-100111289D01*
X124416812Y-100321299D01*
X124251098Y-100556064D01*
X124118894Y-100811206D01*
X124022667Y-101081962D01*
X124022666Y-101081965D01*
X123964201Y-101363319D01*
X123944592Y-101650000D01*
X108883401Y-101650000D01*
X108876330Y-101596291D01*
X108839350Y-101507013D01*
X108820862Y-101462377D01*
X108820861Y-101462376D01*
X108820861Y-101462375D01*
X108732621Y-101347379D01*
X108617625Y-101259139D01*
X108617624Y-101259138D01*
X108617622Y-101259137D01*
X108483712Y-101203671D01*
X108483710Y-101203670D01*
X108483709Y-101203670D01*
X108411854Y-101194210D01*
X108340001Y-101184750D01*
X108339999Y-101184750D01*
X108196291Y-101203670D01*
X108196287Y-101203671D01*
X108062377Y-101259137D01*
X107947379Y-101347379D01*
X107859137Y-101462377D01*
X107803671Y-101596287D01*
X107803670Y-101596291D01*
X107784750Y-101739999D01*
X106649252Y-101739999D01*
X106655408Y-101650000D01*
X106635798Y-101363314D01*
X106577334Y-101081968D01*
X106481105Y-100811206D01*
X106481106Y-100811206D01*
X106348901Y-100556064D01*
X106183187Y-100321299D01*
X106095451Y-100227358D01*
X105987053Y-100111292D01*
X105764147Y-99929945D01*
X105764146Y-99929944D01*
X105518617Y-99780634D01*
X105255063Y-99666158D01*
X105255061Y-99666157D01*
X105255058Y-99666156D01*
X105125578Y-99629877D01*
X104978364Y-99588630D01*
X104978359Y-99588629D01*
X104978358Y-99588629D01*
X104836018Y-99569064D01*
X104693679Y-99549500D01*
X104693678Y-99549500D01*
X104406322Y-99549500D01*
X104406321Y-99549500D01*
X104121642Y-99588629D01*
X104121635Y-99588630D01*
X103913861Y-99646845D01*
X103844942Y-99666156D01*
X103844939Y-99666156D01*
X103844936Y-99666158D01*
X103844935Y-99666158D01*
X103581382Y-99780634D01*
X103335853Y-99929944D01*
X103112950Y-100111289D01*
X102916812Y-100321299D01*
X102751098Y-100556064D01*
X102618894Y-100811206D01*
X102522667Y-101081962D01*
X102522666Y-101081965D01*
X102464201Y-101363319D01*
X102444592Y-101650000D01*
X89500000Y-101650000D01*
X89500000Y-100564288D01*
X89519685Y-100497249D01*
X89572489Y-100451494D01*
X89641647Y-100441550D01*
X89705203Y-100470575D01*
X89711681Y-100476607D01*
X89780660Y-100545586D01*
X89780664Y-100545589D01*
X89952631Y-100660494D01*
X89952641Y-100660499D01*
X90143725Y-100739649D01*
X90143733Y-100739651D01*
X90346579Y-100779999D01*
X90346583Y-100780000D01*
X90700000Y-100780000D01*
X90700000Y-100030000D01*
X91200000Y-100030000D01*
X91200000Y-100780000D01*
X91553417Y-100780000D01*
X91553420Y-100779999D01*
X91756266Y-100739651D01*
X91756274Y-100739649D01*
X91947358Y-100660499D01*
X91947368Y-100660494D01*
X92119335Y-100545589D01*
X92119339Y-100545586D01*
X92265586Y-100399339D01*
X92265589Y-100399335D01*
X92380494Y-100227368D01*
X92380499Y-100227358D01*
X92459648Y-100036276D01*
X92459649Y-100036274D01*
X92470843Y-99980000D01*
X91616988Y-99980000D01*
X91634205Y-99970060D01*
X91690060Y-99914205D01*
X91729556Y-99845796D01*
X91750000Y-99769496D01*
X91750000Y-99690504D01*
X91729556Y-99614204D01*
X91690060Y-99545795D01*
X91634205Y-99489940D01*
X91616988Y-99480000D01*
X92470843Y-99480000D01*
X92459649Y-99423725D01*
X92459648Y-99423723D01*
X92380499Y-99232641D01*
X92380494Y-99232631D01*
X92265589Y-99060664D01*
X92265586Y-99060660D01*
X92146607Y-98941681D01*
X92113122Y-98880358D01*
X92118106Y-98810666D01*
X92159978Y-98754733D01*
X92225442Y-98730316D01*
X92234288Y-98730000D01*
X93865712Y-98730000D01*
X93932751Y-98749685D01*
X93978506Y-98802489D01*
X93988450Y-98871647D01*
X93959425Y-98935203D01*
X93953393Y-98941681D01*
X93834413Y-99060660D01*
X93834410Y-99060664D01*
X93719505Y-99232631D01*
X93719500Y-99232641D01*
X93640351Y-99423723D01*
X93640350Y-99423725D01*
X93629157Y-99480000D01*
X94483012Y-99480000D01*
X94465795Y-99489940D01*
X94409940Y-99545795D01*
X94370444Y-99614204D01*
X94350000Y-99690504D01*
X94350000Y-99769496D01*
X94370444Y-99845796D01*
X94409940Y-99914205D01*
X94465795Y-99970060D01*
X94483012Y-99980000D01*
X93629157Y-99980000D01*
X93640350Y-100036274D01*
X93640351Y-100036276D01*
X93719500Y-100227358D01*
X93719505Y-100227368D01*
X93834410Y-100399335D01*
X93834413Y-100399339D01*
X93980660Y-100545586D01*
X93980664Y-100545589D01*
X94152631Y-100660494D01*
X94152641Y-100660499D01*
X94343725Y-100739649D01*
X94343733Y-100739651D01*
X94546579Y-100779999D01*
X94546583Y-100780000D01*
X94700000Y-100780000D01*
X94700000Y-100030000D01*
X95200000Y-100030000D01*
X95200000Y-100780000D01*
X95353417Y-100780000D01*
X95353420Y-100779999D01*
X95556266Y-100739651D01*
X95556274Y-100739649D01*
X95747358Y-100660499D01*
X95747368Y-100660494D01*
X95919335Y-100545589D01*
X95919339Y-100545586D01*
X96065586Y-100399339D01*
X96065589Y-100399335D01*
X96180494Y-100227368D01*
X96180499Y-100227358D01*
X96259648Y-100036276D01*
X96259649Y-100036274D01*
X96270843Y-99980000D01*
X95416988Y-99980000D01*
X95434205Y-99970060D01*
X95490060Y-99914205D01*
X95529556Y-99845796D01*
X95550000Y-99769496D01*
X95550000Y-99690504D01*
X95529556Y-99614204D01*
X95490060Y-99545795D01*
X95434205Y-99489940D01*
X95416988Y-99480000D01*
X96270843Y-99480000D01*
X96259649Y-99423725D01*
X96259648Y-99423723D01*
X96180499Y-99232641D01*
X96180494Y-99232631D01*
X96065589Y-99060664D01*
X96065586Y-99060660D01*
X95919339Y-98914413D01*
X95919335Y-98914410D01*
X95747368Y-98799505D01*
X95747358Y-98799500D01*
X95556274Y-98720350D01*
X95556266Y-98720348D01*
X95473077Y-98703801D01*
X95411166Y-98671417D01*
X95376592Y-98610701D01*
X95380331Y-98540932D01*
X95388082Y-98523411D01*
X95388162Y-98523263D01*
X95402698Y-98416047D01*
X95378638Y-98310559D01*
X95378638Y-98310558D01*
X95319049Y-98220249D01*
X95231531Y-98156636D01*
X95231524Y-98156633D01*
X95185905Y-98141906D01*
X95128155Y-98102578D01*
X95100835Y-98038271D01*
X95100000Y-98023903D01*
X95100000Y-95435000D01*
X98429750Y-95435000D01*
X98438241Y-95499498D01*
X98448670Y-95578708D01*
X98448671Y-95578712D01*
X98504137Y-95712622D01*
X98504138Y-95712624D01*
X98504139Y-95712625D01*
X98592379Y-95827621D01*
X98707375Y-95915861D01*
X98841291Y-95971330D01*
X98968280Y-95988048D01*
X98984999Y-95990250D01*
X98985000Y-95990250D01*
X98985001Y-95990250D01*
X98999977Y-95988278D01*
X99128709Y-95971330D01*
X99262625Y-95915861D01*
X99377621Y-95827621D01*
X99465861Y-95712625D01*
X99521330Y-95578709D01*
X99522344Y-95571004D01*
X99550605Y-95507106D01*
X99557604Y-95499498D01*
X99602285Y-95454818D01*
X99660489Y-95396614D01*
X99719798Y-95293887D01*
X99719799Y-95293886D01*
X99750500Y-95179309D01*
X99750500Y-94900000D01*
X109194592Y-94900000D01*
X109214201Y-95186680D01*
X109272666Y-95468034D01*
X109272667Y-95468037D01*
X109368894Y-95738793D01*
X109368893Y-95738793D01*
X109501098Y-95993935D01*
X109666812Y-96228700D01*
X109751923Y-96319831D01*
X109862947Y-96438708D01*
X110085853Y-96620055D01*
X110311941Y-96757543D01*
X110331382Y-96769365D01*
X110518237Y-96850526D01*
X110594942Y-96883844D01*
X110871642Y-96961371D01*
X111121920Y-96995771D01*
X111156321Y-97000500D01*
X111156322Y-97000500D01*
X111443679Y-97000500D01*
X111474370Y-96996281D01*
X111728358Y-96961371D01*
X111947396Y-96900000D01*
X112894353Y-96900000D01*
X112914834Y-97042456D01*
X112974622Y-97173371D01*
X112974623Y-97173373D01*
X113068872Y-97282143D01*
X113189947Y-97359953D01*
X113189950Y-97359954D01*
X113189949Y-97359954D01*
X113328036Y-97400499D01*
X113328038Y-97400500D01*
X113328039Y-97400500D01*
X113471962Y-97400500D01*
X113471962Y-97400499D01*
X113610053Y-97359953D01*
X113731128Y-97282143D01*
X113825377Y-97173373D01*
X113885165Y-97042457D01*
X113901447Y-96929208D01*
X113930470Y-96865656D01*
X113936489Y-96859191D01*
X114980470Y-95815212D01*
X115026614Y-95735288D01*
X115050500Y-95646144D01*
X115050500Y-94900000D01*
X117194592Y-94900000D01*
X117214201Y-95186680D01*
X117272666Y-95468034D01*
X117272667Y-95468037D01*
X117368894Y-95738793D01*
X117368893Y-95738793D01*
X117501098Y-95993935D01*
X117666812Y-96228700D01*
X117751923Y-96319831D01*
X117862947Y-96438708D01*
X118085853Y-96620055D01*
X118311941Y-96757543D01*
X118331382Y-96769365D01*
X118518237Y-96850526D01*
X118594942Y-96883844D01*
X118871642Y-96961371D01*
X119121920Y-96995771D01*
X119156321Y-97000500D01*
X119156322Y-97000500D01*
X119443679Y-97000500D01*
X119474370Y-96996281D01*
X119728358Y-96961371D01*
X120005058Y-96883844D01*
X120118015Y-96834779D01*
X120268617Y-96769365D01*
X120268620Y-96769363D01*
X120268625Y-96769361D01*
X120514147Y-96620055D01*
X120737053Y-96438708D01*
X120933189Y-96228698D01*
X121098901Y-95993936D01*
X121231104Y-95738797D01*
X121327334Y-95468032D01*
X121385798Y-95186686D01*
X121405408Y-94900000D01*
X121385798Y-94613314D01*
X121327334Y-94331968D01*
X121292516Y-94234000D01*
X125682750Y-94234000D01*
X125694708Y-94324832D01*
X125701670Y-94377708D01*
X125701671Y-94377712D01*
X125757137Y-94511622D01*
X125757138Y-94511624D01*
X125757139Y-94511625D01*
X125845379Y-94626621D01*
X125960375Y-94714861D01*
X126094291Y-94770330D01*
X126221280Y-94787048D01*
X126237999Y-94789250D01*
X126238000Y-94789250D01*
X126238001Y-94789250D01*
X126252977Y-94787278D01*
X126381709Y-94770330D01*
X126515625Y-94714861D01*
X126630621Y-94626621D01*
X126718861Y-94511625D01*
X126774330Y-94377709D01*
X126793250Y-94234000D01*
X126774330Y-94090291D01*
X126718861Y-93956375D01*
X126630621Y-93841379D01*
X126515625Y-93753139D01*
X126515624Y-93753138D01*
X126515622Y-93753137D01*
X126381712Y-93697671D01*
X126381710Y-93697670D01*
X126381709Y-93697670D01*
X126309854Y-93688210D01*
X126238001Y-93678750D01*
X126237999Y-93678750D01*
X126094291Y-93697670D01*
X126094287Y-93697671D01*
X125960377Y-93753137D01*
X125845379Y-93841379D01*
X125757137Y-93956377D01*
X125701671Y-94090287D01*
X125701670Y-94090291D01*
X125682750Y-94234000D01*
X121292516Y-94234000D01*
X121231105Y-94061206D01*
X121231106Y-94061206D01*
X121098901Y-93806064D01*
X120933187Y-93571299D01*
X120854554Y-93487105D01*
X120737053Y-93361292D01*
X120514147Y-93179945D01*
X120514146Y-93179944D01*
X120268617Y-93030634D01*
X120005063Y-92916158D01*
X120005061Y-92916157D01*
X120005058Y-92916156D01*
X119875578Y-92879877D01*
X119728364Y-92838630D01*
X119728359Y-92838629D01*
X119728358Y-92838629D01*
X119586018Y-92819064D01*
X119443679Y-92799500D01*
X119443678Y-92799500D01*
X119156322Y-92799500D01*
X119156321Y-92799500D01*
X118871642Y-92838629D01*
X118871635Y-92838630D01*
X118663861Y-92896845D01*
X118594942Y-92916156D01*
X118594939Y-92916156D01*
X118594936Y-92916158D01*
X118594935Y-92916158D01*
X118331382Y-93030634D01*
X118085853Y-93179944D01*
X117862950Y-93361289D01*
X117666812Y-93571299D01*
X117501098Y-93806064D01*
X117368894Y-94061206D01*
X117272667Y-94331962D01*
X117272666Y-94331965D01*
X117214201Y-94613319D01*
X117194592Y-94900000D01*
X115050500Y-94900000D01*
X115050500Y-94406035D01*
X115070185Y-94338996D01*
X115080782Y-94324837D01*
X115125377Y-94273373D01*
X115185165Y-94142457D01*
X115205647Y-94000000D01*
X115185165Y-93857543D01*
X115125377Y-93726627D01*
X115031128Y-93617857D01*
X114910053Y-93540047D01*
X114910051Y-93540046D01*
X114910049Y-93540045D01*
X114910050Y-93540045D01*
X114771963Y-93499500D01*
X114771961Y-93499500D01*
X114628039Y-93499500D01*
X114628036Y-93499500D01*
X114489949Y-93540045D01*
X114368873Y-93617856D01*
X114274623Y-93726626D01*
X114274622Y-93726628D01*
X114214834Y-93857543D01*
X114194353Y-94000000D01*
X114214834Y-94142456D01*
X114256641Y-94233999D01*
X114274623Y-94273373D01*
X114319213Y-94324833D01*
X114348238Y-94388388D01*
X114349500Y-94406035D01*
X114349500Y-95403456D01*
X114329815Y-95470495D01*
X114313181Y-95491137D01*
X113441137Y-96363181D01*
X113379814Y-96396666D01*
X113353456Y-96399500D01*
X113328036Y-96399500D01*
X113189949Y-96440045D01*
X113068873Y-96517856D01*
X112974623Y-96626626D01*
X112974622Y-96626628D01*
X112914834Y-96757543D01*
X112894353Y-96900000D01*
X111947396Y-96900000D01*
X112005058Y-96883844D01*
X112118015Y-96834779D01*
X112268617Y-96769365D01*
X112268620Y-96769363D01*
X112268625Y-96769361D01*
X112514147Y-96620055D01*
X112737053Y-96438708D01*
X112933189Y-96228698D01*
X113098901Y-95993936D01*
X113231104Y-95738797D01*
X113327334Y-95468032D01*
X113385798Y-95186686D01*
X113405408Y-94900000D01*
X113385798Y-94613314D01*
X113327334Y-94331968D01*
X113231105Y-94061206D01*
X113231106Y-94061206D01*
X113098901Y-93806064D01*
X112933187Y-93571299D01*
X112854554Y-93487105D01*
X112737053Y-93361292D01*
X112514147Y-93179945D01*
X112514146Y-93179944D01*
X112268617Y-93030634D01*
X112005063Y-92916158D01*
X112005061Y-92916157D01*
X112005058Y-92916156D01*
X111875578Y-92879877D01*
X111728364Y-92838630D01*
X111728359Y-92838629D01*
X111728358Y-92838629D01*
X111586018Y-92819064D01*
X111443679Y-92799500D01*
X111443678Y-92799500D01*
X111156322Y-92799500D01*
X111156321Y-92799500D01*
X110871642Y-92838629D01*
X110871635Y-92838630D01*
X110663861Y-92896845D01*
X110594942Y-92916156D01*
X110594939Y-92916156D01*
X110594936Y-92916158D01*
X110594935Y-92916158D01*
X110331382Y-93030634D01*
X110085853Y-93179944D01*
X109862950Y-93361289D01*
X109666812Y-93571299D01*
X109501098Y-93806064D01*
X109368894Y-94061206D01*
X109272667Y-94331962D01*
X109272666Y-94331965D01*
X109214201Y-94613319D01*
X109194592Y-94900000D01*
X99750500Y-94900000D01*
X99750500Y-92384284D01*
X99770185Y-92317245D01*
X99776116Y-92308808D01*
X99780861Y-92302625D01*
X99836330Y-92168709D01*
X99855250Y-92025000D01*
X99836330Y-91881291D01*
X99780861Y-91747375D01*
X99692621Y-91632379D01*
X99577625Y-91544139D01*
X99577624Y-91544138D01*
X99577622Y-91544137D01*
X99443712Y-91488671D01*
X99443710Y-91488670D01*
X99443709Y-91488670D01*
X99371854Y-91479210D01*
X99300001Y-91469750D01*
X99299999Y-91469750D01*
X99156291Y-91488670D01*
X99156287Y-91488671D01*
X99022377Y-91544137D01*
X98907379Y-91632379D01*
X98819137Y-91747377D01*
X98763671Y-91881287D01*
X98763670Y-91881291D01*
X98744750Y-92024999D01*
X98744750Y-92025000D01*
X98763670Y-92168708D01*
X98763671Y-92168712D01*
X98819137Y-92302622D01*
X98819138Y-92302624D01*
X98819139Y-92302625D01*
X98823875Y-92308798D01*
X98849070Y-92373965D01*
X98849500Y-92384284D01*
X98849500Y-94812415D01*
X98829815Y-94879454D01*
X98777011Y-94925209D01*
X98772952Y-94926976D01*
X98707378Y-94954137D01*
X98592379Y-95042379D01*
X98504137Y-95157377D01*
X98448671Y-95291287D01*
X98448670Y-95291291D01*
X98434804Y-95396615D01*
X98429750Y-95435000D01*
X95100000Y-95435000D01*
X95100000Y-90196102D01*
X95119685Y-90129063D01*
X95172489Y-90083308D01*
X95186000Y-90078068D01*
X95231550Y-90063407D01*
X95319083Y-89999782D01*
X95378681Y-89909459D01*
X95402745Y-89803955D01*
X95388206Y-89696722D01*
X95388128Y-89696577D01*
X95388069Y-89696301D01*
X95384756Y-89686105D01*
X95385841Y-89685752D01*
X95373687Y-89628216D01*
X95398498Y-89562899D01*
X95454683Y-89521366D01*
X95473126Y-89516188D01*
X95556274Y-89499649D01*
X95747358Y-89420499D01*
X95747368Y-89420494D01*
X95919335Y-89305589D01*
X95919339Y-89305586D01*
X96065586Y-89159339D01*
X96065589Y-89159335D01*
X96180494Y-88987368D01*
X96180499Y-88987358D01*
X96259648Y-88796276D01*
X96259649Y-88796274D01*
X96270843Y-88740000D01*
X95416988Y-88740000D01*
X95434205Y-88730060D01*
X95490060Y-88674205D01*
X95529556Y-88605796D01*
X95550000Y-88529496D01*
X95550000Y-88450504D01*
X95529556Y-88374204D01*
X95490060Y-88305795D01*
X95434205Y-88249940D01*
X95416988Y-88240000D01*
X96270843Y-88240000D01*
X96259649Y-88183725D01*
X96259648Y-88183723D01*
X96245679Y-88150000D01*
X102444592Y-88150000D01*
X102464201Y-88436680D01*
X102464201Y-88436684D01*
X102464202Y-88436686D01*
X102467256Y-88451383D01*
X102522666Y-88718034D01*
X102522667Y-88718037D01*
X102618894Y-88988793D01*
X102618893Y-88988793D01*
X102751098Y-89243935D01*
X102916812Y-89478700D01*
X102995449Y-89562899D01*
X103112947Y-89688708D01*
X103335853Y-89870055D01*
X103577474Y-90016989D01*
X103581382Y-90019365D01*
X103716532Y-90078068D01*
X103844942Y-90133844D01*
X104121642Y-90211371D01*
X104371920Y-90245771D01*
X104406321Y-90250500D01*
X104406322Y-90250500D01*
X104693679Y-90250500D01*
X104724370Y-90246281D01*
X104978358Y-90211371D01*
X105255058Y-90133844D01*
X105417221Y-90063407D01*
X105518617Y-90019365D01*
X105518620Y-90019363D01*
X105518625Y-90019361D01*
X105764147Y-89870055D01*
X105987053Y-89688708D01*
X106183189Y-89478698D01*
X106348901Y-89243936D01*
X106475299Y-89000000D01*
X112494353Y-89000000D01*
X112514834Y-89142456D01*
X112561179Y-89243935D01*
X112574623Y-89273373D01*
X112668872Y-89382143D01*
X112789947Y-89459953D01*
X112789950Y-89459954D01*
X112789949Y-89459954D01*
X112928036Y-89500499D01*
X112928038Y-89500500D01*
X112928039Y-89500500D01*
X113071962Y-89500500D01*
X113071962Y-89500499D01*
X113210053Y-89459953D01*
X113331128Y-89382143D01*
X113425377Y-89273373D01*
X113485165Y-89142457D01*
X113505647Y-89000000D01*
X113485165Y-88857543D01*
X113425377Y-88726627D01*
X113331128Y-88617857D01*
X113210053Y-88540047D01*
X113210051Y-88540046D01*
X113210049Y-88540045D01*
X113210050Y-88540045D01*
X113071963Y-88499500D01*
X113071961Y-88499500D01*
X112928039Y-88499500D01*
X112928036Y-88499500D01*
X112789949Y-88540045D01*
X112668873Y-88617856D01*
X112574623Y-88726626D01*
X112574622Y-88726628D01*
X112514834Y-88857543D01*
X112494353Y-89000000D01*
X106475299Y-89000000D01*
X106481104Y-88988797D01*
X106577334Y-88718032D01*
X106635798Y-88436686D01*
X106655408Y-88150000D01*
X106655408Y-88149994D01*
X123645255Y-88149994D01*
X123645255Y-88150005D01*
X123664215Y-88451383D01*
X123664216Y-88451390D01*
X123720805Y-88748040D01*
X123814125Y-89035247D01*
X123814127Y-89035252D01*
X123942704Y-89308491D01*
X123942707Y-89308497D01*
X124104516Y-89563469D01*
X124185311Y-89661133D01*
X124898932Y-88947512D01*
X124982140Y-89062039D01*
X125137961Y-89217860D01*
X125252485Y-89301066D01*
X124536564Y-90016987D01*
X124536565Y-90016989D01*
X124761461Y-90180385D01*
X124761479Y-90180397D01*
X125026109Y-90325878D01*
X125026117Y-90325882D01*
X125306889Y-90437047D01*
X125306892Y-90437048D01*
X125599399Y-90512150D01*
X125898995Y-90549999D01*
X125899007Y-90550000D01*
X126200993Y-90550000D01*
X126201004Y-90549999D01*
X126500600Y-90512150D01*
X126793107Y-90437048D01*
X126793110Y-90437047D01*
X127073882Y-90325882D01*
X127073890Y-90325878D01*
X127338520Y-90180397D01*
X127338530Y-90180390D01*
X127563433Y-90016987D01*
X127563434Y-90016987D01*
X126847514Y-89301066D01*
X126962039Y-89217860D01*
X127117860Y-89062039D01*
X127201067Y-88947514D01*
X127914687Y-89661134D01*
X127995486Y-89563464D01*
X128157292Y-89308497D01*
X128157295Y-89308491D01*
X128285872Y-89035252D01*
X128285874Y-89035247D01*
X128379194Y-88748040D01*
X128435783Y-88451390D01*
X128435784Y-88451383D01*
X128439520Y-88392000D01*
X137366750Y-88392000D01*
X137378050Y-88477834D01*
X137385670Y-88535708D01*
X137385671Y-88535712D01*
X137441137Y-88669622D01*
X137441138Y-88669624D01*
X137441139Y-88669625D01*
X137529379Y-88784621D01*
X137644375Y-88872861D01*
X137778291Y-88928330D01*
X137905280Y-88945048D01*
X137921999Y-88947250D01*
X137922000Y-88947250D01*
X137922001Y-88947250D01*
X137936977Y-88945278D01*
X138065709Y-88928330D01*
X138199625Y-88872861D01*
X138314621Y-88784621D01*
X138402861Y-88669625D01*
X138458330Y-88535709D01*
X138477250Y-88392000D01*
X138458330Y-88248291D01*
X138402861Y-88114375D01*
X138314621Y-87999379D01*
X138199625Y-87911139D01*
X138199624Y-87911138D01*
X138199622Y-87911137D01*
X138065712Y-87855671D01*
X138065710Y-87855670D01*
X138065709Y-87855670D01*
X137993854Y-87846210D01*
X137922001Y-87836750D01*
X137921999Y-87836750D01*
X137778291Y-87855670D01*
X137778287Y-87855671D01*
X137644377Y-87911137D01*
X137529379Y-87999379D01*
X137441137Y-88114377D01*
X137385671Y-88248287D01*
X137385670Y-88248291D01*
X137366750Y-88392000D01*
X128439520Y-88392000D01*
X128454745Y-88150005D01*
X128454745Y-88149994D01*
X128435784Y-87848616D01*
X128435783Y-87848609D01*
X128379194Y-87551959D01*
X128285874Y-87264752D01*
X128285872Y-87264747D01*
X128198936Y-87080000D01*
X147444417Y-87080000D01*
X147464699Y-87285932D01*
X147464700Y-87285934D01*
X147524768Y-87483954D01*
X147622315Y-87666450D01*
X147622317Y-87666452D01*
X147753589Y-87826410D01*
X147850209Y-87905702D01*
X147913550Y-87957685D01*
X148096046Y-88055232D01*
X148294066Y-88115300D01*
X148294065Y-88115300D01*
X148312529Y-88117118D01*
X148500000Y-88135583D01*
X148705934Y-88115300D01*
X148903954Y-88055232D01*
X149086450Y-87957685D01*
X149246410Y-87826410D01*
X149377685Y-87666450D01*
X149475232Y-87483954D01*
X149535300Y-87285934D01*
X149555583Y-87080000D01*
X149535300Y-86874066D01*
X149475232Y-86676046D01*
X149377685Y-86493550D01*
X149300501Y-86399500D01*
X149246410Y-86333589D01*
X149086452Y-86202317D01*
X149086453Y-86202317D01*
X149086450Y-86202315D01*
X148903954Y-86104768D01*
X148705934Y-86044700D01*
X148705932Y-86044699D01*
X148705934Y-86044699D01*
X148500000Y-86024417D01*
X148294067Y-86044699D01*
X148096043Y-86104769D01*
X147985898Y-86163643D01*
X147913550Y-86202315D01*
X147913548Y-86202316D01*
X147913547Y-86202317D01*
X147753589Y-86333589D01*
X147622317Y-86493547D01*
X147524769Y-86676043D01*
X147464699Y-86874067D01*
X147444417Y-87080000D01*
X128198936Y-87080000D01*
X128157295Y-86991508D01*
X128157292Y-86991502D01*
X127995483Y-86736530D01*
X127914686Y-86638864D01*
X127201066Y-87352484D01*
X127117860Y-87237961D01*
X126962039Y-87082140D01*
X126847513Y-86998932D01*
X127563434Y-86283011D01*
X127563433Y-86283009D01*
X127338538Y-86119614D01*
X127338520Y-86119602D01*
X127073890Y-85974121D01*
X127073882Y-85974117D01*
X126793110Y-85862952D01*
X126793107Y-85862951D01*
X126500600Y-85787849D01*
X126201004Y-85750000D01*
X125898995Y-85750000D01*
X125599399Y-85787849D01*
X125306892Y-85862951D01*
X125306889Y-85862952D01*
X125026117Y-85974117D01*
X125026109Y-85974121D01*
X124761476Y-86119604D01*
X124761471Y-86119607D01*
X124536565Y-86283010D01*
X124536564Y-86283011D01*
X125252486Y-86998932D01*
X125137961Y-87082140D01*
X124982140Y-87237961D01*
X124898932Y-87352485D01*
X124185311Y-86638864D01*
X124104520Y-86736525D01*
X124104518Y-86736528D01*
X123942707Y-86991502D01*
X123942704Y-86991508D01*
X123814127Y-87264747D01*
X123814125Y-87264752D01*
X123720805Y-87551959D01*
X123664216Y-87848609D01*
X123664215Y-87848616D01*
X123645255Y-88149994D01*
X106655408Y-88149994D01*
X106635798Y-87863314D01*
X106577334Y-87581968D01*
X106542500Y-87483956D01*
X106481105Y-87311206D01*
X106481106Y-87311206D01*
X106348901Y-87056064D01*
X106238740Y-86900000D01*
X122069353Y-86900000D01*
X122089834Y-87042456D01*
X122149622Y-87173371D01*
X122149623Y-87173373D01*
X122243872Y-87282143D01*
X122364947Y-87359953D01*
X122364950Y-87359954D01*
X122364949Y-87359954D01*
X122503036Y-87400499D01*
X122503038Y-87400500D01*
X122503039Y-87400500D01*
X122646962Y-87400500D01*
X122646962Y-87400499D01*
X122785053Y-87359953D01*
X122906128Y-87282143D01*
X123000377Y-87173373D01*
X123060165Y-87042457D01*
X123080647Y-86900000D01*
X123060165Y-86757543D01*
X123000377Y-86626627D01*
X122906128Y-86517857D01*
X122785053Y-86440047D01*
X122785051Y-86440046D01*
X122785049Y-86440045D01*
X122785050Y-86440045D01*
X122646963Y-86399500D01*
X122646961Y-86399500D01*
X122503039Y-86399500D01*
X122503036Y-86399500D01*
X122364949Y-86440045D01*
X122243873Y-86517856D01*
X122149623Y-86626626D01*
X122149622Y-86626628D01*
X122089834Y-86757543D01*
X122069353Y-86900000D01*
X106238740Y-86900000D01*
X106183187Y-86821299D01*
X106012803Y-86638864D01*
X105987053Y-86611292D01*
X105764147Y-86429945D01*
X105764146Y-86429944D01*
X105518617Y-86280634D01*
X105255063Y-86166158D01*
X105255061Y-86166157D01*
X105255058Y-86166156D01*
X105125578Y-86129877D01*
X104978364Y-86088630D01*
X104978359Y-86088629D01*
X104978358Y-86088629D01*
X104836018Y-86069064D01*
X104693679Y-86049500D01*
X104693678Y-86049500D01*
X104406322Y-86049500D01*
X104406321Y-86049500D01*
X104121642Y-86088629D01*
X104121635Y-86088630D01*
X103913861Y-86146845D01*
X103844942Y-86166156D01*
X103844939Y-86166156D01*
X103844936Y-86166158D01*
X103844935Y-86166158D01*
X103581382Y-86280634D01*
X103335853Y-86429944D01*
X103112950Y-86611289D01*
X102916812Y-86821299D01*
X102751098Y-87056064D01*
X102618894Y-87311206D01*
X102522667Y-87581962D01*
X102522666Y-87581965D01*
X102464201Y-87863319D01*
X102444592Y-88150000D01*
X96245679Y-88150000D01*
X96180499Y-87992641D01*
X96180494Y-87992631D01*
X96065589Y-87820664D01*
X96065586Y-87820660D01*
X95919339Y-87674413D01*
X95919335Y-87674410D01*
X95747368Y-87559505D01*
X95747358Y-87559500D01*
X95556274Y-87480350D01*
X95556266Y-87480348D01*
X95353420Y-87440000D01*
X95200000Y-87440000D01*
X95200000Y-88190000D01*
X94700000Y-88190000D01*
X94700000Y-87440000D01*
X94546579Y-87440000D01*
X94343733Y-87480348D01*
X94343725Y-87480350D01*
X94152641Y-87559500D01*
X94152631Y-87559505D01*
X93980664Y-87674410D01*
X93980660Y-87674413D01*
X93834413Y-87820660D01*
X93834410Y-87820664D01*
X93719505Y-87992631D01*
X93719500Y-87992641D01*
X93640351Y-88183723D01*
X93640350Y-88183725D01*
X93629157Y-88240000D01*
X94483012Y-88240000D01*
X94465795Y-88249940D01*
X94409940Y-88305795D01*
X94370444Y-88374204D01*
X94350000Y-88450504D01*
X94350000Y-88529496D01*
X94370444Y-88605796D01*
X94409940Y-88674205D01*
X94465795Y-88730060D01*
X94483012Y-88740000D01*
X93629157Y-88740000D01*
X93640350Y-88796274D01*
X93640351Y-88796276D01*
X93719500Y-88987358D01*
X93719505Y-88987368D01*
X93834410Y-89159335D01*
X93834413Y-89159339D01*
X93953393Y-89278319D01*
X93986878Y-89339642D01*
X93981894Y-89409334D01*
X93940022Y-89465267D01*
X93874558Y-89489684D01*
X93865712Y-89490000D01*
X92234288Y-89490000D01*
X92167249Y-89470315D01*
X92121494Y-89417511D01*
X92111550Y-89348353D01*
X92140575Y-89284797D01*
X92146607Y-89278319D01*
X92265586Y-89159339D01*
X92265589Y-89159335D01*
X92380494Y-88987368D01*
X92380499Y-88987358D01*
X92459648Y-88796276D01*
X92459649Y-88796274D01*
X92470843Y-88740000D01*
X91616988Y-88740000D01*
X91634205Y-88730060D01*
X91690060Y-88674205D01*
X91729556Y-88605796D01*
X91750000Y-88529496D01*
X91750000Y-88450504D01*
X91729556Y-88374204D01*
X91690060Y-88305795D01*
X91634205Y-88249940D01*
X91616988Y-88240000D01*
X92470843Y-88240000D01*
X92459649Y-88183725D01*
X92459648Y-88183723D01*
X92380499Y-87992641D01*
X92380494Y-87992631D01*
X92265589Y-87820664D01*
X92265586Y-87820660D01*
X92119339Y-87674413D01*
X92119335Y-87674410D01*
X91947368Y-87559505D01*
X91947358Y-87559500D01*
X91756274Y-87480350D01*
X91756266Y-87480348D01*
X91553420Y-87440000D01*
X91200000Y-87440000D01*
X91200000Y-88190000D01*
X90700000Y-88190000D01*
X90700000Y-87440000D01*
X90346579Y-87440000D01*
X90143733Y-87480348D01*
X90143725Y-87480350D01*
X89952641Y-87559500D01*
X89952631Y-87559505D01*
X89780664Y-87674410D01*
X89780660Y-87674413D01*
X89711681Y-87743393D01*
X89650358Y-87776878D01*
X89580666Y-87771894D01*
X89524733Y-87730022D01*
X89500316Y-87664558D01*
X89500000Y-87655712D01*
X89500000Y-84600000D01*
X122394353Y-84600000D01*
X122414834Y-84742456D01*
X122474622Y-84873371D01*
X122474623Y-84873373D01*
X122568872Y-84982143D01*
X122689947Y-85059953D01*
X122689950Y-85059954D01*
X122689949Y-85059954D01*
X122828036Y-85100499D01*
X122828038Y-85100500D01*
X122828039Y-85100500D01*
X122971962Y-85100500D01*
X122971962Y-85100499D01*
X123075835Y-85070000D01*
X135887156Y-85070000D01*
X135927595Y-85209194D01*
X136009261Y-85347285D01*
X136009268Y-85347294D01*
X136122705Y-85460731D01*
X136122714Y-85460738D01*
X136260808Y-85542406D01*
X136260811Y-85542407D01*
X136414871Y-85587166D01*
X136414877Y-85587167D01*
X136450000Y-85589931D01*
X136450000Y-85589930D01*
X136950000Y-85589930D01*
X136985122Y-85587167D01*
X136985128Y-85587166D01*
X137139188Y-85542407D01*
X137139191Y-85542406D01*
X137277285Y-85460738D01*
X137277294Y-85460731D01*
X137390731Y-85347294D01*
X137390738Y-85347285D01*
X137472404Y-85209194D01*
X137512844Y-85070000D01*
X136950000Y-85070000D01*
X136950000Y-85589930D01*
X136450000Y-85589930D01*
X136450000Y-85070000D01*
X135887156Y-85070000D01*
X123075835Y-85070000D01*
X123110053Y-85059953D01*
X123231128Y-84982143D01*
X123325377Y-84873373D01*
X123385165Y-84742457D01*
X123405647Y-84600000D01*
X123385165Y-84457543D01*
X123325377Y-84326627D01*
X123231128Y-84217857D01*
X123110053Y-84140047D01*
X123110051Y-84140046D01*
X123110049Y-84140045D01*
X123110050Y-84140045D01*
X122971963Y-84099500D01*
X122971961Y-84099500D01*
X122828039Y-84099500D01*
X122828036Y-84099500D01*
X122689949Y-84140045D01*
X122568873Y-84217856D01*
X122474623Y-84326626D01*
X122474622Y-84326628D01*
X122414834Y-84457543D01*
X122394353Y-84600000D01*
X89500000Y-84600000D01*
X89500000Y-81535380D01*
X102359733Y-81535380D01*
X102380214Y-81677836D01*
X102413171Y-81750000D01*
X102440003Y-81808753D01*
X102534252Y-81917523D01*
X102655327Y-81995333D01*
X102655330Y-81995334D01*
X102655329Y-81995334D01*
X102793416Y-82035879D01*
X102793418Y-82035880D01*
X102793419Y-82035880D01*
X102937342Y-82035880D01*
X102937342Y-82035879D01*
X103075433Y-81995333D01*
X103196508Y-81917523D01*
X103290757Y-81808753D01*
X103350545Y-81677837D01*
X103366827Y-81564588D01*
X103395850Y-81501036D01*
X103401856Y-81494584D01*
X103489624Y-81406816D01*
X103550946Y-81373334D01*
X103577303Y-81370500D01*
X108743456Y-81370500D01*
X108810495Y-81390185D01*
X108831137Y-81406819D01*
X109078259Y-81653941D01*
X109111744Y-81715264D01*
X109106760Y-81784956D01*
X109071792Y-81835325D01*
X109068878Y-81837849D01*
X108974623Y-81946626D01*
X108974622Y-81946628D01*
X108914834Y-82077543D01*
X108894353Y-82220000D01*
X108894353Y-82220002D01*
X108896289Y-82233470D01*
X108886344Y-82302628D01*
X108861232Y-82338795D01*
X107711848Y-83488181D01*
X107650525Y-83521666D01*
X107624167Y-83524500D01*
X106462833Y-83524500D01*
X106395794Y-83504815D01*
X106369120Y-83481703D01*
X106331128Y-83437857D01*
X106210053Y-83360047D01*
X106210051Y-83360046D01*
X106210049Y-83360045D01*
X106210050Y-83360045D01*
X106071963Y-83319500D01*
X106071961Y-83319500D01*
X105928039Y-83319500D01*
X105928036Y-83319500D01*
X105789949Y-83360045D01*
X105668873Y-83437856D01*
X105574623Y-83546626D01*
X105574622Y-83546628D01*
X105514834Y-83677543D01*
X105494353Y-83820000D01*
X105514834Y-83962456D01*
X105561875Y-84065460D01*
X105574623Y-84093373D01*
X105668872Y-84202143D01*
X105789947Y-84279953D01*
X105789950Y-84279954D01*
X105789949Y-84279954D01*
X105928036Y-84320499D01*
X105928038Y-84320500D01*
X105928039Y-84320500D01*
X106071962Y-84320500D01*
X106071962Y-84320499D01*
X106210053Y-84279953D01*
X106331128Y-84202143D01*
X106360456Y-84168296D01*
X106419233Y-84130523D01*
X106454168Y-84125500D01*
X107839560Y-84125500D01*
X107839562Y-84125500D01*
X107915989Y-84105021D01*
X107984511Y-84065460D01*
X108040460Y-84009511D01*
X109149971Y-82900000D01*
X122119678Y-82900000D01*
X122138915Y-83083029D01*
X122138916Y-83083032D01*
X122195783Y-83258053D01*
X122195786Y-83258059D01*
X122287805Y-83417440D01*
X122378947Y-83518664D01*
X122410949Y-83554206D01*
X122410951Y-83554208D01*
X122559834Y-83662378D01*
X122559835Y-83662378D01*
X122559839Y-83662381D01*
X122654375Y-83704471D01*
X122727961Y-83737234D01*
X122727966Y-83737236D01*
X122907981Y-83775500D01*
X123092019Y-83775500D01*
X123272034Y-83737236D01*
X123440161Y-83662381D01*
X123589050Y-83554207D01*
X123712195Y-83417440D01*
X123804214Y-83258059D01*
X123861085Y-83083029D01*
X123880322Y-82900000D01*
X124619678Y-82900000D01*
X124638915Y-83083029D01*
X124638916Y-83083032D01*
X124695783Y-83258053D01*
X124695786Y-83258059D01*
X124787805Y-83417440D01*
X124878947Y-83518664D01*
X124910949Y-83554206D01*
X124910951Y-83554208D01*
X125059834Y-83662378D01*
X125059835Y-83662378D01*
X125059839Y-83662381D01*
X125154375Y-83704471D01*
X125227961Y-83737234D01*
X125227966Y-83737236D01*
X125407981Y-83775500D01*
X125592019Y-83775500D01*
X125772034Y-83737236D01*
X125940161Y-83662381D01*
X126089050Y-83554207D01*
X126212195Y-83417440D01*
X126304214Y-83258059D01*
X126361085Y-83083029D01*
X126380322Y-82900000D01*
X126361085Y-82716971D01*
X126304214Y-82541941D01*
X126212195Y-82382560D01*
X126089050Y-82245793D01*
X126089048Y-82245791D01*
X126033244Y-82205247D01*
X127124500Y-82205247D01*
X127124500Y-83594752D01*
X127136131Y-83653229D01*
X127136132Y-83653230D01*
X127180447Y-83719552D01*
X127246769Y-83763867D01*
X127246770Y-83763868D01*
X127305247Y-83775499D01*
X127305250Y-83775500D01*
X127305252Y-83775500D01*
X128694750Y-83775500D01*
X128694751Y-83775499D01*
X128709568Y-83772552D01*
X128753229Y-83763868D01*
X128753229Y-83763867D01*
X128753231Y-83763867D01*
X128819552Y-83719552D01*
X128863867Y-83653231D01*
X128863867Y-83653229D01*
X128863868Y-83653229D01*
X128875499Y-83594752D01*
X128875500Y-83594750D01*
X128875500Y-82205249D01*
X128875499Y-82205247D01*
X128863868Y-82146770D01*
X128863867Y-82146769D01*
X128819552Y-82080447D01*
X128753230Y-82036132D01*
X128753229Y-82036131D01*
X128694752Y-82024500D01*
X128694748Y-82024500D01*
X127305252Y-82024500D01*
X127305247Y-82024500D01*
X127246770Y-82036131D01*
X127246769Y-82036132D01*
X127180447Y-82080447D01*
X127136132Y-82146769D01*
X127136131Y-82146770D01*
X127124500Y-82205247D01*
X126033244Y-82205247D01*
X125940165Y-82137621D01*
X125940162Y-82137619D01*
X125940161Y-82137619D01*
X125879112Y-82110438D01*
X125772038Y-82062765D01*
X125772033Y-82062763D01*
X125592019Y-82024500D01*
X125407981Y-82024500D01*
X125227966Y-82062763D01*
X125227961Y-82062765D01*
X125059839Y-82137619D01*
X125059834Y-82137621D01*
X124910951Y-82245791D01*
X124910949Y-82245793D01*
X124787804Y-82382561D01*
X124695786Y-82541940D01*
X124695783Y-82541946D01*
X124638916Y-82716967D01*
X124638915Y-82716971D01*
X124619678Y-82900000D01*
X123880322Y-82900000D01*
X123861085Y-82716971D01*
X123804214Y-82541941D01*
X123712195Y-82382560D01*
X123589050Y-82245793D01*
X123589048Y-82245791D01*
X123440165Y-82137621D01*
X123440162Y-82137619D01*
X123440161Y-82137619D01*
X123379112Y-82110438D01*
X123272038Y-82062765D01*
X123272033Y-82062763D01*
X123092019Y-82024500D01*
X122907981Y-82024500D01*
X122727966Y-82062763D01*
X122727961Y-82062765D01*
X122559839Y-82137619D01*
X122559834Y-82137621D01*
X122410951Y-82245791D01*
X122410949Y-82245793D01*
X122287804Y-82382561D01*
X122195786Y-82541940D01*
X122195783Y-82541946D01*
X122138916Y-82716967D01*
X122138915Y-82716971D01*
X122119678Y-82900000D01*
X109149971Y-82900000D01*
X109293152Y-82756819D01*
X109354475Y-82723334D01*
X109380833Y-82720500D01*
X109471962Y-82720500D01*
X109471962Y-82720499D01*
X109610053Y-82679953D01*
X109731128Y-82602143D01*
X109825377Y-82493373D01*
X109885165Y-82362457D01*
X109905647Y-82220000D01*
X109885165Y-82077543D01*
X109825377Y-81946627D01*
X109807245Y-81925702D01*
X109778221Y-81862147D01*
X109788165Y-81792989D01*
X109833919Y-81740185D01*
X109900959Y-81720500D01*
X123776142Y-81720500D01*
X123776144Y-81720500D01*
X123865288Y-81696614D01*
X123945212Y-81650470D01*
X125123026Y-80472654D01*
X125184347Y-80439171D01*
X125236486Y-80439047D01*
X125407981Y-80475500D01*
X125592019Y-80475500D01*
X125772034Y-80437236D01*
X125940161Y-80362381D01*
X126089050Y-80254207D01*
X126212195Y-80117440D01*
X126304214Y-79958059D01*
X126361085Y-79783029D01*
X126380322Y-79600000D01*
X127119678Y-79600000D01*
X127138915Y-79783029D01*
X127138916Y-79783031D01*
X127138916Y-79783032D01*
X127195783Y-79958053D01*
X127195786Y-79958059D01*
X127287805Y-80117440D01*
X127352688Y-80189500D01*
X127410949Y-80254206D01*
X127410951Y-80254208D01*
X127559834Y-80362378D01*
X127559835Y-80362378D01*
X127559839Y-80362381D01*
X127679863Y-80415819D01*
X127727961Y-80437234D01*
X127727966Y-80437236D01*
X127907981Y-80475500D01*
X128092019Y-80475500D01*
X128272034Y-80437236D01*
X128440161Y-80362381D01*
X128589050Y-80254207D01*
X128712195Y-80117440D01*
X128804214Y-79958059D01*
X128861085Y-79783029D01*
X128880322Y-79600000D01*
X128861085Y-79416971D01*
X128824061Y-79303023D01*
X128804216Y-79241946D01*
X128804213Y-79241940D01*
X128762936Y-79170446D01*
X128712195Y-79082560D01*
X128589050Y-78945793D01*
X128589048Y-78945791D01*
X128440165Y-78837621D01*
X128440162Y-78837619D01*
X128440161Y-78837619D01*
X128379112Y-78810438D01*
X128272038Y-78762765D01*
X128272033Y-78762763D01*
X128092019Y-78724500D01*
X127907981Y-78724500D01*
X127727966Y-78762763D01*
X127727961Y-78762765D01*
X127559839Y-78837619D01*
X127559834Y-78837621D01*
X127410951Y-78945791D01*
X127410949Y-78945793D01*
X127287804Y-79082561D01*
X127195786Y-79241940D01*
X127195783Y-79241946D01*
X127140274Y-79412787D01*
X127138915Y-79416971D01*
X127119678Y-79600000D01*
X126380322Y-79600000D01*
X126361085Y-79416971D01*
X126324061Y-79303023D01*
X126304216Y-79241946D01*
X126304213Y-79241940D01*
X126262936Y-79170446D01*
X126212195Y-79082560D01*
X126089050Y-78945793D01*
X126089048Y-78945791D01*
X125940165Y-78837621D01*
X125940162Y-78837619D01*
X125940161Y-78837619D01*
X125879112Y-78810438D01*
X125772038Y-78762765D01*
X125772033Y-78762763D01*
X125592019Y-78724500D01*
X125407981Y-78724500D01*
X125227966Y-78762763D01*
X125227961Y-78762765D01*
X125059839Y-78837619D01*
X125059834Y-78837621D01*
X124910951Y-78945791D01*
X124910949Y-78945793D01*
X124787804Y-79082561D01*
X124695786Y-79241940D01*
X124695783Y-79241946D01*
X124640274Y-79412787D01*
X124638915Y-79416971D01*
X124630667Y-79495445D01*
X124619678Y-79600000D01*
X124638915Y-79783031D01*
X124638916Y-79783033D01*
X124660158Y-79848409D01*
X124662153Y-79918250D01*
X124629908Y-79974408D01*
X123621137Y-80983181D01*
X123559814Y-81016666D01*
X123533456Y-81019500D01*
X109486544Y-81019500D01*
X109419505Y-80999815D01*
X109398863Y-80983181D01*
X109155213Y-80739531D01*
X109155208Y-80739527D01*
X109075290Y-80693387D01*
X109075289Y-80693386D01*
X109075288Y-80693386D01*
X108986144Y-80669500D01*
X103334616Y-80669500D01*
X103245472Y-80693386D01*
X103245471Y-80693386D01*
X103245469Y-80693387D01*
X103245466Y-80693388D01*
X103165554Y-80739526D01*
X103165545Y-80739533D01*
X102906517Y-80998561D01*
X102845194Y-81032046D01*
X102818836Y-81034880D01*
X102793416Y-81034880D01*
X102655329Y-81075425D01*
X102534253Y-81153236D01*
X102440003Y-81262006D01*
X102440002Y-81262008D01*
X102380214Y-81392923D01*
X102359733Y-81535380D01*
X89500000Y-81535380D01*
X89500000Y-79620000D01*
X97110840Y-79620000D01*
X97151652Y-79754541D01*
X97244503Y-79928253D01*
X97244504Y-79928254D01*
X97351353Y-80058448D01*
X97378666Y-80122758D01*
X97379500Y-80137114D01*
X97379500Y-81159752D01*
X97391131Y-81218229D01*
X97391132Y-81218230D01*
X97435447Y-81284552D01*
X97501769Y-81328867D01*
X97501770Y-81328868D01*
X97560247Y-81340499D01*
X97560250Y-81340500D01*
X97560252Y-81340500D01*
X98599750Y-81340500D01*
X98599751Y-81340499D01*
X98614568Y-81337552D01*
X98658229Y-81328868D01*
X98658229Y-81328867D01*
X98658231Y-81328867D01*
X98724552Y-81284552D01*
X98768867Y-81218231D01*
X98771703Y-81203973D01*
X98774422Y-81190308D01*
X98806807Y-81128397D01*
X98867523Y-81093823D01*
X98896039Y-81090500D01*
X99139307Y-81090500D01*
X99139309Y-81090500D01*
X99216629Y-81069782D01*
X99232969Y-81065404D01*
X99232971Y-81065403D01*
X99242553Y-81062835D01*
X99253885Y-81059800D01*
X99263683Y-81054143D01*
X99356614Y-81000489D01*
X99760489Y-80596614D01*
X99809853Y-80511113D01*
X99819799Y-80493886D01*
X99850500Y-80379309D01*
X99850500Y-79600000D01*
X122119678Y-79600000D01*
X122138915Y-79783029D01*
X122138916Y-79783031D01*
X122138916Y-79783032D01*
X122195783Y-79958053D01*
X122195786Y-79958059D01*
X122287805Y-80117440D01*
X122352688Y-80189500D01*
X122410949Y-80254206D01*
X122410951Y-80254208D01*
X122559834Y-80362378D01*
X122559835Y-80362378D01*
X122559839Y-80362381D01*
X122679863Y-80415819D01*
X122727961Y-80437234D01*
X122727966Y-80437236D01*
X122907981Y-80475500D01*
X123092019Y-80475500D01*
X123272034Y-80437236D01*
X123440161Y-80362381D01*
X123589050Y-80254207D01*
X123712195Y-80117440D01*
X123804214Y-79958059D01*
X123861085Y-79783029D01*
X123880322Y-79600000D01*
X123861085Y-79416971D01*
X123824061Y-79303023D01*
X123804216Y-79241946D01*
X123804213Y-79241940D01*
X123762936Y-79170446D01*
X123712195Y-79082560D01*
X123589050Y-78945793D01*
X123589048Y-78945791D01*
X123440165Y-78837621D01*
X123440162Y-78837619D01*
X123440161Y-78837619D01*
X123379112Y-78810438D01*
X123272038Y-78762765D01*
X123272033Y-78762763D01*
X123092019Y-78724500D01*
X122907981Y-78724500D01*
X122727966Y-78762763D01*
X122727961Y-78762765D01*
X122559839Y-78837619D01*
X122559834Y-78837621D01*
X122410951Y-78945791D01*
X122410949Y-78945793D01*
X122287804Y-79082561D01*
X122195786Y-79241940D01*
X122195783Y-79241946D01*
X122140274Y-79412787D01*
X122138915Y-79416971D01*
X122119678Y-79600000D01*
X99850500Y-79600000D01*
X99850500Y-79237965D01*
X99870185Y-79170926D01*
X99886819Y-79150284D01*
X101150285Y-77886819D01*
X101211608Y-77853334D01*
X101237966Y-77850500D01*
X131212035Y-77850500D01*
X131279074Y-77870185D01*
X131299716Y-77886819D01*
X133663181Y-80250284D01*
X133696666Y-80311607D01*
X133699500Y-80337965D01*
X133699500Y-80355240D01*
X133687882Y-80407646D01*
X133685932Y-80411826D01*
X133685931Y-80411830D01*
X133679500Y-80460683D01*
X133679500Y-80909316D01*
X133685931Y-80958171D01*
X133735935Y-81065404D01*
X133763181Y-81092650D01*
X133796666Y-81153973D01*
X133799500Y-81180331D01*
X133799500Y-82286143D01*
X133815351Y-82345302D01*
X133823386Y-82375287D01*
X133823387Y-82375290D01*
X133869527Y-82455208D01*
X133869529Y-82455211D01*
X133869530Y-82455212D01*
X134454788Y-83040470D01*
X134528503Y-83083029D01*
X134534712Y-83086614D01*
X134623856Y-83110500D01*
X134623858Y-83110500D01*
X135447750Y-83110500D01*
X135447751Y-83110499D01*
X135462568Y-83107552D01*
X135506229Y-83098868D01*
X135506229Y-83098867D01*
X135506231Y-83098867D01*
X135572552Y-83054552D01*
X135572553Y-83054551D01*
X135581188Y-83045917D01*
X135582015Y-83046744D01*
X135626010Y-83009978D01*
X135695335Y-83001271D01*
X135758362Y-83031425D01*
X135795082Y-83090868D01*
X135799500Y-83123674D01*
X135799500Y-83239562D01*
X135806066Y-83264065D01*
X135819979Y-83315991D01*
X135827780Y-83329501D01*
X135827781Y-83329503D01*
X135859537Y-83384507D01*
X135859541Y-83384512D01*
X136143181Y-83668152D01*
X136176666Y-83729475D01*
X136179500Y-83755833D01*
X136179500Y-83974316D01*
X136185931Y-84023173D01*
X136188505Y-84032003D01*
X136188363Y-84101873D01*
X136150469Y-84160574D01*
X136132582Y-84173426D01*
X136122708Y-84179265D01*
X136122708Y-84179266D01*
X136009268Y-84292705D01*
X136009261Y-84292714D01*
X135927595Y-84430805D01*
X135887156Y-84570000D01*
X137512844Y-84570000D01*
X137472404Y-84430805D01*
X137387726Y-84287621D01*
X137370543Y-84219897D01*
X137392703Y-84153635D01*
X137447169Y-84109871D01*
X137494458Y-84100500D01*
X137841499Y-84100500D01*
X137908538Y-84120185D01*
X137935211Y-84143296D01*
X137968872Y-84182143D01*
X138089947Y-84259953D01*
X138089950Y-84259954D01*
X138089949Y-84259954D01*
X138228036Y-84300499D01*
X138228038Y-84300500D01*
X138228039Y-84300500D01*
X138371962Y-84300500D01*
X138371962Y-84300499D01*
X138479121Y-84269035D01*
X138510050Y-84259954D01*
X138510050Y-84259953D01*
X138510053Y-84259953D01*
X138631128Y-84182143D01*
X138725377Y-84073373D01*
X138785165Y-83942457D01*
X138805647Y-83800000D01*
X138785165Y-83657543D01*
X138725377Y-83526627D01*
X138724576Y-83525703D01*
X138724069Y-83524592D01*
X138720582Y-83519166D01*
X138721362Y-83518664D01*
X138695551Y-83462149D01*
X138705494Y-83392990D01*
X138751248Y-83340185D01*
X138818287Y-83320500D01*
X138864317Y-83320500D01*
X138880601Y-83318356D01*
X138913173Y-83314068D01*
X139020404Y-83264065D01*
X139104065Y-83180404D01*
X139104065Y-83180403D01*
X139111736Y-83172733D01*
X139114564Y-83175561D01*
X139152977Y-83144843D01*
X139222474Y-83137635D01*
X139284835Y-83169143D01*
X139288093Y-83172903D01*
X139288264Y-83172733D01*
X139295935Y-83180404D01*
X139379596Y-83264065D01*
X139486827Y-83314068D01*
X139535683Y-83320500D01*
X139535684Y-83320500D01*
X139884317Y-83320500D01*
X139900601Y-83318356D01*
X139933173Y-83314068D01*
X140040404Y-83264065D01*
X140124065Y-83180404D01*
X140127939Y-83172095D01*
X140174110Y-83119657D01*
X140240321Y-83100500D01*
X140341499Y-83100500D01*
X140408538Y-83120185D01*
X140435211Y-83143296D01*
X140468872Y-83182143D01*
X140589947Y-83259953D01*
X140589950Y-83259954D01*
X140589949Y-83259954D01*
X140640886Y-83274910D01*
X140724633Y-83299500D01*
X140728036Y-83300499D01*
X140728038Y-83300500D01*
X140728039Y-83300500D01*
X140871962Y-83300500D01*
X140871962Y-83300499D01*
X141010053Y-83259953D01*
X141131128Y-83182143D01*
X141225377Y-83073373D01*
X141285165Y-82942457D01*
X141305647Y-82800000D01*
X141285165Y-82657543D01*
X141225377Y-82526627D01*
X141131128Y-82417857D01*
X141010053Y-82340047D01*
X141010051Y-82340046D01*
X141010049Y-82340045D01*
X141010050Y-82340045D01*
X140871963Y-82299500D01*
X140871961Y-82299500D01*
X140728039Y-82299500D01*
X140728036Y-82299500D01*
X140589949Y-82340045D01*
X140468873Y-82417856D01*
X140468872Y-82417856D01*
X140468872Y-82417857D01*
X140458569Y-82429748D01*
X140435212Y-82456703D01*
X140376433Y-82494477D01*
X140341499Y-82499500D01*
X140240321Y-82499500D01*
X140173282Y-82479815D01*
X140127939Y-82427904D01*
X140124065Y-82419596D01*
X140040404Y-82335935D01*
X139933173Y-82285932D01*
X139933171Y-82285931D01*
X139933172Y-82285931D01*
X139884317Y-82279500D01*
X139884316Y-82279500D01*
X139535684Y-82279500D01*
X139535683Y-82279500D01*
X139486828Y-82285931D01*
X139379595Y-82335935D01*
X139288264Y-82427267D01*
X139285440Y-82424443D01*
X139246958Y-82455183D01*
X139177458Y-82462352D01*
X139115114Y-82430808D01*
X139111901Y-82427101D01*
X139111736Y-82427267D01*
X139020404Y-82335935D01*
X138944390Y-82300489D01*
X138913173Y-82285932D01*
X138913171Y-82285931D01*
X138913172Y-82285931D01*
X138864317Y-82279500D01*
X138864316Y-82279500D01*
X138515684Y-82279500D01*
X138515683Y-82279500D01*
X138466828Y-82285931D01*
X138359595Y-82335935D01*
X138272350Y-82423181D01*
X138211027Y-82456666D01*
X138184669Y-82459500D01*
X137556947Y-82459500D01*
X137489908Y-82439815D01*
X137444153Y-82387011D01*
X137434209Y-82317853D01*
X137457681Y-82261189D01*
X137539350Y-82152093D01*
X137539354Y-82152086D01*
X137589596Y-82017379D01*
X137589598Y-82017372D01*
X137595999Y-81957844D01*
X137596000Y-81957827D01*
X137596000Y-81910000D01*
X137126916Y-81910000D01*
X137116738Y-81909500D01*
X137115748Y-81909500D01*
X136584252Y-81909500D01*
X136583262Y-81909500D01*
X136573084Y-81910000D01*
X136104000Y-81910000D01*
X136104000Y-81957828D01*
X136107191Y-81987509D01*
X136094785Y-82056269D01*
X136071583Y-82088445D01*
X136022410Y-82137619D01*
X135915489Y-82244540D01*
X135859541Y-82300487D01*
X135854590Y-82306940D01*
X135853426Y-82306047D01*
X135809318Y-82348104D01*
X135740711Y-82361325D01*
X135675846Y-82335356D01*
X135635319Y-82278441D01*
X135628500Y-82237887D01*
X135628500Y-82090249D01*
X135617349Y-82034192D01*
X135617349Y-81985808D01*
X135628500Y-81929750D01*
X135628500Y-81590249D01*
X135628499Y-81590247D01*
X135622912Y-81562155D01*
X136104000Y-81562155D01*
X136104000Y-81610000D01*
X136700000Y-81610000D01*
X137000000Y-81610000D01*
X137596000Y-81610000D01*
X137596000Y-81562172D01*
X137595999Y-81562155D01*
X137589598Y-81502627D01*
X137589596Y-81502620D01*
X137539354Y-81367913D01*
X137539350Y-81367906D01*
X137453190Y-81252812D01*
X137453187Y-81252809D01*
X137338093Y-81166649D01*
X137338086Y-81166645D01*
X137203379Y-81116403D01*
X137203372Y-81116401D01*
X137143844Y-81110000D01*
X137000000Y-81110000D01*
X137000000Y-81610000D01*
X136700000Y-81610000D01*
X136700000Y-81110000D01*
X136556155Y-81110000D01*
X136496627Y-81116401D01*
X136496620Y-81116403D01*
X136361913Y-81166645D01*
X136361906Y-81166649D01*
X136246812Y-81252809D01*
X136246809Y-81252812D01*
X136160649Y-81367906D01*
X136160645Y-81367913D01*
X136110403Y-81502620D01*
X136110401Y-81502627D01*
X136104000Y-81562155D01*
X135622912Y-81562155D01*
X135616868Y-81531770D01*
X135616867Y-81531769D01*
X135572551Y-81465446D01*
X135525608Y-81434079D01*
X135480803Y-81380466D01*
X135470500Y-81330978D01*
X135470500Y-81230331D01*
X135490185Y-81163292D01*
X135506819Y-81142650D01*
X135539469Y-81110000D01*
X135547314Y-81102155D01*
X147150000Y-81102155D01*
X147150000Y-81750000D01*
X148066988Y-81750000D01*
X148034075Y-81807007D01*
X148000000Y-81934174D01*
X148000000Y-82065826D01*
X148034075Y-82192993D01*
X148066988Y-82250000D01*
X147150000Y-82250000D01*
X147150000Y-82897844D01*
X147156401Y-82957372D01*
X147156403Y-82957379D01*
X147206645Y-83092086D01*
X147206649Y-83092093D01*
X147292809Y-83207187D01*
X147292812Y-83207190D01*
X147407906Y-83293350D01*
X147407913Y-83293354D01*
X147542620Y-83343596D01*
X147542627Y-83343598D01*
X147602155Y-83349999D01*
X147602172Y-83350000D01*
X148002813Y-83350000D01*
X148069852Y-83369685D01*
X148115607Y-83422489D01*
X148125551Y-83491647D01*
X148096526Y-83555203D01*
X148061267Y-83583357D01*
X147913550Y-83662315D01*
X147913548Y-83662316D01*
X147913547Y-83662317D01*
X147753589Y-83793589D01*
X147622317Y-83953547D01*
X147622315Y-83953550D01*
X147592403Y-84009511D01*
X147524769Y-84136043D01*
X147524768Y-84136045D01*
X147524768Y-84136046D01*
X147517898Y-84158692D01*
X147464699Y-84334067D01*
X147444417Y-84540000D01*
X147464699Y-84745932D01*
X147464700Y-84745934D01*
X147524768Y-84943954D01*
X147622315Y-85126450D01*
X147622317Y-85126452D01*
X147753589Y-85286410D01*
X147827767Y-85347285D01*
X147913550Y-85417685D01*
X148096046Y-85515232D01*
X148294066Y-85575300D01*
X148294065Y-85575300D01*
X148312529Y-85577118D01*
X148500000Y-85595583D01*
X148705934Y-85575300D01*
X148903954Y-85515232D01*
X149086450Y-85417685D01*
X149246410Y-85286410D01*
X149377685Y-85126450D01*
X149475232Y-84943954D01*
X149535300Y-84745934D01*
X149555583Y-84540000D01*
X149535300Y-84334066D01*
X149475232Y-84136046D01*
X149377685Y-83953550D01*
X149325702Y-83890209D01*
X149246410Y-83793589D01*
X149086529Y-83662380D01*
X149086450Y-83662315D01*
X148938732Y-83583357D01*
X148888889Y-83534395D01*
X148873429Y-83466257D01*
X148897261Y-83400578D01*
X148952819Y-83358209D01*
X148997187Y-83350000D01*
X149397828Y-83350000D01*
X149397844Y-83349999D01*
X149457372Y-83343598D01*
X149457379Y-83343596D01*
X149592086Y-83293354D01*
X149592093Y-83293350D01*
X149707187Y-83207190D01*
X149707190Y-83207187D01*
X149793350Y-83092093D01*
X149793354Y-83092086D01*
X149843596Y-82957379D01*
X149843598Y-82957372D01*
X149849999Y-82897844D01*
X149850000Y-82897827D01*
X149850000Y-82250000D01*
X148933012Y-82250000D01*
X148965925Y-82192993D01*
X149000000Y-82065826D01*
X149000000Y-81934174D01*
X148965925Y-81807007D01*
X148933012Y-81750000D01*
X149850000Y-81750000D01*
X149850000Y-81102172D01*
X149849999Y-81102155D01*
X149843598Y-81042627D01*
X149843596Y-81042620D01*
X149793354Y-80907913D01*
X149793350Y-80907906D01*
X149707190Y-80792812D01*
X149707187Y-80792809D01*
X149592093Y-80706649D01*
X149592086Y-80706645D01*
X149457379Y-80656403D01*
X149457372Y-80656401D01*
X149397844Y-80650000D01*
X148750000Y-80650000D01*
X148750000Y-81566988D01*
X148692993Y-81534075D01*
X148565826Y-81500000D01*
X148434174Y-81500000D01*
X148307007Y-81534075D01*
X148250000Y-81566988D01*
X148250000Y-80650000D01*
X147602155Y-80650000D01*
X147542627Y-80656401D01*
X147542620Y-80656403D01*
X147407913Y-80706645D01*
X147407906Y-80706649D01*
X147292812Y-80792809D01*
X147292809Y-80792812D01*
X147206649Y-80907906D01*
X147206645Y-80907913D01*
X147156403Y-81042620D01*
X147156401Y-81042627D01*
X147150000Y-81102155D01*
X135547314Y-81102155D01*
X135584065Y-81065404D01*
X135634068Y-80958173D01*
X135640500Y-80909316D01*
X135640500Y-80460684D01*
X135637651Y-80439047D01*
X135637284Y-80436255D01*
X135634068Y-80411827D01*
X135584065Y-80304596D01*
X135500404Y-80220935D01*
X135393173Y-80170932D01*
X135393171Y-80170931D01*
X135393172Y-80170931D01*
X135344317Y-80164500D01*
X135344316Y-80164500D01*
X134995684Y-80164500D01*
X134995683Y-80164500D01*
X134946828Y-80170931D01*
X134839595Y-80220935D01*
X134812181Y-80248350D01*
X134750858Y-80281835D01*
X134681166Y-80276851D01*
X134625233Y-80234979D01*
X134600816Y-80169515D01*
X134600500Y-80160669D01*
X134600500Y-80040693D01*
X134600500Y-80040691D01*
X134569799Y-79926114D01*
X134565259Y-79918250D01*
X134554839Y-79900201D01*
X134554839Y-79900202D01*
X134510490Y-79823386D01*
X132580816Y-77893713D01*
X149549500Y-77893713D01*
X149549500Y-78106286D01*
X149582753Y-78316239D01*
X149648444Y-78518414D01*
X149744951Y-78707820D01*
X149869890Y-78879786D01*
X150020213Y-79030109D01*
X150192179Y-79155048D01*
X150192181Y-79155049D01*
X150192184Y-79155051D01*
X150381588Y-79251557D01*
X150583757Y-79317246D01*
X150793713Y-79350500D01*
X150793714Y-79350500D01*
X151006286Y-79350500D01*
X151006287Y-79350500D01*
X151216243Y-79317246D01*
X151418412Y-79251557D01*
X151607816Y-79155051D01*
X151728804Y-79067149D01*
X151779786Y-79030109D01*
X151779788Y-79030106D01*
X151779792Y-79030104D01*
X151930104Y-78879792D01*
X151930106Y-78879788D01*
X151930109Y-78879786D01*
X152055048Y-78707820D01*
X152055047Y-78707820D01*
X152055051Y-78707816D01*
X152151557Y-78518412D01*
X152217246Y-78316243D01*
X152250500Y-78106287D01*
X152250500Y-77893713D01*
X152217246Y-77683757D01*
X152151557Y-77481588D01*
X152055051Y-77292184D01*
X152055049Y-77292181D01*
X152055048Y-77292179D01*
X151930109Y-77120213D01*
X151779786Y-76969890D01*
X151607820Y-76844951D01*
X151418414Y-76748444D01*
X151418413Y-76748443D01*
X151418412Y-76748443D01*
X151216243Y-76682754D01*
X151216241Y-76682753D01*
X151216240Y-76682753D01*
X151054957Y-76657208D01*
X151006287Y-76649500D01*
X150793713Y-76649500D01*
X150745042Y-76657208D01*
X150583760Y-76682753D01*
X150381585Y-76748444D01*
X150192179Y-76844951D01*
X150020213Y-76969890D01*
X149869890Y-77120213D01*
X149744951Y-77292179D01*
X149648444Y-77481585D01*
X149582753Y-77683760D01*
X149549500Y-77893713D01*
X132580816Y-77893713D01*
X131726614Y-77039511D01*
X131623887Y-76980201D01*
X131585427Y-76969896D01*
X131585424Y-76969895D01*
X131553254Y-76961275D01*
X131509309Y-76949500D01*
X100940691Y-76949500D01*
X100864572Y-76969896D01*
X100864571Y-76969896D01*
X100826115Y-76980199D01*
X100826110Y-76980201D01*
X100723392Y-77039505D01*
X100723384Y-77039511D01*
X99033764Y-78729133D01*
X99032819Y-78728188D01*
X98983221Y-78764398D01*
X98913475Y-78768546D01*
X98852558Y-78734329D01*
X98845431Y-78726370D01*
X98790528Y-78659471D01*
X98638260Y-78534507D01*
X98638253Y-78534503D01*
X98464541Y-78441652D01*
X98330000Y-78400839D01*
X98330000Y-79160382D01*
X98279554Y-79109936D01*
X98205445Y-79067149D01*
X98122787Y-79045000D01*
X98037213Y-79045000D01*
X97954555Y-79067149D01*
X97880446Y-79109936D01*
X97819936Y-79170446D01*
X97777149Y-79244555D01*
X97755000Y-79327213D01*
X97755000Y-79412787D01*
X97777149Y-79495445D01*
X97819936Y-79569554D01*
X97870382Y-79620000D01*
X97110840Y-79620000D01*
X89500000Y-79620000D01*
X89500000Y-77893713D01*
X90549500Y-77893713D01*
X90549500Y-78106286D01*
X90582753Y-78316239D01*
X90648444Y-78518414D01*
X90744951Y-78707820D01*
X90869890Y-78879786D01*
X91020213Y-79030109D01*
X91192179Y-79155048D01*
X91192181Y-79155049D01*
X91192184Y-79155051D01*
X91381588Y-79251557D01*
X91583757Y-79317246D01*
X91793713Y-79350500D01*
X91793714Y-79350500D01*
X92006286Y-79350500D01*
X92006287Y-79350500D01*
X92216243Y-79317246D01*
X92418412Y-79251557D01*
X92607816Y-79155051D01*
X92656061Y-79119999D01*
X97110839Y-79119999D01*
X97110840Y-79120000D01*
X97830000Y-79120000D01*
X97830000Y-78400839D01*
X97829999Y-78400839D01*
X97695458Y-78441652D01*
X97521746Y-78534503D01*
X97521739Y-78534507D01*
X97369471Y-78659471D01*
X97244507Y-78811739D01*
X97244503Y-78811746D01*
X97151652Y-78985458D01*
X97110839Y-79119999D01*
X92656061Y-79119999D01*
X92728804Y-79067149D01*
X92779786Y-79030109D01*
X92779788Y-79030106D01*
X92779792Y-79030104D01*
X92930104Y-78879792D01*
X92930106Y-78879788D01*
X92930109Y-78879786D01*
X93055048Y-78707820D01*
X93055047Y-78707820D01*
X93055051Y-78707816D01*
X93151557Y-78518412D01*
X93217246Y-78316243D01*
X93250500Y-78106287D01*
X93250500Y-77893713D01*
X93217246Y-77683757D01*
X93151557Y-77481588D01*
X93055051Y-77292184D01*
X93055049Y-77292181D01*
X93055048Y-77292179D01*
X92930109Y-77120213D01*
X92779786Y-76969890D01*
X92607820Y-76844951D01*
X92418414Y-76748444D01*
X92418413Y-76748443D01*
X92418412Y-76748443D01*
X92216243Y-76682754D01*
X92216241Y-76682753D01*
X92216240Y-76682753D01*
X92054957Y-76657208D01*
X92006287Y-76649500D01*
X91793713Y-76649500D01*
X91745042Y-76657208D01*
X91583760Y-76682753D01*
X91381585Y-76748444D01*
X91192179Y-76844951D01*
X91020213Y-76969890D01*
X90869890Y-77120213D01*
X90744951Y-77292179D01*
X90648444Y-77481585D01*
X90582753Y-77683760D01*
X90549500Y-77893713D01*
X89500000Y-77893713D01*
X89500000Y-75724000D01*
X89519685Y-75656961D01*
X89572489Y-75611206D01*
X89624000Y-75600000D01*
X153176000Y-75600000D01*
X153243039Y-75619685D01*
G37*
%TD.AperFunction*%
M02*
