%TF.GenerationSoftware,KiCad,Pcbnew,8.0.2-1*%
%TF.CreationDate,2024-12-04T10:13:35+09:00*%
%TF.ProjectId,gas_nrf52832,6761735f-6e72-4663-9532-3833322e6b69,rev?*%
%TF.SameCoordinates,Original*%
%TF.FileFunction,Legend,Top*%
%TF.FilePolarity,Positive*%
%FSLAX46Y46*%
G04 Gerber Fmt 4.6, Leading zero omitted, Abs format (unit mm)*
G04 Created by KiCad (PCBNEW 8.0.2-1) date 2024-12-04 10:13:35*
%MOMM*%
%LPD*%
G01*
G04 APERTURE LIST*
%ADD10C,0.125000*%
%ADD11C,0.120000*%
%ADD12C,0.200000*%
%ADD13C,0.100000*%
%ADD14C,0.203200*%
%ADD15C,0.150000*%
%ADD16C,0.254000*%
%ADD17C,0.127000*%
G04 APERTURE END LIST*
D10*
X100872712Y-107157640D02*
X100872712Y-106357640D01*
X100872712Y-106738592D02*
X101329855Y-106738592D01*
X101329855Y-107157640D02*
X101329855Y-106357640D01*
X101710807Y-107157640D02*
X101710807Y-106357640D01*
X101710807Y-106738592D02*
X102167950Y-106738592D01*
X102167950Y-107157640D02*
X102167950Y-106357640D01*
X102510806Y-107119545D02*
X102625092Y-107157640D01*
X102625092Y-107157640D02*
X102815568Y-107157640D01*
X102815568Y-107157640D02*
X102891759Y-107119545D01*
X102891759Y-107119545D02*
X102929854Y-107081449D01*
X102929854Y-107081449D02*
X102967949Y-107005259D01*
X102967949Y-107005259D02*
X102967949Y-106929068D01*
X102967949Y-106929068D02*
X102929854Y-106852878D01*
X102929854Y-106852878D02*
X102891759Y-106814783D01*
X102891759Y-106814783D02*
X102815568Y-106776687D01*
X102815568Y-106776687D02*
X102663187Y-106738592D01*
X102663187Y-106738592D02*
X102586997Y-106700497D01*
X102586997Y-106700497D02*
X102548902Y-106662402D01*
X102548902Y-106662402D02*
X102510806Y-106586211D01*
X102510806Y-106586211D02*
X102510806Y-106510021D01*
X102510806Y-106510021D02*
X102548902Y-106433830D01*
X102548902Y-106433830D02*
X102586997Y-106395735D01*
X102586997Y-106395735D02*
X102663187Y-106357640D01*
X102663187Y-106357640D02*
X102853664Y-106357640D01*
X102853664Y-106357640D02*
X102967949Y-106395735D01*
X104339378Y-106395735D02*
X104263188Y-106357640D01*
X104263188Y-106357640D02*
X104148902Y-106357640D01*
X104148902Y-106357640D02*
X104034616Y-106395735D01*
X104034616Y-106395735D02*
X103958426Y-106471925D01*
X103958426Y-106471925D02*
X103920331Y-106548116D01*
X103920331Y-106548116D02*
X103882235Y-106700497D01*
X103882235Y-106700497D02*
X103882235Y-106814783D01*
X103882235Y-106814783D02*
X103920331Y-106967164D01*
X103920331Y-106967164D02*
X103958426Y-107043354D01*
X103958426Y-107043354D02*
X104034616Y-107119545D01*
X104034616Y-107119545D02*
X104148902Y-107157640D01*
X104148902Y-107157640D02*
X104225093Y-107157640D01*
X104225093Y-107157640D02*
X104339378Y-107119545D01*
X104339378Y-107119545D02*
X104377474Y-107081449D01*
X104377474Y-107081449D02*
X104377474Y-106814783D01*
X104377474Y-106814783D02*
X104225093Y-106814783D01*
X105063188Y-107157640D02*
X105063188Y-106738592D01*
X105063188Y-106738592D02*
X105025093Y-106662402D01*
X105025093Y-106662402D02*
X104948902Y-106624306D01*
X104948902Y-106624306D02*
X104796521Y-106624306D01*
X104796521Y-106624306D02*
X104720331Y-106662402D01*
X105063188Y-107119545D02*
X104986997Y-107157640D01*
X104986997Y-107157640D02*
X104796521Y-107157640D01*
X104796521Y-107157640D02*
X104720331Y-107119545D01*
X104720331Y-107119545D02*
X104682235Y-107043354D01*
X104682235Y-107043354D02*
X104682235Y-106967164D01*
X104682235Y-106967164D02*
X104720331Y-106890973D01*
X104720331Y-106890973D02*
X104796521Y-106852878D01*
X104796521Y-106852878D02*
X104986997Y-106852878D01*
X104986997Y-106852878D02*
X105063188Y-106814783D01*
X105406045Y-107119545D02*
X105482236Y-107157640D01*
X105482236Y-107157640D02*
X105634617Y-107157640D01*
X105634617Y-107157640D02*
X105710807Y-107119545D01*
X105710807Y-107119545D02*
X105748903Y-107043354D01*
X105748903Y-107043354D02*
X105748903Y-107005259D01*
X105748903Y-107005259D02*
X105710807Y-106929068D01*
X105710807Y-106929068D02*
X105634617Y-106890973D01*
X105634617Y-106890973D02*
X105520331Y-106890973D01*
X105520331Y-106890973D02*
X105444141Y-106852878D01*
X105444141Y-106852878D02*
X105406045Y-106776687D01*
X105406045Y-106776687D02*
X105406045Y-106738592D01*
X105406045Y-106738592D02*
X105444141Y-106662402D01*
X105444141Y-106662402D02*
X105520331Y-106624306D01*
X105520331Y-106624306D02*
X105634617Y-106624306D01*
X105634617Y-106624306D02*
X105710807Y-106662402D01*
X106967950Y-106738592D02*
X107082236Y-106776687D01*
X107082236Y-106776687D02*
X107120331Y-106814783D01*
X107120331Y-106814783D02*
X107158427Y-106890973D01*
X107158427Y-106890973D02*
X107158427Y-107005259D01*
X107158427Y-107005259D02*
X107120331Y-107081449D01*
X107120331Y-107081449D02*
X107082236Y-107119545D01*
X107082236Y-107119545D02*
X107006046Y-107157640D01*
X107006046Y-107157640D02*
X106701284Y-107157640D01*
X106701284Y-107157640D02*
X106701284Y-106357640D01*
X106701284Y-106357640D02*
X106967950Y-106357640D01*
X106967950Y-106357640D02*
X107044141Y-106395735D01*
X107044141Y-106395735D02*
X107082236Y-106433830D01*
X107082236Y-106433830D02*
X107120331Y-106510021D01*
X107120331Y-106510021D02*
X107120331Y-106586211D01*
X107120331Y-106586211D02*
X107082236Y-106662402D01*
X107082236Y-106662402D02*
X107044141Y-106700497D01*
X107044141Y-106700497D02*
X106967950Y-106738592D01*
X106967950Y-106738592D02*
X106701284Y-106738592D01*
X107615569Y-107157640D02*
X107539379Y-107119545D01*
X107539379Y-107119545D02*
X107501284Y-107081449D01*
X107501284Y-107081449D02*
X107463188Y-107005259D01*
X107463188Y-107005259D02*
X107463188Y-106776687D01*
X107463188Y-106776687D02*
X107501284Y-106700497D01*
X107501284Y-106700497D02*
X107539379Y-106662402D01*
X107539379Y-106662402D02*
X107615569Y-106624306D01*
X107615569Y-106624306D02*
X107729855Y-106624306D01*
X107729855Y-106624306D02*
X107806046Y-106662402D01*
X107806046Y-106662402D02*
X107844141Y-106700497D01*
X107844141Y-106700497D02*
X107882236Y-106776687D01*
X107882236Y-106776687D02*
X107882236Y-107005259D01*
X107882236Y-107005259D02*
X107844141Y-107081449D01*
X107844141Y-107081449D02*
X107806046Y-107119545D01*
X107806046Y-107119545D02*
X107729855Y-107157640D01*
X107729855Y-107157640D02*
X107615569Y-107157640D01*
X108567951Y-107157640D02*
X108567951Y-106738592D01*
X108567951Y-106738592D02*
X108529856Y-106662402D01*
X108529856Y-106662402D02*
X108453665Y-106624306D01*
X108453665Y-106624306D02*
X108301284Y-106624306D01*
X108301284Y-106624306D02*
X108225094Y-106662402D01*
X108567951Y-107119545D02*
X108491760Y-107157640D01*
X108491760Y-107157640D02*
X108301284Y-107157640D01*
X108301284Y-107157640D02*
X108225094Y-107119545D01*
X108225094Y-107119545D02*
X108186998Y-107043354D01*
X108186998Y-107043354D02*
X108186998Y-106967164D01*
X108186998Y-106967164D02*
X108225094Y-106890973D01*
X108225094Y-106890973D02*
X108301284Y-106852878D01*
X108301284Y-106852878D02*
X108491760Y-106852878D01*
X108491760Y-106852878D02*
X108567951Y-106814783D01*
X108948904Y-107157640D02*
X108948904Y-106624306D01*
X108948904Y-106776687D02*
X108986999Y-106700497D01*
X108986999Y-106700497D02*
X109025094Y-106662402D01*
X109025094Y-106662402D02*
X109101285Y-106624306D01*
X109101285Y-106624306D02*
X109177475Y-106624306D01*
X109786999Y-107157640D02*
X109786999Y-106357640D01*
X109786999Y-107119545D02*
X109710808Y-107157640D01*
X109710808Y-107157640D02*
X109558427Y-107157640D01*
X109558427Y-107157640D02*
X109482237Y-107119545D01*
X109482237Y-107119545D02*
X109444142Y-107081449D01*
X109444142Y-107081449D02*
X109406046Y-107005259D01*
X109406046Y-107005259D02*
X109406046Y-106776687D01*
X109406046Y-106776687D02*
X109444142Y-106700497D01*
X109444142Y-106700497D02*
X109482237Y-106662402D01*
X109482237Y-106662402D02*
X109558427Y-106624306D01*
X109558427Y-106624306D02*
X109710808Y-106624306D01*
X109710808Y-106624306D02*
X109786999Y-106662402D01*
X101329855Y-108445595D02*
X101063188Y-108064642D01*
X100872712Y-108445595D02*
X100872712Y-107645595D01*
X100872712Y-107645595D02*
X101177474Y-107645595D01*
X101177474Y-107645595D02*
X101253664Y-107683690D01*
X101253664Y-107683690D02*
X101291759Y-107721785D01*
X101291759Y-107721785D02*
X101329855Y-107797976D01*
X101329855Y-107797976D02*
X101329855Y-107912261D01*
X101329855Y-107912261D02*
X101291759Y-107988452D01*
X101291759Y-107988452D02*
X101253664Y-108026547D01*
X101253664Y-108026547D02*
X101177474Y-108064642D01*
X101177474Y-108064642D02*
X100872712Y-108064642D01*
X101977474Y-108407500D02*
X101901283Y-108445595D01*
X101901283Y-108445595D02*
X101748902Y-108445595D01*
X101748902Y-108445595D02*
X101672712Y-108407500D01*
X101672712Y-108407500D02*
X101634616Y-108331309D01*
X101634616Y-108331309D02*
X101634616Y-108026547D01*
X101634616Y-108026547D02*
X101672712Y-107950357D01*
X101672712Y-107950357D02*
X101748902Y-107912261D01*
X101748902Y-107912261D02*
X101901283Y-107912261D01*
X101901283Y-107912261D02*
X101977474Y-107950357D01*
X101977474Y-107950357D02*
X102015569Y-108026547D01*
X102015569Y-108026547D02*
X102015569Y-108102738D01*
X102015569Y-108102738D02*
X101634616Y-108178928D01*
X102282235Y-107912261D02*
X102472711Y-108445595D01*
X102472711Y-108445595D02*
X102663188Y-107912261D01*
X103996521Y-108445595D02*
X103539378Y-108445595D01*
X103767950Y-108445595D02*
X103767950Y-107645595D01*
X103767950Y-107645595D02*
X103691759Y-107759880D01*
X103691759Y-107759880D02*
X103615569Y-107836071D01*
X103615569Y-107836071D02*
X103539378Y-107874166D01*
X104339379Y-108369404D02*
X104377474Y-108407500D01*
X104377474Y-108407500D02*
X104339379Y-108445595D01*
X104339379Y-108445595D02*
X104301283Y-108407500D01*
X104301283Y-108407500D02*
X104339379Y-108369404D01*
X104339379Y-108369404D02*
X104339379Y-108445595D01*
X104872712Y-107645595D02*
X104948902Y-107645595D01*
X104948902Y-107645595D02*
X105025093Y-107683690D01*
X105025093Y-107683690D02*
X105063188Y-107721785D01*
X105063188Y-107721785D02*
X105101283Y-107797976D01*
X105101283Y-107797976D02*
X105139378Y-107950357D01*
X105139378Y-107950357D02*
X105139378Y-108140833D01*
X105139378Y-108140833D02*
X105101283Y-108293214D01*
X105101283Y-108293214D02*
X105063188Y-108369404D01*
X105063188Y-108369404D02*
X105025093Y-108407500D01*
X105025093Y-108407500D02*
X104948902Y-108445595D01*
X104948902Y-108445595D02*
X104872712Y-108445595D01*
X104872712Y-108445595D02*
X104796521Y-108407500D01*
X104796521Y-108407500D02*
X104758426Y-108369404D01*
X104758426Y-108369404D02*
X104720331Y-108293214D01*
X104720331Y-108293214D02*
X104682235Y-108140833D01*
X104682235Y-108140833D02*
X104682235Y-107950357D01*
X104682235Y-107950357D02*
X104720331Y-107797976D01*
X104720331Y-107797976D02*
X104758426Y-107721785D01*
X104758426Y-107721785D02*
X104796521Y-107683690D01*
X104796521Y-107683690D02*
X104872712Y-107645595D01*
X105482236Y-108369404D02*
X105520331Y-108407500D01*
X105520331Y-108407500D02*
X105482236Y-108445595D01*
X105482236Y-108445595D02*
X105444140Y-108407500D01*
X105444140Y-108407500D02*
X105482236Y-108369404D01*
X105482236Y-108369404D02*
X105482236Y-108445595D01*
X106206045Y-107912261D02*
X106206045Y-108445595D01*
X106015569Y-107607500D02*
X105825092Y-108178928D01*
X105825092Y-108178928D02*
X106320331Y-108178928D01*
X143263595Y-87033332D02*
X142882642Y-87299999D01*
X143263595Y-87490475D02*
X142463595Y-87490475D01*
X142463595Y-87490475D02*
X142463595Y-87185713D01*
X142463595Y-87185713D02*
X142501690Y-87109523D01*
X142501690Y-87109523D02*
X142539785Y-87071428D01*
X142539785Y-87071428D02*
X142615976Y-87033332D01*
X142615976Y-87033332D02*
X142730261Y-87033332D01*
X142730261Y-87033332D02*
X142806452Y-87071428D01*
X142806452Y-87071428D02*
X142844547Y-87109523D01*
X142844547Y-87109523D02*
X142882642Y-87185713D01*
X142882642Y-87185713D02*
X142882642Y-87490475D01*
X142463595Y-86766666D02*
X142463595Y-86233332D01*
X142463595Y-86233332D02*
X143263595Y-86576190D01*
X123066667Y-90063595D02*
X122800000Y-89682642D01*
X122609524Y-90063595D02*
X122609524Y-89263595D01*
X122609524Y-89263595D02*
X122914286Y-89263595D01*
X122914286Y-89263595D02*
X122990476Y-89301690D01*
X122990476Y-89301690D02*
X123028571Y-89339785D01*
X123028571Y-89339785D02*
X123066667Y-89415976D01*
X123066667Y-89415976D02*
X123066667Y-89530261D01*
X123066667Y-89530261D02*
X123028571Y-89606452D01*
X123028571Y-89606452D02*
X122990476Y-89644547D01*
X122990476Y-89644547D02*
X122914286Y-89682642D01*
X122914286Y-89682642D02*
X122609524Y-89682642D01*
X123447619Y-90063595D02*
X123600000Y-90063595D01*
X123600000Y-90063595D02*
X123676190Y-90025500D01*
X123676190Y-90025500D02*
X123714286Y-89987404D01*
X123714286Y-89987404D02*
X123790476Y-89873119D01*
X123790476Y-89873119D02*
X123828571Y-89720738D01*
X123828571Y-89720738D02*
X123828571Y-89415976D01*
X123828571Y-89415976D02*
X123790476Y-89339785D01*
X123790476Y-89339785D02*
X123752381Y-89301690D01*
X123752381Y-89301690D02*
X123676190Y-89263595D01*
X123676190Y-89263595D02*
X123523809Y-89263595D01*
X123523809Y-89263595D02*
X123447619Y-89301690D01*
X123447619Y-89301690D02*
X123409524Y-89339785D01*
X123409524Y-89339785D02*
X123371428Y-89415976D01*
X123371428Y-89415976D02*
X123371428Y-89606452D01*
X123371428Y-89606452D02*
X123409524Y-89682642D01*
X123409524Y-89682642D02*
X123447619Y-89720738D01*
X123447619Y-89720738D02*
X123523809Y-89758833D01*
X123523809Y-89758833D02*
X123676190Y-89758833D01*
X123676190Y-89758833D02*
X123752381Y-89720738D01*
X123752381Y-89720738D02*
X123790476Y-89682642D01*
X123790476Y-89682642D02*
X123828571Y-89606452D01*
X127980714Y-98248595D02*
X127714047Y-97867642D01*
X127523571Y-98248595D02*
X127523571Y-97448595D01*
X127523571Y-97448595D02*
X127828333Y-97448595D01*
X127828333Y-97448595D02*
X127904523Y-97486690D01*
X127904523Y-97486690D02*
X127942618Y-97524785D01*
X127942618Y-97524785D02*
X127980714Y-97600976D01*
X127980714Y-97600976D02*
X127980714Y-97715261D01*
X127980714Y-97715261D02*
X127942618Y-97791452D01*
X127942618Y-97791452D02*
X127904523Y-97829547D01*
X127904523Y-97829547D02*
X127828333Y-97867642D01*
X127828333Y-97867642D02*
X127523571Y-97867642D01*
X128742618Y-98248595D02*
X128285475Y-98248595D01*
X128514047Y-98248595D02*
X128514047Y-97448595D01*
X128514047Y-97448595D02*
X128437856Y-97562880D01*
X128437856Y-97562880D02*
X128361666Y-97639071D01*
X128361666Y-97639071D02*
X128285475Y-97677166D01*
X129199761Y-97791452D02*
X129123571Y-97753357D01*
X129123571Y-97753357D02*
X129085476Y-97715261D01*
X129085476Y-97715261D02*
X129047380Y-97639071D01*
X129047380Y-97639071D02*
X129047380Y-97600976D01*
X129047380Y-97600976D02*
X129085476Y-97524785D01*
X129085476Y-97524785D02*
X129123571Y-97486690D01*
X129123571Y-97486690D02*
X129199761Y-97448595D01*
X129199761Y-97448595D02*
X129352142Y-97448595D01*
X129352142Y-97448595D02*
X129428333Y-97486690D01*
X129428333Y-97486690D02*
X129466428Y-97524785D01*
X129466428Y-97524785D02*
X129504523Y-97600976D01*
X129504523Y-97600976D02*
X129504523Y-97639071D01*
X129504523Y-97639071D02*
X129466428Y-97715261D01*
X129466428Y-97715261D02*
X129428333Y-97753357D01*
X129428333Y-97753357D02*
X129352142Y-97791452D01*
X129352142Y-97791452D02*
X129199761Y-97791452D01*
X129199761Y-97791452D02*
X129123571Y-97829547D01*
X129123571Y-97829547D02*
X129085476Y-97867642D01*
X129085476Y-97867642D02*
X129047380Y-97943833D01*
X129047380Y-97943833D02*
X129047380Y-98096214D01*
X129047380Y-98096214D02*
X129085476Y-98172404D01*
X129085476Y-98172404D02*
X129123571Y-98210500D01*
X129123571Y-98210500D02*
X129199761Y-98248595D01*
X129199761Y-98248595D02*
X129352142Y-98248595D01*
X129352142Y-98248595D02*
X129428333Y-98210500D01*
X129428333Y-98210500D02*
X129466428Y-98172404D01*
X129466428Y-98172404D02*
X129504523Y-98096214D01*
X129504523Y-98096214D02*
X129504523Y-97943833D01*
X129504523Y-97943833D02*
X129466428Y-97867642D01*
X129466428Y-97867642D02*
X129428333Y-97829547D01*
X129428333Y-97829547D02*
X129352142Y-97791452D01*
X107916666Y-87008595D02*
X107535714Y-87008595D01*
X107535714Y-87008595D02*
X107535714Y-86208595D01*
X108107142Y-86208595D02*
X108602380Y-86208595D01*
X108602380Y-86208595D02*
X108335714Y-86513357D01*
X108335714Y-86513357D02*
X108449999Y-86513357D01*
X108449999Y-86513357D02*
X108526190Y-86551452D01*
X108526190Y-86551452D02*
X108564285Y-86589547D01*
X108564285Y-86589547D02*
X108602380Y-86665738D01*
X108602380Y-86665738D02*
X108602380Y-86856214D01*
X108602380Y-86856214D02*
X108564285Y-86932404D01*
X108564285Y-86932404D02*
X108526190Y-86970500D01*
X108526190Y-86970500D02*
X108449999Y-87008595D01*
X108449999Y-87008595D02*
X108221428Y-87008595D01*
X108221428Y-87008595D02*
X108145237Y-86970500D01*
X108145237Y-86970500D02*
X108107142Y-86932404D01*
X108357404Y-102189285D02*
X108395500Y-102227381D01*
X108395500Y-102227381D02*
X108433595Y-102341666D01*
X108433595Y-102341666D02*
X108433595Y-102417857D01*
X108433595Y-102417857D02*
X108395500Y-102532143D01*
X108395500Y-102532143D02*
X108319309Y-102608333D01*
X108319309Y-102608333D02*
X108243119Y-102646428D01*
X108243119Y-102646428D02*
X108090738Y-102684524D01*
X108090738Y-102684524D02*
X107976452Y-102684524D01*
X107976452Y-102684524D02*
X107824071Y-102646428D01*
X107824071Y-102646428D02*
X107747880Y-102608333D01*
X107747880Y-102608333D02*
X107671690Y-102532143D01*
X107671690Y-102532143D02*
X107633595Y-102417857D01*
X107633595Y-102417857D02*
X107633595Y-102341666D01*
X107633595Y-102341666D02*
X107671690Y-102227381D01*
X107671690Y-102227381D02*
X107709785Y-102189285D01*
X108433595Y-101427381D02*
X108433595Y-101884524D01*
X108433595Y-101655952D02*
X107633595Y-101655952D01*
X107633595Y-101655952D02*
X107747880Y-101732143D01*
X107747880Y-101732143D02*
X107824071Y-101808333D01*
X107824071Y-101808333D02*
X107862166Y-101884524D01*
X108433595Y-101046428D02*
X108433595Y-100894047D01*
X108433595Y-100894047D02*
X108395500Y-100817857D01*
X108395500Y-100817857D02*
X108357404Y-100779761D01*
X108357404Y-100779761D02*
X108243119Y-100703571D01*
X108243119Y-100703571D02*
X108090738Y-100665476D01*
X108090738Y-100665476D02*
X107785976Y-100665476D01*
X107785976Y-100665476D02*
X107709785Y-100703571D01*
X107709785Y-100703571D02*
X107671690Y-100741666D01*
X107671690Y-100741666D02*
X107633595Y-100817857D01*
X107633595Y-100817857D02*
X107633595Y-100970238D01*
X107633595Y-100970238D02*
X107671690Y-101046428D01*
X107671690Y-101046428D02*
X107709785Y-101084523D01*
X107709785Y-101084523D02*
X107785976Y-101122619D01*
X107785976Y-101122619D02*
X107976452Y-101122619D01*
X107976452Y-101122619D02*
X108052642Y-101084523D01*
X108052642Y-101084523D02*
X108090738Y-101046428D01*
X108090738Y-101046428D02*
X108128833Y-100970238D01*
X108128833Y-100970238D02*
X108128833Y-100817857D01*
X108128833Y-100817857D02*
X108090738Y-100741666D01*
X108090738Y-100741666D02*
X108052642Y-100703571D01*
X108052642Y-100703571D02*
X107976452Y-100665476D01*
X118885714Y-88163595D02*
X118619047Y-87782642D01*
X118428571Y-88163595D02*
X118428571Y-87363595D01*
X118428571Y-87363595D02*
X118733333Y-87363595D01*
X118733333Y-87363595D02*
X118809523Y-87401690D01*
X118809523Y-87401690D02*
X118847618Y-87439785D01*
X118847618Y-87439785D02*
X118885714Y-87515976D01*
X118885714Y-87515976D02*
X118885714Y-87630261D01*
X118885714Y-87630261D02*
X118847618Y-87706452D01*
X118847618Y-87706452D02*
X118809523Y-87744547D01*
X118809523Y-87744547D02*
X118733333Y-87782642D01*
X118733333Y-87782642D02*
X118428571Y-87782642D01*
X119190475Y-87439785D02*
X119228571Y-87401690D01*
X119228571Y-87401690D02*
X119304761Y-87363595D01*
X119304761Y-87363595D02*
X119495237Y-87363595D01*
X119495237Y-87363595D02*
X119571428Y-87401690D01*
X119571428Y-87401690D02*
X119609523Y-87439785D01*
X119609523Y-87439785D02*
X119647618Y-87515976D01*
X119647618Y-87515976D02*
X119647618Y-87592166D01*
X119647618Y-87592166D02*
X119609523Y-87706452D01*
X119609523Y-87706452D02*
X119152380Y-88163595D01*
X119152380Y-88163595D02*
X119647618Y-88163595D01*
X120371428Y-87363595D02*
X119990476Y-87363595D01*
X119990476Y-87363595D02*
X119952380Y-87744547D01*
X119952380Y-87744547D02*
X119990476Y-87706452D01*
X119990476Y-87706452D02*
X120066666Y-87668357D01*
X120066666Y-87668357D02*
X120257142Y-87668357D01*
X120257142Y-87668357D02*
X120333333Y-87706452D01*
X120333333Y-87706452D02*
X120371428Y-87744547D01*
X120371428Y-87744547D02*
X120409523Y-87820738D01*
X120409523Y-87820738D02*
X120409523Y-88011214D01*
X120409523Y-88011214D02*
X120371428Y-88087404D01*
X120371428Y-88087404D02*
X120333333Y-88125500D01*
X120333333Y-88125500D02*
X120257142Y-88163595D01*
X120257142Y-88163595D02*
X120066666Y-88163595D01*
X120066666Y-88163595D02*
X119990476Y-88125500D01*
X119990476Y-88125500D02*
X119952380Y-88087404D01*
X135949524Y-77336095D02*
X135949524Y-76536095D01*
X135949524Y-76536095D02*
X136140000Y-76536095D01*
X136140000Y-76536095D02*
X136254286Y-76574190D01*
X136254286Y-76574190D02*
X136330476Y-76650380D01*
X136330476Y-76650380D02*
X136368571Y-76726571D01*
X136368571Y-76726571D02*
X136406667Y-76878952D01*
X136406667Y-76878952D02*
X136406667Y-76993238D01*
X136406667Y-76993238D02*
X136368571Y-77145619D01*
X136368571Y-77145619D02*
X136330476Y-77221809D01*
X136330476Y-77221809D02*
X136254286Y-77298000D01*
X136254286Y-77298000D02*
X136140000Y-77336095D01*
X136140000Y-77336095D02*
X135949524Y-77336095D01*
X136711428Y-76612285D02*
X136749524Y-76574190D01*
X136749524Y-76574190D02*
X136825714Y-76536095D01*
X136825714Y-76536095D02*
X137016190Y-76536095D01*
X137016190Y-76536095D02*
X137092381Y-76574190D01*
X137092381Y-76574190D02*
X137130476Y-76612285D01*
X137130476Y-76612285D02*
X137168571Y-76688476D01*
X137168571Y-76688476D02*
X137168571Y-76764666D01*
X137168571Y-76764666D02*
X137130476Y-76878952D01*
X137130476Y-76878952D02*
X136673333Y-77336095D01*
X136673333Y-77336095D02*
X137168571Y-77336095D01*
X113085714Y-97393595D02*
X112819047Y-97012642D01*
X112628571Y-97393595D02*
X112628571Y-96593595D01*
X112628571Y-96593595D02*
X112933333Y-96593595D01*
X112933333Y-96593595D02*
X113009523Y-96631690D01*
X113009523Y-96631690D02*
X113047618Y-96669785D01*
X113047618Y-96669785D02*
X113085714Y-96745976D01*
X113085714Y-96745976D02*
X113085714Y-96860261D01*
X113085714Y-96860261D02*
X113047618Y-96936452D01*
X113047618Y-96936452D02*
X113009523Y-96974547D01*
X113009523Y-96974547D02*
X112933333Y-97012642D01*
X112933333Y-97012642D02*
X112628571Y-97012642D01*
X113390475Y-96669785D02*
X113428571Y-96631690D01*
X113428571Y-96631690D02*
X113504761Y-96593595D01*
X113504761Y-96593595D02*
X113695237Y-96593595D01*
X113695237Y-96593595D02*
X113771428Y-96631690D01*
X113771428Y-96631690D02*
X113809523Y-96669785D01*
X113809523Y-96669785D02*
X113847618Y-96745976D01*
X113847618Y-96745976D02*
X113847618Y-96822166D01*
X113847618Y-96822166D02*
X113809523Y-96936452D01*
X113809523Y-96936452D02*
X113352380Y-97393595D01*
X113352380Y-97393595D02*
X113847618Y-97393595D01*
X114228571Y-97393595D02*
X114380952Y-97393595D01*
X114380952Y-97393595D02*
X114457142Y-97355500D01*
X114457142Y-97355500D02*
X114495238Y-97317404D01*
X114495238Y-97317404D02*
X114571428Y-97203119D01*
X114571428Y-97203119D02*
X114609523Y-97050738D01*
X114609523Y-97050738D02*
X114609523Y-96745976D01*
X114609523Y-96745976D02*
X114571428Y-96669785D01*
X114571428Y-96669785D02*
X114533333Y-96631690D01*
X114533333Y-96631690D02*
X114457142Y-96593595D01*
X114457142Y-96593595D02*
X114304761Y-96593595D01*
X114304761Y-96593595D02*
X114228571Y-96631690D01*
X114228571Y-96631690D02*
X114190476Y-96669785D01*
X114190476Y-96669785D02*
X114152380Y-96745976D01*
X114152380Y-96745976D02*
X114152380Y-96936452D01*
X114152380Y-96936452D02*
X114190476Y-97012642D01*
X114190476Y-97012642D02*
X114228571Y-97050738D01*
X114228571Y-97050738D02*
X114304761Y-97088833D01*
X114304761Y-97088833D02*
X114457142Y-97088833D01*
X114457142Y-97088833D02*
X114533333Y-97050738D01*
X114533333Y-97050738D02*
X114571428Y-97012642D01*
X114571428Y-97012642D02*
X114609523Y-96936452D01*
X131105714Y-85547404D02*
X131067618Y-85585500D01*
X131067618Y-85585500D02*
X130953333Y-85623595D01*
X130953333Y-85623595D02*
X130877142Y-85623595D01*
X130877142Y-85623595D02*
X130762856Y-85585500D01*
X130762856Y-85585500D02*
X130686666Y-85509309D01*
X130686666Y-85509309D02*
X130648571Y-85433119D01*
X130648571Y-85433119D02*
X130610475Y-85280738D01*
X130610475Y-85280738D02*
X130610475Y-85166452D01*
X130610475Y-85166452D02*
X130648571Y-85014071D01*
X130648571Y-85014071D02*
X130686666Y-84937880D01*
X130686666Y-84937880D02*
X130762856Y-84861690D01*
X130762856Y-84861690D02*
X130877142Y-84823595D01*
X130877142Y-84823595D02*
X130953333Y-84823595D01*
X130953333Y-84823595D02*
X131067618Y-84861690D01*
X131067618Y-84861690D02*
X131105714Y-84899785D01*
X131410475Y-84899785D02*
X131448571Y-84861690D01*
X131448571Y-84861690D02*
X131524761Y-84823595D01*
X131524761Y-84823595D02*
X131715237Y-84823595D01*
X131715237Y-84823595D02*
X131791428Y-84861690D01*
X131791428Y-84861690D02*
X131829523Y-84899785D01*
X131829523Y-84899785D02*
X131867618Y-84975976D01*
X131867618Y-84975976D02*
X131867618Y-85052166D01*
X131867618Y-85052166D02*
X131829523Y-85166452D01*
X131829523Y-85166452D02*
X131372380Y-85623595D01*
X131372380Y-85623595D02*
X131867618Y-85623595D01*
X132134285Y-84823595D02*
X132667619Y-84823595D01*
X132667619Y-84823595D02*
X132324761Y-85623595D01*
X111390476Y-89863595D02*
X111390476Y-90511214D01*
X111390476Y-90511214D02*
X111428571Y-90587404D01*
X111428571Y-90587404D02*
X111466666Y-90625500D01*
X111466666Y-90625500D02*
X111542857Y-90663595D01*
X111542857Y-90663595D02*
X111695238Y-90663595D01*
X111695238Y-90663595D02*
X111771428Y-90625500D01*
X111771428Y-90625500D02*
X111809523Y-90587404D01*
X111809523Y-90587404D02*
X111847619Y-90511214D01*
X111847619Y-90511214D02*
X111847619Y-89863595D01*
X112152380Y-89863595D02*
X112647618Y-89863595D01*
X112647618Y-89863595D02*
X112380952Y-90168357D01*
X112380952Y-90168357D02*
X112495237Y-90168357D01*
X112495237Y-90168357D02*
X112571428Y-90206452D01*
X112571428Y-90206452D02*
X112609523Y-90244547D01*
X112609523Y-90244547D02*
X112647618Y-90320738D01*
X112647618Y-90320738D02*
X112647618Y-90511214D01*
X112647618Y-90511214D02*
X112609523Y-90587404D01*
X112609523Y-90587404D02*
X112571428Y-90625500D01*
X112571428Y-90625500D02*
X112495237Y-90663595D01*
X112495237Y-90663595D02*
X112266666Y-90663595D01*
X112266666Y-90663595D02*
X112190475Y-90625500D01*
X112190475Y-90625500D02*
X112152380Y-90587404D01*
X121185714Y-87163595D02*
X120919047Y-86782642D01*
X120728571Y-87163595D02*
X120728571Y-86363595D01*
X120728571Y-86363595D02*
X121033333Y-86363595D01*
X121033333Y-86363595D02*
X121109523Y-86401690D01*
X121109523Y-86401690D02*
X121147618Y-86439785D01*
X121147618Y-86439785D02*
X121185714Y-86515976D01*
X121185714Y-86515976D02*
X121185714Y-86630261D01*
X121185714Y-86630261D02*
X121147618Y-86706452D01*
X121147618Y-86706452D02*
X121109523Y-86744547D01*
X121109523Y-86744547D02*
X121033333Y-86782642D01*
X121033333Y-86782642D02*
X120728571Y-86782642D01*
X121947618Y-87163595D02*
X121490475Y-87163595D01*
X121719047Y-87163595D02*
X121719047Y-86363595D01*
X121719047Y-86363595D02*
X121642856Y-86477880D01*
X121642856Y-86477880D02*
X121566666Y-86554071D01*
X121566666Y-86554071D02*
X121490475Y-86592166D01*
X122214285Y-86363595D02*
X122747619Y-86363595D01*
X122747619Y-86363595D02*
X122404761Y-87163595D01*
X95824547Y-80698571D02*
X95862642Y-80584285D01*
X95862642Y-80584285D02*
X95900738Y-80546190D01*
X95900738Y-80546190D02*
X95976928Y-80508094D01*
X95976928Y-80508094D02*
X96091214Y-80508094D01*
X96091214Y-80508094D02*
X96167404Y-80546190D01*
X96167404Y-80546190D02*
X96205500Y-80584285D01*
X96205500Y-80584285D02*
X96243595Y-80660475D01*
X96243595Y-80660475D02*
X96243595Y-80965237D01*
X96243595Y-80965237D02*
X95443595Y-80965237D01*
X95443595Y-80965237D02*
X95443595Y-80698571D01*
X95443595Y-80698571D02*
X95481690Y-80622380D01*
X95481690Y-80622380D02*
X95519785Y-80584285D01*
X95519785Y-80584285D02*
X95595976Y-80546190D01*
X95595976Y-80546190D02*
X95672166Y-80546190D01*
X95672166Y-80546190D02*
X95748357Y-80584285D01*
X95748357Y-80584285D02*
X95786452Y-80622380D01*
X95786452Y-80622380D02*
X95824547Y-80698571D01*
X95824547Y-80698571D02*
X95824547Y-80965237D01*
X95443595Y-80279523D02*
X95443595Y-79822380D01*
X96243595Y-80050952D02*
X95443595Y-80050952D01*
X96243595Y-79136666D02*
X96243595Y-79593809D01*
X96243595Y-79365237D02*
X95443595Y-79365237D01*
X95443595Y-79365237D02*
X95557880Y-79441428D01*
X95557880Y-79441428D02*
X95634071Y-79517618D01*
X95634071Y-79517618D02*
X95672166Y-79593809D01*
X143533333Y-107763595D02*
X143533333Y-108335023D01*
X143533333Y-108335023D02*
X143495238Y-108449309D01*
X143495238Y-108449309D02*
X143419047Y-108525500D01*
X143419047Y-108525500D02*
X143304762Y-108563595D01*
X143304762Y-108563595D02*
X143228571Y-108563595D01*
X144333333Y-108563595D02*
X143876190Y-108563595D01*
X144104762Y-108563595D02*
X144104762Y-107763595D01*
X144104762Y-107763595D02*
X144028571Y-107877880D01*
X144028571Y-107877880D02*
X143952381Y-107954071D01*
X143952381Y-107954071D02*
X143876190Y-107992166D01*
X134402380Y-88713595D02*
X134935714Y-89513595D01*
X134935714Y-88713595D02*
X134402380Y-89513595D01*
X135659523Y-89513595D02*
X135202380Y-89513595D01*
X135430952Y-89513595D02*
X135430952Y-88713595D01*
X135430952Y-88713595D02*
X135354761Y-88827880D01*
X135354761Y-88827880D02*
X135278571Y-88904071D01*
X135278571Y-88904071D02*
X135202380Y-88942166D01*
X114233333Y-83534547D02*
X113966667Y-83534547D01*
X113966667Y-83953595D02*
X113966667Y-83153595D01*
X113966667Y-83153595D02*
X114347619Y-83153595D01*
X114919047Y-83534547D02*
X115033333Y-83572642D01*
X115033333Y-83572642D02*
X115071428Y-83610738D01*
X115071428Y-83610738D02*
X115109524Y-83686928D01*
X115109524Y-83686928D02*
X115109524Y-83801214D01*
X115109524Y-83801214D02*
X115071428Y-83877404D01*
X115071428Y-83877404D02*
X115033333Y-83915500D01*
X115033333Y-83915500D02*
X114957143Y-83953595D01*
X114957143Y-83953595D02*
X114652381Y-83953595D01*
X114652381Y-83953595D02*
X114652381Y-83153595D01*
X114652381Y-83153595D02*
X114919047Y-83153595D01*
X114919047Y-83153595D02*
X114995238Y-83191690D01*
X114995238Y-83191690D02*
X115033333Y-83229785D01*
X115033333Y-83229785D02*
X115071428Y-83305976D01*
X115071428Y-83305976D02*
X115071428Y-83382166D01*
X115071428Y-83382166D02*
X115033333Y-83458357D01*
X115033333Y-83458357D02*
X114995238Y-83496452D01*
X114995238Y-83496452D02*
X114919047Y-83534547D01*
X114919047Y-83534547D02*
X114652381Y-83534547D01*
X115414285Y-83229785D02*
X115452381Y-83191690D01*
X115452381Y-83191690D02*
X115528571Y-83153595D01*
X115528571Y-83153595D02*
X115719047Y-83153595D01*
X115719047Y-83153595D02*
X115795238Y-83191690D01*
X115795238Y-83191690D02*
X115833333Y-83229785D01*
X115833333Y-83229785D02*
X115871428Y-83305976D01*
X115871428Y-83305976D02*
X115871428Y-83382166D01*
X115871428Y-83382166D02*
X115833333Y-83496452D01*
X115833333Y-83496452D02*
X115376190Y-83953595D01*
X115376190Y-83953595D02*
X115871428Y-83953595D01*
X119703333Y-78843595D02*
X119703333Y-79415023D01*
X119703333Y-79415023D02*
X119665238Y-79529309D01*
X119665238Y-79529309D02*
X119589047Y-79605500D01*
X119589047Y-79605500D02*
X119474762Y-79643595D01*
X119474762Y-79643595D02*
X119398571Y-79643595D01*
X120008095Y-78843595D02*
X120503333Y-78843595D01*
X120503333Y-78843595D02*
X120236667Y-79148357D01*
X120236667Y-79148357D02*
X120350952Y-79148357D01*
X120350952Y-79148357D02*
X120427143Y-79186452D01*
X120427143Y-79186452D02*
X120465238Y-79224547D01*
X120465238Y-79224547D02*
X120503333Y-79300738D01*
X120503333Y-79300738D02*
X120503333Y-79491214D01*
X120503333Y-79491214D02*
X120465238Y-79567404D01*
X120465238Y-79567404D02*
X120427143Y-79605500D01*
X120427143Y-79605500D02*
X120350952Y-79643595D01*
X120350952Y-79643595D02*
X120122381Y-79643595D01*
X120122381Y-79643595D02*
X120046190Y-79605500D01*
X120046190Y-79605500D02*
X120008095Y-79567404D01*
X108685714Y-97687404D02*
X108647618Y-97725500D01*
X108647618Y-97725500D02*
X108533333Y-97763595D01*
X108533333Y-97763595D02*
X108457142Y-97763595D01*
X108457142Y-97763595D02*
X108342856Y-97725500D01*
X108342856Y-97725500D02*
X108266666Y-97649309D01*
X108266666Y-97649309D02*
X108228571Y-97573119D01*
X108228571Y-97573119D02*
X108190475Y-97420738D01*
X108190475Y-97420738D02*
X108190475Y-97306452D01*
X108190475Y-97306452D02*
X108228571Y-97154071D01*
X108228571Y-97154071D02*
X108266666Y-97077880D01*
X108266666Y-97077880D02*
X108342856Y-97001690D01*
X108342856Y-97001690D02*
X108457142Y-96963595D01*
X108457142Y-96963595D02*
X108533333Y-96963595D01*
X108533333Y-96963595D02*
X108647618Y-97001690D01*
X108647618Y-97001690D02*
X108685714Y-97039785D01*
X108990475Y-97039785D02*
X109028571Y-97001690D01*
X109028571Y-97001690D02*
X109104761Y-96963595D01*
X109104761Y-96963595D02*
X109295237Y-96963595D01*
X109295237Y-96963595D02*
X109371428Y-97001690D01*
X109371428Y-97001690D02*
X109409523Y-97039785D01*
X109409523Y-97039785D02*
X109447618Y-97115976D01*
X109447618Y-97115976D02*
X109447618Y-97192166D01*
X109447618Y-97192166D02*
X109409523Y-97306452D01*
X109409523Y-97306452D02*
X108952380Y-97763595D01*
X108952380Y-97763595D02*
X109447618Y-97763595D01*
X110133333Y-96963595D02*
X109980952Y-96963595D01*
X109980952Y-96963595D02*
X109904761Y-97001690D01*
X109904761Y-97001690D02*
X109866666Y-97039785D01*
X109866666Y-97039785D02*
X109790476Y-97154071D01*
X109790476Y-97154071D02*
X109752380Y-97306452D01*
X109752380Y-97306452D02*
X109752380Y-97611214D01*
X109752380Y-97611214D02*
X109790476Y-97687404D01*
X109790476Y-97687404D02*
X109828571Y-97725500D01*
X109828571Y-97725500D02*
X109904761Y-97763595D01*
X109904761Y-97763595D02*
X110057142Y-97763595D01*
X110057142Y-97763595D02*
X110133333Y-97725500D01*
X110133333Y-97725500D02*
X110171428Y-97687404D01*
X110171428Y-97687404D02*
X110209523Y-97611214D01*
X110209523Y-97611214D02*
X110209523Y-97420738D01*
X110209523Y-97420738D02*
X110171428Y-97344547D01*
X110171428Y-97344547D02*
X110133333Y-97306452D01*
X110133333Y-97306452D02*
X110057142Y-97268357D01*
X110057142Y-97268357D02*
X109904761Y-97268357D01*
X109904761Y-97268357D02*
X109828571Y-97306452D01*
X109828571Y-97306452D02*
X109790476Y-97344547D01*
X109790476Y-97344547D02*
X109752380Y-97420738D01*
X105119048Y-78058595D02*
X105119048Y-77258595D01*
X105957143Y-77982404D02*
X105919047Y-78020500D01*
X105919047Y-78020500D02*
X105804762Y-78058595D01*
X105804762Y-78058595D02*
X105728571Y-78058595D01*
X105728571Y-78058595D02*
X105614285Y-78020500D01*
X105614285Y-78020500D02*
X105538095Y-77944309D01*
X105538095Y-77944309D02*
X105500000Y-77868119D01*
X105500000Y-77868119D02*
X105461904Y-77715738D01*
X105461904Y-77715738D02*
X105461904Y-77601452D01*
X105461904Y-77601452D02*
X105500000Y-77449071D01*
X105500000Y-77449071D02*
X105538095Y-77372880D01*
X105538095Y-77372880D02*
X105614285Y-77296690D01*
X105614285Y-77296690D02*
X105728571Y-77258595D01*
X105728571Y-77258595D02*
X105804762Y-77258595D01*
X105804762Y-77258595D02*
X105919047Y-77296690D01*
X105919047Y-77296690D02*
X105957143Y-77334785D01*
X106642857Y-77258595D02*
X106490476Y-77258595D01*
X106490476Y-77258595D02*
X106414285Y-77296690D01*
X106414285Y-77296690D02*
X106376190Y-77334785D01*
X106376190Y-77334785D02*
X106300000Y-77449071D01*
X106300000Y-77449071D02*
X106261904Y-77601452D01*
X106261904Y-77601452D02*
X106261904Y-77906214D01*
X106261904Y-77906214D02*
X106300000Y-77982404D01*
X106300000Y-77982404D02*
X106338095Y-78020500D01*
X106338095Y-78020500D02*
X106414285Y-78058595D01*
X106414285Y-78058595D02*
X106566666Y-78058595D01*
X106566666Y-78058595D02*
X106642857Y-78020500D01*
X106642857Y-78020500D02*
X106680952Y-77982404D01*
X106680952Y-77982404D02*
X106719047Y-77906214D01*
X106719047Y-77906214D02*
X106719047Y-77715738D01*
X106719047Y-77715738D02*
X106680952Y-77639547D01*
X106680952Y-77639547D02*
X106642857Y-77601452D01*
X106642857Y-77601452D02*
X106566666Y-77563357D01*
X106566666Y-77563357D02*
X106414285Y-77563357D01*
X106414285Y-77563357D02*
X106338095Y-77601452D01*
X106338095Y-77601452D02*
X106300000Y-77639547D01*
X106300000Y-77639547D02*
X106261904Y-77715738D01*
X112130714Y-104572404D02*
X112092618Y-104610500D01*
X112092618Y-104610500D02*
X111978333Y-104648595D01*
X111978333Y-104648595D02*
X111902142Y-104648595D01*
X111902142Y-104648595D02*
X111787856Y-104610500D01*
X111787856Y-104610500D02*
X111711666Y-104534309D01*
X111711666Y-104534309D02*
X111673571Y-104458119D01*
X111673571Y-104458119D02*
X111635475Y-104305738D01*
X111635475Y-104305738D02*
X111635475Y-104191452D01*
X111635475Y-104191452D02*
X111673571Y-104039071D01*
X111673571Y-104039071D02*
X111711666Y-103962880D01*
X111711666Y-103962880D02*
X111787856Y-103886690D01*
X111787856Y-103886690D02*
X111902142Y-103848595D01*
X111902142Y-103848595D02*
X111978333Y-103848595D01*
X111978333Y-103848595D02*
X112092618Y-103886690D01*
X112092618Y-103886690D02*
X112130714Y-103924785D01*
X112892618Y-104648595D02*
X112435475Y-104648595D01*
X112664047Y-104648595D02*
X112664047Y-103848595D01*
X112664047Y-103848595D02*
X112587856Y-103962880D01*
X112587856Y-103962880D02*
X112511666Y-104039071D01*
X112511666Y-104039071D02*
X112435475Y-104077166D01*
X113654523Y-104648595D02*
X113197380Y-104648595D01*
X113425952Y-104648595D02*
X113425952Y-103848595D01*
X113425952Y-103848595D02*
X113349761Y-103962880D01*
X113349761Y-103962880D02*
X113273571Y-104039071D01*
X113273571Y-104039071D02*
X113197380Y-104077166D01*
X104437404Y-85144285D02*
X104475500Y-85182381D01*
X104475500Y-85182381D02*
X104513595Y-85296666D01*
X104513595Y-85296666D02*
X104513595Y-85372857D01*
X104513595Y-85372857D02*
X104475500Y-85487143D01*
X104475500Y-85487143D02*
X104399309Y-85563333D01*
X104399309Y-85563333D02*
X104323119Y-85601428D01*
X104323119Y-85601428D02*
X104170738Y-85639524D01*
X104170738Y-85639524D02*
X104056452Y-85639524D01*
X104056452Y-85639524D02*
X103904071Y-85601428D01*
X103904071Y-85601428D02*
X103827880Y-85563333D01*
X103827880Y-85563333D02*
X103751690Y-85487143D01*
X103751690Y-85487143D02*
X103713595Y-85372857D01*
X103713595Y-85372857D02*
X103713595Y-85296666D01*
X103713595Y-85296666D02*
X103751690Y-85182381D01*
X103751690Y-85182381D02*
X103789785Y-85144285D01*
X103789785Y-84839524D02*
X103751690Y-84801428D01*
X103751690Y-84801428D02*
X103713595Y-84725238D01*
X103713595Y-84725238D02*
X103713595Y-84534762D01*
X103713595Y-84534762D02*
X103751690Y-84458571D01*
X103751690Y-84458571D02*
X103789785Y-84420476D01*
X103789785Y-84420476D02*
X103865976Y-84382381D01*
X103865976Y-84382381D02*
X103942166Y-84382381D01*
X103942166Y-84382381D02*
X104056452Y-84420476D01*
X104056452Y-84420476D02*
X104513595Y-84877619D01*
X104513595Y-84877619D02*
X104513595Y-84382381D01*
X103713595Y-84115714D02*
X103713595Y-83620476D01*
X103713595Y-83620476D02*
X104018357Y-83887142D01*
X104018357Y-83887142D02*
X104018357Y-83772857D01*
X104018357Y-83772857D02*
X104056452Y-83696666D01*
X104056452Y-83696666D02*
X104094547Y-83658571D01*
X104094547Y-83658571D02*
X104170738Y-83620476D01*
X104170738Y-83620476D02*
X104361214Y-83620476D01*
X104361214Y-83620476D02*
X104437404Y-83658571D01*
X104437404Y-83658571D02*
X104475500Y-83696666D01*
X104475500Y-83696666D02*
X104513595Y-83772857D01*
X104513595Y-83772857D02*
X104513595Y-84001428D01*
X104513595Y-84001428D02*
X104475500Y-84077619D01*
X104475500Y-84077619D02*
X104437404Y-84115714D01*
X114085714Y-89663595D02*
X113819047Y-89282642D01*
X113628571Y-89663595D02*
X113628571Y-88863595D01*
X113628571Y-88863595D02*
X113933333Y-88863595D01*
X113933333Y-88863595D02*
X114009523Y-88901690D01*
X114009523Y-88901690D02*
X114047618Y-88939785D01*
X114047618Y-88939785D02*
X114085714Y-89015976D01*
X114085714Y-89015976D02*
X114085714Y-89130261D01*
X114085714Y-89130261D02*
X114047618Y-89206452D01*
X114047618Y-89206452D02*
X114009523Y-89244547D01*
X114009523Y-89244547D02*
X113933333Y-89282642D01*
X113933333Y-89282642D02*
X113628571Y-89282642D01*
X114390475Y-88939785D02*
X114428571Y-88901690D01*
X114428571Y-88901690D02*
X114504761Y-88863595D01*
X114504761Y-88863595D02*
X114695237Y-88863595D01*
X114695237Y-88863595D02*
X114771428Y-88901690D01*
X114771428Y-88901690D02*
X114809523Y-88939785D01*
X114809523Y-88939785D02*
X114847618Y-89015976D01*
X114847618Y-89015976D02*
X114847618Y-89092166D01*
X114847618Y-89092166D02*
X114809523Y-89206452D01*
X114809523Y-89206452D02*
X114352380Y-89663595D01*
X114352380Y-89663595D02*
X114847618Y-89663595D01*
X115609523Y-89663595D02*
X115152380Y-89663595D01*
X115380952Y-89663595D02*
X115380952Y-88863595D01*
X115380952Y-88863595D02*
X115304761Y-88977880D01*
X115304761Y-88977880D02*
X115228571Y-89054071D01*
X115228571Y-89054071D02*
X115152380Y-89092166D01*
X99377404Y-85144285D02*
X99415500Y-85182381D01*
X99415500Y-85182381D02*
X99453595Y-85296666D01*
X99453595Y-85296666D02*
X99453595Y-85372857D01*
X99453595Y-85372857D02*
X99415500Y-85487143D01*
X99415500Y-85487143D02*
X99339309Y-85563333D01*
X99339309Y-85563333D02*
X99263119Y-85601428D01*
X99263119Y-85601428D02*
X99110738Y-85639524D01*
X99110738Y-85639524D02*
X98996452Y-85639524D01*
X98996452Y-85639524D02*
X98844071Y-85601428D01*
X98844071Y-85601428D02*
X98767880Y-85563333D01*
X98767880Y-85563333D02*
X98691690Y-85487143D01*
X98691690Y-85487143D02*
X98653595Y-85372857D01*
X98653595Y-85372857D02*
X98653595Y-85296666D01*
X98653595Y-85296666D02*
X98691690Y-85182381D01*
X98691690Y-85182381D02*
X98729785Y-85144285D01*
X98729785Y-84839524D02*
X98691690Y-84801428D01*
X98691690Y-84801428D02*
X98653595Y-84725238D01*
X98653595Y-84725238D02*
X98653595Y-84534762D01*
X98653595Y-84534762D02*
X98691690Y-84458571D01*
X98691690Y-84458571D02*
X98729785Y-84420476D01*
X98729785Y-84420476D02*
X98805976Y-84382381D01*
X98805976Y-84382381D02*
X98882166Y-84382381D01*
X98882166Y-84382381D02*
X98996452Y-84420476D01*
X98996452Y-84420476D02*
X99453595Y-84877619D01*
X99453595Y-84877619D02*
X99453595Y-84382381D01*
X98920261Y-83696666D02*
X99453595Y-83696666D01*
X98615500Y-83887142D02*
X99186928Y-84077619D01*
X99186928Y-84077619D02*
X99186928Y-83582380D01*
X140266666Y-84913595D02*
X139885714Y-84913595D01*
X139885714Y-84913595D02*
X139885714Y-84113595D01*
X140495237Y-84189785D02*
X140533333Y-84151690D01*
X140533333Y-84151690D02*
X140609523Y-84113595D01*
X140609523Y-84113595D02*
X140799999Y-84113595D01*
X140799999Y-84113595D02*
X140876190Y-84151690D01*
X140876190Y-84151690D02*
X140914285Y-84189785D01*
X140914285Y-84189785D02*
X140952380Y-84265976D01*
X140952380Y-84265976D02*
X140952380Y-84342166D01*
X140952380Y-84342166D02*
X140914285Y-84456452D01*
X140914285Y-84456452D02*
X140457142Y-84913595D01*
X140457142Y-84913595D02*
X140952380Y-84913595D01*
X133866667Y-103287404D02*
X133828571Y-103325500D01*
X133828571Y-103325500D02*
X133714286Y-103363595D01*
X133714286Y-103363595D02*
X133638095Y-103363595D01*
X133638095Y-103363595D02*
X133523809Y-103325500D01*
X133523809Y-103325500D02*
X133447619Y-103249309D01*
X133447619Y-103249309D02*
X133409524Y-103173119D01*
X133409524Y-103173119D02*
X133371428Y-103020738D01*
X133371428Y-103020738D02*
X133371428Y-102906452D01*
X133371428Y-102906452D02*
X133409524Y-102754071D01*
X133409524Y-102754071D02*
X133447619Y-102677880D01*
X133447619Y-102677880D02*
X133523809Y-102601690D01*
X133523809Y-102601690D02*
X133638095Y-102563595D01*
X133638095Y-102563595D02*
X133714286Y-102563595D01*
X133714286Y-102563595D02*
X133828571Y-102601690D01*
X133828571Y-102601690D02*
X133866667Y-102639785D01*
X134247619Y-103363595D02*
X134400000Y-103363595D01*
X134400000Y-103363595D02*
X134476190Y-103325500D01*
X134476190Y-103325500D02*
X134514286Y-103287404D01*
X134514286Y-103287404D02*
X134590476Y-103173119D01*
X134590476Y-103173119D02*
X134628571Y-103020738D01*
X134628571Y-103020738D02*
X134628571Y-102715976D01*
X134628571Y-102715976D02*
X134590476Y-102639785D01*
X134590476Y-102639785D02*
X134552381Y-102601690D01*
X134552381Y-102601690D02*
X134476190Y-102563595D01*
X134476190Y-102563595D02*
X134323809Y-102563595D01*
X134323809Y-102563595D02*
X134247619Y-102601690D01*
X134247619Y-102601690D02*
X134209524Y-102639785D01*
X134209524Y-102639785D02*
X134171428Y-102715976D01*
X134171428Y-102715976D02*
X134171428Y-102906452D01*
X134171428Y-102906452D02*
X134209524Y-102982642D01*
X134209524Y-102982642D02*
X134247619Y-103020738D01*
X134247619Y-103020738D02*
X134323809Y-103058833D01*
X134323809Y-103058833D02*
X134476190Y-103058833D01*
X134476190Y-103058833D02*
X134552381Y-103020738D01*
X134552381Y-103020738D02*
X134590476Y-102982642D01*
X134590476Y-102982642D02*
X134628571Y-102906452D01*
X120833595Y-91714285D02*
X120452642Y-91980952D01*
X120833595Y-92171428D02*
X120033595Y-92171428D01*
X120033595Y-92171428D02*
X120033595Y-91866666D01*
X120033595Y-91866666D02*
X120071690Y-91790476D01*
X120071690Y-91790476D02*
X120109785Y-91752381D01*
X120109785Y-91752381D02*
X120185976Y-91714285D01*
X120185976Y-91714285D02*
X120300261Y-91714285D01*
X120300261Y-91714285D02*
X120376452Y-91752381D01*
X120376452Y-91752381D02*
X120414547Y-91790476D01*
X120414547Y-91790476D02*
X120452642Y-91866666D01*
X120452642Y-91866666D02*
X120452642Y-92171428D01*
X120109785Y-91409524D02*
X120071690Y-91371428D01*
X120071690Y-91371428D02*
X120033595Y-91295238D01*
X120033595Y-91295238D02*
X120033595Y-91104762D01*
X120033595Y-91104762D02*
X120071690Y-91028571D01*
X120071690Y-91028571D02*
X120109785Y-90990476D01*
X120109785Y-90990476D02*
X120185976Y-90952381D01*
X120185976Y-90952381D02*
X120262166Y-90952381D01*
X120262166Y-90952381D02*
X120376452Y-90990476D01*
X120376452Y-90990476D02*
X120833595Y-91447619D01*
X120833595Y-91447619D02*
X120833595Y-90952381D01*
X120033595Y-90685714D02*
X120033595Y-90152380D01*
X120033595Y-90152380D02*
X120833595Y-90495238D01*
X119387404Y-84614285D02*
X119425500Y-84652381D01*
X119425500Y-84652381D02*
X119463595Y-84766666D01*
X119463595Y-84766666D02*
X119463595Y-84842857D01*
X119463595Y-84842857D02*
X119425500Y-84957143D01*
X119425500Y-84957143D02*
X119349309Y-85033333D01*
X119349309Y-85033333D02*
X119273119Y-85071428D01*
X119273119Y-85071428D02*
X119120738Y-85109524D01*
X119120738Y-85109524D02*
X119006452Y-85109524D01*
X119006452Y-85109524D02*
X118854071Y-85071428D01*
X118854071Y-85071428D02*
X118777880Y-85033333D01*
X118777880Y-85033333D02*
X118701690Y-84957143D01*
X118701690Y-84957143D02*
X118663595Y-84842857D01*
X118663595Y-84842857D02*
X118663595Y-84766666D01*
X118663595Y-84766666D02*
X118701690Y-84652381D01*
X118701690Y-84652381D02*
X118739785Y-84614285D01*
X118739785Y-84309524D02*
X118701690Y-84271428D01*
X118701690Y-84271428D02*
X118663595Y-84195238D01*
X118663595Y-84195238D02*
X118663595Y-84004762D01*
X118663595Y-84004762D02*
X118701690Y-83928571D01*
X118701690Y-83928571D02*
X118739785Y-83890476D01*
X118739785Y-83890476D02*
X118815976Y-83852381D01*
X118815976Y-83852381D02*
X118892166Y-83852381D01*
X118892166Y-83852381D02*
X119006452Y-83890476D01*
X119006452Y-83890476D02*
X119463595Y-84347619D01*
X119463595Y-84347619D02*
X119463595Y-83852381D01*
X118739785Y-83547619D02*
X118701690Y-83509523D01*
X118701690Y-83509523D02*
X118663595Y-83433333D01*
X118663595Y-83433333D02*
X118663595Y-83242857D01*
X118663595Y-83242857D02*
X118701690Y-83166666D01*
X118701690Y-83166666D02*
X118739785Y-83128571D01*
X118739785Y-83128571D02*
X118815976Y-83090476D01*
X118815976Y-83090476D02*
X118892166Y-83090476D01*
X118892166Y-83090476D02*
X119006452Y-83128571D01*
X119006452Y-83128571D02*
X119463595Y-83585714D01*
X119463595Y-83585714D02*
X119463595Y-83090476D01*
X127719048Y-92263595D02*
X127719048Y-91463595D01*
X128557143Y-92187404D02*
X128519047Y-92225500D01*
X128519047Y-92225500D02*
X128404762Y-92263595D01*
X128404762Y-92263595D02*
X128328571Y-92263595D01*
X128328571Y-92263595D02*
X128214285Y-92225500D01*
X128214285Y-92225500D02*
X128138095Y-92149309D01*
X128138095Y-92149309D02*
X128100000Y-92073119D01*
X128100000Y-92073119D02*
X128061904Y-91920738D01*
X128061904Y-91920738D02*
X128061904Y-91806452D01*
X128061904Y-91806452D02*
X128100000Y-91654071D01*
X128100000Y-91654071D02*
X128138095Y-91577880D01*
X128138095Y-91577880D02*
X128214285Y-91501690D01*
X128214285Y-91501690D02*
X128328571Y-91463595D01*
X128328571Y-91463595D02*
X128404762Y-91463595D01*
X128404762Y-91463595D02*
X128519047Y-91501690D01*
X128519047Y-91501690D02*
X128557143Y-91539785D01*
X128823809Y-91463595D02*
X129319047Y-91463595D01*
X129319047Y-91463595D02*
X129052381Y-91768357D01*
X129052381Y-91768357D02*
X129166666Y-91768357D01*
X129166666Y-91768357D02*
X129242857Y-91806452D01*
X129242857Y-91806452D02*
X129280952Y-91844547D01*
X129280952Y-91844547D02*
X129319047Y-91920738D01*
X129319047Y-91920738D02*
X129319047Y-92111214D01*
X129319047Y-92111214D02*
X129280952Y-92187404D01*
X129280952Y-92187404D02*
X129242857Y-92225500D01*
X129242857Y-92225500D02*
X129166666Y-92263595D01*
X129166666Y-92263595D02*
X128938095Y-92263595D01*
X128938095Y-92263595D02*
X128861904Y-92225500D01*
X128861904Y-92225500D02*
X128823809Y-92187404D01*
X132485714Y-97763595D02*
X132219047Y-97382642D01*
X132028571Y-97763595D02*
X132028571Y-96963595D01*
X132028571Y-96963595D02*
X132333333Y-96963595D01*
X132333333Y-96963595D02*
X132409523Y-97001690D01*
X132409523Y-97001690D02*
X132447618Y-97039785D01*
X132447618Y-97039785D02*
X132485714Y-97115976D01*
X132485714Y-97115976D02*
X132485714Y-97230261D01*
X132485714Y-97230261D02*
X132447618Y-97306452D01*
X132447618Y-97306452D02*
X132409523Y-97344547D01*
X132409523Y-97344547D02*
X132333333Y-97382642D01*
X132333333Y-97382642D02*
X132028571Y-97382642D01*
X133247618Y-97763595D02*
X132790475Y-97763595D01*
X133019047Y-97763595D02*
X133019047Y-96963595D01*
X133019047Y-96963595D02*
X132942856Y-97077880D01*
X132942856Y-97077880D02*
X132866666Y-97154071D01*
X132866666Y-97154071D02*
X132790475Y-97192166D01*
X133552380Y-97039785D02*
X133590476Y-97001690D01*
X133590476Y-97001690D02*
X133666666Y-96963595D01*
X133666666Y-96963595D02*
X133857142Y-96963595D01*
X133857142Y-96963595D02*
X133933333Y-97001690D01*
X133933333Y-97001690D02*
X133971428Y-97039785D01*
X133971428Y-97039785D02*
X134009523Y-97115976D01*
X134009523Y-97115976D02*
X134009523Y-97192166D01*
X134009523Y-97192166D02*
X133971428Y-97306452D01*
X133971428Y-97306452D02*
X133514285Y-97763595D01*
X133514285Y-97763595D02*
X134009523Y-97763595D01*
X145733333Y-82928595D02*
X145733333Y-83500023D01*
X145733333Y-83500023D02*
X145695238Y-83614309D01*
X145695238Y-83614309D02*
X145619047Y-83690500D01*
X145619047Y-83690500D02*
X145504762Y-83728595D01*
X145504762Y-83728595D02*
X145428571Y-83728595D01*
X146457143Y-83195261D02*
X146457143Y-83728595D01*
X146266667Y-82890500D02*
X146076190Y-83461928D01*
X146076190Y-83461928D02*
X146571429Y-83461928D01*
X110767404Y-86334285D02*
X110805500Y-86372381D01*
X110805500Y-86372381D02*
X110843595Y-86486666D01*
X110843595Y-86486666D02*
X110843595Y-86562857D01*
X110843595Y-86562857D02*
X110805500Y-86677143D01*
X110805500Y-86677143D02*
X110729309Y-86753333D01*
X110729309Y-86753333D02*
X110653119Y-86791428D01*
X110653119Y-86791428D02*
X110500738Y-86829524D01*
X110500738Y-86829524D02*
X110386452Y-86829524D01*
X110386452Y-86829524D02*
X110234071Y-86791428D01*
X110234071Y-86791428D02*
X110157880Y-86753333D01*
X110157880Y-86753333D02*
X110081690Y-86677143D01*
X110081690Y-86677143D02*
X110043595Y-86562857D01*
X110043595Y-86562857D02*
X110043595Y-86486666D01*
X110043595Y-86486666D02*
X110081690Y-86372381D01*
X110081690Y-86372381D02*
X110119785Y-86334285D01*
X110843595Y-85572381D02*
X110843595Y-86029524D01*
X110843595Y-85800952D02*
X110043595Y-85800952D01*
X110043595Y-85800952D02*
X110157880Y-85877143D01*
X110157880Y-85877143D02*
X110234071Y-85953333D01*
X110234071Y-85953333D02*
X110272166Y-86029524D01*
X110043595Y-85077142D02*
X110043595Y-85000952D01*
X110043595Y-85000952D02*
X110081690Y-84924761D01*
X110081690Y-84924761D02*
X110119785Y-84886666D01*
X110119785Y-84886666D02*
X110195976Y-84848571D01*
X110195976Y-84848571D02*
X110348357Y-84810476D01*
X110348357Y-84810476D02*
X110538833Y-84810476D01*
X110538833Y-84810476D02*
X110691214Y-84848571D01*
X110691214Y-84848571D02*
X110767404Y-84886666D01*
X110767404Y-84886666D02*
X110805500Y-84924761D01*
X110805500Y-84924761D02*
X110843595Y-85000952D01*
X110843595Y-85000952D02*
X110843595Y-85077142D01*
X110843595Y-85077142D02*
X110805500Y-85153333D01*
X110805500Y-85153333D02*
X110767404Y-85191428D01*
X110767404Y-85191428D02*
X110691214Y-85229523D01*
X110691214Y-85229523D02*
X110538833Y-85267619D01*
X110538833Y-85267619D02*
X110348357Y-85267619D01*
X110348357Y-85267619D02*
X110195976Y-85229523D01*
X110195976Y-85229523D02*
X110119785Y-85191428D01*
X110119785Y-85191428D02*
X110081690Y-85153333D01*
X110081690Y-85153333D02*
X110043595Y-85077142D01*
X100997404Y-77963332D02*
X101035500Y-78001428D01*
X101035500Y-78001428D02*
X101073595Y-78115713D01*
X101073595Y-78115713D02*
X101073595Y-78191904D01*
X101073595Y-78191904D02*
X101035500Y-78306190D01*
X101035500Y-78306190D02*
X100959309Y-78382380D01*
X100959309Y-78382380D02*
X100883119Y-78420475D01*
X100883119Y-78420475D02*
X100730738Y-78458571D01*
X100730738Y-78458571D02*
X100616452Y-78458571D01*
X100616452Y-78458571D02*
X100464071Y-78420475D01*
X100464071Y-78420475D02*
X100387880Y-78382380D01*
X100387880Y-78382380D02*
X100311690Y-78306190D01*
X100311690Y-78306190D02*
X100273595Y-78191904D01*
X100273595Y-78191904D02*
X100273595Y-78115713D01*
X100273595Y-78115713D02*
X100311690Y-78001428D01*
X100311690Y-78001428D02*
X100349785Y-77963332D01*
X100273595Y-77696666D02*
X100273595Y-77163332D01*
X100273595Y-77163332D02*
X101073595Y-77506190D01*
X100943333Y-84964547D02*
X100676667Y-84964547D01*
X100676667Y-85383595D02*
X100676667Y-84583595D01*
X100676667Y-84583595D02*
X101057619Y-84583595D01*
X101629047Y-84964547D02*
X101743333Y-85002642D01*
X101743333Y-85002642D02*
X101781428Y-85040738D01*
X101781428Y-85040738D02*
X101819524Y-85116928D01*
X101819524Y-85116928D02*
X101819524Y-85231214D01*
X101819524Y-85231214D02*
X101781428Y-85307404D01*
X101781428Y-85307404D02*
X101743333Y-85345500D01*
X101743333Y-85345500D02*
X101667143Y-85383595D01*
X101667143Y-85383595D02*
X101362381Y-85383595D01*
X101362381Y-85383595D02*
X101362381Y-84583595D01*
X101362381Y-84583595D02*
X101629047Y-84583595D01*
X101629047Y-84583595D02*
X101705238Y-84621690D01*
X101705238Y-84621690D02*
X101743333Y-84659785D01*
X101743333Y-84659785D02*
X101781428Y-84735976D01*
X101781428Y-84735976D02*
X101781428Y-84812166D01*
X101781428Y-84812166D02*
X101743333Y-84888357D01*
X101743333Y-84888357D02*
X101705238Y-84926452D01*
X101705238Y-84926452D02*
X101629047Y-84964547D01*
X101629047Y-84964547D02*
X101362381Y-84964547D01*
X102581428Y-85383595D02*
X102124285Y-85383595D01*
X102352857Y-85383595D02*
X102352857Y-84583595D01*
X102352857Y-84583595D02*
X102276666Y-84697880D01*
X102276666Y-84697880D02*
X102200476Y-84774071D01*
X102200476Y-84774071D02*
X102124285Y-84812166D01*
X131185714Y-100163595D02*
X130919047Y-99782642D01*
X130728571Y-100163595D02*
X130728571Y-99363595D01*
X130728571Y-99363595D02*
X131033333Y-99363595D01*
X131033333Y-99363595D02*
X131109523Y-99401690D01*
X131109523Y-99401690D02*
X131147618Y-99439785D01*
X131147618Y-99439785D02*
X131185714Y-99515976D01*
X131185714Y-99515976D02*
X131185714Y-99630261D01*
X131185714Y-99630261D02*
X131147618Y-99706452D01*
X131147618Y-99706452D02*
X131109523Y-99744547D01*
X131109523Y-99744547D02*
X131033333Y-99782642D01*
X131033333Y-99782642D02*
X130728571Y-99782642D01*
X131947618Y-100163595D02*
X131490475Y-100163595D01*
X131719047Y-100163595D02*
X131719047Y-99363595D01*
X131719047Y-99363595D02*
X131642856Y-99477880D01*
X131642856Y-99477880D02*
X131566666Y-99554071D01*
X131566666Y-99554071D02*
X131490475Y-99592166D01*
X132328571Y-100163595D02*
X132480952Y-100163595D01*
X132480952Y-100163595D02*
X132557142Y-100125500D01*
X132557142Y-100125500D02*
X132595238Y-100087404D01*
X132595238Y-100087404D02*
X132671428Y-99973119D01*
X132671428Y-99973119D02*
X132709523Y-99820738D01*
X132709523Y-99820738D02*
X132709523Y-99515976D01*
X132709523Y-99515976D02*
X132671428Y-99439785D01*
X132671428Y-99439785D02*
X132633333Y-99401690D01*
X132633333Y-99401690D02*
X132557142Y-99363595D01*
X132557142Y-99363595D02*
X132404761Y-99363595D01*
X132404761Y-99363595D02*
X132328571Y-99401690D01*
X132328571Y-99401690D02*
X132290476Y-99439785D01*
X132290476Y-99439785D02*
X132252380Y-99515976D01*
X132252380Y-99515976D02*
X132252380Y-99706452D01*
X132252380Y-99706452D02*
X132290476Y-99782642D01*
X132290476Y-99782642D02*
X132328571Y-99820738D01*
X132328571Y-99820738D02*
X132404761Y-99858833D01*
X132404761Y-99858833D02*
X132557142Y-99858833D01*
X132557142Y-99858833D02*
X132633333Y-99820738D01*
X132633333Y-99820738D02*
X132671428Y-99782642D01*
X132671428Y-99782642D02*
X132709523Y-99706452D01*
X150747619Y-101094547D02*
X151014285Y-101094547D01*
X151128571Y-101513595D02*
X150747619Y-101513595D01*
X150747619Y-101513595D02*
X150747619Y-100713595D01*
X150747619Y-100713595D02*
X151128571Y-100713595D01*
X151433333Y-100789785D02*
X151471429Y-100751690D01*
X151471429Y-100751690D02*
X151547619Y-100713595D01*
X151547619Y-100713595D02*
X151738095Y-100713595D01*
X151738095Y-100713595D02*
X151814286Y-100751690D01*
X151814286Y-100751690D02*
X151852381Y-100789785D01*
X151852381Y-100789785D02*
X151890476Y-100865976D01*
X151890476Y-100865976D02*
X151890476Y-100942166D01*
X151890476Y-100942166D02*
X151852381Y-101056452D01*
X151852381Y-101056452D02*
X151395238Y-101513595D01*
X151395238Y-101513595D02*
X151890476Y-101513595D01*
X146163595Y-85614285D02*
X145782642Y-85880952D01*
X146163595Y-86071428D02*
X145363595Y-86071428D01*
X145363595Y-86071428D02*
X145363595Y-85766666D01*
X145363595Y-85766666D02*
X145401690Y-85690476D01*
X145401690Y-85690476D02*
X145439785Y-85652381D01*
X145439785Y-85652381D02*
X145515976Y-85614285D01*
X145515976Y-85614285D02*
X145630261Y-85614285D01*
X145630261Y-85614285D02*
X145706452Y-85652381D01*
X145706452Y-85652381D02*
X145744547Y-85690476D01*
X145744547Y-85690476D02*
X145782642Y-85766666D01*
X145782642Y-85766666D02*
X145782642Y-86071428D01*
X146163595Y-84852381D02*
X146163595Y-85309524D01*
X146163595Y-85080952D02*
X145363595Y-85080952D01*
X145363595Y-85080952D02*
X145477880Y-85157143D01*
X145477880Y-85157143D02*
X145554071Y-85233333D01*
X145554071Y-85233333D02*
X145592166Y-85309524D01*
X145363595Y-84357142D02*
X145363595Y-84280952D01*
X145363595Y-84280952D02*
X145401690Y-84204761D01*
X145401690Y-84204761D02*
X145439785Y-84166666D01*
X145439785Y-84166666D02*
X145515976Y-84128571D01*
X145515976Y-84128571D02*
X145668357Y-84090476D01*
X145668357Y-84090476D02*
X145858833Y-84090476D01*
X145858833Y-84090476D02*
X146011214Y-84128571D01*
X146011214Y-84128571D02*
X146087404Y-84166666D01*
X146087404Y-84166666D02*
X146125500Y-84204761D01*
X146125500Y-84204761D02*
X146163595Y-84280952D01*
X146163595Y-84280952D02*
X146163595Y-84357142D01*
X146163595Y-84357142D02*
X146125500Y-84433333D01*
X146125500Y-84433333D02*
X146087404Y-84471428D01*
X146087404Y-84471428D02*
X146011214Y-84509523D01*
X146011214Y-84509523D02*
X145858833Y-84547619D01*
X145858833Y-84547619D02*
X145668357Y-84547619D01*
X145668357Y-84547619D02*
X145515976Y-84509523D01*
X145515976Y-84509523D02*
X145439785Y-84471428D01*
X145439785Y-84471428D02*
X145401690Y-84433333D01*
X145401690Y-84433333D02*
X145363595Y-84357142D01*
X135487404Y-99714285D02*
X135525500Y-99752381D01*
X135525500Y-99752381D02*
X135563595Y-99866666D01*
X135563595Y-99866666D02*
X135563595Y-99942857D01*
X135563595Y-99942857D02*
X135525500Y-100057143D01*
X135525500Y-100057143D02*
X135449309Y-100133333D01*
X135449309Y-100133333D02*
X135373119Y-100171428D01*
X135373119Y-100171428D02*
X135220738Y-100209524D01*
X135220738Y-100209524D02*
X135106452Y-100209524D01*
X135106452Y-100209524D02*
X134954071Y-100171428D01*
X134954071Y-100171428D02*
X134877880Y-100133333D01*
X134877880Y-100133333D02*
X134801690Y-100057143D01*
X134801690Y-100057143D02*
X134763595Y-99942857D01*
X134763595Y-99942857D02*
X134763595Y-99866666D01*
X134763595Y-99866666D02*
X134801690Y-99752381D01*
X134801690Y-99752381D02*
X134839785Y-99714285D01*
X134839785Y-99409524D02*
X134801690Y-99371428D01*
X134801690Y-99371428D02*
X134763595Y-99295238D01*
X134763595Y-99295238D02*
X134763595Y-99104762D01*
X134763595Y-99104762D02*
X134801690Y-99028571D01*
X134801690Y-99028571D02*
X134839785Y-98990476D01*
X134839785Y-98990476D02*
X134915976Y-98952381D01*
X134915976Y-98952381D02*
X134992166Y-98952381D01*
X134992166Y-98952381D02*
X135106452Y-98990476D01*
X135106452Y-98990476D02*
X135563595Y-99447619D01*
X135563595Y-99447619D02*
X135563595Y-98952381D01*
X135563595Y-98190476D02*
X135563595Y-98647619D01*
X135563595Y-98419047D02*
X134763595Y-98419047D01*
X134763595Y-98419047D02*
X134877880Y-98495238D01*
X134877880Y-98495238D02*
X134954071Y-98571428D01*
X134954071Y-98571428D02*
X134992166Y-98647619D01*
X112319048Y-85263595D02*
X112319048Y-84463595D01*
X113157143Y-85187404D02*
X113119047Y-85225500D01*
X113119047Y-85225500D02*
X113004762Y-85263595D01*
X113004762Y-85263595D02*
X112928571Y-85263595D01*
X112928571Y-85263595D02*
X112814285Y-85225500D01*
X112814285Y-85225500D02*
X112738095Y-85149309D01*
X112738095Y-85149309D02*
X112700000Y-85073119D01*
X112700000Y-85073119D02*
X112661904Y-84920738D01*
X112661904Y-84920738D02*
X112661904Y-84806452D01*
X112661904Y-84806452D02*
X112700000Y-84654071D01*
X112700000Y-84654071D02*
X112738095Y-84577880D01*
X112738095Y-84577880D02*
X112814285Y-84501690D01*
X112814285Y-84501690D02*
X112928571Y-84463595D01*
X112928571Y-84463595D02*
X113004762Y-84463595D01*
X113004762Y-84463595D02*
X113119047Y-84501690D01*
X113119047Y-84501690D02*
X113157143Y-84539785D01*
X113919047Y-85263595D02*
X113461904Y-85263595D01*
X113690476Y-85263595D02*
X113690476Y-84463595D01*
X113690476Y-84463595D02*
X113614285Y-84577880D01*
X113614285Y-84577880D02*
X113538095Y-84654071D01*
X113538095Y-84654071D02*
X113461904Y-84692166D01*
X121237404Y-102314285D02*
X121275500Y-102352381D01*
X121275500Y-102352381D02*
X121313595Y-102466666D01*
X121313595Y-102466666D02*
X121313595Y-102542857D01*
X121313595Y-102542857D02*
X121275500Y-102657143D01*
X121275500Y-102657143D02*
X121199309Y-102733333D01*
X121199309Y-102733333D02*
X121123119Y-102771428D01*
X121123119Y-102771428D02*
X120970738Y-102809524D01*
X120970738Y-102809524D02*
X120856452Y-102809524D01*
X120856452Y-102809524D02*
X120704071Y-102771428D01*
X120704071Y-102771428D02*
X120627880Y-102733333D01*
X120627880Y-102733333D02*
X120551690Y-102657143D01*
X120551690Y-102657143D02*
X120513595Y-102542857D01*
X120513595Y-102542857D02*
X120513595Y-102466666D01*
X120513595Y-102466666D02*
X120551690Y-102352381D01*
X120551690Y-102352381D02*
X120589785Y-102314285D01*
X120589785Y-102009524D02*
X120551690Y-101971428D01*
X120551690Y-101971428D02*
X120513595Y-101895238D01*
X120513595Y-101895238D02*
X120513595Y-101704762D01*
X120513595Y-101704762D02*
X120551690Y-101628571D01*
X120551690Y-101628571D02*
X120589785Y-101590476D01*
X120589785Y-101590476D02*
X120665976Y-101552381D01*
X120665976Y-101552381D02*
X120742166Y-101552381D01*
X120742166Y-101552381D02*
X120856452Y-101590476D01*
X120856452Y-101590476D02*
X121313595Y-102047619D01*
X121313595Y-102047619D02*
X121313595Y-101552381D01*
X120513595Y-101057142D02*
X120513595Y-100980952D01*
X120513595Y-100980952D02*
X120551690Y-100904761D01*
X120551690Y-100904761D02*
X120589785Y-100866666D01*
X120589785Y-100866666D02*
X120665976Y-100828571D01*
X120665976Y-100828571D02*
X120818357Y-100790476D01*
X120818357Y-100790476D02*
X121008833Y-100790476D01*
X121008833Y-100790476D02*
X121161214Y-100828571D01*
X121161214Y-100828571D02*
X121237404Y-100866666D01*
X121237404Y-100866666D02*
X121275500Y-100904761D01*
X121275500Y-100904761D02*
X121313595Y-100980952D01*
X121313595Y-100980952D02*
X121313595Y-101057142D01*
X121313595Y-101057142D02*
X121275500Y-101133333D01*
X121275500Y-101133333D02*
X121237404Y-101171428D01*
X121237404Y-101171428D02*
X121161214Y-101209523D01*
X121161214Y-101209523D02*
X121008833Y-101247619D01*
X121008833Y-101247619D02*
X120818357Y-101247619D01*
X120818357Y-101247619D02*
X120665976Y-101209523D01*
X120665976Y-101209523D02*
X120589785Y-101171428D01*
X120589785Y-101171428D02*
X120551690Y-101133333D01*
X120551690Y-101133333D02*
X120513595Y-101057142D01*
X129685714Y-90363595D02*
X129419047Y-89982642D01*
X129228571Y-90363595D02*
X129228571Y-89563595D01*
X129228571Y-89563595D02*
X129533333Y-89563595D01*
X129533333Y-89563595D02*
X129609523Y-89601690D01*
X129609523Y-89601690D02*
X129647618Y-89639785D01*
X129647618Y-89639785D02*
X129685714Y-89715976D01*
X129685714Y-89715976D02*
X129685714Y-89830261D01*
X129685714Y-89830261D02*
X129647618Y-89906452D01*
X129647618Y-89906452D02*
X129609523Y-89944547D01*
X129609523Y-89944547D02*
X129533333Y-89982642D01*
X129533333Y-89982642D02*
X129228571Y-89982642D01*
X130447618Y-90363595D02*
X129990475Y-90363595D01*
X130219047Y-90363595D02*
X130219047Y-89563595D01*
X130219047Y-89563595D02*
X130142856Y-89677880D01*
X130142856Y-89677880D02*
X130066666Y-89754071D01*
X130066666Y-89754071D02*
X129990475Y-89792166D01*
X131209523Y-90363595D02*
X130752380Y-90363595D01*
X130980952Y-90363595D02*
X130980952Y-89563595D01*
X130980952Y-89563595D02*
X130904761Y-89677880D01*
X130904761Y-89677880D02*
X130828571Y-89754071D01*
X130828571Y-89754071D02*
X130752380Y-89792166D01*
X115393595Y-101439285D02*
X115012642Y-101705952D01*
X115393595Y-101896428D02*
X114593595Y-101896428D01*
X114593595Y-101896428D02*
X114593595Y-101591666D01*
X114593595Y-101591666D02*
X114631690Y-101515476D01*
X114631690Y-101515476D02*
X114669785Y-101477381D01*
X114669785Y-101477381D02*
X114745976Y-101439285D01*
X114745976Y-101439285D02*
X114860261Y-101439285D01*
X114860261Y-101439285D02*
X114936452Y-101477381D01*
X114936452Y-101477381D02*
X114974547Y-101515476D01*
X114974547Y-101515476D02*
X115012642Y-101591666D01*
X115012642Y-101591666D02*
X115012642Y-101896428D01*
X115393595Y-100677381D02*
X115393595Y-101134524D01*
X115393595Y-100905952D02*
X114593595Y-100905952D01*
X114593595Y-100905952D02*
X114707880Y-100982143D01*
X114707880Y-100982143D02*
X114784071Y-101058333D01*
X114784071Y-101058333D02*
X114822166Y-101134524D01*
X114593595Y-100410714D02*
X114593595Y-99915476D01*
X114593595Y-99915476D02*
X114898357Y-100182142D01*
X114898357Y-100182142D02*
X114898357Y-100067857D01*
X114898357Y-100067857D02*
X114936452Y-99991666D01*
X114936452Y-99991666D02*
X114974547Y-99953571D01*
X114974547Y-99953571D02*
X115050738Y-99915476D01*
X115050738Y-99915476D02*
X115241214Y-99915476D01*
X115241214Y-99915476D02*
X115317404Y-99953571D01*
X115317404Y-99953571D02*
X115355500Y-99991666D01*
X115355500Y-99991666D02*
X115393595Y-100067857D01*
X115393595Y-100067857D02*
X115393595Y-100296428D01*
X115393595Y-100296428D02*
X115355500Y-100372619D01*
X115355500Y-100372619D02*
X115317404Y-100410714D01*
X111995714Y-87093595D02*
X111729047Y-86712642D01*
X111538571Y-87093595D02*
X111538571Y-86293595D01*
X111538571Y-86293595D02*
X111843333Y-86293595D01*
X111843333Y-86293595D02*
X111919523Y-86331690D01*
X111919523Y-86331690D02*
X111957618Y-86369785D01*
X111957618Y-86369785D02*
X111995714Y-86445976D01*
X111995714Y-86445976D02*
X111995714Y-86560261D01*
X111995714Y-86560261D02*
X111957618Y-86636452D01*
X111957618Y-86636452D02*
X111919523Y-86674547D01*
X111919523Y-86674547D02*
X111843333Y-86712642D01*
X111843333Y-86712642D02*
X111538571Y-86712642D01*
X112262380Y-86293595D02*
X112757618Y-86293595D01*
X112757618Y-86293595D02*
X112490952Y-86598357D01*
X112490952Y-86598357D02*
X112605237Y-86598357D01*
X112605237Y-86598357D02*
X112681428Y-86636452D01*
X112681428Y-86636452D02*
X112719523Y-86674547D01*
X112719523Y-86674547D02*
X112757618Y-86750738D01*
X112757618Y-86750738D02*
X112757618Y-86941214D01*
X112757618Y-86941214D02*
X112719523Y-87017404D01*
X112719523Y-87017404D02*
X112681428Y-87055500D01*
X112681428Y-87055500D02*
X112605237Y-87093595D01*
X112605237Y-87093595D02*
X112376666Y-87093595D01*
X112376666Y-87093595D02*
X112300475Y-87055500D01*
X112300475Y-87055500D02*
X112262380Y-87017404D01*
X113519523Y-87093595D02*
X113062380Y-87093595D01*
X113290952Y-87093595D02*
X113290952Y-86293595D01*
X113290952Y-86293595D02*
X113214761Y-86407880D01*
X113214761Y-86407880D02*
X113138571Y-86484071D01*
X113138571Y-86484071D02*
X113062380Y-86522166D01*
X122985714Y-86163595D02*
X122719047Y-85782642D01*
X122528571Y-86163595D02*
X122528571Y-85363595D01*
X122528571Y-85363595D02*
X122833333Y-85363595D01*
X122833333Y-85363595D02*
X122909523Y-85401690D01*
X122909523Y-85401690D02*
X122947618Y-85439785D01*
X122947618Y-85439785D02*
X122985714Y-85515976D01*
X122985714Y-85515976D02*
X122985714Y-85630261D01*
X122985714Y-85630261D02*
X122947618Y-85706452D01*
X122947618Y-85706452D02*
X122909523Y-85744547D01*
X122909523Y-85744547D02*
X122833333Y-85782642D01*
X122833333Y-85782642D02*
X122528571Y-85782642D01*
X123290475Y-85439785D02*
X123328571Y-85401690D01*
X123328571Y-85401690D02*
X123404761Y-85363595D01*
X123404761Y-85363595D02*
X123595237Y-85363595D01*
X123595237Y-85363595D02*
X123671428Y-85401690D01*
X123671428Y-85401690D02*
X123709523Y-85439785D01*
X123709523Y-85439785D02*
X123747618Y-85515976D01*
X123747618Y-85515976D02*
X123747618Y-85592166D01*
X123747618Y-85592166D02*
X123709523Y-85706452D01*
X123709523Y-85706452D02*
X123252380Y-86163595D01*
X123252380Y-86163595D02*
X123747618Y-86163595D01*
X124433333Y-85363595D02*
X124280952Y-85363595D01*
X124280952Y-85363595D02*
X124204761Y-85401690D01*
X124204761Y-85401690D02*
X124166666Y-85439785D01*
X124166666Y-85439785D02*
X124090476Y-85554071D01*
X124090476Y-85554071D02*
X124052380Y-85706452D01*
X124052380Y-85706452D02*
X124052380Y-86011214D01*
X124052380Y-86011214D02*
X124090476Y-86087404D01*
X124090476Y-86087404D02*
X124128571Y-86125500D01*
X124128571Y-86125500D02*
X124204761Y-86163595D01*
X124204761Y-86163595D02*
X124357142Y-86163595D01*
X124357142Y-86163595D02*
X124433333Y-86125500D01*
X124433333Y-86125500D02*
X124471428Y-86087404D01*
X124471428Y-86087404D02*
X124509523Y-86011214D01*
X124509523Y-86011214D02*
X124509523Y-85820738D01*
X124509523Y-85820738D02*
X124471428Y-85744547D01*
X124471428Y-85744547D02*
X124433333Y-85706452D01*
X124433333Y-85706452D02*
X124357142Y-85668357D01*
X124357142Y-85668357D02*
X124204761Y-85668357D01*
X124204761Y-85668357D02*
X124128571Y-85706452D01*
X124128571Y-85706452D02*
X124090476Y-85744547D01*
X124090476Y-85744547D02*
X124052380Y-85820738D01*
X125447404Y-96249285D02*
X125485500Y-96287381D01*
X125485500Y-96287381D02*
X125523595Y-96401666D01*
X125523595Y-96401666D02*
X125523595Y-96477857D01*
X125523595Y-96477857D02*
X125485500Y-96592143D01*
X125485500Y-96592143D02*
X125409309Y-96668333D01*
X125409309Y-96668333D02*
X125333119Y-96706428D01*
X125333119Y-96706428D02*
X125180738Y-96744524D01*
X125180738Y-96744524D02*
X125066452Y-96744524D01*
X125066452Y-96744524D02*
X124914071Y-96706428D01*
X124914071Y-96706428D02*
X124837880Y-96668333D01*
X124837880Y-96668333D02*
X124761690Y-96592143D01*
X124761690Y-96592143D02*
X124723595Y-96477857D01*
X124723595Y-96477857D02*
X124723595Y-96401666D01*
X124723595Y-96401666D02*
X124761690Y-96287381D01*
X124761690Y-96287381D02*
X124799785Y-96249285D01*
X125523595Y-95487381D02*
X125523595Y-95944524D01*
X125523595Y-95715952D02*
X124723595Y-95715952D01*
X124723595Y-95715952D02*
X124837880Y-95792143D01*
X124837880Y-95792143D02*
X124914071Y-95868333D01*
X124914071Y-95868333D02*
X124952166Y-95944524D01*
X125066452Y-95030238D02*
X125028357Y-95106428D01*
X125028357Y-95106428D02*
X124990261Y-95144523D01*
X124990261Y-95144523D02*
X124914071Y-95182619D01*
X124914071Y-95182619D02*
X124875976Y-95182619D01*
X124875976Y-95182619D02*
X124799785Y-95144523D01*
X124799785Y-95144523D02*
X124761690Y-95106428D01*
X124761690Y-95106428D02*
X124723595Y-95030238D01*
X124723595Y-95030238D02*
X124723595Y-94877857D01*
X124723595Y-94877857D02*
X124761690Y-94801666D01*
X124761690Y-94801666D02*
X124799785Y-94763571D01*
X124799785Y-94763571D02*
X124875976Y-94725476D01*
X124875976Y-94725476D02*
X124914071Y-94725476D01*
X124914071Y-94725476D02*
X124990261Y-94763571D01*
X124990261Y-94763571D02*
X125028357Y-94801666D01*
X125028357Y-94801666D02*
X125066452Y-94877857D01*
X125066452Y-94877857D02*
X125066452Y-95030238D01*
X125066452Y-95030238D02*
X125104547Y-95106428D01*
X125104547Y-95106428D02*
X125142642Y-95144523D01*
X125142642Y-95144523D02*
X125218833Y-95182619D01*
X125218833Y-95182619D02*
X125371214Y-95182619D01*
X125371214Y-95182619D02*
X125447404Y-95144523D01*
X125447404Y-95144523D02*
X125485500Y-95106428D01*
X125485500Y-95106428D02*
X125523595Y-95030238D01*
X125523595Y-95030238D02*
X125523595Y-94877857D01*
X125523595Y-94877857D02*
X125485500Y-94801666D01*
X125485500Y-94801666D02*
X125447404Y-94763571D01*
X125447404Y-94763571D02*
X125371214Y-94725476D01*
X125371214Y-94725476D02*
X125218833Y-94725476D01*
X125218833Y-94725476D02*
X125142642Y-94763571D01*
X125142642Y-94763571D02*
X125104547Y-94801666D01*
X125104547Y-94801666D02*
X125066452Y-94877857D01*
X108413595Y-99864285D02*
X108032642Y-100130952D01*
X108413595Y-100321428D02*
X107613595Y-100321428D01*
X107613595Y-100321428D02*
X107613595Y-100016666D01*
X107613595Y-100016666D02*
X107651690Y-99940476D01*
X107651690Y-99940476D02*
X107689785Y-99902381D01*
X107689785Y-99902381D02*
X107765976Y-99864285D01*
X107765976Y-99864285D02*
X107880261Y-99864285D01*
X107880261Y-99864285D02*
X107956452Y-99902381D01*
X107956452Y-99902381D02*
X107994547Y-99940476D01*
X107994547Y-99940476D02*
X108032642Y-100016666D01*
X108032642Y-100016666D02*
X108032642Y-100321428D01*
X108413595Y-99102381D02*
X108413595Y-99559524D01*
X108413595Y-99330952D02*
X107613595Y-99330952D01*
X107613595Y-99330952D02*
X107727880Y-99407143D01*
X107727880Y-99407143D02*
X107804071Y-99483333D01*
X107804071Y-99483333D02*
X107842166Y-99559524D01*
X107880261Y-98416666D02*
X108413595Y-98416666D01*
X107575500Y-98607142D02*
X108146928Y-98797619D01*
X108146928Y-98797619D02*
X108146928Y-98302380D01*
X132087404Y-90653332D02*
X132125500Y-90691428D01*
X132125500Y-90691428D02*
X132163595Y-90805713D01*
X132163595Y-90805713D02*
X132163595Y-90881904D01*
X132163595Y-90881904D02*
X132125500Y-90996190D01*
X132125500Y-90996190D02*
X132049309Y-91072380D01*
X132049309Y-91072380D02*
X131973119Y-91110475D01*
X131973119Y-91110475D02*
X131820738Y-91148571D01*
X131820738Y-91148571D02*
X131706452Y-91148571D01*
X131706452Y-91148571D02*
X131554071Y-91110475D01*
X131554071Y-91110475D02*
X131477880Y-91072380D01*
X131477880Y-91072380D02*
X131401690Y-90996190D01*
X131401690Y-90996190D02*
X131363595Y-90881904D01*
X131363595Y-90881904D02*
X131363595Y-90805713D01*
X131363595Y-90805713D02*
X131401690Y-90691428D01*
X131401690Y-90691428D02*
X131439785Y-90653332D01*
X132163595Y-89891428D02*
X132163595Y-90348571D01*
X132163595Y-90119999D02*
X131363595Y-90119999D01*
X131363595Y-90119999D02*
X131477880Y-90196190D01*
X131477880Y-90196190D02*
X131554071Y-90272380D01*
X131554071Y-90272380D02*
X131592166Y-90348571D01*
X109719048Y-103463595D02*
X109719048Y-102663595D01*
X110557143Y-103387404D02*
X110519047Y-103425500D01*
X110519047Y-103425500D02*
X110404762Y-103463595D01*
X110404762Y-103463595D02*
X110328571Y-103463595D01*
X110328571Y-103463595D02*
X110214285Y-103425500D01*
X110214285Y-103425500D02*
X110138095Y-103349309D01*
X110138095Y-103349309D02*
X110100000Y-103273119D01*
X110100000Y-103273119D02*
X110061904Y-103120738D01*
X110061904Y-103120738D02*
X110061904Y-103006452D01*
X110061904Y-103006452D02*
X110100000Y-102854071D01*
X110100000Y-102854071D02*
X110138095Y-102777880D01*
X110138095Y-102777880D02*
X110214285Y-102701690D01*
X110214285Y-102701690D02*
X110328571Y-102663595D01*
X110328571Y-102663595D02*
X110404762Y-102663595D01*
X110404762Y-102663595D02*
X110519047Y-102701690D01*
X110519047Y-102701690D02*
X110557143Y-102739785D01*
X111280952Y-102663595D02*
X110900000Y-102663595D01*
X110900000Y-102663595D02*
X110861904Y-103044547D01*
X110861904Y-103044547D02*
X110900000Y-103006452D01*
X110900000Y-103006452D02*
X110976190Y-102968357D01*
X110976190Y-102968357D02*
X111166666Y-102968357D01*
X111166666Y-102968357D02*
X111242857Y-103006452D01*
X111242857Y-103006452D02*
X111280952Y-103044547D01*
X111280952Y-103044547D02*
X111319047Y-103120738D01*
X111319047Y-103120738D02*
X111319047Y-103311214D01*
X111319047Y-103311214D02*
X111280952Y-103387404D01*
X111280952Y-103387404D02*
X111242857Y-103425500D01*
X111242857Y-103425500D02*
X111166666Y-103463595D01*
X111166666Y-103463595D02*
X110976190Y-103463595D01*
X110976190Y-103463595D02*
X110900000Y-103425500D01*
X110900000Y-103425500D02*
X110861904Y-103387404D01*
X139990714Y-81063595D02*
X139724047Y-80682642D01*
X139533571Y-81063595D02*
X139533571Y-80263595D01*
X139533571Y-80263595D02*
X139838333Y-80263595D01*
X139838333Y-80263595D02*
X139914523Y-80301690D01*
X139914523Y-80301690D02*
X139952618Y-80339785D01*
X139952618Y-80339785D02*
X139990714Y-80415976D01*
X139990714Y-80415976D02*
X139990714Y-80530261D01*
X139990714Y-80530261D02*
X139952618Y-80606452D01*
X139952618Y-80606452D02*
X139914523Y-80644547D01*
X139914523Y-80644547D02*
X139838333Y-80682642D01*
X139838333Y-80682642D02*
X139533571Y-80682642D01*
X140295475Y-80339785D02*
X140333571Y-80301690D01*
X140333571Y-80301690D02*
X140409761Y-80263595D01*
X140409761Y-80263595D02*
X140600237Y-80263595D01*
X140600237Y-80263595D02*
X140676428Y-80301690D01*
X140676428Y-80301690D02*
X140714523Y-80339785D01*
X140714523Y-80339785D02*
X140752618Y-80415976D01*
X140752618Y-80415976D02*
X140752618Y-80492166D01*
X140752618Y-80492166D02*
X140714523Y-80606452D01*
X140714523Y-80606452D02*
X140257380Y-81063595D01*
X140257380Y-81063595D02*
X140752618Y-81063595D01*
X141057380Y-80339785D02*
X141095476Y-80301690D01*
X141095476Y-80301690D02*
X141171666Y-80263595D01*
X141171666Y-80263595D02*
X141362142Y-80263595D01*
X141362142Y-80263595D02*
X141438333Y-80301690D01*
X141438333Y-80301690D02*
X141476428Y-80339785D01*
X141476428Y-80339785D02*
X141514523Y-80415976D01*
X141514523Y-80415976D02*
X141514523Y-80492166D01*
X141514523Y-80492166D02*
X141476428Y-80606452D01*
X141476428Y-80606452D02*
X141019285Y-81063595D01*
X141019285Y-81063595D02*
X141514523Y-81063595D01*
X118585714Y-105037404D02*
X118547618Y-105075500D01*
X118547618Y-105075500D02*
X118433333Y-105113595D01*
X118433333Y-105113595D02*
X118357142Y-105113595D01*
X118357142Y-105113595D02*
X118242856Y-105075500D01*
X118242856Y-105075500D02*
X118166666Y-104999309D01*
X118166666Y-104999309D02*
X118128571Y-104923119D01*
X118128571Y-104923119D02*
X118090475Y-104770738D01*
X118090475Y-104770738D02*
X118090475Y-104656452D01*
X118090475Y-104656452D02*
X118128571Y-104504071D01*
X118128571Y-104504071D02*
X118166666Y-104427880D01*
X118166666Y-104427880D02*
X118242856Y-104351690D01*
X118242856Y-104351690D02*
X118357142Y-104313595D01*
X118357142Y-104313595D02*
X118433333Y-104313595D01*
X118433333Y-104313595D02*
X118547618Y-104351690D01*
X118547618Y-104351690D02*
X118585714Y-104389785D01*
X119347618Y-105113595D02*
X118890475Y-105113595D01*
X119119047Y-105113595D02*
X119119047Y-104313595D01*
X119119047Y-104313595D02*
X119042856Y-104427880D01*
X119042856Y-104427880D02*
X118966666Y-104504071D01*
X118966666Y-104504071D02*
X118890475Y-104542166D01*
X119652380Y-104389785D02*
X119690476Y-104351690D01*
X119690476Y-104351690D02*
X119766666Y-104313595D01*
X119766666Y-104313595D02*
X119957142Y-104313595D01*
X119957142Y-104313595D02*
X120033333Y-104351690D01*
X120033333Y-104351690D02*
X120071428Y-104389785D01*
X120071428Y-104389785D02*
X120109523Y-104465976D01*
X120109523Y-104465976D02*
X120109523Y-104542166D01*
X120109523Y-104542166D02*
X120071428Y-104656452D01*
X120071428Y-104656452D02*
X119614285Y-105113595D01*
X119614285Y-105113595D02*
X120109523Y-105113595D01*
X115063595Y-105533332D02*
X114682642Y-105799999D01*
X115063595Y-105990475D02*
X114263595Y-105990475D01*
X114263595Y-105990475D02*
X114263595Y-105685713D01*
X114263595Y-105685713D02*
X114301690Y-105609523D01*
X114301690Y-105609523D02*
X114339785Y-105571428D01*
X114339785Y-105571428D02*
X114415976Y-105533332D01*
X114415976Y-105533332D02*
X114530261Y-105533332D01*
X114530261Y-105533332D02*
X114606452Y-105571428D01*
X114606452Y-105571428D02*
X114644547Y-105609523D01*
X114644547Y-105609523D02*
X114682642Y-105685713D01*
X114682642Y-105685713D02*
X114682642Y-105990475D01*
X115063595Y-104771428D02*
X115063595Y-105228571D01*
X115063595Y-104999999D02*
X114263595Y-104999999D01*
X114263595Y-104999999D02*
X114377880Y-105076190D01*
X114377880Y-105076190D02*
X114454071Y-105152380D01*
X114454071Y-105152380D02*
X114492166Y-105228571D01*
X144298809Y-82957285D02*
X144222619Y-82919190D01*
X144222619Y-82919190D02*
X144146428Y-82843000D01*
X144146428Y-82843000D02*
X144032142Y-82728714D01*
X144032142Y-82728714D02*
X143955952Y-82690619D01*
X143955952Y-82690619D02*
X143879761Y-82690619D01*
X143917857Y-82881095D02*
X143841666Y-82843000D01*
X143841666Y-82843000D02*
X143765476Y-82766809D01*
X143765476Y-82766809D02*
X143727380Y-82614428D01*
X143727380Y-82614428D02*
X143727380Y-82347761D01*
X143727380Y-82347761D02*
X143765476Y-82195380D01*
X143765476Y-82195380D02*
X143841666Y-82119190D01*
X143841666Y-82119190D02*
X143917857Y-82081095D01*
X143917857Y-82081095D02*
X144070238Y-82081095D01*
X144070238Y-82081095D02*
X144146428Y-82119190D01*
X144146428Y-82119190D02*
X144222619Y-82195380D01*
X144222619Y-82195380D02*
X144260714Y-82347761D01*
X144260714Y-82347761D02*
X144260714Y-82614428D01*
X144260714Y-82614428D02*
X144222619Y-82766809D01*
X144222619Y-82766809D02*
X144146428Y-82843000D01*
X144146428Y-82843000D02*
X144070238Y-82881095D01*
X144070238Y-82881095D02*
X143917857Y-82881095D01*
X144527380Y-82081095D02*
X145022618Y-82081095D01*
X145022618Y-82081095D02*
X144755952Y-82385857D01*
X144755952Y-82385857D02*
X144870237Y-82385857D01*
X144870237Y-82385857D02*
X144946428Y-82423952D01*
X144946428Y-82423952D02*
X144984523Y-82462047D01*
X144984523Y-82462047D02*
X145022618Y-82538238D01*
X145022618Y-82538238D02*
X145022618Y-82728714D01*
X145022618Y-82728714D02*
X144984523Y-82804904D01*
X144984523Y-82804904D02*
X144946428Y-82843000D01*
X144946428Y-82843000D02*
X144870237Y-82881095D01*
X144870237Y-82881095D02*
X144641666Y-82881095D01*
X144641666Y-82881095D02*
X144565475Y-82843000D01*
X144565475Y-82843000D02*
X144527380Y-82804904D01*
X119785714Y-97987404D02*
X119747618Y-98025500D01*
X119747618Y-98025500D02*
X119633333Y-98063595D01*
X119633333Y-98063595D02*
X119557142Y-98063595D01*
X119557142Y-98063595D02*
X119442856Y-98025500D01*
X119442856Y-98025500D02*
X119366666Y-97949309D01*
X119366666Y-97949309D02*
X119328571Y-97873119D01*
X119328571Y-97873119D02*
X119290475Y-97720738D01*
X119290475Y-97720738D02*
X119290475Y-97606452D01*
X119290475Y-97606452D02*
X119328571Y-97454071D01*
X119328571Y-97454071D02*
X119366666Y-97377880D01*
X119366666Y-97377880D02*
X119442856Y-97301690D01*
X119442856Y-97301690D02*
X119557142Y-97263595D01*
X119557142Y-97263595D02*
X119633333Y-97263595D01*
X119633333Y-97263595D02*
X119747618Y-97301690D01*
X119747618Y-97301690D02*
X119785714Y-97339785D01*
X120090475Y-97339785D02*
X120128571Y-97301690D01*
X120128571Y-97301690D02*
X120204761Y-97263595D01*
X120204761Y-97263595D02*
X120395237Y-97263595D01*
X120395237Y-97263595D02*
X120471428Y-97301690D01*
X120471428Y-97301690D02*
X120509523Y-97339785D01*
X120509523Y-97339785D02*
X120547618Y-97415976D01*
X120547618Y-97415976D02*
X120547618Y-97492166D01*
X120547618Y-97492166D02*
X120509523Y-97606452D01*
X120509523Y-97606452D02*
X120052380Y-98063595D01*
X120052380Y-98063595D02*
X120547618Y-98063595D01*
X121271428Y-97263595D02*
X120890476Y-97263595D01*
X120890476Y-97263595D02*
X120852380Y-97644547D01*
X120852380Y-97644547D02*
X120890476Y-97606452D01*
X120890476Y-97606452D02*
X120966666Y-97568357D01*
X120966666Y-97568357D02*
X121157142Y-97568357D01*
X121157142Y-97568357D02*
X121233333Y-97606452D01*
X121233333Y-97606452D02*
X121271428Y-97644547D01*
X121271428Y-97644547D02*
X121309523Y-97720738D01*
X121309523Y-97720738D02*
X121309523Y-97911214D01*
X121309523Y-97911214D02*
X121271428Y-97987404D01*
X121271428Y-97987404D02*
X121233333Y-98025500D01*
X121233333Y-98025500D02*
X121157142Y-98063595D01*
X121157142Y-98063595D02*
X120966666Y-98063595D01*
X120966666Y-98063595D02*
X120890476Y-98025500D01*
X120890476Y-98025500D02*
X120852380Y-97987404D01*
X99935714Y-96163595D02*
X99669047Y-95782642D01*
X99478571Y-96163595D02*
X99478571Y-95363595D01*
X99478571Y-95363595D02*
X99783333Y-95363595D01*
X99783333Y-95363595D02*
X99859523Y-95401690D01*
X99859523Y-95401690D02*
X99897618Y-95439785D01*
X99897618Y-95439785D02*
X99935714Y-95515976D01*
X99935714Y-95515976D02*
X99935714Y-95630261D01*
X99935714Y-95630261D02*
X99897618Y-95706452D01*
X99897618Y-95706452D02*
X99859523Y-95744547D01*
X99859523Y-95744547D02*
X99783333Y-95782642D01*
X99783333Y-95782642D02*
X99478571Y-95782642D01*
X100240475Y-95439785D02*
X100278571Y-95401690D01*
X100278571Y-95401690D02*
X100354761Y-95363595D01*
X100354761Y-95363595D02*
X100545237Y-95363595D01*
X100545237Y-95363595D02*
X100621428Y-95401690D01*
X100621428Y-95401690D02*
X100659523Y-95439785D01*
X100659523Y-95439785D02*
X100697618Y-95515976D01*
X100697618Y-95515976D02*
X100697618Y-95592166D01*
X100697618Y-95592166D02*
X100659523Y-95706452D01*
X100659523Y-95706452D02*
X100202380Y-96163595D01*
X100202380Y-96163595D02*
X100697618Y-96163595D01*
X101383333Y-95630261D02*
X101383333Y-96163595D01*
X101192857Y-95325500D02*
X101002380Y-95896928D01*
X101002380Y-95896928D02*
X101497619Y-95896928D01*
X122788595Y-102314285D02*
X122407642Y-102580952D01*
X122788595Y-102771428D02*
X121988595Y-102771428D01*
X121988595Y-102771428D02*
X121988595Y-102466666D01*
X121988595Y-102466666D02*
X122026690Y-102390476D01*
X122026690Y-102390476D02*
X122064785Y-102352381D01*
X122064785Y-102352381D02*
X122140976Y-102314285D01*
X122140976Y-102314285D02*
X122255261Y-102314285D01*
X122255261Y-102314285D02*
X122331452Y-102352381D01*
X122331452Y-102352381D02*
X122369547Y-102390476D01*
X122369547Y-102390476D02*
X122407642Y-102466666D01*
X122407642Y-102466666D02*
X122407642Y-102771428D01*
X122788595Y-101552381D02*
X122788595Y-102009524D01*
X122788595Y-101780952D02*
X121988595Y-101780952D01*
X121988595Y-101780952D02*
X122102880Y-101857143D01*
X122102880Y-101857143D02*
X122179071Y-101933333D01*
X122179071Y-101933333D02*
X122217166Y-102009524D01*
X121988595Y-100828571D02*
X121988595Y-101209523D01*
X121988595Y-101209523D02*
X122369547Y-101247619D01*
X122369547Y-101247619D02*
X122331452Y-101209523D01*
X122331452Y-101209523D02*
X122293357Y-101133333D01*
X122293357Y-101133333D02*
X122293357Y-100942857D01*
X122293357Y-100942857D02*
X122331452Y-100866666D01*
X122331452Y-100866666D02*
X122369547Y-100828571D01*
X122369547Y-100828571D02*
X122445738Y-100790476D01*
X122445738Y-100790476D02*
X122636214Y-100790476D01*
X122636214Y-100790476D02*
X122712404Y-100828571D01*
X122712404Y-100828571D02*
X122750500Y-100866666D01*
X122750500Y-100866666D02*
X122788595Y-100942857D01*
X122788595Y-100942857D02*
X122788595Y-101133333D01*
X122788595Y-101133333D02*
X122750500Y-101209523D01*
X122750500Y-101209523D02*
X122712404Y-101247619D01*
X144289524Y-77336095D02*
X144289524Y-76536095D01*
X144289524Y-76536095D02*
X144480000Y-76536095D01*
X144480000Y-76536095D02*
X144594286Y-76574190D01*
X144594286Y-76574190D02*
X144670476Y-76650380D01*
X144670476Y-76650380D02*
X144708571Y-76726571D01*
X144708571Y-76726571D02*
X144746667Y-76878952D01*
X144746667Y-76878952D02*
X144746667Y-76993238D01*
X144746667Y-76993238D02*
X144708571Y-77145619D01*
X144708571Y-77145619D02*
X144670476Y-77221809D01*
X144670476Y-77221809D02*
X144594286Y-77298000D01*
X144594286Y-77298000D02*
X144480000Y-77336095D01*
X144480000Y-77336095D02*
X144289524Y-77336095D01*
X145432381Y-76802761D02*
X145432381Y-77336095D01*
X145241905Y-76498000D02*
X145051428Y-77069428D01*
X145051428Y-77069428D02*
X145546667Y-77069428D01*
X101826667Y-80967404D02*
X101788571Y-81005500D01*
X101788571Y-81005500D02*
X101674286Y-81043595D01*
X101674286Y-81043595D02*
X101598095Y-81043595D01*
X101598095Y-81043595D02*
X101483809Y-81005500D01*
X101483809Y-81005500D02*
X101407619Y-80929309D01*
X101407619Y-80929309D02*
X101369524Y-80853119D01*
X101369524Y-80853119D02*
X101331428Y-80700738D01*
X101331428Y-80700738D02*
X101331428Y-80586452D01*
X101331428Y-80586452D02*
X101369524Y-80434071D01*
X101369524Y-80434071D02*
X101407619Y-80357880D01*
X101407619Y-80357880D02*
X101483809Y-80281690D01*
X101483809Y-80281690D02*
X101598095Y-80243595D01*
X101598095Y-80243595D02*
X101674286Y-80243595D01*
X101674286Y-80243595D02*
X101788571Y-80281690D01*
X101788571Y-80281690D02*
X101826667Y-80319785D01*
X102512381Y-80243595D02*
X102360000Y-80243595D01*
X102360000Y-80243595D02*
X102283809Y-80281690D01*
X102283809Y-80281690D02*
X102245714Y-80319785D01*
X102245714Y-80319785D02*
X102169524Y-80434071D01*
X102169524Y-80434071D02*
X102131428Y-80586452D01*
X102131428Y-80586452D02*
X102131428Y-80891214D01*
X102131428Y-80891214D02*
X102169524Y-80967404D01*
X102169524Y-80967404D02*
X102207619Y-81005500D01*
X102207619Y-81005500D02*
X102283809Y-81043595D01*
X102283809Y-81043595D02*
X102436190Y-81043595D01*
X102436190Y-81043595D02*
X102512381Y-81005500D01*
X102512381Y-81005500D02*
X102550476Y-80967404D01*
X102550476Y-80967404D02*
X102588571Y-80891214D01*
X102588571Y-80891214D02*
X102588571Y-80700738D01*
X102588571Y-80700738D02*
X102550476Y-80624547D01*
X102550476Y-80624547D02*
X102512381Y-80586452D01*
X102512381Y-80586452D02*
X102436190Y-80548357D01*
X102436190Y-80548357D02*
X102283809Y-80548357D01*
X102283809Y-80548357D02*
X102207619Y-80586452D01*
X102207619Y-80586452D02*
X102169524Y-80624547D01*
X102169524Y-80624547D02*
X102131428Y-80700738D01*
X139262404Y-86253332D02*
X139300500Y-86291428D01*
X139300500Y-86291428D02*
X139338595Y-86405713D01*
X139338595Y-86405713D02*
X139338595Y-86481904D01*
X139338595Y-86481904D02*
X139300500Y-86596190D01*
X139300500Y-86596190D02*
X139224309Y-86672380D01*
X139224309Y-86672380D02*
X139148119Y-86710475D01*
X139148119Y-86710475D02*
X138995738Y-86748571D01*
X138995738Y-86748571D02*
X138881452Y-86748571D01*
X138881452Y-86748571D02*
X138729071Y-86710475D01*
X138729071Y-86710475D02*
X138652880Y-86672380D01*
X138652880Y-86672380D02*
X138576690Y-86596190D01*
X138576690Y-86596190D02*
X138538595Y-86481904D01*
X138538595Y-86481904D02*
X138538595Y-86405713D01*
X138538595Y-86405713D02*
X138576690Y-86291428D01*
X138576690Y-86291428D02*
X138614785Y-86253332D01*
X138805261Y-85567618D02*
X139338595Y-85567618D01*
X138500500Y-85758094D02*
X139071928Y-85948571D01*
X139071928Y-85948571D02*
X139071928Y-85453332D01*
X134066667Y-94663595D02*
X133800000Y-94282642D01*
X133609524Y-94663595D02*
X133609524Y-93863595D01*
X133609524Y-93863595D02*
X133914286Y-93863595D01*
X133914286Y-93863595D02*
X133990476Y-93901690D01*
X133990476Y-93901690D02*
X134028571Y-93939785D01*
X134028571Y-93939785D02*
X134066667Y-94015976D01*
X134066667Y-94015976D02*
X134066667Y-94130261D01*
X134066667Y-94130261D02*
X134028571Y-94206452D01*
X134028571Y-94206452D02*
X133990476Y-94244547D01*
X133990476Y-94244547D02*
X133914286Y-94282642D01*
X133914286Y-94282642D02*
X133609524Y-94282642D01*
X134371428Y-93939785D02*
X134409524Y-93901690D01*
X134409524Y-93901690D02*
X134485714Y-93863595D01*
X134485714Y-93863595D02*
X134676190Y-93863595D01*
X134676190Y-93863595D02*
X134752381Y-93901690D01*
X134752381Y-93901690D02*
X134790476Y-93939785D01*
X134790476Y-93939785D02*
X134828571Y-94015976D01*
X134828571Y-94015976D02*
X134828571Y-94092166D01*
X134828571Y-94092166D02*
X134790476Y-94206452D01*
X134790476Y-94206452D02*
X134333333Y-94663595D01*
X134333333Y-94663595D02*
X134828571Y-94663595D01*
X103343595Y-77733332D02*
X102962642Y-77999999D01*
X103343595Y-78190475D02*
X102543595Y-78190475D01*
X102543595Y-78190475D02*
X102543595Y-77885713D01*
X102543595Y-77885713D02*
X102581690Y-77809523D01*
X102581690Y-77809523D02*
X102619785Y-77771428D01*
X102619785Y-77771428D02*
X102695976Y-77733332D01*
X102695976Y-77733332D02*
X102810261Y-77733332D01*
X102810261Y-77733332D02*
X102886452Y-77771428D01*
X102886452Y-77771428D02*
X102924547Y-77809523D01*
X102924547Y-77809523D02*
X102962642Y-77885713D01*
X102962642Y-77885713D02*
X102962642Y-78190475D01*
X102543595Y-77466666D02*
X102543595Y-76971428D01*
X102543595Y-76971428D02*
X102848357Y-77238094D01*
X102848357Y-77238094D02*
X102848357Y-77123809D01*
X102848357Y-77123809D02*
X102886452Y-77047618D01*
X102886452Y-77047618D02*
X102924547Y-77009523D01*
X102924547Y-77009523D02*
X103000738Y-76971428D01*
X103000738Y-76971428D02*
X103191214Y-76971428D01*
X103191214Y-76971428D02*
X103267404Y-77009523D01*
X103267404Y-77009523D02*
X103305500Y-77047618D01*
X103305500Y-77047618D02*
X103343595Y-77123809D01*
X103343595Y-77123809D02*
X103343595Y-77352380D01*
X103343595Y-77352380D02*
X103305500Y-77428571D01*
X103305500Y-77428571D02*
X103267404Y-77466666D01*
X99935714Y-92793595D02*
X99669047Y-92412642D01*
X99478571Y-92793595D02*
X99478571Y-91993595D01*
X99478571Y-91993595D02*
X99783333Y-91993595D01*
X99783333Y-91993595D02*
X99859523Y-92031690D01*
X99859523Y-92031690D02*
X99897618Y-92069785D01*
X99897618Y-92069785D02*
X99935714Y-92145976D01*
X99935714Y-92145976D02*
X99935714Y-92260261D01*
X99935714Y-92260261D02*
X99897618Y-92336452D01*
X99897618Y-92336452D02*
X99859523Y-92374547D01*
X99859523Y-92374547D02*
X99783333Y-92412642D01*
X99783333Y-92412642D02*
X99478571Y-92412642D01*
X100240475Y-92069785D02*
X100278571Y-92031690D01*
X100278571Y-92031690D02*
X100354761Y-91993595D01*
X100354761Y-91993595D02*
X100545237Y-91993595D01*
X100545237Y-91993595D02*
X100621428Y-92031690D01*
X100621428Y-92031690D02*
X100659523Y-92069785D01*
X100659523Y-92069785D02*
X100697618Y-92145976D01*
X100697618Y-92145976D02*
X100697618Y-92222166D01*
X100697618Y-92222166D02*
X100659523Y-92336452D01*
X100659523Y-92336452D02*
X100202380Y-92793595D01*
X100202380Y-92793595D02*
X100697618Y-92793595D01*
X100964285Y-91993595D02*
X101459523Y-91993595D01*
X101459523Y-91993595D02*
X101192857Y-92298357D01*
X101192857Y-92298357D02*
X101307142Y-92298357D01*
X101307142Y-92298357D02*
X101383333Y-92336452D01*
X101383333Y-92336452D02*
X101421428Y-92374547D01*
X101421428Y-92374547D02*
X101459523Y-92450738D01*
X101459523Y-92450738D02*
X101459523Y-92641214D01*
X101459523Y-92641214D02*
X101421428Y-92717404D01*
X101421428Y-92717404D02*
X101383333Y-92755500D01*
X101383333Y-92755500D02*
X101307142Y-92793595D01*
X101307142Y-92793595D02*
X101078571Y-92793595D01*
X101078571Y-92793595D02*
X101002380Y-92755500D01*
X101002380Y-92755500D02*
X100964285Y-92717404D01*
X132137404Y-93133332D02*
X132175500Y-93171428D01*
X132175500Y-93171428D02*
X132213595Y-93285713D01*
X132213595Y-93285713D02*
X132213595Y-93361904D01*
X132213595Y-93361904D02*
X132175500Y-93476190D01*
X132175500Y-93476190D02*
X132099309Y-93552380D01*
X132099309Y-93552380D02*
X132023119Y-93590475D01*
X132023119Y-93590475D02*
X131870738Y-93628571D01*
X131870738Y-93628571D02*
X131756452Y-93628571D01*
X131756452Y-93628571D02*
X131604071Y-93590475D01*
X131604071Y-93590475D02*
X131527880Y-93552380D01*
X131527880Y-93552380D02*
X131451690Y-93476190D01*
X131451690Y-93476190D02*
X131413595Y-93361904D01*
X131413595Y-93361904D02*
X131413595Y-93285713D01*
X131413595Y-93285713D02*
X131451690Y-93171428D01*
X131451690Y-93171428D02*
X131489785Y-93133332D01*
X131489785Y-92828571D02*
X131451690Y-92790475D01*
X131451690Y-92790475D02*
X131413595Y-92714285D01*
X131413595Y-92714285D02*
X131413595Y-92523809D01*
X131413595Y-92523809D02*
X131451690Y-92447618D01*
X131451690Y-92447618D02*
X131489785Y-92409523D01*
X131489785Y-92409523D02*
X131565976Y-92371428D01*
X131565976Y-92371428D02*
X131642166Y-92371428D01*
X131642166Y-92371428D02*
X131756452Y-92409523D01*
X131756452Y-92409523D02*
X132213595Y-92866666D01*
X132213595Y-92866666D02*
X132213595Y-92371428D01*
X99268595Y-91131666D02*
X99840023Y-91131666D01*
X99840023Y-91131666D02*
X99954309Y-91169761D01*
X99954309Y-91169761D02*
X100030500Y-91245952D01*
X100030500Y-91245952D02*
X100068595Y-91360237D01*
X100068595Y-91360237D02*
X100068595Y-91436428D01*
X99268595Y-90369761D02*
X99268595Y-90750713D01*
X99268595Y-90750713D02*
X99649547Y-90788809D01*
X99649547Y-90788809D02*
X99611452Y-90750713D01*
X99611452Y-90750713D02*
X99573357Y-90674523D01*
X99573357Y-90674523D02*
X99573357Y-90484047D01*
X99573357Y-90484047D02*
X99611452Y-90407856D01*
X99611452Y-90407856D02*
X99649547Y-90369761D01*
X99649547Y-90369761D02*
X99725738Y-90331666D01*
X99725738Y-90331666D02*
X99916214Y-90331666D01*
X99916214Y-90331666D02*
X99992404Y-90369761D01*
X99992404Y-90369761D02*
X100030500Y-90407856D01*
X100030500Y-90407856D02*
X100068595Y-90484047D01*
X100068595Y-90484047D02*
X100068595Y-90674523D01*
X100068595Y-90674523D02*
X100030500Y-90750713D01*
X100030500Y-90750713D02*
X99992404Y-90788809D01*
X131085714Y-81987404D02*
X131047618Y-82025500D01*
X131047618Y-82025500D02*
X130933333Y-82063595D01*
X130933333Y-82063595D02*
X130857142Y-82063595D01*
X130857142Y-82063595D02*
X130742856Y-82025500D01*
X130742856Y-82025500D02*
X130666666Y-81949309D01*
X130666666Y-81949309D02*
X130628571Y-81873119D01*
X130628571Y-81873119D02*
X130590475Y-81720738D01*
X130590475Y-81720738D02*
X130590475Y-81606452D01*
X130590475Y-81606452D02*
X130628571Y-81454071D01*
X130628571Y-81454071D02*
X130666666Y-81377880D01*
X130666666Y-81377880D02*
X130742856Y-81301690D01*
X130742856Y-81301690D02*
X130857142Y-81263595D01*
X130857142Y-81263595D02*
X130933333Y-81263595D01*
X130933333Y-81263595D02*
X131047618Y-81301690D01*
X131047618Y-81301690D02*
X131085714Y-81339785D01*
X131390475Y-81339785D02*
X131428571Y-81301690D01*
X131428571Y-81301690D02*
X131504761Y-81263595D01*
X131504761Y-81263595D02*
X131695237Y-81263595D01*
X131695237Y-81263595D02*
X131771428Y-81301690D01*
X131771428Y-81301690D02*
X131809523Y-81339785D01*
X131809523Y-81339785D02*
X131847618Y-81415976D01*
X131847618Y-81415976D02*
X131847618Y-81492166D01*
X131847618Y-81492166D02*
X131809523Y-81606452D01*
X131809523Y-81606452D02*
X131352380Y-82063595D01*
X131352380Y-82063595D02*
X131847618Y-82063595D01*
X132304761Y-81606452D02*
X132228571Y-81568357D01*
X132228571Y-81568357D02*
X132190476Y-81530261D01*
X132190476Y-81530261D02*
X132152380Y-81454071D01*
X132152380Y-81454071D02*
X132152380Y-81415976D01*
X132152380Y-81415976D02*
X132190476Y-81339785D01*
X132190476Y-81339785D02*
X132228571Y-81301690D01*
X132228571Y-81301690D02*
X132304761Y-81263595D01*
X132304761Y-81263595D02*
X132457142Y-81263595D01*
X132457142Y-81263595D02*
X132533333Y-81301690D01*
X132533333Y-81301690D02*
X132571428Y-81339785D01*
X132571428Y-81339785D02*
X132609523Y-81415976D01*
X132609523Y-81415976D02*
X132609523Y-81454071D01*
X132609523Y-81454071D02*
X132571428Y-81530261D01*
X132571428Y-81530261D02*
X132533333Y-81568357D01*
X132533333Y-81568357D02*
X132457142Y-81606452D01*
X132457142Y-81606452D02*
X132304761Y-81606452D01*
X132304761Y-81606452D02*
X132228571Y-81644547D01*
X132228571Y-81644547D02*
X132190476Y-81682642D01*
X132190476Y-81682642D02*
X132152380Y-81758833D01*
X132152380Y-81758833D02*
X132152380Y-81911214D01*
X132152380Y-81911214D02*
X132190476Y-81987404D01*
X132190476Y-81987404D02*
X132228571Y-82025500D01*
X132228571Y-82025500D02*
X132304761Y-82063595D01*
X132304761Y-82063595D02*
X132457142Y-82063595D01*
X132457142Y-82063595D02*
X132533333Y-82025500D01*
X132533333Y-82025500D02*
X132571428Y-81987404D01*
X132571428Y-81987404D02*
X132609523Y-81911214D01*
X132609523Y-81911214D02*
X132609523Y-81758833D01*
X132609523Y-81758833D02*
X132571428Y-81682642D01*
X132571428Y-81682642D02*
X132533333Y-81644547D01*
X132533333Y-81644547D02*
X132457142Y-81606452D01*
X117185714Y-91063595D02*
X116919047Y-90682642D01*
X116728571Y-91063595D02*
X116728571Y-90263595D01*
X116728571Y-90263595D02*
X117033333Y-90263595D01*
X117033333Y-90263595D02*
X117109523Y-90301690D01*
X117109523Y-90301690D02*
X117147618Y-90339785D01*
X117147618Y-90339785D02*
X117185714Y-90415976D01*
X117185714Y-90415976D02*
X117185714Y-90530261D01*
X117185714Y-90530261D02*
X117147618Y-90606452D01*
X117147618Y-90606452D02*
X117109523Y-90644547D01*
X117109523Y-90644547D02*
X117033333Y-90682642D01*
X117033333Y-90682642D02*
X116728571Y-90682642D01*
X117947618Y-91063595D02*
X117490475Y-91063595D01*
X117719047Y-91063595D02*
X117719047Y-90263595D01*
X117719047Y-90263595D02*
X117642856Y-90377880D01*
X117642856Y-90377880D02*
X117566666Y-90454071D01*
X117566666Y-90454071D02*
X117490475Y-90492166D01*
X118633333Y-90263595D02*
X118480952Y-90263595D01*
X118480952Y-90263595D02*
X118404761Y-90301690D01*
X118404761Y-90301690D02*
X118366666Y-90339785D01*
X118366666Y-90339785D02*
X118290476Y-90454071D01*
X118290476Y-90454071D02*
X118252380Y-90606452D01*
X118252380Y-90606452D02*
X118252380Y-90911214D01*
X118252380Y-90911214D02*
X118290476Y-90987404D01*
X118290476Y-90987404D02*
X118328571Y-91025500D01*
X118328571Y-91025500D02*
X118404761Y-91063595D01*
X118404761Y-91063595D02*
X118557142Y-91063595D01*
X118557142Y-91063595D02*
X118633333Y-91025500D01*
X118633333Y-91025500D02*
X118671428Y-90987404D01*
X118671428Y-90987404D02*
X118709523Y-90911214D01*
X118709523Y-90911214D02*
X118709523Y-90720738D01*
X118709523Y-90720738D02*
X118671428Y-90644547D01*
X118671428Y-90644547D02*
X118633333Y-90606452D01*
X118633333Y-90606452D02*
X118557142Y-90568357D01*
X118557142Y-90568357D02*
X118404761Y-90568357D01*
X118404761Y-90568357D02*
X118328571Y-90606452D01*
X118328571Y-90606452D02*
X118290476Y-90644547D01*
X118290476Y-90644547D02*
X118252380Y-90720738D01*
X113863595Y-91614285D02*
X113482642Y-91880952D01*
X113863595Y-92071428D02*
X113063595Y-92071428D01*
X113063595Y-92071428D02*
X113063595Y-91766666D01*
X113063595Y-91766666D02*
X113101690Y-91690476D01*
X113101690Y-91690476D02*
X113139785Y-91652381D01*
X113139785Y-91652381D02*
X113215976Y-91614285D01*
X113215976Y-91614285D02*
X113330261Y-91614285D01*
X113330261Y-91614285D02*
X113406452Y-91652381D01*
X113406452Y-91652381D02*
X113444547Y-91690476D01*
X113444547Y-91690476D02*
X113482642Y-91766666D01*
X113482642Y-91766666D02*
X113482642Y-92071428D01*
X113139785Y-91309524D02*
X113101690Y-91271428D01*
X113101690Y-91271428D02*
X113063595Y-91195238D01*
X113063595Y-91195238D02*
X113063595Y-91004762D01*
X113063595Y-91004762D02*
X113101690Y-90928571D01*
X113101690Y-90928571D02*
X113139785Y-90890476D01*
X113139785Y-90890476D02*
X113215976Y-90852381D01*
X113215976Y-90852381D02*
X113292166Y-90852381D01*
X113292166Y-90852381D02*
X113406452Y-90890476D01*
X113406452Y-90890476D02*
X113863595Y-91347619D01*
X113863595Y-91347619D02*
X113863595Y-90852381D01*
X113063595Y-90357142D02*
X113063595Y-90280952D01*
X113063595Y-90280952D02*
X113101690Y-90204761D01*
X113101690Y-90204761D02*
X113139785Y-90166666D01*
X113139785Y-90166666D02*
X113215976Y-90128571D01*
X113215976Y-90128571D02*
X113368357Y-90090476D01*
X113368357Y-90090476D02*
X113558833Y-90090476D01*
X113558833Y-90090476D02*
X113711214Y-90128571D01*
X113711214Y-90128571D02*
X113787404Y-90166666D01*
X113787404Y-90166666D02*
X113825500Y-90204761D01*
X113825500Y-90204761D02*
X113863595Y-90280952D01*
X113863595Y-90280952D02*
X113863595Y-90357142D01*
X113863595Y-90357142D02*
X113825500Y-90433333D01*
X113825500Y-90433333D02*
X113787404Y-90471428D01*
X113787404Y-90471428D02*
X113711214Y-90509523D01*
X113711214Y-90509523D02*
X113558833Y-90547619D01*
X113558833Y-90547619D02*
X113368357Y-90547619D01*
X113368357Y-90547619D02*
X113215976Y-90509523D01*
X113215976Y-90509523D02*
X113139785Y-90471428D01*
X113139785Y-90471428D02*
X113101690Y-90433333D01*
X113101690Y-90433333D02*
X113063595Y-90357142D01*
X123885714Y-84887404D02*
X123847618Y-84925500D01*
X123847618Y-84925500D02*
X123733333Y-84963595D01*
X123733333Y-84963595D02*
X123657142Y-84963595D01*
X123657142Y-84963595D02*
X123542856Y-84925500D01*
X123542856Y-84925500D02*
X123466666Y-84849309D01*
X123466666Y-84849309D02*
X123428571Y-84773119D01*
X123428571Y-84773119D02*
X123390475Y-84620738D01*
X123390475Y-84620738D02*
X123390475Y-84506452D01*
X123390475Y-84506452D02*
X123428571Y-84354071D01*
X123428571Y-84354071D02*
X123466666Y-84277880D01*
X123466666Y-84277880D02*
X123542856Y-84201690D01*
X123542856Y-84201690D02*
X123657142Y-84163595D01*
X123657142Y-84163595D02*
X123733333Y-84163595D01*
X123733333Y-84163595D02*
X123847618Y-84201690D01*
X123847618Y-84201690D02*
X123885714Y-84239785D01*
X124647618Y-84963595D02*
X124190475Y-84963595D01*
X124419047Y-84963595D02*
X124419047Y-84163595D01*
X124419047Y-84163595D02*
X124342856Y-84277880D01*
X124342856Y-84277880D02*
X124266666Y-84354071D01*
X124266666Y-84354071D02*
X124190475Y-84392166D01*
X124914285Y-84163595D02*
X125447619Y-84163595D01*
X125447619Y-84163595D02*
X125104761Y-84963595D01*
X130926667Y-97677404D02*
X130888571Y-97715500D01*
X130888571Y-97715500D02*
X130774286Y-97753595D01*
X130774286Y-97753595D02*
X130698095Y-97753595D01*
X130698095Y-97753595D02*
X130583809Y-97715500D01*
X130583809Y-97715500D02*
X130507619Y-97639309D01*
X130507619Y-97639309D02*
X130469524Y-97563119D01*
X130469524Y-97563119D02*
X130431428Y-97410738D01*
X130431428Y-97410738D02*
X130431428Y-97296452D01*
X130431428Y-97296452D02*
X130469524Y-97144071D01*
X130469524Y-97144071D02*
X130507619Y-97067880D01*
X130507619Y-97067880D02*
X130583809Y-96991690D01*
X130583809Y-96991690D02*
X130698095Y-96953595D01*
X130698095Y-96953595D02*
X130774286Y-96953595D01*
X130774286Y-96953595D02*
X130888571Y-96991690D01*
X130888571Y-96991690D02*
X130926667Y-97029785D01*
X131383809Y-97296452D02*
X131307619Y-97258357D01*
X131307619Y-97258357D02*
X131269524Y-97220261D01*
X131269524Y-97220261D02*
X131231428Y-97144071D01*
X131231428Y-97144071D02*
X131231428Y-97105976D01*
X131231428Y-97105976D02*
X131269524Y-97029785D01*
X131269524Y-97029785D02*
X131307619Y-96991690D01*
X131307619Y-96991690D02*
X131383809Y-96953595D01*
X131383809Y-96953595D02*
X131536190Y-96953595D01*
X131536190Y-96953595D02*
X131612381Y-96991690D01*
X131612381Y-96991690D02*
X131650476Y-97029785D01*
X131650476Y-97029785D02*
X131688571Y-97105976D01*
X131688571Y-97105976D02*
X131688571Y-97144071D01*
X131688571Y-97144071D02*
X131650476Y-97220261D01*
X131650476Y-97220261D02*
X131612381Y-97258357D01*
X131612381Y-97258357D02*
X131536190Y-97296452D01*
X131536190Y-97296452D02*
X131383809Y-97296452D01*
X131383809Y-97296452D02*
X131307619Y-97334547D01*
X131307619Y-97334547D02*
X131269524Y-97372642D01*
X131269524Y-97372642D02*
X131231428Y-97448833D01*
X131231428Y-97448833D02*
X131231428Y-97601214D01*
X131231428Y-97601214D02*
X131269524Y-97677404D01*
X131269524Y-97677404D02*
X131307619Y-97715500D01*
X131307619Y-97715500D02*
X131383809Y-97753595D01*
X131383809Y-97753595D02*
X131536190Y-97753595D01*
X131536190Y-97753595D02*
X131612381Y-97715500D01*
X131612381Y-97715500D02*
X131650476Y-97677404D01*
X131650476Y-97677404D02*
X131688571Y-97601214D01*
X131688571Y-97601214D02*
X131688571Y-97448833D01*
X131688571Y-97448833D02*
X131650476Y-97372642D01*
X131650476Y-97372642D02*
X131612381Y-97334547D01*
X131612381Y-97334547D02*
X131536190Y-97296452D01*
X116169048Y-103563595D02*
X116169048Y-102763595D01*
X117007143Y-103487404D02*
X116969047Y-103525500D01*
X116969047Y-103525500D02*
X116854762Y-103563595D01*
X116854762Y-103563595D02*
X116778571Y-103563595D01*
X116778571Y-103563595D02*
X116664285Y-103525500D01*
X116664285Y-103525500D02*
X116588095Y-103449309D01*
X116588095Y-103449309D02*
X116550000Y-103373119D01*
X116550000Y-103373119D02*
X116511904Y-103220738D01*
X116511904Y-103220738D02*
X116511904Y-103106452D01*
X116511904Y-103106452D02*
X116550000Y-102954071D01*
X116550000Y-102954071D02*
X116588095Y-102877880D01*
X116588095Y-102877880D02*
X116664285Y-102801690D01*
X116664285Y-102801690D02*
X116778571Y-102763595D01*
X116778571Y-102763595D02*
X116854762Y-102763595D01*
X116854762Y-102763595D02*
X116969047Y-102801690D01*
X116969047Y-102801690D02*
X117007143Y-102839785D01*
X117692857Y-103030261D02*
X117692857Y-103563595D01*
X117502381Y-102725500D02*
X117311904Y-103296928D01*
X117311904Y-103296928D02*
X117807143Y-103296928D01*
X111446667Y-81707404D02*
X111408571Y-81745500D01*
X111408571Y-81745500D02*
X111294286Y-81783595D01*
X111294286Y-81783595D02*
X111218095Y-81783595D01*
X111218095Y-81783595D02*
X111103809Y-81745500D01*
X111103809Y-81745500D02*
X111027619Y-81669309D01*
X111027619Y-81669309D02*
X110989524Y-81593119D01*
X110989524Y-81593119D02*
X110951428Y-81440738D01*
X110951428Y-81440738D02*
X110951428Y-81326452D01*
X110951428Y-81326452D02*
X110989524Y-81174071D01*
X110989524Y-81174071D02*
X111027619Y-81097880D01*
X111027619Y-81097880D02*
X111103809Y-81021690D01*
X111103809Y-81021690D02*
X111218095Y-80983595D01*
X111218095Y-80983595D02*
X111294286Y-80983595D01*
X111294286Y-80983595D02*
X111408571Y-81021690D01*
X111408571Y-81021690D02*
X111446667Y-81059785D01*
X112170476Y-80983595D02*
X111789524Y-80983595D01*
X111789524Y-80983595D02*
X111751428Y-81364547D01*
X111751428Y-81364547D02*
X111789524Y-81326452D01*
X111789524Y-81326452D02*
X111865714Y-81288357D01*
X111865714Y-81288357D02*
X112056190Y-81288357D01*
X112056190Y-81288357D02*
X112132381Y-81326452D01*
X112132381Y-81326452D02*
X112170476Y-81364547D01*
X112170476Y-81364547D02*
X112208571Y-81440738D01*
X112208571Y-81440738D02*
X112208571Y-81631214D01*
X112208571Y-81631214D02*
X112170476Y-81707404D01*
X112170476Y-81707404D02*
X112132381Y-81745500D01*
X112132381Y-81745500D02*
X112056190Y-81783595D01*
X112056190Y-81783595D02*
X111865714Y-81783595D01*
X111865714Y-81783595D02*
X111789524Y-81745500D01*
X111789524Y-81745500D02*
X111751428Y-81707404D01*
X108266667Y-105533595D02*
X108000000Y-105152642D01*
X107809524Y-105533595D02*
X107809524Y-104733595D01*
X107809524Y-104733595D02*
X108114286Y-104733595D01*
X108114286Y-104733595D02*
X108190476Y-104771690D01*
X108190476Y-104771690D02*
X108228571Y-104809785D01*
X108228571Y-104809785D02*
X108266667Y-104885976D01*
X108266667Y-104885976D02*
X108266667Y-105000261D01*
X108266667Y-105000261D02*
X108228571Y-105076452D01*
X108228571Y-105076452D02*
X108190476Y-105114547D01*
X108190476Y-105114547D02*
X108114286Y-105152642D01*
X108114286Y-105152642D02*
X107809524Y-105152642D01*
X108723809Y-105076452D02*
X108647619Y-105038357D01*
X108647619Y-105038357D02*
X108609524Y-105000261D01*
X108609524Y-105000261D02*
X108571428Y-104924071D01*
X108571428Y-104924071D02*
X108571428Y-104885976D01*
X108571428Y-104885976D02*
X108609524Y-104809785D01*
X108609524Y-104809785D02*
X108647619Y-104771690D01*
X108647619Y-104771690D02*
X108723809Y-104733595D01*
X108723809Y-104733595D02*
X108876190Y-104733595D01*
X108876190Y-104733595D02*
X108952381Y-104771690D01*
X108952381Y-104771690D02*
X108990476Y-104809785D01*
X108990476Y-104809785D02*
X109028571Y-104885976D01*
X109028571Y-104885976D02*
X109028571Y-104924071D01*
X109028571Y-104924071D02*
X108990476Y-105000261D01*
X108990476Y-105000261D02*
X108952381Y-105038357D01*
X108952381Y-105038357D02*
X108876190Y-105076452D01*
X108876190Y-105076452D02*
X108723809Y-105076452D01*
X108723809Y-105076452D02*
X108647619Y-105114547D01*
X108647619Y-105114547D02*
X108609524Y-105152642D01*
X108609524Y-105152642D02*
X108571428Y-105228833D01*
X108571428Y-105228833D02*
X108571428Y-105381214D01*
X108571428Y-105381214D02*
X108609524Y-105457404D01*
X108609524Y-105457404D02*
X108647619Y-105495500D01*
X108647619Y-105495500D02*
X108723809Y-105533595D01*
X108723809Y-105533595D02*
X108876190Y-105533595D01*
X108876190Y-105533595D02*
X108952381Y-105495500D01*
X108952381Y-105495500D02*
X108990476Y-105457404D01*
X108990476Y-105457404D02*
X109028571Y-105381214D01*
X109028571Y-105381214D02*
X109028571Y-105228833D01*
X109028571Y-105228833D02*
X108990476Y-105152642D01*
X108990476Y-105152642D02*
X108952381Y-105114547D01*
X108952381Y-105114547D02*
X108876190Y-105076452D01*
D11*
X143445000Y-87121359D02*
X143445000Y-87428641D01*
X144205000Y-87121359D02*
X144205000Y-87428641D01*
X121538641Y-89320000D02*
X121231359Y-89320000D01*
X121538641Y-90080000D02*
X121231359Y-90080000D01*
X128341359Y-96280000D02*
X128648641Y-96280000D01*
X128341359Y-97040000D02*
X128648641Y-97040000D01*
D12*
X108050000Y-85595000D02*
X108050000Y-83995000D01*
D11*
X108860000Y-101167164D02*
X108860000Y-101382836D01*
X109580000Y-101167164D02*
X109580000Y-101382836D01*
X116646359Y-87120000D02*
X116953641Y-87120000D01*
X116646359Y-87880000D02*
X116953641Y-87880000D01*
X137535000Y-76237500D02*
X137535000Y-77707500D01*
X137535000Y-77707500D02*
X139820000Y-77707500D01*
X139820000Y-76237500D02*
X137535000Y-76237500D01*
D13*
X139820000Y-78172500D02*
X140220000Y-78172500D01*
X140020000Y-77972500D02*
X140020000Y-78372500D01*
D11*
X113446359Y-97820000D02*
X113753641Y-97820000D01*
X113446359Y-98580000D02*
X113753641Y-98580000D01*
X131727836Y-83740000D02*
X131512164Y-83740000D01*
X131727836Y-84460000D02*
X131512164Y-84460000D01*
D14*
X107977600Y-88329600D02*
X108636400Y-88329600D01*
X107977600Y-89142400D02*
X107977600Y-88329600D01*
X110163600Y-88329600D02*
X110822400Y-88329600D01*
X110822400Y-88329600D02*
X110822400Y-89142400D01*
D11*
X121937258Y-87577500D02*
X121462742Y-87577500D01*
X121937258Y-88622500D02*
X121462742Y-88622500D01*
X96970000Y-79880000D02*
X96970000Y-78675000D01*
X97516529Y-79880000D02*
X96970000Y-79880000D01*
X97772470Y-78675000D02*
X96970000Y-78675000D01*
X99190000Y-78675000D02*
X98387530Y-78675000D01*
X99190000Y-79880000D02*
X98643471Y-79880000D01*
X99190000Y-79880000D02*
X99190000Y-78675000D01*
X99190000Y-80640000D02*
X99190000Y-81400000D01*
X99190000Y-81400000D02*
X98080000Y-81400000D01*
X144970000Y-106955000D02*
X144970000Y-101815000D01*
X147630000Y-101815000D02*
X144970000Y-101815000D01*
X147630000Y-106955000D02*
X144970000Y-106955000D01*
X147630000Y-106955000D02*
X147630000Y-101815000D01*
X147630000Y-108225000D02*
X147630000Y-109555000D01*
X147630000Y-109555000D02*
X146300000Y-109555000D01*
X134175000Y-92425000D02*
X134175000Y-91075000D01*
X135925000Y-92425000D02*
X135925000Y-91075000D01*
X144167164Y-88440000D02*
X144382836Y-88440000D01*
X144167164Y-89160000D02*
X144382836Y-89160000D01*
D15*
X114385000Y-81085000D02*
X115435000Y-81085000D01*
X114385000Y-82335000D02*
X115435000Y-82335000D01*
D13*
X120928000Y-78750000D02*
X120928000Y-83750000D01*
X130000000Y-78750000D02*
X121000000Y-78750000D01*
X130000000Y-78750000D02*
X130000000Y-83750000D01*
X130000000Y-83750000D02*
X121000000Y-83750000D01*
D11*
X111587836Y-97840000D02*
X111372164Y-97840000D01*
X111587836Y-98560000D02*
X111372164Y-98560000D01*
D16*
X108775000Y-82920000D02*
G75*
G02*
X108525000Y-82920000I-125000J0D01*
G01*
X108525000Y-82920000D02*
G75*
G02*
X108775000Y-82920000I125000J0D01*
G01*
D11*
X112752836Y-102765000D02*
X112537164Y-102765000D01*
X112752836Y-103485000D02*
X112537164Y-103485000D01*
X102590000Y-83522836D02*
X102590000Y-83307164D01*
X103310000Y-83522836D02*
X103310000Y-83307164D01*
X116887742Y-88777500D02*
X117362258Y-88777500D01*
X116887742Y-89822500D02*
X117362258Y-89822500D01*
X99815000Y-83522836D02*
X99815000Y-83307164D01*
X100535000Y-83522836D02*
X100535000Y-83307164D01*
X139890000Y-86812779D02*
X139890000Y-86487221D01*
X140910000Y-86812779D02*
X140910000Y-86487221D01*
X133640000Y-101427836D02*
X133640000Y-101212164D01*
X134360000Y-101427836D02*
X134360000Y-101212164D01*
X118920000Y-91046359D02*
X118920000Y-91353641D01*
X119680000Y-91046359D02*
X119680000Y-91353641D01*
X118740000Y-86427836D02*
X118740000Y-86212164D01*
X119460000Y-86427836D02*
X119460000Y-86212164D01*
D12*
X128670000Y-92860000D02*
X129270000Y-92860000D01*
X128670000Y-95760000D02*
X128670000Y-92860000D01*
X129270000Y-92860000D02*
X129270000Y-95760000D01*
X129270000Y-95760000D02*
X128670000Y-95760000D01*
X130820000Y-95810000D02*
X129620000Y-95810000D01*
D11*
X132315000Y-95606359D02*
X132315000Y-95913641D01*
X133075000Y-95606359D02*
X133075000Y-95913641D01*
X147170000Y-80670000D02*
X148500000Y-80670000D01*
X147170000Y-82000000D02*
X147170000Y-80670000D01*
X147170000Y-83270000D02*
X147170000Y-88410000D01*
X147170000Y-83270000D02*
X149830000Y-83270000D01*
X147170000Y-88410000D02*
X149830000Y-88410000D01*
X149830000Y-83270000D02*
X149830000Y-88410000D01*
X110115000Y-83452164D02*
X110115000Y-83667836D01*
X110835000Y-83452164D02*
X110835000Y-83667836D01*
X100350000Y-80082164D02*
X100350000Y-80297836D01*
X101070000Y-80082164D02*
X101070000Y-80297836D01*
D15*
X101075000Y-82320000D02*
X102125000Y-82320000D01*
X101075000Y-83570000D02*
X102125000Y-83570000D01*
D11*
X131546359Y-98320000D02*
X131853641Y-98320000D01*
X131546359Y-99080000D02*
X131853641Y-99080000D01*
D17*
X137300000Y-89927500D02*
X139280000Y-89927500D01*
X137300000Y-90207500D02*
X137300000Y-89927500D01*
X137300000Y-99927500D02*
X137300000Y-99647500D01*
X138580000Y-99927500D02*
X137300000Y-99927500D01*
X146620000Y-89927500D02*
X148380000Y-89927500D01*
X149820000Y-89927500D02*
X153300000Y-89927500D01*
X153300000Y-89927500D02*
X153300000Y-99927500D01*
X153300000Y-99927500D02*
X149820000Y-99927500D01*
D12*
X149210000Y-89085500D02*
G75*
G02*
X149010000Y-89085500I-100000J0D01*
G01*
X149010000Y-89085500D02*
G75*
G02*
X149210000Y-89085500I100000J0D01*
G01*
D11*
X145420000Y-87946359D02*
X145420000Y-88253641D01*
X146180000Y-87946359D02*
X146180000Y-88253641D01*
X133650000Y-99307836D02*
X133650000Y-99092164D01*
X134370000Y-99307836D02*
X134370000Y-99092164D01*
D12*
X116175000Y-83440000D02*
X116325000Y-83440000D01*
X116175000Y-86360000D02*
X116175000Y-83440000D01*
X116325000Y-83440000D02*
X116325000Y-86360000D01*
X116325000Y-86360000D02*
X116175000Y-86360000D01*
X117925000Y-86400000D02*
X116675000Y-86400000D01*
D11*
X141592164Y-88390000D02*
X141807836Y-88390000D01*
X141592164Y-89110000D02*
X141807836Y-89110000D01*
X120610000Y-99517164D02*
X120610000Y-99732836D01*
X121330000Y-99517164D02*
X121330000Y-99732836D01*
X129840000Y-91633641D02*
X129840000Y-91326359D01*
X130600000Y-91633641D02*
X130600000Y-91326359D01*
X115820000Y-101078641D02*
X115820000Y-100771359D01*
X116580000Y-101078641D02*
X116580000Y-100771359D01*
X112356359Y-87520000D02*
X112663641Y-87520000D01*
X112356359Y-88280000D02*
X112663641Y-88280000D01*
X121046359Y-85420000D02*
X121353641Y-85420000D01*
X121046359Y-86180000D02*
X121353641Y-86180000D01*
X125960000Y-95842836D02*
X125960000Y-95627164D01*
X126680000Y-95842836D02*
X126680000Y-95627164D01*
X108840000Y-99503641D02*
X108840000Y-99196359D01*
X109600000Y-99503641D02*
X109600000Y-99196359D01*
X132440000Y-90627836D02*
X132440000Y-90412164D01*
X133160000Y-90627836D02*
X133160000Y-90412164D01*
D12*
X111570000Y-99350000D02*
X112170000Y-99350000D01*
X111570000Y-102250000D02*
X111570000Y-99350000D01*
X112170000Y-99350000D02*
X112170000Y-102250000D01*
X112170000Y-102250000D02*
X111570000Y-102250000D01*
X113720000Y-102300000D02*
X112520000Y-102300000D01*
D11*
X140643641Y-79220000D02*
X140336359Y-79220000D01*
X140643641Y-79980000D02*
X140336359Y-79980000D01*
X118972164Y-102690000D02*
X119187836Y-102690000D01*
X118972164Y-103410000D02*
X119187836Y-103410000D01*
X114320000Y-103546359D02*
X114320000Y-103853641D01*
X115080000Y-103546359D02*
X115080000Y-103853641D01*
D12*
X144275000Y-78752500D02*
X144425000Y-78752500D01*
X144275000Y-81672500D02*
X144275000Y-78752500D01*
X144425000Y-78752500D02*
X144425000Y-81672500D01*
X144425000Y-81672500D02*
X144275000Y-81672500D01*
X146025000Y-81717500D02*
X144775000Y-81717500D01*
D11*
X117207836Y-97340000D02*
X116992164Y-97340000D01*
X117207836Y-98060000D02*
X116992164Y-98060000D01*
X100296359Y-94245000D02*
X100603641Y-94245000D01*
X100296359Y-95005000D02*
X100603641Y-95005000D01*
X122020000Y-99496359D02*
X122020000Y-99803641D01*
X122780000Y-99496359D02*
X122780000Y-99803641D01*
D13*
X141470000Y-75972500D02*
X141470000Y-75572500D01*
X141670000Y-75772500D02*
X141270000Y-75772500D01*
D11*
X141670000Y-77707500D02*
X143955000Y-77707500D01*
X143955000Y-76237500D02*
X141670000Y-76237500D01*
X143955000Y-77707500D02*
X143955000Y-76237500D01*
X101557836Y-81335000D02*
X101342164Y-81335000D01*
X101557836Y-82055000D02*
X101342164Y-82055000D01*
X138640000Y-88007836D02*
X138640000Y-87792164D01*
X139360000Y-88007836D02*
X139360000Y-87792164D01*
X133820000Y-95908641D02*
X133820000Y-95601359D01*
X134580000Y-95908641D02*
X134580000Y-95601359D01*
X102605000Y-79276359D02*
X102605000Y-79583641D01*
X103365000Y-79276359D02*
X103365000Y-79583641D01*
X100296359Y-93220000D02*
X100603641Y-93220000D01*
X100296359Y-93980000D02*
X100603641Y-93980000D01*
X132440000Y-92892164D02*
X132440000Y-93107836D01*
X133160000Y-92892164D02*
X133160000Y-93107836D01*
D12*
X97260000Y-91360000D02*
G75*
G02*
X97060000Y-91360000I-100000J0D01*
G01*
X97060000Y-91360000D02*
G75*
G02*
X97260000Y-91360000I100000J0D01*
G01*
D11*
X131727836Y-82540000D02*
X131512164Y-82540000D01*
X131727836Y-83260000D02*
X131512164Y-83260000D01*
X117153641Y-91420000D02*
X116846359Y-91420000D01*
X117153641Y-92180000D02*
X116846359Y-92180000D01*
X114320000Y-90946359D02*
X114320000Y-91253641D01*
X115080000Y-90946359D02*
X115080000Y-91253641D01*
X121292164Y-84240000D02*
X121507836Y-84240000D01*
X121292164Y-84960000D02*
X121507836Y-84960000D01*
X131270000Y-95632164D02*
X131270000Y-95847836D01*
X131990000Y-95632164D02*
X131990000Y-95847836D01*
D12*
X117150000Y-100100000D02*
X120050000Y-100100000D01*
X117150000Y-100700000D02*
X117150000Y-100100000D01*
X120050000Y-100100000D02*
X120050000Y-100700000D01*
X120050000Y-100700000D02*
X117150000Y-100700000D01*
X120100000Y-98550000D02*
X120100000Y-99750000D01*
D11*
X134910000Y-95842836D02*
X134910000Y-95627164D01*
X135630000Y-95842836D02*
X135630000Y-95627164D01*
X109977836Y-81060000D02*
X109762164Y-81060000D01*
X109977836Y-81780000D02*
X109762164Y-81780000D01*
X108553641Y-103620000D02*
X108246359Y-103620000D01*
X108553641Y-104380000D02*
X108246359Y-104380000D01*
M02*
