%TF.GenerationSoftware,KiCad,Pcbnew,8.0.2-1*%
%TF.CreationDate,2024-12-04T10:13:36+09:00*%
%TF.ProjectId,gas_nrf52832,6761735f-6e72-4663-9532-3833322e6b69,rev?*%
%TF.SameCoordinates,Original*%
%TF.FileFunction,OtherDrawing,Comment*%
%FSLAX46Y46*%
G04 Gerber Fmt 4.6, Leading zero omitted, Abs format (unit mm)*
G04 Created by KiCad (PCBNEW 8.0.2-1) date 2024-12-04 10:13:36*
%MOMM*%
%LPD*%
G01*
G04 APERTURE LIST*
%ADD10C,0.010000*%
%ADD11C,0.100000*%
%ADD12C,0.050000*%
G04 APERTURE END LIST*
D10*
X109900100Y-89290434D02*
X108899177Y-89290434D01*
X108899177Y-88690000D01*
X109900100Y-88690000D01*
X109900100Y-89290434D01*
G36*
X109900100Y-89290434D02*
G01*
X108899177Y-89290434D01*
X108899177Y-88690000D01*
X109900100Y-88690000D01*
X109900100Y-89290434D01*
G37*
D11*
X114210000Y-81335000D02*
X115610000Y-81335000D01*
X114210000Y-82085000D02*
X114210000Y-81335000D01*
X115610000Y-81335000D02*
X115610000Y-82085000D01*
X115610000Y-82085000D02*
X114210000Y-82085000D01*
D12*
X103625000Y-78295000D02*
X108875000Y-78295000D01*
X103625000Y-83545000D02*
X103625000Y-78295000D01*
D11*
X104250000Y-78920000D02*
X108250000Y-78920000D01*
X104250000Y-82920000D02*
X104250000Y-78920000D01*
X108250000Y-78920000D02*
X108250000Y-82920000D01*
X108250000Y-82420000D02*
X107750000Y-82920000D01*
X108250000Y-82920000D02*
X104250000Y-82920000D01*
D12*
X108875000Y-78295000D02*
X108875000Y-83545000D01*
X108875000Y-83545000D02*
X103625000Y-83545000D01*
X126870000Y-92535000D02*
X131070000Y-92535000D01*
X126870000Y-96085000D02*
X126870000Y-92535000D01*
D11*
X128170000Y-92860000D02*
X129770000Y-92860000D01*
X128170000Y-95760000D02*
X128170000Y-92860000D01*
X129770000Y-92860000D02*
X129770000Y-95760000D01*
X129770000Y-94810000D02*
X128820000Y-95760000D01*
X129770000Y-95760000D02*
X128170000Y-95760000D01*
D12*
X131070000Y-92535000D02*
X131070000Y-96085000D01*
X131070000Y-96085000D02*
X126870000Y-96085000D01*
D11*
X100900000Y-82570000D02*
X102300000Y-82570000D01*
X100900000Y-83320000D02*
X100900000Y-82570000D01*
X102300000Y-82570000D02*
X102300000Y-83320000D01*
X102300000Y-83320000D02*
X100900000Y-83320000D01*
D12*
X114325000Y-83130000D02*
X118175000Y-83130000D01*
X114325000Y-86670000D02*
X114325000Y-83130000D01*
D11*
X115600000Y-83440000D02*
X116900000Y-83440000D01*
X115600000Y-86360000D02*
X115600000Y-83440000D01*
X116900000Y-83440000D02*
X116900000Y-86360000D01*
X116900000Y-85410000D02*
X115950000Y-86360000D01*
X116900000Y-86360000D02*
X115600000Y-86360000D01*
D12*
X118175000Y-83130000D02*
X118175000Y-86670000D01*
X118175000Y-86670000D02*
X114325000Y-86670000D01*
X109770000Y-99025000D02*
X113970000Y-99025000D01*
X109770000Y-102575000D02*
X109770000Y-99025000D01*
D11*
X111070000Y-99350000D02*
X112670000Y-99350000D01*
X111070000Y-102250000D02*
X111070000Y-99350000D01*
X112670000Y-99350000D02*
X112670000Y-102250000D01*
X112670000Y-101300000D02*
X111720000Y-102250000D01*
X112670000Y-102250000D02*
X111070000Y-102250000D01*
D12*
X113970000Y-99025000D02*
X113970000Y-102575000D01*
X113970000Y-102575000D02*
X109770000Y-102575000D01*
X116825000Y-98300000D02*
X120375000Y-98300000D01*
X116825000Y-102500000D02*
X116825000Y-98300000D01*
D11*
X117150000Y-99600000D02*
X120050000Y-99600000D01*
X117150000Y-101200000D02*
X117150000Y-99600000D01*
X119100000Y-99600000D02*
X120050000Y-100550000D01*
X120050000Y-99600000D02*
X120050000Y-101200000D01*
X120050000Y-101200000D02*
X117150000Y-101200000D01*
D12*
X120375000Y-98300000D02*
X120375000Y-102500000D01*
X120375000Y-102500000D02*
X116825000Y-102500000D01*
M02*
