%TF.GenerationSoftware,KiCad,Pcbnew,8.0.2-1*%
%TF.CreationDate,2024-12-04T10:13:36+09:00*%
%TF.ProjectId,gas_nrf52832,6761735f-6e72-4663-9532-3833322e6b69,rev?*%
%TF.SameCoordinates,Original*%
%TF.FileFunction,Other,User*%
%FSLAX46Y46*%
G04 Gerber Fmt 4.6, Leading zero omitted, Abs format (unit mm)*
G04 Created by KiCad (PCBNEW 8.0.2-1) date 2024-12-04 10:13:36*
%MOMM*%
%LPD*%
G01*
G04 APERTURE LIST*
%ADD10C,0.050000*%
G04 APERTURE END LIST*
D10*
X143355000Y-86345000D02*
X144295000Y-86345000D01*
X143355000Y-88205000D02*
X143355000Y-86345000D01*
X144295000Y-86345000D02*
X144295000Y-88205000D01*
X144295000Y-88205000D02*
X143355000Y-88205000D01*
X120455000Y-89230000D02*
X122315000Y-89230000D01*
X120455000Y-90170000D02*
X120455000Y-89230000D01*
X122315000Y-89230000D02*
X122315000Y-90170000D01*
X122315000Y-90170000D02*
X120455000Y-90170000D01*
X127565000Y-96190000D02*
X129425000Y-96190000D01*
X127565000Y-97130000D02*
X127565000Y-96190000D01*
X129425000Y-96190000D02*
X129425000Y-97130000D01*
X129425000Y-97130000D02*
X127565000Y-97130000D01*
X106350000Y-83645000D02*
X109750000Y-83645000D01*
X106350000Y-85945000D02*
X106350000Y-83645000D01*
X109750000Y-83645000D02*
X109750000Y-85945000D01*
X109750000Y-85945000D02*
X106350000Y-85945000D01*
X108760000Y-100365000D02*
X109680000Y-100365000D01*
X108760000Y-102185000D02*
X108760000Y-100365000D01*
X109680000Y-100365000D02*
X109680000Y-102185000D01*
X109680000Y-102185000D02*
X108760000Y-102185000D01*
X115870000Y-87030000D02*
X117730000Y-87030000D01*
X115870000Y-87970000D02*
X115870000Y-87030000D01*
X117730000Y-87030000D02*
X117730000Y-87970000D01*
X117730000Y-87970000D02*
X115870000Y-87970000D01*
X137540000Y-76242500D02*
X140500000Y-76242500D01*
X137540000Y-77702500D02*
X137540000Y-76242500D01*
X140500000Y-76242500D02*
X140500000Y-77702500D01*
X140500000Y-77702500D02*
X137540000Y-77702500D01*
X112670000Y-97730000D02*
X114530000Y-97730000D01*
X112670000Y-98670000D02*
X112670000Y-97730000D01*
X114530000Y-97730000D02*
X114530000Y-98670000D01*
X114530000Y-98670000D02*
X112670000Y-98670000D01*
X130710000Y-83640000D02*
X132530000Y-83640000D01*
X130710000Y-84560000D02*
X130710000Y-83640000D01*
X132530000Y-83640000D02*
X132530000Y-84560000D01*
X132530000Y-84560000D02*
X130710000Y-84560000D01*
X120220000Y-87370000D02*
X123180000Y-87370000D01*
X120220000Y-88830000D02*
X120220000Y-87370000D01*
X123180000Y-87370000D02*
X123180000Y-88830000D01*
X123180000Y-88830000D02*
X120220000Y-88830000D01*
X96530000Y-78190000D02*
X96530000Y-81790000D01*
X96530000Y-81790000D02*
X99630000Y-81790000D01*
X99630000Y-78190000D02*
X96530000Y-78190000D01*
X99630000Y-81790000D02*
X99630000Y-78190000D01*
X144500000Y-101375000D02*
X144500000Y-110025000D01*
X144500000Y-110025000D02*
X148100000Y-110025000D01*
X148100000Y-101375000D02*
X144500000Y-101375000D01*
X148100000Y-110025000D02*
X148100000Y-101375000D01*
X133900000Y-89750000D02*
X136200000Y-89750000D01*
X133900000Y-93750000D02*
X133900000Y-89750000D01*
X133900000Y-93750000D02*
X136200000Y-93750000D01*
X136200000Y-93750000D02*
X136200000Y-89750000D01*
X143365000Y-88340000D02*
X145185000Y-88340000D01*
X143365000Y-89260000D02*
X143365000Y-88340000D01*
X145185000Y-88340000D02*
X145185000Y-89260000D01*
X145185000Y-89260000D02*
X143365000Y-89260000D01*
X110570000Y-97740000D02*
X112390000Y-97740000D01*
X110570000Y-98660000D02*
X110570000Y-97740000D01*
X112390000Y-97740000D02*
X112390000Y-98660000D01*
X112390000Y-98660000D02*
X110570000Y-98660000D01*
X94050000Y-78000000D02*
G75*
G02*
X89750000Y-78000000I-2150000J0D01*
G01*
X89750000Y-78000000D02*
G75*
G02*
X94050000Y-78000000I2150000J0D01*
G01*
X94050000Y-108000000D02*
G75*
G02*
X89750000Y-108000000I-2150000J0D01*
G01*
X89750000Y-108000000D02*
G75*
G02*
X94050000Y-108000000I2150000J0D01*
G01*
X153050000Y-78000000D02*
G75*
G02*
X148750000Y-78000000I-2150000J0D01*
G01*
X148750000Y-78000000D02*
G75*
G02*
X153050000Y-78000000I2150000J0D01*
G01*
X153050000Y-108000000D02*
G75*
G02*
X148750000Y-108000000I-2150000J0D01*
G01*
X148750000Y-108000000D02*
G75*
G02*
X153050000Y-108000000I2150000J0D01*
G01*
X111735000Y-102665000D02*
X113555000Y-102665000D01*
X111735000Y-103585000D02*
X111735000Y-102665000D01*
X113555000Y-102665000D02*
X113555000Y-103585000D01*
X113555000Y-103585000D02*
X111735000Y-103585000D01*
X102490000Y-82505000D02*
X103410000Y-82505000D01*
X102490000Y-84325000D02*
X102490000Y-82505000D01*
X103410000Y-82505000D02*
X103410000Y-84325000D01*
X103410000Y-84325000D02*
X102490000Y-84325000D01*
X115645000Y-88570000D02*
X118605000Y-88570000D01*
X115645000Y-90030000D02*
X115645000Y-88570000D01*
X118605000Y-88570000D02*
X118605000Y-90030000D01*
X118605000Y-90030000D02*
X115645000Y-90030000D01*
X99715000Y-82505000D02*
X100635000Y-82505000D01*
X99715000Y-84325000D02*
X99715000Y-82505000D01*
X100635000Y-82505000D02*
X100635000Y-84325000D01*
X100635000Y-84325000D02*
X99715000Y-84325000D01*
X139670000Y-85170000D02*
X141130000Y-85170000D01*
X139670000Y-88130000D02*
X139670000Y-85170000D01*
X141130000Y-85170000D02*
X141130000Y-88130000D01*
X141130000Y-88130000D02*
X139670000Y-88130000D01*
X133540000Y-100410000D02*
X134460000Y-100410000D01*
X133540000Y-102230000D02*
X133540000Y-100410000D01*
X134460000Y-100410000D02*
X134460000Y-102230000D01*
X134460000Y-102230000D02*
X133540000Y-102230000D01*
X118830000Y-90270000D02*
X119770000Y-90270000D01*
X118830000Y-92130000D02*
X118830000Y-90270000D01*
X119770000Y-90270000D02*
X119770000Y-92130000D01*
X119770000Y-92130000D02*
X118830000Y-92130000D01*
X118640000Y-85410000D02*
X119560000Y-85410000D01*
X118640000Y-87230000D02*
X118640000Y-85410000D01*
X119560000Y-85410000D02*
X119560000Y-87230000D01*
X119560000Y-87230000D02*
X118640000Y-87230000D01*
X132225000Y-94830000D02*
X133165000Y-94830000D01*
X132225000Y-96690000D02*
X132225000Y-94830000D01*
X133165000Y-94830000D02*
X133165000Y-96690000D01*
X133165000Y-96690000D02*
X132225000Y-96690000D01*
X146700000Y-80200000D02*
X146700000Y-88850000D01*
X146700000Y-88850000D02*
X150300000Y-88850000D01*
X150300000Y-80200000D02*
X146700000Y-80200000D01*
X150300000Y-88850000D02*
X150300000Y-80200000D01*
X110015000Y-82650000D02*
X110935000Y-82650000D01*
X110015000Y-84470000D02*
X110015000Y-82650000D01*
X110935000Y-82650000D02*
X110935000Y-84470000D01*
X110935000Y-84470000D02*
X110015000Y-84470000D01*
X100250000Y-79280000D02*
X101170000Y-79280000D01*
X100250000Y-81100000D02*
X100250000Y-79280000D01*
X101170000Y-79280000D02*
X101170000Y-81100000D01*
X101170000Y-81100000D02*
X100250000Y-81100000D01*
X130770000Y-98230000D02*
X132630000Y-98230000D01*
X130770000Y-99170000D02*
X130770000Y-98230000D01*
X132630000Y-98230000D02*
X132630000Y-99170000D01*
X132630000Y-99170000D02*
X130770000Y-99170000D01*
X141280000Y-86220000D02*
X142220000Y-86220000D01*
X141280000Y-88080000D02*
X141280000Y-86220000D01*
X142220000Y-86220000D02*
X142220000Y-88080000D01*
X142220000Y-88080000D02*
X141280000Y-88080000D01*
X136750000Y-89377500D02*
X136750000Y-100477500D01*
X136750000Y-100477500D02*
X153550000Y-100477500D01*
X153550000Y-89377500D02*
X136750000Y-89377500D01*
X153550000Y-100477500D02*
X153550000Y-89377500D01*
X145330000Y-87170000D02*
X146270000Y-87170000D01*
X145330000Y-89030000D02*
X145330000Y-87170000D01*
X146270000Y-87170000D02*
X146270000Y-89030000D01*
X146270000Y-89030000D02*
X145330000Y-89030000D01*
X133550000Y-98290000D02*
X134470000Y-98290000D01*
X133550000Y-100110000D02*
X133550000Y-98290000D01*
X134470000Y-98290000D02*
X134470000Y-100110000D01*
X134470000Y-100110000D02*
X133550000Y-100110000D01*
X140790000Y-88290000D02*
X142610000Y-88290000D01*
X140790000Y-89210000D02*
X140790000Y-88290000D01*
X142610000Y-88290000D02*
X142610000Y-89210000D01*
X142610000Y-89210000D02*
X140790000Y-89210000D01*
X120510000Y-98715000D02*
X121430000Y-98715000D01*
X120510000Y-100535000D02*
X120510000Y-98715000D01*
X121430000Y-98715000D02*
X121430000Y-100535000D01*
X121430000Y-100535000D02*
X120510000Y-100535000D01*
X129750000Y-90550000D02*
X130690000Y-90550000D01*
X129750000Y-92410000D02*
X129750000Y-90550000D01*
X130690000Y-90550000D02*
X130690000Y-92410000D01*
X130690000Y-92410000D02*
X129750000Y-92410000D01*
X115730000Y-99995000D02*
X116670000Y-99995000D01*
X115730000Y-101855000D02*
X115730000Y-99995000D01*
X116670000Y-99995000D02*
X116670000Y-101855000D01*
X116670000Y-101855000D02*
X115730000Y-101855000D01*
X111580000Y-87430000D02*
X113440000Y-87430000D01*
X111580000Y-88370000D02*
X111580000Y-87430000D01*
X113440000Y-87430000D02*
X113440000Y-88370000D01*
X113440000Y-88370000D02*
X111580000Y-88370000D01*
X120270000Y-85330000D02*
X122130000Y-85330000D01*
X120270000Y-86270000D02*
X120270000Y-85330000D01*
X122130000Y-85330000D02*
X122130000Y-86270000D01*
X122130000Y-86270000D02*
X120270000Y-86270000D01*
X125860000Y-94825000D02*
X126780000Y-94825000D01*
X125860000Y-96645000D02*
X125860000Y-94825000D01*
X126780000Y-94825000D02*
X126780000Y-96645000D01*
X126780000Y-96645000D02*
X125860000Y-96645000D01*
X108750000Y-98420000D02*
X109690000Y-98420000D01*
X108750000Y-100280000D02*
X108750000Y-98420000D01*
X109690000Y-98420000D02*
X109690000Y-100280000D01*
X109690000Y-100280000D02*
X108750000Y-100280000D01*
X132340000Y-89610000D02*
X133260000Y-89610000D01*
X132340000Y-91430000D02*
X132340000Y-89610000D01*
X133260000Y-89610000D02*
X133260000Y-91430000D01*
X133260000Y-91430000D02*
X132340000Y-91430000D01*
X139560000Y-79130000D02*
X141420000Y-79130000D01*
X139560000Y-80070000D02*
X139560000Y-79130000D01*
X141420000Y-79130000D02*
X141420000Y-80070000D01*
X141420000Y-80070000D02*
X139560000Y-80070000D01*
X118170000Y-102590000D02*
X119990000Y-102590000D01*
X118170000Y-103510000D02*
X118170000Y-102590000D01*
X119990000Y-102590000D02*
X119990000Y-103510000D01*
X119990000Y-103510000D02*
X118170000Y-103510000D01*
X114230000Y-102770000D02*
X115170000Y-102770000D01*
X114230000Y-104630000D02*
X114230000Y-102770000D01*
X115170000Y-102770000D02*
X115170000Y-104630000D01*
X115170000Y-104630000D02*
X114230000Y-104630000D01*
X142425000Y-78442500D02*
X146275000Y-78442500D01*
X142425000Y-81982500D02*
X142425000Y-78442500D01*
X146275000Y-78442500D02*
X146275000Y-81982500D01*
X146275000Y-81982500D02*
X142425000Y-81982500D01*
X116190000Y-97240000D02*
X118010000Y-97240000D01*
X116190000Y-98160000D02*
X116190000Y-97240000D01*
X118010000Y-97240000D02*
X118010000Y-98160000D01*
X118010000Y-98160000D02*
X116190000Y-98160000D01*
X99520000Y-94155000D02*
X101380000Y-94155000D01*
X99520000Y-95095000D02*
X99520000Y-94155000D01*
X101380000Y-94155000D02*
X101380000Y-95095000D01*
X101380000Y-95095000D02*
X99520000Y-95095000D01*
X121930000Y-98720000D02*
X122870000Y-98720000D01*
X121930000Y-100580000D02*
X121930000Y-98720000D01*
X122870000Y-98720000D02*
X122870000Y-100580000D01*
X122870000Y-100580000D02*
X121930000Y-100580000D01*
X140990000Y-76242500D02*
X143950000Y-76242500D01*
X140990000Y-77702500D02*
X140990000Y-76242500D01*
X143950000Y-76242500D02*
X143950000Y-77702500D01*
X143950000Y-77702500D02*
X140990000Y-77702500D01*
X100540000Y-81235000D02*
X102360000Y-81235000D01*
X100540000Y-82155000D02*
X100540000Y-81235000D01*
X102360000Y-81235000D02*
X102360000Y-82155000D01*
X102360000Y-82155000D02*
X100540000Y-82155000D01*
X138540000Y-86990000D02*
X139460000Y-86990000D01*
X138540000Y-88810000D02*
X138540000Y-86990000D01*
X139460000Y-86990000D02*
X139460000Y-88810000D01*
X139460000Y-88810000D02*
X138540000Y-88810000D01*
X133730000Y-94825000D02*
X134670000Y-94825000D01*
X133730000Y-96685000D02*
X133730000Y-94825000D01*
X134670000Y-94825000D02*
X134670000Y-96685000D01*
X134670000Y-96685000D02*
X133730000Y-96685000D01*
X102515000Y-78500000D02*
X103455000Y-78500000D01*
X102515000Y-80360000D02*
X102515000Y-78500000D01*
X103455000Y-78500000D02*
X103455000Y-80360000D01*
X103455000Y-80360000D02*
X102515000Y-80360000D01*
X99520000Y-93130000D02*
X101380000Y-93130000D01*
X99520000Y-94070000D02*
X99520000Y-93130000D01*
X101380000Y-93130000D02*
X101380000Y-94070000D01*
X101380000Y-94070000D02*
X99520000Y-94070000D01*
X132340000Y-92090000D02*
X133260000Y-92090000D01*
X132340000Y-93910000D02*
X132340000Y-92090000D01*
X133260000Y-92090000D02*
X133260000Y-93910000D01*
X133260000Y-93910000D02*
X132340000Y-93910000D01*
X88300000Y-87690000D02*
X88300000Y-100530000D01*
X88300000Y-100530000D02*
X96750000Y-100530000D01*
X96750000Y-87690000D02*
X88300000Y-87690000D01*
X96750000Y-100530000D02*
X96750000Y-87690000D01*
X130710000Y-82440000D02*
X132530000Y-82440000D01*
X130710000Y-83360000D02*
X130710000Y-82440000D01*
X132530000Y-82440000D02*
X132530000Y-83360000D01*
X132530000Y-83360000D02*
X130710000Y-83360000D01*
X116070000Y-91330000D02*
X117930000Y-91330000D01*
X116070000Y-92270000D02*
X116070000Y-91330000D01*
X117930000Y-91330000D02*
X117930000Y-92270000D01*
X117930000Y-92270000D02*
X116070000Y-92270000D01*
X114230000Y-90170000D02*
X115170000Y-90170000D01*
X114230000Y-92030000D02*
X114230000Y-90170000D01*
X115170000Y-90170000D02*
X115170000Y-92030000D01*
X115170000Y-92030000D02*
X114230000Y-92030000D01*
X120490000Y-84140000D02*
X122310000Y-84140000D01*
X120490000Y-85060000D02*
X120490000Y-84140000D01*
X122310000Y-84140000D02*
X122310000Y-85060000D01*
X122310000Y-85060000D02*
X120490000Y-85060000D01*
X131170000Y-94830000D02*
X132090000Y-94830000D01*
X131170000Y-96650000D02*
X131170000Y-94830000D01*
X132090000Y-94830000D02*
X132090000Y-96650000D01*
X132090000Y-96650000D02*
X131170000Y-96650000D01*
X134810000Y-94825000D02*
X135730000Y-94825000D01*
X134810000Y-96645000D02*
X134810000Y-94825000D01*
X135730000Y-94825000D02*
X135730000Y-96645000D01*
X135730000Y-96645000D02*
X134810000Y-96645000D01*
X108960000Y-80960000D02*
X110780000Y-80960000D01*
X108960000Y-81880000D02*
X108960000Y-80960000D01*
X110780000Y-80960000D02*
X110780000Y-81880000D01*
X110780000Y-81880000D02*
X108960000Y-81880000D01*
X107470000Y-103530000D02*
X109330000Y-103530000D01*
X107470000Y-104470000D02*
X107470000Y-103530000D01*
X109330000Y-103530000D02*
X109330000Y-104470000D01*
X109330000Y-104470000D02*
X107470000Y-104470000D01*
M02*
