%TF.GenerationSoftware,KiCad,Pcbnew,8.0.2-1*%
%TF.CreationDate,2025-01-23T13:43:47+09:00*%
%TF.ProjectId,gas_nrf52832,6761735f-6e72-4663-9532-3833322e6b69,rev?*%
%TF.SameCoordinates,Original*%
%TF.FileFunction,Other,User*%
%FSLAX46Y46*%
G04 Gerber Fmt 4.6, Leading zero omitted, Abs format (unit mm)*
G04 Created by KiCad (PCBNEW 8.0.2-1) date 2025-01-23 13:43:47*
%MOMM*%
%LPD*%
G01*
G04 APERTURE LIST*
%ADD10C,0.050000*%
%ADD11C,0.100000*%
G04 APERTURE END LIST*
D10*
X155190000Y-111140000D02*
X156130000Y-111140000D01*
X155190000Y-113000000D02*
X155190000Y-111140000D01*
X156130000Y-111140000D02*
X156130000Y-113000000D01*
X156130000Y-113000000D02*
X155190000Y-113000000D01*
X115650000Y-112835000D02*
X116590000Y-112835000D01*
X115650000Y-114695000D02*
X115650000Y-112835000D01*
X116590000Y-112835000D02*
X116590000Y-114695000D01*
X116590000Y-114695000D02*
X115650000Y-114695000D01*
X141070000Y-120955000D02*
X142010000Y-120955000D01*
X141070000Y-122815000D02*
X141070000Y-120955000D01*
X142010000Y-120955000D02*
X142010000Y-122815000D01*
X142010000Y-122815000D02*
X141070000Y-122815000D01*
X112355000Y-103345000D02*
X114655000Y-103345000D01*
X112355000Y-106745000D02*
X112355000Y-103345000D01*
X114655000Y-103345000D02*
X114655000Y-106745000D01*
X114655000Y-106745000D02*
X112355000Y-106745000D01*
X118420000Y-132075000D02*
X119340000Y-132075000D01*
X118420000Y-133895000D02*
X118420000Y-132075000D01*
X119340000Y-132075000D02*
X119340000Y-133895000D01*
X119340000Y-133895000D02*
X118420000Y-133895000D01*
X118640000Y-114900000D02*
X120500000Y-114900000D01*
X118640000Y-115840000D02*
X118640000Y-114900000D01*
X120500000Y-114900000D02*
X120500000Y-115840000D01*
X120500000Y-115840000D02*
X118640000Y-115840000D01*
D11*
X125420000Y-99300000D02*
X133320000Y-99300000D01*
X125420000Y-114800000D02*
X125420000Y-99300000D01*
X133320000Y-99300000D02*
X133320000Y-114800000D01*
X133320000Y-114800000D02*
X125420000Y-114800000D01*
D10*
X122330000Y-129440000D02*
X124190000Y-129440000D01*
X122330000Y-130380000D02*
X122330000Y-129440000D01*
X124190000Y-129440000D02*
X124190000Y-130380000D01*
X124190000Y-130380000D02*
X122330000Y-130380000D01*
X113960000Y-106870000D02*
X114880000Y-106870000D01*
X113960000Y-108690000D02*
X113960000Y-106870000D01*
X114880000Y-106870000D02*
X114880000Y-108690000D01*
X114880000Y-108690000D02*
X113960000Y-108690000D01*
X113850000Y-111735000D02*
X115310000Y-111735000D01*
X113850000Y-114695000D02*
X113850000Y-111735000D01*
X115310000Y-111735000D02*
X115310000Y-114695000D01*
X115310000Y-114695000D02*
X113850000Y-114695000D01*
X103310000Y-107810000D02*
X103310000Y-111410000D01*
X103310000Y-111410000D02*
X106410000Y-111410000D01*
X106410000Y-107810000D02*
X103310000Y-107810000D01*
X106410000Y-111410000D02*
X106410000Y-107810000D01*
X158910000Y-127760000D02*
X158910000Y-136410000D01*
X158910000Y-136410000D02*
X162510000Y-136410000D01*
X162510000Y-127760000D02*
X158910000Y-127760000D01*
X162510000Y-136410000D02*
X162510000Y-127760000D01*
X146600000Y-115802500D02*
X148900000Y-115802500D01*
X146600000Y-119802500D02*
X146600000Y-115802500D01*
X146600000Y-119802500D02*
X148900000Y-119802500D01*
X148900000Y-119802500D02*
X148900000Y-115802500D01*
X155200000Y-113135000D02*
X157020000Y-113135000D01*
X155200000Y-114055000D02*
X155200000Y-113135000D01*
X157020000Y-113135000D02*
X157020000Y-114055000D01*
X157020000Y-114055000D02*
X155200000Y-114055000D01*
X120230000Y-129450000D02*
X122050000Y-129450000D01*
X120230000Y-130370000D02*
X120230000Y-129450000D01*
X122050000Y-129450000D02*
X122050000Y-130370000D01*
X122050000Y-130370000D02*
X120230000Y-130370000D01*
X105150000Y-102500000D02*
G75*
G02*
X100850000Y-102500000I-2150000J0D01*
G01*
X100850000Y-102500000D02*
G75*
G02*
X105150000Y-102500000I2150000J0D01*
G01*
X105150000Y-139500000D02*
G75*
G02*
X100850000Y-139500000I-2150000J0D01*
G01*
X100850000Y-139500000D02*
G75*
G02*
X105150000Y-139500000I2150000J0D01*
G01*
X165150000Y-102500000D02*
G75*
G02*
X160850000Y-102500000I-2150000J0D01*
G01*
X160850000Y-102500000D02*
G75*
G02*
X165150000Y-102500000I2150000J0D01*
G01*
X165150000Y-139500000D02*
G75*
G02*
X160850000Y-139500000I-2150000J0D01*
G01*
X160850000Y-139500000D02*
G75*
G02*
X165150000Y-139500000I2150000J0D01*
G01*
X121395000Y-134375000D02*
X123215000Y-134375000D01*
X121395000Y-135295000D02*
X121395000Y-134375000D01*
X123215000Y-134375000D02*
X123215000Y-135295000D01*
X123215000Y-135295000D02*
X121395000Y-135295000D01*
X111215000Y-112460000D02*
X113035000Y-112460000D01*
X111215000Y-113380000D02*
X111215000Y-112460000D01*
X113035000Y-112460000D02*
X113035000Y-113380000D01*
X113035000Y-113380000D02*
X111215000Y-113380000D01*
X118410000Y-116040000D02*
X121370000Y-116040000D01*
X118410000Y-117500000D02*
X118410000Y-116040000D01*
X121370000Y-116040000D02*
X121370000Y-117500000D01*
X121370000Y-117500000D02*
X118410000Y-117500000D01*
X111215000Y-109685000D02*
X113035000Y-109685000D01*
X111215000Y-110605000D02*
X111215000Y-109685000D01*
X113035000Y-109685000D02*
X113035000Y-110605000D01*
X113035000Y-110605000D02*
X111215000Y-110605000D01*
X150900000Y-110722500D02*
X152360000Y-110722500D01*
X150900000Y-113682500D02*
X150900000Y-110722500D01*
X152360000Y-110722500D02*
X152360000Y-113682500D01*
X152360000Y-113682500D02*
X150900000Y-113682500D01*
X125160000Y-134500000D02*
X126080000Y-134500000D01*
X125160000Y-136320000D02*
X125160000Y-134500000D01*
X126080000Y-134500000D02*
X126080000Y-136320000D01*
X126080000Y-136320000D02*
X125160000Y-136320000D01*
X114680000Y-115000000D02*
X116540000Y-115000000D01*
X114680000Y-115940000D02*
X114680000Y-115000000D01*
X116540000Y-115000000D02*
X116540000Y-115940000D01*
X116540000Y-115940000D02*
X114680000Y-115940000D01*
X121040000Y-110350000D02*
X121960000Y-110350000D01*
X121040000Y-112170000D02*
X121040000Y-110350000D01*
X121960000Y-110350000D02*
X121960000Y-112170000D01*
X121960000Y-112170000D02*
X121040000Y-112170000D01*
X143260000Y-120960000D02*
X144200000Y-120960000D01*
X143260000Y-122820000D02*
X143260000Y-120960000D01*
X144200000Y-120960000D02*
X144200000Y-122820000D01*
X144200000Y-122820000D02*
X143260000Y-122820000D01*
X158530000Y-105230000D02*
X158530000Y-113880000D01*
X158530000Y-113880000D02*
X162130000Y-113880000D01*
X162130000Y-105230000D02*
X158530000Y-105230000D01*
X162130000Y-113880000D02*
X162130000Y-105230000D01*
X111360000Y-102160000D02*
X113180000Y-102160000D01*
X111360000Y-103080000D02*
X111360000Y-102160000D01*
X113180000Y-102160000D02*
X113180000Y-103080000D01*
X113180000Y-103080000D02*
X111360000Y-103080000D01*
X107960000Y-111310000D02*
X108880000Y-111310000D01*
X107960000Y-113130000D02*
X107960000Y-111310000D01*
X108880000Y-111310000D02*
X108880000Y-113130000D01*
X108880000Y-113130000D02*
X107960000Y-113130000D01*
X143230000Y-128900000D02*
X145090000Y-128900000D01*
X143230000Y-129840000D02*
X143230000Y-128900000D01*
X145090000Y-128900000D02*
X145090000Y-129840000D01*
X145090000Y-129840000D02*
X143230000Y-129840000D01*
X152530000Y-110732500D02*
X153470000Y-110732500D01*
X152530000Y-112592500D02*
X152530000Y-110732500D01*
X153470000Y-110732500D02*
X153470000Y-112592500D01*
X153470000Y-112592500D02*
X152530000Y-112592500D01*
X149450000Y-115430000D02*
X149450000Y-126530000D01*
X149450000Y-126530000D02*
X166250000Y-126530000D01*
X166250000Y-115430000D02*
X149450000Y-115430000D01*
X166250000Y-126530000D02*
X166250000Y-115430000D01*
X157165000Y-111965000D02*
X158105000Y-111965000D01*
X157165000Y-113825000D02*
X157165000Y-111965000D01*
X158105000Y-111965000D02*
X158105000Y-113825000D01*
X158105000Y-113825000D02*
X157165000Y-113825000D01*
X146010000Y-128960000D02*
X146930000Y-128960000D01*
X146010000Y-130780000D02*
X146010000Y-128960000D01*
X146930000Y-128960000D02*
X146930000Y-130780000D01*
X146930000Y-130780000D02*
X146010000Y-130780000D01*
X116775000Y-100950000D02*
X116775000Y-109750000D01*
X116775000Y-109750000D02*
X126225000Y-109750000D01*
X126225000Y-100950000D02*
X116775000Y-100950000D01*
X126225000Y-109750000D02*
X126225000Y-100950000D01*
X152510000Y-112800000D02*
X154330000Y-112800000D01*
X152510000Y-113720000D02*
X152510000Y-112800000D01*
X154330000Y-112800000D02*
X154330000Y-113720000D01*
X154330000Y-113720000D02*
X152510000Y-113720000D01*
X135390000Y-131505000D02*
X136310000Y-131505000D01*
X135390000Y-133325000D02*
X135390000Y-131505000D01*
X136310000Y-131505000D02*
X136310000Y-133325000D01*
X136310000Y-133325000D02*
X135390000Y-133325000D01*
X135430000Y-119690000D02*
X137290000Y-119690000D01*
X135430000Y-120630000D02*
X135430000Y-119690000D01*
X137290000Y-119690000D02*
X137290000Y-120630000D01*
X137290000Y-120630000D02*
X135430000Y-120630000D01*
X130610000Y-132785000D02*
X131550000Y-132785000D01*
X130610000Y-134645000D02*
X130610000Y-132785000D01*
X131550000Y-132785000D02*
X131550000Y-134645000D01*
X131550000Y-134645000D02*
X130610000Y-134645000D01*
X128100000Y-120320000D02*
X129960000Y-120320000D01*
X128100000Y-121260000D02*
X128100000Y-120320000D01*
X129960000Y-120320000D02*
X129960000Y-121260000D01*
X129960000Y-121260000D02*
X128100000Y-121260000D01*
X122510000Y-111280000D02*
X124370000Y-111280000D01*
X122510000Y-112220000D02*
X122510000Y-111280000D01*
X124370000Y-111280000D02*
X124370000Y-112220000D01*
X124370000Y-112220000D02*
X122510000Y-112220000D01*
X139705000Y-123600000D02*
X141525000Y-123600000D01*
X139705000Y-124520000D02*
X139705000Y-123600000D01*
X141525000Y-123600000D02*
X141525000Y-124520000D01*
X141525000Y-124520000D02*
X139705000Y-124520000D01*
X118410000Y-130130000D02*
X119350000Y-130130000D01*
X118410000Y-131990000D02*
X118410000Y-130130000D01*
X119350000Y-130130000D02*
X119350000Y-131990000D01*
X119350000Y-131990000D02*
X118410000Y-131990000D01*
X145040000Y-115662500D02*
X145960000Y-115662500D01*
X145040000Y-117482500D02*
X145040000Y-115662500D01*
X145960000Y-115662500D02*
X145960000Y-117482500D01*
X145960000Y-117482500D02*
X145040000Y-117482500D01*
X141720000Y-108370000D02*
X143580000Y-108370000D01*
X141720000Y-109310000D02*
X141720000Y-108370000D01*
X143580000Y-108370000D02*
X143580000Y-109310000D01*
X143580000Y-109310000D02*
X141720000Y-109310000D01*
X133050000Y-135380000D02*
X134870000Y-135380000D01*
X133050000Y-136300000D02*
X133050000Y-135380000D01*
X134870000Y-135380000D02*
X134870000Y-136300000D01*
X134870000Y-136300000D02*
X133050000Y-136300000D01*
X123890000Y-134480000D02*
X124830000Y-134480000D01*
X123890000Y-136340000D02*
X123890000Y-134480000D01*
X124830000Y-134480000D02*
X124830000Y-136340000D01*
X124830000Y-136340000D02*
X123890000Y-136340000D01*
X144095000Y-105265000D02*
X147945000Y-105265000D01*
X144095000Y-108805000D02*
X144095000Y-105265000D01*
X147945000Y-105265000D02*
X147945000Y-108805000D01*
X147945000Y-108805000D02*
X144095000Y-108805000D01*
X131070000Y-130030000D02*
X132890000Y-130030000D01*
X131070000Y-130950000D02*
X131070000Y-130030000D01*
X132890000Y-130030000D02*
X132890000Y-130950000D01*
X132890000Y-130950000D02*
X131070000Y-130950000D01*
X106530000Y-121015000D02*
X108390000Y-121015000D01*
X106530000Y-121955000D02*
X106530000Y-121015000D01*
X108390000Y-121015000D02*
X108390000Y-121955000D01*
X108390000Y-121955000D02*
X106530000Y-121955000D01*
X136810000Y-131510000D02*
X137750000Y-131510000D01*
X136810000Y-133370000D02*
X136810000Y-131510000D01*
X137750000Y-131510000D02*
X137750000Y-133370000D01*
X137750000Y-133370000D02*
X136810000Y-133370000D01*
D11*
X131820000Y-99300000D02*
X139720000Y-99300000D01*
X131820000Y-114800000D02*
X131820000Y-99300000D01*
X139720000Y-99300000D02*
X139720000Y-114800000D01*
X139720000Y-114800000D02*
X131820000Y-114800000D01*
D10*
X109945000Y-110735000D02*
X110865000Y-110735000D01*
X109945000Y-112555000D02*
X109945000Y-110735000D01*
X110865000Y-110735000D02*
X110865000Y-112555000D01*
X110865000Y-112555000D02*
X109945000Y-112555000D01*
X149790000Y-113160000D02*
X150710000Y-113160000D01*
X149790000Y-114980000D02*
X149790000Y-113160000D01*
X150710000Y-113160000D02*
X150710000Y-114980000D01*
X150710000Y-114980000D02*
X149790000Y-114980000D01*
X96850000Y-114575000D02*
X96850000Y-127425000D01*
X96850000Y-127425000D02*
X105450000Y-127425000D01*
X105450000Y-114575000D02*
X96850000Y-114575000D01*
X105450000Y-127425000D02*
X105450000Y-114575000D01*
X144765000Y-120955000D02*
X145705000Y-120955000D01*
X144765000Y-122815000D02*
X144765000Y-120955000D01*
X145705000Y-120955000D02*
X145705000Y-122815000D01*
X145705000Y-122815000D02*
X144765000Y-122815000D01*
X107210000Y-109640000D02*
X109070000Y-109640000D01*
X107210000Y-110580000D02*
X107210000Y-109640000D01*
X109070000Y-109640000D02*
X109070000Y-110580000D01*
X109070000Y-110580000D02*
X107210000Y-110580000D01*
X106530000Y-119990000D02*
X108390000Y-119990000D01*
X106530000Y-120930000D02*
X106530000Y-119990000D01*
X108390000Y-119990000D02*
X108390000Y-120930000D01*
X108390000Y-120930000D02*
X106530000Y-120930000D01*
X145040000Y-118142500D02*
X145960000Y-118142500D01*
X145040000Y-119962500D02*
X145040000Y-118142500D01*
X145960000Y-118142500D02*
X145960000Y-119962500D01*
X145960000Y-119962500D02*
X145040000Y-119962500D01*
X115160000Y-106870000D02*
X116080000Y-106870000D01*
X115160000Y-108690000D02*
X115160000Y-106870000D01*
X116080000Y-106870000D02*
X116080000Y-108690000D01*
X116080000Y-108690000D02*
X115160000Y-108690000D01*
X131030000Y-128410000D02*
X132890000Y-128410000D01*
X131030000Y-129350000D02*
X131030000Y-128410000D01*
X132890000Y-128410000D02*
X132890000Y-129350000D01*
X132890000Y-129350000D02*
X131030000Y-129350000D01*
X114680000Y-116300000D02*
X116540000Y-116300000D01*
X114680000Y-117240000D02*
X114680000Y-116300000D01*
X116540000Y-116300000D02*
X116540000Y-117240000D01*
X116540000Y-117240000D02*
X114680000Y-117240000D01*
X122510000Y-110220000D02*
X124330000Y-110220000D01*
X122510000Y-111140000D02*
X122510000Y-110220000D01*
X124330000Y-110220000D02*
X124330000Y-111140000D01*
X124330000Y-111140000D02*
X122510000Y-111140000D01*
X142205000Y-120960000D02*
X143125000Y-120960000D01*
X142205000Y-122780000D02*
X142205000Y-120960000D01*
X143125000Y-120960000D02*
X143125000Y-122780000D01*
X143125000Y-122780000D02*
X142205000Y-122780000D01*
X145845000Y-120955000D02*
X146765000Y-120955000D01*
X145845000Y-122775000D02*
X145845000Y-120955000D01*
X146765000Y-120955000D02*
X146765000Y-122775000D01*
X146765000Y-122775000D02*
X145845000Y-122775000D01*
X109670000Y-102315000D02*
X110590000Y-102315000D01*
X109670000Y-104135000D02*
X109670000Y-102315000D01*
X110590000Y-102315000D02*
X110590000Y-104135000D01*
X110590000Y-104135000D02*
X109670000Y-104135000D01*
X117130000Y-135240000D02*
X118990000Y-135240000D01*
X117130000Y-136180000D02*
X117130000Y-135240000D01*
X118990000Y-135240000D02*
X118990000Y-136180000D01*
X118990000Y-136180000D02*
X117130000Y-136180000D01*
M02*
