%TF.GenerationSoftware,KiCad,Pcbnew,8.0.2-1*%
%TF.CreationDate,2025-01-23T13:43:47+09:00*%
%TF.ProjectId,gas_nrf52832,6761735f-6e72-4663-9532-3833322e6b69,rev?*%
%TF.SameCoordinates,Original*%
%TF.FileFunction,OtherDrawing,Comment*%
%FSLAX46Y46*%
G04 Gerber Fmt 4.6, Leading zero omitted, Abs format (unit mm)*
G04 Created by KiCad (PCBNEW 8.0.2-1) date 2025-01-23 13:43:47*
%MOMM*%
%LPD*%
G01*
G04 APERTURE LIST*
%ADD10C,0.010000*%
%ADD11C,0.100000*%
%ADD12C,0.050000*%
G04 APERTURE END LIST*
D10*
X126180000Y-121290100D02*
X125579566Y-121290100D01*
X125579566Y-120289177D01*
X126180000Y-120289177D01*
X126180000Y-121290100D01*
G36*
X126180000Y-121290100D02*
G01*
X125579566Y-121290100D01*
X125579566Y-120289177D01*
X126180000Y-120289177D01*
X126180000Y-121290100D01*
G37*
D11*
X115030000Y-105125000D02*
X116430000Y-105125000D01*
X115030000Y-105875000D02*
X115030000Y-105125000D01*
X116430000Y-105125000D02*
X116430000Y-105875000D01*
X116430000Y-105875000D02*
X115030000Y-105875000D01*
D12*
X107005000Y-104220000D02*
X112255000Y-104220000D01*
X107005000Y-109470000D02*
X107005000Y-104220000D01*
D11*
X107630000Y-104845000D02*
X111630000Y-104845000D01*
X107630000Y-108845000D02*
X107630000Y-104845000D01*
X111130000Y-104845000D02*
X111630000Y-105345000D01*
X111630000Y-104845000D02*
X111630000Y-108845000D01*
X111630000Y-108845000D02*
X107630000Y-108845000D01*
D12*
X112255000Y-104220000D02*
X112255000Y-109470000D01*
X112255000Y-109470000D02*
X107005000Y-109470000D01*
X137415000Y-119310000D02*
X140965000Y-119310000D01*
X137415000Y-123510000D02*
X137415000Y-119310000D01*
D11*
X137740000Y-120610000D02*
X140640000Y-120610000D01*
X137740000Y-122210000D02*
X137740000Y-120610000D01*
X139690000Y-120610000D02*
X140640000Y-121560000D01*
X140640000Y-120610000D02*
X140640000Y-122210000D01*
X140640000Y-122210000D02*
X137740000Y-122210000D01*
D12*
X140965000Y-119310000D02*
X140965000Y-123510000D01*
X140965000Y-123510000D02*
X137415000Y-123510000D01*
D11*
X111280000Y-110795000D02*
X112030000Y-110795000D01*
X111280000Y-112195000D02*
X111280000Y-110795000D01*
X112030000Y-110795000D02*
X112030000Y-112195000D01*
X112030000Y-112195000D02*
X111280000Y-112195000D01*
D12*
X116980000Y-110865000D02*
X120520000Y-110865000D01*
X116980000Y-114715000D02*
X116980000Y-110865000D01*
D11*
X117290000Y-112140000D02*
X120210000Y-112140000D01*
X117290000Y-113440000D02*
X117290000Y-112140000D01*
X119260000Y-112140000D02*
X120210000Y-113090000D01*
X120210000Y-112140000D02*
X120210000Y-113440000D01*
X120210000Y-113440000D02*
X117290000Y-113440000D01*
D12*
X120520000Y-110865000D02*
X120520000Y-114715000D01*
X120520000Y-114715000D02*
X116980000Y-114715000D01*
X119430000Y-130735000D02*
X123630000Y-130735000D01*
X119430000Y-134285000D02*
X119430000Y-130735000D01*
D11*
X120730000Y-131060000D02*
X122330000Y-131060000D01*
X120730000Y-133960000D02*
X120730000Y-131060000D01*
X122330000Y-131060000D02*
X122330000Y-133960000D01*
X122330000Y-133010000D02*
X121380000Y-133960000D01*
X122330000Y-133960000D02*
X120730000Y-133960000D01*
D12*
X123630000Y-130735000D02*
X123630000Y-134285000D01*
X123630000Y-134285000D02*
X119430000Y-134285000D01*
X131705000Y-131090000D02*
X135255000Y-131090000D01*
X131705000Y-135290000D02*
X131705000Y-131090000D01*
D11*
X132030000Y-132390000D02*
X134930000Y-132390000D01*
X132030000Y-133990000D02*
X132030000Y-132390000D01*
X133980000Y-132390000D02*
X134930000Y-133340000D01*
X134930000Y-132390000D02*
X134930000Y-133990000D01*
X134930000Y-133990000D02*
X132030000Y-133990000D01*
D12*
X135255000Y-131090000D02*
X135255000Y-135290000D01*
X135255000Y-135290000D02*
X131705000Y-135290000D01*
M02*
