%TF.GenerationSoftware,KiCad,Pcbnew,8.0.2-1*%
%TF.CreationDate,2025-01-23T13:43:47+09:00*%
%TF.ProjectId,gas_nrf52832,6761735f-6e72-4663-9532-3833322e6b69,rev?*%
%TF.SameCoordinates,Original*%
%TF.FileFunction,Soldermask,Bot*%
%TF.FilePolarity,Negative*%
%FSLAX46Y46*%
G04 Gerber Fmt 4.6, Leading zero omitted, Abs format (unit mm)*
G04 Created by KiCad (PCBNEW 8.0.2-1) date 2025-01-23 13:43:47*
%MOMM*%
%LPD*%
G01*
G04 APERTURE LIST*
G04 Aperture macros list*
%AMRoundRect*
0 Rectangle with rounded corners*
0 $1 Rounding radius*
0 $2 $3 $4 $5 $6 $7 $8 $9 X,Y pos of 4 corners*
0 Add a 4 corners polygon primitive as box body*
4,1,4,$2,$3,$4,$5,$6,$7,$8,$9,$2,$3,0*
0 Add four circle primitives for the rounded corners*
1,1,$1+$1,$2,$3*
1,1,$1+$1,$4,$5*
1,1,$1+$1,$6,$7*
1,1,$1+$1,$8,$9*
0 Add four rect primitives between the rounded corners*
20,1,$1+$1,$2,$3,$4,$5,0*
20,1,$1+$1,$4,$5,$6,$7,0*
20,1,$1+$1,$6,$7,$8,$9,0*
20,1,$1+$1,$8,$9,$2,$3,0*%
G04 Aperture macros list end*
%ADD10C,1.400000*%
%ADD11R,1.000000X1.000000*%
%ADD12O,1.000000X1.000000*%
%ADD13R,1.700000X1.700000*%
%ADD14O,1.700000X1.700000*%
%ADD15C,2.200000*%
%ADD16RoundRect,0.102000X0.754000X0.754000X-0.754000X0.754000X-0.754000X-0.754000X0.754000X-0.754000X0*%
%ADD17C,1.712000*%
%ADD18C,2.154000*%
%ADD19O,1.304000X0.904000*%
%ADD20RoundRect,0.135000X-0.135000X-0.185000X0.135000X-0.185000X0.135000X0.185000X-0.135000X0.185000X0*%
%ADD21R,0.492000X0.300000*%
%ADD22RoundRect,0.125000X0.137500X-0.125000X0.137500X0.125000X-0.137500X0.125000X-0.137500X-0.125000X0*%
%ADD23RoundRect,0.135000X0.135000X0.185000X-0.135000X0.185000X-0.135000X-0.185000X0.135000X-0.185000X0*%
%ADD24C,3.800000*%
%ADD25RoundRect,0.140000X0.140000X0.170000X-0.140000X0.170000X-0.140000X-0.170000X0.140000X-0.170000X0*%
%ADD26RoundRect,0.135000X0.185000X-0.135000X0.185000X0.135000X-0.185000X0.135000X-0.185000X-0.135000X0*%
%ADD27RoundRect,0.140000X-0.140000X-0.170000X0.140000X-0.170000X0.140000X0.170000X-0.140000X0.170000X0*%
G04 APERTURE END LIST*
D10*
X128100000Y-110250000D03*
X130640000Y-110250000D03*
D11*
X104860000Y-110260000D03*
D12*
X104860000Y-108990000D03*
D13*
X160710000Y-134610000D03*
D14*
X160710000Y-132070000D03*
X160710000Y-129530000D03*
D15*
X103000000Y-102500000D03*
X103000000Y-139500000D03*
X163000000Y-102500000D03*
X163000000Y-139500000D03*
D13*
X160330000Y-107030000D03*
D14*
X160330000Y-109570000D03*
X160330000Y-112110000D03*
D16*
X119250000Y-105500000D03*
D17*
X123750000Y-105500000D03*
D18*
X118000000Y-108000000D03*
X125000000Y-108000000D03*
D10*
X134500000Y-110250000D03*
X137040000Y-110250000D03*
D19*
X104650000Y-118550000D03*
X104650000Y-126350000D03*
X104650000Y-123450000D03*
X104650000Y-115650000D03*
D20*
X151434000Y-105155000D03*
X152454000Y-105155000D03*
D21*
X154134000Y-106230000D03*
X154134000Y-106730000D03*
X154134000Y-107230000D03*
X152466000Y-107230000D03*
X152466000Y-106730000D03*
X152466000Y-106230000D03*
D22*
X156195000Y-132840000D03*
X156195000Y-132040000D03*
X156195000Y-131240000D03*
X156195000Y-130440000D03*
X153820000Y-130440000D03*
X153820000Y-131240000D03*
X153820000Y-132040000D03*
X153820000Y-132840000D03*
D23*
X153170000Y-108520000D03*
X152150000Y-108520000D03*
D24*
X115227029Y-125772971D03*
X124772971Y-116227029D03*
X124772971Y-125772971D03*
D25*
X156120000Y-133965000D03*
X155160000Y-133965000D03*
D26*
X155380000Y-108250000D03*
X155380000Y-107230000D03*
D27*
X152865000Y-133965000D03*
X153825000Y-133965000D03*
D24*
X136227029Y-125772971D03*
X136227029Y-116227029D03*
X145772971Y-125772971D03*
M02*
