%TF.GenerationSoftware,KiCad,Pcbnew,8.0.2-1*%
%TF.CreationDate,2024-09-12T10:11:59+09:00*%
%TF.ProjectId,gas_nrf52832,6761735f-6e72-4663-9532-3833322e6b69,rev?*%
%TF.SameCoordinates,Original*%
%TF.FileFunction,Copper,L3,Inr*%
%TF.FilePolarity,Positive*%
%FSLAX46Y46*%
G04 Gerber Fmt 4.6, Leading zero omitted, Abs format (unit mm)*
G04 Created by KiCad (PCBNEW 8.0.2-1) date 2024-09-12 10:11:59*
%MOMM*%
%LPD*%
G01*
G04 APERTURE LIST*
%TA.AperFunction,ComponentPad*%
%ADD10R,1.000000X1.000000*%
%TD*%
%TA.AperFunction,ComponentPad*%
%ADD11O,1.000000X1.000000*%
%TD*%
%TA.AperFunction,ComponentPad*%
%ADD12R,1.700000X1.700000*%
%TD*%
%TA.AperFunction,ComponentPad*%
%ADD13O,1.700000X1.700000*%
%TD*%
%TA.AperFunction,ComponentPad*%
%ADD14R,1.350000X1.350000*%
%TD*%
%TA.AperFunction,ComponentPad*%
%ADD15O,1.350000X1.350000*%
%TD*%
%TA.AperFunction,ComponentPad*%
%ADD16C,2.010000*%
%TD*%
%TA.AperFunction,ComponentPad*%
%ADD17C,2.565000*%
%TD*%
%TA.AperFunction,ComponentPad*%
%ADD18C,3.800000*%
%TD*%
%TA.AperFunction,ViaPad*%
%ADD19C,0.600000*%
%TD*%
%TA.AperFunction,ViaPad*%
%ADD20C,0.700000*%
%TD*%
G04 APERTURE END LIST*
D10*
X98080000Y-80640000D03*
D11*
X98080000Y-79370000D03*
D12*
X140820000Y-104000000D03*
D13*
X143360000Y-104000000D03*
X145900000Y-104000000D03*
X148440000Y-104000000D03*
D14*
X128000000Y-82900000D03*
D15*
X125500000Y-82900000D03*
X123000000Y-82900000D03*
X128000000Y-79600000D03*
X125500000Y-79600000D03*
X123000000Y-79600000D03*
D12*
X150500000Y-82235000D03*
D13*
X150500000Y-84775000D03*
X150500000Y-87315000D03*
D16*
X96000000Y-88500000D03*
D17*
X92000000Y-88500000D03*
X92000000Y-99740000D03*
D16*
X96000000Y-99740000D03*
D18*
X104550000Y-101650000D03*
X104550000Y-88150000D03*
X111300000Y-94900000D03*
X119300000Y-94900000D03*
X126050000Y-88150000D03*
X126050000Y-101650000D03*
D19*
X143825000Y-86075000D03*
X116625000Y-98550000D03*
X95000000Y-105000000D03*
X146850000Y-88025000D03*
X105500000Y-80070000D03*
X115000000Y-76450000D03*
X115000000Y-109500000D03*
X115000000Y-85000000D03*
X135990000Y-105865000D03*
X137500000Y-83000000D03*
X90500000Y-109500000D03*
X100000000Y-109500000D03*
X125000000Y-109500000D03*
X133265000Y-106095000D03*
X140000000Y-97500000D03*
X112020000Y-99850000D03*
X130000000Y-109500000D03*
X133600000Y-92500000D03*
X127195000Y-96635000D03*
X118600000Y-103825000D03*
X108250000Y-79020000D03*
X100000000Y-100000000D03*
X130000000Y-76450000D03*
X142526054Y-88024813D03*
X111305000Y-84040000D03*
X152500000Y-80000000D03*
X135000000Y-76450000D03*
X129375000Y-90975000D03*
X145000000Y-109500000D03*
X104350000Y-78895000D03*
X130000000Y-79500000D03*
X110350000Y-80620000D03*
X110000000Y-76450000D03*
X104250000Y-82945000D03*
X139000000Y-76450000D03*
X133230000Y-99670000D03*
X100960000Y-92760000D03*
X152500000Y-109500000D03*
X90500000Y-76500000D03*
X110000000Y-109500000D03*
X135190000Y-101965000D03*
D20*
X147525000Y-78525000D03*
D19*
X120000000Y-85000000D03*
X100000000Y-76450000D03*
X140000000Y-109500000D03*
X95000000Y-109500000D03*
X100275000Y-81695000D03*
D20*
X96950000Y-97750000D03*
D19*
X135000000Y-109500000D03*
X110000000Y-90000000D03*
X100000000Y-105000000D03*
X107000000Y-80070000D03*
X105000000Y-109500000D03*
X95000000Y-76450000D03*
X152500000Y-85000000D03*
X118600000Y-97950000D03*
X139000000Y-79500000D03*
X129106765Y-93898235D03*
X152500000Y-105000000D03*
X142050000Y-85200000D03*
X100975000Y-83895000D03*
X135000000Y-79500000D03*
X90500000Y-80000000D03*
X125000000Y-76450000D03*
X145000000Y-106000000D03*
X126320000Y-96960000D03*
X133265000Y-102845000D03*
D20*
X96950000Y-90450000D03*
X149100000Y-100850000D03*
D19*
X102150000Y-78895000D03*
X107000000Y-81670000D03*
X105000000Y-76450000D03*
X144750000Y-88025000D03*
X152500000Y-101000000D03*
X145000000Y-92500000D03*
X152500000Y-89000000D03*
X152500000Y-76450000D03*
X142500000Y-95000000D03*
X137700000Y-90000000D03*
X120000000Y-76450000D03*
X133600000Y-91000000D03*
D20*
X137700000Y-99900000D03*
D19*
X145925000Y-84225000D03*
X134965000Y-96950000D03*
X109995000Y-100800000D03*
X105500000Y-81670000D03*
X90500000Y-95000000D03*
X90510000Y-105000000D03*
X100725000Y-78945000D03*
D20*
X149100000Y-91600000D03*
D19*
X147500000Y-76450000D03*
X100950000Y-95450000D03*
X102175000Y-83895000D03*
X109465181Y-80607187D03*
X132500000Y-83000000D03*
X137590000Y-105870000D03*
X139000000Y-86600000D03*
X120000000Y-109500000D03*
X115000000Y-90000000D03*
D20*
X143330000Y-82500000D03*
X133096000Y-105156000D03*
X133096000Y-103886000D03*
X126238000Y-94234000D03*
X137922000Y-88392000D03*
X120650000Y-103124000D03*
X108340000Y-101740000D03*
D19*
X109400000Y-82220000D03*
X106000000Y-83820000D03*
X102865380Y-81535380D03*
D20*
X99300000Y-92025000D03*
X98985000Y-95435000D03*
%TA.AperFunction,Conductor*%
G36*
X97467502Y-78619707D02*
G01*
X97536743Y-78674926D01*
X97575170Y-78754718D01*
X97575170Y-78843282D01*
X97544932Y-78912046D01*
X97455183Y-79042067D01*
X97455180Y-79042072D01*
X97394860Y-79201124D01*
X97394860Y-79201126D01*
X97374355Y-79370000D01*
X97394860Y-79538873D01*
X97394860Y-79538875D01*
X97455180Y-79697927D01*
X97455184Y-79697934D01*
X97474730Y-79726252D01*
X97507559Y-79808506D01*
X97501448Y-79896858D01*
X97457608Y-79973809D01*
X97448951Y-79981234D01*
X97449306Y-79981589D01*
X97435448Y-79995446D01*
X97391133Y-80061767D01*
X97379500Y-80120250D01*
X97379500Y-81159749D01*
X97391133Y-81218232D01*
X97435447Y-81284552D01*
X97501767Y-81328866D01*
X97501769Y-81328867D01*
X97536984Y-81335871D01*
X97560250Y-81340500D01*
X97560252Y-81340500D01*
X98599750Y-81340500D01*
X98619155Y-81336639D01*
X98658231Y-81328867D01*
X98724552Y-81284552D01*
X98768867Y-81218231D01*
X98780500Y-81159748D01*
X98780500Y-80607187D01*
X108959534Y-80607187D01*
X108980016Y-80749645D01*
X108980017Y-80749649D01*
X109039801Y-80880556D01*
X109039805Y-80880563D01*
X109130734Y-80985500D01*
X109134053Y-80989330D01*
X109255128Y-81067140D01*
X109283355Y-81075428D01*
X109393219Y-81107687D01*
X109393220Y-81107687D01*
X109537143Y-81107687D01*
X109590370Y-81092057D01*
X109675234Y-81067140D01*
X109790286Y-80993200D01*
X109873576Y-80963100D01*
X109961679Y-80972118D01*
X110005219Y-80997060D01*
X110006898Y-80994448D01*
X110018872Y-81002143D01*
X110139947Y-81079953D01*
X110191423Y-81095067D01*
X110278038Y-81120500D01*
X110278039Y-81120500D01*
X110421962Y-81120500D01*
X110475189Y-81104870D01*
X110560053Y-81079953D01*
X110681128Y-81002143D01*
X110736834Y-80937854D01*
X110775375Y-80893376D01*
X110775379Y-80893369D01*
X110835163Y-80762462D01*
X110835163Y-80762460D01*
X110835165Y-80762457D01*
X110855647Y-80620000D01*
X110835165Y-80477543D01*
X110835163Y-80477540D01*
X110835163Y-80477537D01*
X110775379Y-80346630D01*
X110775375Y-80346623D01*
X110681128Y-80237857D01*
X110681127Y-80237856D01*
X110620590Y-80198952D01*
X110560053Y-80160047D01*
X110560050Y-80160046D01*
X110560048Y-80160045D01*
X110421962Y-80119500D01*
X110421961Y-80119500D01*
X110278039Y-80119500D01*
X110278038Y-80119500D01*
X110139951Y-80160045D01*
X110139947Y-80160047D01*
X110024894Y-80233986D01*
X109941603Y-80264086D01*
X109853500Y-80255068D01*
X109809961Y-80230127D01*
X109808283Y-80232739D01*
X109695168Y-80160045D01*
X109675234Y-80147234D01*
X109675231Y-80147233D01*
X109675229Y-80147232D01*
X109537143Y-80106687D01*
X109537142Y-80106687D01*
X109393220Y-80106687D01*
X109393219Y-80106687D01*
X109255132Y-80147232D01*
X109255126Y-80147235D01*
X109134053Y-80225043D01*
X109134052Y-80225044D01*
X109039805Y-80333810D01*
X109039801Y-80333817D01*
X108980017Y-80464724D01*
X108980016Y-80464728D01*
X108959534Y-80607187D01*
X98780500Y-80607187D01*
X98780500Y-80120252D01*
X98780350Y-80119500D01*
X98770504Y-80070000D01*
X104994353Y-80070000D01*
X105014835Y-80212458D01*
X105014836Y-80212462D01*
X105074620Y-80343369D01*
X105074624Y-80343376D01*
X105155955Y-80437236D01*
X105168872Y-80452143D01*
X105289947Y-80529953D01*
X105341423Y-80545067D01*
X105428038Y-80570500D01*
X105428039Y-80570500D01*
X105571962Y-80570500D01*
X105625189Y-80554870D01*
X105710053Y-80529953D01*
X105831128Y-80452143D01*
X105908907Y-80362381D01*
X105925375Y-80343376D01*
X105925379Y-80343369D01*
X105985163Y-80212462D01*
X105985163Y-80212460D01*
X105985165Y-80212457D01*
X106005647Y-80070000D01*
X106494353Y-80070000D01*
X106514835Y-80212458D01*
X106514836Y-80212462D01*
X106574620Y-80343369D01*
X106574624Y-80343376D01*
X106655955Y-80437236D01*
X106668872Y-80452143D01*
X106789947Y-80529953D01*
X106841423Y-80545067D01*
X106928038Y-80570500D01*
X106928039Y-80570500D01*
X107071962Y-80570500D01*
X107125189Y-80554870D01*
X107210053Y-80529953D01*
X107331128Y-80452143D01*
X107408907Y-80362381D01*
X107425375Y-80343376D01*
X107425379Y-80343369D01*
X107485163Y-80212462D01*
X107485163Y-80212460D01*
X107485165Y-80212457D01*
X107505647Y-80070000D01*
X107485165Y-79927543D01*
X107485163Y-79927540D01*
X107485163Y-79927537D01*
X107425379Y-79796630D01*
X107425375Y-79796623D01*
X107331128Y-79687857D01*
X107331127Y-79687856D01*
X107260484Y-79642457D01*
X107210053Y-79610047D01*
X107210050Y-79610046D01*
X107210048Y-79610045D01*
X107071962Y-79569500D01*
X107071961Y-79569500D01*
X106928039Y-79569500D01*
X106928038Y-79569500D01*
X106789951Y-79610045D01*
X106789945Y-79610048D01*
X106668872Y-79687856D01*
X106668871Y-79687857D01*
X106574624Y-79796623D01*
X106574620Y-79796630D01*
X106514836Y-79927537D01*
X106514835Y-79927541D01*
X106494353Y-80070000D01*
X106005647Y-80070000D01*
X105985165Y-79927543D01*
X105985163Y-79927540D01*
X105985163Y-79927537D01*
X105925379Y-79796630D01*
X105925375Y-79796623D01*
X105831128Y-79687857D01*
X105831127Y-79687856D01*
X105760484Y-79642457D01*
X105710053Y-79610047D01*
X105710050Y-79610046D01*
X105710048Y-79610045D01*
X105571962Y-79569500D01*
X105571961Y-79569500D01*
X105428039Y-79569500D01*
X105428038Y-79569500D01*
X105289951Y-79610045D01*
X105289945Y-79610048D01*
X105168872Y-79687856D01*
X105168871Y-79687857D01*
X105074624Y-79796623D01*
X105074620Y-79796630D01*
X105014836Y-79927537D01*
X105014835Y-79927541D01*
X104994353Y-80070000D01*
X98770504Y-80070000D01*
X98768867Y-80061769D01*
X98724552Y-79995448D01*
X98724551Y-79995446D01*
X98710694Y-79981589D01*
X98713719Y-79978563D01*
X98677630Y-79940381D01*
X98650746Y-79855996D01*
X98663137Y-79768304D01*
X98685271Y-79726249D01*
X98704815Y-79697934D01*
X98704818Y-79697930D01*
X98738148Y-79610045D01*
X98765139Y-79538875D01*
X98765139Y-79538874D01*
X98765140Y-79538872D01*
X98785645Y-79370000D01*
X98765140Y-79201128D01*
X98765139Y-79201125D01*
X98765139Y-79201124D01*
X98704819Y-79042072D01*
X98704816Y-79042067D01*
X98618916Y-78917621D01*
X98615067Y-78912044D01*
X98582238Y-78829793D01*
X98588347Y-78741440D01*
X98632186Y-78664488D01*
X98705072Y-78614178D01*
X98778841Y-78600000D01*
X100039298Y-78600000D01*
X100125641Y-78619707D01*
X100194882Y-78674926D01*
X100233309Y-78754718D01*
X100236272Y-78827318D01*
X100220509Y-78936957D01*
X100219353Y-78945000D01*
X100239835Y-79087458D01*
X100239836Y-79087462D01*
X100299620Y-79218369D01*
X100299624Y-79218376D01*
X100385296Y-79317246D01*
X100393872Y-79327143D01*
X100514947Y-79404953D01*
X100555877Y-79416971D01*
X100653038Y-79445500D01*
X100653039Y-79445500D01*
X100796962Y-79445500D01*
X100850189Y-79429870D01*
X100935053Y-79404953D01*
X101056128Y-79327143D01*
X101129954Y-79241943D01*
X101150375Y-79218376D01*
X101150379Y-79218369D01*
X101210163Y-79087462D01*
X101210163Y-79087460D01*
X101210165Y-79087457D01*
X101230647Y-78945000D01*
X101213727Y-78827318D01*
X101220946Y-78739052D01*
X101265749Y-78662657D01*
X101339261Y-78613266D01*
X101410702Y-78600000D01*
X101457109Y-78600000D01*
X101543452Y-78619707D01*
X101612693Y-78674926D01*
X101651120Y-78754718D01*
X101654084Y-78827320D01*
X101646540Y-78879792D01*
X101644353Y-78895000D01*
X101651542Y-78945000D01*
X101664835Y-79037458D01*
X101664836Y-79037462D01*
X101724620Y-79168369D01*
X101724624Y-79168376D01*
X101818871Y-79277142D01*
X101818872Y-79277143D01*
X101939947Y-79354953D01*
X101948768Y-79357543D01*
X102078038Y-79395500D01*
X102078039Y-79395500D01*
X102221962Y-79395500D01*
X102275189Y-79379870D01*
X102360053Y-79354953D01*
X102481128Y-79277143D01*
X102568466Y-79176349D01*
X102575375Y-79168376D01*
X102575379Y-79168369D01*
X102635163Y-79037462D01*
X102635163Y-79037460D01*
X102635165Y-79037457D01*
X102655647Y-78895000D01*
X102645916Y-78827319D01*
X102653135Y-78739051D01*
X102697938Y-78662656D01*
X102771450Y-78613266D01*
X102842891Y-78600000D01*
X103657109Y-78600000D01*
X103743452Y-78619707D01*
X103812693Y-78674926D01*
X103851120Y-78754718D01*
X103854084Y-78827320D01*
X103846540Y-78879792D01*
X103844353Y-78895000D01*
X103851542Y-78945000D01*
X103864835Y-79037458D01*
X103864836Y-79037462D01*
X103924620Y-79168369D01*
X103924624Y-79168376D01*
X104018871Y-79277142D01*
X104018872Y-79277143D01*
X104139947Y-79354953D01*
X104148768Y-79357543D01*
X104278038Y-79395500D01*
X104278039Y-79395500D01*
X104421962Y-79395500D01*
X104475189Y-79379870D01*
X104560053Y-79354953D01*
X104681128Y-79277143D01*
X104768466Y-79176349D01*
X104775375Y-79168376D01*
X104775379Y-79168369D01*
X104835163Y-79037462D01*
X104835163Y-79037460D01*
X104835165Y-79037457D01*
X104855647Y-78895000D01*
X104845916Y-78827319D01*
X104853135Y-78739051D01*
X104897938Y-78662656D01*
X104971450Y-78613266D01*
X105042891Y-78600000D01*
X107581934Y-78600000D01*
X107668277Y-78619707D01*
X107737518Y-78674926D01*
X107775945Y-78754718D01*
X107775945Y-78843282D01*
X107768024Y-78866681D01*
X107764835Y-78877541D01*
X107744353Y-79020000D01*
X107764835Y-79162458D01*
X107764836Y-79162462D01*
X107824620Y-79293369D01*
X107824624Y-79293376D01*
X107891020Y-79370000D01*
X107918872Y-79402143D01*
X108039947Y-79479953D01*
X108091423Y-79495067D01*
X108178038Y-79520500D01*
X108178039Y-79520500D01*
X108321962Y-79520500D01*
X108391778Y-79500000D01*
X108460053Y-79479953D01*
X108581128Y-79402143D01*
X108641965Y-79331933D01*
X108675375Y-79293376D01*
X108675379Y-79293369D01*
X108735163Y-79162462D01*
X108735163Y-79162460D01*
X108735165Y-79162457D01*
X108755647Y-79020000D01*
X108735165Y-78877543D01*
X108735163Y-78877540D01*
X108731155Y-78863887D01*
X108733242Y-78863273D01*
X108719108Y-78794933D01*
X108740575Y-78709011D01*
X108797197Y-78640912D01*
X108877759Y-78604125D01*
X108918066Y-78600000D01*
X122276579Y-78600000D01*
X122362922Y-78619707D01*
X122432163Y-78674926D01*
X122470590Y-78754718D01*
X122470590Y-78843282D01*
X122432163Y-78923074D01*
X122414960Y-78941339D01*
X122410950Y-78945793D01*
X122287805Y-79082560D01*
X122287804Y-79082562D01*
X122195786Y-79241940D01*
X122195785Y-79241943D01*
X122138914Y-79416971D01*
X122119678Y-79600000D01*
X122138914Y-79783028D01*
X122171119Y-79882142D01*
X122195786Y-79958059D01*
X122287805Y-80117440D01*
X122410950Y-80254207D01*
X122466988Y-80294921D01*
X122559837Y-80362380D01*
X122559838Y-80362380D01*
X122559839Y-80362381D01*
X122727966Y-80437236D01*
X122798092Y-80452142D01*
X122907978Y-80475500D01*
X122907981Y-80475500D01*
X123092022Y-80475500D01*
X123177800Y-80457266D01*
X123272034Y-80437236D01*
X123440161Y-80362381D01*
X123589050Y-80254207D01*
X123712195Y-80117440D01*
X123804214Y-79958059D01*
X123861085Y-79783029D01*
X123880322Y-79600000D01*
X123861085Y-79416971D01*
X123804214Y-79241941D01*
X123712195Y-79082560D01*
X123589050Y-78945793D01*
X123589049Y-78945792D01*
X123582071Y-78938042D01*
X123583275Y-78936957D01*
X123539285Y-78874465D01*
X123524777Y-78787098D01*
X123549613Y-78702088D01*
X123608874Y-78636273D01*
X123690822Y-78602688D01*
X123723421Y-78600000D01*
X124776579Y-78600000D01*
X124862922Y-78619707D01*
X124932163Y-78674926D01*
X124970590Y-78754718D01*
X124970590Y-78843282D01*
X124932163Y-78923074D01*
X124914960Y-78941339D01*
X124910950Y-78945793D01*
X124787805Y-79082560D01*
X124787804Y-79082562D01*
X124695786Y-79241940D01*
X124695785Y-79241943D01*
X124638914Y-79416971D01*
X124619678Y-79600000D01*
X124638914Y-79783028D01*
X124671119Y-79882142D01*
X124695786Y-79958059D01*
X124787805Y-80117440D01*
X124910950Y-80254207D01*
X124966988Y-80294921D01*
X125059837Y-80362380D01*
X125059838Y-80362380D01*
X125059839Y-80362381D01*
X125227966Y-80437236D01*
X125298092Y-80452142D01*
X125407978Y-80475500D01*
X125407981Y-80475500D01*
X125592022Y-80475500D01*
X125677800Y-80457266D01*
X125772034Y-80437236D01*
X125940161Y-80362381D01*
X126089050Y-80254207D01*
X126212195Y-80117440D01*
X126304214Y-79958059D01*
X126361085Y-79783029D01*
X126380322Y-79600000D01*
X126361085Y-79416971D01*
X126304214Y-79241941D01*
X126212195Y-79082560D01*
X126089050Y-78945793D01*
X126089049Y-78945792D01*
X126082071Y-78938042D01*
X126083275Y-78936957D01*
X126039285Y-78874465D01*
X126024777Y-78787098D01*
X126049613Y-78702088D01*
X126108874Y-78636273D01*
X126190822Y-78602688D01*
X126223421Y-78600000D01*
X127276579Y-78600000D01*
X127362922Y-78619707D01*
X127432163Y-78674926D01*
X127470590Y-78754718D01*
X127470590Y-78843282D01*
X127432163Y-78923074D01*
X127414960Y-78941339D01*
X127410950Y-78945793D01*
X127287805Y-79082560D01*
X127287804Y-79082562D01*
X127195786Y-79241940D01*
X127195785Y-79241943D01*
X127138914Y-79416971D01*
X127119678Y-79600000D01*
X127138914Y-79783028D01*
X127171119Y-79882142D01*
X127195786Y-79958059D01*
X127287805Y-80117440D01*
X127410950Y-80254207D01*
X127466988Y-80294921D01*
X127559837Y-80362380D01*
X127559838Y-80362380D01*
X127559839Y-80362381D01*
X127727966Y-80437236D01*
X127798092Y-80452142D01*
X127907978Y-80475500D01*
X127907981Y-80475500D01*
X128092022Y-80475500D01*
X128177800Y-80457266D01*
X128272034Y-80437236D01*
X128440161Y-80362381D01*
X128589050Y-80254207D01*
X128712195Y-80117440D01*
X128804214Y-79958059D01*
X128861085Y-79783029D01*
X128880322Y-79600000D01*
X128869812Y-79500000D01*
X129494353Y-79500000D01*
X129514835Y-79642458D01*
X129514836Y-79642462D01*
X129574620Y-79773369D01*
X129574624Y-79773376D01*
X129668871Y-79882142D01*
X129668872Y-79882143D01*
X129789947Y-79959953D01*
X129837137Y-79973809D01*
X129928038Y-80000500D01*
X129928039Y-80000500D01*
X130071962Y-80000500D01*
X130125189Y-79984870D01*
X130210053Y-79959953D01*
X130331128Y-79882143D01*
X130405225Y-79796630D01*
X130425375Y-79773376D01*
X130425379Y-79773369D01*
X130485163Y-79642462D01*
X130485163Y-79642460D01*
X130485165Y-79642457D01*
X130505647Y-79500000D01*
X134494353Y-79500000D01*
X134514835Y-79642458D01*
X134514836Y-79642462D01*
X134574620Y-79773369D01*
X134574624Y-79773376D01*
X134668871Y-79882142D01*
X134668872Y-79882143D01*
X134789947Y-79959953D01*
X134837137Y-79973809D01*
X134928038Y-80000500D01*
X134928039Y-80000500D01*
X135071962Y-80000500D01*
X135125189Y-79984870D01*
X135210053Y-79959953D01*
X135331128Y-79882143D01*
X135405225Y-79796630D01*
X135425375Y-79773376D01*
X135425379Y-79773369D01*
X135485163Y-79642462D01*
X135485163Y-79642460D01*
X135485165Y-79642457D01*
X135505647Y-79500000D01*
X138494353Y-79500000D01*
X138514835Y-79642458D01*
X138514836Y-79642462D01*
X138574620Y-79773369D01*
X138574624Y-79773376D01*
X138668871Y-79882142D01*
X138668872Y-79882143D01*
X138789947Y-79959953D01*
X138837137Y-79973809D01*
X138928038Y-80000500D01*
X138928039Y-80000500D01*
X139071962Y-80000500D01*
X139125189Y-79984870D01*
X139210053Y-79959953D01*
X139331128Y-79882143D01*
X139405225Y-79796630D01*
X139425375Y-79773376D01*
X139425379Y-79773369D01*
X139485163Y-79642462D01*
X139485163Y-79642460D01*
X139485165Y-79642457D01*
X139505647Y-79500000D01*
X139485165Y-79357543D01*
X139485163Y-79357540D01*
X139485163Y-79357537D01*
X139425379Y-79226630D01*
X139425375Y-79226623D01*
X139331128Y-79117857D01*
X139331127Y-79117856D01*
X139243170Y-79061330D01*
X139210053Y-79040047D01*
X139210050Y-79040046D01*
X139210048Y-79040045D01*
X139071962Y-78999500D01*
X139071961Y-78999500D01*
X138928039Y-78999500D01*
X138928038Y-78999500D01*
X138789951Y-79040045D01*
X138789945Y-79040048D01*
X138668872Y-79117856D01*
X138668871Y-79117857D01*
X138574624Y-79226623D01*
X138574620Y-79226630D01*
X138514836Y-79357537D01*
X138514835Y-79357541D01*
X138494353Y-79500000D01*
X135505647Y-79500000D01*
X135485165Y-79357543D01*
X135485163Y-79357540D01*
X135485163Y-79357537D01*
X135425379Y-79226630D01*
X135425375Y-79226623D01*
X135331128Y-79117857D01*
X135331127Y-79117856D01*
X135243170Y-79061330D01*
X135210053Y-79040047D01*
X135210050Y-79040046D01*
X135210048Y-79040045D01*
X135071962Y-78999500D01*
X135071961Y-78999500D01*
X134928039Y-78999500D01*
X134928038Y-78999500D01*
X134789951Y-79040045D01*
X134789945Y-79040048D01*
X134668872Y-79117856D01*
X134668871Y-79117857D01*
X134574624Y-79226623D01*
X134574620Y-79226630D01*
X134514836Y-79357537D01*
X134514835Y-79357541D01*
X134494353Y-79500000D01*
X130505647Y-79500000D01*
X130485165Y-79357543D01*
X130485163Y-79357540D01*
X130485163Y-79357537D01*
X130425379Y-79226630D01*
X130425375Y-79226623D01*
X130331128Y-79117857D01*
X130331127Y-79117856D01*
X130243170Y-79061330D01*
X130210053Y-79040047D01*
X130210050Y-79040046D01*
X130210048Y-79040045D01*
X130071962Y-78999500D01*
X130071961Y-78999500D01*
X129928039Y-78999500D01*
X129928038Y-78999500D01*
X129789951Y-79040045D01*
X129789945Y-79040048D01*
X129668872Y-79117856D01*
X129668871Y-79117857D01*
X129574624Y-79226623D01*
X129574620Y-79226630D01*
X129514836Y-79357537D01*
X129514835Y-79357541D01*
X129494353Y-79500000D01*
X128869812Y-79500000D01*
X128861085Y-79416971D01*
X128804214Y-79241941D01*
X128712195Y-79082560D01*
X128589050Y-78945793D01*
X128589049Y-78945792D01*
X128582071Y-78938042D01*
X128583275Y-78936957D01*
X128539285Y-78874465D01*
X128524777Y-78787098D01*
X128549613Y-78702088D01*
X128608874Y-78636273D01*
X128690822Y-78602688D01*
X128723421Y-78600000D01*
X146827242Y-78600000D01*
X146913585Y-78619707D01*
X146982826Y-78674926D01*
X147011092Y-78722843D01*
X147037708Y-78787098D01*
X147044140Y-78802627D01*
X147132377Y-78917620D01*
X147132379Y-78917622D01*
X147247373Y-79005860D01*
X147247377Y-79005862D01*
X147381288Y-79061329D01*
X147381290Y-79061330D01*
X147524997Y-79080250D01*
X147525000Y-79080250D01*
X147525003Y-79080250D01*
X147668709Y-79061330D01*
X147668711Y-79061329D01*
X147802625Y-79005861D01*
X147917621Y-78917621D01*
X148005861Y-78802625D01*
X148038906Y-78722844D01*
X148090154Y-78650618D01*
X148167666Y-78607778D01*
X148222758Y-78600000D01*
X149568066Y-78600000D01*
X149654409Y-78619707D01*
X149723650Y-78674926D01*
X149740626Y-78701280D01*
X149740857Y-78701139D01*
X149744948Y-78707815D01*
X149869893Y-78879789D01*
X149869896Y-78879792D01*
X150020208Y-79030104D01*
X150192184Y-79155051D01*
X150192186Y-79155052D01*
X150198847Y-79159134D01*
X150198135Y-79160295D01*
X150259324Y-79211374D01*
X150295954Y-79292007D01*
X150300000Y-79331933D01*
X150300000Y-80985500D01*
X150280293Y-81071843D01*
X150225074Y-81141084D01*
X150145282Y-81179511D01*
X150101000Y-81184500D01*
X149630250Y-81184500D01*
X149571767Y-81196133D01*
X149505447Y-81240447D01*
X149461133Y-81306767D01*
X149449500Y-81365250D01*
X149449500Y-83104749D01*
X149461133Y-83163232D01*
X149505447Y-83229552D01*
X149571767Y-83273866D01*
X149571769Y-83273867D01*
X149606984Y-83280871D01*
X149630250Y-83285500D01*
X150101000Y-83285500D01*
X150187343Y-83305207D01*
X150256584Y-83360426D01*
X150295011Y-83440218D01*
X150300000Y-83484500D01*
X150300000Y-83590311D01*
X150280293Y-83676654D01*
X150225074Y-83745895D01*
X150158767Y-83780742D01*
X150096043Y-83799768D01*
X149913551Y-83897313D01*
X149753590Y-84028590D01*
X149622313Y-84188551D01*
X149524768Y-84371044D01*
X149464699Y-84569066D01*
X149444417Y-84775000D01*
X149464699Y-84980933D01*
X149524768Y-85178955D01*
X149622313Y-85361448D01*
X149622315Y-85361450D01*
X149753590Y-85521410D01*
X149818281Y-85574500D01*
X149913551Y-85652686D01*
X150096042Y-85750230D01*
X150096046Y-85750232D01*
X150158768Y-85769258D01*
X150235669Y-85813178D01*
X150285901Y-85886118D01*
X150300000Y-85959688D01*
X150300000Y-86130311D01*
X150280293Y-86216654D01*
X150225074Y-86285895D01*
X150158767Y-86320742D01*
X150096043Y-86339768D01*
X149913551Y-86437313D01*
X149753590Y-86568590D01*
X149622313Y-86728551D01*
X149524768Y-86911044D01*
X149464699Y-87109066D01*
X149444417Y-87315000D01*
X149464699Y-87520933D01*
X149524768Y-87718955D01*
X149622313Y-87901448D01*
X149622315Y-87901450D01*
X149753590Y-88061410D01*
X149861538Y-88150000D01*
X149913551Y-88192686D01*
X150072303Y-88277541D01*
X150096046Y-88290232D01*
X150158768Y-88309258D01*
X150235669Y-88353178D01*
X150285901Y-88426118D01*
X150300000Y-88499688D01*
X150300000Y-89428500D01*
X150280293Y-89514843D01*
X150225074Y-89584084D01*
X150145282Y-89622511D01*
X150101000Y-89627500D01*
X149500000Y-89627500D01*
X149500000Y-90873000D01*
X149480293Y-90959343D01*
X149425074Y-91028584D01*
X149345282Y-91067011D01*
X149256718Y-91067011D01*
X149249507Y-91065222D01*
X149243714Y-91063670D01*
X149100003Y-91044750D01*
X149099997Y-91044750D01*
X148956290Y-91063669D01*
X148956288Y-91063670D01*
X148822377Y-91119137D01*
X148822373Y-91119139D01*
X148707379Y-91207377D01*
X148707377Y-91207379D01*
X148619139Y-91322373D01*
X148619137Y-91322377D01*
X148563670Y-91456288D01*
X148563669Y-91456290D01*
X148544750Y-91599996D01*
X148544750Y-91600003D01*
X148563669Y-91743709D01*
X148563670Y-91743711D01*
X148619137Y-91877622D01*
X148619139Y-91877626D01*
X148707377Y-91992620D01*
X148707379Y-91992622D01*
X148822373Y-92080860D01*
X148822377Y-92080862D01*
X148956288Y-92136329D01*
X148956290Y-92136330D01*
X149099997Y-92155250D01*
X149100000Y-92155250D01*
X149100003Y-92155250D01*
X149243704Y-92136331D01*
X149243706Y-92136330D01*
X149243709Y-92136330D01*
X149243711Y-92136329D01*
X149249497Y-92134779D01*
X149337999Y-92131469D01*
X149419172Y-92166886D01*
X149476940Y-92234015D01*
X149499861Y-92319561D01*
X149500000Y-92326999D01*
X149500000Y-100123000D01*
X149480293Y-100209343D01*
X149425074Y-100278584D01*
X149345282Y-100317011D01*
X149256718Y-100317011D01*
X149249507Y-100315222D01*
X149243714Y-100313670D01*
X149100003Y-100294750D01*
X149099997Y-100294750D01*
X148956290Y-100313669D01*
X148956288Y-100313670D01*
X148822377Y-100369137D01*
X148822373Y-100369139D01*
X148707379Y-100457377D01*
X148707377Y-100457379D01*
X148619139Y-100572373D01*
X148619137Y-100572377D01*
X148563670Y-100706288D01*
X148563669Y-100706290D01*
X148544750Y-100849996D01*
X148544750Y-100850003D01*
X148563669Y-100993709D01*
X148563670Y-100993711D01*
X148619137Y-101127622D01*
X148619139Y-101127626D01*
X148707377Y-101242620D01*
X148707379Y-101242622D01*
X148822373Y-101330860D01*
X148822377Y-101330862D01*
X148956288Y-101386329D01*
X148956290Y-101386330D01*
X149099997Y-101405250D01*
X149100000Y-101405250D01*
X149100003Y-101405250D01*
X149243709Y-101386330D01*
X149243711Y-101386329D01*
X149299280Y-101363312D01*
X149377625Y-101330861D01*
X149492621Y-101242621D01*
X149580861Y-101127625D01*
X149636330Y-100993709D01*
X149643077Y-100942462D01*
X149655250Y-100850003D01*
X149655250Y-100849996D01*
X149636330Y-100706290D01*
X149636329Y-100706288D01*
X149580862Y-100572377D01*
X149580860Y-100572373D01*
X149561884Y-100547643D01*
X149524956Y-100467146D01*
X149526612Y-100378598D01*
X149566524Y-100299538D01*
X149636786Y-100245624D01*
X149719761Y-100227500D01*
X150101000Y-100227500D01*
X150187343Y-100247207D01*
X150256584Y-100302426D01*
X150295011Y-100382218D01*
X150300000Y-100426500D01*
X150300000Y-106668066D01*
X150280293Y-106754409D01*
X150225074Y-106823650D01*
X150198719Y-106840626D01*
X150198861Y-106840857D01*
X150192184Y-106844948D01*
X150020210Y-106969893D01*
X149869893Y-107120210D01*
X149744948Y-107292184D01*
X149740857Y-107298861D01*
X149739695Y-107298149D01*
X149688615Y-107359331D01*
X149607980Y-107395956D01*
X149568066Y-107400000D01*
X93231934Y-107400000D01*
X93145591Y-107380293D01*
X93076350Y-107325074D01*
X93059373Y-107298719D01*
X93059143Y-107298861D01*
X93055051Y-107292184D01*
X92930106Y-107120210D01*
X92779789Y-106969893D01*
X92607815Y-106844948D01*
X92601139Y-106840857D01*
X92601850Y-106839695D01*
X92540669Y-106788615D01*
X92504044Y-106707980D01*
X92500000Y-106668066D01*
X92500000Y-106095000D01*
X132759353Y-106095000D01*
X132779835Y-106237458D01*
X132779836Y-106237462D01*
X132839620Y-106368369D01*
X132839624Y-106368376D01*
X132933871Y-106477142D01*
X132933872Y-106477143D01*
X133054947Y-106554953D01*
X133106423Y-106570067D01*
X133193038Y-106595500D01*
X133193039Y-106595500D01*
X133336962Y-106595500D01*
X133390189Y-106579870D01*
X133475053Y-106554953D01*
X133596128Y-106477143D01*
X133651834Y-106412854D01*
X133690375Y-106368376D01*
X133690379Y-106368369D01*
X133750163Y-106237462D01*
X133750163Y-106237460D01*
X133750165Y-106237457D01*
X133770647Y-106095000D01*
X133750165Y-105952543D01*
X133750163Y-105952540D01*
X133750163Y-105952537D01*
X133710186Y-105865000D01*
X135484353Y-105865000D01*
X135504835Y-106007458D01*
X135504836Y-106007462D01*
X135564620Y-106138369D01*
X135564624Y-106138376D01*
X135650479Y-106237457D01*
X135658872Y-106247143D01*
X135779947Y-106324953D01*
X135796969Y-106329951D01*
X135918038Y-106365500D01*
X135918039Y-106365500D01*
X136061962Y-106365500D01*
X136115189Y-106349870D01*
X136200053Y-106324953D01*
X136321128Y-106247143D01*
X136411045Y-106143373D01*
X136415375Y-106138376D01*
X136415379Y-106138369D01*
X136475163Y-106007462D01*
X136475163Y-106007460D01*
X136475165Y-106007457D01*
X136494928Y-105870000D01*
X137084353Y-105870000D01*
X137104835Y-106012458D01*
X137104836Y-106012462D01*
X137164620Y-106143369D01*
X137164624Y-106143376D01*
X137258871Y-106252142D01*
X137258872Y-106252143D01*
X137379947Y-106329953D01*
X137431423Y-106345067D01*
X137518038Y-106370500D01*
X137518039Y-106370500D01*
X137661962Y-106370500D01*
X137715189Y-106354870D01*
X137800053Y-106329953D01*
X137921128Y-106252143D01*
X137976834Y-106187854D01*
X138015375Y-106143376D01*
X138015379Y-106143369D01*
X138075163Y-106012462D01*
X138075163Y-106012460D01*
X138075165Y-106012457D01*
X138076956Y-106000000D01*
X144494353Y-106000000D01*
X144514835Y-106142458D01*
X144514836Y-106142462D01*
X144574620Y-106273369D01*
X144574624Y-106273376D01*
X144654451Y-106365500D01*
X144668872Y-106382143D01*
X144789947Y-106459953D01*
X144841423Y-106475067D01*
X144928038Y-106500500D01*
X144928039Y-106500500D01*
X145071962Y-106500500D01*
X145125189Y-106484870D01*
X145210053Y-106459953D01*
X145331128Y-106382143D01*
X145386834Y-106317854D01*
X145425375Y-106273376D01*
X145425379Y-106273369D01*
X145485163Y-106142462D01*
X145485163Y-106142460D01*
X145485165Y-106142457D01*
X145505647Y-106000000D01*
X145485165Y-105857543D01*
X145485163Y-105857540D01*
X145485163Y-105857537D01*
X145425379Y-105726630D01*
X145425375Y-105726623D01*
X145331128Y-105617857D01*
X145331127Y-105617856D01*
X145270590Y-105578952D01*
X145210053Y-105540047D01*
X145210050Y-105540046D01*
X145210048Y-105540045D01*
X145071962Y-105499500D01*
X145071961Y-105499500D01*
X144928039Y-105499500D01*
X144928038Y-105499500D01*
X144789951Y-105540045D01*
X144789945Y-105540048D01*
X144668872Y-105617856D01*
X144668871Y-105617857D01*
X144574624Y-105726623D01*
X144574620Y-105726630D01*
X144514836Y-105857537D01*
X144514835Y-105857541D01*
X144494353Y-106000000D01*
X138076956Y-106000000D01*
X138095647Y-105870000D01*
X138075165Y-105727543D01*
X138075163Y-105727540D01*
X138075163Y-105727537D01*
X138015379Y-105596630D01*
X138015375Y-105596623D01*
X137921128Y-105487857D01*
X137921127Y-105487856D01*
X137860590Y-105448952D01*
X137800053Y-105410047D01*
X137800050Y-105410046D01*
X137800048Y-105410045D01*
X137661962Y-105369500D01*
X137661961Y-105369500D01*
X137518039Y-105369500D01*
X137518038Y-105369500D01*
X137379951Y-105410045D01*
X137379945Y-105410048D01*
X137258872Y-105487856D01*
X137258871Y-105487857D01*
X137164624Y-105596623D01*
X137164620Y-105596630D01*
X137104836Y-105727537D01*
X137104835Y-105727541D01*
X137084353Y-105870000D01*
X136494928Y-105870000D01*
X136495647Y-105865000D01*
X136475165Y-105722543D01*
X136475163Y-105722540D01*
X136475163Y-105722537D01*
X136415379Y-105591630D01*
X136415375Y-105591623D01*
X136321128Y-105482857D01*
X136321127Y-105482856D01*
X136260590Y-105443952D01*
X136200053Y-105405047D01*
X136200050Y-105405046D01*
X136200048Y-105405045D01*
X136061962Y-105364500D01*
X136061961Y-105364500D01*
X135918039Y-105364500D01*
X135918038Y-105364500D01*
X135779951Y-105405045D01*
X135779945Y-105405048D01*
X135658872Y-105482856D01*
X135658871Y-105482857D01*
X135564624Y-105591623D01*
X135564620Y-105591630D01*
X135504836Y-105722537D01*
X135504835Y-105722541D01*
X135484353Y-105865000D01*
X133710186Y-105865000D01*
X133690379Y-105821630D01*
X133690375Y-105821623D01*
X133596128Y-105712857D01*
X133596127Y-105712856D01*
X133535590Y-105673952D01*
X133475053Y-105635047D01*
X133475050Y-105635046D01*
X133475048Y-105635045D01*
X133336962Y-105594500D01*
X133336961Y-105594500D01*
X133193039Y-105594500D01*
X133193038Y-105594500D01*
X133054951Y-105635045D01*
X133054945Y-105635048D01*
X132933872Y-105712856D01*
X132933871Y-105712857D01*
X132839624Y-105821623D01*
X132839620Y-105821630D01*
X132779836Y-105952537D01*
X132779835Y-105952541D01*
X132759353Y-106095000D01*
X92500000Y-106095000D01*
X92500000Y-105000000D01*
X94494353Y-105000000D01*
X94514835Y-105142458D01*
X94514836Y-105142462D01*
X94574620Y-105273369D01*
X94574624Y-105273376D01*
X94653584Y-105364500D01*
X94668872Y-105382143D01*
X94789947Y-105459953D01*
X94841423Y-105475067D01*
X94928038Y-105500500D01*
X94928039Y-105500500D01*
X95071962Y-105500500D01*
X95132052Y-105482856D01*
X95210053Y-105459953D01*
X95331128Y-105382143D01*
X95386834Y-105317854D01*
X95425375Y-105273376D01*
X95425379Y-105273369D01*
X95485163Y-105142462D01*
X95485163Y-105142460D01*
X95485165Y-105142457D01*
X95505647Y-105000000D01*
X99494353Y-105000000D01*
X99514835Y-105142458D01*
X99514836Y-105142462D01*
X99574620Y-105273369D01*
X99574624Y-105273376D01*
X99653584Y-105364500D01*
X99668872Y-105382143D01*
X99789947Y-105459953D01*
X99841423Y-105475067D01*
X99928038Y-105500500D01*
X99928039Y-105500500D01*
X100071962Y-105500500D01*
X100132052Y-105482856D01*
X100210053Y-105459953D01*
X100331128Y-105382143D01*
X100386834Y-105317854D01*
X100425375Y-105273376D01*
X100425379Y-105273369D01*
X100485163Y-105142462D01*
X100485163Y-105142460D01*
X100485165Y-105142457D01*
X100505647Y-105000000D01*
X100485165Y-104857543D01*
X100485163Y-104857540D01*
X100485163Y-104857537D01*
X100425379Y-104726630D01*
X100425375Y-104726623D01*
X100331128Y-104617857D01*
X100331127Y-104617856D01*
X100270590Y-104578952D01*
X100210053Y-104540047D01*
X100210050Y-104540046D01*
X100210048Y-104540045D01*
X100071962Y-104499500D01*
X100071961Y-104499500D01*
X99928039Y-104499500D01*
X99928038Y-104499500D01*
X99789951Y-104540045D01*
X99789945Y-104540048D01*
X99668872Y-104617856D01*
X99668871Y-104617857D01*
X99574624Y-104726623D01*
X99574620Y-104726630D01*
X99514836Y-104857537D01*
X99514835Y-104857541D01*
X99494353Y-105000000D01*
X95505647Y-105000000D01*
X95485165Y-104857543D01*
X95485163Y-104857540D01*
X95485163Y-104857537D01*
X95425379Y-104726630D01*
X95425375Y-104726623D01*
X95331128Y-104617857D01*
X95331127Y-104617856D01*
X95270590Y-104578952D01*
X95210053Y-104540047D01*
X95210050Y-104540046D01*
X95210048Y-104540045D01*
X95071962Y-104499500D01*
X95071961Y-104499500D01*
X94928039Y-104499500D01*
X94928038Y-104499500D01*
X94789951Y-104540045D01*
X94789945Y-104540048D01*
X94668872Y-104617856D01*
X94668871Y-104617857D01*
X94574624Y-104726623D01*
X94574620Y-104726630D01*
X94514836Y-104857537D01*
X94514835Y-104857541D01*
X94494353Y-105000000D01*
X92500000Y-105000000D01*
X92500000Y-103825000D01*
X118094353Y-103825000D01*
X118114835Y-103967458D01*
X118114836Y-103967462D01*
X118174620Y-104098369D01*
X118174624Y-104098376D01*
X118267824Y-104205934D01*
X118268872Y-104207143D01*
X118389947Y-104284953D01*
X118441423Y-104300067D01*
X118528038Y-104325500D01*
X118528039Y-104325500D01*
X118671962Y-104325500D01*
X118734943Y-104307007D01*
X118810053Y-104284953D01*
X118931128Y-104207143D01*
X118986834Y-104142854D01*
X119025375Y-104098376D01*
X119025379Y-104098369D01*
X119085163Y-103967462D01*
X119085163Y-103967460D01*
X119085165Y-103967457D01*
X119105647Y-103825000D01*
X119085165Y-103682543D01*
X119085163Y-103682540D01*
X119085163Y-103682537D01*
X119025379Y-103551630D01*
X119025375Y-103551623D01*
X118931128Y-103442857D01*
X118931127Y-103442856D01*
X118817850Y-103370058D01*
X118810053Y-103365047D01*
X118810050Y-103365046D01*
X118810048Y-103365045D01*
X118671962Y-103324500D01*
X118671961Y-103324500D01*
X118528039Y-103324500D01*
X118528038Y-103324500D01*
X118389951Y-103365045D01*
X118389945Y-103365048D01*
X118268872Y-103442856D01*
X118268871Y-103442857D01*
X118174624Y-103551623D01*
X118174620Y-103551630D01*
X118114836Y-103682537D01*
X118114835Y-103682541D01*
X118094353Y-103825000D01*
X92500000Y-103825000D01*
X92500000Y-101649998D01*
X102444592Y-101649998D01*
X102444592Y-101650001D01*
X102464202Y-101936687D01*
X102522663Y-102218022D01*
X102522665Y-102218027D01*
X102522666Y-102218032D01*
X102582023Y-102385047D01*
X102618895Y-102488795D01*
X102618900Y-102488806D01*
X102751098Y-102743935D01*
X102751099Y-102743936D01*
X102916811Y-102978698D01*
X103050940Y-103122315D01*
X103112950Y-103188711D01*
X103160190Y-103227143D01*
X103329697Y-103365047D01*
X103335852Y-103370054D01*
X103335857Y-103370058D01*
X103455570Y-103442857D01*
X103549537Y-103500000D01*
X103581377Y-103519362D01*
X103581378Y-103519363D01*
X103743745Y-103589888D01*
X103844942Y-103633844D01*
X104121642Y-103711371D01*
X104263982Y-103730935D01*
X104406314Y-103750499D01*
X104406316Y-103750499D01*
X104406322Y-103750500D01*
X104406324Y-103750500D01*
X104693676Y-103750500D01*
X104693678Y-103750500D01*
X104978358Y-103711371D01*
X105255058Y-103633844D01*
X105484750Y-103534075D01*
X105518621Y-103519363D01*
X105518621Y-103519362D01*
X105518625Y-103519361D01*
X105764147Y-103370055D01*
X105987053Y-103188708D01*
X106183189Y-102978698D01*
X106348901Y-102743936D01*
X106481104Y-102488797D01*
X106577334Y-102218032D01*
X106635798Y-101936686D01*
X106655408Y-101650000D01*
X106655408Y-101649998D01*
X123944592Y-101649998D01*
X123944592Y-101650001D01*
X123964202Y-101936687D01*
X124022663Y-102218022D01*
X124022665Y-102218027D01*
X124022666Y-102218032D01*
X124082023Y-102385047D01*
X124118895Y-102488795D01*
X124118900Y-102488806D01*
X124251098Y-102743935D01*
X124251099Y-102743936D01*
X124416811Y-102978698D01*
X124550940Y-103122315D01*
X124612950Y-103188711D01*
X124660190Y-103227143D01*
X124829697Y-103365047D01*
X124835852Y-103370054D01*
X124835857Y-103370058D01*
X124955570Y-103442857D01*
X125049537Y-103500000D01*
X125081377Y-103519362D01*
X125081378Y-103519363D01*
X125243745Y-103589888D01*
X125344942Y-103633844D01*
X125621642Y-103711371D01*
X125763982Y-103730935D01*
X125906314Y-103750499D01*
X125906316Y-103750499D01*
X125906322Y-103750500D01*
X125906324Y-103750500D01*
X126193676Y-103750500D01*
X126193678Y-103750500D01*
X126478358Y-103711371D01*
X126755058Y-103633844D01*
X126984750Y-103534075D01*
X127018621Y-103519363D01*
X127018621Y-103519362D01*
X127018625Y-103519361D01*
X127264147Y-103370055D01*
X127487053Y-103188708D01*
X127683189Y-102978698D01*
X127777563Y-102845000D01*
X132759353Y-102845000D01*
X132779835Y-102987458D01*
X132779836Y-102987462D01*
X132839620Y-103118369D01*
X132839624Y-103118376D01*
X132933871Y-103227142D01*
X132933872Y-103227143D01*
X133054947Y-103304953D01*
X133106423Y-103320067D01*
X133193038Y-103345500D01*
X133193039Y-103345500D01*
X133336962Y-103345500D01*
X133408481Y-103324500D01*
X133475053Y-103304953D01*
X133596128Y-103227143D01*
X133680086Y-103130250D01*
X139769500Y-103130250D01*
X139769500Y-104869749D01*
X139781133Y-104928232D01*
X139825447Y-104994552D01*
X139891767Y-105038866D01*
X139891769Y-105038867D01*
X139926984Y-105045871D01*
X139950250Y-105050500D01*
X139950252Y-105050500D01*
X141689750Y-105050500D01*
X141709155Y-105046639D01*
X141748231Y-105038867D01*
X141814552Y-104994552D01*
X141858867Y-104928231D01*
X141870500Y-104869748D01*
X141870500Y-104000000D01*
X142304417Y-104000000D01*
X142324699Y-104205933D01*
X142384768Y-104403955D01*
X142482313Y-104586448D01*
X142482315Y-104586450D01*
X142613590Y-104746410D01*
X142748999Y-104857537D01*
X142773551Y-104877686D01*
X142955176Y-104974767D01*
X142956046Y-104975232D01*
X143154066Y-105035300D01*
X143360000Y-105055583D01*
X143565934Y-105035300D01*
X143763954Y-104975232D01*
X143946450Y-104877685D01*
X144106410Y-104746410D01*
X144237685Y-104586450D01*
X144335232Y-104403954D01*
X144395300Y-104205934D01*
X144415583Y-104000000D01*
X144844417Y-104000000D01*
X144864699Y-104205933D01*
X144924768Y-104403955D01*
X145022313Y-104586448D01*
X145022315Y-104586450D01*
X145153590Y-104746410D01*
X145288999Y-104857537D01*
X145313551Y-104877686D01*
X145495176Y-104974767D01*
X145496046Y-104975232D01*
X145694066Y-105035300D01*
X145900000Y-105055583D01*
X146105934Y-105035300D01*
X146303954Y-104975232D01*
X146486450Y-104877685D01*
X146646410Y-104746410D01*
X146777685Y-104586450D01*
X146875232Y-104403954D01*
X146935300Y-104205934D01*
X146955583Y-104000000D01*
X146935300Y-103794066D01*
X146921933Y-103750000D01*
X147418588Y-103750000D01*
X148006988Y-103750000D01*
X147974075Y-103807007D01*
X147940000Y-103934174D01*
X147940000Y-104065826D01*
X147974075Y-104192993D01*
X148006988Y-104250000D01*
X147418589Y-104250000D01*
X147465232Y-104403763D01*
X147562730Y-104586170D01*
X147693944Y-104746055D01*
X147853829Y-104877269D01*
X148036236Y-104974767D01*
X148190000Y-105021410D01*
X148190000Y-104433012D01*
X148247007Y-104465925D01*
X148374174Y-104500000D01*
X148505826Y-104500000D01*
X148632993Y-104465925D01*
X148690000Y-104433012D01*
X148690000Y-105021410D01*
X148843763Y-104974767D01*
X149026170Y-104877269D01*
X149186055Y-104746055D01*
X149317269Y-104586170D01*
X149414767Y-104403763D01*
X149461411Y-104250000D01*
X148873012Y-104250000D01*
X148905925Y-104192993D01*
X148940000Y-104065826D01*
X148940000Y-103934174D01*
X148905925Y-103807007D01*
X148873012Y-103750000D01*
X149461411Y-103750000D01*
X149414767Y-103596236D01*
X149317269Y-103413829D01*
X149186055Y-103253944D01*
X149026170Y-103122730D01*
X148843767Y-103025234D01*
X148843761Y-103025231D01*
X148690000Y-102978588D01*
X148690000Y-103566988D01*
X148632993Y-103534075D01*
X148505826Y-103500000D01*
X148374174Y-103500000D01*
X148247007Y-103534075D01*
X148190000Y-103566988D01*
X148190000Y-102978588D01*
X148036238Y-103025231D01*
X148036232Y-103025234D01*
X147853829Y-103122730D01*
X147693944Y-103253944D01*
X147562730Y-103413829D01*
X147465232Y-103596236D01*
X147418588Y-103750000D01*
X146921933Y-103750000D01*
X146875232Y-103596046D01*
X146851491Y-103551630D01*
X146777686Y-103413551D01*
X146741989Y-103370054D01*
X146646410Y-103253590D01*
X146535094Y-103162236D01*
X146486448Y-103122313D01*
X146303955Y-103024768D01*
X146105933Y-102964699D01*
X145900000Y-102944417D01*
X145694066Y-102964699D01*
X145496044Y-103024768D01*
X145313551Y-103122313D01*
X145153590Y-103253590D01*
X145022313Y-103413551D01*
X144924768Y-103596044D01*
X144864699Y-103794066D01*
X144844417Y-104000000D01*
X144415583Y-104000000D01*
X144395300Y-103794066D01*
X144335232Y-103596046D01*
X144311491Y-103551630D01*
X144237686Y-103413551D01*
X144201989Y-103370054D01*
X144106410Y-103253590D01*
X143995094Y-103162236D01*
X143946448Y-103122313D01*
X143763955Y-103024768D01*
X143565933Y-102964699D01*
X143360000Y-102944417D01*
X143154066Y-102964699D01*
X142956044Y-103024768D01*
X142773551Y-103122313D01*
X142613590Y-103253590D01*
X142482313Y-103413551D01*
X142384768Y-103596044D01*
X142324699Y-103794066D01*
X142304417Y-104000000D01*
X141870500Y-104000000D01*
X141870500Y-103130252D01*
X141868136Y-103118369D01*
X141865871Y-103106984D01*
X141858867Y-103071769D01*
X141827771Y-103025231D01*
X141814552Y-103005447D01*
X141748232Y-102961133D01*
X141689750Y-102949500D01*
X141689748Y-102949500D01*
X139950252Y-102949500D01*
X139950250Y-102949500D01*
X139891767Y-102961133D01*
X139825447Y-103005447D01*
X139781133Y-103071767D01*
X139769500Y-103130250D01*
X133680086Y-103130250D01*
X133686602Y-103122730D01*
X133690375Y-103118376D01*
X133690379Y-103118369D01*
X133750163Y-102987462D01*
X133750163Y-102987460D01*
X133750165Y-102987457D01*
X133770647Y-102845000D01*
X133750165Y-102702543D01*
X133750163Y-102702540D01*
X133750163Y-102702537D01*
X133690379Y-102571630D01*
X133690375Y-102571623D01*
X133596128Y-102462857D01*
X133596127Y-102462856D01*
X133535590Y-102423952D01*
X133475053Y-102385047D01*
X133475050Y-102385046D01*
X133475048Y-102385045D01*
X133336962Y-102344500D01*
X133336961Y-102344500D01*
X133193039Y-102344500D01*
X133193038Y-102344500D01*
X133054951Y-102385045D01*
X133054945Y-102385048D01*
X132933872Y-102462856D01*
X132933871Y-102462857D01*
X132839624Y-102571623D01*
X132839620Y-102571630D01*
X132779836Y-102702537D01*
X132779835Y-102702541D01*
X132759353Y-102845000D01*
X127777563Y-102845000D01*
X127848901Y-102743936D01*
X127981104Y-102488797D01*
X128077334Y-102218032D01*
X128129914Y-101965000D01*
X134684353Y-101965000D01*
X134704835Y-102107458D01*
X134704836Y-102107462D01*
X134764620Y-102238369D01*
X134764624Y-102238376D01*
X134856582Y-102344500D01*
X134858872Y-102347143D01*
X134979947Y-102424953D01*
X135031423Y-102440067D01*
X135118038Y-102465500D01*
X135118039Y-102465500D01*
X135261962Y-102465500D01*
X135315189Y-102449870D01*
X135400053Y-102424953D01*
X135521128Y-102347143D01*
X135576834Y-102282854D01*
X135615375Y-102238376D01*
X135615379Y-102238369D01*
X135675163Y-102107462D01*
X135675163Y-102107460D01*
X135675165Y-102107457D01*
X135695647Y-101965000D01*
X135675165Y-101822543D01*
X135675163Y-101822540D01*
X135675163Y-101822537D01*
X135615379Y-101691630D01*
X135615375Y-101691623D01*
X135521128Y-101582857D01*
X135521127Y-101582856D01*
X135460590Y-101543952D01*
X135400053Y-101505047D01*
X135400050Y-101505046D01*
X135400048Y-101505045D01*
X135261962Y-101464500D01*
X135261961Y-101464500D01*
X135118039Y-101464500D01*
X135118038Y-101464500D01*
X134979951Y-101505045D01*
X134979945Y-101505048D01*
X134858872Y-101582856D01*
X134858871Y-101582857D01*
X134764624Y-101691623D01*
X134764620Y-101691630D01*
X134704836Y-101822537D01*
X134704835Y-101822541D01*
X134684353Y-101965000D01*
X128129914Y-101965000D01*
X128135798Y-101936686D01*
X128155408Y-101650000D01*
X128135798Y-101363314D01*
X128077334Y-101081968D01*
X127981104Y-100811203D01*
X127901483Y-100657543D01*
X127848901Y-100556064D01*
X127683194Y-100321309D01*
X127683193Y-100321308D01*
X127683189Y-100321302D01*
X127487053Y-100111292D01*
X127487051Y-100111291D01*
X127487049Y-100111288D01*
X127264147Y-99929945D01*
X127264142Y-99929941D01*
X127018622Y-99780637D01*
X127018621Y-99780636D01*
X126763908Y-99670000D01*
X132724353Y-99670000D01*
X132744835Y-99812458D01*
X132744836Y-99812462D01*
X132804620Y-99943369D01*
X132804624Y-99943376D01*
X132898871Y-100052142D01*
X132898872Y-100052143D01*
X133019947Y-100129953D01*
X133062532Y-100142457D01*
X133158038Y-100170500D01*
X133158039Y-100170500D01*
X133301962Y-100170500D01*
X133355189Y-100154870D01*
X133440053Y-100129953D01*
X133561128Y-100052143D01*
X133638841Y-99962457D01*
X133655375Y-99943376D01*
X133655379Y-99943369D01*
X133675187Y-99899996D01*
X137144750Y-99899996D01*
X137144750Y-99900003D01*
X137163669Y-100043709D01*
X137163670Y-100043711D01*
X137219137Y-100177622D01*
X137219139Y-100177626D01*
X137307377Y-100292620D01*
X137307379Y-100292622D01*
X137422373Y-100380860D01*
X137422377Y-100380862D01*
X137556288Y-100436329D01*
X137556290Y-100436330D01*
X137699997Y-100455250D01*
X137700000Y-100455250D01*
X137700003Y-100455250D01*
X137843709Y-100436330D01*
X137843711Y-100436329D01*
X137888307Y-100417857D01*
X137977625Y-100380861D01*
X138083656Y-100299500D01*
X138092620Y-100292622D01*
X138092622Y-100292620D01*
X138180860Y-100177626D01*
X138180859Y-100177626D01*
X138180861Y-100177625D01*
X138236330Y-100043709D01*
X138243077Y-99992462D01*
X138255250Y-99900003D01*
X138255250Y-99899996D01*
X138236330Y-99756290D01*
X138236329Y-99756288D01*
X138180862Y-99622377D01*
X138180860Y-99622373D01*
X138092622Y-99507379D01*
X138092620Y-99507377D01*
X137977626Y-99419139D01*
X137977622Y-99419137D01*
X137843711Y-99363670D01*
X137843709Y-99363669D01*
X137700003Y-99344750D01*
X137699997Y-99344750D01*
X137556290Y-99363669D01*
X137556288Y-99363670D01*
X137422377Y-99419137D01*
X137422373Y-99419139D01*
X137307379Y-99507377D01*
X137307377Y-99507379D01*
X137219139Y-99622373D01*
X137219137Y-99622377D01*
X137163670Y-99756288D01*
X137163669Y-99756290D01*
X137144750Y-99899996D01*
X133675187Y-99899996D01*
X133715163Y-99812462D01*
X133715163Y-99812460D01*
X133715165Y-99812457D01*
X133735647Y-99670000D01*
X133715165Y-99527543D01*
X133715163Y-99527540D01*
X133715163Y-99527537D01*
X133655379Y-99396630D01*
X133655375Y-99396623D01*
X133561128Y-99287857D01*
X133561127Y-99287856D01*
X133500590Y-99248952D01*
X133440053Y-99210047D01*
X133440050Y-99210046D01*
X133440048Y-99210045D01*
X133301962Y-99169500D01*
X133301961Y-99169500D01*
X133158039Y-99169500D01*
X133158038Y-99169500D01*
X133019951Y-99210045D01*
X133019945Y-99210048D01*
X132898872Y-99287856D01*
X132898871Y-99287857D01*
X132804624Y-99396623D01*
X132804620Y-99396630D01*
X132744836Y-99527537D01*
X132744835Y-99527541D01*
X132724353Y-99670000D01*
X126763908Y-99670000D01*
X126755056Y-99666155D01*
X126478355Y-99588628D01*
X126478349Y-99588627D01*
X126193685Y-99549500D01*
X126193678Y-99549500D01*
X125906322Y-99549500D01*
X125906314Y-99549500D01*
X125621650Y-99588627D01*
X125621644Y-99588628D01*
X125344943Y-99666155D01*
X125081378Y-99780636D01*
X125081377Y-99780637D01*
X124835857Y-99929941D01*
X124835852Y-99929945D01*
X124612950Y-100111288D01*
X124416815Y-100321297D01*
X124416805Y-100321309D01*
X124251098Y-100556064D01*
X124118900Y-100811193D01*
X124118895Y-100811204D01*
X124022666Y-101081969D01*
X124022663Y-101081977D01*
X123964202Y-101363312D01*
X123944592Y-101649998D01*
X106655408Y-101649998D01*
X106635798Y-101363314D01*
X106577334Y-101081968D01*
X106481104Y-100811203D01*
X106475299Y-100800000D01*
X109489353Y-100800000D01*
X109509835Y-100942458D01*
X109509836Y-100942462D01*
X109569620Y-101073369D01*
X109569624Y-101073376D01*
X109663871Y-101182142D01*
X109663872Y-101182143D01*
X109784947Y-101259953D01*
X109833564Y-101274228D01*
X109923038Y-101300500D01*
X109923039Y-101300500D01*
X110066962Y-101300500D01*
X110156436Y-101274228D01*
X110205053Y-101259953D01*
X110326128Y-101182143D01*
X110381834Y-101117854D01*
X110420375Y-101073376D01*
X110420379Y-101073369D01*
X110480163Y-100942462D01*
X110480163Y-100942460D01*
X110480165Y-100942457D01*
X110500647Y-100800000D01*
X110480165Y-100657543D01*
X110480163Y-100657540D01*
X110480163Y-100657537D01*
X110420379Y-100526630D01*
X110420375Y-100526623D01*
X110326128Y-100417857D01*
X110326127Y-100417856D01*
X110265040Y-100378598D01*
X110205053Y-100340047D01*
X110205050Y-100340046D01*
X110205048Y-100340045D01*
X110066962Y-100299500D01*
X110066961Y-100299500D01*
X109923039Y-100299500D01*
X109923038Y-100299500D01*
X109784951Y-100340045D01*
X109784945Y-100340048D01*
X109663872Y-100417856D01*
X109663871Y-100417857D01*
X109569624Y-100526623D01*
X109569620Y-100526630D01*
X109509836Y-100657537D01*
X109509835Y-100657541D01*
X109489353Y-100800000D01*
X106475299Y-100800000D01*
X106401483Y-100657543D01*
X106348901Y-100556064D01*
X106183194Y-100321309D01*
X106183193Y-100321308D01*
X106183189Y-100321302D01*
X105987053Y-100111292D01*
X105987051Y-100111291D01*
X105987049Y-100111288D01*
X105764147Y-99929945D01*
X105764142Y-99929941D01*
X105632685Y-99850000D01*
X111514353Y-99850000D01*
X111534835Y-99992458D01*
X111534836Y-99992462D01*
X111594620Y-100123369D01*
X111594624Y-100123376D01*
X111681107Y-100223182D01*
X111688872Y-100232143D01*
X111809947Y-100309953D01*
X111861423Y-100325067D01*
X111948038Y-100350500D01*
X111948039Y-100350500D01*
X112091962Y-100350500D01*
X112145189Y-100334870D01*
X112230053Y-100309953D01*
X112351128Y-100232143D01*
X112406834Y-100167854D01*
X112445375Y-100123376D01*
X112445379Y-100123369D01*
X112505163Y-99992462D01*
X112505163Y-99992460D01*
X112505165Y-99992457D01*
X112525647Y-99850000D01*
X112505165Y-99707543D01*
X112505163Y-99707540D01*
X112505163Y-99707537D01*
X112445379Y-99576630D01*
X112445375Y-99576623D01*
X112351128Y-99467857D01*
X112351127Y-99467856D01*
X112240296Y-99396630D01*
X112230053Y-99390047D01*
X112230050Y-99390046D01*
X112230048Y-99390045D01*
X112091962Y-99349500D01*
X112091961Y-99349500D01*
X111948039Y-99349500D01*
X111948038Y-99349500D01*
X111809951Y-99390045D01*
X111809945Y-99390048D01*
X111688872Y-99467856D01*
X111688871Y-99467857D01*
X111594624Y-99576623D01*
X111594620Y-99576630D01*
X111534836Y-99707537D01*
X111534835Y-99707541D01*
X111514353Y-99850000D01*
X105632685Y-99850000D01*
X105518622Y-99780637D01*
X105518621Y-99780636D01*
X105255056Y-99666155D01*
X104978355Y-99588628D01*
X104978349Y-99588627D01*
X104693685Y-99549500D01*
X104693678Y-99549500D01*
X104406322Y-99549500D01*
X104406314Y-99549500D01*
X104121650Y-99588627D01*
X104121644Y-99588628D01*
X103844943Y-99666155D01*
X103581378Y-99780636D01*
X103581377Y-99780637D01*
X103335857Y-99929941D01*
X103335852Y-99929945D01*
X103112950Y-100111288D01*
X102916815Y-100321297D01*
X102916805Y-100321309D01*
X102751098Y-100556064D01*
X102618900Y-100811193D01*
X102618895Y-100811204D01*
X102522666Y-101081969D01*
X102522663Y-101081977D01*
X102464202Y-101363312D01*
X102444592Y-101649998D01*
X92500000Y-101649998D01*
X92500000Y-101274228D01*
X92519707Y-101187885D01*
X92574926Y-101118644D01*
X92604286Y-101099213D01*
X92636152Y-101081968D01*
X92813904Y-100985773D01*
X93007851Y-100834818D01*
X93174307Y-100653999D01*
X93308730Y-100448249D01*
X93407455Y-100223180D01*
X93467787Y-99984930D01*
X93478968Y-99850000D01*
X93488083Y-99740004D01*
X93488083Y-99740000D01*
X94789336Y-99740000D01*
X94809950Y-99962459D01*
X94833068Y-100043711D01*
X94871088Y-100177341D01*
X94970672Y-100377330D01*
X94970676Y-100377337D01*
X95105306Y-100555615D01*
X95105310Y-100555620D01*
X95270406Y-100706126D01*
X95270408Y-100706128D01*
X95270412Y-100706131D01*
X95349483Y-100755089D01*
X95460354Y-100823738D01*
X95460356Y-100823739D01*
X95460361Y-100823742D01*
X95668686Y-100904448D01*
X95888294Y-100945500D01*
X95888296Y-100945500D01*
X96111704Y-100945500D01*
X96111706Y-100945500D01*
X96331314Y-100904448D01*
X96539639Y-100823742D01*
X96729588Y-100706131D01*
X96894691Y-100555619D01*
X97029327Y-100377332D01*
X97128911Y-100177342D01*
X97179369Y-100000000D01*
X99494353Y-100000000D01*
X99514835Y-100142458D01*
X99514836Y-100142462D01*
X99574620Y-100273369D01*
X99574624Y-100273376D01*
X99665800Y-100378598D01*
X99668872Y-100382143D01*
X99789947Y-100459953D01*
X99841423Y-100475067D01*
X99928038Y-100500500D01*
X99928039Y-100500500D01*
X100071962Y-100500500D01*
X100125189Y-100484870D01*
X100210053Y-100459953D01*
X100331128Y-100382143D01*
X100393680Y-100309954D01*
X100425375Y-100273376D01*
X100425379Y-100273369D01*
X100485163Y-100142462D01*
X100485163Y-100142460D01*
X100485165Y-100142457D01*
X100505647Y-100000000D01*
X100485165Y-99857543D01*
X100485163Y-99857540D01*
X100485163Y-99857537D01*
X100425379Y-99726630D01*
X100425375Y-99726623D01*
X100331128Y-99617857D01*
X100331127Y-99617856D01*
X100224762Y-99549500D01*
X100210053Y-99540047D01*
X100210050Y-99540046D01*
X100210048Y-99540045D01*
X100071962Y-99499500D01*
X100071961Y-99499500D01*
X99928039Y-99499500D01*
X99928038Y-99499500D01*
X99789951Y-99540045D01*
X99789945Y-99540048D01*
X99668872Y-99617856D01*
X99668871Y-99617857D01*
X99574624Y-99726623D01*
X99574620Y-99726630D01*
X99514836Y-99857537D01*
X99514835Y-99857541D01*
X99494353Y-100000000D01*
X97179369Y-100000000D01*
X97190050Y-99962459D01*
X97210664Y-99740000D01*
X97190050Y-99517541D01*
X97128911Y-99302658D01*
X97029327Y-99102668D01*
X97029324Y-99102664D01*
X97029323Y-99102662D01*
X96939569Y-98983810D01*
X96894691Y-98924381D01*
X96786774Y-98826001D01*
X96729593Y-98773873D01*
X96729585Y-98773867D01*
X96539645Y-98656261D01*
X96539643Y-98656260D01*
X96539640Y-98656259D01*
X96539639Y-98656258D01*
X96331314Y-98575552D01*
X96194623Y-98550000D01*
X116119353Y-98550000D01*
X116139835Y-98692458D01*
X116139836Y-98692462D01*
X116199620Y-98823369D01*
X116199624Y-98823376D01*
X116287146Y-98924381D01*
X116293872Y-98932143D01*
X116414947Y-99009953D01*
X116466423Y-99025067D01*
X116553038Y-99050500D01*
X116553039Y-99050500D01*
X116696962Y-99050500D01*
X116760801Y-99031755D01*
X116835053Y-99009953D01*
X116956128Y-98932143D01*
X117048100Y-98826001D01*
X117050375Y-98823376D01*
X117050379Y-98823369D01*
X117110163Y-98692462D01*
X117110163Y-98692460D01*
X117110165Y-98692457D01*
X117130647Y-98550000D01*
X117110165Y-98407543D01*
X117110163Y-98407540D01*
X117110163Y-98407537D01*
X117050379Y-98276630D01*
X117050375Y-98276623D01*
X116956128Y-98167857D01*
X116956127Y-98167856D01*
X116895590Y-98128952D01*
X116835053Y-98090047D01*
X116835050Y-98090046D01*
X116835048Y-98090045D01*
X116696962Y-98049500D01*
X116696961Y-98049500D01*
X116553039Y-98049500D01*
X116553038Y-98049500D01*
X116414951Y-98090045D01*
X116414945Y-98090048D01*
X116293872Y-98167856D01*
X116293871Y-98167857D01*
X116199624Y-98276623D01*
X116199620Y-98276630D01*
X116139836Y-98407537D01*
X116139835Y-98407541D01*
X116119353Y-98550000D01*
X96194623Y-98550000D01*
X96111706Y-98534500D01*
X95888294Y-98534500D01*
X95668686Y-98575552D01*
X95488957Y-98645180D01*
X95460356Y-98656260D01*
X95460354Y-98656261D01*
X95270414Y-98773867D01*
X95270406Y-98773873D01*
X95105310Y-98924379D01*
X95105306Y-98924384D01*
X94970676Y-99102662D01*
X94970672Y-99102669D01*
X94871088Y-99302658D01*
X94824086Y-99467856D01*
X94809950Y-99517541D01*
X94807864Y-99540048D01*
X94790576Y-99726623D01*
X94789336Y-99740000D01*
X93488083Y-99740000D01*
X93488083Y-99739995D01*
X93467788Y-99495082D01*
X93467787Y-99495072D01*
X93467787Y-99495070D01*
X93407455Y-99256820D01*
X93308730Y-99031751D01*
X93174307Y-98826001D01*
X93007851Y-98645182D01*
X93007850Y-98645181D01*
X93007849Y-98645180D01*
X92813904Y-98494227D01*
X92813901Y-98494225D01*
X92604286Y-98380787D01*
X92537730Y-98322360D01*
X92503115Y-98240842D01*
X92500000Y-98205772D01*
X92500000Y-97749996D01*
X96394750Y-97749996D01*
X96394750Y-97750003D01*
X96413669Y-97893709D01*
X96413670Y-97893711D01*
X96469137Y-98027622D01*
X96469139Y-98027626D01*
X96557377Y-98142620D01*
X96557379Y-98142622D01*
X96672373Y-98230860D01*
X96672377Y-98230862D01*
X96806288Y-98286329D01*
X96806290Y-98286330D01*
X96949997Y-98305250D01*
X96950000Y-98305250D01*
X96950003Y-98305250D01*
X97093709Y-98286330D01*
X97093711Y-98286329D01*
X97117144Y-98276623D01*
X97227625Y-98230861D01*
X97342621Y-98142621D01*
X97430861Y-98027625D01*
X97463014Y-97950000D01*
X118094353Y-97950000D01*
X118114835Y-98092458D01*
X118114836Y-98092462D01*
X118174620Y-98223369D01*
X118174624Y-98223376D01*
X118238812Y-98297452D01*
X118268872Y-98332143D01*
X118389947Y-98409953D01*
X118441423Y-98425067D01*
X118528038Y-98450500D01*
X118528039Y-98450500D01*
X118671962Y-98450500D01*
X118725189Y-98434870D01*
X118810053Y-98409953D01*
X118931128Y-98332143D01*
X118996239Y-98257000D01*
X119025375Y-98223376D01*
X119025379Y-98223369D01*
X119085163Y-98092462D01*
X119085163Y-98092460D01*
X119085165Y-98092457D01*
X119105647Y-97950000D01*
X119085165Y-97807543D01*
X119085163Y-97807540D01*
X119085163Y-97807537D01*
X119025379Y-97676630D01*
X119025375Y-97676623D01*
X118931128Y-97567857D01*
X118931127Y-97567856D01*
X118825540Y-97500000D01*
X139494353Y-97500000D01*
X139514835Y-97642458D01*
X139514836Y-97642462D01*
X139574620Y-97773369D01*
X139574624Y-97773376D01*
X139668871Y-97882142D01*
X139668872Y-97882143D01*
X139789947Y-97959953D01*
X139841423Y-97975067D01*
X139928038Y-98000500D01*
X139928039Y-98000500D01*
X140071962Y-98000500D01*
X140125189Y-97984870D01*
X140210053Y-97959953D01*
X140331128Y-97882143D01*
X140395769Y-97807543D01*
X140425375Y-97773376D01*
X140425379Y-97773369D01*
X140485163Y-97642462D01*
X140485163Y-97642460D01*
X140485165Y-97642457D01*
X140505647Y-97500000D01*
X140485165Y-97357543D01*
X140485163Y-97357540D01*
X140485163Y-97357537D01*
X140425379Y-97226630D01*
X140425375Y-97226623D01*
X140331128Y-97117857D01*
X140331127Y-97117856D01*
X140270590Y-97078952D01*
X140210053Y-97040047D01*
X140210050Y-97040046D01*
X140210048Y-97040045D01*
X140071962Y-96999500D01*
X140071961Y-96999500D01*
X139928039Y-96999500D01*
X139928038Y-96999500D01*
X139789951Y-97040045D01*
X139789945Y-97040048D01*
X139668872Y-97117856D01*
X139668871Y-97117857D01*
X139574624Y-97226623D01*
X139574620Y-97226630D01*
X139514836Y-97357537D01*
X139514835Y-97357541D01*
X139494353Y-97500000D01*
X118825540Y-97500000D01*
X118810053Y-97490047D01*
X118810050Y-97490046D01*
X118810048Y-97490045D01*
X118671962Y-97449500D01*
X118671961Y-97449500D01*
X118528039Y-97449500D01*
X118528038Y-97449500D01*
X118389951Y-97490045D01*
X118389945Y-97490048D01*
X118268872Y-97567856D01*
X118268871Y-97567857D01*
X118174624Y-97676623D01*
X118174620Y-97676630D01*
X118114836Y-97807537D01*
X118114835Y-97807541D01*
X118094353Y-97950000D01*
X97463014Y-97950000D01*
X97486330Y-97893709D01*
X97497674Y-97807543D01*
X97505250Y-97750003D01*
X97505250Y-97749996D01*
X97486330Y-97606290D01*
X97486329Y-97606288D01*
X97430862Y-97472377D01*
X97430860Y-97472373D01*
X97342622Y-97357379D01*
X97342620Y-97357377D01*
X97227626Y-97269139D01*
X97227622Y-97269137D01*
X97093711Y-97213670D01*
X97093709Y-97213669D01*
X96950003Y-97194750D01*
X96949997Y-97194750D01*
X96806290Y-97213669D01*
X96806288Y-97213670D01*
X96672377Y-97269137D01*
X96672373Y-97269139D01*
X96557379Y-97357377D01*
X96557377Y-97357379D01*
X96469139Y-97472373D01*
X96469137Y-97472377D01*
X96413670Y-97606288D01*
X96413669Y-97606290D01*
X96394750Y-97749996D01*
X92500000Y-97749996D01*
X92500000Y-95434996D01*
X98429750Y-95434996D01*
X98429750Y-95435003D01*
X98448669Y-95578709D01*
X98448670Y-95578711D01*
X98504137Y-95712622D01*
X98504139Y-95712626D01*
X98592377Y-95827620D01*
X98592379Y-95827622D01*
X98707373Y-95915860D01*
X98707377Y-95915862D01*
X98841288Y-95971329D01*
X98841290Y-95971330D01*
X98984997Y-95990250D01*
X98985000Y-95990250D01*
X98985003Y-95990250D01*
X99128709Y-95971330D01*
X99128711Y-95971329D01*
X99262625Y-95915861D01*
X99377621Y-95827621D01*
X99465861Y-95712625D01*
X99521330Y-95578709D01*
X99535901Y-95468032D01*
X99538275Y-95450000D01*
X100444353Y-95450000D01*
X100464835Y-95592458D01*
X100464836Y-95592462D01*
X100524620Y-95723369D01*
X100524624Y-95723376D01*
X100618871Y-95832142D01*
X100618872Y-95832143D01*
X100739947Y-95909953D01*
X100791423Y-95925067D01*
X100878038Y-95950500D01*
X100878039Y-95950500D01*
X101021962Y-95950500D01*
X101075189Y-95934870D01*
X101160053Y-95909953D01*
X101281128Y-95832143D01*
X101336834Y-95767854D01*
X101375375Y-95723376D01*
X101375379Y-95723369D01*
X101435163Y-95592462D01*
X101435163Y-95592460D01*
X101435165Y-95592457D01*
X101455647Y-95450000D01*
X101435165Y-95307543D01*
X101435163Y-95307540D01*
X101435163Y-95307537D01*
X101375379Y-95176630D01*
X101375375Y-95176623D01*
X101281128Y-95067857D01*
X101281127Y-95067856D01*
X101175540Y-95000000D01*
X101160053Y-94990047D01*
X101160050Y-94990046D01*
X101160048Y-94990045D01*
X101021962Y-94949500D01*
X101021961Y-94949500D01*
X100878039Y-94949500D01*
X100878038Y-94949500D01*
X100739951Y-94990045D01*
X100739945Y-94990048D01*
X100618872Y-95067856D01*
X100618871Y-95067857D01*
X100524624Y-95176623D01*
X100524620Y-95176630D01*
X100464836Y-95307537D01*
X100464835Y-95307541D01*
X100444353Y-95450000D01*
X99538275Y-95450000D01*
X99540250Y-95435003D01*
X99540250Y-95434996D01*
X99521330Y-95291290D01*
X99521329Y-95291288D01*
X99465862Y-95157377D01*
X99465860Y-95157373D01*
X99377622Y-95042379D01*
X99377620Y-95042377D01*
X99262626Y-94954139D01*
X99262622Y-94954137D01*
X99131917Y-94899998D01*
X109194592Y-94899998D01*
X109194592Y-94900001D01*
X109214202Y-95186687D01*
X109272663Y-95468022D01*
X109272665Y-95468027D01*
X109272666Y-95468032D01*
X109341065Y-95660490D01*
X109368895Y-95738795D01*
X109368900Y-95738806D01*
X109501098Y-95993935D01*
X109628938Y-96175045D01*
X109666811Y-96228698D01*
X109862947Y-96438708D01*
X109862950Y-96438711D01*
X110085852Y-96620054D01*
X110085857Y-96620058D01*
X110331377Y-96769362D01*
X110331378Y-96769363D01*
X110442301Y-96817543D01*
X110594942Y-96883844D01*
X110871642Y-96961371D01*
X110942963Y-96971174D01*
X111156314Y-97000499D01*
X111156316Y-97000499D01*
X111156322Y-97000500D01*
X111156324Y-97000500D01*
X111443676Y-97000500D01*
X111443678Y-97000500D01*
X111728358Y-96961371D01*
X112005058Y-96883844D01*
X112249984Y-96777458D01*
X112268621Y-96769363D01*
X112268621Y-96769362D01*
X112268625Y-96769361D01*
X112514147Y-96620055D01*
X112737053Y-96438708D01*
X112933189Y-96228698D01*
X113098901Y-95993936D01*
X113231104Y-95738797D01*
X113327334Y-95468032D01*
X113385798Y-95186686D01*
X113405408Y-94900000D01*
X113405408Y-94899998D01*
X117194592Y-94899998D01*
X117194592Y-94900001D01*
X117214202Y-95186687D01*
X117272663Y-95468022D01*
X117272665Y-95468027D01*
X117272666Y-95468032D01*
X117341065Y-95660490D01*
X117368895Y-95738795D01*
X117368900Y-95738806D01*
X117501098Y-95993935D01*
X117628938Y-96175045D01*
X117666811Y-96228698D01*
X117862947Y-96438708D01*
X117862950Y-96438711D01*
X118085852Y-96620054D01*
X118085857Y-96620058D01*
X118331377Y-96769362D01*
X118331378Y-96769363D01*
X118442301Y-96817543D01*
X118594942Y-96883844D01*
X118871642Y-96961371D01*
X118942963Y-96971174D01*
X119156314Y-97000499D01*
X119156316Y-97000499D01*
X119156322Y-97000500D01*
X119156324Y-97000500D01*
X119443676Y-97000500D01*
X119443678Y-97000500D01*
X119728358Y-96961371D01*
X119733251Y-96960000D01*
X125814353Y-96960000D01*
X125834835Y-97102458D01*
X125834836Y-97102462D01*
X125894620Y-97233369D01*
X125894624Y-97233376D01*
X125980206Y-97332142D01*
X125988872Y-97342143D01*
X126109947Y-97419953D01*
X126161423Y-97435067D01*
X126248038Y-97460500D01*
X126248039Y-97460500D01*
X126391962Y-97460500D01*
X126445189Y-97444870D01*
X126530053Y-97419953D01*
X126651128Y-97342143D01*
X126714388Y-97269137D01*
X126745375Y-97233376D01*
X126745376Y-97233374D01*
X126745375Y-97233374D01*
X126745377Y-97233373D01*
X126757812Y-97206144D01*
X126811603Y-97135793D01*
X126890595Y-97095746D01*
X126979140Y-97093938D01*
X126994884Y-97097870D01*
X127123039Y-97135500D01*
X127266962Y-97135500D01*
X127327052Y-97117856D01*
X127405053Y-97094953D01*
X127526128Y-97017143D01*
X127584307Y-96950000D01*
X134459353Y-96950000D01*
X134479835Y-97092458D01*
X134479836Y-97092462D01*
X134539620Y-97223369D01*
X134539624Y-97223376D01*
X134633871Y-97332142D01*
X134633872Y-97332143D01*
X134754947Y-97409953D01*
X134789004Y-97419953D01*
X134893038Y-97450500D01*
X134893039Y-97450500D01*
X135036962Y-97450500D01*
X135090189Y-97434870D01*
X135175053Y-97409953D01*
X135296128Y-97332143D01*
X135351834Y-97267854D01*
X135390375Y-97223376D01*
X135390379Y-97223369D01*
X135450163Y-97092462D01*
X135450163Y-97092460D01*
X135450165Y-97092457D01*
X135470647Y-96950000D01*
X135450165Y-96807543D01*
X135450163Y-96807540D01*
X135450163Y-96807537D01*
X135390379Y-96676630D01*
X135390375Y-96676623D01*
X135296128Y-96567857D01*
X135296127Y-96567856D01*
X135235590Y-96528952D01*
X135175053Y-96490047D01*
X135175050Y-96490046D01*
X135175048Y-96490045D01*
X135036962Y-96449500D01*
X135036961Y-96449500D01*
X134893039Y-96449500D01*
X134893038Y-96449500D01*
X134754951Y-96490045D01*
X134754945Y-96490048D01*
X134633872Y-96567856D01*
X134633871Y-96567857D01*
X134539624Y-96676623D01*
X134539620Y-96676630D01*
X134479836Y-96807537D01*
X134479835Y-96807541D01*
X134459353Y-96950000D01*
X127584307Y-96950000D01*
X127620375Y-96908376D01*
X127620379Y-96908369D01*
X127680163Y-96777462D01*
X127680163Y-96777460D01*
X127680165Y-96777457D01*
X127700647Y-96635000D01*
X127680165Y-96492543D01*
X127680163Y-96492540D01*
X127680163Y-96492537D01*
X127620379Y-96361630D01*
X127620375Y-96361623D01*
X127526128Y-96252857D01*
X127526127Y-96252856D01*
X127465590Y-96213952D01*
X127405053Y-96175047D01*
X127405050Y-96175046D01*
X127405048Y-96175045D01*
X127266962Y-96134500D01*
X127266961Y-96134500D01*
X127123039Y-96134500D01*
X127123038Y-96134500D01*
X126984951Y-96175045D01*
X126984945Y-96175048D01*
X126863872Y-96252856D01*
X126863871Y-96252857D01*
X126769624Y-96361623D01*
X126769623Y-96361626D01*
X126757187Y-96388857D01*
X126703391Y-96459210D01*
X126624398Y-96499255D01*
X126535853Y-96501060D01*
X126520107Y-96497126D01*
X126391962Y-96459500D01*
X126391961Y-96459500D01*
X126248039Y-96459500D01*
X126248038Y-96459500D01*
X126109951Y-96500045D01*
X126109945Y-96500048D01*
X125988872Y-96577856D01*
X125988871Y-96577857D01*
X125894624Y-96686623D01*
X125894620Y-96686630D01*
X125834836Y-96817537D01*
X125834835Y-96817541D01*
X125814353Y-96960000D01*
X119733251Y-96960000D01*
X120005058Y-96883844D01*
X120249984Y-96777458D01*
X120268621Y-96769363D01*
X120268621Y-96769362D01*
X120268625Y-96769361D01*
X120514147Y-96620055D01*
X120737053Y-96438708D01*
X120933189Y-96228698D01*
X121098901Y-95993936D01*
X121231104Y-95738797D01*
X121327334Y-95468032D01*
X121385798Y-95186686D01*
X121398568Y-95000000D01*
X141994353Y-95000000D01*
X142014835Y-95142458D01*
X142014836Y-95142462D01*
X142074620Y-95273369D01*
X142074624Y-95273376D01*
X142168871Y-95382142D01*
X142168872Y-95382143D01*
X142289947Y-95459953D01*
X142317428Y-95468022D01*
X142428038Y-95500500D01*
X142428039Y-95500500D01*
X142571962Y-95500500D01*
X142625189Y-95484870D01*
X142710053Y-95459953D01*
X142831128Y-95382143D01*
X142895769Y-95307543D01*
X142925375Y-95273376D01*
X142925379Y-95273369D01*
X142985163Y-95142462D01*
X142985163Y-95142460D01*
X142985165Y-95142457D01*
X143005647Y-95000000D01*
X142985165Y-94857543D01*
X142985163Y-94857540D01*
X142985163Y-94857537D01*
X142925379Y-94726630D01*
X142925375Y-94726623D01*
X142831128Y-94617857D01*
X142831127Y-94617856D01*
X142770590Y-94578952D01*
X142710053Y-94540047D01*
X142710050Y-94540046D01*
X142710048Y-94540045D01*
X142571962Y-94499500D01*
X142571961Y-94499500D01*
X142428039Y-94499500D01*
X142428038Y-94499500D01*
X142289951Y-94540045D01*
X142289945Y-94540048D01*
X142168872Y-94617856D01*
X142168871Y-94617857D01*
X142074624Y-94726623D01*
X142074620Y-94726630D01*
X142014836Y-94857537D01*
X142014835Y-94857541D01*
X141994353Y-95000000D01*
X121398568Y-95000000D01*
X121405408Y-94900000D01*
X121385798Y-94613314D01*
X121327334Y-94331968D01*
X121231104Y-94061203D01*
X121146660Y-93898235D01*
X128601118Y-93898235D01*
X128621600Y-94040693D01*
X128621601Y-94040697D01*
X128681385Y-94171604D01*
X128681389Y-94171611D01*
X128775636Y-94280377D01*
X128775637Y-94280378D01*
X128896712Y-94358188D01*
X128948188Y-94373302D01*
X129034803Y-94398735D01*
X129034804Y-94398735D01*
X129178727Y-94398735D01*
X129231954Y-94383105D01*
X129316818Y-94358188D01*
X129437893Y-94280378D01*
X129493599Y-94216089D01*
X129532140Y-94171611D01*
X129532144Y-94171604D01*
X129591928Y-94040697D01*
X129591928Y-94040695D01*
X129591930Y-94040692D01*
X129612412Y-93898235D01*
X129591930Y-93755778D01*
X129591928Y-93755775D01*
X129591928Y-93755772D01*
X129532144Y-93624865D01*
X129532140Y-93624858D01*
X129437893Y-93516092D01*
X129437892Y-93516091D01*
X129377355Y-93477187D01*
X129316818Y-93438282D01*
X129316815Y-93438281D01*
X129316813Y-93438280D01*
X129178727Y-93397735D01*
X129178726Y-93397735D01*
X129034804Y-93397735D01*
X129034803Y-93397735D01*
X128896716Y-93438280D01*
X128896710Y-93438283D01*
X128775637Y-93516091D01*
X128775636Y-93516092D01*
X128681389Y-93624858D01*
X128681385Y-93624865D01*
X128621601Y-93755772D01*
X128621600Y-93755776D01*
X128601118Y-93898235D01*
X121146660Y-93898235D01*
X121098901Y-93806064D01*
X120933189Y-93571302D01*
X120737053Y-93361292D01*
X120737051Y-93361291D01*
X120737049Y-93361288D01*
X120514147Y-93179945D01*
X120514142Y-93179941D01*
X120268622Y-93030637D01*
X120268621Y-93030636D01*
X120005056Y-92916155D01*
X119728355Y-92838628D01*
X119728349Y-92838627D01*
X119443685Y-92799500D01*
X119443678Y-92799500D01*
X119156322Y-92799500D01*
X119156314Y-92799500D01*
X118871650Y-92838627D01*
X118871644Y-92838628D01*
X118594943Y-92916155D01*
X118331378Y-93030636D01*
X118331377Y-93030637D01*
X118085857Y-93179941D01*
X118085852Y-93179945D01*
X117862950Y-93361288D01*
X117666815Y-93571297D01*
X117666805Y-93571309D01*
X117501098Y-93806064D01*
X117368900Y-94061193D01*
X117368895Y-94061204D01*
X117329659Y-94171604D01*
X117291002Y-94280377D01*
X117272666Y-94331969D01*
X117272663Y-94331977D01*
X117214202Y-94613312D01*
X117194592Y-94899998D01*
X113405408Y-94899998D01*
X113385798Y-94613314D01*
X113327334Y-94331968D01*
X113231104Y-94061203D01*
X113098901Y-93806064D01*
X112933189Y-93571302D01*
X112737053Y-93361292D01*
X112737051Y-93361291D01*
X112737049Y-93361288D01*
X112514147Y-93179945D01*
X112514142Y-93179941D01*
X112268622Y-93030637D01*
X112268621Y-93030636D01*
X112005056Y-92916155D01*
X111728355Y-92838628D01*
X111728349Y-92838627D01*
X111443685Y-92799500D01*
X111443678Y-92799500D01*
X111156322Y-92799500D01*
X111156314Y-92799500D01*
X110871650Y-92838627D01*
X110871644Y-92838628D01*
X110594943Y-92916155D01*
X110331378Y-93030636D01*
X110331377Y-93030637D01*
X110085857Y-93179941D01*
X110085852Y-93179945D01*
X109862950Y-93361288D01*
X109666815Y-93571297D01*
X109666805Y-93571309D01*
X109501098Y-93806064D01*
X109368900Y-94061193D01*
X109368895Y-94061204D01*
X109329659Y-94171604D01*
X109291002Y-94280377D01*
X109272666Y-94331969D01*
X109272663Y-94331977D01*
X109214202Y-94613312D01*
X109194592Y-94899998D01*
X99131917Y-94899998D01*
X99128711Y-94898670D01*
X99128709Y-94898669D01*
X98985003Y-94879750D01*
X98984997Y-94879750D01*
X98841290Y-94898669D01*
X98841288Y-94898670D01*
X98707377Y-94954137D01*
X98707373Y-94954139D01*
X98592379Y-95042377D01*
X98592377Y-95042379D01*
X98504139Y-95157373D01*
X98504137Y-95157377D01*
X98448670Y-95291288D01*
X98448669Y-95291290D01*
X98429750Y-95434996D01*
X92500000Y-95434996D01*
X92500000Y-92760000D01*
X100454353Y-92760000D01*
X100474835Y-92902458D01*
X100474836Y-92902462D01*
X100534620Y-93033369D01*
X100534624Y-93033376D01*
X100628871Y-93142142D01*
X100628872Y-93142143D01*
X100749947Y-93219953D01*
X100801423Y-93235067D01*
X100888038Y-93260500D01*
X100888039Y-93260500D01*
X101031962Y-93260500D01*
X101085189Y-93244870D01*
X101170053Y-93219953D01*
X101291128Y-93142143D01*
X101346834Y-93077854D01*
X101385375Y-93033376D01*
X101385379Y-93033369D01*
X101445163Y-92902462D01*
X101445163Y-92902460D01*
X101445165Y-92902457D01*
X101465647Y-92760000D01*
X101445165Y-92617543D01*
X101445163Y-92617540D01*
X101445163Y-92617537D01*
X101391485Y-92500000D01*
X133094353Y-92500000D01*
X133114835Y-92642458D01*
X133114836Y-92642462D01*
X133174620Y-92773369D01*
X133174624Y-92773376D01*
X133268871Y-92882142D01*
X133268872Y-92882143D01*
X133389947Y-92959953D01*
X133441423Y-92975067D01*
X133528038Y-93000500D01*
X133528039Y-93000500D01*
X133671962Y-93000500D01*
X133725189Y-92984870D01*
X133810053Y-92959953D01*
X133931128Y-92882143D01*
X134002738Y-92799500D01*
X134025375Y-92773376D01*
X134025379Y-92773369D01*
X134085163Y-92642462D01*
X134085163Y-92642460D01*
X134085165Y-92642457D01*
X134105647Y-92500000D01*
X144494353Y-92500000D01*
X144514835Y-92642458D01*
X144514836Y-92642462D01*
X144574620Y-92773369D01*
X144574624Y-92773376D01*
X144668871Y-92882142D01*
X144668872Y-92882143D01*
X144789947Y-92959953D01*
X144841423Y-92975067D01*
X144928038Y-93000500D01*
X144928039Y-93000500D01*
X145071962Y-93000500D01*
X145125189Y-92984870D01*
X145210053Y-92959953D01*
X145331128Y-92882143D01*
X145402738Y-92799500D01*
X145425375Y-92773376D01*
X145425379Y-92773369D01*
X145485163Y-92642462D01*
X145485163Y-92642460D01*
X145485165Y-92642457D01*
X145505647Y-92500000D01*
X145485165Y-92357543D01*
X145485163Y-92357540D01*
X145485163Y-92357537D01*
X145425379Y-92226630D01*
X145425375Y-92226623D01*
X145331128Y-92117857D01*
X145331127Y-92117856D01*
X145270590Y-92078952D01*
X145210053Y-92040047D01*
X145210050Y-92040046D01*
X145210048Y-92040045D01*
X145071962Y-91999500D01*
X145071961Y-91999500D01*
X144928039Y-91999500D01*
X144928038Y-91999500D01*
X144789951Y-92040045D01*
X144789945Y-92040048D01*
X144668872Y-92117856D01*
X144668871Y-92117857D01*
X144574624Y-92226623D01*
X144574620Y-92226630D01*
X144514836Y-92357537D01*
X144514835Y-92357541D01*
X144494353Y-92500000D01*
X134105647Y-92500000D01*
X134085165Y-92357543D01*
X134085163Y-92357540D01*
X134085163Y-92357537D01*
X134025379Y-92226630D01*
X134025375Y-92226623D01*
X133931128Y-92117857D01*
X133931127Y-92117856D01*
X133870590Y-92078952D01*
X133810053Y-92040047D01*
X133810050Y-92040046D01*
X133810048Y-92040045D01*
X133671962Y-91999500D01*
X133671961Y-91999500D01*
X133528039Y-91999500D01*
X133528038Y-91999500D01*
X133389951Y-92040045D01*
X133389945Y-92040048D01*
X133268872Y-92117856D01*
X133268871Y-92117857D01*
X133174624Y-92226623D01*
X133174620Y-92226630D01*
X133114836Y-92357537D01*
X133114835Y-92357541D01*
X133094353Y-92500000D01*
X101391485Y-92500000D01*
X101385379Y-92486630D01*
X101385375Y-92486623D01*
X101291128Y-92377857D01*
X101291127Y-92377856D01*
X101200417Y-92319561D01*
X101170053Y-92300047D01*
X101170050Y-92300046D01*
X101170048Y-92300045D01*
X101031962Y-92259500D01*
X101031961Y-92259500D01*
X100888039Y-92259500D01*
X100888038Y-92259500D01*
X100749951Y-92300045D01*
X100749945Y-92300048D01*
X100628872Y-92377856D01*
X100628871Y-92377857D01*
X100534624Y-92486623D01*
X100534620Y-92486630D01*
X100474836Y-92617537D01*
X100474835Y-92617541D01*
X100454353Y-92760000D01*
X92500000Y-92760000D01*
X92500000Y-92024996D01*
X98744750Y-92024996D01*
X98744750Y-92025003D01*
X98763669Y-92168709D01*
X98763670Y-92168711D01*
X98819137Y-92302622D01*
X98819139Y-92302626D01*
X98907377Y-92417620D01*
X98907379Y-92417622D01*
X99022373Y-92505860D01*
X99022377Y-92505862D01*
X99156288Y-92561329D01*
X99156290Y-92561330D01*
X99299997Y-92580250D01*
X99300000Y-92580250D01*
X99300003Y-92580250D01*
X99443709Y-92561330D01*
X99443711Y-92561329D01*
X99577625Y-92505861D01*
X99692621Y-92417621D01*
X99780861Y-92302625D01*
X99836330Y-92168709D01*
X99843025Y-92117856D01*
X99855250Y-92025003D01*
X99855250Y-92024996D01*
X99836330Y-91881290D01*
X99836329Y-91881288D01*
X99780862Y-91747377D01*
X99780860Y-91747373D01*
X99692622Y-91632379D01*
X99692620Y-91632377D01*
X99577626Y-91544139D01*
X99577622Y-91544137D01*
X99443711Y-91488670D01*
X99443709Y-91488669D01*
X99300003Y-91469750D01*
X99299997Y-91469750D01*
X99156290Y-91488669D01*
X99156288Y-91488670D01*
X99022377Y-91544137D01*
X99022373Y-91544139D01*
X98907379Y-91632377D01*
X98907377Y-91632379D01*
X98819139Y-91747373D01*
X98819137Y-91747377D01*
X98763670Y-91881288D01*
X98763669Y-91881290D01*
X98744750Y-92024996D01*
X92500000Y-92024996D01*
X92500000Y-90449996D01*
X96394750Y-90449996D01*
X96394750Y-90450003D01*
X96413669Y-90593709D01*
X96413670Y-90593711D01*
X96469137Y-90727622D01*
X96469139Y-90727626D01*
X96557377Y-90842620D01*
X96557379Y-90842622D01*
X96672373Y-90930860D01*
X96672377Y-90930862D01*
X96806288Y-90986329D01*
X96806290Y-90986330D01*
X96949997Y-91005250D01*
X96950000Y-91005250D01*
X96950003Y-91005250D01*
X97093709Y-90986330D01*
X97093711Y-90986329D01*
X97121062Y-90975000D01*
X128869353Y-90975000D01*
X128889835Y-91117458D01*
X128889836Y-91117462D01*
X128949620Y-91248369D01*
X128949624Y-91248376D01*
X129013747Y-91322377D01*
X129043872Y-91357143D01*
X129164947Y-91434953D01*
X129216423Y-91450067D01*
X129303038Y-91475500D01*
X129303039Y-91475500D01*
X129446962Y-91475500D01*
X129500189Y-91459870D01*
X129585053Y-91434953D01*
X129706128Y-91357143D01*
X129778718Y-91273369D01*
X129800375Y-91248376D01*
X129800379Y-91248369D01*
X129860163Y-91117462D01*
X129860163Y-91117460D01*
X129860165Y-91117457D01*
X129877053Y-91000000D01*
X133094353Y-91000000D01*
X133114835Y-91142458D01*
X133114836Y-91142462D01*
X133174620Y-91273369D01*
X133174624Y-91273376D01*
X133268871Y-91382142D01*
X133268872Y-91382143D01*
X133389947Y-91459953D01*
X133423313Y-91469750D01*
X133528038Y-91500500D01*
X133528039Y-91500500D01*
X133671962Y-91500500D01*
X133757104Y-91475500D01*
X133810053Y-91459953D01*
X133931128Y-91382143D01*
X133986834Y-91317854D01*
X134025375Y-91273376D01*
X134025379Y-91273369D01*
X134085163Y-91142462D01*
X134085163Y-91142460D01*
X134085165Y-91142457D01*
X134105647Y-91000000D01*
X134085165Y-90857543D01*
X134085163Y-90857540D01*
X134085163Y-90857537D01*
X134025379Y-90726630D01*
X134025375Y-90726623D01*
X133931128Y-90617857D01*
X133931127Y-90617856D01*
X133870590Y-90578952D01*
X133810053Y-90540047D01*
X133810050Y-90540046D01*
X133810048Y-90540045D01*
X133671962Y-90499500D01*
X133671961Y-90499500D01*
X133528039Y-90499500D01*
X133528038Y-90499500D01*
X133389951Y-90540045D01*
X133389945Y-90540048D01*
X133268872Y-90617856D01*
X133268871Y-90617857D01*
X133174624Y-90726623D01*
X133174620Y-90726630D01*
X133114836Y-90857537D01*
X133114835Y-90857541D01*
X133094353Y-91000000D01*
X129877053Y-91000000D01*
X129880647Y-90975000D01*
X129860165Y-90832543D01*
X129860163Y-90832540D01*
X129860163Y-90832537D01*
X129800379Y-90701630D01*
X129800375Y-90701623D01*
X129706128Y-90592857D01*
X129706127Y-90592856D01*
X129623951Y-90540045D01*
X129585053Y-90515047D01*
X129585050Y-90515046D01*
X129585048Y-90515045D01*
X129446962Y-90474500D01*
X129446961Y-90474500D01*
X129303039Y-90474500D01*
X129303038Y-90474500D01*
X129164951Y-90515045D01*
X129164945Y-90515048D01*
X129043872Y-90592856D01*
X129043871Y-90592857D01*
X128949624Y-90701623D01*
X128949620Y-90701630D01*
X128889836Y-90832537D01*
X128889835Y-90832541D01*
X128869353Y-90975000D01*
X97121062Y-90975000D01*
X97158862Y-90959343D01*
X97227625Y-90930861D01*
X97303031Y-90873000D01*
X97342620Y-90842622D01*
X97342622Y-90842620D01*
X97430860Y-90727626D01*
X97430859Y-90727626D01*
X97430861Y-90727625D01*
X97486330Y-90593709D01*
X97496687Y-90515045D01*
X97505250Y-90450003D01*
X97505250Y-90449996D01*
X97486330Y-90306290D01*
X97486329Y-90306288D01*
X97430862Y-90172377D01*
X97430860Y-90172373D01*
X97342622Y-90057379D01*
X97342620Y-90057377D01*
X97227626Y-89969139D01*
X97227622Y-89969137D01*
X97093711Y-89913670D01*
X97093709Y-89913669D01*
X96950003Y-89894750D01*
X96949997Y-89894750D01*
X96806290Y-89913669D01*
X96806288Y-89913670D01*
X96672377Y-89969137D01*
X96672373Y-89969139D01*
X96557379Y-90057377D01*
X96557377Y-90057379D01*
X96469139Y-90172373D01*
X96469137Y-90172377D01*
X96413670Y-90306288D01*
X96413669Y-90306290D01*
X96394750Y-90449996D01*
X92500000Y-90449996D01*
X92500000Y-90034228D01*
X92519707Y-89947885D01*
X92574926Y-89878644D01*
X92604286Y-89859213D01*
X92607383Y-89857537D01*
X92813904Y-89745773D01*
X93007851Y-89594818D01*
X93174307Y-89413999D01*
X93308730Y-89208249D01*
X93407455Y-88983180D01*
X93467787Y-88744930D01*
X93485970Y-88525500D01*
X93488083Y-88500004D01*
X93488083Y-88500000D01*
X94789336Y-88500000D01*
X94809950Y-88722459D01*
X94816340Y-88744917D01*
X94871088Y-88937341D01*
X94970672Y-89137330D01*
X94970676Y-89137337D01*
X95105306Y-89315615D01*
X95105310Y-89315620D01*
X95270406Y-89466126D01*
X95270408Y-89466128D01*
X95270412Y-89466131D01*
X95290715Y-89478702D01*
X95460354Y-89583738D01*
X95460356Y-89583739D01*
X95460361Y-89583742D01*
X95668686Y-89664448D01*
X95888294Y-89705500D01*
X95888296Y-89705500D01*
X96111704Y-89705500D01*
X96111706Y-89705500D01*
X96331314Y-89664448D01*
X96539639Y-89583742D01*
X96729588Y-89466131D01*
X96894691Y-89315619D01*
X97029327Y-89137332D01*
X97128911Y-88937342D01*
X97190050Y-88722459D01*
X97210664Y-88500000D01*
X97209269Y-88484951D01*
X97204797Y-88436686D01*
X97190050Y-88277541D01*
X97153761Y-88149998D01*
X102444592Y-88149998D01*
X102444592Y-88150001D01*
X102464202Y-88436687D01*
X102522663Y-88718022D01*
X102522665Y-88718027D01*
X102522666Y-88718032D01*
X102532226Y-88744930D01*
X102618895Y-88988795D01*
X102618900Y-88988806D01*
X102751098Y-89243935D01*
X102907936Y-89466126D01*
X102916811Y-89478698D01*
X103015235Y-89584084D01*
X103112950Y-89688711D01*
X103280126Y-89824718D01*
X103322526Y-89859213D01*
X103335852Y-89870054D01*
X103335857Y-89870058D01*
X103498789Y-89969139D01*
X103549537Y-90000000D01*
X103581377Y-90019362D01*
X103581378Y-90019363D01*
X103668901Y-90057379D01*
X103844942Y-90133844D01*
X104121642Y-90211371D01*
X104263982Y-90230935D01*
X104406314Y-90250499D01*
X104406316Y-90250499D01*
X104406322Y-90250500D01*
X104406324Y-90250500D01*
X104693676Y-90250500D01*
X104693678Y-90250500D01*
X104978358Y-90211371D01*
X105255058Y-90133844D01*
X105484398Y-90034228D01*
X105518621Y-90019363D01*
X105518621Y-90019362D01*
X105518625Y-90019361D01*
X105550463Y-90000000D01*
X109494353Y-90000000D01*
X109514835Y-90142458D01*
X109514836Y-90142462D01*
X109574620Y-90273369D01*
X109574624Y-90273376D01*
X109668871Y-90382142D01*
X109668872Y-90382143D01*
X109789947Y-90459953D01*
X109839490Y-90474500D01*
X109928038Y-90500500D01*
X109928039Y-90500500D01*
X110071962Y-90500500D01*
X110125189Y-90484870D01*
X110210053Y-90459953D01*
X110331128Y-90382143D01*
X110396854Y-90306291D01*
X110425375Y-90273376D01*
X110425379Y-90273369D01*
X110485163Y-90142462D01*
X110485163Y-90142460D01*
X110485165Y-90142457D01*
X110505647Y-90000000D01*
X114494353Y-90000000D01*
X114514835Y-90142458D01*
X114514836Y-90142462D01*
X114574620Y-90273369D01*
X114574624Y-90273376D01*
X114668871Y-90382142D01*
X114668872Y-90382143D01*
X114789947Y-90459953D01*
X114839490Y-90474500D01*
X114928038Y-90500500D01*
X114928039Y-90500500D01*
X115071962Y-90500500D01*
X115125189Y-90484870D01*
X115210053Y-90459953D01*
X115331128Y-90382143D01*
X115396854Y-90306291D01*
X115425375Y-90273376D01*
X115425379Y-90273369D01*
X115485163Y-90142462D01*
X115485163Y-90142460D01*
X115485165Y-90142457D01*
X115505647Y-90000000D01*
X115485165Y-89857543D01*
X115485163Y-89857540D01*
X115485163Y-89857537D01*
X115425379Y-89726630D01*
X115425375Y-89726623D01*
X115331128Y-89617857D01*
X115331127Y-89617856D01*
X115270590Y-89578952D01*
X115210053Y-89540047D01*
X115210050Y-89540046D01*
X115210048Y-89540045D01*
X115071962Y-89499500D01*
X115071961Y-89499500D01*
X114928039Y-89499500D01*
X114928038Y-89499500D01*
X114789951Y-89540045D01*
X114789945Y-89540048D01*
X114668872Y-89617856D01*
X114668871Y-89617857D01*
X114574624Y-89726623D01*
X114574620Y-89726630D01*
X114514836Y-89857537D01*
X114514835Y-89857541D01*
X114494353Y-90000000D01*
X110505647Y-90000000D01*
X110485165Y-89857543D01*
X110485163Y-89857540D01*
X110485163Y-89857537D01*
X110425379Y-89726630D01*
X110425375Y-89726623D01*
X110331128Y-89617857D01*
X110331127Y-89617856D01*
X110270590Y-89578952D01*
X110210053Y-89540047D01*
X110210050Y-89540046D01*
X110210048Y-89540045D01*
X110071962Y-89499500D01*
X110071961Y-89499500D01*
X109928039Y-89499500D01*
X109928038Y-89499500D01*
X109789951Y-89540045D01*
X109789945Y-89540048D01*
X109668872Y-89617856D01*
X109668871Y-89617857D01*
X109574624Y-89726623D01*
X109574620Y-89726630D01*
X109514836Y-89857537D01*
X109514835Y-89857541D01*
X109494353Y-90000000D01*
X105550463Y-90000000D01*
X105764147Y-89870055D01*
X105987053Y-89688708D01*
X106183189Y-89478698D01*
X106348901Y-89243936D01*
X106481104Y-88988797D01*
X106577334Y-88718032D01*
X106635798Y-88436686D01*
X106655408Y-88150000D01*
X106655408Y-88149998D01*
X123944592Y-88149998D01*
X123944592Y-88150001D01*
X123964202Y-88436687D01*
X124022663Y-88718022D01*
X124022665Y-88718027D01*
X124022666Y-88718032D01*
X124032226Y-88744930D01*
X124118895Y-88988795D01*
X124118900Y-88988806D01*
X124251098Y-89243935D01*
X124407936Y-89466126D01*
X124416811Y-89478698D01*
X124515235Y-89584084D01*
X124612950Y-89688711D01*
X124780126Y-89824718D01*
X124822526Y-89859213D01*
X124835852Y-89870054D01*
X124835857Y-89870058D01*
X124998789Y-89969139D01*
X125049537Y-90000000D01*
X125081377Y-90019362D01*
X125081378Y-90019363D01*
X125168901Y-90057379D01*
X125344942Y-90133844D01*
X125621642Y-90211371D01*
X125763982Y-90230935D01*
X125906314Y-90250499D01*
X125906316Y-90250499D01*
X125906322Y-90250500D01*
X125906324Y-90250500D01*
X126193676Y-90250500D01*
X126193678Y-90250500D01*
X126478358Y-90211371D01*
X126755058Y-90133844D01*
X126984398Y-90034228D01*
X127018621Y-90019363D01*
X127018621Y-90019362D01*
X127018625Y-90019361D01*
X127050463Y-90000000D01*
X137194353Y-90000000D01*
X137214835Y-90142458D01*
X137214836Y-90142462D01*
X137274620Y-90273369D01*
X137274624Y-90273376D01*
X137368871Y-90382142D01*
X137368872Y-90382143D01*
X137489947Y-90459953D01*
X137539490Y-90474500D01*
X137628038Y-90500500D01*
X137628039Y-90500500D01*
X137771962Y-90500500D01*
X137825189Y-90484870D01*
X137910053Y-90459953D01*
X138031128Y-90382143D01*
X138096854Y-90306291D01*
X138125375Y-90273376D01*
X138125379Y-90273369D01*
X138185163Y-90142462D01*
X138185163Y-90142460D01*
X138185165Y-90142457D01*
X138205647Y-90000000D01*
X138185165Y-89857543D01*
X138185163Y-89857540D01*
X138185163Y-89857537D01*
X138125379Y-89726630D01*
X138125375Y-89726623D01*
X138031128Y-89617857D01*
X138031127Y-89617856D01*
X137970590Y-89578952D01*
X137910053Y-89540047D01*
X137910050Y-89540046D01*
X137910048Y-89540045D01*
X137771962Y-89499500D01*
X137771961Y-89499500D01*
X137628039Y-89499500D01*
X137628038Y-89499500D01*
X137489951Y-89540045D01*
X137489945Y-89540048D01*
X137368872Y-89617856D01*
X137368871Y-89617857D01*
X137274624Y-89726623D01*
X137274620Y-89726630D01*
X137214836Y-89857537D01*
X137214835Y-89857541D01*
X137194353Y-90000000D01*
X127050463Y-90000000D01*
X127264147Y-89870055D01*
X127487053Y-89688708D01*
X127683189Y-89478698D01*
X127848901Y-89243936D01*
X127981104Y-88988797D01*
X128077334Y-88718032D01*
X128135798Y-88436686D01*
X128155408Y-88150000D01*
X128146845Y-88024813D01*
X142020407Y-88024813D01*
X142040889Y-88167271D01*
X142040890Y-88167275D01*
X142100674Y-88298182D01*
X142100678Y-88298189D01*
X142194925Y-88406955D01*
X142194926Y-88406956D01*
X142316001Y-88484766D01*
X142366821Y-88499688D01*
X142454092Y-88525313D01*
X142454093Y-88525313D01*
X142598016Y-88525313D01*
X142651243Y-88509683D01*
X142736107Y-88484766D01*
X142857182Y-88406956D01*
X142941839Y-88309256D01*
X142951429Y-88298189D01*
X142951433Y-88298182D01*
X143011217Y-88167275D01*
X143011217Y-88167273D01*
X143011219Y-88167270D01*
X143031674Y-88025000D01*
X144244353Y-88025000D01*
X144264835Y-88167458D01*
X144264836Y-88167462D01*
X144324620Y-88298369D01*
X144324624Y-88298376D01*
X144418709Y-88406955D01*
X144418872Y-88407143D01*
X144539947Y-88484953D01*
X144590130Y-88499688D01*
X144678038Y-88525500D01*
X144678039Y-88525500D01*
X144821962Y-88525500D01*
X144908793Y-88500004D01*
X144960053Y-88484953D01*
X145081128Y-88407143D01*
X145165947Y-88309256D01*
X145175375Y-88298376D01*
X145175379Y-88298369D01*
X145235163Y-88167462D01*
X145235163Y-88167460D01*
X145235165Y-88167457D01*
X145255647Y-88025000D01*
X146344353Y-88025000D01*
X146364835Y-88167458D01*
X146364836Y-88167462D01*
X146424620Y-88298369D01*
X146424624Y-88298376D01*
X146518709Y-88406955D01*
X146518872Y-88407143D01*
X146639947Y-88484953D01*
X146690130Y-88499688D01*
X146778038Y-88525500D01*
X146778039Y-88525500D01*
X146921962Y-88525500D01*
X147008793Y-88500004D01*
X147060053Y-88484953D01*
X147181128Y-88407143D01*
X147265947Y-88309256D01*
X147275375Y-88298376D01*
X147275379Y-88298369D01*
X147335163Y-88167462D01*
X147335163Y-88167460D01*
X147335165Y-88167457D01*
X147355647Y-88025000D01*
X147335165Y-87882543D01*
X147335163Y-87882540D01*
X147335163Y-87882537D01*
X147275379Y-87751630D01*
X147275375Y-87751623D01*
X147181128Y-87642857D01*
X147181127Y-87642856D01*
X147092652Y-87585997D01*
X147060053Y-87565047D01*
X147060050Y-87565046D01*
X147060048Y-87565045D01*
X146921962Y-87524500D01*
X146921961Y-87524500D01*
X146778039Y-87524500D01*
X146778038Y-87524500D01*
X146639951Y-87565045D01*
X146639945Y-87565048D01*
X146518872Y-87642856D01*
X146518871Y-87642857D01*
X146424624Y-87751623D01*
X146424620Y-87751630D01*
X146364836Y-87882537D01*
X146364835Y-87882541D01*
X146344353Y-88025000D01*
X145255647Y-88025000D01*
X145235165Y-87882543D01*
X145235163Y-87882540D01*
X145235163Y-87882537D01*
X145175379Y-87751630D01*
X145175375Y-87751623D01*
X145081128Y-87642857D01*
X145081127Y-87642856D01*
X144992652Y-87585997D01*
X144960053Y-87565047D01*
X144960050Y-87565046D01*
X144960048Y-87565045D01*
X144821962Y-87524500D01*
X144821961Y-87524500D01*
X144678039Y-87524500D01*
X144678038Y-87524500D01*
X144539951Y-87565045D01*
X144539945Y-87565048D01*
X144418872Y-87642856D01*
X144418871Y-87642857D01*
X144324624Y-87751623D01*
X144324620Y-87751630D01*
X144264836Y-87882537D01*
X144264835Y-87882541D01*
X144244353Y-88025000D01*
X143031674Y-88025000D01*
X143031701Y-88024813D01*
X143011219Y-87882356D01*
X143011217Y-87882353D01*
X143011217Y-87882350D01*
X142951433Y-87751443D01*
X142951429Y-87751436D01*
X142857182Y-87642670D01*
X142857181Y-87642669D01*
X142768997Y-87585997D01*
X142736107Y-87564860D01*
X142736104Y-87564859D01*
X142736102Y-87564858D01*
X142598016Y-87524313D01*
X142598015Y-87524313D01*
X142454093Y-87524313D01*
X142454092Y-87524313D01*
X142316005Y-87564858D01*
X142315999Y-87564861D01*
X142194926Y-87642669D01*
X142194925Y-87642670D01*
X142100678Y-87751436D01*
X142100674Y-87751443D01*
X142040890Y-87882350D01*
X142040889Y-87882354D01*
X142020407Y-88024813D01*
X128146845Y-88024813D01*
X128135798Y-87863314D01*
X128077334Y-87581968D01*
X127981104Y-87311203D01*
X127848901Y-87056064D01*
X127719947Y-86873376D01*
X127683194Y-86821309D01*
X127683193Y-86821308D01*
X127683189Y-86821302D01*
X127487053Y-86611292D01*
X127487051Y-86611291D01*
X127487049Y-86611288D01*
X127473174Y-86600000D01*
X138494353Y-86600000D01*
X138514835Y-86742458D01*
X138514836Y-86742462D01*
X138574620Y-86873369D01*
X138574624Y-86873376D01*
X138668871Y-86982142D01*
X138668872Y-86982143D01*
X138789947Y-87059953D01*
X138841423Y-87075067D01*
X138928038Y-87100500D01*
X138928039Y-87100500D01*
X139071962Y-87100500D01*
X139133741Y-87082360D01*
X139210053Y-87059953D01*
X139331128Y-86982143D01*
X139386834Y-86917854D01*
X139425375Y-86873376D01*
X139425379Y-86873369D01*
X139485163Y-86742462D01*
X139485163Y-86742460D01*
X139485165Y-86742457D01*
X139505647Y-86600000D01*
X139485165Y-86457543D01*
X139485163Y-86457540D01*
X139485163Y-86457537D01*
X139425379Y-86326630D01*
X139425375Y-86326623D01*
X139331128Y-86217857D01*
X139331127Y-86217856D01*
X139250678Y-86166155D01*
X139210053Y-86140047D01*
X139210050Y-86140046D01*
X139210048Y-86140045D01*
X139071962Y-86099500D01*
X139071961Y-86099500D01*
X138928039Y-86099500D01*
X138928038Y-86099500D01*
X138789951Y-86140045D01*
X138789945Y-86140048D01*
X138668872Y-86217856D01*
X138668871Y-86217857D01*
X138574624Y-86326623D01*
X138574620Y-86326630D01*
X138514836Y-86457537D01*
X138514835Y-86457541D01*
X138494353Y-86600000D01*
X127473174Y-86600000D01*
X127264147Y-86429945D01*
X127264142Y-86429941D01*
X127018622Y-86280637D01*
X127018621Y-86280636D01*
X126755056Y-86166155D01*
X126478355Y-86088628D01*
X126478349Y-86088627D01*
X126379207Y-86075000D01*
X143319353Y-86075000D01*
X143339835Y-86217458D01*
X143339836Y-86217462D01*
X143399620Y-86348369D01*
X143399624Y-86348376D01*
X143476689Y-86437313D01*
X143493872Y-86457143D01*
X143614947Y-86534953D01*
X143666423Y-86550067D01*
X143753038Y-86575500D01*
X143753039Y-86575500D01*
X143896962Y-86575500D01*
X143950189Y-86559870D01*
X144035053Y-86534953D01*
X144156128Y-86457143D01*
X144211834Y-86392854D01*
X144250375Y-86348376D01*
X144250379Y-86348369D01*
X144310163Y-86217462D01*
X144310163Y-86217460D01*
X144310165Y-86217457D01*
X144330647Y-86075000D01*
X144310165Y-85932543D01*
X144310163Y-85932540D01*
X144310163Y-85932537D01*
X144250379Y-85801630D01*
X144250375Y-85801623D01*
X144156128Y-85692857D01*
X144156127Y-85692856D01*
X144093619Y-85652685D01*
X144035053Y-85615047D01*
X144035050Y-85615046D01*
X144035048Y-85615045D01*
X143896962Y-85574500D01*
X143896961Y-85574500D01*
X143753039Y-85574500D01*
X143753038Y-85574500D01*
X143614951Y-85615045D01*
X143614945Y-85615048D01*
X143493872Y-85692856D01*
X143493871Y-85692857D01*
X143399624Y-85801623D01*
X143399620Y-85801630D01*
X143339836Y-85932537D01*
X143339835Y-85932541D01*
X143319353Y-86075000D01*
X126379207Y-86075000D01*
X126193685Y-86049500D01*
X126193678Y-86049500D01*
X125906322Y-86049500D01*
X125906314Y-86049500D01*
X125621650Y-86088627D01*
X125621644Y-86088628D01*
X125344943Y-86166155D01*
X125081378Y-86280636D01*
X125081377Y-86280637D01*
X124835857Y-86429941D01*
X124835852Y-86429945D01*
X124612950Y-86611288D01*
X124416815Y-86821297D01*
X124416805Y-86821309D01*
X124251098Y-87056064D01*
X124118900Y-87311193D01*
X124118895Y-87311204D01*
X124081558Y-87416261D01*
X124028680Y-87565048D01*
X124022666Y-87581969D01*
X124022663Y-87581977D01*
X123964202Y-87863312D01*
X123944592Y-88149998D01*
X106655408Y-88149998D01*
X106635798Y-87863314D01*
X106577334Y-87581968D01*
X106481104Y-87311203D01*
X106348901Y-87056064D01*
X106219947Y-86873376D01*
X106183194Y-86821309D01*
X106183193Y-86821308D01*
X106183189Y-86821302D01*
X105987053Y-86611292D01*
X105987051Y-86611291D01*
X105987049Y-86611288D01*
X105764147Y-86429945D01*
X105764142Y-86429941D01*
X105518622Y-86280637D01*
X105518621Y-86280636D01*
X105255056Y-86166155D01*
X104978355Y-86088628D01*
X104978349Y-86088627D01*
X104693685Y-86049500D01*
X104693678Y-86049500D01*
X104406322Y-86049500D01*
X104406314Y-86049500D01*
X104121650Y-86088627D01*
X104121644Y-86088628D01*
X103844943Y-86166155D01*
X103581378Y-86280636D01*
X103581377Y-86280637D01*
X103335857Y-86429941D01*
X103335852Y-86429945D01*
X103112950Y-86611288D01*
X102916815Y-86821297D01*
X102916805Y-86821309D01*
X102751098Y-87056064D01*
X102618900Y-87311193D01*
X102618895Y-87311204D01*
X102581558Y-87416261D01*
X102528680Y-87565048D01*
X102522666Y-87581969D01*
X102522663Y-87581977D01*
X102464202Y-87863312D01*
X102444592Y-88149998D01*
X97153761Y-88149998D01*
X97128911Y-88062658D01*
X97029327Y-87862668D01*
X97029324Y-87862664D01*
X97029323Y-87862662D01*
X96894693Y-87684384D01*
X96894689Y-87684379D01*
X96729593Y-87533873D01*
X96729585Y-87533867D01*
X96539645Y-87416261D01*
X96539643Y-87416260D01*
X96539640Y-87416259D01*
X96539639Y-87416258D01*
X96331314Y-87335552D01*
X96111706Y-87294500D01*
X95888294Y-87294500D01*
X95668686Y-87335552D01*
X95488957Y-87405180D01*
X95460356Y-87416260D01*
X95460354Y-87416261D01*
X95270414Y-87533867D01*
X95270406Y-87533873D01*
X95105310Y-87684379D01*
X95105306Y-87684384D01*
X94970676Y-87862662D01*
X94970672Y-87862669D01*
X94871088Y-88062658D01*
X94809950Y-88277542D01*
X94790731Y-88484951D01*
X94789336Y-88500000D01*
X93488083Y-88500000D01*
X93488083Y-88499995D01*
X93467788Y-88255082D01*
X93467787Y-88255072D01*
X93467787Y-88255070D01*
X93407455Y-88016820D01*
X93308730Y-87791751D01*
X93174307Y-87586001D01*
X93007851Y-87405182D01*
X93007850Y-87405181D01*
X93007849Y-87405180D01*
X92813904Y-87254227D01*
X92813901Y-87254225D01*
X92604286Y-87140787D01*
X92537730Y-87082360D01*
X92503115Y-87000842D01*
X92500000Y-86965772D01*
X92500000Y-85000000D01*
X114494353Y-85000000D01*
X114514835Y-85142458D01*
X114514836Y-85142462D01*
X114574620Y-85273369D01*
X114574624Y-85273376D01*
X114668871Y-85382142D01*
X114668872Y-85382143D01*
X114789947Y-85459953D01*
X114835638Y-85473369D01*
X114928038Y-85500500D01*
X114928039Y-85500500D01*
X115071962Y-85500500D01*
X115125189Y-85484870D01*
X115210053Y-85459953D01*
X115331128Y-85382143D01*
X115386834Y-85317854D01*
X115425375Y-85273376D01*
X115425379Y-85273369D01*
X115485163Y-85142462D01*
X115485163Y-85142460D01*
X115485165Y-85142457D01*
X115505647Y-85000000D01*
X119494353Y-85000000D01*
X119514835Y-85142458D01*
X119514836Y-85142462D01*
X119574620Y-85273369D01*
X119574624Y-85273376D01*
X119668871Y-85382142D01*
X119668872Y-85382143D01*
X119789947Y-85459953D01*
X119835638Y-85473369D01*
X119928038Y-85500500D01*
X119928039Y-85500500D01*
X120071962Y-85500500D01*
X120125189Y-85484870D01*
X120210053Y-85459953D01*
X120331128Y-85382143D01*
X120386834Y-85317854D01*
X120425375Y-85273376D01*
X120425379Y-85273369D01*
X120458886Y-85200000D01*
X141544353Y-85200000D01*
X141564835Y-85342458D01*
X141564836Y-85342462D01*
X141624620Y-85473369D01*
X141624624Y-85473376D01*
X141712249Y-85574500D01*
X141718872Y-85582143D01*
X141839947Y-85659953D01*
X141891423Y-85675067D01*
X141978038Y-85700500D01*
X141978039Y-85700500D01*
X142121962Y-85700500D01*
X142175189Y-85684870D01*
X142260053Y-85659953D01*
X142381128Y-85582143D01*
X142451872Y-85500500D01*
X142475375Y-85473376D01*
X142475379Y-85473369D01*
X142535163Y-85342462D01*
X142535163Y-85342460D01*
X142535165Y-85342457D01*
X142555647Y-85200000D01*
X142535165Y-85057543D01*
X142535163Y-85057540D01*
X142535163Y-85057537D01*
X142475379Y-84926630D01*
X142475375Y-84926623D01*
X142381128Y-84817857D01*
X142381127Y-84817856D01*
X142314441Y-84775000D01*
X142260053Y-84740047D01*
X142260050Y-84740046D01*
X142260048Y-84740045D01*
X142121962Y-84699500D01*
X142121961Y-84699500D01*
X141978039Y-84699500D01*
X141978038Y-84699500D01*
X141839951Y-84740045D01*
X141839945Y-84740048D01*
X141718872Y-84817856D01*
X141718871Y-84817857D01*
X141624624Y-84926623D01*
X141624620Y-84926630D01*
X141564836Y-85057537D01*
X141564835Y-85057541D01*
X141544353Y-85200000D01*
X120458886Y-85200000D01*
X120485163Y-85142462D01*
X120485163Y-85142460D01*
X120485165Y-85142457D01*
X120505647Y-85000000D01*
X120485165Y-84857543D01*
X120485163Y-84857540D01*
X120485163Y-84857537D01*
X120425379Y-84726630D01*
X120425375Y-84726623D01*
X120331128Y-84617857D01*
X120331127Y-84617856D01*
X120270590Y-84578952D01*
X120210053Y-84540047D01*
X120210050Y-84540046D01*
X120210048Y-84540045D01*
X120071962Y-84499500D01*
X120071961Y-84499500D01*
X119928039Y-84499500D01*
X119928038Y-84499500D01*
X119789951Y-84540045D01*
X119789945Y-84540048D01*
X119668872Y-84617856D01*
X119668871Y-84617857D01*
X119574624Y-84726623D01*
X119574620Y-84726630D01*
X119514836Y-84857537D01*
X119514835Y-84857541D01*
X119494353Y-85000000D01*
X115505647Y-85000000D01*
X115485165Y-84857543D01*
X115485163Y-84857540D01*
X115485163Y-84857537D01*
X115425379Y-84726630D01*
X115425375Y-84726623D01*
X115331128Y-84617857D01*
X115331127Y-84617856D01*
X115270590Y-84578952D01*
X115210053Y-84540047D01*
X115210050Y-84540046D01*
X115210048Y-84540045D01*
X115071962Y-84499500D01*
X115071961Y-84499500D01*
X114928039Y-84499500D01*
X114928038Y-84499500D01*
X114789951Y-84540045D01*
X114789945Y-84540048D01*
X114668872Y-84617856D01*
X114668871Y-84617857D01*
X114574624Y-84726623D01*
X114574620Y-84726630D01*
X114514836Y-84857537D01*
X114514835Y-84857541D01*
X114494353Y-85000000D01*
X92500000Y-85000000D01*
X92500000Y-83895000D01*
X100469353Y-83895000D01*
X100489835Y-84037458D01*
X100489836Y-84037462D01*
X100549620Y-84168369D01*
X100549624Y-84168376D01*
X100643871Y-84277142D01*
X100643872Y-84277143D01*
X100764947Y-84354953D01*
X100807532Y-84367457D01*
X100903038Y-84395500D01*
X100903039Y-84395500D01*
X101046962Y-84395500D01*
X101100189Y-84379870D01*
X101185053Y-84354953D01*
X101306128Y-84277143D01*
X101400377Y-84168373D01*
X101400378Y-84168369D01*
X101407589Y-84157151D01*
X101470847Y-84095168D01*
X101554735Y-84066771D01*
X101642635Y-84077582D01*
X101717140Y-84125462D01*
X101742411Y-84157151D01*
X101749624Y-84168375D01*
X101798690Y-84225000D01*
X101843872Y-84277143D01*
X101964947Y-84354953D01*
X102007532Y-84367457D01*
X102103038Y-84395500D01*
X102103039Y-84395500D01*
X102246962Y-84395500D01*
X102300189Y-84379870D01*
X102385053Y-84354953D01*
X102506128Y-84277143D01*
X102561834Y-84212854D01*
X102600375Y-84168376D01*
X102600379Y-84168369D01*
X102660163Y-84037462D01*
X102660163Y-84037460D01*
X102660165Y-84037457D01*
X102680647Y-83895000D01*
X102669864Y-83820000D01*
X105494353Y-83820000D01*
X105514835Y-83962458D01*
X105514836Y-83962462D01*
X105574620Y-84093369D01*
X105574624Y-84093376D01*
X105668871Y-84202142D01*
X105668872Y-84202143D01*
X105789947Y-84279953D01*
X105841423Y-84295067D01*
X105928038Y-84320500D01*
X105928039Y-84320500D01*
X106071962Y-84320500D01*
X106125189Y-84304870D01*
X106210053Y-84279953D01*
X106331128Y-84202143D01*
X106423822Y-84095168D01*
X106425375Y-84093376D01*
X106425379Y-84093369D01*
X106449752Y-84040000D01*
X110799353Y-84040000D01*
X110819835Y-84182458D01*
X110819836Y-84182462D01*
X110879620Y-84313369D01*
X110879624Y-84313376D01*
X110973871Y-84422142D01*
X110973872Y-84422143D01*
X111094947Y-84499953D01*
X111146423Y-84515067D01*
X111233038Y-84540500D01*
X111233039Y-84540500D01*
X111376962Y-84540500D01*
X111430189Y-84524870D01*
X111515053Y-84499953D01*
X111636128Y-84422143D01*
X111694350Y-84354951D01*
X111730375Y-84313376D01*
X111730379Y-84313369D01*
X111770736Y-84225000D01*
X145419353Y-84225000D01*
X145439835Y-84367458D01*
X145439836Y-84367462D01*
X145499620Y-84498369D01*
X145499624Y-84498376D01*
X145560878Y-84569066D01*
X145593872Y-84607143D01*
X145714947Y-84684953D01*
X145764490Y-84699500D01*
X145853038Y-84725500D01*
X145853039Y-84725500D01*
X145996962Y-84725500D01*
X146050189Y-84709870D01*
X146135053Y-84684953D01*
X146256128Y-84607143D01*
X146314268Y-84540045D01*
X146350375Y-84498376D01*
X146350379Y-84498369D01*
X146410163Y-84367462D01*
X146410163Y-84367460D01*
X146410165Y-84367457D01*
X146430647Y-84225000D01*
X146410165Y-84082543D01*
X146410163Y-84082540D01*
X146410163Y-84082537D01*
X146350379Y-83951630D01*
X146350375Y-83951623D01*
X146256128Y-83842857D01*
X146256127Y-83842856D01*
X146137516Y-83766630D01*
X146135053Y-83765047D01*
X146135050Y-83765046D01*
X146135048Y-83765045D01*
X145996962Y-83724500D01*
X145996961Y-83724500D01*
X145853039Y-83724500D01*
X145853038Y-83724500D01*
X145714951Y-83765045D01*
X145714945Y-83765048D01*
X145593872Y-83842856D01*
X145593871Y-83842857D01*
X145499624Y-83951623D01*
X145499620Y-83951630D01*
X145439836Y-84082537D01*
X145439835Y-84082541D01*
X145419353Y-84225000D01*
X111770736Y-84225000D01*
X111790163Y-84182462D01*
X111790163Y-84182460D01*
X111790165Y-84182457D01*
X111810647Y-84040000D01*
X111790165Y-83897543D01*
X111790163Y-83897540D01*
X111790163Y-83897537D01*
X111730379Y-83766630D01*
X111730375Y-83766623D01*
X111636128Y-83657857D01*
X111636127Y-83657856D01*
X111531024Y-83590311D01*
X111515053Y-83580047D01*
X111515050Y-83580046D01*
X111515048Y-83580045D01*
X111376962Y-83539500D01*
X111376961Y-83539500D01*
X111233039Y-83539500D01*
X111233038Y-83539500D01*
X111094951Y-83580045D01*
X111094945Y-83580048D01*
X110973872Y-83657856D01*
X110973871Y-83657857D01*
X110879624Y-83766623D01*
X110879620Y-83766630D01*
X110819836Y-83897537D01*
X110819835Y-83897541D01*
X110799353Y-84040000D01*
X106449752Y-84040000D01*
X106485163Y-83962462D01*
X106485163Y-83962460D01*
X106485165Y-83962457D01*
X106505647Y-83820000D01*
X106485165Y-83677543D01*
X106485163Y-83677540D01*
X106485163Y-83677537D01*
X106425379Y-83546630D01*
X106425375Y-83546623D01*
X106331128Y-83437857D01*
X106331127Y-83437856D01*
X106244435Y-83382143D01*
X106210053Y-83360047D01*
X106210050Y-83360046D01*
X106210048Y-83360045D01*
X106071962Y-83319500D01*
X106071961Y-83319500D01*
X105928039Y-83319500D01*
X105928038Y-83319500D01*
X105789951Y-83360045D01*
X105789945Y-83360048D01*
X105668872Y-83437856D01*
X105668871Y-83437857D01*
X105574624Y-83546623D01*
X105574620Y-83546630D01*
X105514836Y-83677537D01*
X105514835Y-83677541D01*
X105494353Y-83820000D01*
X102669864Y-83820000D01*
X102660165Y-83752543D01*
X102660163Y-83752540D01*
X102660163Y-83752537D01*
X102600379Y-83621630D01*
X102600375Y-83621623D01*
X102506128Y-83512857D01*
X102506127Y-83512856D01*
X102423809Y-83459954D01*
X102385053Y-83435047D01*
X102385050Y-83435046D01*
X102385048Y-83435045D01*
X102246962Y-83394500D01*
X102246961Y-83394500D01*
X102103039Y-83394500D01*
X102103038Y-83394500D01*
X101964951Y-83435045D01*
X101964945Y-83435048D01*
X101843872Y-83512856D01*
X101843871Y-83512857D01*
X101749625Y-83621623D01*
X101742409Y-83632852D01*
X101679149Y-83694833D01*
X101595262Y-83723229D01*
X101507361Y-83712415D01*
X101432857Y-83664534D01*
X101407591Y-83632852D01*
X101400374Y-83621623D01*
X101306128Y-83512857D01*
X101306127Y-83512856D01*
X101223809Y-83459954D01*
X101185053Y-83435047D01*
X101185050Y-83435046D01*
X101185048Y-83435045D01*
X101046962Y-83394500D01*
X101046961Y-83394500D01*
X100903039Y-83394500D01*
X100903038Y-83394500D01*
X100764951Y-83435045D01*
X100764945Y-83435048D01*
X100643872Y-83512856D01*
X100643871Y-83512857D01*
X100549624Y-83621623D01*
X100549620Y-83621630D01*
X100489836Y-83752537D01*
X100489835Y-83752541D01*
X100469353Y-83895000D01*
X92500000Y-83895000D01*
X92500000Y-82945000D01*
X103744353Y-82945000D01*
X103764835Y-83087458D01*
X103764836Y-83087462D01*
X103824620Y-83218369D01*
X103824624Y-83218376D01*
X103899864Y-83305207D01*
X103918872Y-83327143D01*
X104039947Y-83404953D01*
X104082464Y-83417437D01*
X104178038Y-83445500D01*
X104178039Y-83445500D01*
X104321962Y-83445500D01*
X104375189Y-83429870D01*
X104460053Y-83404953D01*
X104581128Y-83327143D01*
X104640992Y-83258056D01*
X104675375Y-83218376D01*
X104675379Y-83218369D01*
X104735163Y-83087462D01*
X104735163Y-83087460D01*
X104735165Y-83087457D01*
X104755647Y-82945000D01*
X104749177Y-82900000D01*
X122119678Y-82900000D01*
X122138914Y-83083028D01*
X122182890Y-83218369D01*
X122195786Y-83258059D01*
X122287805Y-83417440D01*
X122397708Y-83539500D01*
X122410949Y-83554206D01*
X122559837Y-83662380D01*
X122559838Y-83662380D01*
X122559839Y-83662381D01*
X122727966Y-83737236D01*
X122799969Y-83752541D01*
X122907978Y-83775500D01*
X122907981Y-83775500D01*
X123092022Y-83775500D01*
X123200021Y-83752543D01*
X123272034Y-83737236D01*
X123440161Y-83662381D01*
X123589050Y-83554207D01*
X123712195Y-83417440D01*
X123804214Y-83258059D01*
X123861085Y-83083029D01*
X123880322Y-82900000D01*
X124619678Y-82900000D01*
X124638914Y-83083028D01*
X124682890Y-83218369D01*
X124695786Y-83258059D01*
X124787805Y-83417440D01*
X124897708Y-83539500D01*
X124910949Y-83554206D01*
X125059837Y-83662380D01*
X125059838Y-83662380D01*
X125059839Y-83662381D01*
X125227966Y-83737236D01*
X125299969Y-83752541D01*
X125407978Y-83775500D01*
X125407981Y-83775500D01*
X125592022Y-83775500D01*
X125700021Y-83752543D01*
X125772034Y-83737236D01*
X125940161Y-83662381D01*
X126089050Y-83554207D01*
X126212195Y-83417440D01*
X126304214Y-83258059D01*
X126361085Y-83083029D01*
X126380322Y-82900000D01*
X126361085Y-82716971D01*
X126304214Y-82541941D01*
X126212195Y-82382560D01*
X126089050Y-82245793D01*
X126053549Y-82220000D01*
X126033314Y-82205298D01*
X127125000Y-82205298D01*
X127125000Y-82650000D01*
X127684314Y-82650000D01*
X127679920Y-82654394D01*
X127627259Y-82745606D01*
X127600000Y-82847339D01*
X127600000Y-82952661D01*
X127627259Y-83054394D01*
X127679920Y-83145606D01*
X127684314Y-83150000D01*
X127125000Y-83150000D01*
X127125000Y-83594701D01*
X127136603Y-83653034D01*
X127180808Y-83719191D01*
X127246965Y-83763396D01*
X127305299Y-83775000D01*
X127750000Y-83775000D01*
X127750000Y-83215686D01*
X127754394Y-83220080D01*
X127845606Y-83272741D01*
X127947339Y-83300000D01*
X128052661Y-83300000D01*
X128154394Y-83272741D01*
X128245606Y-83220080D01*
X128250000Y-83215686D01*
X128250000Y-83775000D01*
X128694701Y-83775000D01*
X128753034Y-83763396D01*
X128819191Y-83719191D01*
X128863396Y-83653034D01*
X128875000Y-83594701D01*
X128875000Y-83150000D01*
X128315686Y-83150000D01*
X128320080Y-83145606D01*
X128372741Y-83054394D01*
X128387316Y-83000000D01*
X131994353Y-83000000D01*
X132014835Y-83142458D01*
X132014836Y-83142462D01*
X132074620Y-83273369D01*
X132074624Y-83273376D01*
X132150054Y-83360426D01*
X132168872Y-83382143D01*
X132289947Y-83459953D01*
X132341423Y-83475067D01*
X132428038Y-83500500D01*
X132428039Y-83500500D01*
X132571962Y-83500500D01*
X132626453Y-83484500D01*
X132710053Y-83459953D01*
X132831128Y-83382143D01*
X132914869Y-83285500D01*
X132925375Y-83273376D01*
X132925379Y-83273369D01*
X132985163Y-83142462D01*
X132985163Y-83142460D01*
X132985165Y-83142457D01*
X133005647Y-83000000D01*
X136994353Y-83000000D01*
X137014835Y-83142458D01*
X137014836Y-83142462D01*
X137074620Y-83273369D01*
X137074624Y-83273376D01*
X137150054Y-83360426D01*
X137168872Y-83382143D01*
X137289947Y-83459953D01*
X137341423Y-83475067D01*
X137428038Y-83500500D01*
X137428039Y-83500500D01*
X137571962Y-83500500D01*
X137626453Y-83484500D01*
X137710053Y-83459953D01*
X137831128Y-83382143D01*
X137914869Y-83285500D01*
X137925375Y-83273376D01*
X137925379Y-83273369D01*
X137985163Y-83142462D01*
X137985163Y-83142460D01*
X137985165Y-83142457D01*
X138005647Y-83000000D01*
X137985165Y-82857543D01*
X137985163Y-82857540D01*
X137985163Y-82857537D01*
X137925379Y-82726630D01*
X137925375Y-82726623D01*
X137831128Y-82617857D01*
X137831127Y-82617856D01*
X137745546Y-82562857D01*
X137710053Y-82540047D01*
X137710050Y-82540046D01*
X137710048Y-82540045D01*
X137573651Y-82499996D01*
X142774750Y-82499996D01*
X142774750Y-82500003D01*
X142793669Y-82643709D01*
X142793670Y-82643711D01*
X142849137Y-82777622D01*
X142849139Y-82777626D01*
X142937377Y-82892620D01*
X142937379Y-82892622D01*
X143052373Y-82980860D01*
X143052377Y-82980862D01*
X143186288Y-83036329D01*
X143186290Y-83036330D01*
X143329997Y-83055250D01*
X143330000Y-83055250D01*
X143330003Y-83055250D01*
X143473709Y-83036330D01*
X143473711Y-83036329D01*
X143607625Y-82980861D01*
X143722621Y-82892621D01*
X143749538Y-82857543D01*
X143810860Y-82777626D01*
X143810859Y-82777626D01*
X143810861Y-82777625D01*
X143866330Y-82643709D01*
X143879728Y-82541943D01*
X143885250Y-82500003D01*
X143885250Y-82499996D01*
X143866330Y-82356290D01*
X143866329Y-82356288D01*
X143810862Y-82222377D01*
X143810860Y-82222373D01*
X143722622Y-82107379D01*
X143722620Y-82107377D01*
X143607626Y-82019139D01*
X143607622Y-82019137D01*
X143473711Y-81963670D01*
X143473709Y-81963669D01*
X143330003Y-81944750D01*
X143329997Y-81944750D01*
X143186290Y-81963669D01*
X143186288Y-81963670D01*
X143052377Y-82019137D01*
X143052373Y-82019139D01*
X142937379Y-82107377D01*
X142937377Y-82107379D01*
X142849139Y-82222373D01*
X142849137Y-82222377D01*
X142793670Y-82356288D01*
X142793669Y-82356290D01*
X142774750Y-82499996D01*
X137573651Y-82499996D01*
X137571962Y-82499500D01*
X137571961Y-82499500D01*
X137428039Y-82499500D01*
X137428038Y-82499500D01*
X137289951Y-82540045D01*
X137289945Y-82540048D01*
X137168872Y-82617856D01*
X137168871Y-82617857D01*
X137074624Y-82726623D01*
X137074620Y-82726630D01*
X137014836Y-82857537D01*
X137014835Y-82857541D01*
X136994353Y-83000000D01*
X133005647Y-83000000D01*
X132985165Y-82857543D01*
X132985163Y-82857540D01*
X132985163Y-82857537D01*
X132925379Y-82726630D01*
X132925375Y-82726623D01*
X132831128Y-82617857D01*
X132831127Y-82617856D01*
X132745546Y-82562857D01*
X132710053Y-82540047D01*
X132710050Y-82540046D01*
X132710048Y-82540045D01*
X132571962Y-82499500D01*
X132571961Y-82499500D01*
X132428039Y-82499500D01*
X132428038Y-82499500D01*
X132289951Y-82540045D01*
X132289945Y-82540048D01*
X132168872Y-82617856D01*
X132168871Y-82617857D01*
X132074624Y-82726623D01*
X132074620Y-82726630D01*
X132014836Y-82857537D01*
X132014835Y-82857541D01*
X131994353Y-83000000D01*
X128387316Y-83000000D01*
X128400000Y-82952661D01*
X128400000Y-82847339D01*
X128372741Y-82745606D01*
X128320080Y-82654394D01*
X128315686Y-82650000D01*
X128875000Y-82650000D01*
X128875000Y-82205298D01*
X128863396Y-82146965D01*
X128819191Y-82080808D01*
X128753034Y-82036603D01*
X128694701Y-82025000D01*
X128250000Y-82025000D01*
X128250000Y-82584314D01*
X128245606Y-82579920D01*
X128154394Y-82527259D01*
X128052661Y-82500000D01*
X127947339Y-82500000D01*
X127845606Y-82527259D01*
X127754394Y-82579920D01*
X127750000Y-82584314D01*
X127750000Y-82025000D01*
X127305299Y-82025000D01*
X127246965Y-82036603D01*
X127180808Y-82080808D01*
X127136603Y-82146965D01*
X127125000Y-82205298D01*
X126033314Y-82205298D01*
X125940162Y-82137619D01*
X125772032Y-82062763D01*
X125772026Y-82062762D01*
X125592022Y-82024500D01*
X125592019Y-82024500D01*
X125407981Y-82024500D01*
X125407978Y-82024500D01*
X125227973Y-82062762D01*
X125227967Y-82062763D01*
X125059837Y-82137619D01*
X124910950Y-82245793D01*
X124910949Y-82245793D01*
X124842565Y-82321742D01*
X124787805Y-82382560D01*
X124787804Y-82382562D01*
X124695786Y-82541940D01*
X124695785Y-82541943D01*
X124638914Y-82716971D01*
X124619678Y-82900000D01*
X123880322Y-82900000D01*
X123861085Y-82716971D01*
X123804214Y-82541941D01*
X123712195Y-82382560D01*
X123589050Y-82245793D01*
X123553549Y-82220000D01*
X123440162Y-82137619D01*
X123272032Y-82062763D01*
X123272026Y-82062762D01*
X123092022Y-82024500D01*
X123092019Y-82024500D01*
X122907981Y-82024500D01*
X122907978Y-82024500D01*
X122727973Y-82062762D01*
X122727967Y-82062763D01*
X122559837Y-82137619D01*
X122410950Y-82245793D01*
X122410949Y-82245793D01*
X122342565Y-82321742D01*
X122287805Y-82382560D01*
X122287804Y-82382562D01*
X122195786Y-82541940D01*
X122195785Y-82541943D01*
X122138914Y-82716971D01*
X122119678Y-82900000D01*
X104749177Y-82900000D01*
X104735165Y-82802543D01*
X104735163Y-82802540D01*
X104735163Y-82802537D01*
X104675379Y-82671630D01*
X104675375Y-82671623D01*
X104581128Y-82562857D01*
X104581127Y-82562856D01*
X104473013Y-82493376D01*
X104460053Y-82485047D01*
X104460050Y-82485046D01*
X104460048Y-82485045D01*
X104321962Y-82444500D01*
X104321961Y-82444500D01*
X104178039Y-82444500D01*
X104178038Y-82444500D01*
X104039951Y-82485045D01*
X104039945Y-82485048D01*
X103918872Y-82562856D01*
X103918871Y-82562857D01*
X103824624Y-82671623D01*
X103824620Y-82671630D01*
X103764836Y-82802537D01*
X103764835Y-82802541D01*
X103744353Y-82945000D01*
X92500000Y-82945000D01*
X92500000Y-82220000D01*
X108894353Y-82220000D01*
X108914835Y-82362458D01*
X108914836Y-82362462D01*
X108974620Y-82493369D01*
X108974624Y-82493376D01*
X109068871Y-82602142D01*
X109068872Y-82602143D01*
X109189947Y-82679953D01*
X109241423Y-82695067D01*
X109328038Y-82720500D01*
X109328039Y-82720500D01*
X109471962Y-82720500D01*
X109525189Y-82704870D01*
X109610053Y-82679953D01*
X109731128Y-82602143D01*
X109796015Y-82527259D01*
X109825375Y-82493376D01*
X109825379Y-82493369D01*
X109885163Y-82362462D01*
X109885163Y-82362460D01*
X109885165Y-82362457D01*
X109905647Y-82220000D01*
X109885165Y-82077543D01*
X109885163Y-82077540D01*
X109885163Y-82077537D01*
X109825379Y-81946630D01*
X109825375Y-81946623D01*
X109731128Y-81837857D01*
X109731127Y-81837856D01*
X109670590Y-81798952D01*
X109610053Y-81760047D01*
X109610050Y-81760046D01*
X109610048Y-81760045D01*
X109471962Y-81719500D01*
X109471961Y-81719500D01*
X109328039Y-81719500D01*
X109328038Y-81719500D01*
X109189951Y-81760045D01*
X109189945Y-81760048D01*
X109068872Y-81837856D01*
X109068871Y-81837857D01*
X108974624Y-81946623D01*
X108974620Y-81946630D01*
X108914836Y-82077537D01*
X108914835Y-82077541D01*
X108894353Y-82220000D01*
X92500000Y-82220000D01*
X92500000Y-81695000D01*
X99769353Y-81695000D01*
X99789835Y-81837458D01*
X99789836Y-81837462D01*
X99849620Y-81968369D01*
X99849624Y-81968376D01*
X99943871Y-82077142D01*
X99943872Y-82077143D01*
X100064947Y-82154953D01*
X100116423Y-82170067D01*
X100203038Y-82195500D01*
X100203039Y-82195500D01*
X100346962Y-82195500D01*
X100432104Y-82170500D01*
X100485053Y-82154953D01*
X100606128Y-82077143D01*
X100661834Y-82012854D01*
X100700375Y-81968376D01*
X100700379Y-81968369D01*
X100760163Y-81837462D01*
X100760163Y-81837460D01*
X100760165Y-81837457D01*
X100780647Y-81695000D01*
X100760165Y-81552543D01*
X100760163Y-81552540D01*
X100760163Y-81552537D01*
X100752328Y-81535380D01*
X102359733Y-81535380D01*
X102380215Y-81677838D01*
X102380216Y-81677842D01*
X102440000Y-81808749D01*
X102440004Y-81808756D01*
X102534251Y-81917522D01*
X102534252Y-81917523D01*
X102655327Y-81995333D01*
X102706803Y-82010447D01*
X102793418Y-82035880D01*
X102793419Y-82035880D01*
X102937342Y-82035880D01*
X102994363Y-82019137D01*
X103075433Y-81995333D01*
X103196508Y-81917523D01*
X103252214Y-81853234D01*
X103290755Y-81808756D01*
X103290759Y-81808749D01*
X103350543Y-81677842D01*
X103350543Y-81677840D01*
X103350545Y-81677837D01*
X103351672Y-81670000D01*
X104994353Y-81670000D01*
X105014835Y-81812458D01*
X105014836Y-81812462D01*
X105074620Y-81943369D01*
X105074624Y-81943376D01*
X105168871Y-82052142D01*
X105168872Y-82052143D01*
X105289947Y-82129953D01*
X105341423Y-82145067D01*
X105428038Y-82170500D01*
X105428039Y-82170500D01*
X105571962Y-82170500D01*
X105625189Y-82154870D01*
X105710053Y-82129953D01*
X105831128Y-82052143D01*
X105922555Y-81946630D01*
X105925375Y-81943376D01*
X105925379Y-81943369D01*
X105985163Y-81812462D01*
X105985163Y-81812460D01*
X105985165Y-81812457D01*
X106005647Y-81670000D01*
X106494353Y-81670000D01*
X106514835Y-81812458D01*
X106514836Y-81812462D01*
X106574620Y-81943369D01*
X106574624Y-81943376D01*
X106668871Y-82052142D01*
X106668872Y-82052143D01*
X106789947Y-82129953D01*
X106841423Y-82145067D01*
X106928038Y-82170500D01*
X106928039Y-82170500D01*
X107071962Y-82170500D01*
X107125189Y-82154870D01*
X107210053Y-82129953D01*
X107331128Y-82052143D01*
X107422555Y-81946630D01*
X107425375Y-81943376D01*
X107425379Y-81943369D01*
X107485163Y-81812462D01*
X107485163Y-81812460D01*
X107485165Y-81812457D01*
X107505647Y-81670000D01*
X107485165Y-81527543D01*
X107485163Y-81527540D01*
X107485163Y-81527537D01*
X107425379Y-81396630D01*
X107425375Y-81396623D01*
X107331128Y-81287857D01*
X107331127Y-81287856D01*
X107222789Y-81218232D01*
X107210053Y-81210047D01*
X107210050Y-81210046D01*
X107210048Y-81210045D01*
X107071962Y-81169500D01*
X107071961Y-81169500D01*
X106928039Y-81169500D01*
X106928038Y-81169500D01*
X106789951Y-81210045D01*
X106789945Y-81210048D01*
X106668872Y-81287856D01*
X106668871Y-81287857D01*
X106574624Y-81396623D01*
X106574620Y-81396630D01*
X106514836Y-81527537D01*
X106514835Y-81527541D01*
X106494353Y-81670000D01*
X106005647Y-81670000D01*
X105985165Y-81527543D01*
X105985163Y-81527540D01*
X105985163Y-81527537D01*
X105925379Y-81396630D01*
X105925375Y-81396623D01*
X105831128Y-81287857D01*
X105831127Y-81287856D01*
X105722789Y-81218232D01*
X105710053Y-81210047D01*
X105710050Y-81210046D01*
X105710048Y-81210045D01*
X105571962Y-81169500D01*
X105571961Y-81169500D01*
X105428039Y-81169500D01*
X105428038Y-81169500D01*
X105289951Y-81210045D01*
X105289945Y-81210048D01*
X105168872Y-81287856D01*
X105168871Y-81287857D01*
X105074624Y-81396623D01*
X105074620Y-81396630D01*
X105014836Y-81527537D01*
X105014835Y-81527541D01*
X104994353Y-81670000D01*
X103351672Y-81670000D01*
X103371027Y-81535380D01*
X103350545Y-81392923D01*
X103350543Y-81392920D01*
X103350543Y-81392917D01*
X103290759Y-81262010D01*
X103290755Y-81262003D01*
X103196508Y-81153237D01*
X103196507Y-81153236D01*
X103082477Y-81079954D01*
X103075433Y-81075427D01*
X103075430Y-81075426D01*
X103075428Y-81075425D01*
X102937342Y-81034880D01*
X102937341Y-81034880D01*
X102793419Y-81034880D01*
X102793418Y-81034880D01*
X102655331Y-81075425D01*
X102655325Y-81075428D01*
X102534252Y-81153236D01*
X102534251Y-81153237D01*
X102440004Y-81262003D01*
X102440000Y-81262010D01*
X102380216Y-81392917D01*
X102380215Y-81392921D01*
X102359733Y-81535380D01*
X100752328Y-81535380D01*
X100700379Y-81421630D01*
X100700375Y-81421623D01*
X100606128Y-81312857D01*
X100606127Y-81312856D01*
X100493457Y-81240448D01*
X100485053Y-81235047D01*
X100485050Y-81235046D01*
X100485048Y-81235045D01*
X100346962Y-81194500D01*
X100346961Y-81194500D01*
X100203039Y-81194500D01*
X100203038Y-81194500D01*
X100064951Y-81235045D01*
X100064945Y-81235048D01*
X99943872Y-81312856D01*
X99943871Y-81312857D01*
X99849624Y-81421623D01*
X99849620Y-81421630D01*
X99789836Y-81552537D01*
X99789835Y-81552541D01*
X99769353Y-81695000D01*
X92500000Y-81695000D01*
X92500000Y-79331933D01*
X92519707Y-79245590D01*
X92574926Y-79176349D01*
X92601294Y-79159365D01*
X92601153Y-79159134D01*
X92607807Y-79155055D01*
X92607816Y-79155051D01*
X92779792Y-79030104D01*
X92930104Y-78879792D01*
X93055051Y-78707816D01*
X93055054Y-78707810D01*
X93059143Y-78701139D01*
X93060304Y-78701850D01*
X93111385Y-78640669D01*
X93192020Y-78604044D01*
X93231934Y-78600000D01*
X97381159Y-78600000D01*
X97467502Y-78619707D01*
G37*
%TD.AperFunction*%
M02*
