%TF.GenerationSoftware,KiCad,Pcbnew,8.0.2-1*%
%TF.CreationDate,2024-09-12T10:11:59+09:00*%
%TF.ProjectId,gas_nrf52832,6761735f-6e72-4663-9532-3833322e6b69,rev?*%
%TF.SameCoordinates,Original*%
%TF.FileFunction,Copper,L1,Top*%
%TF.FilePolarity,Positive*%
%FSLAX46Y46*%
G04 Gerber Fmt 4.6, Leading zero omitted, Abs format (unit mm)*
G04 Created by KiCad (PCBNEW 8.0.2-1) date 2024-09-12 10:11:59*
%MOMM*%
%LPD*%
G01*
G04 APERTURE LIST*
G04 Aperture macros list*
%AMRoundRect*
0 Rectangle with rounded corners*
0 $1 Rounding radius*
0 $2 $3 $4 $5 $6 $7 $8 $9 X,Y pos of 4 corners*
0 Add a 4 corners polygon primitive as box body*
4,1,4,$2,$3,$4,$5,$6,$7,$8,$9,$2,$3,0*
0 Add four circle primitives for the rounded corners*
1,1,$1+$1,$2,$3*
1,1,$1+$1,$4,$5*
1,1,$1+$1,$6,$7*
1,1,$1+$1,$8,$9*
0 Add four rect primitives between the rounded corners*
20,1,$1+$1,$2,$3,$4,$5,0*
20,1,$1+$1,$4,$5,$6,$7,0*
20,1,$1+$1,$6,$7,$8,$9,0*
20,1,$1+$1,$8,$9,$2,$3,0*%
G04 Aperture macros list end*
%TA.AperFunction,SMDPad,CuDef*%
%ADD10RoundRect,0.135000X-0.185000X0.135000X-0.185000X-0.135000X0.185000X-0.135000X0.185000X0.135000X0*%
%TD*%
%TA.AperFunction,SMDPad,CuDef*%
%ADD11RoundRect,0.135000X-0.135000X-0.185000X0.135000X-0.185000X0.135000X0.185000X-0.135000X0.185000X0*%
%TD*%
%TA.AperFunction,SMDPad,CuDef*%
%ADD12R,0.800000X1.800000*%
%TD*%
%TA.AperFunction,SMDPad,CuDef*%
%ADD13RoundRect,0.140000X-0.170000X0.140000X-0.170000X-0.140000X0.170000X-0.140000X0.170000X0.140000X0*%
%TD*%
%TA.AperFunction,SMDPad,CuDef*%
%ADD14RoundRect,0.218750X-0.218750X-0.256250X0.218750X-0.256250X0.218750X0.256250X-0.218750X0.256250X0*%
%TD*%
%TA.AperFunction,ComponentPad*%
%ADD15R,1.000000X1.000000*%
%TD*%
%TA.AperFunction,ComponentPad*%
%ADD16O,1.000000X1.000000*%
%TD*%
%TA.AperFunction,ComponentPad*%
%ADD17R,1.700000X1.700000*%
%TD*%
%TA.AperFunction,ComponentPad*%
%ADD18O,1.700000X1.700000*%
%TD*%
%TA.AperFunction,SMDPad,CuDef*%
%ADD19R,1.800000X1.000000*%
%TD*%
%TA.AperFunction,SMDPad,CuDef*%
%ADD20RoundRect,0.140000X-0.140000X-0.170000X0.140000X-0.170000X0.140000X0.170000X-0.140000X0.170000X0*%
%TD*%
%TA.AperFunction,SMDPad,CuDef*%
%ADD21R,0.400000X0.500000*%
%TD*%
%TA.AperFunction,ComponentPad*%
%ADD22R,1.350000X1.350000*%
%TD*%
%TA.AperFunction,ComponentPad*%
%ADD23O,1.350000X1.350000*%
%TD*%
%TA.AperFunction,SMDPad,CuDef*%
%ADD24R,0.800000X0.300000*%
%TD*%
%TA.AperFunction,SMDPad,CuDef*%
%ADD25R,0.300000X0.800000*%
%TD*%
%TA.AperFunction,SMDPad,CuDef*%
%ADD26R,2.800000X2.800000*%
%TD*%
%TA.AperFunction,SMDPad,CuDef*%
%ADD27RoundRect,0.140000X0.140000X0.170000X-0.140000X0.170000X-0.140000X-0.170000X0.140000X-0.170000X0*%
%TD*%
%TA.AperFunction,SMDPad,CuDef*%
%ADD28RoundRect,0.140000X0.170000X-0.140000X0.170000X0.140000X-0.170000X0.140000X-0.170000X-0.140000X0*%
%TD*%
%TA.AperFunction,SMDPad,CuDef*%
%ADD29R,0.300000X0.492000*%
%TD*%
%TA.AperFunction,SMDPad,CuDef*%
%ADD30RoundRect,0.218750X0.256250X-0.218750X0.256250X0.218750X-0.256250X0.218750X-0.256250X-0.218750X0*%
%TD*%
%TA.AperFunction,SMDPad,CuDef*%
%ADD31R,1.200000X0.600000*%
%TD*%
%TA.AperFunction,SMDPad,CuDef*%
%ADD32RoundRect,0.125000X-0.125000X-0.137500X0.125000X-0.137500X0.125000X0.137500X-0.125000X0.137500X0*%
%TD*%
%TA.AperFunction,SMDPad,CuDef*%
%ADD33RoundRect,0.147500X-0.172500X0.147500X-0.172500X-0.147500X0.172500X-0.147500X0.172500X0.147500X0*%
%TD*%
%TA.AperFunction,SMDPad,CuDef*%
%ADD34R,0.800000X1.400000*%
%TD*%
%TA.AperFunction,SMDPad,CuDef*%
%ADD35R,0.400000X1.400000*%
%TD*%
%TA.AperFunction,SMDPad,CuDef*%
%ADD36R,1.400000X0.400000*%
%TD*%
%TA.AperFunction,SMDPad,CuDef*%
%ADD37RoundRect,0.135000X0.135000X0.185000X-0.135000X0.185000X-0.135000X-0.185000X0.135000X-0.185000X0*%
%TD*%
%TA.AperFunction,SMDPad,CuDef*%
%ADD38RoundRect,0.135000X0.185000X-0.135000X0.185000X0.135000X-0.185000X0.135000X-0.185000X-0.135000X0*%
%TD*%
%TA.AperFunction,SMDPad,CuDef*%
%ADD39R,1.250000X0.600000*%
%TD*%
%TA.AperFunction,SMDPad,CuDef*%
%ADD40RoundRect,0.218750X0.218750X0.256250X-0.218750X0.256250X-0.218750X-0.256250X0.218750X-0.256250X0*%
%TD*%
%TA.AperFunction,SMDPad,CuDef*%
%ADD41R,1.200000X0.700000*%
%TD*%
%TA.AperFunction,SMDPad,CuDef*%
%ADD42R,1.200000X0.760000*%
%TD*%
%TA.AperFunction,SMDPad,CuDef*%
%ADD43R,1.200000X0.800000*%
%TD*%
%TA.AperFunction,ComponentPad*%
%ADD44C,2.010000*%
%TD*%
%TA.AperFunction,ComponentPad*%
%ADD45C,2.565000*%
%TD*%
%TA.AperFunction,SMDPad,CuDef*%
%ADD46R,0.600000X1.200000*%
%TD*%
%TA.AperFunction,ComponentPad*%
%ADD47C,3.800000*%
%TD*%
%TA.AperFunction,ViaPad*%
%ADD48C,0.600000*%
%TD*%
%TA.AperFunction,ViaPad*%
%ADD49C,0.700000*%
%TD*%
%TA.AperFunction,Conductor*%
%ADD50C,0.400000*%
%TD*%
%TA.AperFunction,Conductor*%
%ADD51C,0.300000*%
%TD*%
%TA.AperFunction,Conductor*%
%ADD52C,0.500000*%
%TD*%
%TA.AperFunction,Conductor*%
%ADD53C,0.200000*%
%TD*%
G04 APERTURE END LIST*
D10*
X143825000Y-86765000D03*
X143825000Y-87785000D03*
D11*
X127985000Y-96660000D03*
X129005000Y-96660000D03*
D12*
X108850000Y-84795000D03*
X107250000Y-84795000D03*
D13*
X109220000Y-100795000D03*
X109220000Y-101755000D03*
D14*
X140512500Y-77300000D03*
X142087500Y-77300000D03*
D10*
X141775000Y-82500000D03*
X141775000Y-83520000D03*
D15*
X98080000Y-80640000D03*
D16*
X98080000Y-79370000D03*
D17*
X140820000Y-104000000D03*
D18*
X143360000Y-104000000D03*
X145900000Y-104000000D03*
X148440000Y-104000000D03*
D19*
X135050000Y-90500000D03*
X135050000Y-93000000D03*
D20*
X143795000Y-88800000D03*
X144755000Y-88800000D03*
D21*
X114510000Y-81710000D03*
X115310000Y-81710000D03*
D22*
X128000000Y-82900000D03*
D23*
X125500000Y-82900000D03*
X123000000Y-82900000D03*
X128000000Y-79600000D03*
X125500000Y-79600000D03*
X123000000Y-79600000D03*
D24*
X108250000Y-82170000D03*
X108250000Y-81670000D03*
X108250000Y-81170000D03*
X108250000Y-80670000D03*
X108250000Y-80170000D03*
X108250000Y-79670000D03*
D25*
X107500000Y-78920000D03*
X107000000Y-78920000D03*
X106500000Y-78920000D03*
X106000000Y-78920000D03*
X105500000Y-78920000D03*
X105000000Y-78920000D03*
D24*
X104250000Y-79670000D03*
X104250000Y-80170000D03*
X104250000Y-80670000D03*
X104250000Y-81170000D03*
X104250000Y-81670000D03*
X104250000Y-82170000D03*
D25*
X105000000Y-82920000D03*
X105500000Y-82920000D03*
X106000000Y-82920000D03*
X106500000Y-82920000D03*
X107000000Y-82920000D03*
X107500000Y-82920000D03*
D26*
X106250000Y-80920000D03*
D27*
X113125000Y-103125000D03*
X112165000Y-103125000D03*
D28*
X102950000Y-83895000D03*
X102950000Y-82935000D03*
D29*
X142850000Y-85200000D03*
X143350000Y-85200000D03*
X143850000Y-85200000D03*
X143850000Y-83532000D03*
X143350000Y-83532000D03*
X142850000Y-83532000D03*
D28*
X100175000Y-83895000D03*
X100175000Y-82935000D03*
D30*
X140400000Y-87437500D03*
X140400000Y-85862500D03*
D31*
X130220000Y-95260000D03*
X130220000Y-94310000D03*
X130220000Y-93360000D03*
X127720000Y-93360000D03*
X127720000Y-95260000D03*
D10*
X132695000Y-95250000D03*
X132695000Y-96270000D03*
D32*
X135190000Y-102765000D03*
X135990000Y-102765000D03*
X136790000Y-102765000D03*
X137590000Y-102765000D03*
X137590000Y-105140000D03*
X136790000Y-105140000D03*
X135990000Y-105140000D03*
X135190000Y-105140000D03*
D17*
X150500000Y-82235000D03*
D18*
X150500000Y-84775000D03*
X150500000Y-87315000D03*
D13*
X110475000Y-83080000D03*
X110475000Y-84040000D03*
D11*
X144890000Y-85050000D03*
X145910000Y-85050000D03*
D13*
X100710000Y-79710000D03*
X100710000Y-80670000D03*
D21*
X101200000Y-82945000D03*
X102000000Y-82945000D03*
D11*
X131190000Y-98700000D03*
X132210000Y-98700000D03*
D33*
X141750000Y-86665000D03*
X141750000Y-87635000D03*
D34*
X149100000Y-90327500D03*
D35*
X146100000Y-90327500D03*
X145400000Y-90327500D03*
X144700000Y-90327500D03*
X144000000Y-90327500D03*
X143300000Y-90327500D03*
X142600000Y-90327500D03*
X141900000Y-90327500D03*
X141200000Y-90327500D03*
X140500000Y-90327500D03*
X139800000Y-90327500D03*
D36*
X137700000Y-90727500D03*
X137700000Y-91427500D03*
X137700000Y-92127500D03*
X137700000Y-92827500D03*
X137700000Y-93527500D03*
X137700000Y-94227500D03*
X137700000Y-94927500D03*
X137700000Y-95627500D03*
X137700000Y-96327500D03*
X137700000Y-97027500D03*
X137700000Y-97727500D03*
X137700000Y-98427500D03*
X137700000Y-99127500D03*
D35*
X139100000Y-99527500D03*
X139800000Y-99527500D03*
X140500000Y-99527500D03*
X141200000Y-99527500D03*
X141900000Y-99527500D03*
X142600000Y-99527500D03*
X143300000Y-99527500D03*
X144000000Y-99527500D03*
X144700000Y-99527500D03*
X145400000Y-99527500D03*
X146100000Y-99527500D03*
X146800000Y-99527500D03*
X147500000Y-99527500D03*
X148200000Y-99527500D03*
D34*
X149100000Y-99527500D03*
D37*
X146850000Y-88800000D03*
X145830000Y-88800000D03*
D28*
X134010000Y-99680000D03*
X134010000Y-98720000D03*
D20*
X141220000Y-88750000D03*
X142180000Y-88750000D03*
D13*
X120970000Y-99145000D03*
X120970000Y-100105000D03*
D38*
X130220000Y-91990000D03*
X130220000Y-90970000D03*
X116200000Y-101435000D03*
X116200000Y-100415000D03*
D28*
X126320000Y-96215000D03*
X126320000Y-95255000D03*
D38*
X109220000Y-99860000D03*
X109220000Y-98840000D03*
D28*
X132800000Y-91000000D03*
X132800000Y-90040000D03*
D31*
X113120000Y-101750000D03*
X113120000Y-100800000D03*
X113120000Y-99850000D03*
X110620000Y-99850000D03*
X110620000Y-101750000D03*
D37*
X143960000Y-79300000D03*
X142940000Y-79300000D03*
D20*
X118600000Y-103050000D03*
X119560000Y-103050000D03*
D13*
X134065000Y-102840000D03*
X134065000Y-103800000D03*
D39*
X147525000Y-81550000D03*
X147525000Y-79640000D03*
X145425000Y-80595000D03*
D11*
X99940000Y-94625000D03*
X100960000Y-94625000D03*
D10*
X122400000Y-99140000D03*
X122400000Y-100160000D03*
D40*
X145537500Y-77300000D03*
X143962500Y-77300000D03*
D27*
X101930000Y-81695000D03*
X100970000Y-81695000D03*
D28*
X139000000Y-88380000D03*
X139000000Y-87420000D03*
D38*
X134200000Y-96265000D03*
X134200000Y-95245000D03*
D10*
X102985000Y-78920000D03*
X102985000Y-79940000D03*
D11*
X99940000Y-93600000D03*
X100960000Y-93600000D03*
D38*
X144925000Y-87175000D03*
X144925000Y-86155000D03*
D13*
X132800000Y-92520000D03*
X132800000Y-93480000D03*
D41*
X96950000Y-93620000D03*
D42*
X96950000Y-95640000D03*
D43*
X96950000Y-96870000D03*
D41*
X96950000Y-94620000D03*
D42*
X96950000Y-92600000D03*
D43*
X96950000Y-91370000D03*
D44*
X96000000Y-88500000D03*
D45*
X92000000Y-88500000D03*
X92000000Y-99740000D03*
D44*
X96000000Y-99740000D03*
D28*
X134065000Y-106095000D03*
X134065000Y-105135000D03*
D37*
X117650000Y-97750000D03*
X116630000Y-97750000D03*
D13*
X131630000Y-95260000D03*
X131630000Y-96220000D03*
D46*
X119550000Y-99150000D03*
X118600000Y-99150000D03*
X117650000Y-99150000D03*
X117650000Y-101650000D03*
X119550000Y-101650000D03*
D28*
X135270000Y-96215000D03*
X135270000Y-95255000D03*
D27*
X110350000Y-81420000D03*
X109390000Y-81420000D03*
D47*
X104550000Y-101650000D03*
X104550000Y-88150000D03*
X111300000Y-94900000D03*
X119300000Y-94900000D03*
X126050000Y-88150000D03*
X126050000Y-101650000D03*
D48*
X143825000Y-86075000D03*
X116625000Y-98550000D03*
X95000000Y-105000000D03*
X146850000Y-88025000D03*
X105500000Y-80070000D03*
X115000000Y-76450000D03*
X115000000Y-109500000D03*
X115000000Y-85000000D03*
X135990000Y-105865000D03*
X137500000Y-83000000D03*
X90500000Y-109500000D03*
X100000000Y-109500000D03*
X125000000Y-109500000D03*
X133265000Y-106095000D03*
X140000000Y-97500000D03*
X112020000Y-99850000D03*
X130000000Y-109500000D03*
X133600000Y-92500000D03*
X127195000Y-96635000D03*
X118600000Y-103825000D03*
X108250000Y-79020000D03*
X100000000Y-100000000D03*
X130000000Y-76450000D03*
X142526054Y-88024813D03*
X111305000Y-84040000D03*
X152500000Y-80000000D03*
X135000000Y-76450000D03*
X129375000Y-90975000D03*
X145000000Y-109500000D03*
X104350000Y-78895000D03*
X130000000Y-79500000D03*
X110350000Y-80620000D03*
X110000000Y-76450000D03*
X104250000Y-82945000D03*
X139000000Y-76450000D03*
X133230000Y-99670000D03*
X100960000Y-92760000D03*
X152500000Y-109500000D03*
X90500000Y-76500000D03*
X110000000Y-109500000D03*
X135190000Y-101965000D03*
D49*
X147525000Y-78525000D03*
D48*
X120000000Y-85000000D03*
X100000000Y-76450000D03*
X140000000Y-109500000D03*
X95000000Y-109500000D03*
X100275000Y-81695000D03*
D49*
X96950000Y-97750000D03*
D48*
X135000000Y-109500000D03*
X110000000Y-90000000D03*
X100000000Y-105000000D03*
X107000000Y-80070000D03*
X105000000Y-109500000D03*
X95000000Y-76450000D03*
X152500000Y-85000000D03*
X118600000Y-97950000D03*
X139000000Y-79500000D03*
X129106765Y-93898235D03*
X152500000Y-105000000D03*
X142050000Y-85200000D03*
X100975000Y-83895000D03*
X135000000Y-79500000D03*
X90500000Y-80000000D03*
X125000000Y-76450000D03*
X145000000Y-106000000D03*
X126320000Y-96960000D03*
X133265000Y-102845000D03*
D49*
X96950000Y-90450000D03*
X149100000Y-100850000D03*
D48*
X102150000Y-78895000D03*
X107000000Y-81670000D03*
X105000000Y-76450000D03*
X144750000Y-88025000D03*
X152500000Y-101000000D03*
X145000000Y-92500000D03*
X152500000Y-89000000D03*
X152500000Y-76450000D03*
X142500000Y-95000000D03*
X137700000Y-90000000D03*
X120000000Y-76450000D03*
X133600000Y-91000000D03*
D49*
X137700000Y-99900000D03*
D48*
X145925000Y-84225000D03*
X134965000Y-96950000D03*
X109995000Y-100800000D03*
X105500000Y-81670000D03*
X90500000Y-95000000D03*
X90510000Y-105000000D03*
X100725000Y-78945000D03*
D49*
X149100000Y-91600000D03*
D48*
X147500000Y-76450000D03*
X100950000Y-95450000D03*
X102175000Y-83895000D03*
X109465181Y-80607187D03*
X132500000Y-83000000D03*
X137590000Y-105870000D03*
X139000000Y-86600000D03*
X120000000Y-109500000D03*
X115000000Y-90000000D03*
D49*
X143330000Y-82500000D03*
X133096000Y-105156000D03*
X133096000Y-103886000D03*
X126238000Y-94234000D03*
X137922000Y-88392000D03*
X120650000Y-103124000D03*
X108340000Y-101740000D03*
D48*
X109400000Y-82220000D03*
X106000000Y-83820000D03*
X102865380Y-81535380D03*
D49*
X99300000Y-92025000D03*
X98985000Y-95435000D03*
D50*
X100960000Y-95440000D02*
X100950000Y-95450000D01*
D51*
X105500000Y-80170000D02*
X106200000Y-80870000D01*
D50*
X137700000Y-90000000D02*
X137700000Y-90727500D01*
X127220000Y-96660000D02*
X127195000Y-96635000D01*
X129106765Y-93898235D02*
X129518530Y-94310000D01*
X127985000Y-96660000D02*
X127220000Y-96660000D01*
X100970000Y-81695000D02*
X100275000Y-81695000D01*
D51*
X109465181Y-80607187D02*
X109402368Y-80670000D01*
X106250000Y-80920000D02*
X106250000Y-80920000D01*
D50*
X100960000Y-92760000D02*
X100960000Y-93600000D01*
X134065000Y-102840000D02*
X133270000Y-102840000D01*
X143825000Y-86765000D02*
X143825000Y-86075000D01*
X133270000Y-102840000D02*
X133265000Y-102845000D01*
X132800000Y-91000000D02*
X132800000Y-92520000D01*
X100175000Y-83895000D02*
X100975000Y-83895000D01*
X109990000Y-100795000D02*
X109995000Y-100800000D01*
D51*
X107000000Y-82920000D02*
X107000000Y-81670000D01*
X105500000Y-80170000D02*
X106250000Y-80920000D01*
D50*
X137700000Y-99127500D02*
X137700000Y-99900000D01*
D51*
X109402368Y-80670000D02*
X108250000Y-80670000D01*
D50*
X118600000Y-103050000D02*
X118600000Y-103825000D01*
D51*
X108150000Y-78920000D02*
X108250000Y-79020000D01*
D50*
X129518530Y-94310000D02*
X130220000Y-94310000D01*
D51*
X142850000Y-85200000D02*
X142050000Y-85200000D01*
X107000000Y-80070000D02*
X107000000Y-80170000D01*
X105000000Y-78920000D02*
X105500000Y-78920000D01*
X104250000Y-82945000D02*
X104975000Y-82945000D01*
X105500000Y-78920000D02*
X105500000Y-80170000D01*
D50*
X134010000Y-99680000D02*
X133240000Y-99680000D01*
X109220000Y-100795000D02*
X109990000Y-100795000D01*
X149100000Y-90327500D02*
X149100000Y-91600000D01*
X116630000Y-97750000D02*
X116630000Y-98545000D01*
D51*
X106250000Y-80870000D02*
X106250000Y-80920000D01*
X108250000Y-79670000D02*
X108250000Y-79020000D01*
X105500000Y-81670000D02*
X106250000Y-80920000D01*
X107500000Y-78920000D02*
X108150000Y-78920000D01*
X105000000Y-82170000D02*
X105500000Y-81670000D01*
D50*
X139000000Y-87420000D02*
X139000000Y-86600000D01*
X132800000Y-92520000D02*
X133580000Y-92520000D01*
X116630000Y-98545000D02*
X116625000Y-98550000D01*
X130220000Y-90970000D02*
X129380000Y-90970000D01*
D51*
X107000000Y-81670000D02*
X106250000Y-80920000D01*
X135190000Y-102765000D02*
X135190000Y-101965000D01*
X135990000Y-105140000D02*
X135990000Y-105865000D01*
D50*
X147525000Y-79640000D02*
X147525000Y-78525000D01*
X96950000Y-91370000D02*
X96950000Y-90450000D01*
X132800000Y-91000000D02*
X133600000Y-91000000D01*
X100710000Y-79710000D02*
X100710000Y-78960000D01*
X129380000Y-90970000D02*
X129375000Y-90975000D01*
D51*
X104250000Y-82170000D02*
X105000000Y-82170000D01*
X107000000Y-80170000D02*
X106250000Y-80920000D01*
D50*
X146850000Y-88800000D02*
X146850000Y-88025000D01*
D51*
X105000000Y-78920000D02*
X104375000Y-78920000D01*
X107500000Y-78920000D02*
X107500000Y-79670000D01*
D50*
X149100000Y-99527500D02*
X149100000Y-100850000D01*
X100960000Y-93600000D02*
X100960000Y-94625000D01*
X126320000Y-96215000D02*
X126320000Y-96960000D01*
X134965000Y-96950000D02*
X135270000Y-96645000D01*
X100960000Y-94625000D02*
X100960000Y-95440000D01*
D51*
X110350000Y-81420000D02*
X110350000Y-80620000D01*
X105000000Y-82920000D02*
X105000000Y-82170000D01*
X105500000Y-80070000D02*
X105500000Y-80170000D01*
X104375000Y-78920000D02*
X104350000Y-78895000D01*
X108250000Y-80670000D02*
X106500000Y-80670000D01*
D50*
X100710000Y-78960000D02*
X100725000Y-78945000D01*
X142526054Y-88024813D02*
X142180000Y-88370867D01*
X135270000Y-96645000D02*
X135270000Y-96215000D01*
X113120000Y-99850000D02*
X112020000Y-99850000D01*
X145910000Y-85050000D02*
X145910000Y-84240000D01*
X118600000Y-99150000D02*
X118600000Y-97950000D01*
X113120000Y-100800000D02*
X113120000Y-99850000D01*
D51*
X104975000Y-82945000D02*
X105000000Y-82920000D01*
X108250000Y-79670000D02*
X107500000Y-79670000D01*
X110475000Y-84040000D02*
X111305000Y-84040000D01*
X106500000Y-80670000D02*
X106250000Y-80920000D01*
D50*
X96950000Y-96870000D02*
X96950000Y-97750000D01*
X133240000Y-99680000D02*
X133230000Y-99670000D01*
X145910000Y-84240000D02*
X145925000Y-84225000D01*
X102985000Y-78920000D02*
X102175000Y-78920000D01*
X142180000Y-88370867D02*
X142180000Y-88750000D01*
D51*
X107100000Y-80070000D02*
X107000000Y-80070000D01*
X106200000Y-80870000D02*
X106250000Y-80870000D01*
X107500000Y-79670000D02*
X107100000Y-80070000D01*
D50*
X134065000Y-106095000D02*
X133265000Y-106095000D01*
X144755000Y-88030000D02*
X144750000Y-88025000D01*
X102175000Y-78920000D02*
X102150000Y-78895000D01*
D51*
X106500000Y-78920000D02*
X106500000Y-80670000D01*
D50*
X144755000Y-88800000D02*
X144755000Y-88030000D01*
X102175000Y-83895000D02*
X102950000Y-83895000D01*
X137590000Y-105140000D02*
X137590000Y-105870000D01*
D51*
X104250000Y-82170000D02*
X104250000Y-82945000D01*
X143850000Y-83020000D02*
X143850000Y-83532000D01*
X143330000Y-82500000D02*
X141775000Y-82500000D01*
D52*
X100710000Y-80670000D02*
X98110000Y-80670000D01*
D51*
X143330000Y-82500000D02*
X143850000Y-83020000D01*
D52*
X141780000Y-82495000D02*
X141775000Y-82500000D01*
X98110000Y-80670000D02*
X98080000Y-80640000D01*
D50*
X100685000Y-80645000D02*
X100710000Y-80670000D01*
D51*
X104250000Y-80670000D02*
X100710000Y-80670000D01*
X134019239Y-90500000D02*
X133559239Y-90040000D01*
X137700000Y-91427500D02*
X135927500Y-91427500D01*
X133559239Y-90040000D02*
X132800000Y-90040000D01*
X135927500Y-91427500D02*
X135050000Y-90550000D01*
X135050000Y-90550000D02*
X135050000Y-90500000D01*
X135050000Y-90500000D02*
X134019239Y-90500000D01*
X135972500Y-92127500D02*
X135100000Y-93000000D01*
X134019239Y-93000000D02*
X133539239Y-93480000D01*
X137700000Y-92127500D02*
X135972500Y-92127500D01*
X135050000Y-93000000D02*
X134019239Y-93000000D01*
D53*
X134900000Y-93150000D02*
X135050000Y-93000000D01*
D51*
X135100000Y-93000000D02*
X135050000Y-93000000D01*
X133539239Y-93480000D02*
X132800000Y-93480000D01*
D53*
X141200000Y-90327500D02*
X141200000Y-88770000D01*
X141220000Y-88165000D02*
X141750000Y-87635000D01*
X141220000Y-88750000D02*
X141220000Y-88165000D01*
X141200000Y-88770000D02*
X141220000Y-88750000D01*
D50*
X139800000Y-90327500D02*
X139800000Y-88800000D01*
D52*
X126238000Y-95173000D02*
X126320000Y-95255000D01*
D53*
X133840000Y-103905000D02*
X133940000Y-103805000D01*
D50*
X135185000Y-105135000D02*
X135190000Y-105140000D01*
X135990000Y-103245000D02*
X135435000Y-103800000D01*
D52*
X120650000Y-103124000D02*
X119634000Y-103124000D01*
D50*
X135435000Y-103800000D02*
X135970000Y-103800000D01*
D52*
X133979000Y-103886000D02*
X134065000Y-103800000D01*
D50*
X110615000Y-101755000D02*
X110620000Y-101750000D01*
X119560000Y-101660000D02*
X119550000Y-101650000D01*
D52*
X137922000Y-88392000D02*
X138988000Y-88392000D01*
D50*
X139800000Y-88800000D02*
X139380000Y-88380000D01*
X126320000Y-95255000D02*
X127715000Y-95255000D01*
X135970000Y-103800000D02*
X136790000Y-104620000D01*
D52*
X119634000Y-103124000D02*
X119560000Y-103050000D01*
X110610000Y-101760000D02*
X110620000Y-101750000D01*
X108340000Y-101740000D02*
X109205000Y-101740000D01*
D50*
X127715000Y-95255000D02*
X127720000Y-95260000D01*
X135990000Y-102765000D02*
X135990000Y-103245000D01*
X135435000Y-103800000D02*
X134065000Y-103800000D01*
X134065000Y-105135000D02*
X135185000Y-105135000D01*
D52*
X138980000Y-88400000D02*
X139000000Y-88380000D01*
X126238000Y-94234000D02*
X126238000Y-95173000D01*
X134044000Y-105156000D02*
X134065000Y-105135000D01*
D50*
X139810000Y-90317500D02*
X139800000Y-90327500D01*
D52*
X109205000Y-101740000D02*
X109220000Y-101755000D01*
D50*
X136790000Y-104620000D02*
X136790000Y-105140000D01*
D52*
X133096000Y-103886000D02*
X133979000Y-103886000D01*
D50*
X139380000Y-88380000D02*
X139000000Y-88380000D01*
X119560000Y-103050000D02*
X119560000Y-101660000D01*
X109220000Y-101755000D02*
X110615000Y-101755000D01*
D52*
X138988000Y-88392000D02*
X139000000Y-88380000D01*
X133096000Y-105156000D02*
X134044000Y-105156000D01*
D51*
X108250000Y-81670000D02*
X109140000Y-81670000D01*
D53*
X109390000Y-81420000D02*
X109390000Y-82210000D01*
D51*
X109140000Y-81170000D02*
X109390000Y-81420000D01*
D53*
X106000000Y-83820000D02*
X106000000Y-82920000D01*
X109390000Y-82210000D02*
X109400000Y-82220000D01*
D51*
X109140000Y-81670000D02*
X109390000Y-81420000D01*
X108250000Y-81170000D02*
X109140000Y-81170000D01*
X108983129Y-80170000D02*
X109558129Y-79595000D01*
X124475000Y-80625000D02*
X125500000Y-79600000D01*
X102865380Y-81535380D02*
X102089620Y-81535380D01*
X142087500Y-77300000D02*
X141087500Y-78300000D01*
X103230760Y-81170000D02*
X104250000Y-81170000D01*
X109558129Y-79595000D02*
X113050000Y-79595000D01*
X126800000Y-78300000D02*
X127090000Y-78300000D01*
X141087500Y-78300000D02*
X127090000Y-78300000D01*
X102865380Y-81535380D02*
X103230760Y-81170000D01*
X108250000Y-80170000D02*
X108983129Y-80170000D01*
X114080000Y-80625000D02*
X124475000Y-80625000D01*
X102089620Y-81535380D02*
X101930000Y-81695000D01*
X125500000Y-79600000D02*
X126800000Y-78300000D01*
X113050000Y-79595000D02*
X114080000Y-80625000D01*
D52*
X102940000Y-82945000D02*
X102950000Y-82935000D01*
D51*
X102950000Y-82370000D02*
X103650000Y-81670000D01*
X103650000Y-81670000D02*
X104250000Y-81670000D01*
X102950000Y-82935000D02*
X102950000Y-82370000D01*
D52*
X102000000Y-82945000D02*
X102940000Y-82945000D01*
X113140000Y-83080000D02*
X114510000Y-81710000D01*
X110475000Y-83080000D02*
X108860000Y-83080000D01*
X108850000Y-84795000D02*
X108850000Y-83190000D01*
X108860000Y-83080000D02*
X108850000Y-83070000D01*
X108850000Y-83070000D02*
X108250000Y-82470000D01*
X108850000Y-83190000D02*
X108850000Y-83070000D01*
X108250000Y-82270000D02*
X108250000Y-82470000D01*
X110475000Y-83080000D02*
X113140000Y-83080000D01*
D53*
X112165000Y-103125000D02*
X111845000Y-102805000D01*
X111845000Y-101075000D02*
X110620000Y-99850000D01*
X109230000Y-99850000D02*
X109220000Y-99860000D01*
X110620000Y-99850000D02*
X109230000Y-99850000D01*
X111845000Y-102805000D02*
X111845000Y-101075000D01*
D50*
X104550000Y-101650000D02*
X106890000Y-103990000D01*
D53*
X113120000Y-101750000D02*
X113120000Y-103120000D01*
D50*
X106890000Y-103990000D02*
X112569999Y-103990000D01*
D53*
X113125000Y-103225000D02*
X113125000Y-103125000D01*
X113120000Y-103120000D02*
X113125000Y-103125000D01*
D50*
X113125000Y-103434999D02*
X113125000Y-103125000D01*
X112569999Y-103990000D02*
X113125000Y-103434999D01*
D53*
X137697500Y-94225000D02*
X137700000Y-94227500D01*
X136772500Y-94227500D02*
X135745000Y-95255000D01*
X136772500Y-94227500D02*
X137700000Y-94227500D01*
X134310000Y-95085000D02*
X134135000Y-95085000D01*
X135745000Y-95255000D02*
X135270000Y-95255000D01*
X134200000Y-95245000D02*
X135260000Y-95245000D01*
X144925000Y-87175000D02*
X144435000Y-87175000D01*
X144000000Y-89005000D02*
X143795000Y-88800000D01*
X143825000Y-88770000D02*
X143795000Y-88800000D01*
X144435000Y-87175000D02*
X143825000Y-87785000D01*
X144000000Y-90327500D02*
X144000000Y-89005000D01*
X143825000Y-87785000D02*
X143825000Y-88770000D01*
X131620000Y-96220000D02*
X132645000Y-96220000D01*
X129005000Y-96660000D02*
X131180000Y-96660000D01*
X129005000Y-94645000D02*
X129005000Y-96660000D01*
X131180000Y-96660000D02*
X131620000Y-96220000D01*
X132645000Y-96220000D02*
X132695000Y-96270000D01*
X127720000Y-93360000D02*
X129005000Y-94645000D01*
X132685000Y-95260000D02*
X132695000Y-95250000D01*
X133710000Y-96265000D02*
X132695000Y-95250000D01*
X131630000Y-95260000D02*
X132685000Y-95260000D01*
X130220000Y-95260000D02*
X131630000Y-95260000D01*
X134200000Y-96265000D02*
X133710000Y-96265000D01*
X120970000Y-99145000D02*
X122395000Y-99145000D01*
X120965000Y-99150000D02*
X120970000Y-99145000D01*
X122395000Y-99145000D02*
X122400000Y-99140000D01*
X130750000Y-99140000D02*
X131190000Y-98700000D01*
X119550000Y-99150000D02*
X120965000Y-99150000D01*
X122400000Y-99140000D02*
X130750000Y-99140000D01*
X120970000Y-100105000D02*
X122345000Y-100105000D01*
X120970000Y-100105000D02*
X120650000Y-100425000D01*
X122345000Y-100105000D02*
X122400000Y-100160000D01*
X116415000Y-101650000D02*
X116200000Y-101435000D01*
X120650000Y-100425000D02*
X118875000Y-100425000D01*
X121025000Y-100160000D02*
X120970000Y-100105000D01*
X117650000Y-101650000D02*
X116415000Y-101650000D01*
X118875000Y-100425000D02*
X117650000Y-101650000D01*
X136400000Y-97100000D02*
X136400000Y-95427500D01*
X132230000Y-98720000D02*
X132210000Y-98700000D01*
X136900000Y-94927500D02*
X137700000Y-94927500D01*
X136400000Y-95427500D02*
X136900000Y-94927500D01*
X134780000Y-98720000D02*
X136400000Y-97100000D01*
X134010000Y-98720000D02*
X132230000Y-98720000D01*
X134780000Y-98720000D02*
X134010000Y-98720000D01*
D51*
X107900000Y-77295000D02*
X107000000Y-78195000D01*
X117845000Y-77295000D02*
X117850000Y-77300000D01*
X107900000Y-77295000D02*
X117845000Y-77295000D01*
X140512500Y-77300000D02*
X117850000Y-77300000D01*
X107000000Y-78195000D02*
X107000000Y-78920000D01*
X145537500Y-80482500D02*
X145425000Y-80595000D01*
X145537500Y-77300000D02*
X145537500Y-80482500D01*
X143960000Y-77302500D02*
X143962500Y-77300000D01*
X143960000Y-79300000D02*
X143960000Y-77302500D01*
D53*
X147625000Y-87650000D02*
X147625000Y-91750000D01*
X144000000Y-95375000D02*
X144000000Y-99527500D01*
X147625000Y-91750000D02*
X144000000Y-95375000D01*
X150500000Y-84775000D02*
X147625000Y-87650000D01*
X147525000Y-81550000D02*
X147525000Y-86100000D01*
X145400000Y-89230000D02*
X145400000Y-90327500D01*
X147525000Y-86100000D02*
X145830000Y-87795000D01*
X145830000Y-88800000D02*
X145400000Y-89230000D01*
X145830000Y-87795000D02*
X145830000Y-88800000D01*
X149935000Y-87315000D02*
X148175000Y-89075000D01*
X150500000Y-87315000D02*
X149935000Y-87315000D01*
X148175000Y-89075000D02*
X148175000Y-92400000D01*
X144700000Y-95875000D02*
X144700000Y-99527500D01*
X148175000Y-92400000D02*
X144700000Y-95875000D01*
X147500000Y-99527500D02*
X147500000Y-102400000D01*
X147500000Y-102400000D02*
X145900000Y-104000000D01*
X146800000Y-100560000D02*
X143360000Y-104000000D01*
X146800000Y-99527500D02*
X146800000Y-100560000D01*
X140405000Y-101045000D02*
X141200000Y-100250000D01*
X136790000Y-102765000D02*
X136790000Y-102502501D01*
X138247501Y-101045000D02*
X140405000Y-101045000D01*
X141200000Y-100250000D02*
X141200000Y-99527500D01*
X136790000Y-102502501D02*
X138247501Y-101045000D01*
X143575000Y-84450000D02*
X144290000Y-84450000D01*
X143350000Y-84675000D02*
X143575000Y-84450000D01*
X144290000Y-84450000D02*
X144890000Y-85050000D01*
X143350000Y-85696000D02*
X143350000Y-85200000D01*
X143300000Y-90327500D02*
X143300000Y-89427500D01*
X143300000Y-89427500D02*
X143126054Y-89253554D01*
X143126054Y-85919946D02*
X143350000Y-85696000D01*
X143350000Y-85200000D02*
X143350000Y-84675000D01*
X143126054Y-89253554D02*
X143126054Y-85919946D01*
X140500000Y-87537500D02*
X140400000Y-87437500D01*
X140500000Y-90327500D02*
X140500000Y-87537500D01*
X140788750Y-101700000D02*
X141900000Y-100588750D01*
X141900000Y-100588750D02*
X141900000Y-99527500D01*
X137590000Y-102765000D02*
X138655000Y-101700000D01*
X138655000Y-101700000D02*
X140788750Y-101700000D01*
D50*
X130220000Y-91990000D02*
X130220000Y-93360000D01*
X122210000Y-91990000D02*
X119300000Y-94900000D01*
X130220000Y-91990000D02*
X122210000Y-91990000D01*
D53*
X117650000Y-99150000D02*
X117650000Y-97750000D01*
X117640000Y-99140000D02*
X117650000Y-99150000D01*
X106500000Y-82920000D02*
X106500000Y-83471471D01*
X106600000Y-83571471D02*
X106600000Y-84145000D01*
X106600000Y-84145000D02*
X107250000Y-84795000D01*
X106500000Y-83471471D02*
X106600000Y-83571471D01*
X103470000Y-79940000D02*
X103700000Y-80170000D01*
X104250000Y-80170000D02*
X103700000Y-80170000D01*
X102985000Y-79940000D02*
X103470000Y-79940000D01*
D51*
X130130000Y-80900000D02*
X139025000Y-80900000D01*
X140625000Y-79300000D02*
X142940000Y-79300000D01*
X139025000Y-80900000D02*
X140625000Y-79300000D01*
X128000000Y-79600000D02*
X129300000Y-80900000D01*
X129300000Y-80900000D02*
X130130000Y-80900000D01*
D53*
X141202500Y-86665000D02*
X140400000Y-85862500D01*
X141750000Y-86665000D02*
X141202500Y-86665000D01*
X142838000Y-83520000D02*
X142850000Y-83532000D01*
X142850000Y-83532000D02*
X143350000Y-83532000D01*
X141775000Y-83520000D02*
X142838000Y-83520000D01*
D50*
X99920000Y-93620000D02*
X99940000Y-93600000D01*
X96950000Y-93620000D02*
X99920000Y-93620000D01*
X111300000Y-94900000D02*
X116200000Y-99800000D01*
X116200000Y-99800000D02*
X116200000Y-100415000D01*
X109220000Y-98840000D02*
X104550000Y-94170000D01*
X104550000Y-94170000D02*
X104550000Y-88150000D01*
X96950000Y-94620000D02*
X99935000Y-94620000D01*
X99935000Y-94620000D02*
X99940000Y-94625000D01*
X100165000Y-82945000D02*
X100175000Y-82935000D01*
D52*
X100165000Y-82945000D02*
X101200000Y-82945000D01*
X96950000Y-92600000D02*
X98725000Y-92600000D01*
X99655000Y-82945000D02*
X100165000Y-82945000D01*
D50*
X100185000Y-82945000D02*
X100175000Y-82935000D01*
D52*
X99300000Y-92025000D02*
X99300000Y-83300000D01*
X98985000Y-95435000D02*
X98695000Y-95725000D01*
X97035000Y-95725000D02*
X96950000Y-95640000D01*
D50*
X97085000Y-95775000D02*
X96950000Y-95640000D01*
D52*
X98725000Y-92600000D02*
X99300000Y-92025000D01*
X99300000Y-83300000D02*
X99655000Y-82945000D01*
X98695000Y-95725000D02*
X97035000Y-95725000D01*
D53*
X144805000Y-86155000D02*
X143850000Y-85200000D01*
X144925000Y-86155000D02*
X144805000Y-86155000D01*
D52*
X124310000Y-81710000D02*
X125500000Y-82900000D01*
X124310000Y-81710000D02*
X115310000Y-81710000D01*
M02*
