%TF.GenerationSoftware,KiCad,Pcbnew,8.0.2-1*%
%TF.CreationDate,2024-09-12T10:11:59+09:00*%
%TF.ProjectId,gas_nrf52832,6761735f-6e72-4663-9532-3833322e6b69,rev?*%
%TF.SameCoordinates,Original*%
%TF.FileFunction,Other,User*%
%FSLAX46Y46*%
G04 Gerber Fmt 4.6, Leading zero omitted, Abs format (unit mm)*
G04 Created by KiCad (PCBNEW 8.0.2-1) date 2024-09-12 10:11:59*
%MOMM*%
%LPD*%
G01*
G04 APERTURE LIST*
%ADD10C,0.050000*%
%ADD11C,0.100000*%
G04 APERTURE END LIST*
D10*
X143355000Y-86345000D02*
X144295000Y-86345000D01*
X143355000Y-88205000D02*
X143355000Y-86345000D01*
X144295000Y-86345000D02*
X144295000Y-88205000D01*
X144295000Y-88205000D02*
X143355000Y-88205000D01*
X127565000Y-96190000D02*
X129425000Y-96190000D01*
X127565000Y-97130000D02*
X127565000Y-96190000D01*
X129425000Y-96190000D02*
X129425000Y-97130000D01*
X129425000Y-97130000D02*
X127565000Y-97130000D01*
X106350000Y-83645000D02*
X109750000Y-83645000D01*
X106350000Y-85945000D02*
X106350000Y-83645000D01*
X109750000Y-83645000D02*
X109750000Y-85945000D01*
X109750000Y-85945000D02*
X106350000Y-85945000D01*
X108760000Y-100365000D02*
X109680000Y-100365000D01*
X108760000Y-102185000D02*
X108760000Y-100365000D01*
X109680000Y-100365000D02*
X109680000Y-102185000D01*
X109680000Y-102185000D02*
X108760000Y-102185000D01*
X139820000Y-76570000D02*
X142780000Y-76570000D01*
X139820000Y-78030000D02*
X139820000Y-76570000D01*
X142780000Y-76570000D02*
X142780000Y-78030000D01*
X142780000Y-78030000D02*
X139820000Y-78030000D01*
X141305000Y-82080000D02*
X142245000Y-82080000D01*
X141305000Y-83940000D02*
X141305000Y-82080000D01*
X142245000Y-82080000D02*
X142245000Y-83940000D01*
X142245000Y-83940000D02*
X141305000Y-83940000D01*
X96530000Y-78190000D02*
X96530000Y-81790000D01*
X96530000Y-81790000D02*
X99630000Y-81790000D01*
X99630000Y-78190000D02*
X96530000Y-78190000D01*
X99630000Y-81790000D02*
X99630000Y-78190000D01*
X139020000Y-102200000D02*
X139020000Y-105800000D01*
X139020000Y-105800000D02*
X150220000Y-105800000D01*
X150220000Y-102200000D02*
X139020000Y-102200000D01*
X150220000Y-105800000D02*
X150220000Y-102200000D01*
X133900000Y-89750000D02*
X136200000Y-89750000D01*
X133900000Y-93750000D02*
X133900000Y-89750000D01*
X133900000Y-93750000D02*
X136200000Y-93750000D01*
X136200000Y-93750000D02*
X136200000Y-89750000D01*
X143365000Y-88340000D02*
X145185000Y-88340000D01*
X143365000Y-89260000D02*
X143365000Y-88340000D01*
X145185000Y-88340000D02*
X145185000Y-89260000D01*
X145185000Y-89260000D02*
X143365000Y-89260000D01*
X94050000Y-78000000D02*
G75*
G02*
X89750000Y-78000000I-2150000J0D01*
G01*
X89750000Y-78000000D02*
G75*
G02*
X94050000Y-78000000I2150000J0D01*
G01*
X94050000Y-108000000D02*
G75*
G02*
X89750000Y-108000000I-2150000J0D01*
G01*
X89750000Y-108000000D02*
G75*
G02*
X94050000Y-108000000I2150000J0D01*
G01*
X153050000Y-78000000D02*
G75*
G02*
X148750000Y-78000000I-2150000J0D01*
G01*
X148750000Y-78000000D02*
G75*
G02*
X153050000Y-78000000I2150000J0D01*
G01*
X153050000Y-108000000D02*
G75*
G02*
X148750000Y-108000000I-2150000J0D01*
G01*
X148750000Y-108000000D02*
G75*
G02*
X153050000Y-108000000I2150000J0D01*
G01*
X111735000Y-102665000D02*
X113555000Y-102665000D01*
X111735000Y-103585000D02*
X111735000Y-102665000D01*
X113555000Y-102665000D02*
X113555000Y-103585000D01*
X113555000Y-103585000D02*
X111735000Y-103585000D01*
X102490000Y-82505000D02*
X103410000Y-82505000D01*
X102490000Y-84325000D02*
X102490000Y-82505000D01*
X103410000Y-82505000D02*
X103410000Y-84325000D01*
X103410000Y-84325000D02*
X102490000Y-84325000D01*
X142350000Y-83136000D02*
X144350000Y-83136000D01*
X142350000Y-85596000D02*
X142350000Y-83136000D01*
X144350000Y-83136000D02*
X144350000Y-85596000D01*
X144350000Y-85596000D02*
X142350000Y-85596000D01*
X99715000Y-82505000D02*
X100635000Y-82505000D01*
X99715000Y-84325000D02*
X99715000Y-82505000D01*
X100635000Y-82505000D02*
X100635000Y-84325000D01*
X100635000Y-84325000D02*
X99715000Y-84325000D01*
X139670000Y-85170000D02*
X141130000Y-85170000D01*
X139670000Y-88130000D02*
X139670000Y-85170000D01*
X141130000Y-85170000D02*
X141130000Y-88130000D01*
X141130000Y-88130000D02*
X139670000Y-88130000D01*
X132225000Y-94830000D02*
X133165000Y-94830000D01*
X132225000Y-96690000D02*
X132225000Y-94830000D01*
X133165000Y-94830000D02*
X133165000Y-96690000D01*
X133165000Y-96690000D02*
X132225000Y-96690000D01*
X134640000Y-102202500D02*
X134640000Y-105702500D01*
X134640000Y-105702500D02*
X138140000Y-105702500D01*
X138140000Y-102202500D02*
X134640000Y-102202500D01*
X138140000Y-105702500D02*
X138140000Y-102202500D01*
X148700000Y-80435000D02*
X148700000Y-89085000D01*
X148700000Y-89085000D02*
X152300000Y-89085000D01*
X152300000Y-80435000D02*
X148700000Y-80435000D01*
X152300000Y-89085000D02*
X152300000Y-80435000D01*
X110015000Y-82650000D02*
X110935000Y-82650000D01*
X110015000Y-84470000D02*
X110015000Y-82650000D01*
X110935000Y-82650000D02*
X110935000Y-84470000D01*
X110935000Y-84470000D02*
X110015000Y-84470000D01*
X144470000Y-84580000D02*
X146330000Y-84580000D01*
X144470000Y-85520000D02*
X144470000Y-84580000D01*
X146330000Y-84580000D02*
X146330000Y-85520000D01*
X146330000Y-85520000D02*
X144470000Y-85520000D01*
X100250000Y-79280000D02*
X101170000Y-79280000D01*
X100250000Y-81100000D02*
X100250000Y-79280000D01*
X101170000Y-79280000D02*
X101170000Y-81100000D01*
X101170000Y-81100000D02*
X100250000Y-81100000D01*
X130770000Y-98230000D02*
X132630000Y-98230000D01*
X130770000Y-99170000D02*
X130770000Y-98230000D01*
X132630000Y-98230000D02*
X132630000Y-99170000D01*
X132630000Y-99170000D02*
X130770000Y-99170000D01*
X141280000Y-86220000D02*
X142220000Y-86220000D01*
X141280000Y-88080000D02*
X141280000Y-86220000D01*
X142220000Y-86220000D02*
X142220000Y-88080000D01*
X142220000Y-88080000D02*
X141280000Y-88080000D01*
X136750000Y-89377500D02*
X136750000Y-100477500D01*
X136750000Y-100477500D02*
X153550000Y-100477500D01*
X153550000Y-89377500D02*
X136750000Y-89377500D01*
X153550000Y-100477500D02*
X153550000Y-89377500D01*
X145410000Y-88330000D02*
X147270000Y-88330000D01*
X145410000Y-89270000D02*
X145410000Y-88330000D01*
X147270000Y-88330000D02*
X147270000Y-89270000D01*
X147270000Y-89270000D02*
X145410000Y-89270000D01*
X133550000Y-98290000D02*
X134470000Y-98290000D01*
X133550000Y-100110000D02*
X133550000Y-98290000D01*
X134470000Y-98290000D02*
X134470000Y-100110000D01*
X134470000Y-100110000D02*
X133550000Y-100110000D01*
X140790000Y-88290000D02*
X142610000Y-88290000D01*
X140790000Y-89210000D02*
X140790000Y-88290000D01*
X142610000Y-88290000D02*
X142610000Y-89210000D01*
X142610000Y-89210000D02*
X140790000Y-89210000D01*
X120510000Y-98715000D02*
X121430000Y-98715000D01*
X120510000Y-100535000D02*
X120510000Y-98715000D01*
X121430000Y-98715000D02*
X121430000Y-100535000D01*
X121430000Y-100535000D02*
X120510000Y-100535000D01*
X129750000Y-90550000D02*
X130690000Y-90550000D01*
X129750000Y-92410000D02*
X129750000Y-90550000D01*
X130690000Y-90550000D02*
X130690000Y-92410000D01*
X130690000Y-92410000D02*
X129750000Y-92410000D01*
X115730000Y-99995000D02*
X116670000Y-99995000D01*
X115730000Y-101855000D02*
X115730000Y-99995000D01*
X116670000Y-99995000D02*
X116670000Y-101855000D01*
X116670000Y-101855000D02*
X115730000Y-101855000D01*
X125860000Y-94825000D02*
X126780000Y-94825000D01*
X125860000Y-96645000D02*
X125860000Y-94825000D01*
X126780000Y-94825000D02*
X126780000Y-96645000D01*
X126780000Y-96645000D02*
X125860000Y-96645000D01*
X108750000Y-98420000D02*
X109690000Y-98420000D01*
X108750000Y-100280000D02*
X108750000Y-98420000D01*
X109690000Y-98420000D02*
X109690000Y-100280000D01*
X109690000Y-100280000D02*
X108750000Y-100280000D01*
X132340000Y-89610000D02*
X133260000Y-89610000D01*
X132340000Y-91430000D02*
X132340000Y-89610000D01*
X133260000Y-89610000D02*
X133260000Y-91430000D01*
X133260000Y-91430000D02*
X132340000Y-91430000D01*
X142520000Y-78830000D02*
X144380000Y-78830000D01*
X142520000Y-79770000D02*
X142520000Y-78830000D01*
X144380000Y-78830000D02*
X144380000Y-79770000D01*
X144380000Y-79770000D02*
X142520000Y-79770000D01*
X118170000Y-102590000D02*
X119990000Y-102590000D01*
X118170000Y-103510000D02*
X118170000Y-102590000D01*
X119990000Y-102590000D02*
X119990000Y-103510000D01*
X119990000Y-103510000D02*
X118170000Y-103510000D01*
X133605000Y-102410000D02*
X134525000Y-102410000D01*
X133605000Y-104230000D02*
X133605000Y-102410000D01*
X134525000Y-102410000D02*
X134525000Y-104230000D01*
X134525000Y-104230000D02*
X133605000Y-104230000D01*
X144550000Y-78825000D02*
X148400000Y-78825000D01*
X144550000Y-82365000D02*
X144550000Y-78825000D01*
X148400000Y-78825000D02*
X148400000Y-82365000D01*
X148400000Y-82365000D02*
X144550000Y-82365000D01*
X99520000Y-94155000D02*
X101380000Y-94155000D01*
X99520000Y-95095000D02*
X99520000Y-94155000D01*
X101380000Y-94155000D02*
X101380000Y-95095000D01*
X101380000Y-95095000D02*
X99520000Y-95095000D01*
X121930000Y-98720000D02*
X122870000Y-98720000D01*
X121930000Y-100580000D02*
X121930000Y-98720000D01*
X122870000Y-98720000D02*
X122870000Y-100580000D01*
X122870000Y-100580000D02*
X121930000Y-100580000D01*
X143270000Y-76570000D02*
X146230000Y-76570000D01*
X143270000Y-78030000D02*
X143270000Y-76570000D01*
X146230000Y-76570000D02*
X146230000Y-78030000D01*
X146230000Y-78030000D02*
X143270000Y-78030000D01*
X100540000Y-81235000D02*
X102360000Y-81235000D01*
X100540000Y-82155000D02*
X100540000Y-81235000D01*
X102360000Y-81235000D02*
X102360000Y-82155000D01*
X102360000Y-82155000D02*
X100540000Y-82155000D01*
X138540000Y-86990000D02*
X139460000Y-86990000D01*
X138540000Y-88810000D02*
X138540000Y-86990000D01*
X139460000Y-86990000D02*
X139460000Y-88810000D01*
X139460000Y-88810000D02*
X138540000Y-88810000D01*
X133730000Y-94825000D02*
X134670000Y-94825000D01*
X133730000Y-96685000D02*
X133730000Y-94825000D01*
X134670000Y-94825000D02*
X134670000Y-96685000D01*
X134670000Y-96685000D02*
X133730000Y-96685000D01*
X102515000Y-78500000D02*
X103455000Y-78500000D01*
X102515000Y-80360000D02*
X102515000Y-78500000D01*
X103455000Y-78500000D02*
X103455000Y-80360000D01*
X103455000Y-80360000D02*
X102515000Y-80360000D01*
X99520000Y-93130000D02*
X101380000Y-93130000D01*
X99520000Y-94070000D02*
X99520000Y-93130000D01*
X101380000Y-93130000D02*
X101380000Y-94070000D01*
X101380000Y-94070000D02*
X99520000Y-94070000D01*
X144455000Y-85735000D02*
X145395000Y-85735000D01*
X144455000Y-87595000D02*
X144455000Y-85735000D01*
X145395000Y-85735000D02*
X145395000Y-87595000D01*
X145395000Y-87595000D02*
X144455000Y-87595000D01*
X132340000Y-92090000D02*
X133260000Y-92090000D01*
X132340000Y-93910000D02*
X132340000Y-92090000D01*
X133260000Y-92090000D02*
X133260000Y-93910000D01*
X133260000Y-93910000D02*
X132340000Y-93910000D01*
D11*
X88600000Y-86218000D02*
X98550000Y-86218000D01*
X88600000Y-102023000D02*
X88600000Y-86218000D01*
X98550000Y-86218000D02*
X98550000Y-102023000D01*
X98550000Y-102023000D02*
X88600000Y-102023000D01*
D10*
X133605000Y-104705000D02*
X134525000Y-104705000D01*
X133605000Y-106525000D02*
X133605000Y-104705000D01*
X134525000Y-104705000D02*
X134525000Y-106525000D01*
X134525000Y-106525000D02*
X133605000Y-106525000D01*
X116210000Y-97280000D02*
X118070000Y-97280000D01*
X116210000Y-98220000D02*
X116210000Y-97280000D01*
X118070000Y-97280000D02*
X118070000Y-98220000D01*
X118070000Y-98220000D02*
X116210000Y-98220000D01*
X131170000Y-94830000D02*
X132090000Y-94830000D01*
X131170000Y-96650000D02*
X131170000Y-94830000D01*
X132090000Y-94830000D02*
X132090000Y-96650000D01*
X132090000Y-96650000D02*
X131170000Y-96650000D01*
X134810000Y-94825000D02*
X135730000Y-94825000D01*
X134810000Y-96645000D02*
X134810000Y-94825000D01*
X135730000Y-94825000D02*
X135730000Y-96645000D01*
X135730000Y-96645000D02*
X134810000Y-96645000D01*
X108960000Y-80960000D02*
X110780000Y-80960000D01*
X108960000Y-81880000D02*
X108960000Y-80960000D01*
X110780000Y-80960000D02*
X110780000Y-81880000D01*
X110780000Y-81880000D02*
X108960000Y-81880000D01*
M02*
