M48
; DRILL file {KiCad 7.0.7} date 2023 September 18, Monday 11:47:46
; FORMAT={-:-/ absolute / metric / decimal}
; #@! TF.CreationDate,2023-09-18T11:47:46+09:00
; #@! TF.GenerationSoftware,Kicad,Pcbnew,7.0.7
; #@! TF.FileFunction,Plated,1,2,PTH
FMAT,2
METRIC
; #@! TA.AperFunction,Plated,PTH,ViaDrill
T1C0.300
; #@! TA.AperFunction,Plated,PTH,ViaDrill
T2C0.400
; #@! TA.AperFunction,Plated,PTH,ComponentDrill
T3C0.600
; #@! TA.AperFunction,Plated,PTH,ComponentDrill
T4C0.800
; #@! TA.AperFunction,Plated,PTH,ComponentDrill
T5C1.000
; #@! TA.AperFunction,Plated,PTH,ComponentDrill
T6C1.800
%
G90
G05
T1
X106.265Y-87.165
X107.265Y-104.165
X107.765Y-87.215
X108.365Y-103.065
X108.85Y-81.25
X108.85Y-84.45
X110.215Y-85.885
X111.483Y-100.015
X111.515Y-91.815
X112.05Y-81.25
X112.05Y-84.45
X112.583Y-98.665
X112.683Y-93.215
X114.033Y-90.965
X114.615Y-95.465
X114.615Y-96.465
X115.265Y-89.565
X115.633Y-93.6
X116.565Y-90.965
X116.833Y-96.425
X117.283Y-89.685
X118.433Y-88.485
X118.533Y-97.175
X119.533Y-90.725
X119.865Y-95.865
X120.265Y-95.165
X120.745Y-77.45
X122.283Y-96.025
X122.783Y-89.525
X123.445Y-78.55
X123.445Y-79.6
X123.765Y-96.365
X124.543Y-90.865
X125.974Y-92.496
X126.033Y-91.525
X126.365Y-96.765
X126.483Y-94.815
X127.633Y-99.625
X128.033Y-92.315
X128.033Y-95.065
X129.1Y-90.5
X129.333Y-93.715
X129.8Y-89.8
X132.0Y-91.95
X133.9Y-87.4
X133.924Y-94.825
X136.07Y-88.87
X136.275Y-89.95
X136.275Y-91.75
X136.275Y-100.15
X136.3Y-101.9
X137.775Y-89.95
X137.8Y-101.9
X138.085Y-109.622
X138.206Y-103.325
X138.7Y-104.0
X139.475Y-93.85
X139.475Y-98.35
X139.8Y-107.6
X141.135Y-104.655
X141.3Y-109.7
X141.675Y-96.05
X142.035Y-109.722
X143.0Y-111.5
X143.635Y-109.722
X143.775Y-93.85
X143.775Y-98.35
X144.25Y-88.9
X144.5Y-84.5
X144.635Y-104.655
X144.735Y-108.572
X145.475Y-96.05
X146.375Y-93.85
X146.4Y-111.5
X146.5Y-113.1
X147.875Y-88.15
X147.875Y-89.45
X147.875Y-93.15
X147.875Y-94.45
X147.9Y-102.4
X147.9Y-103.5
X148.0Y-113.1
X148.5Y-84.5
X148.975Y-88.15
X148.975Y-89.45
X148.975Y-93.15
X148.975Y-94.45
X149.0Y-113.1
X149.2Y-102.35
X149.2Y-103.5
T2
X121.833Y-92.225
X121.833Y-93.575
X123.283Y-92.225
X123.283Y-93.575
X128.9Y-105.85
X130.6Y-81.3
X135.2Y-103.8
T4
X110.215Y-87.735
X112.215Y-87.735
X131.0Y-75.7
X131.0Y-79.0
X133.5Y-75.7
X133.5Y-79.0
X136.0Y-75.7
X136.0Y-79.0
X148.0Y-105.5
X148.0Y-107.5
X148.0Y-109.5
X148.0Y-111.5
T5
X136.22Y-111.5
X138.76Y-111.5
X141.3Y-111.5
T6
X110.42Y-82.9
X110.42Y-105.4
X117.17Y-76.15
X117.17Y-112.15
X123.92Y-82.9
X123.92Y-105.4
T3
G00X106.715Y-90.315
M15
G01X105.715Y-90.315
M16
G05
G00X106.715Y-101.555
M15
G01X105.715Y-101.555
M16
G05
G00X110.515Y-90.315
M15
G01X109.915Y-90.315
M16
G05
G00X110.515Y-101.555
M15
G01X109.915Y-101.555
M16
G05
T0
M30
