%TF.GenerationSoftware,KiCad,Pcbnew,7.0.7*%
%TF.CreationDate,2023-09-18T11:47:39+09:00*%
%TF.ProjectId,gas_nrf52832,6761735f-6e72-4663-9532-3833322e6b69,rev?*%
%TF.SameCoordinates,Original*%
%TF.FileFunction,Legend,Bot*%
%TF.FilePolarity,Positive*%
%FSLAX46Y46*%
G04 Gerber Fmt 4.6, Leading zero omitted, Abs format (unit mm)*
G04 Created by KiCad (PCBNEW 7.0.7) date 2023-09-18 11:47:39*
%MOMM*%
%LPD*%
G01*
G04 APERTURE LIST*
%ADD10C,0.100000*%
%ADD11C,0.200000*%
%ADD12R,1.700000X1.700000*%
%ADD13O,1.700000X1.700000*%
%ADD14R,1.350000X1.350000*%
%ADD15O,1.350000X1.350000*%
%ADD16O,2.304000X1.304000*%
%ADD17O,1.904000X1.304000*%
%ADD18C,2.300000*%
G04 APERTURE END LIST*
D10*
X116408095Y-105942580D02*
X116408095Y-105133057D01*
X116408095Y-105133057D02*
X116455714Y-105037819D01*
X116455714Y-105037819D02*
X116503333Y-104990200D01*
X116503333Y-104990200D02*
X116598571Y-104942580D01*
X116598571Y-104942580D02*
X116789047Y-104942580D01*
X116789047Y-104942580D02*
X116884285Y-104990200D01*
X116884285Y-104990200D02*
X116931904Y-105037819D01*
X116931904Y-105037819D02*
X116979523Y-105133057D01*
X116979523Y-105133057D02*
X116979523Y-105942580D01*
X117408095Y-105847342D02*
X117455714Y-105894961D01*
X117455714Y-105894961D02*
X117550952Y-105942580D01*
X117550952Y-105942580D02*
X117789047Y-105942580D01*
X117789047Y-105942580D02*
X117884285Y-105894961D01*
X117884285Y-105894961D02*
X117931904Y-105847342D01*
X117931904Y-105847342D02*
X117979523Y-105752104D01*
X117979523Y-105752104D02*
X117979523Y-105656866D01*
X117979523Y-105656866D02*
X117931904Y-105514009D01*
X117931904Y-105514009D02*
X117360476Y-104942580D01*
X117360476Y-104942580D02*
X117979523Y-104942580D01*
X116408095Y-83442580D02*
X116408095Y-82633057D01*
X116408095Y-82633057D02*
X116455714Y-82537819D01*
X116455714Y-82537819D02*
X116503333Y-82490200D01*
X116503333Y-82490200D02*
X116598571Y-82442580D01*
X116598571Y-82442580D02*
X116789047Y-82442580D01*
X116789047Y-82442580D02*
X116884285Y-82490200D01*
X116884285Y-82490200D02*
X116931904Y-82537819D01*
X116931904Y-82537819D02*
X116979523Y-82633057D01*
X116979523Y-82633057D02*
X116979523Y-83442580D01*
X117979523Y-82442580D02*
X117408095Y-82442580D01*
X117693809Y-82442580D02*
X117693809Y-83442580D01*
X117693809Y-83442580D02*
X117598571Y-83299723D01*
X117598571Y-83299723D02*
X117503333Y-83204485D01*
X117503333Y-83204485D02*
X117408095Y-83156866D01*
D11*
X127170000Y-105400000D02*
G75*
G03*
X127170000Y-105400000I-10000000J0D01*
G01*
X127170000Y-82900000D02*
G75*
G03*
X127170000Y-82900000I-10000000J0D01*
G01*
%LPC*%
D12*
X141300000Y-111500000D03*
D13*
X138760000Y-111500000D03*
X136220000Y-111500000D03*
D14*
X112215312Y-87735312D03*
D15*
X110215312Y-87735312D03*
D16*
X106215312Y-90315312D03*
X106215312Y-101555312D03*
D17*
X110215312Y-90315312D03*
X110215312Y-101555312D03*
D14*
X148000000Y-111500000D03*
D15*
X148000000Y-109500000D03*
X148000000Y-107500000D03*
X148000000Y-105500000D03*
D14*
X136000000Y-79000000D03*
D15*
X133500000Y-79000000D03*
X131000000Y-79000000D03*
X136000000Y-75700000D03*
X133500000Y-75700000D03*
X131000000Y-75700000D03*
D18*
X123920000Y-105400000D03*
X110420000Y-105400000D03*
X117170000Y-112150000D03*
X117170000Y-76150000D03*
X110420000Y-82900000D03*
X123920000Y-82900000D03*
%LPD*%
M02*
